<?xml version="1.0" standalone="no"?>
<!DOCTYPE svg PUBLIC "-//W3C//DTD SVG 1.1//EN" "http://www.w3.org/Graphics/SVG/1.1/DTD/svg11.dtd" >
<svg xmlns="http://www.w3.org/2000/svg" xmlns:xlink="http://www.w3.org/1999/xlink" version="1.1">
<metadata>
Created by FontForge 20170731 at Sat Sep 30 12:32:24 2023
 By Aleksey,,,
(c) 2011 Klim Type Foundry. All rights reserved.
</metadata>
<defs>
<font id="Calibre-Regular" horiz-adv-x="1024" >
  <font-face 
    font-family="Calibre"
    font-weight="400"
    font-stretch="normal"
    units-per-em="2048"
    panose-1="2 11 5 3 3 2 2 6 2 3"
    ascent="1638"
    descent="-410"
    x-height="909"
    cap-height="1257"
    bbox="-246 -412 1860 1831"
    underline-thickness="61"
    underline-position="-204"
    unicode-range="U+0020-FB02"
  />
<missing-glyph horiz-adv-x="1245" 
 />
    <glyph glyph-name="f_f" unicode="ff" horiz-adv-x="1126" 
d="M1126 1329v-139q-41 24 -98 24q-68 0 -107.5 -42.5t-39.5 -122.5v-140h204v-131h-204v-778h-154v778h-381v-778h-151v778h-154v131h154v140q0 134 77.5 211t200.5 77q69 0 119 -20v-139q-39 24 -96 24q-69 0 -109.5 -43t-40.5 -123v-127h381v152q0 134 78 211.5t201 77.5
q68 0 120 -21z" />
    <glyph glyph-name=".notdef" horiz-adv-x="1245" 
 />
    <glyph glyph-name=".null" horiz-adv-x="0" 
 />
    <glyph glyph-name="nonmarkingreturn" horiz-adv-x="682" 
 />
    <glyph glyph-name="space" unicode=" " horiz-adv-x="452" 
 />
    <glyph glyph-name="exclam" unicode="!" horiz-adv-x="415" 
d="M152 395l-35 862h182l-37 -862h-110zM98 100q0 47 32 80t77 33q46 0 78 -33t32 -80t-32 -78.5t-78 -31.5q-45 0 -77 31.5t-32 78.5z" />
    <glyph glyph-name="quotedbl" unicode="&#x22;" horiz-adv-x="542" 
d="M82 809v448h135v-448h-135zM326 809v448h135v-448h-135z" />
    <glyph glyph-name="numbersign" unicode="#" horiz-adv-x="1179" 
d="M1047 481l-25 -121h-213l-86 -360h-139l86 360h-289l-86 -360h-137l86 360h-197l27 121h198l70 295h-209l25 121h213l86 360h139l-88 -360h289l88 360h137l-86 -360h194l-24 -121h-199l-69 -295h209zM479 776l-69 -295h288l70 295h-289z" />
    <glyph glyph-name="dollar" unicode="$" horiz-adv-x="976" 
d="M430 -182v202q-148 18 -247 100.5t-128 219.5h156q66 -188 293 -188q118 0 189 53.5t71 148.5q0 71 -43.5 116t-142.5 71l-209 55q-285 72 -285 311q0 140 96 230.5t250 101.5v184h141v-190q132 -23 215 -102t113 -203h-151q-28 83 -97.5 131.5t-181.5 48.5
q-106 0 -172 -52t-66 -141q0 -73 46 -114.5t143 -67.5l198 -51q291 -77 291 -322q0 -144 -93 -233t-245 -107v-202h-141z" />
    <glyph glyph-name="percent" unicode="%" horiz-adv-x="1314" 
d="M612 1004q0 -114 -79 -193.5t-193 -79.5t-193 79.5t-79 193.5t79 193t193 79t193 -79t79 -193zM203 0l784 1257h127l-784 -1257h-127zM188 1004q0 -63 44.5 -107.5t107.5 -44.5t108.5 44.5t45.5 107.5t-45.5 108t-108.5 45t-107.5 -45t-44.5 -108zM1247 254
q0 -114 -79 -193t-193 -79t-193.5 79t-79.5 193t79.5 193t193.5 79t193 -79t79 -193zM1126 254q0 63 -44 107.5t-107 44.5t-108.5 -44.5t-45.5 -107.5t45.5 -108.5t108.5 -45.5t107 45.5t44 108.5z" />
    <glyph glyph-name="ampersand" unicode="&#x26;" horiz-adv-x="1198" 
d="M889 971h-154q-5 80 -52.5 130t-129.5 50q-84 0 -139.5 -50.5t-55.5 -137.5q0 -27 8.5 -54t17.5 -45t32.5 -48t34.5 -42t43 -47l352 -375q53 121 59 279h144q-6 -213 -109 -381l236 -250h-203l-125 131q-149 -149 -361 -149q-179 0 -293 108.5t-114 276.5q0 111 63.5 203
t165.5 141q-50 62 -75 119.5t-25 127.5q0 145 97 231.5t247 86.5q154 0 242 -86t94 -219zM487 111q169 0 275 112l-367 391q-74 -28 -121 -95.5t-47 -151.5q0 -113 72.5 -184.5t187.5 -71.5z" />
    <glyph glyph-name="quotesingle" unicode="'" horiz-adv-x="303" 
d="M82 809v448h139v-448h-139z" />
    <glyph glyph-name="parenleft" unicode="(" horiz-adv-x="657" 
d="M61 580q0 281 148 483t401 268v-164q-171 -43 -283 -200.5t-112 -386.5t112 -387t283 -201v-164q-252 66 -400.5 268.5t-148.5 483.5z" />
    <glyph glyph-name="parenright" unicode=")" horiz-adv-x="657" 
d="M596 580q0 -281 -148.5 -483.5t-400.5 -268.5v164q171 43 283 201t112 387t-112 386.5t-283 200.5v164q253 -66 401 -268t148 -483z" />
    <glyph glyph-name="asterisk" unicode="*" horiz-adv-x="679" 
d="M248 1036l-185 109l46 78l186 -107v213h90v-213l186 107l45 -78l-186 -109l186 -106l-45 -78l-186 106v-215h-90v215l-186 -106l-46 78z" />
    <glyph glyph-name="plus" unicode="+" horiz-adv-x="1105" 
d="M489 1012h127v-340h340v-127h-340v-340h-127v340h-339v127h339v340z" />
    <glyph glyph-name="comma" unicode="," horiz-adv-x="350" 
d="M27 -219l129 217q-40 6 -65 32.5t-25 69.5q0 47 32 78t78 31q47 0 78 -32t31 -87q0 -59 -45 -129l-109 -180h-104z" />
    <glyph glyph-name="hyphen" unicode="-" horiz-adv-x="657" 
d="M82 463v143h493v-143h-493z" />
    <glyph glyph-name="period" unicode="." horiz-adv-x="350" 
d="M66 100q0 47 32 80t78 33q45 0 77 -33t32 -80t-32 -78.5t-77 -31.5q-46 0 -78 31.5t-32 78.5z" />
    <glyph glyph-name="slash" unicode="/" horiz-adv-x="681" 
d="M10 -172l508 1503h154l-508 -1503h-154z" />
    <glyph glyph-name="zero" unicode="0" horiz-adv-x="1101" 
d="M551 -18q-210 0 -339.5 179.5t-129.5 467.5t129.5 467.5t339.5 179.5t339.5 -179.5t129.5 -467.5t-129.5 -467.5t-339.5 -179.5zM551 1130q-100 0 -171 -64.5t-105.5 -176.5t-34.5 -260t34.5 -260t105.5 -177t171 -65q148 0 229.5 138t81.5 364q0 148 -35 260t-106 176.5
t-170 64.5z" />
    <glyph glyph-name="one" unicode="1" horiz-adv-x="673" 
d="M520 1260v-1260h-158v1065l-311 -160v164l373 191h96z" />
    <glyph glyph-name="two" unicode="2" horiz-adv-x="935" 
d="M698 920q0 97 -61.5 155t-165.5 58q-110 0 -173.5 -69.5t-72.5 -182.5h-166q19 177 130 286t282 109q179 0 281 -96t102 -258q0 -29 -7 -59.5t-14 -53.5t-27.5 -56.5t-30 -49.5t-40.5 -54t-40.5 -49t-48.5 -54.5t-46 -51.5l-319 -351h600v-143h-822v106l406 447
q125 137 162 187q71 99 71 180z" />
    <glyph glyph-name="three" unicode="3" horiz-adv-x="942" 
d="M377 575v138h84q103 0 169 56t66 155q0 93 -62.5 153t-166.5 60q-103 0 -169.5 -61.5t-80.5 -162.5h-158q24 162 133.5 262.5t274.5 100.5q177 0 280 -95.5t103 -248.5q0 -103 -55 -181.5t-142 -105.5q101 -29 161 -108t60 -185q0 -160 -109.5 -265t-293.5 -105
t-302.5 102.5t-133.5 273.5h158q18 -111 89 -174t187 -63q113 0 182.5 62.5t69.5 166.5q0 103 -73 164t-183 61h-88z" />
    <glyph glyph-name="four" unicode="4" horiz-adv-x="1042" 
d="M692 1257l-469 -837h402v303h149v-303h221v-135h-221v-285h-149v285h-580v114l483 858h164z" />
    <glyph glyph-name="five" unicode="5" horiz-adv-x="960" 
d="M485 676q-133 0 -223 -109h-127v690h688v-143h-553v-379q36 33 97.5 56.5t132.5 23.5q173 0 284 -118t111 -300q0 -179 -115 -297t-293 -118q-180 0 -295 100.5t-137 275.5h158q21 -113 89.5 -175t184.5 -62q113 0 184.5 78t71.5 198t-72 199.5t-186 79.5z" />
    <glyph glyph-name="six" unicode="6" 
d="M934 965h-160q-59 178 -231 178q-137 0 -227.5 -138.5t-90.5 -342.5l2 -56q31 95 119.5 155t198.5 60q179 0 293 -122t114 -296q0 -178 -116.5 -299.5t-305.5 -121.5q-124 0 -220 60.5t-154 178.5q-74 158 -74 385q0 304 127.5 487t333.5 183q312 0 391 -311zM260 401
q0 -124 75.5 -203t196.5 -79q119 0 195 79t76 203q0 126 -76 206.5t-195 80.5q-120 0 -196 -80t-76 -207z" />
    <glyph glyph-name="seven" unicode="7" horiz-adv-x="901" 
d="M850 1133l-449 -1133h-161l444 1114h-647v143h813v-124z" />
    <glyph glyph-name="eight" unicode="8" horiz-adv-x="997" 
d="M498 -18q-184 0 -306 100t-122 260q0 120 68.5 205.5t176.5 114.5q-90 32 -145 107t-55 175q0 149 109.5 240.5t273.5 91.5q165 0 275 -91.5t110 -240.5q0 -100 -56 -175t-145 -107q107 -29 176.5 -115t69.5 -205q0 -161 -122 -260.5t-308 -99.5zM498 729q99 0 165 58
t66 149q0 93 -65.5 151t-165.5 58q-98 0 -164 -58.5t-66 -150.5q0 -91 66 -149t164 -58zM498 113q120 0 197 67t77 174q0 106 -77 173t-197 67q-119 0 -196 -67.5t-77 -172.5q0 -107 77 -174t196 -67z" />
    <glyph glyph-name="nine" unicode="9" 
d="M90 293h160q59 -178 231 -178q137 0 227.5 138.5t90.5 342.5l-2 55q-31 -95 -119.5 -155t-198.5 -60q-179 0 -293 122t-114 296q0 178 116.5 300t305.5 122q124 0 220 -61t154 -179q74 -158 74 -385q0 -304 -127.5 -486.5t-333.5 -182.5q-312 0 -391 311zM764 856
q0 124 -75.5 203.5t-196.5 79.5q-119 0 -195 -79.5t-76 -203.5q0 -126 76 -206.5t195 -80.5q120 0 196 80t76 207z" />
    <glyph glyph-name="colon" unicode=":" horiz-adv-x="350" 
d="M66 743q0 47 32 80t78 33q45 0 77 -33t32 -80t-32 -78.5t-77 -31.5q-46 0 -78 31.5t-32 78.5zM66 100q0 47 32 80t78 33q45 0 77 -33t32 -80t-32 -78.5t-77 -31.5q-46 0 -78 31.5t-32 78.5z" />
    <glyph glyph-name="semicolon" unicode=";" horiz-adv-x="350" 
d="M66 743q0 47 32 80t78 33q45 0 77 -33t32 -80t-32 -78.5t-77 -31.5q-46 0 -78 31.5t-32 78.5zM27 -219l129 217q-40 6 -65 32.5t-25 69.5q0 47 32 78t78 31q47 0 78 -32t31 -87q0 -59 -45 -129l-109 -180h-104z" />
    <glyph glyph-name="less" unicode="&#x3c;" horiz-adv-x="866" 
d="M127 524v160l606 309v-145l-487 -244l487 -244v-145z" />
    <glyph glyph-name="equal" unicode="=" horiz-adv-x="1128" 
d="M162 690v123h807v-123h-807zM162 408v118h807v-118h-807z" />
    <glyph glyph-name="greater" unicode="&#x3e;" horiz-adv-x="866" 
d="M741 684v-160l-608 -309v145l488 244l-488 244v145z" />
    <glyph glyph-name="question" unicode="?" horiz-adv-x="884" 
d="M836 924q0 -22 -4 -44.5t-8 -41t-15.5 -41t-18 -36.5t-23.5 -37t-24 -33t-29 -34.5t-28 -31t-30.5 -32.5t-28.5 -30q-49 -52 -67.5 -90t-20.5 -78h-152q4 74 29.5 125t89.5 121q14 16 45 48t48.5 53t39 51.5t31.5 62t10 66.5q0 97 -61.5 154t-165.5 57q-109 0 -173 -69
t-73 -183h-166q19 177 130.5 286t281.5 109q179 0 281 -95t102 -257zM348 100q0 47 32 80t77 33q46 0 78 -33t32 -80t-32 -78.5t-78 -31.5q-45 0 -77 31.5t-32 78.5z" />
    <glyph glyph-name="at" unicode="@" horiz-adv-x="1585" 
d="M1147 780l-88 -497q-10 -60 10.5 -85.5t71.5 -25.5q112 0 184 102.5t72 280.5q0 220 -155.5 354.5t-399.5 134.5q-189 0 -337.5 -85.5t-230 -235.5t-81.5 -338q0 -126 38.5 -228t102 -167.5t149 -109.5t175.5 -62.5t186 -18.5q234 0 444 95v-117q-83 -40 -200 -66
t-244 -26q-122 0 -233.5 25t-211.5 80t-173.5 135.5t-116.5 198.5t-43 261q0 159 56.5 301t156.5 246.5t246 165.5t317 61q148 0 275.5 -46t215.5 -126.5t137.5 -192t49.5 -239.5q0 -121 -33.5 -217.5t-90.5 -155.5t-127.5 -90t-148.5 -31q-73 0 -128.5 31.5t-76.5 87.5
q-31 -51 -89 -84t-119 -33q-125 0 -198 86t-73 218q0 112 46.5 210.5t133 160t193.5 61.5q64 0 113 -27.5t73 -66.5l15 75h137zM922 309l47 254q-18 48 -58.5 78.5t-93.5 30.5q-105 0 -172 -91t-67 -208q0 -83 42 -133t115 -50q109 0 187 119z" />
    <glyph glyph-name="A" unicode="A" horiz-adv-x="1220" 
d="M535 1257h151l492 -1257h-164l-146 379h-518l-143 -379h-164zM608 1057l-205 -537h410z" />
    <glyph glyph-name="B" unicode="B" horiz-adv-x="1101" 
d="M795 651q101 -26 164 -108.5t63 -188.5q0 -170 -111 -262t-307 -92h-454v1257h413q197 0 306.5 -86t109.5 -247q0 -106 -52.5 -177t-131.5 -96zM307 711h256q260 0 260 204q0 201 -260 201h-256v-405zM307 575v-434h297q125 0 192.5 58.5t67.5 158.5q0 101 -67 159
t-193 58h-297z" />
    <glyph glyph-name="C" unicode="C" horiz-adv-x="1200" 
d="M76 629q0 144 43.5 265.5t119 205t179 130t221.5 46.5q194 0 322 -104.5t167 -282.5h-159q-85 241 -330 241q-180 0 -290.5 -138.5t-110.5 -362.5t110 -363t291 -139q245 0 330 244h159q-39 -180 -167 -284.5t-322 -104.5q-118 0 -221.5 46.5t-179 130t-119 205
t-43.5 265.5z" />
    <glyph glyph-name="D" unicode="D" horiz-adv-x="1239" 
d="M150 0v1257h403q277 0 443.5 -170.5t166.5 -457.5t-166.5 -458t-443.5 -171h-403zM311 145h240q212 0 332.5 130.5t120.5 353.5t-120.5 354t-332.5 131h-240v-969z" />
    <glyph glyph-name="E" unicode="E" horiz-adv-x="1054" 
d="M150 1257h800v-143h-641v-397h582v-144h-582v-428h641v-145h-800v1257z" />
    <glyph glyph-name="F" unicode="F" horiz-adv-x="993" 
d="M311 0h-161v1257h768v-143h-607v-424h570v-143h-570v-547z" />
    <glyph glyph-name="G" unicode="G" horiz-adv-x="1249" 
d="M1020 481h-301v140h455v-86q0 -250 -144.5 -401.5t-376.5 -151.5q-250 0 -413.5 178.5t-163.5 468.5q0 144 44.5 266t121.5 205t182 129.5t225 46.5q197 0 327 -104.5t169 -282.5h-162q-87 241 -334 241q-184 0 -297.5 -138t-113.5 -363q0 -226 114 -365t301 -139
q162 0 257.5 95t109.5 261z" />
    <glyph glyph-name="H" unicode="H" horiz-adv-x="1333" 
d="M1022 1257h162v-1257h-162v573h-711v-573h-161v1257h161v-538h711v538z" />
    <glyph glyph-name="I" unicode="I" horiz-adv-x="460" 
d="M311 1257v-1257h-161v1257h161z" />
    <glyph glyph-name="J" unicode="J" horiz-adv-x="980" 
d="M35 356h166q12 -107 75 -167t168 -60q120 0 185 70.5t65 218.5v839h162v-839q0 -213 -111.5 -324.5t-298.5 -111.5q-182 0 -290.5 102t-120.5 272z" />
    <glyph glyph-name="K" unicode="K" horiz-adv-x="1155" 
d="M311 1257v-628l586 628h205l-539 -573l557 -684h-200l-474 573l-135 -145v-428h-161v1257h161z" />
    <glyph glyph-name="L" unicode="L" horiz-adv-x="1032" 
d="M150 0v1257h161v-1112h641v-145h-802z" />
    <glyph glyph-name="M" unicode="M" horiz-adv-x="1507" 
d="M811 0h-111l-397 958v-958h-153v1257h182l426 -1032l424 1032h176v-1257h-154v958z" />
    <glyph glyph-name="N" unicode="N" horiz-adv-x="1275" 
d="M1126 1257v-1257h-118l-703 999v-999h-155v1257h153l670 -956v956h153z" />
    <glyph glyph-name="O" unicode="O" horiz-adv-x="1288" 
d="M1212 629q0 -284 -160 -465.5t-409 -181.5q-163 0 -292.5 82t-202 230t-72.5 335q0 285 159.5 466t407.5 181q123 0 228.5 -48t180.5 -132.5t117.5 -205t42.5 -261.5zM1051 629q0 222 -113 361.5t-295 139.5q-181 0 -293 -139.5t-112 -361.5t112 -362t293 -140
q182 0 295 140t113 362z" />
    <glyph glyph-name="P" unicode="P" horiz-adv-x="1099" 
d="M621 504h-310v-504h-161v1257h471q194 0 303.5 -96.5t109.5 -279.5q0 -182 -110 -279.5t-303 -97.5zM874 881q0 109 -66.5 172t-191.5 63h-305v-469h305q125 0 191.5 63t66.5 171z" />
    <glyph glyph-name="Q" unicode="Q" horiz-adv-x="1286" 
d="M1024 -74l-102 129q-127 -73 -279 -73q-163 0 -292.5 82t-202 230t-72.5 335q0 285 159.5 466t407.5 181q123 0 228.5 -48t180.5 -132.5t117.5 -205t42.5 -261.5q0 -150 -48 -275t-134 -213l105 -131zM1051 629q0 222 -113 361.5t-295 139.5q-181 0 -293 -139.5
t-112 -361.5t112 -362t293 -140q109 0 188 43l-106 135l111 82l102 -131q113 135 113 373z" />
    <glyph glyph-name="R" unicode="R" horiz-adv-x="1130" 
d="M535 532h-224v-532h-161v1257h466q192 0 302 -94t110 -270q0 -154 -84 -243.5t-235 -110.5l370 -539h-184zM311 1116v-446h301q123 0 189.5 59t66.5 164t-66.5 164t-189.5 59h-301z" />
    <glyph glyph-name="S" unicode="S" horiz-adv-x="1042" 
d="M47 328h164q35 -103 118 -156t201 -53q125 0 202 58.5t77 160.5q0 75 -47 123.5t-154 75.5l-225 59q-142 37 -221.5 113.5t-79.5 210.5q0 158 117 257t297 99q189 0 306.5 -89t153.5 -243h-161q-31 90 -105.5 142.5t-193.5 52.5q-115 0 -187.5 -56t-72.5 -151
q0 -77 49 -121.5t151 -71.5l215 -55q314 -80 314 -338q0 -167 -122 -265.5t-313 -98.5q-190 0 -319 91t-164 255z" />
    <glyph glyph-name="T" unicode="T" horiz-adv-x="1161" 
d="M61 1114v143h1039v-143h-438v-1114h-162v1114h-439z" />
    <glyph glyph-name="U" unicode="U" horiz-adv-x="1243" 
d="M621 -18q-222 0 -357 133.5t-135 384.5v757h160v-739q0 -196 87.5 -294.5t244.5 -98.5t244 98.5t87 294.5v739h162v-759q0 -250 -135 -383t-358 -133z" />
    <glyph glyph-name="V" unicode="V" horiz-adv-x="1208" 
d="M680 0h-152l-485 1257h170l393 -1044l395 1044h164z" />
    <glyph glyph-name="W" unicode="W" horiz-adv-x="1570" 
d="M723 1257h129l266 -999l258 999h156l-334 -1257h-147l-265 981l-268 -981h-145l-334 1257h160l258 -999z" />
    <glyph glyph-name="X" unicode="X" horiz-adv-x="1140" 
d="M1090 1257l-428 -614l446 -643h-184l-357 512l-354 -512h-178l444 639l-428 618h185l335 -489l340 489h179z" />
    <glyph glyph-name="Y" unicode="Y" horiz-adv-x="1140" 
d="M573 664l363 593h172l-459 -739v-518h-160v518l-454 739h176z" />
    <glyph glyph-name="Z" unicode="Z" horiz-adv-x="1093" 
d="M1008 145v-145h-924v117l715 997h-705v143h905v-114l-712 -998h721z" />
    <glyph glyph-name="bracketleft" unicode="[" horiz-adv-x="641" 
d="M297 1192v-1225h297v-139h-444v1503h444v-139h-297z" />
    <glyph glyph-name="backslash" unicode="\" horiz-adv-x="681" 
d="M164 1331l508 -1503h-154l-508 1503h154z" />
    <glyph glyph-name="bracketright" unicode="]" horiz-adv-x="641" 
d="M344 -33v1225h-297v139h445v-1503h-445v139h297z" />
    <glyph glyph-name="asciicircum" unicode="^" horiz-adv-x="731" 
d="M291 1257h151l254 -397h-159l-170 262l-170 -262h-162z" />
    <glyph glyph-name="underscore" unicode="_" horiz-adv-x="751" 
d="M41 -225v139h670v-139h-670z" />
    <glyph glyph-name="grave" unicode="`" 
d="M674 1057h-142l-182 274h160z" />
    <glyph glyph-name="a" unicode="a" horiz-adv-x="921" 
d="M797 0h-148v68q-30 -32 -96.5 -58t-142.5 -26q-143 0 -240.5 79.5t-97.5 210.5q0 126 100 205.5t248 79.5q66 0 131.5 -22.5t97.5 -51.5v115q0 87 -52 141t-148 54q-144 0 -187 -125h-151q23 116 116.5 187t223.5 71q162 0 254 -86t92 -236v-606zM649 225v94
q-20 50 -80.5 81.5t-132.5 31.5q-91 0 -154 -40.5t-63 -117.5q0 -78 63 -119.5t154 -41.5q72 0 132.5 31t80.5 81z" />
    <glyph glyph-name="b" unicode="b" horiz-adv-x="1028" 
d="M291 106v-106h-156v1331h156v-528q36 53 105.5 89t150.5 36q97 0 175.5 -38t129 -103t77.5 -150t27 -182q0 -131 -46 -237t-140 -171t-223 -65q-81 0 -150.5 36t-105.5 88zM291 639v-369q35 -70 97.5 -109.5t135.5 -39.5q128 0 202.5 93t74.5 241t-74.5 240.5
t-202.5 92.5q-73 0 -135.5 -39.5t-97.5 -109.5z" />
    <glyph glyph-name="c" unicode="c" horiz-adv-x="913" 
d="M72 455q0 212 114.5 342.5t298.5 130.5q150 0 245.5 -79.5t119.5 -213.5h-158q-15 74 -70 116t-137 42q-116 0 -187 -94t-71 -244t71 -244t187 -94q82 0 137 42t70 115h158q-24 -134 -119.5 -213t-245.5 -79q-184 0 -298.5 130.5t-114.5 342.5z" />
    <glyph glyph-name="d" unicode="d" horiz-adv-x="1028" 
d="M737 0v106q-36 -52 -105.5 -88t-150.5 -36q-129 0 -223 65t-140 171t-46 237q0 97 27 182t77.5 150t129 103t175.5 38q81 0 150.5 -36t105.5 -89v528h156v-1331h-156zM737 270v369q-35 70 -97.5 109.5t-135.5 39.5q-128 0 -202.5 -92.5t-74.5 -240.5t74.5 -241t202.5 -93
q73 0 135.5 39.5t97.5 109.5z" />
    <glyph glyph-name="e" unicode="e" horiz-adv-x="935" 
d="M711 272h145q-25 -133 -121 -211.5t-246 -78.5q-186 0 -301.5 130t-115.5 341q0 206 114.5 340.5t298.5 134.5q183 0 283 -122t100 -325v-55h-643q1 -144 74 -228.5t190 -84.5q86 0 144.5 41.5t77.5 117.5zM487 797q-103 0 -172 -67.5t-86 -186.5h484q-2 109 -60 181.5
t-166 72.5z" />
    <glyph glyph-name="f" unicode="f" horiz-adv-x="591" 
d="M592 1329v-139q-39 24 -96 24q-69 0 -109.5 -42.5t-40.5 -122.5v-140h205v-131h-205v-778h-151v778h-154v131h154v152q0 134 77.5 211.5t200.5 77.5q67 0 119 -21z" />
    <glyph glyph-name="g" unicode="g" horiz-adv-x="1026" 
d="M733 61v68q-37 -51 -105.5 -87t-148.5 -36q-97 0 -175.5 38t-128.5 102.5t-76.5 147t-26.5 173.5q0 92 26.5 174.5t76.5 146.5t128.5 102t175.5 38q80 0 149 -35t105 -86v102h156v-837q0 -216 -111.5 -328.5t-294.5 -112.5q-164 0 -265.5 80t-123.5 221h152
q40 -170 237 -170q123 0 186.5 75.5t63.5 223.5zM733 287v362q-36 65 -97 103.5t-134 38.5q-127 0 -200 -90t-73 -234q0 -143 73.5 -232.5t199.5 -89.5q73 0 134 38.5t97 103.5z" />
    <glyph glyph-name="h" unicode="h" horiz-adv-x="1001" 
d="M137 0v1331h154v-536q42 58 113.5 95.5t154.5 37.5q153 0 236.5 -90t83.5 -242v-596h-156v571q0 99 -50.5 157t-150.5 58q-78 0 -142 -47.5t-89 -122.5v-616h-154z" />
    <glyph glyph-name="i" unicode="i" horiz-adv-x="428" 
d="M313 1184q0 -40 -29.5 -69.5t-70.5 -29.5q-40 0 -69 29.5t-29 69.5q0 41 29 69.5t69 28.5q41 0 70.5 -28.5t29.5 -69.5zM291 909v-909h-154v909h154z" />
    <glyph glyph-name="j" unicode="j" horiz-adv-x="423" 
d="M313 1184q0 -40 -29.5 -69.5t-70.5 -29.5q-40 0 -69 29.5t-29 69.5q0 41 29 69.5t69 28.5q41 0 70.5 -28.5t29.5 -69.5zM291 909v-1013q0 -127 -68 -195t-196 -68q-42 0 -66 9v131q36 -6 53 -6q62 0 92.5 32.5t30.5 106.5v1003h154z" />
    <glyph glyph-name="k" unicode="k" horiz-adv-x="950" 
d="M735 0l-346 420l-98 -94v-326h-154v1331h154v-825l416 403h202l-409 -393l424 -516h-189z" />
    <glyph glyph-name="l" unicode="l" horiz-adv-x="428" 
d="M291 1331v-1331h-154v1331h154z" />
    <glyph glyph-name="m" unicode="m" horiz-adv-x="1468" 
d="M782 782q46 66 116.5 106t160.5 40q136 0 211.5 -88t75.5 -238v-602h-156v578q0 98 -43.5 154t-128.5 56q-69 0 -124 -44t-77 -117v-627h-153v578q0 98 -43.5 154t-128.5 56q-69 0 -124 -44t-77 -117v-627h-154v909h154v-106q35 56 99.5 90.5t146.5 34.5q84 0 148 -39.5
t97 -106.5z" />
    <glyph glyph-name="n" unicode="n" horiz-adv-x="1001" 
d="M137 0v909h154v-114q42 58 113.5 95.5t154.5 37.5q153 0 236.5 -90t83.5 -242v-596h-156v571q0 99 -50.5 157t-150.5 58q-78 0 -142 -47.5t-89 -122.5v-616h-154z" />
    <glyph glyph-name="o" unicode="o" horiz-adv-x="978" 
d="M907 455q0 -210 -116 -341.5t-302 -131.5q-187 0 -302 131.5t-115 341.5t115 341.5t302 131.5q186 0 302 -131.5t116 -341.5zM752 455q0 151 -71 244.5t-192 93.5t-191.5 -93t-70.5 -245t70.5 -245t191.5 -93t192 93.5t71 244.5z" />
    <glyph glyph-name="p" unicode="p" horiz-adv-x="1028" 
d="M291 106v-454h-154v1257h154v-106q38 53 106.5 89t149.5 36q98 0 176.5 -38.5t129 -104t77 -150t26.5 -180.5t-26.5 -180.5t-77 -150t-129 -104t-176.5 -38.5q-81 0 -149.5 35.5t-106.5 88.5zM291 639v-369q35 -70 97.5 -109.5t135.5 -39.5q128 0 202.5 93t74.5 241
t-74.5 240.5t-202.5 92.5q-73 0 -135.5 -39.5t-97.5 -109.5z" />
    <glyph glyph-name="q" unicode="q" horiz-adv-x="1028" 
d="M737 -348v454q-38 -53 -106.5 -88.5t-149.5 -35.5q-98 0 -176.5 38.5t-129 104t-77 150t-26.5 180.5t26.5 180.5t77 150t129 104t176.5 38.5q81 0 149.5 -36t106.5 -89v106h154v-1257h-154zM737 270v369q-35 70 -97.5 109.5t-135.5 39.5q-128 0 -202.5 -92.5
t-74.5 -240.5t74.5 -241t202.5 -93q73 0 135.5 39.5t97.5 109.5z" />
    <glyph glyph-name="r" unicode="r" horiz-adv-x="657" 
d="M604 913v-157q-38 24 -102 24q-73 0 -130.5 -45.5t-80.5 -124.5v-610h-154v909h154v-118q30 60 91 98.5t134 38.5q58 0 88 -15z" />
    <glyph glyph-name="s" unicode="s" horiz-adv-x="847" 
d="M61 250h160q21 -69 77.5 -104t137.5 -35q85 0 136 34t51 101q0 47 -32.5 77.5t-103.5 49.5l-180 47q-105 27 -162 83t-57 156q0 120 93 194.5t233 74.5q148 0 237.5 -67.5t114.5 -190.5h-154q-42 129 -200 129q-73 0 -123.5 -34t-50.5 -97q0 -44 30 -69.5t97 -45.5
l176 -43q231 -61 231 -254q0 -127 -94.5 -200.5t-243.5 -73.5q-150 0 -250.5 71.5t-122.5 196.5z" />
    <glyph glyph-name="t" unicode="t" horiz-adv-x="649" 
d="M180 229v549h-147v131h147v240h154v-240h219v-131h-219v-532q0 -127 121 -127q61 0 118 37v-144q-58 -30 -143 -30q-115 0 -182.5 62.5t-67.5 184.5z" />
    <glyph glyph-name="u" unicode="u" horiz-adv-x="997" 
d="M862 909v-909h-155v115q-41 -58 -111 -95.5t-154 -37.5q-152 0 -234.5 89.5t-82.5 241.5v596h156v-571q0 -99 49.5 -157t148.5 -58q78 0 140.5 47.5t87.5 122.5v616h155z" />
    <glyph glyph-name="v" unicode="v" horiz-adv-x="931" 
d="M541 0h-152l-352 909h166l266 -714l264 714h162z" />
    <glyph glyph-name="w" unicode="w" horiz-adv-x="1288" 
d="M715 909l186 -694l201 694h149l-268 -909h-149l-189 690l-190 -690h-150l-268 909h153l201 -694l187 694h137z" />
    <glyph glyph-name="x" unicode="x" horiz-adv-x="919" 
d="M864 909l-319 -438l338 -471h-174l-252 354l-254 -354h-166l336 465l-318 444h176l230 -325l235 325h168z" />
    <glyph glyph-name="y" unicode="y" horiz-adv-x="931" 
d="M406 -348h-152l137 342l-354 915h166l268 -716l264 716h160z" />
    <glyph glyph-name="z" unicode="z" horiz-adv-x="888" 
d="M799 131v-131h-715v100l510 678h-494v131h691v-100l-506 -678h514z" />
    <glyph glyph-name="braceleft" unicode="{" horiz-adv-x="694" 
d="M358 422v-379q0 -37 19.5 -56.5t54.5 -19.5h215v-139h-213q-100 0 -163.5 64t-63.5 165v375q0 76 -72 76h-94v143h94q72 0 72 76v375q0 101 63.5 165t163.5 64h213v-139h-215q-35 0 -54.5 -19.5t-19.5 -56.5v-379q0 -104 -88 -157q88 -53 88 -158z" />
    <glyph glyph-name="bar" unicode="|" horiz-adv-x="448" 
d="M150 -172v1503h149v-1503h-149z" />
    <glyph glyph-name="braceright" unicode="}" horiz-adv-x="694" 
d="M336 43v379q0 105 88 158q-88 53 -88 157v379q0 37 -19.5 56.5t-54.5 19.5h-215v139h213q100 0 163.5 -64t63.5 -165v-375q0 -76 72 -76h94v-143h-94q-72 0 -72 -76v-375q0 -101 -63.5 -165t-163.5 -64h-213v139h215q35 0 54.5 19.5t19.5 56.5z" />
    <glyph glyph-name="asciitilde" unicode="~" horiz-adv-x="856" 
d="M645 686h129q0 -124 -52.5 -194t-146.5 -70q-43 0 -84.5 21t-69 46.5t-61 46.5t-61.5 21q-43 0 -65.5 -32.5t-22.5 -94.5h-129q0 123 52.5 192.5t146.5 69.5q42 0 83.5 -21t68.5 -46.5t61 -46.5t63 -21q41 0 64.5 34t23.5 95z" />
    <glyph glyph-name="uni00A0" unicode="&#xa0;" horiz-adv-x="452" 
 />
    <glyph glyph-name="exclamdown" unicode="&#xa1;" horiz-adv-x="428" 
d="M98 961q0 47 32 78.5t77 31.5q46 0 78 -31.5t32 -78.5t-32 -80t-78 -33q-45 0 -77 33t-32 80zM117 -197l35 863h110l37 -863h-182z" />
    <glyph glyph-name="cent" unicode="&#xa2;" horiz-adv-x="913" 
d="M72 475q0 192 96.5 319t255.5 150v178h141v-180q119 -21 191.5 -99t91.5 -198h-154q-13 78 -69.5 123t-139.5 45q-117 0 -187.5 -93.5t-70.5 -244.5t70.5 -244.5t187.5 -93.5q83 0 139.5 45t69.5 123h154q-18 -119 -90.5 -197.5t-192.5 -99.5v-186h-141v184
q-159 22 -255.5 149.5t-96.5 319.5z" />
    <glyph glyph-name="sterling" unicode="&#xa3;" horiz-adv-x="999" 
d="M383 870v-186h315v-127h-315v-238q0 -124 -47 -186h606v-133h-879v133h125q45 78 45 186v238h-170v127h170v186q0 179 101.5 292.5t265.5 113.5q146 0 235.5 -80.5t110.5 -216.5h-149q-14 78 -64 120t-133 42q-102 0 -159.5 -73t-57.5 -198z" />
    <glyph glyph-name="yen" unicode="&#xa5;" horiz-adv-x="1095" 
d="M145 541v121h261l-355 595h172l328 -563l326 563h165l-354 -595h260v-121h-321v-144h321v-123h-321v-274h-160v274h-322v123h322v144h-322z" />
    <glyph glyph-name="section" unicode="&#xa7;" horiz-adv-x="931" 
d="M743 180q33 -58 33 -125q0 -121 -88 -191.5t-229 -70.5q-152 0 -243 73.5t-112 201.5h150q38 -148 205 -148q73 0 120.5 33.5t47.5 95.5q0 50 -25.5 80t-87.5 70l-260 174q-49 32 -81 57.5t-63.5 60.5t-47 75.5t-15.5 88.5q0 73 37 135t102 97q-32 53 -32 127
q0 121 89 191.5t230 70.5q150 0 241.5 -73.5t112.5 -201.5h-151q-38 148 -203 148q-73 0 -121.5 -33.5t-48.5 -95.5q0 -49 25 -78t90 -72l258 -172q101 -66 154 -129.5t53 -154.5q0 -74 -38 -137t-102 -97zM326 496l319 -215q45 13 69.5 48.5t24.5 80.5q0 35 -22.5 67
t-44.5 49t-68 47l-319 218q-44 -15 -68 -50.5t-24 -81.5q0 -35 21.5 -66.5t44.5 -49.5t67 -47z" />
    <glyph glyph-name="dieresis" unicode="&#xa8;" 
d="M272 1169q0 41 28.5 69t68.5 28q39 0 66.5 -28t27.5 -69q0 -38 -28 -66t-66 -28q-40 0 -68.5 28t-28.5 66zM561 1169q0 41 27 69t65 28q40 0 68.5 -28t28.5 -69q0 -38 -28.5 -66t-68.5 -28q-38 0 -65 28t-27 66z" />
    <glyph glyph-name="copyright" unicode="&#xa9;" horiz-adv-x="1445" 
d="M1370 629q0 -184 -87.5 -333.5t-235 -231.5t-324.5 -82t-324.5 82t-235 231.5t-87.5 333.5t87.5 333.5t235 231.5t324.5 82t324.5 -82t235 -231.5t87.5 -333.5zM1290 629q0 121 -45 227.5t-121.5 180.5t-181 116.5t-219.5 42.5t-219.5 -42.5t-181 -116.5t-121.5 -180.5
t-45 -227.5q0 -161 76.5 -292t206.5 -203.5t284 -72.5t284 72.5t206.5 203.5t76.5 292zM360 633q0 182 104 294.5t267 112.5q133 0 216.5 -70.5t107.5 -189.5h-152q-42 121 -172 121q-98 0 -158.5 -74t-60.5 -194t60.5 -194t158.5 -74q130 0 172 120h152
q-24 -119 -108 -189.5t-216 -70.5q-162 0 -266.5 113t-104.5 295z" />
    <glyph glyph-name="ordfeminine" unicode="&#xaa;" horiz-adv-x="598" 
d="M541 657h-133v43q-19 -21 -63 -37t-93 -16q-96 0 -160.5 52t-64.5 141q0 85 66.5 138.5t164.5 53.5q42 0 84 -14.5t66 -32.5v68q0 49 -30 79.5t-85 30.5q-88 0 -109 -71h-131q15 83 81 134.5t163 51.5q115 0 179.5 -60.5t64.5 -166.5v-394zM408 813v55q-12 28 -48 46
t-77 18q-50 0 -86.5 -23.5t-36.5 -66.5q0 -44 36.5 -68t86.5 -24q42 0 77.5 18t47.5 45z" />
    <glyph glyph-name="guillemotleft" unicode="&#xab;" horiz-adv-x="731" 
d="M383 152h-143l-189 303l189 303h143l-188 -303zM680 152h-143l-189 303l189 303h143l-188 -303z" />
    <glyph glyph-name="registered" unicode="&#xae;" horiz-adv-x="843" 
d="M793 901q0 -161 -108.5 -268t-262.5 -107t-262.5 107t-108.5 268t108.5 268t262.5 107t262.5 -107t108.5 -268zM729 901q0 136 -89 226t-218 90t-219 -90t-90 -226q0 -135 90 -224t219 -89t218 89t89 224zM414 848h-52v-139h-86v393h173q65 0 102 -34t37 -95
q0 -45 -23 -75.5t-63 -41.5l100 -147h-96zM506 973q0 24 -16.5 39.5t-45.5 15.5h-82v-108h82q28 0 45 15t17 38z" />
    <glyph glyph-name="macron" unicode="&#xaf;" 
d="M293 1085v125h436v-125h-436z" />
    <glyph glyph-name="degree" unicode="&#xb0;" horiz-adv-x="688" 
d="M596 1022q0 -106 -74 -180t-178 -74t-178 74t-74 180t74 180t178 74t178 -74t74 -180zM205 1022q0 -58 41 -98.5t98 -40.5t98 40.5t41 98.5t-41 99.5t-98 41.5t-98 -41.5t-41 -99.5z" />
    <glyph glyph-name="plusminus" unicode="&#xb1;" horiz-adv-x="1114" 
d="M494 1061h127v-264h335v-127h-335v-264h-127v264h-334v127h334v264zM160 180v127h796v-127h-796z" />
    <glyph glyph-name="uni00B2" unicode="&#xb2;" horiz-adv-x="565" 
d="M377 1063q0 41 -26 65.5t-68 24.5q-44 0 -72 -30.5t-31 -75.5h-135q11 98 75 159.5t163 61.5q102 0 161.5 -55t59.5 -146q0 -31 -9 -59.5t-33 -60.5t-38 -48t-51 -55l-152 -156h289v-110h-463v88l229 239q38 40 55.5 60.5t31.5 47t14 50.5z" />
    <glyph glyph-name="uni00B3" unicode="&#xb3;" horiz-adv-x="575" 
d="M233 874v99h50q46 0 75 25t29 69q0 40 -27.5 66t-72.5 26q-42 0 -72 -28.5t-35 -71.5h-129q12 92 74 150.5t158 58.5q104 0 164.5 -54t60.5 -143q0 -50 -26 -91t-66 -56q47 -17 74.5 -57.5t27.5 -92.5q0 -91 -62 -149t-169 -58t-172 58t-74 157h133q6 -48 36 -76t79 -28
q50 0 79 26.5t29 73.5q0 45 -30.5 70.5t-79.5 25.5h-54z" />
    <glyph glyph-name="acute" unicode="&#xb4;" 
d="M492 1057h-142l164 274h160z" />
    <glyph glyph-name="paragraph" unicode="&#xb6;" horiz-adv-x="1001" 
d="M451 -184v800q-78 0 -151 19t-134 57t-98 101.5t-37 144.5t37 144t98.5 100t134 56t150.5 19h129v-1441h-129zM723 -184v1441h129v-1441h-129z" />
    <glyph glyph-name="periodcentered" unicode="&#xb7;" horiz-adv-x="360" 
d="M70 537q0 47 32 79.5t78 32.5q45 0 77 -32.5t32 -79.5t-32 -79t-77 -32q-46 0 -78 32t-32 79z" />
    <glyph glyph-name="cedilla" unicode="&#xb8;" 
d="M512 -375h-145l135 271h151z" />
    <glyph glyph-name="uni00B9" unicode="&#xb9;" horiz-adv-x="452" 
d="M348 1260v-682h-129v530l-180 -90v131l223 111h86z" />
    <glyph glyph-name="ordmasculine" unicode="&#xba;" horiz-adv-x="634" 
d="M606 961q0 -140 -80.5 -229t-208.5 -89q-129 0 -209.5 89t-80.5 229t80.5 228.5t209.5 88.5t209 -88.5t80 -228.5zM467 961q0 89 -41 143.5t-109 54.5t-108.5 -54.5t-40.5 -143.5t40.5 -143t108.5 -54t109 54.5t41 142.5z" />
    <glyph glyph-name="guillemotright" unicode="&#xbb;" horiz-adv-x="731" 
d="M195 152h-144l189 303l-189 303h144l188 -303zM492 152h-144l189 303l-189 303h144l188 -303z" />
    <glyph glyph-name="onequarter" unicode="&#xbc;" horiz-adv-x="1366" 
d="M391 1260v-682h-127v530l-180 -90v131l221 111h86zM1165 1257l-878 -1257h-137l878 1257h137zM1098 682l-219 -432h165v137h115v-137h107v-109h-107v-141h-115v141h-307v97l234 444h127z" />
    <glyph glyph-name="onehalf" unicode="&#xbd;" horiz-adv-x="1396" 
d="M391 1260v-682h-127v530l-180 -90v131l221 111h86zM1165 1257l-878 -1257h-137l878 1257h137zM1147 485q0 41 -25.5 65.5t-66.5 24.5q-45 0 -73.5 -30t-31.5 -76h-133q9 98 73 160.5t163 62.5q102 0 162.5 -56t60.5 -147q0 -31 -9 -59.5t-33 -60.5t-38 -48t-51 -55
l-152 -155h289v-111h-463v88l228 240q55 57 77.5 90t22.5 67z" />
    <glyph glyph-name="threequarters" unicode="&#xbe;" horiz-adv-x="1445" 
d="M287 872v101h49q46 0 75 24.5t29 67.5q0 40 -27.5 66t-72.5 26q-42 0 -72 -28.5t-35 -71.5h-129q12 92 74.5 151.5t157.5 59.5q104 0 164.5 -54.5t60.5 -142.5q0 -51 -25.5 -91t-66.5 -58q47 -15 74.5 -55.5t27.5 -92.5q0 -93 -62 -151t-169 -58t-172 58.5t-74 158.5h133
q6 -48 36.5 -77t78.5 -29q50 0 79.5 27t29.5 73q0 45 -31 70.5t-80 25.5h-53zM1245 1257l-878 -1257h-138l879 1257h137zM1178 682l-220 -432h166v137h115v-137h107v-109h-107v-141h-115v141h-307v97l234 444h127z" />
    <glyph glyph-name="questiondown" unicode="&#xbf;" horiz-adv-x="884" 
d="M537 961q0 -47 -32 -80t-77 -33q-46 0 -78.5 33t-32.5 80t32.5 78.5t78.5 31.5q45 0 77 -31.5t32 -78.5zM49 137q0 22 4 44.5t8 41t15.5 41t18 36.5t23.5 37t24 33t29 34.5t28 31t30.5 32.5t28.5 30q49 52 67.5 90t20.5 78h152q-4 -74 -29.5 -125t-89.5 -121
q-14 -16 -45 -48t-48.5 -53t-39 -51.5t-31.5 -62t-10 -66.5q0 -97 61.5 -154t165.5 -57q109 0 173 69t73 183h166q-19 -177 -130.5 -286t-281.5 -109q-179 0 -281 95t-102 257z" />
    <glyph glyph-name="Agrave" unicode="&#xc0;" horiz-adv-x="1220" 
d="M690 1368h-153l-189 240h178zM535 1257h151l492 -1257h-164l-146 379h-518l-143 -379h-164zM608 1057l-205 -537h410z" />
    <glyph glyph-name="Aacute" unicode="&#xc1;" horiz-adv-x="1220" 
d="M682 1368h-156l164 240h178zM535 1257h151l492 -1257h-164l-146 379h-518l-143 -379h-164zM608 1057l-205 -537h410z" />
    <glyph glyph-name="Acircumflex" unicode="&#xc2;" horiz-adv-x="1220" 
d="M682 1620l188 -250h-139l-121 146l-121 -146h-139l189 250h143zM535 1257h151l492 -1257h-164l-146 379h-518l-143 -379h-164zM608 1057l-205 -537h410z" />
    <glyph glyph-name="Atilde" unicode="&#xc3;" horiz-adv-x="1220" 
d="M786 1606h99q0 -111 -40.5 -177.5t-115.5 -66.5q-34 0 -67 18t-55.5 39.5t-50.5 39.5t-52 18q-70 0 -70 -109h-100q0 112 40 178t115 66q34 0 67.5 -18t56 -39.5t51 -39.5t53.5 -18q66 0 69 109zM535 1257h151l492 -1257h-164l-146 379h-518l-143 -379h-164zM608 1057
l-205 -537h410z" />
    <glyph glyph-name="Adieresis" unicode="&#xc4;" horiz-adv-x="1220" 
d="M373 1479q0 40 28 67t68 27q39 0 66.5 -27.5t27.5 -66.5t-27.5 -67t-66.5 -28q-40 0 -68 27.5t-28 67.5zM662 1479q0 40 27 67t65 27q40 0 68 -27t28 -67t-28 -67.5t-68 -27.5q-38 0 -65 27.5t-27 67.5zM535 1257h151l492 -1257h-164l-146 379h-518l-143 -379h-164z
M608 1057l-205 -537h410z" />
    <glyph glyph-name="Aring" unicode="&#xc5;" horiz-adv-x="1220" 
d="M788 1503q0 -74 -51.5 -125t-126.5 -51t-126.5 51t-51.5 125q0 75 51.5 126.5t126.5 51.5t126.5 -51.5t51.5 -126.5zM702 1503q0 40 -27 67t-65 27t-65 -27t-27 -67q0 -38 27 -65t65 -27t65 27t27 65zM535 1257h151l492 -1257h-164l-146 379h-518l-143 -379h-164z
M608 1057l-205 -537h410z" />
    <glyph glyph-name="AE" unicode="&#xc6;" horiz-adv-x="1765" 
d="M799 1257h862v-143h-608v-397h549v-144h-549v-428h608v-145h-766v379h-455l-229 -379h-168zM895 1126l-369 -606h369v606z" />
    <glyph glyph-name="Ccedilla" unicode="&#xc7;" horiz-adv-x="1200" 
d="M76 629q0 144 43.5 265.5t119 205t179 130t221.5 46.5q194 0 322 -104.5t167 -282.5h-159q-85 241 -330 241q-180 0 -290.5 -138.5t-110.5 -362.5t110 -363t291 -139q245 0 330 244h159q-39 -180 -167 -284.5t-322 -104.5q-118 0 -221.5 46.5t-179 130t-119 205
t-43.5 265.5zM588 -375h-146l136 271h151z" />
    <glyph glyph-name="Egrave" unicode="&#xc8;" horiz-adv-x="1054" 
d="M641 1368h-154l-188 240h178zM150 1257h800v-143h-641v-397h582v-144h-582v-428h641v-145h-800v1257z" />
    <glyph glyph-name="Eacute" unicode="&#xc9;" horiz-adv-x="1054" 
d="M625 1368h-156l164 240h178zM150 1257h800v-143h-641v-397h582v-144h-582v-428h641v-145h-800v1257z" />
    <glyph glyph-name="Ecircumflex" unicode="&#xca;" horiz-adv-x="1054" 
d="M631 1620l188 -250h-139l-121 146l-121 -146h-139l188 250h144zM150 1257h800v-143h-641v-397h582v-144h-582v-428h641v-145h-800v1257z" />
    <glyph glyph-name="Edieresis" unicode="&#xcb;" horiz-adv-x="1054" 
d="M322 1479q0 40 28 67t68 27q39 0 66.5 -27.5t27.5 -66.5t-28 -67t-66 -28q-40 0 -68 27.5t-28 67.5zM610 1479q0 40 27 67t65 27q40 0 68.5 -27.5t28.5 -66.5q0 -40 -28.5 -67.5t-68.5 -27.5q-38 0 -65 27.5t-27 67.5zM150 1257h800v-143h-641v-397h582v-144h-582v-428
h641v-145h-800v1257z" />
    <glyph glyph-name="Igrave" unicode="&#xcc;" horiz-adv-x="460" 
d="M313 1368h-153l-189 240h179zM311 1257v-1257h-161v1257h161z" />
    <glyph glyph-name="Iacute" unicode="&#xcd;" horiz-adv-x="460" 
d="M295 1368h-156l164 240h178zM311 1257v-1257h-161v1257h161z" />
    <glyph glyph-name="Icircumflex" unicode="&#xce;" horiz-adv-x="460" 
d="M301 1620l188 -250h-139l-121 146l-120 -146h-140l189 250h143zM311 1257v-1257h-161v1257h161z" />
    <glyph glyph-name="Idieresis" unicode="&#xcf;" horiz-adv-x="460" 
d="M-8 1479q0 40 28 67t68 27q39 0 66.5 -27.5t27.5 -66.5t-28 -67t-66 -28q-40 0 -68 27.5t-28 67.5zM281 1479q0 40 27 67t65 27q40 0 68 -27t28 -67t-28 -67.5t-68 -27.5q-38 0 -65 27.5t-27 67.5zM311 1257v-1257h-161v1257h161z" />
    <glyph glyph-name="Eth" unicode="&#xd0;" horiz-adv-x="1269" 
d="M66 582v137h114v538h404q277 0 443.5 -170.5t166.5 -457.5t-166.5 -458t-443.5 -171h-404v582h-114zM342 145h240q212 0 332 130.5t120 353.5t-120 354t-332 131h-240v-395h252v-137h-252v-437z" />
    <glyph glyph-name="Ntilde" unicode="&#xd1;" horiz-adv-x="1275" 
d="M815 1606h98q0 -112 -40 -178t-115 -66q-34 0 -67 18t-55.5 39.5t-51 39.5t-52.5 18q-69 0 -69 -109h-101q0 111 40.5 177.5t115.5 66.5q34 0 67.5 -18t56 -39.5t50.5 -39.5t53 -18q67 0 70 109zM1126 1257v-1257h-118l-703 999v-999h-155v1257h153l670 -956v956h153z
" />
    <glyph glyph-name="Ograve" unicode="&#xd2;" horiz-adv-x="1288" 
d="M727 1368h-154l-188 240h178zM1212 629q0 -284 -160 -465.5t-409 -181.5q-163 0 -292.5 82t-202 230t-72.5 335q0 285 159.5 466t407.5 181q123 0 228.5 -48t180.5 -132.5t117.5 -205t42.5 -261.5zM1051 629q0 222 -113 361.5t-295 139.5q-181 0 -293 -139.5t-112 -361.5
t112 -362t293 -140q182 0 295 140t113 362z" />
    <glyph glyph-name="Oacute" unicode="&#xd3;" horiz-adv-x="1288" 
d="M709 1368h-156l164 240h178zM1212 629q0 -284 -160 -465.5t-409 -181.5q-163 0 -292.5 82t-202 230t-72.5 335q0 285 159.5 466t407.5 181q123 0 228.5 -48t180.5 -132.5t117.5 -205t42.5 -261.5zM1051 629q0 222 -113 361.5t-295 139.5q-181 0 -293 -139.5t-112 -361.5
t112 -362t293 -140q182 0 295 140t113 362z" />
    <glyph glyph-name="Ocircumflex" unicode="&#xd4;" horiz-adv-x="1288" 
d="M715 1620l188 -250h-139l-121 146l-121 -146h-139l188 250h144zM1212 629q0 -284 -160 -465.5t-409 -181.5q-163 0 -292.5 82t-202 230t-72.5 335q0 285 159.5 466t407.5 181q123 0 228.5 -48t180.5 -132.5t117.5 -205t42.5 -261.5zM1051 629q0 222 -113 361.5
t-295 139.5q-181 0 -293 -139.5t-112 -361.5t112 -362t293 -140q182 0 295 140t113 362z" />
    <glyph glyph-name="Otilde" unicode="&#xd5;" horiz-adv-x="1288" 
d="M821 1606h99q0 -111 -40.5 -177.5t-115.5 -66.5q-34 0 -67 18t-55.5 39.5t-50.5 39.5t-52 18q-70 0 -70 -109h-100q0 112 40 178t115 66q34 0 67.5 -18t56 -39.5t51 -39.5t53.5 -18q66 0 69 109zM1212 629q0 -284 -160 -465.5t-409 -181.5q-163 0 -292.5 82t-202 230
t-72.5 335q0 285 159.5 466t407.5 181q123 0 228.5 -48t180.5 -132.5t117.5 -205t42.5 -261.5zM1051 629q0 222 -113 361.5t-295 139.5q-181 0 -293 -139.5t-112 -361.5t112 -362t293 -140q182 0 295 140t113 362z" />
    <glyph glyph-name="Odieresis" unicode="&#xd6;" horiz-adv-x="1288" 
d="M406 1479q0 40 28 67t68 27q39 0 66.5 -27.5t27.5 -66.5t-28 -67t-66 -28q-40 0 -68 27.5t-28 67.5zM694 1479q0 40 27 67t65 27q40 0 68.5 -27.5t28.5 -66.5q0 -40 -28.5 -67.5t-68.5 -27.5q-38 0 -65 27.5t-27 67.5zM1212 629q0 -284 -160 -465.5t-409 -181.5
q-163 0 -292.5 82t-202 230t-72.5 335q0 285 159.5 466t407.5 181q123 0 228.5 -48t180.5 -132.5t117.5 -205t42.5 -261.5zM1051 629q0 222 -113 361.5t-295 139.5q-181 0 -293 -139.5t-112 -361.5t112 -362t293 -140q182 0 295 140t113 362z" />
    <glyph glyph-name="multiply" unicode="&#xd7;" horiz-adv-x="962" 
d="M395 604l-250 248l88 86l246 -250l250 250l88 -86l-250 -248l250 -250l-88 -88l-250 250l-246 -250l-88 88z" />
    <glyph glyph-name="Oslash" unicode="&#xd8;" horiz-adv-x="1308" 
d="M115 37l114 145q-143 180 -143 447q0 285 159.5 466t407.5 181q200 0 348 -123l97 123l94 -68l-111 -137q142 -178 142 -442q0 -284 -160.5 -465.5t-409.5 -181.5q-200 0 -340 116l-102 -129zM248 629q0 -197 80 -324l581 731q-105 94 -256 94q-181 0 -293 -139.5
t-112 -361.5zM1061 629q0 189 -78 317l-577 -731q97 -88 247 -88q182 0 295 140t113 362z" />
    <glyph glyph-name="Ugrave" unicode="&#xd9;" horiz-adv-x="1243" 
d="M705 1368h-154l-189 240h179zM621 -18q-222 0 -357 133.5t-135 384.5v757h160v-739q0 -196 87.5 -294.5t244.5 -98.5t244 98.5t87 294.5v739h162v-759q0 -250 -135 -383t-358 -133z" />
    <glyph glyph-name="Uacute" unicode="&#xda;" horiz-adv-x="1243" 
d="M686 1368h-156l164 240h178zM621 -18q-222 0 -357 133.5t-135 384.5v757h160v-739q0 -196 87.5 -294.5t244.5 -98.5t244 98.5t87 294.5v739h162v-759q0 -250 -135 -383t-358 -133z" />
    <glyph glyph-name="Ucircumflex" unicode="&#xdb;" horiz-adv-x="1243" 
d="M692 1620l189 -250h-140l-120 146l-121 -146h-140l189 250h143zM621 -18q-222 0 -357 133.5t-135 384.5v757h160v-739q0 -196 87.5 -294.5t244.5 -98.5t244 98.5t87 294.5v739h162v-759q0 -250 -135 -383t-358 -133z" />
    <glyph glyph-name="Udieresis" unicode="&#xdc;" horiz-adv-x="1243" 
d="M383 1479q0 40 28 67t68 27q39 0 66.5 -27.5t27.5 -66.5t-27.5 -67t-66.5 -28q-40 0 -68 27.5t-28 67.5zM672 1479q0 40 27 67t65 27q40 0 68 -27t28 -67t-28 -67.5t-68 -27.5q-38 0 -65 27.5t-27 67.5zM621 -18q-222 0 -357 133.5t-135 384.5v757h160v-739
q0 -196 87.5 -294.5t244.5 -98.5t244 98.5t87 294.5v739h162v-759q0 -250 -135 -383t-358 -133z" />
    <glyph glyph-name="Yacute" unicode="&#xdd;" horiz-adv-x="1140" 
d="M637 1368h-156l164 240h178zM573 664l363 593h172l-459 -739v-518h-160v518l-454 739h176z" />
    <glyph glyph-name="Thorn" unicode="&#xde;" horiz-adv-x="1099" 
d="M621 268h-310v-268h-161v1257h161v-235h310q194 0 303.5 -97t109.5 -280q0 -182 -110 -279.5t-303 -97.5zM874 645q0 110 -66.5 173t-191.5 63h-305v-471h305q125 0 191.5 63.5t66.5 171.5z" />
    <glyph glyph-name="germandbls" unicode="&#xdf;" horiz-adv-x="1044" 
d="M700 752q114 -26 192.5 -124.5t78.5 -242.5q0 -185 -109 -291t-284 -106q-103 0 -177 35v141q59 -37 164 -37q121 0 189.5 72t68.5 200q0 130 -84.5 203.5t-230.5 73.5h-86v135h86q99 0 158 56t59 151q0 88 -56.5 143.5t-150.5 55.5q-114 0 -171.5 -73.5t-57.5 -195.5
v-948h-152v948q0 180 101.5 291t277.5 111q166 0 261 -92t95 -232q0 -102 -48.5 -173t-123.5 -101z" />
    <glyph glyph-name="agrave" unicode="&#xe0;" horiz-adv-x="921" 
d="M555 1057h-141l-183 274h160zM797 0h-148v68q-30 -32 -96.5 -58t-142.5 -26q-143 0 -240.5 79.5t-97.5 210.5q0 126 100 205.5t248 79.5q66 0 131.5 -22.5t97.5 -51.5v115q0 87 -52 141t-148 54q-144 0 -187 -125h-151q23 116 116.5 187t223.5 71q162 0 254 -86t92 -236
v-606zM649 225v94q-20 50 -80.5 81.5t-132.5 31.5q-91 0 -154 -40.5t-63 -117.5q0 -78 63 -119.5t154 -41.5q72 0 132.5 31t80.5 81z" />
    <glyph glyph-name="aacute" unicode="&#xe1;" horiz-adv-x="921" 
d="M532 1057h-141l164 274h160zM797 0h-148v68q-30 -32 -96.5 -58t-142.5 -26q-143 0 -240.5 79.5t-97.5 210.5q0 126 100 205.5t248 79.5q66 0 131.5 -22.5t97.5 -51.5v115q0 87 -52 141t-148 54q-144 0 -187 -125h-151q23 116 116.5 187t223.5 71q162 0 254 -86t92 -236
v-606zM649 225v94q-20 50 -80.5 81.5t-132.5 31.5q-91 0 -154 -40.5t-63 -117.5q0 -78 63 -119.5t154 -41.5q72 0 132.5 31t80.5 81z" />
    <glyph glyph-name="acircumflex" unicode="&#xe2;" horiz-adv-x="921" 
d="M541 1321l188 -279h-133l-127 181l-127 -181h-133l188 279h144zM797 0h-148v68q-30 -32 -96.5 -58t-142.5 -26q-143 0 -240.5 79.5t-97.5 210.5q0 126 100 205.5t248 79.5q66 0 131.5 -22.5t97.5 -51.5v115q0 87 -52 141t-148 54q-144 0 -187 -125h-151q23 116 116.5 187
t223.5 71q162 0 254 -86t92 -236v-606zM649 225v94q-20 50 -80.5 81.5t-132.5 31.5q-91 0 -154 -40.5t-63 -117.5q0 -78 63 -119.5t154 -41.5q72 0 132.5 31t80.5 81z" />
    <glyph glyph-name="atilde" unicode="&#xe3;" horiz-adv-x="921" 
d="M639 1296h98q0 -111 -40 -176t-115 -65q-32 0 -63.5 18.5t-53.5 41t-48 41t-48 18.5q-70 0 -70 -113h-98q0 111 40 176.5t115 65.5q32 0 64 -18.5t53.5 -41t47.5 -41t48 -18.5q67 0 70 112zM797 0h-148v68q-30 -32 -96.5 -58t-142.5 -26q-143 0 -240.5 79.5t-97.5 210.5
q0 126 100 205.5t248 79.5q66 0 131.5 -22.5t97.5 -51.5v115q0 87 -52 141t-148 54q-144 0 -187 -125h-151q23 116 116.5 187t223.5 71q162 0 254 -86t92 -236v-606zM649 225v94q-20 50 -80.5 81.5t-132.5 31.5q-91 0 -154 -40.5t-63 -117.5q0 -78 63 -119.5t154 -41.5
q72 0 132.5 31t80.5 81z" />
    <glyph glyph-name="adieresis" unicode="&#xe4;" horiz-adv-x="921" 
d="M231 1169q0 41 28.5 69t68.5 28q39 0 66.5 -28t27.5 -69q0 -38 -28 -66t-66 -28q-40 0 -68.5 28t-28.5 66zM520 1169q0 41 27 69t65 28q40 0 68.5 -28t28.5 -69q0 -38 -28.5 -66t-68.5 -28q-38 0 -65 28t-27 66zM797 0h-148v68q-30 -32 -96.5 -58t-142.5 -26
q-143 0 -240.5 79.5t-97.5 210.5q0 126 100 205.5t248 79.5q66 0 131.5 -22.5t97.5 -51.5v115q0 87 -52 141t-148 54q-144 0 -187 -125h-151q23 116 116.5 187t223.5 71q162 0 254 -86t92 -236v-606zM649 225v94q-20 50 -80.5 81.5t-132.5 31.5q-91 0 -154 -40.5t-63 -117.5
q0 -78 63 -119.5t154 -41.5q72 0 132.5 31t80.5 81z" />
    <glyph glyph-name="aring" unicode="&#xe5;" horiz-adv-x="921" 
d="M643 1188q0 -75 -51.5 -125.5t-126.5 -50.5t-126.5 50.5t-51.5 125.5t51.5 125.5t126.5 50.5t126.5 -50.5t51.5 -125.5zM557 1188q0 39 -26.5 65.5t-65.5 26.5t-65.5 -26.5t-26.5 -65.5t26.5 -65.5t65.5 -26.5t65.5 26.5t26.5 65.5zM797 0h-148v68q-30 -32 -96.5 -58
t-142.5 -26q-143 0 -240.5 79.5t-97.5 210.5q0 126 100 205.5t248 79.5q66 0 131.5 -22.5t97.5 -51.5v115q0 87 -52 141t-148 54q-144 0 -187 -125h-151q23 116 116.5 187t223.5 71q162 0 254 -86t92 -236v-606zM649 225v94q-20 50 -80.5 81.5t-132.5 31.5q-91 0 -154 -40.5
t-63 -117.5q0 -78 63 -119.5t154 -41.5q72 0 132.5 31t80.5 81z" />
    <glyph glyph-name="ae" unicode="&#xe6;" horiz-adv-x="1497" 
d="M1272 272h145q-25 -132 -121.5 -211t-246.5 -79q-105 0 -190.5 45t-139.5 127q-126 -170 -324 -170q-140 0 -232.5 76.5t-92.5 201.5q0 129 99.5 206t250.5 77h225v55q0 88 -52 141.5t-147 53.5q-147 0 -190 -125h-147q23 116 116.5 187t223.5 71q108 0 184 -44t110 -122
q53 77 130.5 121.5t170.5 44.5q184 0 285 -122t101 -325v-55h-646q3 -145 76 -229t189 -84q86 0 145 41.5t78 117.5zM1047 797q-103 0 -172.5 -67.5t-86.5 -186.5h486q-3 109 -61 181.5t-166 72.5zM408 113q86 0 148 45.5t89 120.5v145h-215q-90 0 -152.5 -39.5
t-62.5 -114.5q0 -76 55.5 -116.5t137.5 -40.5z" />
    <glyph glyph-name="ccedilla" unicode="&#xe7;" horiz-adv-x="913" 
d="M72 455q0 212 114.5 342.5t298.5 130.5q150 0 245.5 -79.5t119.5 -213.5h-158q-15 74 -70 116t-137 42q-116 0 -187 -94t-71 -244t71 -244t187 -94q82 0 137 42t70 115h158q-24 -134 -119.5 -213t-245.5 -79q-184 0 -298.5 130.5t-114.5 342.5zM434 -375h-145l135 271
h151z" />
    <glyph glyph-name="egrave" unicode="&#xe8;" horiz-adv-x="935" 
d="M571 1057h-141l-182 274h160zM711 272h145q-25 -133 -121 -211.5t-246 -78.5q-186 0 -301.5 130t-115.5 341q0 206 114.5 340.5t298.5 134.5q183 0 283 -122t100 -325v-55h-643q1 -144 74 -228.5t190 -84.5q86 0 144.5 41.5t77.5 117.5zM487 797q-103 0 -172 -67.5
t-86 -186.5h484q-2 109 -60 181.5t-166 72.5z" />
    <glyph glyph-name="eacute" unicode="&#xe9;" horiz-adv-x="935" 
d="M553 1057h-141l163 274h160zM711 272h145q-25 -133 -121 -211.5t-246 -78.5q-186 0 -301.5 130t-115.5 341q0 206 114.5 340.5t298.5 134.5q183 0 283 -122t100 -325v-55h-643q1 -144 74 -228.5t190 -84.5q86 0 144.5 41.5t77.5 117.5zM487 797q-103 0 -172 -67.5
t-86 -186.5h484q-2 109 -60 181.5t-166 72.5z" />
    <glyph glyph-name="ecircumflex" unicode="&#xea;" horiz-adv-x="935" 
d="M563 1321l189 -279h-134l-126 181l-127 -181h-134l189 279h143zM711 272h145q-25 -133 -121 -211.5t-246 -78.5q-186 0 -301.5 130t-115.5 341q0 206 114.5 340.5t298.5 134.5q183 0 283 -122t100 -325v-55h-643q1 -144 74 -228.5t190 -84.5q86 0 144.5 41.5t77.5 117.5z
M487 797q-103 0 -172 -67.5t-86 -186.5h484q-2 109 -60 181.5t-166 72.5z" />
    <glyph glyph-name="edieresis" unicode="&#xeb;" horiz-adv-x="935" 
d="M256 1169q0 41 28 69t68 28q39 0 66.5 -28t27.5 -69q0 -38 -28 -66t-66 -28q-40 0 -68 28t-28 66zM545 1169q0 41 27 69t65 28q40 0 68 -28t28 -69q0 -38 -28 -66t-68 -28q-38 0 -65 28t-27 66zM711 272h145q-25 -133 -121 -211.5t-246 -78.5q-186 0 -301.5 130
t-115.5 341q0 206 114.5 340.5t298.5 134.5q183 0 283 -122t100 -325v-55h-643q1 -144 74 -228.5t190 -84.5q86 0 144.5 41.5t77.5 117.5zM487 797q-103 0 -172 -67.5t-86 -186.5h484q-2 109 -60 181.5t-166 72.5z" />
    <glyph glyph-name="igrave" unicode="&#xec;" horiz-adv-x="428" 
d="M293 1057h-141l-183 274h160zM291 909v-909h-154v909h154z" />
    <glyph glyph-name="iacute" unicode="&#xed;" horiz-adv-x="428" 
d="M274 1057h-141l164 274h160zM291 909v-909h-154v909h154z" />
    <glyph glyph-name="icircumflex" unicode="&#xee;" horiz-adv-x="428" 
d="M285 1321l151 -279h-131l-92 175l-92 -175h-129l151 279h142zM291 909v-909h-154v909h154z" />
    <glyph glyph-name="idieresis" unicode="&#xef;" horiz-adv-x="428" 
d="M-6 1169q0 41 27 69t67 28q39 0 66.5 -28t27.5 -69q0 -38 -28 -66t-66 -28q-39 0 -66.5 27.5t-27.5 66.5zM248 1169q0 41 27 69t65 28q40 0 68 -28t28 -69q0 -38 -28 -66t-68 -28q-38 0 -65 28t-27 66zM291 909v-909h-154v909h154z" />
    <glyph glyph-name="eth" unicode="&#xf0;" horiz-adv-x="978" 
d="M285 1012l-37 96l164 53q-102 89 -205 162v8h201q91 -63 151 -121l174 60l35 -96l-129 -44q127 -142 197.5 -312.5t70.5 -354.5q0 -216 -115.5 -348.5t-302.5 -132.5t-302 130.5t-115 338.5t112.5 339.5t288.5 131.5q127 0 211 -91h6q-46 104 -192 250zM752 451
q0 151 -70.5 243t-192.5 92t-192 -92t-70 -243t70 -242.5t192 -91.5t192.5 91.5t70.5 242.5z" />
    <glyph glyph-name="ntilde" unicode="&#xf1;" horiz-adv-x="1001" 
d="M678 1296h98q0 -111 -40 -176t-115 -65q-32 0 -63.5 18.5t-53.5 41t-48 41t-48 18.5q-70 0 -70 -113h-98q0 111 40 176.5t115 65.5q32 0 64 -18.5t53.5 -41t47.5 -41t48 -18.5q67 0 70 112zM137 0v909h154v-114q42 58 113.5 95.5t154.5 37.5q153 0 236.5 -90t83.5 -242
v-596h-156v571q0 99 -50.5 157t-150.5 58q-78 0 -142 -47.5t-89 -122.5v-616h-154z" />
    <glyph glyph-name="ograve" unicode="&#xf2;" horiz-adv-x="978" 
d="M567 1057h-141l-182 274h159zM907 455q0 -210 -116 -341.5t-302 -131.5q-187 0 -302 131.5t-115 341.5t115 341.5t302 131.5q186 0 302 -131.5t116 -341.5zM752 455q0 151 -71 244.5t-192 93.5t-191.5 -93t-70.5 -245t70.5 -245t191.5 -93t192 93.5t71 244.5z" />
    <glyph glyph-name="oacute" unicode="&#xf3;" horiz-adv-x="978" 
d="M549 1057h-141l163 274h160zM907 455q0 -210 -116 -341.5t-302 -131.5q-187 0 -302 131.5t-115 341.5t115 341.5t302 131.5q186 0 302 -131.5t116 -341.5zM752 455q0 151 -71 244.5t-192 93.5t-191.5 -93t-70.5 -245t70.5 -245t191.5 -93t192 93.5t71 244.5z" />
    <glyph glyph-name="ocircumflex" unicode="&#xf4;" horiz-adv-x="978" 
d="M561 1321l189 -279h-134l-127 181l-127 -181h-133l189 279h143zM907 455q0 -210 -116 -341.5t-302 -131.5q-187 0 -302 131.5t-115 341.5t115 341.5t302 131.5q186 0 302 -131.5t116 -341.5zM752 455q0 151 -71 244.5t-192 93.5t-191.5 -93t-70.5 -245t70.5 -245
t191.5 -93t192 93.5t71 244.5z" />
    <glyph glyph-name="otilde" unicode="&#xf5;" horiz-adv-x="978" 
d="M659 1296h99q0 -111 -40.5 -176t-115.5 -65q-32 0 -63.5 18.5t-53.5 41t-48 41t-48 18.5q-70 0 -70 -113h-98q0 111 40.5 176.5t115.5 65.5q32 0 64 -18.5t53.5 -41t47.5 -41t48 -18.5q66 0 69 112zM907 455q0 -210 -116 -341.5t-302 -131.5q-187 0 -302 131.5
t-115 341.5t115 341.5t302 131.5q186 0 302 -131.5t116 -341.5zM752 455q0 151 -71 244.5t-192 93.5t-191.5 -93t-70.5 -245t70.5 -245t191.5 -93t192 93.5t71 244.5z" />
    <glyph glyph-name="odieresis" unicode="&#xf6;" horiz-adv-x="978" 
d="M252 1169q0 41 28 69t68 28q39 0 66.5 -28t27.5 -69q0 -38 -28 -66t-66 -28q-40 0 -68 28t-28 66zM541 1169q0 41 27 69t65 28q40 0 68 -28t28 -69q0 -38 -28 -66t-68 -28q-38 0 -65 28t-27 66zM907 455q0 -210 -116 -341.5t-302 -131.5q-187 0 -302 131.5t-115 341.5
t115 341.5t302 131.5q186 0 302 -131.5t116 -341.5zM752 455q0 151 -71 244.5t-192 93.5t-191.5 -93t-70.5 -245t70.5 -245t191.5 -93t192 93.5t71 244.5z" />
    <glyph glyph-name="divide" unicode="&#xf7;" horiz-adv-x="1105" 
d="M451 938q0 43 29.5 73.5t72.5 30.5t73.5 -30.5t30.5 -73.5t-30.5 -73.5t-73.5 -30.5t-72.5 30.5t-29.5 73.5zM150 545v127h806v-127h-806zM451 279q0 43 29.5 73.5t72.5 30.5t73.5 -30.5t30.5 -73.5t-30.5 -74t-73.5 -31q-42 0 -72 31t-30 74z" />
    <glyph glyph-name="oslash" unicode="&#xf8;" horiz-adv-x="999" 
d="M82 2l100 129q-100 124 -100 324q0 210 115.5 341.5t302.5 131.5q137 0 239 -76l86 109l84 -60l-94 -123q103 -134 103 -323q0 -210 -116 -341.5t-302 -131.5q-144 0 -244 77l-90 -116zM236 455q0 -122 40 -201l377 485q-63 54 -153 54q-121 0 -192.5 -93.5t-71.5 -244.5
zM764 455q0 117 -45 202l-377 -487q62 -53 158 -53q121 0 192.5 93.5t71.5 244.5z" />
    <glyph glyph-name="ugrave" unicode="&#xf9;" horiz-adv-x="997" 
d="M575 1057h-141l-182 274h160zM862 909v-909h-155v115q-41 -58 -111 -95.5t-154 -37.5q-152 0 -234.5 89.5t-82.5 241.5v596h156v-571q0 -99 49.5 -157t148.5 -58q78 0 140.5 47.5t87.5 122.5v616h155z" />
    <glyph glyph-name="uacute" unicode="&#xfa;" horiz-adv-x="997" 
d="M557 1057h-141l164 274h159zM862 909v-909h-155v115q-41 -58 -111 -95.5t-154 -37.5q-152 0 -234.5 89.5t-82.5 241.5v596h156v-571q0 -99 49.5 -157t148.5 -58q78 0 140.5 47.5t87.5 122.5v616h155z" />
    <glyph glyph-name="ucircumflex" unicode="&#xfb;" horiz-adv-x="997" 
d="M569 1321l189 -279h-133l-127 181l-127 -181h-133l188 279h143zM862 909v-909h-155v115q-41 -58 -111 -95.5t-154 -37.5q-152 0 -234.5 89.5t-82.5 241.5v596h156v-571q0 -99 49.5 -157t148.5 -58q78 0 140.5 47.5t87.5 122.5v616h155z" />
    <glyph glyph-name="udieresis" unicode="&#xfc;" horiz-adv-x="997" 
d="M260 1169q0 41 28 69t68 28q39 0 67 -28t28 -69q0 -38 -28.5 -66t-66.5 -28q-40 0 -68 28t-28 66zM549 1169q0 41 27 69t65 28q40 0 68 -28t28 -69q0 -38 -28 -66t-68 -28q-38 0 -65 28t-27 66zM862 909v-909h-155v115q-41 -58 -111 -95.5t-154 -37.5q-152 0 -234.5 89.5
t-82.5 241.5v596h156v-571q0 -99 49.5 -157t148.5 -58q78 0 140.5 47.5t87.5 122.5v616h155z" />
    <glyph glyph-name="yacute" unicode="&#xfd;" horiz-adv-x="931" 
d="M526 1057h-141l164 274h160zM406 -348h-152l137 342l-354 915h166l268 -716l264 716h160z" />
    <glyph glyph-name="thorn" unicode="&#xfe;" horiz-adv-x="1028" 
d="M291 106v-454h-154v1679h154v-528q38 53 106.5 89t149.5 36q98 0 176.5 -38.5t129 -104t77 -150t26.5 -180.5t-26.5 -180.5t-77 -150t-129 -104t-176.5 -38.5q-81 0 -149.5 35.5t-106.5 88.5zM291 639v-369q35 -70 97.5 -109.5t135.5 -39.5q128 0 202.5 93t74.5 241
t-74.5 240.5t-202.5 92.5q-73 0 -135.5 -39.5t-97.5 -109.5z" />
    <glyph glyph-name="ydieresis" unicode="&#xff;" horiz-adv-x="931" 
d="M227 1169q0 41 28.5 69t68.5 28q39 0 66.5 -28t27.5 -69q0 -38 -28 -66t-66 -28q-40 0 -68.5 28t-28.5 66zM516 1169q0 41 27 69t65 28q40 0 68.5 -28t28.5 -69q0 -38 -28.5 -66t-68.5 -28q-38 0 -65 28t-27 66zM406 -348h-152l137 342l-354 915h166l268 -716l264 716
h160z" />
    <glyph glyph-name="Amacron" unicode="&#x100;" horiz-adv-x="1220" 
d="M393 1374v125h436v-125h-436zM535 1257h151l492 -1257h-164l-146 379h-518l-143 -379h-164zM608 1057l-205 -537h410z" />
    <glyph glyph-name="amacron" unicode="&#x101;" horiz-adv-x="921" 
d="M252 1085v125h436v-125h-436zM797 0h-148v68q-30 -32 -96.5 -58t-142.5 -26q-143 0 -240.5 79.5t-97.5 210.5q0 126 100 205.5t248 79.5q66 0 131.5 -22.5t97.5 -51.5v115q0 87 -52 141t-148 54q-144 0 -187 -125h-151q23 116 116.5 187t223.5 71q162 0 254 -86t92 -236
v-606zM649 225v94q-20 50 -80.5 81.5t-132.5 31.5q-91 0 -154 -40.5t-63 -117.5q0 -78 63 -119.5t154 -41.5q72 0 132.5 31t80.5 81z" />
    <glyph glyph-name="Abreve" unicode="&#x102;" horiz-adv-x="1220" 
d="M610 1364q-107 0 -171 64.5t-64 181.5h117q0 -64 32 -97.5t86 -33.5q56 0 88.5 33.5t32.5 97.5h117q0 -118 -64.5 -182t-173.5 -64zM535 1257h151l492 -1257h-164l-146 379h-518l-143 -379h-164zM608 1057l-205 -537h410z" />
    <glyph glyph-name="abreve" unicode="&#x103;" horiz-adv-x="921" 
d="M465 1024q-105 0 -169.5 68.5t-64.5 193.5h117q0 -70 30.5 -109.5t86.5 -39.5t86.5 39.5t30.5 109.5h116q0 -125 -64 -193.5t-169 -68.5zM797 0h-148v68q-30 -32 -96.5 -58t-142.5 -26q-143 0 -240.5 79.5t-97.5 210.5q0 126 100 205.5t248 79.5q66 0 131.5 -22.5
t97.5 -51.5v115q0 87 -52 141t-148 54q-144 0 -187 -125h-151q23 116 116.5 187t223.5 71q162 0 254 -86t92 -236v-606zM649 225v94q-20 50 -80.5 81.5t-132.5 31.5q-91 0 -154 -40.5t-63 -117.5q0 -78 63 -119.5t154 -41.5q72 0 132.5 31t80.5 81z" />
    <glyph glyph-name="Aogonek" unicode="&#x104;" horiz-adv-x="1220" 
d="M535 1257h151l492 -1257q-68 -112 -85.5 -147.5t-17.5 -69.5q0 -53 47 -53q30 0 76 30v-102q-53 -39 -106 -39q-65 0 -101.5 36.5t-36.5 98.5q0 36 16 78t33 71.5t60 96.5h-49l-146 379h-518l-143 -379h-164zM608 1057l-205 -537h412z" />
    <glyph glyph-name="aogonek" unicode="&#x105;" horiz-adv-x="921" 
d="M682 0h-35v68q-30 -32 -96 -58t-141 -26q-143 0 -240.5 79.5t-97.5 210.5q0 126 100 205.5t248 79.5q66 0 130.5 -22.5t96.5 -51.5v115q0 88 -51.5 141.5t-146.5 53.5q-149 0 -189 -125h-149q23 116 116.5 187t223.5 71q162 0 254 -86t92 -236v-606q-65 -108 -83 -145
t-18 -72q0 -53 45 -53q32 0 76 30v-102q-49 -39 -106 -39q-65 0 -100.5 36.5t-35.5 98.5q0 36 16.5 79t32.5 70.5t58 96.5zM647 225v94q-18 50 -78.5 81.5t-132.5 31.5q-91 0 -154 -40.5t-63 -117.5q0 -78 63 -119.5t154 -41.5q72 0 132.5 31t78.5 81z" />
    <glyph glyph-name="Cacute" unicode="&#x106;" horiz-adv-x="1200" 
d="M715 1368h-156l164 240h178zM76 629q0 144 43.5 265.5t119 205t179 130t221.5 46.5q194 0 322 -104.5t167 -282.5h-159q-85 241 -330 241q-180 0 -290.5 -138.5t-110.5 -362.5t110 -363t291 -139q245 0 330 244h159q-39 -180 -167 -284.5t-322 -104.5q-118 0 -221.5 46.5
t-179 130t-119 205t-43.5 265.5z" />
    <glyph glyph-name="cacute" unicode="&#x107;" horiz-adv-x="913" 
d="M553 1057h-141l163 274h160zM72 455q0 212 114.5 342.5t298.5 130.5q150 0 245.5 -79.5t119.5 -213.5h-158q-15 74 -70 116t-137 42q-116 0 -187 -94t-71 -244t71 -244t187 -94q82 0 137 42t70 115h158q-24 -134 -119.5 -213t-245.5 -79q-184 0 -298.5 130.5
t-114.5 342.5z" />
    <glyph glyph-name="Ccircumflex" unicode="&#x108;" horiz-adv-x="1200" 
d="M723 1620l188 -250h-139l-121 146l-121 -146h-139l189 250h143zM76 629q0 144 43.5 265.5t119 205t179 130t221.5 46.5q194 0 322 -104.5t167 -282.5h-159q-85 241 -330 241q-180 0 -290.5 -138.5t-110.5 -362.5t110 -363t291 -139q245 0 330 244h159
q-39 -180 -167 -284.5t-322 -104.5q-118 0 -221.5 46.5t-179 130t-119 205t-43.5 265.5z" />
    <glyph glyph-name="ccircumflex" unicode="&#x109;" horiz-adv-x="913" 
d="M565 1321l189 -279h-133l-127 181l-127 -181h-134l189 279h143zM72 455q0 212 114.5 342.5t298.5 130.5q150 0 245.5 -79.5t119.5 -213.5h-158q-15 74 -70 116t-137 42q-116 0 -187 -94t-71 -244t71 -244t187 -94q82 0 137 42t70 115h158q-24 -134 -119.5 -213
t-245.5 -79q-184 0 -298.5 130.5t-114.5 342.5z" />
    <glyph glyph-name="Cdotaccent" unicode="&#x10a;" horiz-adv-x="1200" 
d="M743 1477q0 -40 -29 -69.5t-69 -29.5t-69 29.5t-29 69.5q0 41 29 70.5t69 29.5t69 -29.5t29 -70.5zM76 629q0 144 43.5 265.5t119 205t179 130t221.5 46.5q194 0 322 -104.5t167 -282.5h-159q-85 241 -330 241q-180 0 -290.5 -138.5t-110.5 -362.5t110 -363t291 -139
q245 0 330 244h159q-39 -180 -167 -284.5t-322 -104.5q-118 0 -221.5 46.5t-179 130t-119 205t-43.5 265.5z" />
    <glyph glyph-name="cdotaccent" unicode="&#x10b;" horiz-adv-x="913" 
d="M592 1184q0 -40 -29 -69.5t-69 -29.5t-69.5 29.5t-29.5 69.5q0 41 29.5 69.5t69.5 28.5t69 -28.5t29 -69.5zM72 455q0 212 114.5 342.5t298.5 130.5q150 0 245.5 -79.5t119.5 -213.5h-158q-15 74 -70 116t-137 42q-116 0 -187 -94t-71 -244t71 -244t187 -94q82 0 137 42
t70 115h158q-24 -134 -119.5 -213t-245.5 -79q-184 0 -298.5 130.5t-114.5 342.5z" />
    <glyph glyph-name="Ccaron" unicode="&#x10c;" horiz-adv-x="1200" 
d="M573 1364l-188 248h139l121 -146l121 146h139l-188 -248h-144zM76 629q0 144 43.5 265.5t119 205t179 130t221.5 46.5q194 0 322 -104.5t167 -282.5h-159q-85 241 -330 241q-180 0 -290.5 -138.5t-110.5 -362.5t110 -363t291 -139q245 0 330 244h159
q-39 -180 -167 -284.5t-322 -104.5q-118 0 -221.5 46.5t-179 130t-119 205t-43.5 265.5z" />
    <glyph glyph-name="ccaron" unicode="&#x10d;" horiz-adv-x="913" 
d="M754 1323l-189 -279h-143l-189 279h134l127 -178l127 178h133zM72 455q0 212 114.5 342.5t298.5 130.5q150 0 245.5 -79.5t119.5 -213.5h-158q-15 74 -70 116t-137 42q-116 0 -187 -94t-71 -244t71 -244t187 -94q82 0 137 42t70 115h158q-24 -134 -119.5 -213t-245.5 -79
q-184 0 -298.5 130.5t-114.5 342.5z" />
    <glyph glyph-name="Dcaron" unicode="&#x10e;" horiz-adv-x="1239" 
d="M502 1364l-189 248h140l120 -146l121 146h140l-189 -248h-143zM150 0v1257h403q277 0 443.5 -170.5t166.5 -457.5t-166.5 -458t-443.5 -171h-403zM311 145h240q212 0 332.5 130.5t120.5 353.5t-120.5 354t-332.5 131h-240v-969z" />
    <glyph glyph-name="dcaron" unicode="&#x10f;" horiz-adv-x="1028" 
d="M737 0v106q-36 -52 -105.5 -88t-150.5 -36q-129 0 -223 65t-140 171t-46 237q0 97 27 182t77.5 150t129 103t175.5 38q81 0 150.5 -36t105.5 -89v528h156v-1331h-156zM1124 995h-123l68 336h123zM737 270v369q-35 70 -97.5 109.5t-135.5 39.5q-128 0 -202.5 -92.5
t-74.5 -240.5t74.5 -241t202.5 -93q73 0 135.5 39.5t97.5 109.5z" />
    <glyph glyph-name="Dcroat" unicode="&#x110;" horiz-adv-x="1269" 
d="M66 582v137h114v538h404q277 0 443.5 -170.5t166.5 -457.5t-166.5 -458t-443.5 -171h-404v582h-114zM342 145h240q212 0 332 130.5t120 353.5t-120 354t-332 131h-240v-395h252v-137h-252v-437z" />
    <glyph glyph-name="dcroat" unicode="&#x111;" horiz-adv-x="1028" 
d="M516 1047v110h221v174h156v-174h115v-110h-115v-1047h-156v106q-36 -52 -105.5 -88t-150.5 -36q-129 0 -223 65t-140 171t-46 237q0 97 27 182t77.5 150t129 103t175.5 38q81 0 150.5 -36t105.5 -89v244h-221zM737 270v369q-35 70 -97.5 109.5t-135.5 39.5
q-128 0 -202.5 -92.5t-74.5 -240.5t74.5 -241t202.5 -93q73 0 135.5 39.5t97.5 109.5z" />
    <glyph glyph-name="Emacron" unicode="&#x112;" horiz-adv-x="1054" 
d="M342 1374v125h436v-125h-436zM150 1257h800v-143h-641v-397h582v-144h-582v-428h641v-145h-800v1257z" />
    <glyph glyph-name="emacron" unicode="&#x113;" horiz-adv-x="935" 
d="M276 1085v125h437v-125h-437zM711 272h145q-25 -133 -121 -211.5t-246 -78.5q-186 0 -301.5 130t-115.5 341q0 206 114.5 340.5t298.5 134.5q183 0 283 -122t100 -325v-55h-643q1 -144 74 -228.5t190 -84.5q86 0 144.5 41.5t77.5 117.5zM487 797q-103 0 -172 -67.5
t-86 -186.5h484q-2 109 -60 181.5t-166 72.5z" />
    <glyph glyph-name="Ebreve" unicode="&#x114;" horiz-adv-x="1054" 
d="M559 1364q-107 0 -171 64.5t-64 181.5h116q0 -64 32.5 -97.5t86.5 -33.5q56 0 88.5 33.5t32.5 97.5h117q0 -118 -64.5 -182t-173.5 -64zM150 1257h800v-143h-641v-397h582v-144h-582v-428h641v-145h-800v1257z" />
    <glyph glyph-name="ebreve" unicode="&#x115;" horiz-adv-x="935" 
d="M494 1024q-105 0 -169.5 68.5t-64.5 193.5h117q0 -70 30.5 -109.5t86.5 -39.5t86 39.5t30 109.5h117q0 -125 -64 -193.5t-169 -68.5zM711 272h145q-25 -133 -121 -211.5t-246 -78.5q-186 0 -301.5 130t-115.5 341q0 206 114.5 340.5t298.5 134.5q183 0 283 -122t100 -325
v-55h-643q1 -144 74 -228.5t190 -84.5q86 0 144.5 41.5t77.5 117.5zM487 797q-103 0 -172 -67.5t-86 -186.5h484q-2 109 -60 181.5t-166 72.5z" />
    <glyph glyph-name="Edotaccent" unicode="&#x116;" horiz-adv-x="1054" 
d="M657 1477q0 -40 -29 -69.5t-69 -29.5t-69 29.5t-29 69.5q0 41 29 70.5t69 29.5t69 -29.5t29 -70.5zM150 1257h800v-143h-641v-397h582v-144h-582v-428h641v-145h-800v1257z" />
    <glyph glyph-name="edotaccent" unicode="&#x117;" horiz-adv-x="935" 
d="M592 1184q0 -40 -29 -69.5t-69 -29.5t-69.5 29.5t-29.5 69.5q0 41 29.5 69.5t69.5 28.5t69 -28.5t29 -69.5zM711 272h145q-25 -133 -121 -211.5t-246 -78.5q-186 0 -301.5 130t-115.5 341q0 206 114.5 340.5t298.5 134.5q183 0 283 -122t100 -325v-55h-643
q1 -144 74 -228.5t190 -84.5q86 0 144.5 41.5t77.5 117.5zM487 797q-103 0 -172 -67.5t-86 -186.5h484q-2 109 -60 181.5t-166 72.5z" />
    <glyph glyph-name="Eogonek" unicode="&#x118;" horiz-adv-x="1054" 
d="M150 1257h800v-143h-641v-397h582v-144h-582v-428h641v-145h-67q-62 -101 -81.5 -141.5t-19.5 -75.5q0 -53 45 -53q33 0 76 30v-102q-49 -39 -106 -39q-65 0 -100 36t-35 99q0 36 15.5 78.5t32.5 72t58 95.5h-618v1257z" />
    <glyph glyph-name="eogonek" unicode="&#x119;" horiz-adv-x="935" 
d="M573 -6q-41 -12 -84 -12q-186 0 -301.5 130t-115.5 341q0 206 114.5 340.5t298.5 134.5q183 0 283 -122t100 -325v-55h-643q1 -144 74 -228.5t190 -84.5q84 0 143.5 41.5t78.5 117.5h145q-19 -114 -123 -221q-153 -156 -153 -262q0 -59 49 -59q33 0 76 30v-102
q-49 -39 -107 -39q-65 0 -102 38t-37 101q0 58 28 113t86 123zM487 797q-103 0 -172 -67.5t-86 -186.5h484q-2 109 -60 181.5t-166 72.5z" />
    <glyph glyph-name="Ecaron" unicode="&#x11a;" horiz-adv-x="1054" 
d="M496 1364l-189 248h139l121 -146l121 146h139l-188 -248h-143zM150 1257h800v-143h-641v-397h582v-144h-582v-428h641v-145h-800v1257z" />
    <glyph glyph-name="ecaron" unicode="&#x11b;" horiz-adv-x="935" 
d="M754 1323l-189 -279h-143l-189 279h134l127 -178l127 178h133zM711 272h145q-25 -133 -121 -211.5t-246 -78.5q-186 0 -301.5 130t-115.5 341q0 206 114.5 340.5t298.5 134.5q183 0 283 -122t100 -325v-55h-643q1 -144 74 -228.5t190 -84.5q86 0 144.5 41.5t77.5 117.5z
M487 797q-103 0 -172 -67.5t-86 -186.5h484q-2 109 -60 181.5t-166 72.5z" />
    <glyph glyph-name="Gcircumflex" unicode="&#x11c;" horiz-adv-x="1249" 
d="M723 1620l188 -250h-139l-121 146l-121 -146h-139l189 250h143zM1020 481h-301v140h455v-86q0 -250 -144.5 -401.5t-376.5 -151.5q-250 0 -413.5 178.5t-163.5 468.5q0 144 44.5 266t121.5 205t182 129.5t225 46.5q197 0 327 -104.5t169 -282.5h-162q-87 241 -334 241
q-184 0 -297.5 -138t-113.5 -363q0 -226 114 -365t301 -139q162 0 257.5 95t109.5 261z" />
    <glyph glyph-name="gcircumflex" unicode="&#x11d;" horiz-adv-x="1026" 
d="M602 1321l189 -279h-134l-127 181l-127 -181h-133l189 279h143zM733 61v68q-37 -51 -105.5 -87t-148.5 -36q-97 0 -175.5 38t-128.5 102.5t-76.5 147t-26.5 173.5q0 92 26.5 174.5t76.5 146.5t128.5 102t175.5 38q80 0 149 -35t105 -86v102h156v-837
q0 -216 -111.5 -328.5t-294.5 -112.5q-164 0 -265.5 80t-123.5 221h152q40 -170 237 -170q123 0 186.5 75.5t63.5 223.5zM733 287v362q-36 65 -97 103.5t-134 38.5q-127 0 -200 -90t-73 -234q0 -143 73.5 -232.5t199.5 -89.5q73 0 134 38.5t97 103.5z" />
    <glyph glyph-name="Gbreve" unicode="&#x11e;" horiz-adv-x="1249" 
d="M653 1364q-107 0 -171 64.5t-64 181.5h117q0 -64 32 -97.5t86 -33.5q56 0 88.5 33.5t32.5 97.5h117q0 -118 -64.5 -182t-173.5 -64zM1020 481h-301v140h455v-86q0 -250 -144.5 -401.5t-376.5 -151.5q-250 0 -413.5 178.5t-163.5 468.5q0 144 44.5 266t121.5 205
t182 129.5t225 46.5q197 0 327 -104.5t169 -282.5h-162q-87 241 -334 241q-184 0 -297.5 -138t-113.5 -363q0 -226 114 -365t301 -139q162 0 257.5 95t109.5 261z" />
    <glyph glyph-name="gbreve" unicode="&#x11f;" horiz-adv-x="1026" 
d="M530 1024q-105 0 -169 68.5t-64 193.5h117q0 -70 30 -109.5t86 -39.5t86.5 39.5t30.5 109.5h117q0 -125 -64.5 -193.5t-169.5 -68.5zM733 61v68q-37 -51 -105.5 -87t-148.5 -36q-97 0 -175.5 38t-128.5 102.5t-76.5 147t-26.5 173.5q0 92 26.5 174.5t76.5 146.5
t128.5 102t175.5 38q80 0 149 -35t105 -86v102h156v-837q0 -216 -111.5 -328.5t-294.5 -112.5q-164 0 -265.5 80t-123.5 221h152q40 -170 237 -170q123 0 186.5 75.5t63.5 223.5zM733 287v362q-36 65 -97 103.5t-134 38.5q-127 0 -200 -90t-73 -234q0 -143 73.5 -232.5
t199.5 -89.5q73 0 134 38.5t97 103.5z" />
    <glyph glyph-name="Gdotaccent" unicode="&#x120;" horiz-adv-x="1249" 
d="M754 1477q0 -40 -29.5 -69.5t-69.5 -29.5t-69 29.5t-29 69.5q0 41 29 70.5t69 29.5t69.5 -29.5t29.5 -70.5zM1020 481h-301v140h455v-86q0 -250 -144.5 -401.5t-376.5 -151.5q-250 0 -413.5 178.5t-163.5 468.5q0 144 44.5 266t121.5 205t182 129.5t225 46.5
q197 0 327 -104.5t169 -282.5h-162q-87 241 -334 241q-184 0 -297.5 -138t-113.5 -363q0 -226 114 -365t301 -139q162 0 257.5 95t109.5 261z" />
    <glyph glyph-name="gdotaccent" unicode="&#x121;" horiz-adv-x="1026" 
d="M629 1184q0 -40 -29.5 -69.5t-69.5 -29.5t-69 29.5t-29 69.5q0 41 29 69.5t69 28.5t69.5 -28.5t29.5 -69.5zM733 61v68q-37 -51 -105.5 -87t-148.5 -36q-97 0 -175.5 38t-128.5 102.5t-76.5 147t-26.5 173.5q0 92 26.5 174.5t76.5 146.5t128.5 102t175.5 38q80 0 149 -35
t105 -86v102h156v-837q0 -216 -111.5 -328.5t-294.5 -112.5q-164 0 -265.5 80t-123.5 221h152q40 -170 237 -170q123 0 186.5 75.5t63.5 223.5zM733 287v362q-36 65 -97 103.5t-134 38.5q-127 0 -200 -90t-73 -234q0 -143 73.5 -232.5t199.5 -89.5q73 0 134 38.5t97 103.5z
" />
    <glyph glyph-name="uni0122" unicode="&#x122;" horiz-adv-x="1249" 
d="M1020 481h-301v140h455v-86q0 -250 -144.5 -401.5t-376.5 -151.5q-250 0 -413.5 178.5t-163.5 468.5q0 144 44.5 266t121.5 205t182 129.5t225 46.5q197 0 327 -104.5t169 -282.5h-162q-87 241 -334 241q-184 0 -297.5 -138t-113.5 -363q0 -226 114 -365t301 -139
q162 0 257.5 95t109.5 261zM555 -412l80 131q-36 5 -59 30t-23 61q0 42 29.5 70t72.5 28q42 0 71.5 -29t29.5 -74q0 -48 -45 -116l-60 -101h-96z" />
    <glyph glyph-name="uni0123" unicode="&#x123;" horiz-adv-x="1026" 
d="M629 1393l-82 -133q37 -5 60.5 -30.5t23.5 -64.5q0 -42 -30 -70t-75 -28q-44 0 -73 29t-29 75q0 54 45 121l59 101h101zM733 61v68q-37 -51 -105.5 -87t-148.5 -36q-97 0 -175.5 38t-128.5 102.5t-76.5 147t-26.5 173.5q0 92 26.5 174.5t76.5 146.5t128.5 102t175.5 38
q80 0 149 -35t105 -86v102h156v-837q0 -216 -111.5 -328.5t-294.5 -112.5q-164 0 -265.5 80t-123.5 221h152q40 -170 237 -170q123 0 186.5 75.5t63.5 223.5zM733 287v362q-36 65 -97 103.5t-134 38.5q-127 0 -200 -90t-73 -234q0 -143 73.5 -232.5t199.5 -89.5
q73 0 134 38.5t97 103.5z" />
    <glyph glyph-name="Hcircumflex" unicode="&#x124;" horiz-adv-x="1333" 
d="M737 1620l189 -250h-140l-120 146l-121 -146h-139l188 250h143zM1022 1257h162v-1257h-162v573h-711v-573h-161v1257h161v-538h711v538z" />
    <glyph glyph-name="hcircumflex" unicode="&#x125;" horiz-adv-x="1001" 
d="M578 1647l188 -250h-139l-121 145l-121 -145h-139l188 250h144zM137 0v1331h154v-536q42 58 113.5 95.5t154.5 37.5q153 0 236.5 -90t83.5 -242v-596h-156v571q0 99 -50.5 157t-150.5 58q-78 0 -142 -47.5t-89 -122.5v-616h-154z" />
    <glyph glyph-name="Hbar" unicode="&#x126;" horiz-adv-x="1390" 
d="M66 881v135h112v241h162v-241h711v241h161v-241h113v-135h-113v-881h-161v500h-711v-500h-162v881h-112zM340 635h711v246h-711v-246z" />
    <glyph glyph-name="hbar" unicode="&#x127;" horiz-adv-x="1001" 
d="M20 1047v110h117v174h154v-174h221v-110h-221v-252q42 58 113.5 95.5t154.5 37.5q153 0 236.5 -90t83.5 -242v-596h-156v571q0 99 -50.5 157t-150.5 58q-78 0 -142 -47.5t-89 -122.5v-616h-154v1047h-117z" />
    <glyph glyph-name="Itilde" unicode="&#x128;" horiz-adv-x="460" 
d="M408 1606h98q0 -111 -40.5 -177.5t-115.5 -66.5q-34 0 -67 18t-55.5 39.5t-50.5 39.5t-52 18q-70 0 -70 -109h-100q0 111 40.5 177.5t115.5 66.5q34 0 67.5 -18t56 -39.5t50.5 -39.5t53 -18q67 0 70 109zM311 1257v-1257h-161v1257h161z" />
    <glyph glyph-name="itilde" unicode="&#x129;" horiz-adv-x="428" 
d="M344 1296h94q0 -111 -34.5 -176t-96.5 -65q-27 0 -53.5 18t-44 39t-38 39t-36.5 18q-52 0 -55 -108h-94q0 111 34.5 176.5t96.5 65.5q27 0 54 -18t45 -39.5t38.5 -39.5t36.5 -18q50 0 53 108zM291 909v-909h-154v909h154z" />
    <glyph glyph-name="Imacron" unicode="&#x12a;" horiz-adv-x="460" 
d="M12 1374v125h437v-125h-437zM311 1257v-1257h-161v1257h161z" />
    <glyph glyph-name="imacron" unicode="&#x12b;" horiz-adv-x="428" 
d="M33 1085v125h362v-125h-362zM291 909v-909h-154v909h154z" />
    <glyph glyph-name="Ibreve" unicode="&#x12c;" horiz-adv-x="460" 
d="M229 1364q-107 0 -171 64.5t-64 181.5h117q0 -64 32 -97.5t86 -33.5q56 0 88.5 33.5t32.5 97.5h117q0 -118 -64.5 -182t-173.5 -64zM311 1257v-1257h-161v1257h161z" />
    <glyph glyph-name="ibreve" unicode="&#x12d;" horiz-adv-x="428" 
d="M215 1024q-95 0 -152 68.5t-57 193.5h113q0 -149 96 -149q94 0 94 149h113q0 -125 -56.5 -193.5t-150.5 -68.5zM291 909v-909h-154v909h154z" />
    <glyph glyph-name="Iogonek" unicode="&#x12e;" horiz-adv-x="460" 
d="M311 1257v-1257q-65 -106 -83.5 -144t-18.5 -73q0 -25 13 -39t34 -14q32 0 76 30v-102q-49 -39 -107 -39q-65 0 -100 36t-35 99q0 36 16.5 79t32.5 70.5t58 96.5h-47v1257h161z" />
    <glyph glyph-name="iogonek" unicode="&#x12f;" horiz-adv-x="428" 
d="M313 1184q0 -40 -29.5 -69.5t-70.5 -29.5q-40 0 -69 29.5t-29 69.5q0 41 29 69.5t69 28.5q41 0 70.5 -28.5t29.5 -69.5zM291 909v-909q-65 -108 -83 -145t-18 -72q0 -53 48 -53q28 0 75 30v-102q-53 -39 -106 -39q-66 0 -101.5 36t-35.5 99q0 36 15.5 78.5t32.5 72
t58 95.5h-39v909h154z" />
    <glyph glyph-name="Idotaccent" unicode="&#x130;" horiz-adv-x="460" 
d="M328 1477q0 -40 -29.5 -69.5t-69.5 -29.5t-69 29.5t-29 69.5q0 41 29 70.5t69 29.5t69.5 -29.5t29.5 -70.5zM311 1257v-1257h-161v1257h161z" />
    <glyph glyph-name="dotlessi" unicode="&#x131;" horiz-adv-x="428" 
d="M291 909v-909h-154v909h154z" />
    <glyph glyph-name="IJ" unicode="&#x132;" horiz-adv-x="1368" 
d="M311 1257v-1257h-161v1257h161zM422 356h168q12 -107 75 -167t166 -60q120 0 185 70.5t65 218.5v839h162v-839q0 -213 -110.5 -324.5t-296.5 -111.5q-183 0 -291.5 102t-122.5 272z" />
    <glyph glyph-name="ij" unicode="&#x133;" horiz-adv-x="851" 
d="M313 1184q0 -40 -29.5 -69.5t-70.5 -29.5q-40 0 -69 29.5t-29 69.5q0 41 29 69.5t69 28.5q41 0 70.5 -28.5t29.5 -69.5zM741 1184q0 -40 -29.5 -69.5t-70.5 -29.5q-40 0 -69 29.5t-29 69.5q0 41 29 69.5t69 28.5q41 0 70.5 -28.5t29.5 -69.5zM291 909v-909h-154v909h154z
M719 909v-1013q0 -127 -68 -195t-196 -68q-42 0 -66 9v131q36 -6 53 -6q62 0 92.5 32.5t30.5 106.5v1003h154z" />
    <glyph glyph-name="Jcircumflex" unicode="&#x134;" horiz-adv-x="980" 
d="M848 1620l188 -250h-139l-121 146l-121 -146h-139l189 250h143zM35 356h166q12 -107 75 -167t168 -60q120 0 185 70.5t65 218.5v839h162v-839q0 -213 -111.5 -324.5t-298.5 -111.5q-182 0 -290.5 102t-120.5 272z" />
    <glyph glyph-name="jcircumflex" unicode="&#x135;" horiz-adv-x="423" 
d="M285 1321l151 -279h-131l-92 175l-92 -175h-129l151 279h142zM291 909v-1013q0 -127 -68 -195t-196 -68q-42 0 -66 9v131q36 -6 53 -6q62 0 92.5 32.5t30.5 106.5v1003h154z" />
    <glyph glyph-name="uni0136" unicode="&#x136;" horiz-adv-x="1155" 
d="M311 1257v-628l586 628h205l-539 -573l557 -684h-200l-474 573l-135 -145v-428h-161v1257h161zM442 -412l80 131q-36 5 -59 30t-23 61q0 42 30 70t73 28q42 0 71 -29t29 -74q0 -48 -45 -116l-59 -101h-97z" />
    <glyph glyph-name="uni0137" unicode="&#x137;" horiz-adv-x="950" 
d="M735 0l-346 420l-98 -94v-326h-154v1331h154v-825l416 403h202l-409 -393l424 -516h-189zM367 -412l79 131q-36 5 -58.5 30t-22.5 61q0 42 29.5 70t72.5 28q42 0 71 -29t29 -74q0 -48 -45 -116l-59 -101h-96z" />
    <glyph glyph-name="kgreenlandic" unicode="&#x138;" horiz-adv-x="950" 
d="M735 0l-346 420l-98 -94v-326h-154v909h154v-403l416 403h202l-409 -393l424 -516h-189z" />
    <glyph glyph-name="Lacute" unicode="&#x139;" horiz-adv-x="1032" 
d="M319 1368h-155l164 240h178zM150 0v1257h161v-1112h641v-145h-802z" />
    <glyph glyph-name="lacute" unicode="&#x13a;" horiz-adv-x="428" 
d="M291 1423h-156l164 240h178zM291 1331v-1331h-154v1331h154z" />
    <glyph glyph-name="uni013B" unicode="&#x13b;" horiz-adv-x="1032" 
d="M150 0v1257h161v-1112h641v-145h-802zM473 -412l80 131q-36 5 -59 30t-23 61q0 42 29.5 70t72.5 28q42 0 71.5 -29t29.5 -74q0 -48 -45 -116l-60 -101h-96z" />
    <glyph glyph-name="uni013C" unicode="&#x13c;" horiz-adv-x="428" 
d="M291 1331v-1331h-154v1331h154zM115 -412l80 131q-36 5 -59 30t-23 61q0 42 29.5 70t72.5 28q42 0 71 -29t29 -74q0 -48 -45 -116l-59 -101h-96z" />
    <glyph glyph-name="Lcaron" unicode="&#x13d;" horiz-adv-x="1032" 
d="M150 0v1257h161v-1112h641v-145h-802zM657 922h-122l67 335h123z" />
    <glyph glyph-name="lcaron" unicode="&#x13e;" horiz-adv-x="428" 
d="M291 1331v-1331h-154v1331h154zM524 995h-123l68 336h123z" />
    <glyph glyph-name="Ldot" unicode="&#x13f;" horiz-adv-x="1032" 
d="M150 0v1257h161v-1112h641v-145h-802zM844 629q0 -40 -29.5 -69.5t-69.5 -29.5t-69 29.5t-29 69.5q0 41 29 69.5t69 28.5t69.5 -28.5t29.5 -69.5z" />
    <glyph glyph-name="ldot" unicode="&#x140;" horiz-adv-x="679" 
d="M291 1331v-1331h-154v1331h154zM649 666q0 -40 -29 -69.5t-69 -29.5t-69 29.5t-29 69.5q0 41 29 69.5t69 28.5t69 -28.5t29 -69.5z" />
    <glyph glyph-name="Lslash" unicode="&#x141;" horiz-adv-x="1071" 
d="M61 463v149l127 52v593h162v-532l316 127v-147l-316 -130v-430h641v-145h-803v514z" />
    <glyph glyph-name="lslash" unicode="&#x142;" horiz-adv-x="503" 
d="M330 1331v-483l123 80v-140l-123 -79v-709h-154v635l-115 -72v137l115 74v557h154z" />
    <glyph glyph-name="Nacute" unicode="&#x143;" horiz-adv-x="1275" 
d="M702 1368h-155l164 240h178zM1126 1257v-1257h-118l-703 999v-999h-155v1257h153l670 -956v956h153z" />
    <glyph glyph-name="nacute" unicode="&#x144;" horiz-adv-x="1001" 
d="M573 1057h-141l164 274h160zM137 0v909h154v-114q42 58 113.5 95.5t154.5 37.5q153 0 236.5 -90t83.5 -242v-596h-156v571q0 99 -50.5 157t-150.5 58q-78 0 -142 -47.5t-89 -122.5v-616h-154z" />
    <glyph glyph-name="uni0145" unicode="&#x145;" horiz-adv-x="1275" 
d="M1126 1257v-1257h-118l-703 999v-999h-155v1257h153l670 -956v956h153zM545 -412l80 131q-36 5 -59 30t-23 61q0 42 29.5 70t72.5 28q42 0 71 -29t29 -74q0 -48 -45 -116l-59 -101h-96z" />
    <glyph glyph-name="uni0146" unicode="&#x146;" horiz-adv-x="1001" 
d="M137 0v909h154v-114q42 58 113.5 95.5t154.5 37.5q153 0 236.5 -90t83.5 -242v-596h-156v571q0 99 -50.5 157t-150.5 58q-78 0 -142 -47.5t-89 -122.5v-616h-154zM420 -412l80 131q-36 5 -59 30t-23 61q0 42 29.5 70t72.5 28q42 0 71.5 -29t29.5 -74q0 -46 -46 -116
l-59 -101h-96z" />
    <glyph glyph-name="Ncaron" unicode="&#x147;" horiz-adv-x="1275" 
d="M567 1364l-188 248h139l121 -146l121 146h139l-188 -248h-144zM1126 1257v-1257h-118l-703 999v-999h-155v1257h153l670 -956v956h153z" />
    <glyph glyph-name="ncaron" unicode="&#x148;" horiz-adv-x="1001" 
d="M774 1323l-188 -279h-144l-188 279h133l127 -178l127 178h133zM137 0v909h154v-114q42 58 113.5 95.5t154.5 37.5q153 0 236.5 -90t83.5 -242v-596h-156v571q0 99 -50.5 157t-150.5 58q-78 0 -142 -47.5t-89 -122.5v-616h-154z" />
    <glyph glyph-name="Eng" unicode="&#x14a;" horiz-adv-x="1275" 
d="M545 -326v160q101 -67 209 -67q112 0 165 65.5t54 218.5l-668 948v-999h-155v1257h153l670 -956v956h153v-1202q0 -224 -91.5 -331t-272.5 -107q-113 0 -217 57z" />
    <glyph glyph-name="eng" unicode="&#x14b;" horiz-adv-x="1001" 
d="M723 -94v665q0 99 -50.5 157t-150.5 58q-78 0 -142 -47.5t-89 -122.5v-616h-154v909h154v-114q42 58 113.5 95.5t154.5 37.5q153 0 236.5 -90t83.5 -242v-700q0 -127 -68.5 -195t-196.5 -68q-44 0 -65 9v131q36 -6 51 -6q62 0 92.5 32.5t30.5 106.5z" />
    <glyph glyph-name="Omacron" unicode="&#x14c;" horiz-adv-x="1288" 
d="M426 1374v125h436v-125h-436zM1212 629q0 -284 -160 -465.5t-409 -181.5q-163 0 -292.5 82t-202 230t-72.5 335q0 285 159.5 466t407.5 181q123 0 228.5 -48t180.5 -132.5t117.5 -205t42.5 -261.5zM1051 629q0 222 -113 361.5t-295 139.5q-181 0 -293 -139.5t-112 -361.5
t112 -362t293 -140q182 0 295 140t113 362z" />
    <glyph glyph-name="omacron" unicode="&#x14d;" horiz-adv-x="978" 
d="M272 1085v125h437v-125h-437zM907 455q0 -210 -116 -341.5t-302 -131.5q-187 0 -302 131.5t-115 341.5t115 341.5t302 131.5q186 0 302 -131.5t116 -341.5zM752 455q0 151 -71 244.5t-192 93.5t-191.5 -93t-70.5 -245t70.5 -245t191.5 -93t192 93.5t71 244.5z" />
    <glyph glyph-name="Obreve" unicode="&#x14e;" horiz-adv-x="1288" 
d="M643 1364q-107 0 -171 64.5t-64 181.5h116q0 -64 32.5 -97.5t86.5 -33.5q56 0 88.5 33.5t32.5 97.5h117q0 -118 -64.5 -182t-173.5 -64zM1212 629q0 -284 -160 -465.5t-409 -181.5q-163 0 -292.5 82t-202 230t-72.5 335q0 285 159.5 466t407.5 181q123 0 228.5 -48
t180.5 -132.5t117.5 -205t42.5 -261.5zM1051 629q0 222 -113 361.5t-295 139.5q-181 0 -293 -139.5t-112 -361.5t112 -362t293 -140q182 0 295 140t113 362z" />
    <glyph glyph-name="obreve" unicode="&#x14f;" horiz-adv-x="978" 
d="M489 1024q-105 0 -169 68.5t-64 193.5h117q0 -70 30 -109.5t86 -39.5t86.5 39.5t30.5 109.5h117q0 -125 -64.5 -193.5t-169.5 -68.5zM907 455q0 -210 -116 -341.5t-302 -131.5q-187 0 -302 131.5t-115 341.5t115 341.5t302 131.5q186 0 302 -131.5t116 -341.5zM752 455
q0 151 -71 244.5t-192 93.5t-191.5 -93t-70.5 -245t70.5 -245t191.5 -93t192 93.5t71 244.5z" />
    <glyph glyph-name="Ohungarumlaut" unicode="&#x150;" horiz-adv-x="1288" 
d="M594 1368h-133l137 240h135zM846 1368h-133l135 240h137zM1212 629q0 -284 -160 -465.5t-409 -181.5q-163 0 -292.5 82t-202 230t-72.5 335q0 285 159.5 466t407.5 181q123 0 228.5 -48t180.5 -132.5t117.5 -205t42.5 -261.5zM1051 629q0 222 -113 361.5t-295 139.5
q-181 0 -293 -139.5t-112 -361.5t112 -362t293 -140q182 0 295 140t113 362z" />
    <glyph glyph-name="ohungarumlaut" unicode="&#x151;" horiz-adv-x="978" 
d="M424 1057h-129l135 274h133zM668 1057h-129l137 274h131zM907 455q0 -210 -116 -341.5t-302 -131.5q-187 0 -302 131.5t-115 341.5t115 341.5t302 131.5q186 0 302 -131.5t116 -341.5zM752 455q0 151 -71 244.5t-192 93.5t-191.5 -93t-70.5 -245t70.5 -245t191.5 -93
t192 93.5t71 244.5z" />
    <glyph glyph-name="OE" unicode="&#x152;" horiz-adv-x="1699" 
d="M1597 1257v-143h-610v-397h549v-144h-549v-428h610v-145h-911q-277 0 -443.5 171t-166.5 458t166.5 457.5t443.5 170.5h911zM690 145h139v969h-139q-213 0 -332.5 -130.5t-119.5 -354.5t119.5 -354t332.5 -130z" />
    <glyph glyph-name="oe" unicode="&#x153;" horiz-adv-x="1611" 
d="M1163 -18q-109 0 -197.5 48.5t-142.5 137.5q-53 -89 -139.5 -137.5t-194.5 -48.5q-187 0 -302 131.5t-115 341.5t115 341.5t302 131.5q108 0 195 -51t139 -140q118 191 338 191q183 0 283 -122t100 -325v-55h-645q3 -144 75.5 -228.5t188.5 -84.5q87 0 145.5 41.5
t77.5 117.5h146q-25 -133 -121.5 -211.5t-247.5 -78.5zM1161 797q-103 0 -171 -67.5t-85 -186.5h484q-3 109 -61 181.5t-167 72.5zM752 455q0 151 -71 244.5t-192 93.5t-191.5 -93t-70.5 -245t70.5 -245t191.5 -93t192 93.5t71 244.5z" />
    <glyph glyph-name="Racute" unicode="&#x154;" horiz-adv-x="1130" 
d="M621 1368h-156l164 240h178zM535 532h-224v-532h-161v1257h466q192 0 302 -94t110 -270q0 -154 -84 -243.5t-235 -110.5l370 -539h-184zM311 1116v-446h301q123 0 189.5 59t66.5 164t-66.5 164t-189.5 59h-301z" />
    <glyph glyph-name="racute" unicode="&#x155;" horiz-adv-x="657" 
d="M430 1057h-141l164 274h159zM604 913v-157q-38 24 -102 24q-73 0 -130.5 -45.5t-80.5 -124.5v-610h-154v909h154v-118q30 60 91 98.5t134 38.5q58 0 88 -15z" />
    <glyph glyph-name="uni0156" unicode="&#x156;" horiz-adv-x="1130" 
d="M535 532h-224v-532h-161v1257h466q192 0 302 -94t110 -270q0 -154 -84 -243.5t-235 -110.5l370 -539h-184zM311 1116v-446h301q123 0 189.5 59t66.5 164t-66.5 164t-189.5 59h-301zM461 -412l80 131q-36 5 -59 30t-23 61q0 42 29.5 70t72.5 28q42 0 71.5 -29t29.5 -74
q0 -46 -46 -116l-59 -101h-96z" />
    <glyph glyph-name="uni0157" unicode="&#x157;" horiz-adv-x="657" 
d="M604 913v-157q-38 24 -102 24q-73 0 -130.5 -45.5t-80.5 -124.5v-610h-154v909h154v-118q30 60 91 98.5t134 38.5q58 0 88 -15zM111 -412l79 131q-36 5 -58.5 30t-22.5 61q0 42 29.5 70t72.5 28q42 0 71 -29t29 -74q0 -48 -45 -116l-59 -101h-96z" />
    <glyph glyph-name="Rcaron" unicode="&#x158;" horiz-adv-x="1130" 
d="M483 1364l-188 248h139l121 -146l121 146h139l-188 -248h-144zM535 532h-224v-532h-161v1257h466q192 0 302 -94t110 -270q0 -154 -84 -243.5t-235 -110.5l370 -539h-184zM311 1116v-446h301q123 0 189.5 59t66.5 164t-66.5 164t-189.5 59h-301z" />
    <glyph glyph-name="rcaron" unicode="&#x159;" horiz-adv-x="657" 
d="M631 1323l-189 -279h-143l-188 279h133l127 -178l127 178h133zM604 913v-157q-38 24 -102 24q-73 0 -130.5 -45.5t-80.5 -124.5v-610h-154v909h154v-118q30 60 91 98.5t134 38.5q58 0 88 -15z" />
    <glyph glyph-name="Sacute" unicode="&#x15a;" horiz-adv-x="1042" 
d="M571 1368h-155l164 240h178zM47 328h164q35 -103 118 -156t201 -53q125 0 202 58.5t77 160.5q0 75 -47 123.5t-154 75.5l-225 59q-142 37 -221.5 113.5t-79.5 210.5q0 158 117 257t297 99q189 0 306.5 -89t153.5 -243h-161q-31 90 -105.5 142.5t-193.5 52.5
q-115 0 -187.5 -56t-72.5 -151q0 -77 49 -121.5t151 -71.5l215 -55q314 -80 314 -338q0 -167 -122 -265.5t-313 -98.5q-190 0 -319 91t-164 255z" />
    <glyph glyph-name="sacute" unicode="&#x15b;" horiz-adv-x="847" 
d="M483 1057h-141l164 274h160zM61 250h160q21 -69 77.5 -104t137.5 -35q85 0 136 34t51 101q0 47 -32.5 77.5t-103.5 49.5l-180 47q-105 27 -162 83t-57 156q0 120 93 194.5t233 74.5q148 0 237.5 -67.5t114.5 -190.5h-154q-42 129 -200 129q-73 0 -123.5 -34t-50.5 -97
q0 -44 30 -69.5t97 -45.5l176 -43q231 -61 231 -254q0 -127 -94.5 -200.5t-243.5 -73.5q-150 0 -250.5 71.5t-122.5 196.5z" />
    <glyph glyph-name="Scircumflex" unicode="&#x15c;" horiz-adv-x="1042" 
d="M586 1620l188 -250h-139l-121 146l-121 -146h-139l188 250h144zM47 328h164q35 -103 118 -156t201 -53q125 0 202 58.5t77 160.5q0 75 -47 123.5t-154 75.5l-225 59q-142 37 -221.5 113.5t-79.5 210.5q0 158 117 257t297 99q189 0 306.5 -89t153.5 -243h-161
q-31 90 -105.5 142.5t-193.5 52.5q-115 0 -187.5 -56t-72.5 -151q0 -77 49 -121.5t151 -71.5l215 -55q314 -80 314 -338q0 -167 -122 -265.5t-313 -98.5q-190 0 -319 91t-164 255z" />
    <glyph glyph-name="scircumflex" unicode="&#x15d;" horiz-adv-x="847" 
d="M496 1321l188 -279h-133l-127 181l-127 -181h-133l188 279h144zM61 250h160q21 -69 77.5 -104t137.5 -35q85 0 136 34t51 101q0 47 -32.5 77.5t-103.5 49.5l-180 47q-105 27 -162 83t-57 156q0 120 93 194.5t233 74.5q148 0 237.5 -67.5t114.5 -190.5h-154
q-42 129 -200 129q-73 0 -123.5 -34t-50.5 -97q0 -44 30 -69.5t97 -45.5l176 -43q231 -61 231 -254q0 -127 -94.5 -200.5t-243.5 -73.5q-150 0 -250.5 71.5t-122.5 196.5z" />
    <glyph glyph-name="Scedilla" unicode="&#x15e;" horiz-adv-x="1042" 
d="M47 328h164q35 -103 118 -156t201 -53q125 0 202 58.5t77 160.5q0 75 -47 123.5t-154 75.5l-225 59q-142 37 -221.5 113.5t-79.5 210.5q0 158 117 257t297 99q189 0 306.5 -89t153.5 -243h-161q-31 90 -105.5 142.5t-193.5 52.5q-115 0 -187.5 -56t-72.5 -151
q0 -77 49 -121.5t151 -71.5l215 -55q314 -80 314 -338q0 -167 -122 -265.5t-313 -98.5q-190 0 -319 91t-164 255zM449 -375h-146l135 271h152z" />
    <glyph glyph-name="scedilla" unicode="&#x15f;" horiz-adv-x="847" 
d="M61 250h160q21 -69 77.5 -104t137.5 -35q85 0 136 34t51 101q0 47 -32.5 77.5t-103.5 49.5l-180 47q-105 27 -162 83t-57 156q0 120 93 194.5t233 74.5q148 0 237.5 -67.5t114.5 -190.5h-154q-42 129 -200 129q-73 0 -123.5 -34t-50.5 -97q0 -44 30 -69.5t97 -45.5
l176 -43q231 -61 231 -254q0 -127 -94.5 -200.5t-243.5 -73.5q-150 0 -250.5 71.5t-122.5 196.5zM367 -375h-146l135 271h152z" />
    <glyph glyph-name="Scaron" unicode="&#x160;" horiz-adv-x="1042" 
d="M442 1364l-188 248h139l121 -146l121 146h139l-188 -248h-144zM47 328h164q35 -103 118 -156t201 -53q125 0 202 58.5t77 160.5q0 75 -47 123.5t-154 75.5l-225 59q-142 37 -221.5 113.5t-79.5 210.5q0 158 117 257t297 99q189 0 306.5 -89t153.5 -243h-161
q-31 90 -105.5 142.5t-193.5 52.5q-115 0 -187.5 -56t-72.5 -151q0 -77 49 -121.5t151 -71.5l215 -55q314 -80 314 -338q0 -167 -122 -265.5t-313 -98.5q-190 0 -319 91t-164 255z" />
    <glyph glyph-name="scaron" unicode="&#x161;" horiz-adv-x="847" 
d="M684 1323l-188 -279h-144l-188 279h133l127 -178l127 178h133zM61 250h160q21 -69 77.5 -104t137.5 -35q85 0 136 34t51 101q0 47 -32.5 77.5t-103.5 49.5l-180 47q-105 27 -162 83t-57 156q0 120 93 194.5t233 74.5q148 0 237.5 -67.5t114.5 -190.5h-154
q-42 129 -200 129q-73 0 -123.5 -34t-50.5 -97q0 -44 30 -69.5t97 -45.5l176 -43q231 -61 231 -254q0 -127 -94.5 -200.5t-243.5 -73.5q-150 0 -250.5 71.5t-122.5 196.5z" />
    <glyph glyph-name="uni0162" unicode="&#x162;" horiz-adv-x="1161" 
d="M61 1114v143h1039v-143h-438v-1114h-162v1114h-439zM487 -412l80 131q-36 5 -59 30t-23 61q0 42 30 70t73 28q42 0 71 -29t29 -74q0 -48 -45 -116l-59 -101h-97z" />
    <glyph glyph-name="uni0163" unicode="&#x163;" horiz-adv-x="649" 
d="M180 229v549h-147v131h147v240h154v-240h219v-131h-219v-532q0 -127 121 -127q61 0 118 37v-144q-58 -30 -143 -30q-115 0 -182.5 62.5t-67.5 184.5zM285 -412l80 131q-36 5 -59 30t-23 61q0 42 29.5 70t72.5 28q42 0 71 -29t29 -74q0 -48 -45 -116l-59 -101h-96z" />
    <glyph glyph-name="Tcaron" unicode="&#x164;" horiz-adv-x="1161" 
d="M510 1364l-188 248h139l121 -146l120 146h140l-189 -248h-143zM61 1114v143h1039v-143h-438v-1114h-162v1114h-439z" />
    <glyph glyph-name="tcaron" unicode="&#x165;" horiz-adv-x="649" 
d="M565 1016h-123l68 336h123zM180 229v549h-147v131h147v240h154v-240h219v-131h-219v-532q0 -127 121 -127q61 0 118 37v-144q-58 -30 -143 -30q-115 0 -182.5 62.5t-67.5 184.5z" />
    <glyph glyph-name="Tbar" unicode="&#x166;" horiz-adv-x="1161" 
d="M61 1114v143h1039v-143h-438v-395h231v-137h-231v-582h-162v582h-232v137h232v395h-439z" />
    <glyph glyph-name="tbar" unicode="&#x167;" horiz-adv-x="657" 
d="M59 449v124h129v205h-147v131h147v240h154v-240h219v-131h-219v-205h186v-124h-186v-203q0 -127 121 -127q62 0 119 37v-144q-58 -30 -144 -30q-116 0 -183 62.5t-67 184.5v220h-129z" />
    <glyph glyph-name="Utilde" unicode="&#x168;" horiz-adv-x="1243" 
d="M799 1606h98q0 -111 -40.5 -177.5t-115.5 -66.5q-34 0 -67 18t-55.5 39.5t-50.5 39.5t-52 18q-70 0 -70 -109h-100q0 111 40.5 177.5t115.5 66.5q34 0 67.5 -18t56 -39.5t50.5 -39.5t53 -18q67 0 70 109zM621 -18q-222 0 -357 133.5t-135 384.5v757h160v-739
q0 -196 87.5 -294.5t244.5 -98.5t244 98.5t87 294.5v739h162v-759q0 -250 -135 -383t-358 -133z" />
    <glyph glyph-name="utilde" unicode="&#x169;" horiz-adv-x="997" 
d="M670 1296h98q0 -111 -40.5 -176t-115.5 -65q-32 0 -63.5 18.5t-53.5 41t-48 41t-48 18.5q-69 0 -69 -113h-99q0 111 40.5 176.5t115.5 65.5q32 0 64 -18.5t53.5 -41t47.5 -41t48 -18.5q67 0 70 112zM862 909v-909h-155v115q-41 -58 -111 -95.5t-154 -37.5
q-152 0 -234.5 89.5t-82.5 241.5v596h156v-571q0 -99 49.5 -157t148.5 -58q78 0 140.5 47.5t87.5 122.5v616h155z" />
    <glyph glyph-name="Umacron" unicode="&#x16a;" horiz-adv-x="1243" 
d="M403 1374v125h437v-125h-437zM621 -18q-222 0 -357 133.5t-135 384.5v757h160v-739q0 -196 87.5 -294.5t244.5 -98.5t244 98.5t87 294.5v739h162v-759q0 -250 -135 -383t-358 -133z" />
    <glyph glyph-name="umacron" unicode="&#x16b;" horiz-adv-x="997" 
d="M281 1085v125h436v-125h-436zM862 909v-909h-155v115q-41 -58 -111 -95.5t-154 -37.5q-152 0 -234.5 89.5t-82.5 241.5v596h156v-571q0 -99 49.5 -157t148.5 -58q78 0 140.5 47.5t87.5 122.5v616h155z" />
    <glyph glyph-name="Ubreve" unicode="&#x16c;" horiz-adv-x="1243" 
d="M621 1364q-107 0 -171.5 64.5t-64.5 181.5h117q0 -64 32.5 -97.5t86.5 -33.5q56 0 88 33.5t32 97.5h117q0 -118 -64 -182t-173 -64zM621 -18q-222 0 -357 133.5t-135 384.5v757h160v-739q0 -196 87.5 -294.5t244.5 -98.5t244 98.5t87 294.5v739h162v-759
q0 -250 -135 -383t-358 -133z" />
    <glyph glyph-name="ubreve" unicode="&#x16d;" horiz-adv-x="997" 
d="M498 1024q-105 0 -169.5 68.5t-64.5 193.5h117q0 -70 30.5 -109.5t86.5 -39.5t86 39.5t30 109.5h117q0 -125 -64 -193.5t-169 -68.5zM862 909v-909h-155v115q-41 -58 -111 -95.5t-154 -37.5q-152 0 -234.5 89.5t-82.5 241.5v596h156v-571q0 -99 49.5 -157t148.5 -58
q78 0 140.5 47.5t87.5 122.5v616h155z" />
    <glyph glyph-name="Uring" unicode="&#x16e;" horiz-adv-x="1243" 
d="M799 1503q0 -74 -51.5 -125t-126.5 -51t-127 51t-52 125q0 75 52 126.5t127 51.5t126.5 -51.5t51.5 -126.5zM713 1503q0 40 -27 67t-65 27q-39 0 -66 -27.5t-27 -66.5q0 -38 27.5 -65t65.5 -27t65 27t27 65zM621 -18q-222 0 -357 133.5t-135 384.5v757h160v-739
q0 -196 87.5 -294.5t244.5 -98.5t244 98.5t87 294.5v739h162v-759q0 -250 -135 -383t-358 -133z" />
    <glyph glyph-name="uring" unicode="&#x16f;" horiz-adv-x="997" 
d="M676 1188q0 -75 -51.5 -125.5t-126.5 -50.5t-127 50.5t-52 125.5t52 125.5t127 50.5t126.5 -50.5t51.5 -125.5zM590 1188q0 39 -26.5 65.5t-65.5 26.5t-65.5 -26.5t-26.5 -65.5t26.5 -65.5t65.5 -26.5t65.5 26.5t26.5 65.5zM862 909v-909h-155v115q-41 -58 -111 -95.5
t-154 -37.5q-152 0 -234.5 89.5t-82.5 241.5v596h156v-571q0 -99 49.5 -157t148.5 -58q78 0 140.5 47.5t87.5 122.5v616h155z" />
    <glyph glyph-name="Uhungarumlaut" unicode="&#x170;" horiz-adv-x="1243" 
d="M571 1368h-133l137 240h136zM823 1368h-133l135 240h138zM621 -18q-222 0 -357 133.5t-135 384.5v757h160v-739q0 -196 87.5 -294.5t244.5 -98.5t244 98.5t87 294.5v739h162v-759q0 -250 -135 -383t-358 -133z" />
    <glyph glyph-name="uhungarumlaut" unicode="&#x171;" horiz-adv-x="997" 
d="M434 1057h-129l135 274h133zM678 1057h-129l137 274h131zM862 909v-909h-155v115q-41 -58 -111 -95.5t-154 -37.5q-152 0 -234.5 89.5t-82.5 241.5v596h156v-571q0 -99 49.5 -157t148.5 -58q78 0 140.5 47.5t87.5 122.5v616h155z" />
    <glyph glyph-name="Uogonek" unicode="&#x172;" horiz-adv-x="1243" 
d="M621 -18q-222 0 -357 133.5t-135 384.5v757h160v-739q0 -196 87.5 -294.5t244.5 -98.5t244 98.5t87 294.5v739h162v-759q0 -163 -55.5 -269.5t-167.5 -185.5q-189 -133 -189 -260q0 -25 13 -39t35 -14q28 0 75 30v-102q-53 -39 -106 -39q-65 0 -101 36.5t-36 100.5
q0 122 116 232q-24 -6 -77 -6z" />
    <glyph glyph-name="uogonek" unicode="&#x173;" horiz-adv-x="997" 
d="M862 909v-909q-64 -106 -82 -144t-18 -73q0 -53 45 -53q32 0 76 30v-102q-49 -39 -107 -39q-65 0 -100 36t-35 99q0 36 16.5 79t32.5 70.5t58 96.5h-41v115q-41 -58 -111 -95.5t-154 -37.5q-152 0 -234.5 89.5t-82.5 241.5v596h156v-571q0 -99 49.5 -157t148.5 -58
q78 0 140.5 47.5t87.5 122.5v616h155z" />
    <glyph glyph-name="Wcircumflex" unicode="&#x174;" horiz-adv-x="1570" 
d="M856 1620l188 -250h-139l-121 146l-120 -146h-140l189 250h143zM723 1257h129l266 -999l258 999h156l-334 -1257h-147l-265 981l-268 -981h-145l-334 1257h160l258 -999z" />
    <glyph glyph-name="wcircumflex" unicode="&#x175;" horiz-adv-x="1288" 
d="M717 1321l188 -279h-133l-127 181l-127 -181h-133l188 279h144zM715 909l186 -694l201 694h149l-268 -909h-149l-189 690l-190 -690h-150l-268 909h153l201 -694l187 694h137z" />
    <glyph glyph-name="Ycircumflex" unicode="&#x176;" horiz-adv-x="1140" 
d="M643 1620l188 -250h-139l-121 146l-120 -146h-140l189 250h143zM573 664l363 593h172l-459 -739v-518h-160v518l-454 739h176z" />
    <glyph glyph-name="ycircumflex" unicode="&#x177;" horiz-adv-x="931" 
d="M539 1321l188 -279h-133l-127 181l-127 -181h-133l188 279h144zM406 -348h-152l137 342l-354 915h166l268 -716l264 716h160z" />
    <glyph glyph-name="Ydieresis" unicode="&#x178;" horiz-adv-x="1140" 
d="M332 1479q0 40 28 67t68 27q39 0 66.5 -27.5t27.5 -66.5t-28 -67t-66 -28q-40 0 -68 27.5t-28 67.5zM621 1479q0 40 27 67t65 27q40 0 68 -27t28 -67t-28 -67.5t-68 -27.5q-38 0 -65 27.5t-27 67.5zM573 664l363 593h172l-459 -739v-518h-160v518l-454 739h176z" />
    <glyph glyph-name="Zacute" unicode="&#x179;" horiz-adv-x="1093" 
d="M653 1368h-155l164 240h178zM1008 145v-145h-924v117l715 997h-705v143h905v-114l-712 -998h721z" />
    <glyph glyph-name="zacute" unicode="&#x17a;" horiz-adv-x="888" 
d="M518 1057h-141l164 274h159zM799 131v-131h-715v100l510 678h-494v131h691v-100l-506 -678h514z" />
    <glyph glyph-name="Zdotaccent" unicode="&#x17b;" horiz-adv-x="1093" 
d="M686 1477q0 -40 -29 -69.5t-69 -29.5t-69.5 29.5t-29.5 69.5q0 41 29.5 70.5t69.5 29.5t69 -29.5t29 -70.5zM1008 145v-145h-924v117l715 997h-705v143h905v-114l-712 -998h721z" />
    <glyph glyph-name="zdotaccent" unicode="&#x17c;" horiz-adv-x="888" 
d="M557 1184q0 -40 -29 -69.5t-69 -29.5t-69.5 29.5t-29.5 69.5q0 41 29.5 69.5t69.5 28.5t69 -28.5t29 -69.5zM799 131v-131h-715v100l510 678h-494v131h691v-100l-506 -678h514z" />
    <glyph glyph-name="Zcaron" unicode="&#x17d;" horiz-adv-x="1093" 
d="M516 1364l-188 248h139l121 -146l121 146h139l-189 -248h-143zM1008 145v-145h-924v117l715 997h-705v143h905v-114l-712 -998h721z" />
    <glyph glyph-name="zcaron" unicode="&#x17e;" horiz-adv-x="888" 
d="M719 1323l-189 -279h-143l-188 279h133l127 -178l127 178h133zM799 131v-131h-715v100l510 678h-494v131h691v-100l-506 -678h514z" />
    <glyph glyph-name="florin" unicode="&#x192;" horiz-adv-x="829" 
d="M139 575v130h168l51 282q25 136 107.5 212.5t210.5 76.5q70 0 125 -25v-139q-56 29 -123 29q-66 0 -110.5 -43.5t-57.5 -122.5l-49 -270h198v-130h-221l-114 -655q-25 -138 -92 -210t-195 -72q-70 0 -123 24v139q54 -28 121 -28q63 0 92.5 39t44.5 120l113 643h-146z" />
    <glyph glyph-name="Aringacute" unicode="&#x1fa;" horiz-adv-x="1220" 
d="M694 1655h-151l112 176h176zM791 1456q0 -64 -53 -107.5t-130 -43.5q-75 0 -127.5 43.5t-52.5 107.5q0 63 52.5 107.5t127.5 44.5q76 0 129.5 -44.5t53.5 -107.5zM705 1456q0 33 -28 53.5t-69 20.5q-39 0 -66.5 -20.5t-27.5 -53.5t27.5 -53.5t66.5 -20.5q41 0 69 20.5
t28 53.5zM535 1257h151l492 -1257h-164l-146 379h-518l-143 -379h-164zM608 1057l-205 -537h410z" />
    <glyph glyph-name="aringacute" unicode="&#x1fb;" horiz-adv-x="921" 
d="M549 1325h-152l115 176h176zM647 1126q0 -63 -53 -107t-129 -44q-75 0 -127.5 44t-52.5 107q0 64 52.5 108t127.5 44q77 0 129.5 -44t52.5 -108zM561 1126q0 33 -28 54.5t-68 21.5q-39 0 -66.5 -21.5t-27.5 -54.5t27 -53t67 -20q41 0 68.5 20t27.5 53zM797 0h-148v68
q-30 -32 -96.5 -58t-142.5 -26q-143 0 -240.5 79.5t-97.5 210.5q0 126 100 205.5t248 79.5q66 0 131.5 -22.5t97.5 -51.5v115q0 87 -52 141t-148 54q-144 0 -187 -125h-151q23 116 116.5 187t223.5 71q162 0 254 -86t92 -236v-606zM649 225v94q-20 50 -80.5 81.5
t-132.5 31.5q-91 0 -154 -40.5t-63 -117.5q0 -78 63 -119.5t154 -41.5q72 0 132.5 31t80.5 81z" />
    <glyph glyph-name="AEacute" unicode="&#x1fc;" horiz-adv-x="1765" 
d="M1270 1368h-156l164 240h178zM799 1257h862v-143h-608v-397h549v-144h-549v-428h608v-145h-766v379h-455l-229 -379h-168zM895 1126l-369 -606h369v606z" />
    <glyph glyph-name="aeacute" unicode="&#x1fd;" horiz-adv-x="1497" 
d="M850 1057h-141l163 274h160zM1272 272h145q-25 -132 -121.5 -211t-246.5 -79q-105 0 -190.5 45t-139.5 127q-126 -170 -324 -170q-140 0 -232.5 76.5t-92.5 201.5q0 129 99.5 206t250.5 77h225v55q0 88 -52 141.5t-147 53.5q-147 0 -190 -125h-147q23 116 116.5 187
t223.5 71q108 0 184 -44t110 -122q53 77 130.5 121.5t170.5 44.5q184 0 285 -122t101 -325v-55h-646q3 -145 76 -229t189 -84q86 0 145 41.5t78 117.5zM1047 797q-103 0 -172.5 -67.5t-86.5 -186.5h486q-3 109 -61 181.5t-166 72.5zM408 113q86 0 148 45.5t89 120.5v145
h-215q-90 0 -152.5 -39.5t-62.5 -114.5q0 -76 55.5 -116.5t137.5 -40.5z" />
    <glyph glyph-name="Oslashacute" unicode="&#x1fe;" horiz-adv-x="1308" 
d="M719 1368h-156l164 240h178zM115 37l114 145q-143 180 -143 447q0 285 159.5 466t407.5 181q200 0 348 -123l97 123l94 -68l-111 -137q142 -178 142 -442q0 -284 -160.5 -465.5t-409.5 -181.5q-200 0 -340 116l-102 -129zM248 629q0 -197 80 -324l581 731
q-105 94 -256 94q-181 0 -293 -139.5t-112 -361.5zM1061 629q0 189 -78 317l-577 -731q97 -88 247 -88q182 0 295 140t113 362z" />
    <glyph glyph-name="oslashacute" unicode="&#x1ff;" horiz-adv-x="999" 
d="M557 1057h-141l164 274h159zM82 2l100 129q-100 124 -100 324q0 210 115.5 341.5t302.5 131.5q137 0 239 -76l86 109l84 -60l-94 -123q103 -134 103 -323q0 -210 -116 -341.5t-302 -131.5q-144 0 -244 77l-90 -116zM236 455q0 -122 40 -201l377 485q-63 54 -153 54
q-121 0 -192.5 -93.5t-71.5 -244.5zM764 455q0 117 -45 202l-377 -487q62 -53 158 -53q121 0 192.5 93.5t71.5 244.5z" />
    <glyph glyph-name="uni0218" unicode="&#x218;" horiz-adv-x="1042" 
d="M47 328h164q35 -103 118 -156t201 -53q125 0 202 58.5t77 160.5q0 75 -47 123.5t-154 75.5l-225 59q-142 37 -221.5 113.5t-79.5 210.5q0 158 117 257t297 99q189 0 306.5 -89t153.5 -243h-161q-31 90 -105.5 142.5t-193.5 52.5q-115 0 -187.5 -56t-72.5 -151
q0 -77 49 -121.5t151 -71.5l215 -55q314 -80 314 -338q0 -167 -122 -265.5t-313 -98.5q-190 0 -319 91t-164 255zM412 -412l80 131q-36 5 -59 30t-23 61q0 42 29.5 70t72.5 28q42 0 71 -29t29 -74q0 -48 -45 -116l-59 -101h-96z" />
    <glyph glyph-name="uni0219" unicode="&#x219;" horiz-adv-x="847" 
d="M61 250h160q21 -69 77.5 -104t137.5 -35q85 0 136 34t51 101q0 47 -32.5 77.5t-103.5 49.5l-180 47q-105 27 -162 83t-57 156q0 120 93 194.5t233 74.5q148 0 237.5 -67.5t114.5 -190.5h-154q-42 129 -200 129q-73 0 -123.5 -34t-50.5 -97q0 -44 30 -69.5t97 -45.5
l176 -43q231 -61 231 -254q0 -127 -94.5 -200.5t-243.5 -73.5q-150 0 -250.5 71.5t-122.5 196.5zM330 -412l80 131q-36 5 -59 30t-23 61q0 42 29.5 70t72.5 28q42 0 71 -29t29 -74q0 -48 -45 -116l-59 -101h-96z" />
    <glyph glyph-name="uni0237" unicode="&#x237;" horiz-adv-x="423" 
d="M291 909v-1013q0 -127 -68 -195t-196 -68q-42 0 -66 9v131q36 -6 53 -6q62 0 92.5 32.5t30.5 106.5v1003h154z" />
    <glyph glyph-name="circumflex" unicode="&#x2c6;" 
d="M584 1321l188 -279h-133l-127 181l-127 -181h-133l188 279h144z" />
    <glyph glyph-name="caron" unicode="&#x2c7;" 
d="M772 1323l-188 -279h-144l-188 279h133l127 -178l127 178h133z" />
    <glyph glyph-name="breve" unicode="&#x2d8;" 
d="M512 1024q-105 0 -169 68.5t-64 193.5h116q0 -70 30.5 -109.5t86.5 -39.5t86.5 39.5t30.5 109.5h116q0 -125 -64 -193.5t-169 -68.5z" />
    <glyph glyph-name="dotaccent" unicode="&#x2d9;" 
d="M610 1184q0 -40 -29 -69.5t-69 -29.5t-69 29.5t-29 69.5q0 41 29 69.5t69 28.5t69 -28.5t29 -69.5z" />
    <glyph glyph-name="ring" unicode="&#x2da;" 
d="M690 1188q0 -75 -51.5 -125.5t-126.5 -50.5t-126.5 50.5t-51.5 125.5t51.5 125.5t126.5 50.5t126.5 -50.5t51.5 -125.5zM604 1188q0 39 -26.5 65.5t-65.5 26.5t-65.5 -26.5t-26.5 -65.5t26.5 -65.5t65.5 -26.5t65.5 26.5t26.5 65.5z" />
    <glyph glyph-name="ogonek" unicode="&#x2db;" 
d="M510 8h115q-68 -112 -87.5 -151.5t-19.5 -73.5q0 -53 45 -53q33 0 76 30v-102q-49 -39 -107 -39q-65 0 -100 36t-35 99q0 37 17.5 81.5t33 70.5t62.5 102z" />
    <glyph glyph-name="tilde" unicode="&#x2dc;" 
d="M682 1296h98q0 -111 -40 -176t-115 -65q-32 0 -63.5 18.5t-53.5 41t-48 41t-48 18.5q-70 0 -70 -113h-98q0 111 40 176.5t115 65.5q32 0 64 -18.5t53.5 -41t47.5 -41t48 -18.5q67 0 70 112z" />
    <glyph glyph-name="hungarumlaut" unicode="&#x2dd;" 
d="M385 1057h-129l135 274h133zM629 1057h-129l137 274h131z" />
    <glyph glyph-name="Wgrave" unicode="&#x1e80;" horiz-adv-x="1570" 
d="M862 1368h-153l-189 240h178zM723 1257h129l266 -999l258 999h156l-334 -1257h-147l-265 981l-268 -981h-145l-334 1257h160l258 -999z" />
    <glyph glyph-name="wgrave" unicode="&#x1e81;" horiz-adv-x="1288" 
d="M723 1057h-141l-183 274h160zM715 909l186 -694l201 694h149l-268 -909h-149l-189 690l-190 -690h-150l-268 909h153l201 -694l187 694h137z" />
    <glyph glyph-name="Wacute" unicode="&#x1e82;" horiz-adv-x="1570" 
d="M860 1368h-155l163 240h179zM723 1257h129l266 -999l258 999h156l-334 -1257h-147l-265 981l-268 -981h-145l-334 1257h160l258 -999z" />
    <glyph glyph-name="wacute" unicode="&#x1e83;" horiz-adv-x="1288" 
d="M705 1057h-142l164 274h160zM715 909l186 -694l201 694h149l-268 -909h-149l-189 690l-190 -690h-150l-268 909h153l201 -694l187 694h137z" />
    <glyph glyph-name="Wdieresis" unicode="&#x1e84;" horiz-adv-x="1570" 
d="M547 1479q0 40 28 67t68 27q39 0 66.5 -27.5t27.5 -66.5t-27.5 -67t-66.5 -28q-40 0 -68 27.5t-28 67.5zM836 1479q0 40 27 67t65 27q40 0 68 -27t28 -67t-28 -67.5t-68 -27.5q-38 0 -65 27.5t-27 67.5zM723 1257h129l266 -999l258 999h156l-334 -1257h-147l-265 981
l-268 -981h-145l-334 1257h160l258 -999z" />
    <glyph glyph-name="wdieresis" unicode="&#x1e85;" horiz-adv-x="1288" 
d="M406 1169q0 41 28 69t68 28q39 0 66.5 -28t27.5 -69q0 -38 -28 -66t-66 -28q-40 0 -68 28t-28 66zM694 1169q0 41 27 69t65 28q40 0 68.5 -28t28.5 -69q0 -38 -28.5 -66t-68.5 -28q-38 0 -65 28t-27 66zM715 909l186 -694l201 694h149l-268 -909h-149l-189 690l-190 -690
h-150l-268 909h153l201 -694l187 694h137z" />
    <glyph glyph-name="Ygrave" unicode="&#x1ef2;" horiz-adv-x="1140" 
d="M653 1368h-153l-189 240h178zM573 664l363 593h172l-459 -739v-518h-160v518l-454 739h176z" />
    <glyph glyph-name="ygrave" unicode="&#x1ef3;" horiz-adv-x="931" 
d="M545 1057h-142l-182 274h160zM406 -348h-152l137 342l-354 915h166l268 -716l264 716h160z" />
    <glyph glyph-name="endash" unicode="&#x2013;" horiz-adv-x="972" 
d="M82 473v125h809v-125h-809z" />
    <glyph glyph-name="emdash" unicode="&#x2014;" horiz-adv-x="1732" 
d="M82 473v125h1569v-125h-1569z" />
    <glyph glyph-name="quoteleft" unicode="&#x2018;" horiz-adv-x="344" 
d="M305 1257l-125 -210q39 -6 64.5 -33.5t25.5 -69.5q0 -47 -32 -77.5t-78 -30.5q-47 0 -78 31.5t-31 86.5t45 129l105 174h104z" />
    <glyph glyph-name="quoteright" unicode="&#x2019;" horiz-adv-x="344" 
d="M39 854l125 211q-40 6 -65 33.5t-25 68.5q0 47 32 78t78 31q47 0 78 -32t31 -87t-45 -129l-105 -174h-104z" />
    <glyph glyph-name="quotesinglbase" unicode="&#x201a;" horiz-adv-x="329" 
d="M39 -211l125 211q-40 6 -65 33.5t-25 68.5q0 47 32 78t78 31q47 0 78 -32t31 -87t-45 -129l-105 -174h-104z" />
    <glyph glyph-name="quotedblleft" unicode="&#x201c;" horiz-adv-x="657" 
d="M305 1257l-125 -210q39 -6 64.5 -33.5t25.5 -69.5q0 -47 -32 -77.5t-78 -30.5q-47 0 -78 31.5t-31 86.5t45 129l105 174h104zM618 1257l-124 -210q39 -6 64.5 -33.5t25.5 -69.5q0 -47 -32.5 -77.5t-78.5 -30.5q-47 0 -77.5 31.5t-30.5 86.5t45 129l104 174h104z" />
    <glyph glyph-name="quotedblright" unicode="&#x201d;" horiz-adv-x="657" 
d="M39 854l125 211q-40 6 -65 33.5t-25 68.5q0 47 32 78t78 31q47 0 78 -32t31 -87t-45 -129l-105 -174h-104zM352 854l125 211q-40 6 -65 33.5t-25 68.5q0 47 32.5 78t78.5 31q47 0 77.5 -32t30.5 -87t-45 -129l-104 -174h-105z" />
    <glyph glyph-name="quotedblbase" unicode="&#x201e;" horiz-adv-x="657" 
d="M39 -211l125 211q-40 6 -65 33.5t-25 68.5q0 47 32 78t78 31q47 0 78 -32t31 -87t-45 -129l-105 -174h-104zM352 -211l125 211q-40 6 -65 33.5t-25 68.5q0 47 32.5 78t78.5 31q47 0 77.5 -32t30.5 -87t-45 -129l-104 -174h-105z" />
    <glyph glyph-name="dagger" unicode="&#x2020;" horiz-adv-x="649" 
d="M61 1028v115h203v188h119v-188h203v-115h-203v-424h-119v424h-203z" />
    <glyph glyph-name="daggerdbl" unicode="&#x2021;" horiz-adv-x="665" 
d="M70 1049v108h202v174h119v-174h207v-108h-207v-164h207v-107h-207v-174h-119v174h-202v107h202v164h-202z" />
    <glyph glyph-name="bullet" unicode="&#x2022;" horiz-adv-x="702" 
d="M631 535q0 -121 -81 -200t-200 -79q-118 0 -198 78.5t-80 200.5t80 200t198 78q119 0 200 -78.5t81 -199.5z" />
    <glyph glyph-name="ellipsis" unicode="&#x2026;" horiz-adv-x="1134" 
d="M66 100q0 47 32 80t78 33q45 0 77 -33t32 -80t-32 -78.5t-77 -31.5q-46 0 -78 31.5t-32 78.5zM459 100q0 47 32 80t76 33q46 0 78.5 -33t32.5 -80t-32.5 -78.5t-78.5 -31.5q-45 0 -76.5 31.5t-31.5 78.5zM850 100q0 47 32.5 80t78.5 33q44 0 76 -33t32 -80t-31.5 -78.5
t-76.5 -31.5q-46 0 -78.5 31.5t-32.5 78.5z" />
    <glyph glyph-name="perthousand" unicode="&#x2030;" horiz-adv-x="1927" 
d="M68 1004q0 114 79 193t193 79t193 -79t79 -193t-79 -193.5t-193 -79.5t-193 79.5t-79 193.5zM203 0l784 1257h127l-784 -1257h-127zM188 1004q0 -63 44.5 -107.5t107.5 -44.5t108.5 44.5t45.5 107.5t-45.5 108t-108.5 45t-107.5 -45t-44.5 -108zM1247 254
q0 -114 -79 -193t-193 -79t-193.5 79t-79.5 193t79.5 193t193.5 79t193 -79t79 -193zM1860 254q0 -114 -79.5 -193t-193.5 -79t-193 79t-79 193t79 193t193 79t193.5 -79t79.5 -193zM1126 254q0 63 -44 107.5t-107 44.5t-108.5 -44.5t-45.5 -107.5t45.5 -108.5t108.5 -45.5
t107 45.5t44 108.5zM1739 254q0 63 -44.5 107.5t-107.5 44.5t-108 -44.5t-45 -107.5t45 -108.5t108 -45.5t107.5 45.5t44.5 108.5z" />
    <glyph glyph-name="guilsinglleft" unicode="&#x2039;" horiz-adv-x="440" 
d="M389 152h-149l-189 303l189 303h149l-188 -303z" />
    <glyph glyph-name="guilsinglright" unicode="&#x203a;" horiz-adv-x="440" 
d="M201 152h-150l189 303l-189 303h150l188 -303z" />
    <glyph glyph-name="fraction" unicode="&#x2044;" horiz-adv-x="430" 
d="M676 1257l-785 -1257h-137l785 1257h137z" />
    <glyph glyph-name="Euro" unicode="&#x20ac;" horiz-adv-x="1112" 
d="M59 694v123h123q41 213 169 336t304 123q157 0 263 -90.5t141 -253.5h-148q-28 96 -94 149.5t-162 53.5q-118 0 -200 -85t-115 -233h420l-25 -123h-411q-2 -23 -2 -65q0 -51 2 -76h391l-25 -123h-348q34 -144 115.5 -225.5t197.5 -81.5q96 0 162 53.5t94 149.5h148
q-35 -163 -141 -253.5t-263 -90.5q-174 0 -300.5 119.5t-170.5 328.5h-125v123h109q-2 25 -2 76q0 42 2 65h-109z" />
    <glyph glyph-name="uni2117" unicode="&#x2117;" horiz-adv-x="1445" 
d="M1370 629q0 -184 -87.5 -333.5t-235 -231.5t-324.5 -82t-324.5 82t-235 231.5t-87.5 333.5t87.5 333.5t235 231.5t324.5 82t324.5 -82t235 -231.5t87.5 -333.5zM1290 629q0 121 -45 227.5t-121.5 180.5t-181 116.5t-219.5 42.5t-219.5 -42.5t-181 -116.5t-121.5 -180.5
t-45 -227.5q0 -161 76.5 -292t206.5 -203.5t284 -72.5t284 72.5t206.5 203.5t76.5 292zM797 520h-170v-266h-142v756h312q121 0 191.5 -63.5t70.5 -180.5q0 -118 -70.5 -182t-191.5 -64zM920 766q0 55 -34.5 87t-97.5 32h-161v-238h161q64 0 98 31.5t34 87.5z" />
    <glyph glyph-name="trademark" unicode="&#x2122;" horiz-adv-x="1200" 
d="M37 1163v94h444v-94h-166v-426h-110v426h-168zM874 737h-73l-133 344v-344h-103v520h131l142 -368l141 368h131v-520h-102v344z" />
    <glyph glyph-name="uni2153" unicode="&#x2153;" horiz-adv-x="1402" 
d="M391 1260v-682h-127v530l-180 -90v131l221 111h86zM1165 1257l-878 -1257h-137l878 1257h137zM1008 297v98h47q47 0 76.5 24.5t29.5 69.5q0 40 -28 66.5t-72 26.5q-43 0 -73 -28.5t-36 -72.5h-127q11 92 73.5 151.5t158.5 59.5q104 0 164.5 -54.5t60.5 -143.5
q0 -50 -27 -91.5t-67 -56.5q49 -17 76.5 -56.5t27.5 -90.5q0 -93 -62.5 -151t-170.5 -58q-106 0 -170.5 58t-73.5 157h131q6 -48 36.5 -76.5t80.5 -28.5q48 0 77 27t29 74q0 45 -30.5 70.5t-79.5 25.5h-51z" />
    <glyph glyph-name="uni2154" unicode="&#x2154;" horiz-adv-x="1525" 
d="M430 1069q0 40 -26.5 65t-67.5 25q-44 0 -72 -31t-31 -77h-135q11 99 75 161t163 62q102 0 161.5 -55.5t59.5 -147.5q0 -31 -9 -59.5t-33 -60.5t-38 -48t-51 -55l-152 -154h289v-112h-463v88l230 239q54 57 77 91t23 69zM1288 1257l-878 -1257h-138l879 1257h137z
M1130 297v98h48q47 0 76.5 24.5t29.5 69.5q0 40 -28 66.5t-72 26.5q-43 0 -73 -28.5t-36 -72.5h-127q11 92 73.5 151.5t158.5 59.5q104 0 164.5 -54.5t60.5 -143.5q0 -50 -26.5 -91.5t-65.5 -56.5q47 -17 74.5 -56.5t27.5 -90.5q0 -93 -62.5 -151t-170.5 -58
q-106 0 -170.5 58t-73.5 157h133q5 -48 35 -76.5t80 -28.5q48 0 77 27t29 74q0 45 -30.5 70.5t-79.5 25.5h-52z" />
    <glyph glyph-name="uni215B" unicode="&#x215b;" horiz-adv-x="1415" 
d="M391 1260v-682h-127v530l-180 -90v131l221 111h86zM1165 1257l-878 -1257h-137l878 1257h137zM1063 -8q-105 0 -175.5 53.5t-70.5 142.5q0 61 34 104.5t87 59.5q-45 20 -70.5 60t-25.5 90q0 88 62.5 139t158.5 51q94 0 157.5 -51t63.5 -139q0 -50 -26.5 -89.5
t-71.5 -60.5q54 -15 87.5 -59t33.5 -105q0 -89 -69.5 -142.5t-174.5 -53.5zM1063 408q43 0 71.5 26t28.5 66q0 41 -28.5 66.5t-71.5 25.5q-45 0 -73.5 -25.5t-28.5 -66.5q0 -40 29 -66t73 -26zM1063 94q52 0 85.5 29.5t33.5 75.5q0 44 -33.5 73t-85.5 29t-85.5 -29
t-33.5 -73q0 -46 33.5 -75.5t85.5 -29.5z" />
    <glyph glyph-name="uni215C" unicode="&#x215c;" horiz-adv-x="1495" 
d="M287 874v99h49q46 0 75 25t29 69q0 40 -27.5 66t-72.5 26q-42 0 -72 -28.5t-35 -71.5h-129q12 92 74 150.5t158 58.5q104 0 164.5 -54t60.5 -143q0 -50 -26 -91t-66 -56q47 -17 74.5 -57.5t27.5 -92.5q0 -91 -62 -149t-169 -58t-172 58t-74 157h133q6 -48 36 -76t79 -28
q50 0 79.5 26.5t29.5 73.5q0 45 -31 70.5t-80 25.5h-53zM1245 1257l-878 -1257h-138l877 1257h139zM1143 -8q-105 0 -175.5 53.5t-70.5 142.5q0 61 34 104.5t87 59.5q-45 21 -71.5 60.5t-26.5 89.5q0 88 63.5 139t159.5 51q93 0 157 -51t64 -139q0 -50 -27 -89.5t-71 -60.5
q54 -15 87 -58.5t33 -105.5q0 -89 -69 -142.5t-174 -53.5zM1143 408q43 0 71.5 26t28.5 66q0 41 -28.5 66.5t-71.5 25.5q-45 0 -75 -25.5t-30 -66.5q0 -40 30 -66t75 -26zM1143 94q51 0 85 29.5t34 75.5q0 44 -34 73t-85 29q-52 0 -85.5 -29t-33.5 -73q0 -46 33.5 -75.5
t85.5 -29.5z" />
    <glyph glyph-name="uni215D" unicode="&#x215d;" horiz-adv-x="1501" 
d="M350 915q-62 0 -98 -49h-111v391h398v-112h-291v-158q49 35 114 35q99 0 160.5 -63t61.5 -162q0 -103 -65 -166.5t-169 -63.5q-107 0 -173 58t-75 157h131q8 -47 38.5 -75.5t80.5 -28.5q47 0 78 33.5t31 83.5q0 52 -31 86t-80 34zM1253 1257l-878 -1257h-137l876 1257
h139zM1151 -8q-107 0 -176.5 53.5t-69.5 142.5q0 61 34 104.5t87 59.5q-45 21 -71.5 60.5t-26.5 89.5q0 88 63.5 139t159.5 51q93 0 157 -51t64 -139q0 -50 -27 -89.5t-71 -60.5q53 -16 87 -59.5t34 -104.5q0 -89 -69.5 -142.5t-174.5 -53.5zM1151 408q43 0 71.5 26t28.5 66
q0 41 -28.5 66.5t-71.5 25.5q-45 0 -74.5 -25.5t-29.5 -66.5q0 -40 30 -66t74 -26zM1151 94q51 0 85 29.5t34 75.5q0 44 -34 73t-85 29q-52 0 -85.5 -29t-33.5 -73q0 -46 33.5 -75.5t85.5 -29.5z" />
    <glyph glyph-name="uni215E" unicode="&#x215e;" horiz-adv-x="1378" 
d="M553 1163l-223 -588h-133l219 568h-322v114h459v-94zM1128 1257l-876 -1257h-137l876 1257h137zM1028 -8q-107 0 -176.5 53.5t-69.5 142.5q0 61 34 104.5t87 59.5q-45 21 -71.5 60.5t-26.5 89.5q0 88 63.5 139t159.5 51q93 0 157 -51t64 -139q0 -50 -27 -89.5t-71 -60.5
q53 -16 87 -59.5t34 -104.5q0 -89 -69.5 -142.5t-174.5 -53.5zM1028 408q43 0 71.5 26t28.5 66q0 41 -28.5 66.5t-71.5 25.5q-45 0 -74.5 -25.5t-29.5 -66.5q0 -40 30 -66t74 -26zM1028 94q51 0 85 29.5t34 75.5q0 44 -34 73t-85 29q-52 0 -85.5 -29t-33.5 -73
q0 -46 33.5 -75.5t85.5 -29.5z" />
    <glyph glyph-name="minus" unicode="&#x2212;" horiz-adv-x="1105" 
d="M150 545v127h806v-127h-806z" />
    <glyph glyph-name="approxequal" unicode="&#x2248;" horiz-adv-x="1128" 
d="M162 631v127q106 82 217 82q69 0 184 -42t182 -42q106 0 224 88v-125q-116 -86 -224 -86q-69 0 -184 43t-182 43q-107 0 -217 -88zM162 377v125q105 84 217 84q69 0 184 -43t182 -43q109 0 224 88v-125q-113 -84 -224 -84q-69 0 -184 42t-182 42q-106 0 -217 -86z" />
    <glyph glyph-name="notequal" unicode="&#x2260;" horiz-adv-x="1128" 
d="M162 692v117h487l139 190h121l-139 -190h199v-117h-285l-123 -168h408v-116h-492l-137 -189h-121l137 189h-194v116h278l123 168h-401z" />
    <glyph glyph-name="lessequal" unicode="&#x2264;" horiz-adv-x="874" 
d="M129 631v151l608 248v-139l-471 -184l471 -187v-137zM129 186v127h608v-127h-608z" />
    <glyph glyph-name="greaterequal" unicode="&#x2265;" horiz-adv-x="874" 
d="M745 782v-151l-608 -248v137l469 187l-469 184v139zM745 313v-127h-608v127h608z" />
    <glyph glyph-name="fi" unicode="&#xfb01;" horiz-adv-x="1019" 
d="M592 1329v-139q-39 24 -96 24q-69 0 -109.5 -42.5t-40.5 -122.5v-140h205v-131h-205v-778h-151v778h-154v131h154v152q0 134 77.5 211.5t200.5 77.5q67 0 119 -21zM905 1184q0 -40 -29.5 -69.5t-70.5 -29.5q-40 0 -69 29.5t-29 69.5q0 41 29 69.5t69 28.5
q41 0 70.5 -28.5t29.5 -69.5zM883 909v-909h-154v909h154z" />
    <glyph glyph-name="fl" unicode="&#xfb02;" horiz-adv-x="1019" 
d="M592 1329v-139q-39 24 -96 24q-69 0 -109.5 -42.5t-40.5 -122.5v-140h205v-131h-205v-778h-151v778h-154v131h154v152q0 134 77.5 211.5t200.5 77.5q67 0 119 -21zM883 1331v-1331h-154v1331h154z" />
    <glyph glyph-name="i.dot" horiz-adv-x="428" 
d="M311 1184q0 -40 -29 -69.5t-69 -29.5t-69 29.5t-29 69.5q0 41 29 69.5t69 28.5t69 -28.5t29 -69.5zM291 909v-909h-154v909h154z" />
    <glyph glyph-name="uni0020_uni0326" 
d="M418 -412l80 131q-36 5 -59 30t-23 61q0 42 29.5 70t72.5 28q42 0 71 -29t29 -74q0 -48 -45 -116l-59 -101h-96z" />
    <glyph glyph-name="uni0020_uni0326.alt" 
d="M608 1393l-82 -133q37 -5 60.5 -30.5t23.5 -64.5q0 -43 -29.5 -70.5t-74.5 -27.5q-44 0 -73.5 29t-29.5 75q0 53 46 121l59 101h100z" />
    <glyph glyph-name="space_dotbelowcomb" 
d="M610 -221q0 -41 -29 -69.5t-69 -28.5t-69 28.5t-29 69.5t29 69.5t69 28.5t69 -28.5t29 -69.5z" />
    <glyph glyph-name="caron.Slovak" 
d="M528 995h-122l67 336h123z" />
    <glyph glyph-name="cedilla.alt" 
d="M512 -375h-145l135 271h151z" />
    <glyph glyph-name="grave.cap" 
d="M682 1368h-154l-188 240h178z" />
    <glyph glyph-name="acute.cap" 
d="M496 1368h-156l164 240h178z" />
    <glyph glyph-name="circumflex.cap" 
d="M584 1620l188 -250h-139l-121 146l-121 -146h-139l188 250h144z" />
    <glyph glyph-name="caron.cap" 
d="M440 1364l-188 248h139l121 -146l121 146h139l-188 -248h-144z" />
    <glyph glyph-name="tilde.cap" 
d="M688 1606h98q0 -112 -40 -178t-115 -66q-34 0 -67 18t-55.5 39.5t-50.5 39.5t-52 18q-70 0 -70 -109h-100q0 112 40 178t115 66q34 0 67.5 -18t56 -39.5t50.5 -39.5t53 -18q67 0 70 109z" />
    <glyph glyph-name="macron.cap" 
d="M293 1374v125h436v-125h-436z" />
    <glyph glyph-name="breve.cap" 
d="M510 1364q-107 0 -171.5 64.5t-64.5 181.5h117q0 -64 32.5 -97.5t86.5 -33.5q56 0 88.5 33.5t32.5 97.5h117q0 -118 -64.5 -182t-173.5 -64z" />
    <glyph glyph-name="dotaccent.cap" 
d="M610 1477q0 -40 -29 -69.5t-69 -29.5t-69 29.5t-29 69.5q0 41 29 70.5t69 29.5t69 -29.5t29 -70.5z" />
    <glyph glyph-name="dieresis.cap" 
d="M272 1479q0 39 28.5 66.5t68.5 27.5q39 0 66.5 -27.5t27.5 -66.5t-27.5 -67t-66.5 -28q-40 0 -68.5 27.5t-28.5 67.5zM561 1479q0 40 27 67t65 27q40 0 68.5 -27.5t28.5 -66.5q0 -40 -28.5 -67.5t-68.5 -27.5q-38 0 -65 27.5t-27 67.5z" />
    <glyph glyph-name="ring.cap" 
d="M690 1503q0 -74 -51.5 -125t-126.5 -51t-126.5 51t-51.5 125q0 75 51.5 126.5t126.5 51.5t126.5 -51.5t51.5 -126.5zM604 1503q0 40 -27 67t-65 27t-65 -27t-27 -67q0 -38 27 -65t65 -27t65 27t27 65z" />
    <glyph glyph-name="hungarumlaut.cap" 
d="M383 1368h-133l137 240h135zM635 1368h-133l135 240h137z" />
    <glyph glyph-name="exclamdown.cap" horiz-adv-x="415" 
d="M98 1157q0 47 32 79t77 32q46 0 78 -32t32 -79t-32 -80t-78 -33q-45 0 -77 33t-32 80zM117 0l35 862h110l37 -862h-182z" />
    <glyph glyph-name="questiondown.cap" horiz-adv-x="884" 
d="M537 1155q0 -47 -32 -80t-77 -33q-46 0 -78.5 33t-32.5 80t32.5 79t78.5 32q45 0 77 -32t32 -79zM49 332q0 25 3 48t13 47.5t16 41.5t24.5 43t25 37t31.5 39t30 34t34 36.5t32 33.5q49 52 67.5 90t20.5 78h152q-4 -74 -29.5 -125t-89.5 -121q-14 -16 -44.5 -48
t-48.5 -52.5t-39.5 -51t-31.5 -62t-10 -66.5q0 -97 61.5 -154t165.5 -57q109 0 173 69t73 183h166q-19 -177 -130.5 -286t-281.5 -109q-179 0 -281 95t-102 257z" />
    <glyph glyph-name="guilsinglleft.cap" horiz-adv-x="440" 
d="M389 324h-149l-189 301l189 303h149l-188 -303z" />
    <glyph glyph-name="guilsinglright.cap" horiz-adv-x="440" 
d="M201 324h-150l189 301l-189 303h150l188 -303z" />
    <glyph glyph-name="guillemotleft.cap" horiz-adv-x="731" 
d="M383 324h-143l-189 301l189 303h143l-188 -303zM680 324h-143l-189 301l189 303h143l-188 -303z" />
    <glyph glyph-name="guillemotright.cap" horiz-adv-x="731" 
d="M195 324h-144l189 301l-189 303h144l188 -303zM492 324h-144l189 301l-189 303h144l188 -303z" />
    <glyph glyph-name="slash.cap" horiz-adv-x="681" 
d="M10 -131l508 1503h154l-508 -1503h-154z" />
    <glyph glyph-name="backslash.cap" horiz-adv-x="681" 
d="M164 1372l508 -1503h-154l-508 1503h154z" />
    <glyph glyph-name="bar.cap" horiz-adv-x="448" 
d="M150 -131v1503h149v-1503h-149z" />
    <glyph glyph-name="periodcentered.cap" horiz-adv-x="360" 
d="M70 618q0 47 32 80t78 33q45 0 77 -33t32 -80t-32 -78.5t-77 -31.5q-46 0 -78 31.5t-32 78.5z" />
    <glyph glyph-name="bullet.cap" horiz-adv-x="702" 
d="M631 616q0 -121 -81 -199.5t-200 -78.5q-118 0 -198 78t-80 200t80 200.5t198 78.5q119 0 200 -79t81 -200z" />
    <glyph glyph-name="hyphen.cap" horiz-adv-x="657" 
d="M82 545v143h493v-143h-493z" />
    <glyph glyph-name="endash.cap" horiz-adv-x="972" 
d="M82 555v125h809v-125h-809z" />
    <glyph glyph-name="emdash.cap" horiz-adv-x="1732" 
d="M82 555v125h1569v-125h-1569z" />
    <glyph glyph-name="parenleft.cap" horiz-adv-x="657" 
d="M61 616q0 281 148.5 483.5t400.5 268.5v-164q-170 -41 -282.5 -200t-112.5 -388q0 -227 112 -385.5t283 -201.5v-164q-253 66 -401 268t-148 483z" />
    <glyph glyph-name="parenright.cap" horiz-adv-x="657" 
d="M596 616q0 -281 -148 -483t-401 -268v164q171 43 283 201.5t112 385.5q0 229 -112.5 388t-282.5 200v164q252 -66 400.5 -268.5t148.5 -483.5z" />
    <glyph glyph-name="bracketleft.cap" horiz-adv-x="641" 
d="M297 1229v-1223h297v-141h-444v1503h444v-139h-297z" />
    <glyph glyph-name="bracketright.cap" horiz-adv-x="641" 
d="M344 6v1223h-297v139h445v-1503h-445v141h297z" />
    <glyph glyph-name="braceleft.cap" horiz-adv-x="694" 
d="M358 461v-381q0 -74 74 -74h215v-141h-213q-100 0 -163.5 64.5t-63.5 166.5v375q0 74 -72 74h-94v143h94q72 0 72 76v375q0 102 63.5 165.5t163.5 63.5h213v-139h-215q-74 0 -74 -76v-379q0 -105 -88 -158q88 -53 88 -155z" />
    <glyph glyph-name="braceright.cap" horiz-adv-x="694" 
d="M336 80v381q0 102 88 155q-88 53 -88 158v379q0 76 -74 76h-215v139h213q100 0 163.5 -63.5t63.5 -165.5v-375q0 -76 72 -76h94v-143h-94q-72 0 -72 -74v-375q0 -102 -63.5 -166.5t-163.5 -64.5h-213v141h215q74 0 74 74z" />
    <glyph glyph-name="at.cap" horiz-adv-x="1585" 
d="M1147 969l-88 -498q-10 -60 10.5 -85.5t71.5 -25.5q112 0 184 102.5t72 280.5q0 146 -71.5 258t-197.5 172t-286 60q-142 0 -263.5 -50t-206 -137.5t-132 -209.5t-47.5 -263q0 -126 38.5 -227.5t102 -167t149 -109.5t175.5 -62.5t186 -18.5q236 0 444 94v-117
q-83 -40 -200 -66t-244 -26q-122 0 -233.5 25t-211.5 80t-173.5 135.5t-116.5 198.5t-43 261q0 159 56.5 301.5t156.5 247t246 165.5t317 61q148 0 275.5 -46.5t215.5 -127t137.5 -192t49.5 -239.5q0 -121 -33.5 -217.5t-90.5 -155t-127.5 -89.5t-148.5 -31
q-73 0 -128.5 31.5t-76.5 87.5q-31 -51 -89 -84t-119 -33q-126 0 -198.5 85.5t-72.5 217.5q0 112 46.5 210.5t133 160t193.5 61.5q64 0 113 -27.5t73 -66.5l15 76h137zM922 498l47 254q-18 48 -58 78t-94 30q-105 0 -172 -91t-67 -208q0 -83 42 -132.5t115 -49.5
q109 0 187 119z" />
    <glyph glyph-name="Euro.lt" horiz-adv-x="1064" 
d="M49 694v123h131q40 213 162.5 336t290.5 123q149 0 251 -90.5t136 -253.5h-152q-25 96 -86 149.5t-153 53.5q-108 0 -185 -85.5t-108 -232.5h393l-24 -123h-383q-3 -35 -3 -65q0 -39 3 -76h362l-25 -123h-319q31 -143 106.5 -225t182.5 -82q92 0 153 53.5t86 149.5h152
q-34 -163 -136 -253.5t-251 -90.5q-167 0 -288.5 120t-162.5 328h-133v123h117q-2 25 -2 76q0 42 2 65h-117z" />
    <glyph glyph-name="dollar.lt" horiz-adv-x="1064" 
d="M481 -182v202q-147 15 -247.5 98.5t-129.5 221.5h158q31 -94 107 -141t184 -47q118 0 189 53.5t71 148.5q0 71 -43 116t-141 71l-211 55q-283 72 -283 311q0 140 96 230.5t250 101.5v184h140v-190q132 -23 215 -102t114 -203h-151q-29 83 -99 131.5t-180 48.5
q-106 0 -172.5 -52t-66.5 -141q0 -73 46 -114.5t142 -67.5l199 -51q293 -76 293 -322q0 -144 -93 -233t-247 -107v-202h-140z" />
    <glyph glyph-name="cent.lt" horiz-adv-x="1064" 
d="M141 475q0 192 96.5 319t256.5 150v178h141v-180q119 -21 191.5 -99t91.5 -198h-154q-13 78 -69.5 123t-139.5 45q-117 0 -187.5 -93.5t-70.5 -244.5t70.5 -244.5t187.5 -93.5q83 0 139.5 45t69.5 123h154q-18 -119 -90.5 -197.5t-192.5 -99.5v-186h-141v184
q-159 22 -256 149.5t-97 319.5z" />
    <glyph glyph-name="sterling.lt" horiz-adv-x="1064" 
d="M410 870v-186h317v-127h-317v-238q0 -126 -45 -186h606v-133h-881v133h125q45 73 45 186v238h-170v127h170v186q0 178 102 292t267 114q146 0 235.5 -80.5t110.5 -216.5h-152q-12 77 -62 119.5t-132 42.5q-102 0 -160.5 -73t-58.5 -198z" />
    <glyph glyph-name="yen.lt" horiz-adv-x="1064" 
d="M131 541v121h262l-344 595h172l314 -563l313 563h166l-344 -595h262v-121h-322v-144h322v-123h-322v-274h-157v274h-322v123h322v144h-322z" />
    <glyph glyph-name="florin.lt" horiz-adv-x="1064" 
d="M313 575v130h168l51 282q25 136 107.5 212.5t210.5 76.5q70 0 125 -25v-139q-56 29 -123 29q-66 0 -110.5 -43.5t-57.5 -122.5l-49 -270h199v-130h-222l-114 -655q-25 -138 -92 -210t-195 -72q-71 0 -123 24v139q54 -28 121 -28q63 0 92.5 39t44.5 120l113 643h-146z" />
    <glyph glyph-name="zero.lt" horiz-adv-x="1064" 
d="M532 -18q-139 0 -245 81.5t-163.5 228.5t-57.5 337t57.5 337t163.5 228.5t245 81.5q210 0 338.5 -179.5t128.5 -467.5t-128.5 -467.5t-338.5 -179.5zM532 1130q-100 0 -171 -64.5t-105.5 -176.5t-34.5 -260t34.5 -260t105.5 -177t171 -65q148 0 229 138t81 364t-81 363.5
t-229 137.5z" />
    <glyph glyph-name="one.lt" horiz-adv-x="1064" 
d="M158 0v143h358v922l-352 -180v164l414 211h96v-1117h315v-143h-831z" />
    <glyph glyph-name="two.lt" horiz-adv-x="1064" 
d="M752 920q0 97 -63 155t-167 58q-111 0 -176 -69t-76 -183h-164q19 178 130.5 286.5t285.5 108.5q180 0 283.5 -96t103.5 -258q0 -71 -39 -148t-76.5 -122t-121.5 -135q-14 -15 -21 -23l-325 -351h608v-143h-830v106l412 447q11 12 42 46t41.5 46t35.5 40.5t34 42t27 37.5
t24.5 40t16 37t12.5 39.5t3 38.5z" />
    <glyph glyph-name="three.lt" horiz-adv-x="1064" 
d="M442 575v138h90q106 0 174 56t68 155q0 93 -67.5 153t-176.5 60q-105 0 -172 -61.5t-82 -162.5h-157q22 162 135 262.5t281 100.5q182 0 287.5 -95.5t105.5 -248.5q0 -103 -56.5 -181.5t-144.5 -105.5q103 -29 164 -109.5t61 -187.5q0 -158 -111.5 -262t-301.5 -104
q-192 0 -309 100.5t-136 275.5h160q18 -110 90.5 -173.5t192.5 -63.5q116 0 188 63t72 166t-74.5 164t-187.5 61h-93z" />
    <glyph glyph-name="four.lt" horiz-adv-x="1064" 
d="M705 1257l-469 -837h401v303h149v-303h222v-135h-222v-285h-149v285h-580v114l484 858h164z" />
    <glyph glyph-name="five.lt" horiz-adv-x="1064" 
d="M539 676q-74 0 -138 -31.5t-104 -77.5h-125v690h711v-143h-578v-381q38 33 104 57.5t140 24.5q178 0 292.5 -118t114.5 -300q0 -181 -117 -298t-302 -117q-187 0 -305.5 100.5t-141.5 275.5h160q21 -112 95.5 -174.5t193.5 -62.5q117 0 191.5 78t74.5 198t-74.5 199.5
t-191.5 79.5z" />
    <glyph glyph-name="six.lt" horiz-adv-x="1064" 
d="M967 965h-162q-59 178 -236 178q-138 0 -229.5 -138.5t-91.5 -342.5l2 -56q32 96 121 155.5t202 59.5q181 0 296.5 -122t115.5 -296q0 -178 -118.5 -299.5t-307.5 -121.5q-127 0 -224 60.5t-155 178.5q-76 156 -76 385q0 304 129 487t336 183q319 0 398 -311zM283 401
q0 -123 77.5 -202.5t198.5 -79.5t199 79t78 203q0 126 -78.5 206.5t-198.5 80.5q-122 0 -199 -80t-77 -207z" />
    <glyph glyph-name="seven.lt" horiz-adv-x="1064" 
d="M958 1133l-460 -1133h-162l459 1114h-699v143h862v-124z" />
    <glyph glyph-name="eight.lt" horiz-adv-x="1064" 
d="M535 -18q-187 0 -311 100t-124 260q0 119 70 205t178 115q-91 32 -147 107t-56 175q0 149 112.5 240.5t277.5 91.5q168 0 279.5 -91.5t111.5 -240.5q0 -100 -56 -175t-147 -107q108 -29 178 -115t70 -205q0 -161 -123.5 -260.5t-312.5 -99.5zM535 729q101 0 169 58
t68 149q0 92 -68 150.5t-169 58.5q-100 0 -168 -58.5t-68 -150.5q0 -91 68 -149t168 -58zM535 113q122 0 202 67.5t80 173.5q0 105 -80 172.5t-202 67.5q-121 0 -201 -67.5t-80 -172.5q0 -106 80 -173.5t201 -67.5z" />
    <glyph glyph-name="nine.lt" horiz-adv-x="1064" 
d="M98 293h162q59 -178 236 -178q138 0 229.5 138.5t91.5 342.5l-2 55q-32 -96 -121 -155.5t-202 -59.5q-181 0 -296.5 122t-115.5 296q0 178 118.5 300t307.5 122q127 0 224 -61t155 -179q76 -156 76 -385q0 -304 -129 -486.5t-336 -182.5q-319 0 -398 311zM782 856
q0 123 -77.5 203t-198.5 80q-120 0 -198.5 -79.5t-78.5 -203.5q0 -126 78.5 -206.5t198.5 -80.5q122 0 199 80t77 207z" />
    <glyph glyph-name="period.tab" horiz-adv-x="532" 
d="M158 100q0 47 31 80t77 33t77.5 -33t31.5 -80t-31.5 -78.5t-77.5 -31.5t-77 31.5t-31 78.5z" />
    <glyph glyph-name="comma.tab" horiz-adv-x="532" 
d="M117 -219l129 217q-39 6 -63.5 33t-24.5 69q0 47 31 78t77 31q47 0 78 -32t31 -87q0 -64 -45 -129l-109 -180h-104z" />
    <glyph glyph-name="colon.tab" horiz-adv-x="532" 
d="M156 743q0 47 32 80t78 33q45 0 77 -33t32 -80t-32 -78.5t-77 -31.5q-46 0 -78 31.5t-32 78.5zM156 100q0 47 32 80t78 33q45 0 77 -33t32 -80t-32 -78.5t-77 -31.5q-46 0 -78 31.5t-32 78.5z" />
    <glyph glyph-name="semicolon.tab" horiz-adv-x="532" 
d="M156 743q0 47 32 80t78 33q45 0 77 -33t32 -80t-32 -78.5t-77 -31.5q-46 0 -78 31.5t-32 78.5zM117 -219l129 217q-40 6 -65 32.5t-25 69.5q0 47 32 78t78 31q47 0 78 -32t31 -87q0 -59 -45 -129l-109 -180h-104z" />
    <glyph glyph-name="space.tab" horiz-adv-x="532" 
 />
    <glyph glyph-name="percent.lt" horiz-adv-x="1064" 
d="M39 1026q0 104 73 177t177 73t177 -73t73 -177q0 -103 -73 -175.5t-177 -72.5t-177 72.5t-73 175.5zM78 0l784 1257h127l-784 -1257h-127zM147 1026q0 -59 41 -100t101 -41q59 0 100 41.5t41 99.5q0 60 -41 101.5t-100 41.5q-60 0 -101 -41.5t-41 -101.5zM1026 231
q0 -104 -72.5 -176.5t-175.5 -72.5q-105 0 -178.5 72.5t-73.5 176.5q0 103 74 175.5t178 72.5q103 0 175.5 -72.5t72.5 -175.5zM918 231q0 59 -41 100.5t-99 41.5q-60 0 -101.5 -41.5t-41.5 -100.5q0 -60 41.5 -101.5t101.5 -41.5q59 0 99.5 41.5t40.5 101.5z" />
    <glyph glyph-name="perthousand.lt" horiz-adv-x="1638" 
d="M47 1026q0 104 73 177t177 73t177 -73t73 -177q0 -103 -73 -175.5t-177 -72.5t-177 72.5t-73 175.5zM86 0l784 1257h127l-784 -1257h-127zM156 1026q0 -59 40.5 -100t100.5 -41q59 0 100 41.5t41 99.5q0 60 -41 101.5t-100 41.5q-60 0 -100.5 -41.5t-40.5 -101.5z
M1034 231q0 -104 -72.5 -176.5t-175.5 -72.5q-104 0 -177.5 72.5t-73.5 176.5q0 103 73.5 175.5t177.5 72.5q103 0 175.5 -72.5t72.5 -175.5zM1589 231q0 -104 -72.5 -176.5t-175.5 -72.5q-104 0 -176.5 72.5t-72.5 176.5q0 103 72.5 175.5t176.5 72.5q103 0 175.5 -72.5
t72.5 -175.5zM926 231q0 59 -41 100.5t-99 41.5q-60 0 -101.5 -41.5t-41.5 -100.5q0 -60 41.5 -101.5t101.5 -41.5q59 0 99.5 41.5t40.5 101.5zM1483 231q0 59 -41.5 100.5t-100.5 41.5q-60 0 -100.5 -41.5t-40.5 -100.5q0 -60 40.5 -101.5t100.5 -41.5q59 0 100.5 41.5
t41.5 101.5z" />
    <glyph glyph-name="plus.lt" horiz-adv-x="1064" 
d="M469 1012h127v-340h340v-127h-340v-340h-127v340h-342v127h342v340z" />
    <glyph glyph-name="minus.lt" horiz-adv-x="1064" 
d="M127 545v127h809v-127h-809z" />
    <glyph glyph-name="multiply.lt" horiz-adv-x="1064" 
d="M446 604l-249 248l88 86l245 -250l250 250l86 -86l-248 -248l248 -250l-86 -88l-250 250l-245 -250l-88 88z" />
    <glyph glyph-name="divide.lt" horiz-adv-x="1064" 
d="M430 938q0 43 29.5 73.5t72.5 30.5q42 0 72.5 -31t30.5 -73t-30.5 -73t-72.5 -31q-43 0 -72.5 30.5t-29.5 73.5zM127 545v127h809v-127h-809zM430 279q0 43 29.5 73.5t72.5 30.5q42 0 72.5 -30.5t30.5 -73.5t-31 -74t-72 -31q-42 0 -72 31t-30 74z" />
    <glyph glyph-name="equal.lt" horiz-adv-x="1064" 
d="M127 690v123h809v-123h-809zM127 408v118h809v-118h-809z" />
    <glyph glyph-name="less.lt" horiz-adv-x="1064" 
d="M229 524v160l607 309v-145l-488 -244l488 -244v-145z" />
    <glyph glyph-name="greater.lt" horiz-adv-x="1064" 
d="M836 684v-160l-609 -309v145l488 244l-488 244v145z" />
    <glyph glyph-name="plusminus.lt" horiz-adv-x="1064" 
d="M469 1061h125v-264h336v-127h-336v-264h-125v264h-336v127h336v264zM133 180v127h797v-127h-797z" />
    <glyph glyph-name="lessequal.lt" horiz-adv-x="1064" 
d="M227 631v151l609 248v-139l-471 -184l471 -187v-137zM227 186v127h609v-127h-609z" />
    <glyph glyph-name="greaterequal.lt" horiz-adv-x="1064" 
d="M836 782v-151l-609 -248v137l469 187l-469 184v139zM836 313v-127h-609v127h609z" />
    <glyph glyph-name="notequal.lt" horiz-adv-x="1064" 
d="M127 692v117h487l140 190h123l-140 -190h199v-117h-285l-123 -168h408v-116h-492l-137 -189h-121l138 189h-197v116h281l122 168h-403z" />
    <glyph glyph-name="approxequal.lt" horiz-adv-x="1064" 
d="M127 631v127q108 82 219 82q69 0 184.5 -42t182.5 -42q105 0 223 88v-125q-116 -86 -223 -86q-69 0 -184.5 43t-182.5 43q-106 0 -219 -88zM127 377v125q107 84 219 84q69 0 184.5 -43t182.5 -43q108 0 223 88v-125q-113 -84 -223 -84q-69 0 -184.5 42t-182.5 42
q-105 0 -219 -86z" />
    </font>
</defs>
</svg>
