<?xml version="1.0" standalone="no"?>
<!DOCTYPE svg PUBLIC "-//W3C//DTD SVG 1.1//EN" "http://www.w3.org/Graphics/SVG/1.1/DTD/svg11.dtd" >
<svg xmlns="http://www.w3.org/2000/svg" xmlns:xlink="http://www.w3.org/1999/xlink" version="1.1">
<metadata>
Created by FontForge 20170731 at Sat Sep 30 12:32:24 2023
 By Aleksey,,,
(c) 2011 Klim Type Foundry. All rights reserved.
</metadata>
<defs>
<font id="Calibre-Bold" horiz-adv-x="1024" >
  <font-face 
    font-family="Calibre Bold"
    font-weight="700"
    font-stretch="normal"
    units-per-em="2048"
    panose-1="2 11 8 3 3 2 2 6 2 3"
    ascent="1638"
    descent="-410"
    x-height="922"
    cap-height="1257"
    bbox="-246 -483 2001 1890"
    underline-thickness="61"
    underline-position="-204"
    unicode-range="U+0020-FB02"
  />
<missing-glyph horiz-adv-x="1245" 
 />
    <glyph glyph-name="f_f" unicode="ff" horiz-adv-x="1308" 
d="M1288 1325v-262q-34 18 -76 18q-54 0 -84 -28t-30 -82v-49h178v-250h-178v-672h-318v672h-299v-672h-317v672h-137v250h137v55q0 167 95 263.5t263 96.5q83 0 150 -24v-262q-34 18 -76 18q-53 0 -84 -25.5t-31 -76.5v-45h299v67q0 167 95.5 264t263.5 97q79 0 149 -25z
" />
    <glyph glyph-name=".notdef" horiz-adv-x="1245" 
 />
    <glyph glyph-name=".null" horiz-adv-x="0" 
 />
    <glyph glyph-name="nonmarkingreturn" horiz-adv-x="682" 
 />
    <glyph glyph-name="space" unicode=" " horiz-adv-x="409" 
 />
    <glyph glyph-name="exclam" unicode="!" horiz-adv-x="489" 
d="M121 422l-72 835h391l-71 -835h-248zM53 168q0 76 56.5 128t136.5 52q79 0 134.5 -52t55.5 -128q0 -77 -55.5 -129.5t-134.5 -52.5q-80 0 -136.5 52.5t-56.5 129.5z" />
    <glyph glyph-name="quotedbl" unicode="&#x22;" horiz-adv-x="729" 
d="M74 727v530h248v-530h-248zM410 727v530h247v-530h-247z" />
    <glyph glyph-name="numbersign" unicode="#" horiz-adv-x="1300" 
d="M1167 522l-45 -203h-209l-75 -319h-232l76 319h-213l-76 -319h-229l76 319h-199l47 203h199l51 213h-205l45 203h209l76 319h231l-78 -319h213l78 319h230l-76 -319h199l-48 -203h-200l-51 -213h206zM569 735l-51 -213h213l51 213h-213z" />
    <glyph glyph-name="dollar" unicode="$" horiz-adv-x="1058" 
d="M408 -176v194q-151 30 -247 122t-120 237h319q40 -117 187 -117q65 0 105 29.5t40 79.5q0 45 -28.5 68.5t-94.5 39.5l-202 47q-141 34 -222.5 114.5t-81.5 227.5q0 146 94 246t251 127v186h262v-192q136 -32 217.5 -121t105.5 -221h-303q-47 106 -174 106q-63 0 -101 -28
t-38 -74q0 -40 24.5 -62.5t73.5 -35.5l223 -56q310 -76 310 -352q0 -148 -92 -245.5t-246 -127.5v-192h-262z" />
    <glyph glyph-name="percent" unicode="%" horiz-adv-x="1392" 
d="M649 975q0 -124 -88.5 -210.5t-214.5 -86.5q-124 0 -210.5 86t-86.5 211q0 126 86.5 214.5t210.5 88.5q126 0 214.5 -88.5t88.5 -214.5zM201 0l807 1257h184l-807 -1257h-184zM240 975q0 -44 31.5 -75.5t74.5 -31.5q46 0 79.5 31.5t33.5 75.5q0 46 -33.5 79t-79.5 33
q-43 0 -74.5 -33t-31.5 -79zM1346 283q0 -126 -87.5 -214.5t-211.5 -88.5q-126 0 -215 88.5t-89 214.5q0 124 89 210.5t215 86.5q125 0 212 -86.5t87 -210.5zM1153 283q0 44 -31 75t-75 31q-46 0 -79.5 -31t-33.5 -75q0 -46 33.5 -79.5t79.5 -33.5q44 0 75 33.5t31 79.5z
" />
    <glyph glyph-name="ampersand" unicode="&#x26;" horiz-adv-x="1247" 
d="M1018 924h-309q-3 43 -30 72.5t-75 29.5q-49 0 -79.5 -30t-30.5 -76q0 -28 15 -58.5t30 -49t47 -54.5l239 -279q30 79 33 187h283q-3 -226 -129 -404l227 -262h-360l-66 72q-147 -92 -311 -92q-203 0 -325 107.5t-122 291.5q0 101 53.5 187.5t143.5 138.5
q-68 101 -68 215q0 163 117 260.5t303 97.5q183 0 293 -99.5t121 -254.5zM506 227q66 0 137 33l-227 252q-66 -46 -66 -133q0 -67 41.5 -109.5t114.5 -42.5z" />
    <glyph glyph-name="quotesingle" unicode="'" horiz-adv-x="409" 
d="M74 727v530h262v-530h-262z" />
    <glyph glyph-name="parenleft" unicode="(" horiz-adv-x="684" 
d="M61 580q0 289 156.5 490t425.5 261v-301q-134 -45 -211.5 -157.5t-77.5 -292.5t77.5 -293t211.5 -158v-301q-269 60 -425.5 261.5t-156.5 490.5z" />
    <glyph glyph-name="parenright" unicode=")" horiz-adv-x="684" 
d="M623 580q0 -289 -156.5 -490.5t-425.5 -261.5v301q134 45 211.5 158t77.5 293t-77.5 292.5t-211.5 157.5v301q269 -60 425.5 -261t156.5 -490z" />
    <glyph glyph-name="asterisk" unicode="*" horiz-adv-x="704" 
d="M201 1024l-152 88l76 131l151 -88v176h154v-176l150 88l77 -131l-153 -88l153 -88l-77 -131l-150 88v-176h-154v176l-151 -88l-76 131z" />
    <glyph glyph-name="plus" unicode="+" horiz-adv-x="1138" 
d="M451 1077h237v-346h346v-237h-346v-344h-237v344h-347v237h347v346z" />
    <glyph glyph-name="comma" unicode="," horiz-adv-x="456" 
d="M25 -215l153 235q-59 11 -99 56t-40 112q0 78 54 128.5t136 50.5q79 0 134 -53t55 -146t-78 -213l-113 -170h-202z" />
    <glyph glyph-name="hyphen" unicode="-" horiz-adv-x="638" 
d="M74 401v271h493v-271h-493z" />
    <glyph glyph-name="period" unicode="." horiz-adv-x="456" 
d="M39 178q0 81 54.5 136t133.5 55q80 0 135.5 -55t55.5 -136t-55.5 -136.5t-135.5 -55.5q-78 0 -133 55.5t-55 136.5z" />
    <glyph glyph-name="slash" unicode="/" horiz-adv-x="806" 
d="M10 -172l508 1503h279l-508 -1503h-279z" />
    <glyph glyph-name="zero" unicode="0" horiz-adv-x="1144" 
d="M571 -20q-231 0 -375.5 180.5t-144.5 468.5t144.5 468.5t375.5 180.5q232 0 377.5 -181t145.5 -468t-145.5 -468t-377.5 -181zM571 989q-70 0 -116.5 -50.5t-66 -129t-19.5 -180.5t19.5 -180.5t66 -129.5t116.5 -51t116.5 51t66.5 129.5t20 180.5t-20 180.5t-66.5 129
t-116.5 50.5z" />
    <glyph glyph-name="one" unicode="1" horiz-adv-x="751" 
d="M639 1257v-1257h-320v901l-292 -141v311l391 186h221z" />
    <glyph glyph-name="two" unicode="2" horiz-adv-x="1005" 
d="M612 866q0 52 -31.5 84.5t-86.5 32.5q-56 0 -88 -35.5t-35 -89.5h-340q19 181 143.5 300.5t319.5 119.5q206 0 328 -107.5t122 -283.5q0 -58 -18 -111t-57.5 -106t-73 -88.5t-93.5 -94.5l-206 -204h452v-283h-911v211l432 430q76 78 109.5 126t33.5 99z" />
    <glyph glyph-name="three" unicode="3" horiz-adv-x="997" 
d="M395 518v236h68q71 0 115.5 32t44.5 95q0 54 -34 88.5t-93 34.5q-63 0 -101.5 -40t-44.5 -100h-315q21 178 146.5 296t324.5 118q196 0 312 -106.5t116 -278.5q0 -81 -39 -153t-98 -105q74 -35 113.5 -105.5t39.5 -158.5q0 -171 -121.5 -281t-324.5 -110
q-215 0 -345.5 115.5t-142.5 307.5h328q6 -67 46 -107t108 -40q62 0 100.5 35.5t38.5 95.5q0 63 -45 97t-119 34h-78z" />
    <glyph glyph-name="four" unicode="4" horiz-adv-x="1073" 
d="M731 1257l-346 -757h199v213h282v-213h172v-267h-172v-233h-282v233h-547v242l381 782h313z" />
    <glyph glyph-name="five" unicode="5" horiz-adv-x="1017" 
d="M516 571q-80 0 -145 -65h-265v751h775v-280h-510v-189q78 46 190 46q189 0 300.5 -116t111.5 -304q0 -195 -124.5 -314.5t-328.5 -119.5q-211 0 -338 114.5t-141 308.5h319q8 -68 50 -107.5t112 -39.5q65 0 105.5 44t40.5 114q0 69 -41 113t-111 44z" />
    <glyph glyph-name="six" unicode="6" horiz-adv-x="1060" 
d="M997 915h-309q-31 95 -133 95q-86 0 -139.5 -80t-55.5 -185v-10q29 41 91 67.5t141 26.5q188 0 302 -117t114 -290q0 -193 -127 -317.5t-340 -124.5q-122 0 -222 54t-163 154q-105 158 -105 412q0 197 58.5 349.5t173.5 240.5t270 88q184 0 298.5 -97t145.5 -266z
M373 414q0 -75 47.5 -122.5t122.5 -47.5q74 0 123 48t49 122q0 76 -49 124t-123 48q-75 0 -122.5 -48t-47.5 -124z" />
    <glyph glyph-name="seven" unicode="7" horiz-adv-x="954" 
d="M907 1036l-381 -1036h-331l366 975h-534v282h880v-221z" />
    <glyph glyph-name="eight" unicode="8" horiz-adv-x="1040" 
d="M520 -20q-132 0 -238.5 43t-170.5 128t-64 197q0 107 56.5 184t146.5 107q-77 37 -120.5 108.5t-43.5 163.5q0 115 61.5 200t158.5 126t214 41q118 0 215 -41t158 -126t61 -200q0 -92 -43 -163.5t-118 -108.5q89 -31 145.5 -108t56.5 -183q0 -168 -136 -268t-339 -100z
M520 774q61 0 101.5 35.5t40.5 91.5q0 59 -40.5 95t-101.5 36q-60 0 -100.5 -36t-40.5 -95q0 -56 40.5 -91.5t100.5 -35.5zM520 233q70 0 115 39t45 101q0 63 -45 101t-115 38q-69 0 -113.5 -38t-44.5 -101q0 -62 45 -101t113 -39z" />
    <glyph glyph-name="nine" unicode="9" horiz-adv-x="1060" 
d="M63 342h310q31 -94 133 -94q86 0 139 79.5t55 184.5v10q-29 -41 -90.5 -67.5t-140.5 -26.5q-187 0 -301.5 117.5t-114.5 290.5q0 193 127 317.5t340 124.5q121 0 221.5 -54.5t163.5 -154.5q105 -158 105 -412q0 -197 -58.5 -349.5t-173.5 -240t-270 -87.5
q-184 0 -299 96.5t-146 265.5zM688 844q0 75 -47.5 122.5t-122.5 47.5q-74 0 -123 -48t-49 -122q0 -76 49 -124t123 -48q75 0 122.5 48t47.5 124z" />
    <glyph glyph-name="colon" unicode=":" horiz-adv-x="456" 
d="M39 721q0 81 54.5 135.5t133.5 54.5q80 0 135.5 -54.5t55.5 -135.5t-55.5 -137t-135.5 -56q-78 0 -133 56t-55 137zM39 178q0 81 54.5 136t133.5 55q80 0 135.5 -55t55.5 -136t-55.5 -136.5t-135.5 -55.5q-78 0 -133 55.5t-55 136.5z" />
    <glyph glyph-name="semicolon" unicode=";" horiz-adv-x="456" 
d="M39 721q0 81 54.5 135.5t133.5 54.5q80 0 135.5 -54.5t55.5 -135.5t-55.5 -137t-135.5 -56q-78 0 -133 56t-55 137zM25 -215l153 235q-59 11 -99 56t-40 112q0 78 54 128.5t136 50.5q79 0 134 -53t55 -146t-78 -213l-113 -170h-202z" />
    <glyph glyph-name="less" unicode="&#x3c;" horiz-adv-x="886" 
d="M86 461v295l707 313v-264l-484 -197l484 -194v-267z" />
    <glyph glyph-name="equal" unicode="=" horiz-adv-x="1175" 
d="M125 696v215h926v-215h-926zM125 324v211h926v-211h-926z" />
    <glyph glyph-name="greater" unicode="&#x3e;" horiz-adv-x="886" 
d="M803 756v-295l-707 -314v267l484 194l-484 197v264z" />
    <glyph glyph-name="question" unicode="?" horiz-adv-x="972" 
d="M932 901q0 -44 -11 -84.5t-36.5 -80.5t-44 -65t-57 -68.5t-52.5 -61.5q-56 -65 -59 -119h-318q2 56 22.5 101t78.5 116q15 19 42 49.5t41 47.5t30 41t23 45.5t7 45.5q0 52 -32 83.5t-83 31.5q-56 0 -88 -36t-35 -89h-331q20 184 141.5 302t325.5 118q198 0 317 -101.5
t119 -275.5zM315 168q0 77 55.5 128.5t135.5 51.5q82 0 138 -51t56 -129t-56 -130t-138 -52q-80 0 -135.5 52.5t-55.5 129.5z" />
    <glyph glyph-name="at" unicode="@" horiz-adv-x="1554" 
d="M1188 801l-86 -498q-8 -43 4.5 -63.5t48.5 -20.5q91 0 145 90t54 252q0 211 -148.5 333t-380.5 122q-274 0 -444 -173.5t-170 -453.5q0 -124 38 -222t99 -159t143.5 -101t165 -55.5t170.5 -15.5q237 0 459 98v-153q-83 -41 -205 -68.5t-254 -27.5q-123 0 -236 25.5
t-214 81t-175 136t-117.5 199t-43.5 262.5q0 215 97 392t277.5 282.5t409.5 105.5q150 0 279 -46.5t218.5 -127.5t140 -193.5t50.5 -240.5q0 -122 -34 -219.5t-93 -158t-135.5 -92.5t-165.5 -32q-73 0 -136.5 26.5t-100.5 76.5q-31 -48 -86.5 -73.5t-116.5 -25.5
q-130 0 -205 89t-75 227q0 116 46.5 215.5t134.5 161t199 61.5q56 0 105 -21.5t70 -52.5l12 58h256zM850 354l31 176q-8 28 -35.5 46t-63.5 18q-64 0 -107.5 -56.5t-43.5 -136.5q0 -53 26.5 -83.5t77.5 -30.5q73 0 115 67z" />
    <glyph glyph-name="A" unicode="A" horiz-adv-x="1323" 
d="M494 1257h335l480 -1257h-334l-90 244h-457l-88 -244h-326zM657 868l-129 -354h258z" />
    <glyph glyph-name="B" unicode="B" horiz-adv-x="1140" 
d="M885 649q90 -30 147.5 -111.5t57.5 -185.5q0 -169 -110 -260.5t-308 -91.5h-578v1257h539q199 0 309.5 -87.5t110.5 -254.5q0 -97 -48 -168.5t-120 -97.5zM408 760h188q147 0 147 114q0 113 -147 113h-188v-227zM408 514v-244h221q68 0 105.5 33t37.5 88q0 58 -37.5 90.5
t-105.5 32.5h-221z" />
    <glyph glyph-name="C" unicode="C" horiz-adv-x="1234" 
d="M45 629q0 285 170 467t434 182q227 0 367.5 -121t175.5 -321h-328q-55 153 -215 153q-127 0 -199.5 -100t-72.5 -260q0 -159 72.5 -260t199.5 -101q160 0 215 156h328q-35 -201 -175.5 -322.5t-367.5 -121.5q-264 0 -434 182t-170 467z" />
    <glyph glyph-name="D" unicode="D" horiz-adv-x="1247" 
d="M94 0v1257h475q295 0 465 -169.5t170 -458.5t-170 -459t-465 -170h-475zM418 285h135q155 0 240.5 92t85.5 252q0 161 -85.5 253.5t-240.5 92.5h-135v-690z" />
    <glyph glyph-name="E" unicode="E" horiz-adv-x="1062" 
d="M94 1257h899v-282h-575v-197h526v-276h-526v-217h575v-285h-899v1257z" />
    <glyph glyph-name="F" unicode="F" horiz-adv-x="1040" 
d="M420 0h-326v1257h885v-284h-559v-250h514v-279h-514v-444z" />
    <glyph glyph-name="G" unicode="G" horiz-adv-x="1275" 
d="M905 426h-194v246h520v-125q0 -259 -155 -413t-408 -154q-274 0 -448.5 181t-174.5 468q0 286 174 467.5t445 181.5q234 0 377 -120.5t180 -321.5h-336q-56 153 -221 153q-134 0 -210.5 -100t-76.5 -260q0 -163 78.5 -262t212.5 -99q92 0 152.5 42t84.5 116z" />
    <glyph glyph-name="H" unicode="H" horiz-adv-x="1331" 
d="M909 1257h330v-1257h-330v498h-485v-498h-330v1257h330v-477h485v477z" />
    <glyph glyph-name="I" unicode="I" horiz-adv-x="518" 
d="M424 1257v-1257h-330v1257h330z" />
    <glyph glyph-name="J" unicode="J" horiz-adv-x="1107" 
d="M31 444h334q5 -82 46.5 -126t116.5 -44q89 0 129.5 52.5t40.5 158.5v772h330v-774q0 -169 -65.5 -284t-175.5 -167t-257 -52q-226 0 -358 127t-141 337z" />
    <glyph glyph-name="K" unicode="K" horiz-adv-x="1245" 
d="M424 1257v-516l405 516h385l-440 -552l459 -705h-387l-318 483l-104 -133v-350h-330v1257h330z" />
    <glyph glyph-name="L" unicode="L" horiz-adv-x="1044" 
d="M94 0v1257h330v-972h563v-285h-893z" />
    <glyph glyph-name="M" unicode="M" horiz-adv-x="1540" 
d="M877 0h-213l-263 748v-748h-307v1257h402l276 -782l275 782h399v-1257h-309v748z" />
    <glyph glyph-name="N" unicode="N" horiz-adv-x="1298" 
d="M1204 1257v-1257h-266l-526 735v-735h-318v1257h307l486 -692v692h317z" />
    <glyph glyph-name="O" unicode="O" horiz-adv-x="1316" 
d="M1274 629q0 -186 -77.5 -334t-218.5 -231.5t-321 -83.5q-178 0 -318 83.5t-217 231.5t-77 334q0 284 171 466.5t441 182.5q180 0 321 -83.5t218.5 -231t77.5 -334.5zM942 629q0 162 -78.5 261t-206.5 99q-127 0 -203.5 -98.5t-76.5 -261.5t76.5 -262t203.5 -99
q128 0 206.5 99.5t78.5 261.5z" />
    <glyph glyph-name="P" unicode="P" horiz-adv-x="1148" 
d="M645 391h-225v-391h-326v1257h551q208 0 332.5 -113.5t124.5 -320.5q0 -205 -124.5 -318.5t-332.5 -113.5zM782 823q0 75 -42.5 116.5t-129.5 41.5h-190v-315h190q86 0 129 42t43 115z" />
    <glyph glyph-name="Q" unicode="Q" horiz-adv-x="1316" 
d="M1001 -92l-100 123q-114 -51 -244 -51q-178 0 -318 83.5t-217 231.5t-77 334q0 284 171 466.5t441 182.5q180 0 321 -83.5t218.5 -231t77.5 -334.5q0 -262 -166 -449l92 -112zM942 629q0 162 -78.5 261t-206.5 99q-127 0 -203.5 -98.5t-76.5 -261.5q0 -165 77 -270
t203 -105q33 0 60 6l-101 125l199 156l94 -117q33 91 33 205z" />
    <glyph glyph-name="R" unicode="R" horiz-adv-x="1175" 
d="M535 416h-115v-416h-326v1257h565q207 0 332 -113t125 -315q0 -140 -66 -237t-184 -141l295 -451h-364zM420 981v-303h205q85 0 127.5 40t42.5 111t-42.5 111.5t-127.5 40.5h-205z" />
    <glyph glyph-name="S" unicode="S" horiz-adv-x="1114" 
d="M25 373h342q41 -129 202 -129q77 0 123.5 32t46.5 89q0 43 -28 66.5t-90 37.5l-242 51q-324 72 -324 350q0 183 136 295.5t348 112.5q221 0 354.5 -107t161.5 -278h-322q-47 123 -192 123q-72 0 -115 -29.5t-43 -81.5q0 -78 104 -100l246 -57q334 -79 334 -363
q0 -125 -66.5 -218.5t-177 -140t-248.5 -46.5q-226 0 -371 103.5t-179 289.5z" />
    <glyph glyph-name="T" unicode="T" horiz-adv-x="1187" 
d="M41 975v282h1106v-282h-389v-975h-330v975h-387z" />
    <glyph glyph-name="U" unicode="U" horiz-adv-x="1255" 
d="M629 -20q-253 0 -401 139.5t-148 394.5v743h328v-714q0 -132 58.5 -201.5t162.5 -69.5q103 0 161 69.5t58 201.5v714h328v-745q0 -254 -147 -393t-400 -139z" />
    <glyph glyph-name="V" unicode="V" horiz-adv-x="1288" 
d="M805 0h-322l-469 1257h353l284 -813l285 813h338z" />
    <glyph glyph-name="W" unicode="W" horiz-adv-x="1679" 
d="M719 1257h250l192 -739l174 739h332l-332 -1257h-301l-194 737l-197 -737h-301l-330 1257h336l176 -739z" />
    <glyph glyph-name="X" unicode="X" horiz-adv-x="1236" 
d="M1210 1257l-403 -614l424 -643h-367l-250 387l-249 -387h-359l424 643l-403 614h366l228 -358l233 358h356z" />
    <glyph glyph-name="Y" unicode="Y" horiz-adv-x="1253" 
d="M633 766l264 491h346l-455 -811v-446h-329v446l-447 811h357z" />
    <glyph glyph-name="Z" unicode="Z" horiz-adv-x="1148" 
d="M1079 285v-285h-1009v244l583 731h-577v282h997v-241l-577 -731h583z" />
    <glyph glyph-name="bracketleft" unicode="[" horiz-adv-x="677" 
d="M393 1065v-971h244v-266h-543v1503h543v-266h-244z" />
    <glyph glyph-name="backslash" unicode="\" horiz-adv-x="806" 
d="M289 1331l508 -1503h-279l-508 1503h279z" />
    <glyph glyph-name="bracketright" unicode="]" horiz-adv-x="677" 
d="M285 94v971h-244v266h543v-1503h-543v266h244z" />
    <glyph glyph-name="asciicircum" unicode="^" horiz-adv-x="884" 
d="M311 1257h262l291 -487h-274l-148 256l-145 -256h-277z" />
    <glyph glyph-name="underscore" unicode="_" horiz-adv-x="780" 
d="M41 -330v244h698v-244h-698z" />
    <glyph glyph-name="grave" unicode="`" 
d="M748 1024h-295l-179 307h306z" />
    <glyph glyph-name="a" unicode="a" horiz-adv-x="978" 
d="M907 0h-309v47q-25 -25 -88 -44t-133 -19q-144 0 -240 78.5t-96 218.5q0 131 100.5 211.5t253.5 80.5q56 0 115.5 -15t87.5 -36v60q0 47 -28.5 78.5t-84.5 31.5q-85 0 -108 -67h-303q21 138 135 228.5t287 90.5q196 0 303.5 -99.5t107.5 -279.5v-565zM598 258v53
q-15 29 -52.5 46.5t-82.5 17.5q-52 0 -89.5 -22.5t-37.5 -65.5q0 -44 37.5 -67t89.5 -23q45 0 82.5 17t52.5 44z" />
    <glyph glyph-name="b" unicode="b" horiz-adv-x="1083" 
d="M408 74v-74h-322v1331h322v-483q34 39 97 66.5t130 27.5q129 0 224 -65.5t141.5 -173t46.5 -242.5t-46.5 -242.5t-141.5 -173t-224 -65.5q-67 0 -130 27.5t-97 66.5zM408 584v-244q19 -39 57 -62.5t84 -23.5q82 0 129 58t47 149q0 92 -47.5 150.5t-128.5 58.5
q-45 0 -83.5 -24t-57.5 -62z" />
    <glyph glyph-name="c" unicode="c" horiz-adv-x="964" 
d="M37 461q0 214 129 347.5t336 133.5q182 0 294.5 -98.5t133.5 -263.5h-312q-6 43 -37 69.5t-79 26.5q-68 0 -108 -58.5t-40 -156.5t40 -155.5t108 -57.5q48 0 79 26t37 68h312q-21 -164 -133.5 -263t-294.5 -99q-207 0 -336 133.5t-129 347.5z" />
    <glyph glyph-name="d" unicode="d" horiz-adv-x="1083" 
d="M676 0v74q-34 -39 -97 -66.5t-130 -27.5q-129 0 -224 65.5t-141.5 173t-46.5 242.5t46.5 242.5t141.5 173t224 65.5q67 0 130 -27.5t97 -66.5v483h321v-1331h-321zM676 340v244q-19 38 -57.5 62t-83.5 24q-81 0 -129 -59t-48 -150t47.5 -149t129.5 -58q46 0 84 23.5
t57 62.5z" />
    <glyph glyph-name="e" unicode="e" horiz-adv-x="978" 
d="M641 322h297q-25 -160 -139 -251t-293 -91q-212 0 -340.5 132.5t-128.5 348.5q0 212 131 346.5t332 134.5q208 0 325 -126.5t117 -336.5v-80h-596q7 -83 49 -126.5t111 -43.5q108 0 135 93zM500 692q-57 0 -95 -34t-53 -99h279q-3 59 -38 96t-93 37z" />
    <glyph glyph-name="f" unicode="f" horiz-adv-x="692" 
d="M672 1325v-262q-34 18 -76 18q-55 0 -85 -27.5t-30 -82.5v-49h178v-250h-178v-672h-317v672h-137v250h137v67q0 167 95 264t263 97q80 0 150 -25z" />
    <glyph glyph-name="g" unicode="g" horiz-adv-x="1067" 
d="M664 63v66q-34 -39 -91 -64.5t-129 -25.5q-188 0 -297.5 128t-109.5 325q0 195 109.5 322.5t297.5 127.5q73 0 130 -25t90 -65v70h317v-789q0 -235 -130 -357t-349 -122q-187 0 -309 88t-146 246h309q27 -99 146 -99q162 0 162 174zM664 373v237q-20 33 -57.5 55.5
t-82.5 22.5q-78 0 -124 -54t-46 -142q0 -89 45.5 -143t124.5 -54q45 0 82.5 22t57.5 56z" />
    <glyph glyph-name="h" unicode="h" horiz-adv-x="1062" 
d="M86 0v1331h322v-489q40 45 105 72.5t142 27.5q152 0 239 -91.5t87 -246.5v-604h-319v526q0 59 -31 95t-90 36q-48 0 -84.5 -27t-48.5 -73v-557h-322z" />
    <glyph glyph-name="i" unicode="i" horiz-adv-x="495" 
d="M430 1171q0 -76 -53 -124t-129 -48t-129 48t-53 124q0 77 53 126t129 49t129 -49t53 -126zM408 922v-922h-322v922h322z" />
    <glyph glyph-name="j" unicode="j" horiz-adv-x="493" 
d="M430 1171q0 -76 -53 -124t-129 -48t-129 48t-53 124q0 77 53 126t129 49t129 -49t53 -126zM408 922v-902q0 -175 -90.5 -270.5t-260.5 -95.5q-75 0 -116 14v242q24 -4 47 -4q51 0 74.5 23t23.5 79v914h322z" />
    <glyph glyph-name="k" unicode="k" horiz-adv-x="1071" 
d="M694 0l-225 342l-61 -72v-270h-322v1331h322v-704l258 295h387l-351 -383l361 -539h-369z" />
    <glyph glyph-name="l" unicode="l" horiz-adv-x="495" 
d="M408 1331v-1331h-322v1331h322z" />
    <glyph glyph-name="m" unicode="m" horiz-adv-x="1574" 
d="M899 831q107 111 285 111q144 0 227.5 -91t83.5 -247v-604h-321v526q0 61 -26.5 97t-78.5 36q-42 0 -74.5 -26t-44.5 -72v-561h-319v526q0 61 -26.5 97t-78.5 36q-43 0 -75.5 -26t-42.5 -72v-561h-322v922h322v-76q36 44 99 70t138 26q161 0 254 -111z" />
    <glyph glyph-name="n" unicode="n" horiz-adv-x="1062" 
d="M86 0v922h322v-80q40 45 105 72.5t142 27.5q152 0 239 -91.5t87 -246.5v-604h-319v526q0 59 -31 95t-90 36q-48 0 -84.5 -27t-48.5 -73v-557h-322z" />
    <glyph glyph-name="o" unicode="o" horiz-adv-x="1017" 
d="M979 461q0 -214 -130.5 -347.5t-340.5 -133.5q-209 0 -340 133.5t-131 347.5t131 347.5t340 133.5q210 0 340.5 -133.5t130.5 -347.5zM664 461q0 97 -41.5 157t-114.5 60q-72 0 -113 -60t-41 -157t41 -156t113 -59q74 0 115 59t41 156z" />
    <glyph glyph-name="p" unicode="p" horiz-adv-x="1083" 
d="M408 74v-400h-322v1248h322v-74q34 39 97 66.5t130 27.5q129 0 224 -66t141.5 -173.5t46.5 -241.5q0 -205 -110 -343t-302 -138q-67 0 -130 27.5t-97 66.5zM408 584v-244q19 -39 57.5 -62.5t83.5 -23.5q82 0 129 58t47 149q0 92 -47.5 150.5t-128.5 58.5q-46 0 -84 -24
t-57 -62z" />
    <glyph glyph-name="q" unicode="q" horiz-adv-x="1083" 
d="M676 -326v400q-34 -39 -97 -66.5t-130 -27.5q-192 0 -302 138t-110 343q0 134 46.5 241.5t141.5 173.5t224 66q67 0 130 -27.5t97 -66.5v74h321v-1248h-321zM676 340v244q-19 38 -57 62t-84 24q-81 0 -129 -59t-48 -150t47.5 -149t129.5 -58q45 0 83.5 23.5t57.5 62.5z
" />
    <glyph glyph-name="r" unicode="r" horiz-adv-x="747" 
d="M705 926v-310q-57 29 -134 29q-66 0 -108.5 -27t-54.5 -77v-541h-322v922h322v-82q75 102 208 102q61 0 89 -16z" />
    <glyph glyph-name="s" unicode="s" horiz-adv-x="917" 
d="M33 285h313q10 -38 42 -59t75 -21q42 0 68 16t26 47q0 25 -17.5 37.5t-54.5 20.5l-180 36q-123 26 -188.5 89.5t-65.5 179.5q0 143 112 227t281 84q184 0 290 -79t128 -220h-297q-19 74 -112 74q-37 0 -61.5 -16t-24.5 -46q0 -21 15 -33t48 -18l182 -43q258 -60 258 -276
q0 -143 -114 -224t-289 -81q-180 0 -296.5 79t-137.5 226z" />
    <glyph glyph-name="t" unicode="t" horiz-adv-x="733" 
d="M154 317v355h-136v250h136v254h317v-254h193v-250h-193v-307q0 -103 98 -103q52 0 103 21v-273q-65 -28 -178 -28q-340 0 -340 335z" />
    <glyph glyph-name="u" unicode="u" horiz-adv-x="1058" 
d="M973 922v-922h-322v80q-38 -44 -103.5 -72t-141.5 -28q-151 0 -237.5 91t-86.5 246v605h319v-529q0 -61 30 -97t89 -36q45 0 82 28t49 74v560h322z" />
    <glyph glyph-name="v" unicode="v" horiz-adv-x="1017" 
d="M653 0h-288l-351 922h328l176 -529l172 529h316z" />
    <glyph glyph-name="w" unicode="w" horiz-adv-x="1429" 
d="M823 922l138 -500l147 500h307l-297 -922h-272l-131 467l-131 -467h-273l-297 922h320l145 -500l139 500h205z" />
    <glyph glyph-name="x" unicode="x" horiz-adv-x="1011" 
d="M989 922l-309 -451l324 -471h-349l-157 240l-158 -240h-332l322 469l-307 453h346l143 -222l145 222h332z" />
    <glyph glyph-name="y" unicode="y" horiz-adv-x="1028" 
d="M541 -326h-318l135 349l-344 899h334l176 -525l172 525h320z" />
    <glyph glyph-name="z" unicode="z" horiz-adv-x="933" 
d="M868 252v-252h-805v211l406 461h-393v250h786v-209l-389 -461h395z" />
    <glyph glyph-name="braceleft" unicode="{" horiz-adv-x="749" 
d="M481 410v-256q0 -60 60 -60h168v-266h-254q-117 0 -191 74t-74 192v293q0 59 -59 59h-90v267h90q59 0 59 59v293q0 118 74 192t191 74h254v-266h-168q-60 0 -60 -59v-256q0 -110 -96 -170q96 -60 96 -170z" />
    <glyph glyph-name="bar" unicode="|" horiz-adv-x="456" 
d="M94 -172v1503h268v-1503h-268z" />
    <glyph glyph-name="braceright" unicode="}" horiz-adv-x="749" 
d="M268 154v256q0 110 97 170q-97 60 -97 170v256q0 59 -59 59h-168v266h254q117 0 190.5 -74t73.5 -192v-293q0 -59 59 -59h91v-267h-91q-59 0 -59 -59v-293q0 -118 -73.5 -192t-190.5 -74h-254v266h168q59 0 59 60z" />
    <glyph glyph-name="asciitilde" unicode="~" horiz-adv-x="872" 
d="M610 727h201q0 -158 -59 -246t-166 -88q-43 0 -82 18t-63 39.5t-52.5 39.5t-52.5 18q-72 0 -72 -105h-201q0 158 59 246t167 88q42 0 81 -18t63 -39t53 -39t53 -18q71 0 71 104z" />
    <glyph glyph-name="uni00A0" unicode="&#xa0;" horiz-adv-x="409" 
 />
    <glyph glyph-name="exclamdown" unicode="&#xa1;" horiz-adv-x="497" 
d="M53 893q0 77 56.5 129.5t136.5 52.5q79 0 134.5 -52.5t55.5 -129.5q0 -76 -55.5 -128t-134.5 -52q-80 0 -136.5 52t-56.5 128zM49 -197l72 836h248l71 -836h-391z" />
    <glyph glyph-name="cent" unicode="&#xa2;" horiz-adv-x="964" 
d="M37 481q0 178 90.5 302.5t245.5 162.5v197h260v-197q128 -32 204.5 -125t90.5 -227h-310q-5 46 -36 74t-82 28q-66 0 -106 -58.5t-40 -156.5t40 -155.5t106 -57.5q51 0 82 28t36 73h310q-14 -134 -90.5 -228t-204.5 -127v-188h-260v188q-155 40 -245.5 165t-90.5 302z
" />
    <glyph glyph-name="sterling" unicode="&#xa3;" horiz-adv-x="1030" 
d="M485 864v-121h232v-243h-232v-47q0 -130 -43 -187h539v-266h-932v266h90q41 71 41 187v47h-131v243h131v111q0 187 110 305.5t298 118.5q177 0 282.5 -101t114.5 -268h-287q-3 47 -28.5 75t-71.5 28q-55 0 -84 -40t-29 -108z" />
    <glyph glyph-name="yen" unicode="&#xa5;" horiz-adv-x="1173" 
d="M129 500v188h197l-297 569h356l209 -438l209 438h342l-301 -569h198v-188h-297v-99h297v-188h-297v-213h-321v213h-295v188h295v99h-295z" />
    <glyph glyph-name="section" unicode="&#xa7;" horiz-adv-x="978" 
d="M795 250q63 -73 63 -160q0 -134 -104.5 -214.5t-268.5 -80.5q-182 0 -284.5 82.5t-120.5 226.5h278q6 -41 34 -65.5t77 -24.5q37 0 62.5 19.5t25.5 54.5q0 28 -16.5 45t-51.5 39l-233 129q-106 57 -160.5 126.5t-54.5 164.5q0 74 37 134t104 97q-61 68 -61 160
q0 134 105 214.5t268 80.5q183 0 285 -82t120 -227h-278q-5 40 -33.5 65t-77.5 25q-36 0 -62 -19.5t-26 -54.5q0 -19 11.5 -35.5t22.5 -25t36 -23.5l231 -129q106 -57 160.5 -126.5t54.5 -164.5q0 -75 -37.5 -135.5t-105.5 -95.5zM401 516l199 -125q26 7 39.5 26.5
t13.5 43.5q0 29 -18.5 50t-56.5 46l-199 125q-51 -17 -51 -70q0 -29 18 -50.5t55 -45.5z" />
    <glyph glyph-name="dieresis" unicode="&#xa8;" 
d="M172 1161q0 66 46.5 112t111.5 46t111 -46t46 -112q0 -64 -46 -109.5t-111 -45.5t-111.5 45.5t-46.5 109.5zM535 1161q0 66 45 112t110 46t112.5 -46.5t47.5 -111.5q0 -64 -47.5 -109.5t-112.5 -45.5q-64 0 -109.5 45t-45.5 110z" />
    <glyph glyph-name="copyright" unicode="&#xa9;" horiz-adv-x="1441" 
d="M1370 629q0 -184 -88 -334t-236 -232.5t-325 -82.5t-325 82.5t-236 232.5t-88 334t88 334t236 232.5t325 82.5t325 -82.5t236 -232.5t88 -334zM1274 629q0 157 -75 285t-201.5 199t-276.5 71t-276.5 -71t-201.5 -199t-75 -285t75 -285t201.5 -199t276.5 -71t276.5 71
t201.5 199t75 285zM338 631q0 181 108.5 295t280.5 114q149 0 239 -78t111 -206h-233q-25 80 -117 80q-75 0 -116.5 -56.5t-41.5 -148.5q0 -89 42 -146t116 -57q92 0 117 82h233q-21 -128 -111.5 -207.5t-238.5 -79.5q-172 0 -280.5 114t-108.5 294z" />
    <glyph glyph-name="ordfeminine" unicode="&#xaa;" horiz-adv-x="655" 
d="M621 637h-226v31q-16 -16 -59.5 -29.5t-91.5 -13.5q-96 0 -162 53.5t-66 148.5q0 90 69 144.5t173 54.5q37 0 77.5 -10.5t59.5 -24.5v39q0 29 -17.5 48.5t-51.5 19.5q-56 0 -68 -45h-213q14 100 90.5 162.5t198.5 62.5q137 0 212 -68t75 -192v-381zM395 817v31
q-11 16 -34 26.5t-48 10.5q-30 0 -51.5 -14.5t-21.5 -39.5q0 -26 21.5 -39.5t51.5 -13.5q60 0 82 39z" />
    <glyph glyph-name="guillemotleft" unicode="&#xab;" horiz-adv-x="923" 
d="M502 119h-262l-189 336l189 336h262l-189 -336zM872 119h-262l-188 336l188 336h262l-188 -336z" />
    <glyph glyph-name="registered" unicode="&#xae;" horiz-adv-x="833" 
d="M786 903q0 -161 -108 -268t-262 -107t-262.5 107t-108.5 268t108.5 268t262.5 107t262 -107t108 -268zM719 903q0 135 -87.5 223t-215.5 88t-215.5 -88t-87.5 -223t87.5 -223t215.5 -88t215.5 88t87.5 223zM403 827h-24v-118h-121v393h191q67 0 107 -37t40 -104
q0 -86 -74 -119l86 -133h-133zM477 961q0 40 -47 40h-51v-77h51q47 0 47 37z" />
    <glyph glyph-name="macron" unicode="&#xaf;" 
d="M252 1032v221h518v-221h-518z" />
    <glyph glyph-name="degree" unicode="&#xb0;" horiz-adv-x="741" 
d="M655 989q0 -121 -83 -205t-201 -84t-201.5 84t-83.5 205q0 120 84 204.5t201 84.5t200.5 -84.5t83.5 -204.5zM254 989q0 -51 34.5 -86t82.5 -35q47 0 80.5 35t33.5 86q0 49 -33.5 84t-80.5 35q-48 0 -82.5 -35t-34.5 -84z" />
    <glyph glyph-name="plusminus" unicode="&#xb1;" horiz-adv-x="1161" 
d="M473 1149h215v-262h340v-213h-340v-262h-215v262h-338v213h338v262zM135 98v215h893v-215h-893z" />
    <glyph glyph-name="uni00B2" unicode="&#xb2;" horiz-adv-x="636" 
d="M377 1026q0 24 -13.5 38.5t-37.5 14.5q-25 0 -41.5 -17t-16.5 -40h-225q11 106 85 176t191 70q123 0 198 -63.5t75 -166.5q0 -34 -9.5 -64t-31.5 -58.5t-39.5 -46.5t-52.5 -50l-105 -96h234v-182h-541v139l264 244q28 29 37 39.5t19 28t10 34.5z" />
    <glyph glyph-name="uni00B3" unicode="&#xb3;" horiz-adv-x="616" 
d="M248 827v148h47q34 0 55 15t21 46q0 25 -16 42.5t-44 17.5q-30 0 -49 -21.5t-22 -50.5h-207q11 104 82.5 174t189.5 70q124 0 195 -63t71 -167q0 -41 -20.5 -80.5t-50.5 -58.5q36 -18 57 -55.5t21 -79.5q0 -107 -73 -171.5t-198 -64.5q-124 0 -198 68t-82 182h219
q2 -32 20 -51.5t49 -19.5q28 0 45 16.5t17 44.5q0 59 -74 59h-55z" />
    <glyph glyph-name="acute" unicode="&#xb4;" 
d="M569 1024h-295l168 307h306z" />
    <glyph glyph-name="paragraph" unicode="&#xb6;" horiz-adv-x="1128" 
d="M496 -184v690q-87 0 -168 22.5t-149 66.5t-109 118.5t-41 169.5t41 169t109 117.5t148.5 65.5t168.5 22h213v-1441h-213zM819 -184v1441h215v-1441h-215z" />
    <glyph glyph-name="periodcentered" unicode="&#xb7;" horiz-adv-x="477" 
d="M49 537q0 81 55 135.5t134 54.5q80 0 135 -54.5t55 -135.5q0 -82 -55 -137.5t-135 -55.5q-78 0 -133.5 56t-55.5 137z" />
    <glyph glyph-name="cedilla" unicode="&#xb8;" 
d="M561 -371h-272l141 289h275z" />
    <glyph glyph-name="uni00B9" unicode="&#xb9;" horiz-adv-x="495" 
d="M420 1257v-716h-213v477l-178 -86v215l235 110h156z" />
    <glyph glyph-name="ordmasculine" unicode="&#xba;" horiz-adv-x="686" 
d="M672 950q0 -146 -91 -236.5t-237 -90.5t-237 90.5t-91 236.5t91 237t237 91t237 -91t91 -237zM434 950q0 58 -24 94.5t-66 36.5t-66 -36.5t-24 -94.5t24 -93.5t66 -35.5t66 35.5t24 93.5z" />
    <glyph glyph-name="guillemotright" unicode="&#xbb;" horiz-adv-x="923" 
d="M313 119h-262l189 336l-189 336h262l189 -336zM684 119h-262l188 336l-188 336h262l188 -336z" />
    <glyph glyph-name="onequarter" unicode="&#xbc;" horiz-adv-x="1472" 
d="M440 1257v-716h-213v477l-176 -86v215l236 110h153zM1233 1257l-860 -1257h-189l860 1257h189zM1233 717l-195 -422h95v104h184v-104h96v-178h-96v-117h-184v117h-324v166l215 434h209z" />
    <glyph glyph-name="onehalf" unicode="&#xbd;" horiz-adv-x="1484" 
d="M440 1257v-716h-213v477l-176 -86v215l236 110h153zM1233 1257l-860 -1257h-189l860 1257h189zM1194 487q0 22 -14.5 37t-38.5 15q-25 0 -41.5 -17.5t-16.5 -40.5h-225q11 106 85.5 176t191.5 70q124 0 198 -63t74 -166q0 -44 -20.5 -85.5t-43 -66.5t-67.5 -67l-105 -97
h234v-182h-541v139l262 246q49 49 59 67q9 18 9 35z" />
    <glyph glyph-name="threequarters" unicode="&#xbe;" horiz-adv-x="1533" 
d="M276 827v148h50q33 0 53 15t20 46q0 25 -15 42.5t-44 17.5q-30 0 -48.5 -21.5t-21.5 -50.5h-207q11 104 82.5 174t188.5 70q124 0 195 -63t71 -167q0 -40 -21 -80t-51 -59q37 -18 58.5 -55.5t21.5 -79.5q0 -107 -73 -171.5t-199 -64.5q-123 0 -198 68t-81 182h217
q3 -32 21 -51.5t49 -19.5q28 0 46 17t18 44q0 59 -74 59h-58zM1294 1257l-860 -1257h-190l860 1257h190zM1292 717l-194 -422h94v104h186v-104h97v-178h-97v-117h-186v117h-324v166l217 434h207z" />
    <glyph glyph-name="questiondown" unicode="&#xbf;" horiz-adv-x="972" 
d="M657 893q0 -77 -55 -128.5t-135 -51.5q-82 0 -138.5 51.5t-56.5 128.5q0 78 56.5 130t138.5 52q80 0 135 -52t55 -130zM41 160q0 44 11 84.5t36.5 80.5t44 65t57 68.5t52.5 61.5q56 65 59 119h317q-2 -56 -22 -101t-78 -116q-15 -19 -42 -49.5t-41 -47.5t-30 -41
t-23 -45.5t-7 -45.5q0 -52 31.5 -83.5t82.5 -31.5q56 0 88 36t35 89h332q-20 -184 -141.5 -302t-325.5 -118q-198 0 -317 101.5t-119 275.5z" />
    <glyph glyph-name="Agrave" unicode="&#xc0;" horiz-adv-x="1323" 
d="M831 1364h-315l-182 266h330zM494 1257h335l480 -1257h-334l-90 244h-457l-88 -244h-326zM657 868l-129 -354h258z" />
    <glyph glyph-name="Aacute" unicode="&#xc1;" horiz-adv-x="1323" 
d="M811 1364h-315l168 266h329zM494 1257h335l480 -1257h-334l-90 244h-457l-88 -244h-326zM657 868l-129 -354h258z" />
    <glyph glyph-name="Acircumflex" unicode="&#xc2;" horiz-adv-x="1323" 
d="M784 1634l222 -270h-258l-86 92l-87 -92h-258l222 270h245zM494 1257h335l480 -1257h-334l-90 244h-457l-88 -244h-326zM657 868l-129 -354h258z" />
    <glyph glyph-name="Atilde" unicode="&#xc3;" horiz-adv-x="1323" 
d="M809 1657h174q0 -88 -16 -154t-57.5 -109.5t-106.5 -43.5q-53 0 -129 35.5t-107 35.5q-50 0 -53 -63h-174q0 64 9.5 117.5t29.5 97t56 68t85 24.5q52 0 128 -36t108 -36q50 0 53 64zM494 1257h335l480 -1257h-334l-90 244h-457l-88 -244h-326zM657 868l-129 -354h258z
" />
    <glyph glyph-name="Adieresis" unicode="&#xc4;" horiz-adv-x="1323" 
d="M315 1503q0 68 46.5 115t113.5 47q66 0 114 -47.5t48 -114.5t-48 -114.5t-114 -47.5q-67 0 -113.5 47t-46.5 115zM686 1503q0 67 47 114.5t113 47.5t114 -47.5t48 -114.5t-48 -114.5t-114 -47.5t-113 47.5t-47 114.5zM494 1257h335l480 -1257h-334l-90 244h-457l-88 -244
h-326zM657 868l-129 -354h258z" />
    <glyph glyph-name="Aring" unicode="&#xc5;" horiz-adv-x="1323" 
d="M883 1530q0 -91 -63.5 -153t-157.5 -62t-158 62t-64 153t64 153t158 62t157.5 -62t63.5 -153zM735 1530q0 31 -20.5 52.5t-52.5 21.5q-31 0 -52.5 -21.5t-21.5 -52.5t21.5 -52.5t52.5 -21.5q32 0 52.5 21.5t20.5 52.5zM494 1257h335l480 -1257h-334l-90 244h-457
l-88 -244h-326zM657 868l-129 -354h258z" />
    <glyph glyph-name="AE" unicode="&#xc6;" horiz-adv-x="1839" 
d="M721 1257h1048v-282h-534v-197h483v-276h-483v-217h534v-285h-858v244h-413l-136 -244h-348zM911 991l-264 -477h264v477z" />
    <glyph glyph-name="Ccedilla" unicode="&#xc7;" horiz-adv-x="1234" 
d="M45 629q0 285 170 467t434 182q227 0 367.5 -121t175.5 -321h-328q-55 153 -215 153q-127 0 -199.5 -100t-72.5 -260q0 -159 72.5 -260t199.5 -101q160 0 215 156h328q-35 -201 -175.5 -322.5t-367.5 -121.5q-264 0 -434 182t-170 467zM651 -371h-272l141 289h275z" />
    <glyph glyph-name="Egrave" unicode="&#xc8;" horiz-adv-x="1062" 
d="M725 1364h-315l-183 266h330zM94 1257h899v-282h-575v-197h526v-276h-526v-217h575v-285h-899v1257z" />
    <glyph glyph-name="Eacute" unicode="&#xc9;" horiz-adv-x="1062" 
d="M705 1364h-316l168 266h330zM94 1257h899v-282h-575v-197h526v-276h-526v-217h575v-285h-899v1257z" />
    <glyph glyph-name="Ecircumflex" unicode="&#xca;" horiz-adv-x="1062" 
d="M678 1634l221 -270h-258l-86 92l-86 -92h-258l221 270h246zM94 1257h899v-282h-575v-197h526v-276h-526v-217h575v-285h-899v1257z" />
    <glyph glyph-name="Edieresis" unicode="&#xcb;" horiz-adv-x="1062" 
d="M209 1503q0 68 46.5 115t113.5 47q66 0 113.5 -47.5t47.5 -114.5t-47.5 -114.5t-113.5 -47.5q-67 0 -113.5 47t-46.5 115zM580 1503q0 67 46.5 114.5t112.5 47.5t114 -47.5t48 -114.5t-48 -114.5t-114 -47.5t-112.5 47.5t-46.5 114.5zM94 1257h899v-282h-575v-197h526
v-276h-526v-217h575v-285h-899v1257z" />
    <glyph glyph-name="Igrave" unicode="&#xcc;" horiz-adv-x="518" 
d="M428 1364h-315l-183 266h330zM424 1257v-1257h-330v1257h330z" />
    <glyph glyph-name="Iacute" unicode="&#xcd;" horiz-adv-x="518" 
d="M408 1364h-316l168 266h330zM424 1257v-1257h-330v1257h330z" />
    <glyph glyph-name="Icircumflex" unicode="&#xce;" horiz-adv-x="518" 
d="M381 1634l221 -270h-258l-86 92l-86 -92h-258l221 270h246zM424 1257v-1257h-330v1257h330z" />
    <glyph glyph-name="Idieresis" unicode="&#xcf;" horiz-adv-x="518" 
d="M-86 1503q0 68 46.5 115t113.5 47q66 0 114 -47.5t48 -114.5t-48 -114.5t-114 -47.5q-67 0 -113.5 47t-46.5 115zM285 1503q0 67 46.5 114.5t112.5 47.5t114 -47.5t48 -114.5t-48 -114.5t-114 -47.5t-112.5 47.5t-46.5 114.5zM424 1257v-1257h-330v1257h330z" />
    <glyph glyph-name="Eth" unicode="&#xd0;" horiz-adv-x="1282" 
d="M35 516v254h94v487h475q295 0 465 -169.5t170 -458.5t-170 -459t-465 -170h-475v516h-94zM453 285h135q155 0 240 92t85 252q0 162 -85 254t-240 92h-135v-205h178v-254h-178v-231z" />
    <glyph glyph-name="Ntilde" unicode="&#xd1;" horiz-adv-x="1298" 
d="M797 1657h174q0 -88 -16 -154t-57.5 -109.5t-106.5 -43.5q-53 0 -129 35.5t-107 35.5q-50 0 -53 -63h-174q0 64 9.5 117.5t29.5 97t56 68t85 24.5q52 0 128 -36t107 -36q51 0 54 64zM1204 1257v-1257h-266l-526 735v-735h-318v1257h307l486 -692v692h317z" />
    <glyph glyph-name="Ograve" unicode="&#xd2;" horiz-adv-x="1316" 
d="M827 1364h-315l-182 266h329zM1274 629q0 -186 -77.5 -334t-218.5 -231.5t-321 -83.5q-178 0 -318 83.5t-217 231.5t-77 334q0 284 171 466.5t441 182.5q180 0 321 -83.5t218.5 -231t77.5 -334.5zM942 629q0 162 -78.5 261t-206.5 99q-127 0 -203.5 -98.5t-76.5 -261.5
t76.5 -262t203.5 -99q128 0 206.5 99.5t78.5 261.5z" />
    <glyph glyph-name="Oacute" unicode="&#xd3;" horiz-adv-x="1316" 
d="M807 1364h-315l167 266h330zM1274 629q0 -186 -77.5 -334t-218.5 -231.5t-321 -83.5q-178 0 -318 83.5t-217 231.5t-77 334q0 284 171 466.5t441 182.5q180 0 321 -83.5t218.5 -231t77.5 -334.5zM942 629q0 162 -78.5 261t-206.5 99q-127 0 -203.5 -98.5t-76.5 -261.5
t76.5 -262t203.5 -99q128 0 206.5 99.5t78.5 261.5z" />
    <glyph glyph-name="Ocircumflex" unicode="&#xd4;" horiz-adv-x="1316" 
d="M780 1634l221 -270h-258l-86 92l-86 -92h-258l222 270h245zM1274 629q0 -186 -77.5 -334t-218.5 -231.5t-321 -83.5q-178 0 -318 83.5t-217 231.5t-77 334q0 284 171 466.5t441 182.5q180 0 321 -83.5t218.5 -231t77.5 -334.5zM942 629q0 162 -78.5 261t-206.5 99
q-127 0 -203.5 -98.5t-76.5 -261.5t76.5 -262t203.5 -99q128 0 206.5 99.5t78.5 261.5z" />
    <glyph glyph-name="Otilde" unicode="&#xd5;" horiz-adv-x="1316" 
d="M805 1657h174q0 -88 -16 -154t-57.5 -109.5t-106.5 -43.5q-53 0 -129 35.5t-107 35.5q-50 0 -53 -63h-174q0 64 9.5 117.5t29.5 97t56 68t85 24.5q52 0 128 -36t108 -36q50 0 53 64zM1274 629q0 -186 -77.5 -334t-218.5 -231.5t-321 -83.5q-178 0 -318 83.5t-217 231.5
t-77 334q0 284 171 466.5t441 182.5q180 0 321 -83.5t218.5 -231t77.5 -334.5zM942 629q0 162 -78.5 261t-206.5 99q-127 0 -203.5 -98.5t-76.5 -261.5t76.5 -262t203.5 -99q128 0 206.5 99.5t78.5 261.5z" />
    <glyph glyph-name="Odieresis" unicode="&#xd6;" horiz-adv-x="1316" 
d="M313 1503q0 68 46.5 115t113.5 47q66 0 114 -47.5t48 -114.5t-48 -114.5t-114 -47.5q-67 0 -113.5 47t-46.5 115zM684 1503q0 67 47 114.5t113 47.5t114 -47.5t48 -114.5t-48 -114.5t-114 -47.5t-113 47.5t-47 114.5zM1274 629q0 -186 -77.5 -334t-218.5 -231.5
t-321 -83.5q-178 0 -318 83.5t-217 231.5t-77 334q0 284 171 466.5t441 182.5q180 0 321 -83.5t218.5 -231t77.5 -334.5zM942 629q0 162 -78.5 261t-206.5 99q-127 0 -203.5 -98.5t-76.5 -261.5t76.5 -262t203.5 -99q128 0 206.5 99.5t78.5 261.5z" />
    <glyph glyph-name="multiply" unicode="&#xd7;" horiz-adv-x="1011" 
d="M340 610l-248 246l168 166l246 -246l246 246l168 -166l-248 -246l248 -245l-168 -166l-246 245l-246 -245l-168 166z" />
    <glyph glyph-name="Oslash" unicode="&#xd8;" horiz-adv-x="1335" 
d="M70 74l118 131q-135 177 -135 424q0 284 171.5 466.5t443.5 182.5q213 0 374 -123l111 125l115 -96l-121 -133q135 -174 135 -422q0 -186 -77.5 -334t-218 -231.5t-318.5 -83.5q-221 0 -375 120l-109 -123zM385 629q0 -88 27 -174l426 475q-68 59 -170 59
q-128 0 -205.5 -98.5t-77.5 -261.5zM950 629q0 92 -26 172l-426 -475q71 -58 170 -58q126 0 204 99.5t78 261.5z" />
    <glyph glyph-name="Ugrave" unicode="&#xd9;" horiz-adv-x="1255" 
d="M799 1364h-316l-182 266h330zM629 -20q-253 0 -401 139.5t-148 394.5v743h328v-714q0 -132 58.5 -201.5t162.5 -69.5q103 0 161 69.5t58 201.5v714h328v-745q0 -254 -147 -393t-400 -139z" />
    <glyph glyph-name="Uacute" unicode="&#xda;" horiz-adv-x="1255" 
d="M778 1364h-315l168 266h330zM629 -20q-253 0 -401 139.5t-148 394.5v743h328v-714q0 -132 58.5 -201.5t162.5 -69.5q103 0 161 69.5t58 201.5v714h328v-745q0 -254 -147 -393t-400 -139z" />
    <glyph glyph-name="Ucircumflex" unicode="&#xdb;" horiz-adv-x="1255" 
d="M752 1634l221 -270h-258l-86 92l-86 -92h-258l221 270h246zM629 -20q-253 0 -401 139.5t-148 394.5v743h328v-714q0 -132 58.5 -201.5t162.5 -69.5q103 0 161 69.5t58 201.5v714h328v-745q0 -254 -147 -393t-400 -139z" />
    <glyph glyph-name="Udieresis" unicode="&#xdc;" horiz-adv-x="1255" 
d="M283 1503q0 68 46 115t113 47q66 0 114 -47.5t48 -114.5t-48 -114.5t-114 -47.5q-67 0 -113 47t-46 115zM653 1503q0 67 47 114.5t113 47.5t114 -47.5t48 -114.5t-48 -114.5t-114 -47.5t-113 47.5t-47 114.5zM629 -20q-253 0 -401 139.5t-148 394.5v743h328v-714
q0 -132 58.5 -201.5t162.5 -69.5q103 0 161 69.5t58 201.5v714h328v-745q0 -254 -147 -393t-400 -139z" />
    <glyph glyph-name="Yacute" unicode="&#xdd;" horiz-adv-x="1253" 
d="M776 1364h-315l168 266h329zM633 766l264 491h346l-455 -811v-446h-329v446l-447 811h357z" />
    <glyph glyph-name="Thorn" unicode="&#xde;" horiz-adv-x="1148" 
d="M645 209h-225v-209h-326v1257h326v-182h225q208 0 332.5 -113.5t124.5 -320.5q0 -205 -124.5 -318.5t-332.5 -113.5zM782 641q0 75 -42.5 116.5t-129.5 41.5h-190v-316h190q86 0 129 42.5t43 115.5z" />
    <glyph glyph-name="germandbls" unicode="&#xdf;" horiz-adv-x="1112" 
d="M848 727q99 -36 162 -125.5t63 -216.5q0 -185 -112 -290t-293 -105q-97 0 -162 22v254q40 -14 100 -14q76 0 119 42.5t43 119.5t-52 118t-143 41h-59v250h35q61 0 96 33t35 96q0 57 -35 91t-98 34q-68 0 -104.5 -47.5t-36.5 -124.5v-905h-320v885q0 215 124 340t337 125
q207 0 320.5 -100t113.5 -259q0 -93 -38 -162.5t-95 -101.5z" />
    <glyph glyph-name="agrave" unicode="&#xe0;" horiz-adv-x="978" 
d="M668 1024h-295l-178 307h305zM907 0h-309v47q-25 -25 -88 -44t-133 -19q-144 0 -240 78.5t-96 218.5q0 131 100.5 211.5t253.5 80.5q56 0 115.5 -15t87.5 -36v60q0 47 -28.5 78.5t-84.5 31.5q-85 0 -108 -67h-303q21 138 135 228.5t287 90.5q196 0 303.5 -99.5
t107.5 -279.5v-565zM598 258v53q-15 29 -52.5 46.5t-82.5 17.5q-52 0 -89.5 -22.5t-37.5 -65.5q0 -44 37.5 -67t89.5 -23q45 0 82.5 17t52.5 44z" />
    <glyph glyph-name="aacute" unicode="&#xe1;" horiz-adv-x="978" 
d="M649 1024h-295l168 307h305zM907 0h-309v47q-25 -25 -88 -44t-133 -19q-144 0 -240 78.5t-96 218.5q0 131 100.5 211.5t253.5 80.5q56 0 115.5 -15t87.5 -36v60q0 47 -28.5 78.5t-84.5 31.5q-85 0 -108 -67h-303q21 138 135 228.5t287 90.5q196 0 303.5 -99.5
t107.5 -279.5v-565zM598 258v53q-15 29 -52.5 46.5t-82.5 17.5q-52 0 -89.5 -22.5t-37.5 -65.5q0 -44 37.5 -67t89.5 -23q45 0 82.5 17t52.5 44z" />
    <glyph glyph-name="acircumflex" unicode="&#xe2;" horiz-adv-x="978" 
d="M629 1329l196 -309h-237l-82 113l-82 -113h-238l197 309h246zM907 0h-309v47q-25 -25 -88 -44t-133 -19q-144 0 -240 78.5t-96 218.5q0 131 100.5 211.5t253.5 80.5q56 0 115.5 -15t87.5 -36v60q0 47 -28.5 78.5t-84.5 31.5q-85 0 -108 -67h-303q21 138 135 228.5
t287 90.5q196 0 303.5 -99.5t107.5 -279.5v-565zM598 258v53q-15 29 -52.5 46.5t-82.5 17.5q-52 0 -89.5 -22.5t-37.5 -65.5q0 -44 37.5 -67t89.5 -23q45 0 82.5 17t52.5 44z" />
    <glyph glyph-name="atilde" unicode="&#xe3;" horiz-adv-x="978" 
d="M641 1325h176q0 -88 -16 -154t-57.5 -109.5t-106.5 -43.5q-51 0 -112 37t-91 37q-24 0 -37.5 -18.5t-13.5 -49.5h-176q0 88 16 154t57.5 109.5t106.5 43.5q51 0 113 -37t90 -37q23 0 37 18.5t14 49.5zM907 0h-309v47q-25 -25 -88 -44t-133 -19q-144 0 -240 78.5
t-96 218.5q0 131 100.5 211.5t253.5 80.5q56 0 115.5 -15t87.5 -36v60q0 47 -28.5 78.5t-84.5 31.5q-85 0 -108 -67h-303q21 138 135 228.5t287 90.5q196 0 303.5 -99.5t107.5 -279.5v-565zM598 258v53q-15 29 -52.5 46.5t-82.5 17.5q-52 0 -89.5 -22.5t-37.5 -65.5
q0 -44 37.5 -67t89.5 -23q45 0 82.5 17t52.5 44z" />
    <glyph glyph-name="adieresis" unicode="&#xe4;" horiz-adv-x="978" 
d="M172 1161q0 66 46.5 112t111.5 46t111 -46t46 -112q0 -64 -46 -109.5t-111 -45.5t-111.5 45.5t-46.5 109.5zM535 1161q0 66 45 112t110 46t112.5 -46.5t47.5 -111.5q0 -64 -47.5 -109.5t-112.5 -45.5q-64 0 -109.5 45t-45.5 110zM907 0h-309v47q-25 -25 -88 -44t-133 -19
q-144 0 -240 78.5t-96 218.5q0 131 100.5 211.5t253.5 80.5q56 0 115.5 -15t87.5 -36v60q0 47 -28.5 78.5t-84.5 31.5q-85 0 -108 -67h-303q21 138 135 228.5t287 90.5q196 0 303.5 -99.5t107.5 -279.5v-565zM598 258v53q-15 29 -52.5 46.5t-82.5 17.5q-52 0 -89.5 -22.5
t-37.5 -65.5q0 -44 37.5 -67t89.5 -23q45 0 82.5 17t52.5 44z" />
    <glyph glyph-name="aring" unicode="&#xe5;" horiz-adv-x="978" 
d="M729 1206q0 -90 -64 -151.5t-157 -61.5t-157 61.5t-64 151.5q0 91 64 154t157 63t157 -63t64 -154zM582 1206q0 32 -21 54t-53 22q-31 0 -52.5 -22t-21.5 -54q0 -29 21.5 -50t52.5 -21q32 0 53 20.5t21 50.5zM907 0h-309v47q-25 -25 -88 -44t-133 -19q-144 0 -240 78.5
t-96 218.5q0 131 100.5 211.5t253.5 80.5q56 0 115.5 -15t87.5 -36v60q0 47 -28.5 78.5t-84.5 31.5q-85 0 -108 -67h-303q21 138 135 228.5t287 90.5q196 0 303.5 -99.5t107.5 -279.5v-565zM598 258v53q-15 29 -52.5 46.5t-82.5 17.5q-52 0 -89.5 -22.5t-37.5 -65.5
q0 -44 37.5 -67t89.5 -23q45 0 82.5 17t52.5 44z" />
    <glyph glyph-name="ae" unicode="&#xe6;" horiz-adv-x="1499" 
d="M1157 313h301q-29 -156 -144.5 -244.5t-293.5 -88.5q-180 0 -311 114q-136 -112 -330 -112q-141 0 -240.5 77t-99.5 207q0 139 110 216t279 77h162v27q0 49 -30 80.5t-89 31.5q-92 0 -115 -73h-282q19 139 127.5 228t275.5 89q172 0 275 -100q119 100 272 100
q203 0 320.5 -127.5t117.5 -335.5v-90h-596q15 -160 160 -160q104 0 131 84zM1020 692q-57 0 -95 -34t-53 -99h279q-5 59 -39 96t-92 37zM453 207q97 0 137 76v104h-131q-54 0 -89.5 -23t-35.5 -67t34.5 -67t84.5 -23z" />
    <glyph glyph-name="ccedilla" unicode="&#xe7;" horiz-adv-x="964" 
d="M37 461q0 214 129 347.5t336 133.5q182 0 294.5 -98.5t133.5 -263.5h-312q-6 43 -37 69.5t-79 26.5q-68 0 -108 -58.5t-40 -156.5t40 -155.5t108 -57.5q48 0 79 26t37 68h312q-21 -164 -133.5 -263t-294.5 -99q-207 0 -336 133.5t-129 347.5zM498 -371h-273l142 289h274z
" />
    <glyph glyph-name="egrave" unicode="&#xe8;" horiz-adv-x="978" 
d="M666 1024h-295l-178 307h305zM641 322h297q-25 -160 -139 -251t-293 -91q-212 0 -340.5 132.5t-128.5 348.5q0 212 131 346.5t332 134.5q208 0 325 -126.5t117 -336.5v-80h-596q7 -83 49 -126.5t111 -43.5q108 0 135 93zM500 692q-57 0 -95 -34t-53 -99h279q-3 59 -38 96
t-93 37z" />
    <glyph glyph-name="eacute" unicode="&#xe9;" horiz-adv-x="978" 
d="M647 1024h-295l168 307h305zM641 322h297q-25 -160 -139 -251t-293 -91q-212 0 -340.5 132.5t-128.5 348.5q0 212 131 346.5t332 134.5q208 0 325 -126.5t117 -336.5v-80h-596q7 -83 49 -126.5t111 -43.5q108 0 135 93zM500 692q-57 0 -95 -34t-53 -99h279q-3 59 -38 96
t-93 37z" />
    <glyph glyph-name="ecircumflex" unicode="&#xea;" horiz-adv-x="978" 
d="M633 1329l196 -309h-237l-82 113l-82 -113h-238l197 309h246zM641 322h297q-25 -160 -139 -251t-293 -91q-212 0 -340.5 132.5t-128.5 348.5q0 212 131 346.5t332 134.5q208 0 325 -126.5t117 -336.5v-80h-596q7 -83 49 -126.5t111 -43.5q108 0 135 93zM500 692
q-57 0 -95 -34t-53 -99h279q-3 59 -38 96t-93 37z" />
    <glyph glyph-name="edieresis" unicode="&#xeb;" horiz-adv-x="978" 
d="M172 1161q0 66 46.5 112t111.5 46t111 -46t46 -112q0 -64 -46 -109.5t-111 -45.5t-111.5 45.5t-46.5 109.5zM535 1161q0 66 45 112t110 46t112.5 -46.5t47.5 -111.5q0 -64 -47.5 -109.5t-112.5 -45.5q-64 0 -109.5 45t-45.5 110zM641 322h297q-25 -160 -139 -251
t-293 -91q-212 0 -340.5 132.5t-128.5 348.5q0 212 131 346.5t332 134.5q208 0 325 -126.5t117 -336.5v-80h-596q7 -83 49 -126.5t111 -43.5q108 0 135 93zM500 692q-57 0 -95 -34t-53 -99h279q-3 59 -38 96t-93 37z" />
    <glyph glyph-name="igrave" unicode="&#xec;" horiz-adv-x="495" 
d="M401 1024h-295l-178 307h305zM408 922v-922h-322v922h322z" />
    <glyph glyph-name="iacute" unicode="&#xed;" horiz-adv-x="495" 
d="M385 1024h-295l168 307h305zM408 922v-922h-322v922h322z" />
    <glyph glyph-name="icircumflex" unicode="&#xee;" horiz-adv-x="495" 
d="M371 1329l161 -309h-229l-55 123l-58 -123h-227l162 309h246zM408 922v-922h-322v922h322z" />
    <glyph glyph-name="idieresis" unicode="&#xef;" horiz-adv-x="495" 
d="M-84 1161q0 66 45.5 112t110.5 46q66 0 111.5 -46t45.5 -112q0 -65 -45.5 -110t-111.5 -45q-65 0 -110.5 45.5t-45.5 109.5zM266 1161q0 66 46.5 112t111.5 46t111.5 -46t46.5 -112q0 -64 -46.5 -109.5t-111.5 -45.5t-111.5 45.5t-46.5 109.5zM408 922v-922h-322v922h322
z" />
    <glyph glyph-name="eth" unicode="&#xf0;" horiz-adv-x="1017" 
d="M272 975l-51 135l125 39q-115 93 -225 174v8h393q63 -48 115 -94l162 51l51 -135l-101 -33q238 -277 238 -624q0 -237 -129 -376.5t-342 -139.5q-209 0 -340 133.5t-131 345.5q0 211 128 341t324 130q53 0 95 -29h6q-43 64 -117 135zM664 457q0 97 -41 155t-115 58
q-72 0 -113 -58t-41 -155q0 -95 41 -153t113 -58q74 0 115 57.5t41 153.5z" />
    <glyph glyph-name="ntilde" unicode="&#xf1;" horiz-adv-x="1062" 
d="M674 1325h176q0 -88 -16 -154t-57.5 -109.5t-106.5 -43.5q-40 0 -77 18.5t-68 37t-58 18.5q-24 0 -37.5 -18.5t-13.5 -49.5h-176q0 88 16 154t57.5 109.5t106.5 43.5q51 0 113 -37t90 -37q23 0 37 18.5t14 49.5zM86 0v922h322v-80q40 45 105 72.5t142 27.5
q152 0 239 -91.5t87 -246.5v-604h-319v526q0 59 -31 95t-90 36q-48 0 -84.5 -27t-48.5 -73v-557h-322z" />
    <glyph glyph-name="ograve" unicode="&#xf2;" horiz-adv-x="1017" 
d="M664 1024h-295l-179 307h306zM979 461q0 -214 -130.5 -347.5t-340.5 -133.5q-209 0 -340 133.5t-131 347.5t131 347.5t340 133.5q210 0 340.5 -133.5t130.5 -347.5zM664 461q0 97 -41.5 157t-114.5 60q-72 0 -113 -60t-41 -157t41 -156t113 -59q74 0 115 59t41 156z" />
    <glyph glyph-name="oacute" unicode="&#xf3;" horiz-adv-x="1017" 
d="M647 1024h-295l168 307h305zM979 461q0 -214 -130.5 -347.5t-340.5 -133.5q-209 0 -340 133.5t-131 347.5t131 347.5t340 133.5q210 0 340.5 -133.5t130.5 -347.5zM664 461q0 97 -41.5 157t-114.5 60q-72 0 -113 -60t-41 -157t41 -156t113 -59q74 0 115 59t41 156z" />
    <glyph glyph-name="ocircumflex" unicode="&#xf4;" horiz-adv-x="1017" 
d="M631 1329l196 -309h-237l-82 113l-82 -113h-238l197 309h246zM979 461q0 -214 -130.5 -347.5t-340.5 -133.5q-209 0 -340 133.5t-131 347.5t131 347.5t340 133.5q210 0 340.5 -133.5t130.5 -347.5zM664 461q0 97 -41.5 157t-114.5 60q-72 0 -113 -60t-41 -157t41 -156
t113 -59q74 0 115 59t41 156z" />
    <glyph glyph-name="otilde" unicode="&#xf5;" horiz-adv-x="1017" 
d="M637 1325h176q0 -88 -16 -154t-57.5 -109.5t-106.5 -43.5q-51 0 -112 37t-91 37q-24 0 -37.5 -18.5t-13.5 -49.5h-176q0 88 16 154t57.5 109.5t106.5 43.5q51 0 113 -37t90 -37q23 0 37 18.5t14 49.5zM979 461q0 -214 -130.5 -347.5t-340.5 -133.5q-209 0 -340 133.5
t-131 347.5t131 347.5t340 133.5q210 0 340.5 -133.5t130.5 -347.5zM664 461q0 97 -41.5 157t-114.5 60q-72 0 -113 -60t-41 -157t41 -156t113 -59q74 0 115 59t41 156z" />
    <glyph glyph-name="odieresis" unicode="&#xf6;" horiz-adv-x="1017" 
d="M170 1161q0 66 46.5 112t111.5 46t111 -46t46 -112q0 -64 -46 -109.5t-111 -45.5t-111.5 45.5t-46.5 109.5zM532 1161q0 66 45.5 112t110.5 46t112.5 -46.5t47.5 -111.5q0 -64 -47.5 -109.5t-112.5 -45.5t-110.5 45.5t-45.5 109.5zM979 461q0 -214 -130.5 -347.5
t-340.5 -133.5q-209 0 -340 133.5t-131 347.5t131 347.5t340 133.5q210 0 340.5 -133.5t130.5 -347.5zM664 461q0 97 -41.5 157t-114.5 60q-72 0 -113 -60t-41 -157t41 -156t113 -59q74 0 115 59t41 156z" />
    <glyph glyph-name="divide" unicode="&#xf7;" horiz-adv-x="1138" 
d="M406 981q0 67 47.5 114.5t115.5 47.5q69 0 117.5 -47.5t48.5 -114.5t-48.5 -114.5t-117.5 -47.5q-68 0 -115.5 47.5t-47.5 114.5zM104 494v237h930v-237h-930zM406 244q0 67 47.5 114.5t115.5 47.5q69 0 117.5 -47.5t48.5 -114.5t-48.5 -114.5t-117.5 -47.5
q-68 0 -115.5 47.5t-47.5 114.5z" />
    <glyph glyph-name="oslash" unicode="&#xf8;" horiz-adv-x="1038" 
d="M61 37l93 102q-107 132 -107 322q0 214 131 347.5t340 133.5q158 0 277 -80l86 96l92 -75l-90 -103q106 -128 106 -319q0 -214 -130.5 -347.5t-340.5 -133.5q-158 0 -276 79l-88 -98zM358 461q0 -43 9 -80l241 270q-41 33 -90 33q-72 0 -116 -63t-44 -160zM680 461
q0 38 -10 80l-242 -271q40 -32 90 -32q74 0 118 63t44 160z" />
    <glyph glyph-name="ugrave" unicode="&#xf9;" horiz-adv-x="1058" 
d="M684 1024h-295l-178 307h305zM973 922v-922h-322v80q-38 -44 -103.5 -72t-141.5 -28q-151 0 -237.5 91t-86.5 246v605h319v-529q0 -61 30 -97t89 -36q45 0 82 28t49 74v560h322z" />
    <glyph glyph-name="uacute" unicode="&#xfa;" horiz-adv-x="1058" 
d="M668 1024h-295l168 307h305zM973 922v-922h-322v80q-38 -44 -103.5 -72t-141.5 -28q-151 0 -237.5 91t-86.5 246v605h319v-529q0 -61 30 -97t89 -36q45 0 82 28t49 74v560h322z" />
    <glyph glyph-name="ucircumflex" unicode="&#xfb;" horiz-adv-x="1058" 
d="M651 1329l197 -309h-238l-82 113l-82 -113h-237l197 309h245zM973 922v-922h-322v80q-38 -44 -103.5 -72t-141.5 -28q-151 0 -237.5 91t-86.5 246v605h319v-529q0 -61 30 -97t89 -36q45 0 82 28t49 74v560h322z" />
    <glyph glyph-name="udieresis" unicode="&#xfc;" horiz-adv-x="1058" 
d="M190 1161q0 66 46.5 112t111.5 46t111.5 -46t46.5 -112q0 -64 -46.5 -109.5t-111.5 -45.5t-111.5 45.5t-46.5 109.5zM553 1161q0 66 45.5 112t110.5 46t112 -46t47 -112q0 -64 -47 -109.5t-112 -45.5t-110.5 45.5t-45.5 109.5zM973 922v-922h-322v80q-38 -44 -103.5 -72
t-141.5 -28q-151 0 -237.5 91t-86.5 246v605h319v-529q0 -61 30 -97t89 -36q45 0 82 28t49 74v560h322z" />
    <glyph glyph-name="yacute" unicode="&#xfd;" horiz-adv-x="1028" 
d="M664 1024h-295l168 307h305zM541 -326h-318l135 349l-344 899h334l176 -525l172 525h320z" />
    <glyph glyph-name="thorn" unicode="&#xfe;" horiz-adv-x="1083" 
d="M408 74v-400h-322v1657h322v-483q34 39 97 66.5t130 27.5q129 0 224 -66t141.5 -173.5t46.5 -241.5q0 -205 -110 -343t-302 -138q-67 0 -130 27.5t-97 66.5zM408 584v-244q19 -39 57.5 -62.5t83.5 -23.5q82 0 129 58t47 149q0 92 -47.5 150.5t-128.5 58.5q-46 0 -84 -24
t-57 -62z" />
    <glyph glyph-name="ydieresis" unicode="&#xff;" horiz-adv-x="1028" 
d="M186 1161q0 66 46.5 112t111.5 46t111.5 -46t46.5 -112q0 -64 -46.5 -109.5t-111.5 -45.5t-111.5 45.5t-46.5 109.5zM549 1161q0 66 45.5 112t110.5 46t112 -46t47 -112q0 -64 -47 -109.5t-112 -45.5t-110.5 45.5t-45.5 109.5zM541 -326h-318l135 349l-344 899h334
l176 -525l172 525h320z" />
    <glyph glyph-name="Amacron" unicode="&#x100;" horiz-adv-x="1323" 
d="M391 1364v221h543v-221h-543zM494 1257h335l480 -1257h-334l-90 244h-457l-88 -244h-326zM657 868l-129 -354h258z" />
    <glyph glyph-name="amacron" unicode="&#x101;" horiz-adv-x="978" 
d="M252 1032v221h518v-221h-518zM907 0h-309v47q-25 -25 -88 -44t-133 -19q-144 0 -240 78.5t-96 218.5q0 131 100.5 211.5t253.5 80.5q56 0 115.5 -15t87.5 -36v60q0 47 -28.5 78.5t-84.5 31.5q-85 0 -108 -67h-303q21 138 135 228.5t287 90.5q196 0 303.5 -99.5
t107.5 -279.5v-565zM598 258v53q-15 29 -52.5 46.5t-82.5 17.5q-52 0 -89.5 -22.5t-37.5 -65.5q0 -44 37.5 -67t89.5 -23q45 0 82.5 17t52.5 44z" />
    <glyph glyph-name="Abreve" unicode="&#x102;" horiz-adv-x="1323" 
d="M662 1348q-133 0 -214 77.5t-81 221.5h221q0 -42 19.5 -64t54.5 -22q73 0 73 86h221q0 -144 -80.5 -221.5t-213.5 -77.5zM494 1257h335l480 -1257h-334l-90 244h-457l-88 -244h-326zM657 868l-129 -354h258z" />
    <glyph glyph-name="abreve" unicode="&#x103;" horiz-adv-x="978" 
d="M508 999q-132 0 -212.5 80t-80.5 228h221q0 -46 18.5 -71.5t53.5 -25.5q74 0 74 97h219q0 -148 -80.5 -228t-212.5 -80zM907 0h-309v47q-25 -25 -88 -44t-133 -19q-144 0 -240 78.5t-96 218.5q0 131 100.5 211.5t253.5 80.5q56 0 115.5 -15t87.5 -36v60q0 47 -28.5 78.5
t-84.5 31.5q-85 0 -108 -67h-303q21 138 135 228.5t287 90.5q196 0 303.5 -99.5t107.5 -279.5v-565zM598 258v53q-15 29 -52.5 46.5t-82.5 17.5q-52 0 -89.5 -22.5t-37.5 -65.5q0 -44 37.5 -67t89.5 -23q45 0 82.5 17t52.5 44z" />
    <glyph glyph-name="Aogonek" unicode="&#x104;" horiz-adv-x="1323" 
d="M494 1257h335l480 -1257q-14 -17 -32 -38t-26.5 -30.5t-19 -22.5t-14.5 -19.5t-8.5 -15t-5.5 -14.5t-1 -14q0 -17 11 -28t30 -11q21 0 72 31v-178q-63 -39 -133 -39q-84 0 -136.5 42.5t-52.5 119.5q0 54 27.5 101.5t85.5 115.5h-131l-90 244h-457l-88 -244h-326zM657 868
l-129 -354h258z" />
    <glyph glyph-name="aogonek" unicode="&#x105;" horiz-adv-x="978" 
d="M705 0h-107v47q-25 -25 -88 -44t-133 -19q-144 0 -240 78.5t-96 218.5q0 131 100.5 211.5t253.5 80.5q56 0 115.5 -15t87.5 -36v60q0 47 -28.5 78.5t-84.5 31.5q-87 0 -110 -67h-301q21 138 135 228.5t287 90.5q196 0 303.5 -99.5t107.5 -279.5v-565q-10 -12 -27 -32
q-50 -59 -63.5 -79.5t-13.5 -42.5q0 -18 10.5 -28.5t28.5 -10.5q6 0 12 1t10 2.5t11 5t10.5 5.5t13 8t14.5 9v-178q-59 -39 -133 -39q-84 0 -136 42.5t-52 119.5q0 38 18 78t36.5 65.5t58.5 73.5zM598 258v53q-15 29 -52.5 46.5t-82.5 17.5q-52 0 -89.5 -22.5t-37.5 -65.5
q0 -44 37.5 -67t89.5 -23q45 0 82.5 17t52.5 44z" />
    <glyph glyph-name="Cacute" unicode="&#x106;" horiz-adv-x="1234" 
d="M815 1364h-315l168 266h329zM45 629q0 285 170 467t434 182q227 0 367.5 -121t175.5 -321h-328q-55 153 -215 153q-127 0 -199.5 -100t-72.5 -260q0 -159 72.5 -260t199.5 -101q160 0 215 156h328q-35 -201 -175.5 -322.5t-367.5 -121.5q-264 0 -434 182t-170 467z" />
    <glyph glyph-name="cacute" unicode="&#x107;" horiz-adv-x="964" 
d="M643 1024h-295l168 307h305zM37 461q0 214 129 347.5t336 133.5q182 0 294.5 -98.5t133.5 -263.5h-312q-6 43 -37 69.5t-79 26.5q-68 0 -108 -58.5t-40 -156.5t40 -155.5t108 -57.5q48 0 79 26t37 68h312q-21 -164 -133.5 -263t-294.5 -99q-207 0 -336 133.5t-129 347.5z
" />
    <glyph glyph-name="Ccircumflex" unicode="&#x108;" horiz-adv-x="1234" 
d="M784 1634l222 -270h-258l-86 92l-87 -92h-258l222 270h245zM45 629q0 285 170 467t434 182q227 0 367.5 -121t175.5 -321h-328q-55 153 -215 153q-127 0 -199.5 -100t-72.5 -260q0 -159 72.5 -260t199.5 -101q160 0 215 156h328q-35 -201 -175.5 -322.5t-367.5 -121.5
q-264 0 -434 182t-170 467z" />
    <glyph glyph-name="ccircumflex" unicode="&#x109;" horiz-adv-x="964" 
d="M629 1329l196 -309h-237l-82 113l-82 -113h-238l197 309h246zM37 461q0 214 129 347.5t336 133.5q182 0 294.5 -98.5t133.5 -263.5h-312q-6 43 -37 69.5t-79 26.5q-68 0 -108 -58.5t-40 -156.5t40 -155.5t108 -57.5q48 0 79 26t37 68h312q-21 -164 -133.5 -263
t-294.5 -99q-207 0 -336 133.5t-129 347.5z" />
    <glyph glyph-name="Cdotaccent" unicode="&#x10a;" horiz-adv-x="1234" 
d="M840 1522q0 -77 -53.5 -125.5t-129.5 -48.5t-129 48.5t-53 125.5q0 76 53 124t129 48t129.5 -48t53.5 -124zM45 629q0 285 170 467t434 182q227 0 367.5 -121t175.5 -321h-328q-55 153 -215 153q-127 0 -199.5 -100t-72.5 -260q0 -159 72.5 -260t199.5 -101
q160 0 215 156h328q-35 -201 -175.5 -322.5t-367.5 -121.5q-264 0 -434 182t-170 467z" />
    <glyph glyph-name="cdotaccent" unicode="&#x10b;" horiz-adv-x="964" 
d="M688 1186q0 -76 -53 -124t-129 -48t-129 48t-53 124q0 77 53 125.5t129 48.5t129 -48.5t53 -125.5zM37 461q0 214 129 347.5t336 133.5q182 0 294.5 -98.5t133.5 -263.5h-312q-6 43 -37 69.5t-79 26.5q-68 0 -108 -58.5t-40 -156.5t40 -155.5t108 -57.5q48 0 79 26t37 68
h312q-21 -164 -133.5 -263t-294.5 -99q-207 0 -336 133.5t-129 347.5z" />
    <glyph glyph-name="Ccaron" unicode="&#x10c;" horiz-adv-x="1234" 
d="M537 1358l-222 272h258l86 -94l86 94h259l-222 -272h-245zM45 629q0 285 170 467t434 182q227 0 367.5 -121t175.5 -321h-328q-55 153 -215 153q-127 0 -199.5 -100t-72.5 -260q0 -159 72.5 -260t199.5 -101q160 0 215 156h328q-35 -201 -175.5 -322.5t-367.5 -121.5
q-264 0 -434 182t-170 467z" />
    <glyph glyph-name="ccaron" unicode="&#x10d;" horiz-adv-x="964" 
d="M825 1329l-196 -309h-246l-197 309h238l82 -115l82 115h237zM37 461q0 214 129 347.5t336 133.5q182 0 294.5 -98.5t133.5 -263.5h-312q-6 43 -37 69.5t-79 26.5q-68 0 -108 -58.5t-40 -156.5t40 -155.5t108 -57.5q48 0 79 26t37 68h312q-21 -164 -133.5 -263t-294.5 -99
q-207 0 -336 133.5t-129 347.5z" />
    <glyph glyph-name="Dcaron" unicode="&#x10e;" horiz-adv-x="1247" 
d="M434 1358l-221 272h258l86 -94l86 94h258l-221 -272h-246zM94 0v1257h475q295 0 465 -169.5t170 -458.5t-170 -459t-465 -170h-475zM418 285h135q155 0 240.5 92t85.5 252q0 161 -85.5 253.5t-240.5 92.5h-135v-690z" />
    <glyph glyph-name="dcaron" unicode="&#x10f;" horiz-adv-x="1083" 
d="M676 0v74q-34 -39 -97 -66.5t-130 -27.5q-129 0 -224 65.5t-141.5 173t-46.5 242.5t46.5 242.5t141.5 173t224 65.5q67 0 130 -27.5t97 -66.5v483h321v-1331h-321zM1307 989h-248l88 342h250zM676 340v244q-19 38 -57.5 62t-83.5 24q-81 0 -129 -59t-48 -150t47.5 -149
t129.5 -58q46 0 84 23.5t57 62.5z" />
    <glyph glyph-name="Dcroat" unicode="&#x110;" horiz-adv-x="1282" 
d="M35 514v254h94v489h475q295 0 465 -169.5t170 -458.5t-170 -459t-465 -170h-475v514h-94zM453 285h135q155 0 240 92t85 252q0 162 -85 254t-240 92h-135v-207h178v-254h-178v-229z" />
    <glyph glyph-name="dcroat" unicode="&#x111;" horiz-adv-x="1083" 
d="M508 1004v208h168v119h321v-119h97v-208h-97v-1004h-321v74q-34 -39 -97 -66.5t-130 -27.5q-129 0 -224 65.5t-141.5 173t-46.5 242.5t46.5 242.5t141.5 173t224 65.5q67 0 130 -27.5t97 -66.5v156h-168zM676 340v244q-19 38 -57.5 62t-83.5 24q-81 0 -129 -59t-48 -150
t47.5 -149t129.5 -58q46 0 84 23.5t57 62.5z" />
    <glyph glyph-name="Emacron" unicode="&#x112;" horiz-adv-x="1062" 
d="M285 1364v221h542v-221h-542zM94 1257h899v-282h-575v-197h526v-276h-526v-217h575v-285h-899v1257z" />
    <glyph glyph-name="emacron" unicode="&#x113;" horiz-adv-x="978" 
d="M252 1032v221h518v-221h-518zM641 322h297q-25 -160 -139 -251t-293 -91q-212 0 -340.5 132.5t-128.5 348.5q0 212 131 346.5t332 134.5q208 0 325 -126.5t117 -336.5v-80h-596q7 -83 49 -126.5t111 -43.5q108 0 135 93zM500 692q-57 0 -95 -34t-53 -99h279q-3 59 -38 96
t-93 37z" />
    <glyph glyph-name="Ebreve" unicode="&#x114;" horiz-adv-x="1062" 
d="M555 1348q-133 0 -214 77.5t-81 221.5h221q0 -42 19.5 -64t54.5 -22q74 0 74 86h221q0 -144 -81 -221.5t-214 -77.5zM94 1257h899v-282h-575v-197h526v-276h-526v-217h575v-285h-899v1257z" />
    <glyph glyph-name="ebreve" unicode="&#x115;" horiz-adv-x="978" 
d="M510 999q-132 0 -212.5 80t-80.5 228h221q0 -46 18.5 -71.5t53.5 -25.5q74 0 74 97h219q0 -148 -80.5 -228t-212.5 -80zM641 322h297q-25 -160 -139 -251t-293 -91q-212 0 -340.5 132.5t-128.5 348.5q0 212 131 346.5t332 134.5q208 0 325 -126.5t117 -336.5v-80h-596
q7 -83 49 -126.5t111 -43.5q108 0 135 93zM500 692q-57 0 -95 -34t-53 -99h279q-3 59 -38 96t-93 37z" />
    <glyph glyph-name="Edotaccent" unicode="&#x116;" horiz-adv-x="1062" 
d="M737 1522q0 -77 -53 -125.5t-129 -48.5t-129 48.5t-53 125.5q0 76 53 124t129 48t129 -48t53 -124zM94 1257h899v-282h-575v-197h526v-276h-526v-217h575v-285h-899v1257z" />
    <glyph glyph-name="edotaccent" unicode="&#x117;" horiz-adv-x="978" 
d="M692 1186q0 -76 -53 -124t-129 -48t-129 48t-53 124q0 77 53 125.5t129 48.5t129 -48.5t53 -125.5zM641 322h297q-25 -160 -139 -251t-293 -91q-212 0 -340.5 132.5t-128.5 348.5q0 212 131 346.5t332 134.5q208 0 325 -126.5t117 -336.5v-80h-596q7 -83 49 -126.5
t111 -43.5q108 0 135 93zM500 692q-57 0 -95 -34t-53 -99h279q-3 59 -38 96t-93 37z" />
    <glyph glyph-name="Eogonek" unicode="&#x118;" horiz-adv-x="1062" 
d="M94 1257h899v-282h-575v-197h526v-276h-526v-217h575v-285h-71q-83 -99 -94 -120q-9 -18 -9 -34q0 -18 10.5 -28.5t28.5 -10.5q5 0 10 0.5t10 2.5t8.5 3t9.5 4.5t9.5 5.5t12 7t12.5 8v-178q-63 -39 -133 -39q-84 0 -136.5 42.5t-52.5 119.5q0 54 28.5 102.5t86.5 114.5
h-629v1257z" />
    <glyph glyph-name="eogonek" unicode="&#x119;" horiz-adv-x="978" 
d="M539 -18q-8 -2 -33 -2q-212 0 -340.5 132.5t-128.5 348.5q0 212 131 346.5t332 134.5q208 0 325 -126.5t117 -336.5v-80h-596q7 -83 49 -126.5t111 -43.5q108 0 135 93h297q-16 -145 -135 -254q-152 -137 -152 -220q0 -41 41 -41q5 0 10 0.5t10 2.5t8.5 3t9.5 4.5
t9.5 5.5t12 7t12.5 8v-178q-63 -39 -133 -39q-84 0 -137.5 43.5t-53.5 120.5q0 50 25 96t74 101zM500 692q-57 0 -95 -34t-53 -99h279q-3 59 -38 96t-93 37z" />
    <glyph glyph-name="Ecaron" unicode="&#x11a;" horiz-adv-x="1062" 
d="M436 1358l-221 272h258l86 -94l86 94h258l-221 -272h-246zM94 1257h899v-282h-575v-197h526v-276h-526v-217h575v-285h-899v1257z" />
    <glyph glyph-name="ecaron" unicode="&#x11b;" horiz-adv-x="978" 
d="M829 1329l-196 -309h-246l-197 309h238l82 -115l82 115h237zM641 322h297q-25 -160 -139 -251t-293 -91q-212 0 -340.5 132.5t-128.5 348.5q0 212 131 346.5t332 134.5q208 0 325 -126.5t117 -336.5v-80h-596q7 -83 49 -126.5t111 -43.5q108 0 135 93zM500 692
q-57 0 -95 -34t-53 -99h279q-3 59 -38 96t-93 37z" />
    <glyph glyph-name="Gcircumflex" unicode="&#x11c;" horiz-adv-x="1275" 
d="M791 1634l221 -270h-258l-86 92l-86 -92h-258l221 270h246zM905 426h-194v246h520v-125q0 -259 -155 -413t-408 -154q-274 0 -448.5 181t-174.5 468q0 286 174 467.5t445 181.5q234 0 377 -120.5t180 -321.5h-336q-56 153 -221 153q-134 0 -210.5 -100t-76.5 -260
q0 -163 78.5 -262t212.5 -99q92 0 152.5 42t84.5 116z" />
    <glyph glyph-name="gcircumflex" unicode="&#x11d;" horiz-adv-x="1067" 
d="M694 1329l197 -309h-238l-82 113l-82 -113h-237l197 309h245zM664 63v66q-34 -39 -91 -64.5t-129 -25.5q-188 0 -297.5 128t-109.5 325q0 195 109.5 322.5t297.5 127.5q73 0 130 -25t90 -65v70h317v-789q0 -235 -130 -357t-349 -122q-187 0 -309 88t-146 246h309
q27 -99 146 -99q162 0 162 174zM664 373v237q-20 33 -57.5 55.5t-82.5 22.5q-78 0 -124 -54t-46 -142q0 -89 45.5 -143t124.5 -54q45 0 82.5 22t57.5 56z" />
    <glyph glyph-name="Gbreve" unicode="&#x11e;" horiz-adv-x="1275" 
d="M670 1348q-133 0 -214 77.5t-81 221.5h221q0 -42 19.5 -64t54.5 -22q73 0 73 86h222q0 -144 -81 -221.5t-214 -77.5zM905 426h-194v246h520v-125q0 -259 -155 -413t-408 -154q-274 0 -448.5 181t-174.5 468q0 286 174 467.5t445 181.5q234 0 377 -120.5t180 -321.5h-336
q-56 153 -221 153q-134 0 -210.5 -100t-76.5 -260q0 -163 78.5 -262t212.5 -99q92 0 152.5 42t84.5 116z" />
    <glyph glyph-name="gbreve" unicode="&#x11f;" horiz-adv-x="1067" 
d="M571 999q-132 0 -212 80t-80 228h221q0 -97 71 -97q74 0 74 97h219q0 -148 -80.5 -228t-212.5 -80zM664 63v66q-34 -39 -91 -64.5t-129 -25.5q-188 0 -297.5 128t-109.5 325q0 195 109.5 322.5t297.5 127.5q73 0 130 -25t90 -65v70h317v-789q0 -235 -130 -357t-349 -122
q-187 0 -309 88t-146 246h309q27 -99 146 -99q162 0 162 174zM664 373v237q-20 33 -57.5 55.5t-82.5 22.5q-78 0 -124 -54t-46 -142q0 -89 45.5 -143t124.5 -54q45 0 82.5 22t57.5 56z" />
    <glyph glyph-name="Gdotaccent" unicode="&#x120;" horiz-adv-x="1275" 
d="M852 1522q0 -77 -53 -125.5t-129 -48.5t-129.5 48.5t-53.5 125.5q0 76 53.5 124t129.5 48t129 -48t53 -124zM905 426h-194v246h520v-125q0 -259 -155 -413t-408 -154q-274 0 -448.5 181t-174.5 468q0 286 174 467.5t445 181.5q234 0 377 -120.5t180 -321.5h-336
q-56 153 -221 153q-134 0 -210.5 -100t-76.5 -260q0 -163 78.5 -262t212.5 -99q92 0 152.5 42t84.5 116z" />
    <glyph glyph-name="gdotaccent" unicode="&#x121;" horiz-adv-x="1067" 
d="M754 1186q0 -76 -53.5 -124t-129.5 -48t-129 48t-53 124q0 77 53 125.5t129 48.5t129.5 -48.5t53.5 -125.5zM664 63v66q-34 -39 -91 -64.5t-129 -25.5q-188 0 -297.5 128t-109.5 325q0 195 109.5 322.5t297.5 127.5q73 0 130 -25t90 -65v70h317v-789q0 -235 -130 -357
t-349 -122q-187 0 -309 88t-146 246h309q27 -99 146 -99q162 0 162 174zM664 373v237q-20 33 -57.5 55.5t-82.5 22.5q-78 0 -124 -54t-46 -142q0 -89 45.5 -143t124.5 -54q45 0 82.5 22t57.5 56z" />
    <glyph glyph-name="uni0122" unicode="&#x122;" horiz-adv-x="1275" 
d="M905 426h-194v246h520v-125q0 -259 -155 -413t-408 -154q-274 0 -448.5 181t-174.5 468q0 286 174 467.5t445 181.5q234 0 377 -120.5t180 -321.5h-336q-56 153 -221 153q-134 0 -210.5 -100t-76.5 -260q0 -163 78.5 -262t212.5 -99q92 0 152.5 42t84.5 116zM496 -483
l100 131q-42 13 -70 49t-28 88q0 64 47.5 105.5t118.5 41.5q69 0 117 -43.5t48 -115.5q0 -82 -79 -179l-60 -77h-194z" />
    <glyph glyph-name="uni0123" unicode="&#x123;" horiz-adv-x="1067" 
d="M737 1425l-106 -137q44 -13 72 -49.5t28 -89.5q0 -64 -48 -107t-120 -43q-69 0 -117.5 44t-48.5 118q0 81 80 182l64 82h196zM664 63v66q-34 -39 -91 -64.5t-129 -25.5q-188 0 -297.5 128t-109.5 325q0 195 109.5 322.5t297.5 127.5q73 0 130 -25t90 -65v70h317v-789
q0 -235 -130 -357t-349 -122q-187 0 -309 88t-146 246h309q27 -99 146 -99q162 0 162 174zM664 373v237q-20 33 -57.5 55.5t-82.5 22.5q-78 0 -124 -54t-46 -142q0 -89 45.5 -143t124.5 -54q45 0 82.5 22t57.5 56z" />
    <glyph glyph-name="Hcircumflex" unicode="&#x124;" horiz-adv-x="1331" 
d="M788 1634l222 -270h-258l-86 92l-86 -92h-258l221 270h245zM909 1257h330v-1257h-330v498h-485v-498h-330v1257h330v-477h485v477z" />
    <glyph glyph-name="hcircumflex" unicode="&#x125;" horiz-adv-x="1062" 
d="M649 1663l221 -270h-258l-86 92l-86 -92h-258l221 270h246zM86 0v1331h322v-489q40 45 105 72.5t142 27.5q152 0 239 -91.5t87 -246.5v-604h-319v526q0 59 -31 95t-90 36q-48 0 -84.5 -27t-48.5 -73v-557h-322z" />
    <glyph glyph-name="Hbar" unicode="&#x126;" horiz-adv-x="1398" 
d="M35 842v252h92v163h330v-163h485v163h330v-163h92v-252h-92v-842h-330v406h-485v-406h-330v842h-92zM457 657h485v185h-485v-185z" />
    <glyph glyph-name="hbar" unicode="&#x127;" horiz-adv-x="1062" 
d="M-10 1004v208h96v119h322v-119h167v-208h-167v-162q40 45 105 72.5t142 27.5q152 0 239 -91.5t87 -246.5v-604h-319v526q0 59 -31 95t-90 36q-48 0 -84.5 -27t-48.5 -73v-557h-322v1004h-96z" />
    <glyph glyph-name="Itilde" unicode="&#x128;" horiz-adv-x="518" 
d="M406 1657h174q0 -88 -16.5 -154t-58 -109.5t-106.5 -43.5q-53 0 -128 35.5t-107 35.5q-50 0 -53 -63h-174q0 64 9.5 117.5t29.5 97t56 68t85 24.5q53 0 128 -36t107 -36q51 0 54 64zM424 1257v-1257h-330v1257h330z" />
    <glyph glyph-name="itilde" unicode="&#x129;" horiz-adv-x="495" 
d="M348 1325h164q0 -138 -37.5 -222.5t-120.5 -84.5q-35 0 -64.5 18t-54 36t-45.5 18q-42 0 -45 -66h-163q0 138 37 222.5t120 84.5q28 0 52.5 -11t39.5 -24.5t34.5 -24.5t37.5 -11q42 0 45 65zM408 922v-922h-322v922h322z" />
    <glyph glyph-name="Imacron" unicode="&#x12a;" horiz-adv-x="518" 
d="M-12 1364v221h542v-221h-542zM424 1257v-1257h-330v1257h330z" />
    <glyph glyph-name="imacron" unicode="&#x12b;" horiz-adv-x="495" 
d="M18 1032v221h455v-221h-455zM408 922v-922h-322v922h322z" />
    <glyph glyph-name="Ibreve" unicode="&#x12c;" horiz-adv-x="518" 
d="M260 1348q-133 0 -214 77.5t-81 221.5h221q0 -42 19.5 -64t54.5 -22q74 0 74 86h221q0 -144 -81 -221.5t-214 -77.5zM424 1257v-1257h-330v1257h330z" />
    <glyph glyph-name="ibreve" unicode="&#x12d;" horiz-adv-x="495" 
d="M246 999q-118 0 -189 80t-71 228h200q0 -97 62 -97q32 0 45.5 24.5t13.5 72.5h203q0 -148 -72.5 -228t-191.5 -80zM408 922v-922h-322v922h322z" />
    <glyph glyph-name="Iogonek" unicode="&#x12e;" horiz-adv-x="518" 
d="M424 1257v-1257q-14 -17 -32 -38t-26.5 -30.5t-19 -22.5t-14.5 -19.5t-8.5 -15t-5.5 -14.5t-1 -14q0 -17 11 -28t30 -11q21 0 72 31v-178q-63 -39 -133 -39q-84 0 -136 42.5t-52 119.5q0 54 27.5 102t84.5 115h-127v1257h330z" />
    <glyph glyph-name="iogonek" unicode="&#x12f;" horiz-adv-x="495" 
d="M430 1171q0 -76 -53 -124t-129 -48t-129 48t-53 124q0 77 53 126t129 49t129 -49t53 -126zM408 922v-922q-11 -13 -25.5 -30t-22 -25.5t-17 -20.5t-14 -18t-10 -14t-8 -13t-5 -11t-3 -11t-0.5 -11q0 -18 10.5 -28.5t28.5 -10.5q12 0 24.5 4.5t19.5 8.5t30 18v-178
q-63 -39 -135 -39q-83 0 -136 42.5t-53 119.5q0 38 18 78t36.5 65.5t58.5 73.5h-119v922h322z" />
    <glyph glyph-name="Idotaccent" unicode="&#x130;" horiz-adv-x="518" 
d="M440 1522q0 -77 -53 -125.5t-129 -48.5t-129 48.5t-53 125.5q0 76 53 124t129 48t129 -48t53 -124zM424 1257v-1257h-330v1257h330z" />
    <glyph glyph-name="dotlessi" unicode="&#x131;" horiz-adv-x="495" 
d="M408 922v-922h-322v922h322z" />
    <glyph glyph-name="IJ" unicode="&#x132;" horiz-adv-x="1554" 
d="M424 1257v-1257h-330v1257h330zM479 444h334q5 -82 47 -126t117 -44q89 0 129.5 52.5t40.5 158.5v772h330v-774q0 -169 -65.5 -284t-175.5 -167t-257 -52q-226 0 -358.5 127t-141.5 337z" />
    <glyph glyph-name="ij" unicode="&#x133;" horiz-adv-x="989" 
d="M430 1171q0 -76 -53 -124t-129 -48t-129 48t-53 124q0 77 53 126t129 49t129 -49t53 -126zM926 1171q0 -76 -53.5 -124t-129.5 -48t-129 48t-53 124q0 77 53 126t129 49t129.5 -49t53.5 -126zM408 922v-922h-322v922h322zM903 922v-902q0 -175 -90 -270.5t-260 -95.5
q-76 0 -117 14v242q24 -4 47 -4q51 0 75 23t24 79v914h321z" />
    <glyph glyph-name="Jcircumflex" unicode="&#x134;" horiz-adv-x="1107" 
d="M987 1634l221 -270h-258l-86 92l-86 -92h-258l221 270h246zM31 444h334q5 -82 46.5 -126t116.5 -44q89 0 129.5 52.5t40.5 158.5v772h330v-774q0 -169 -65.5 -284t-175.5 -167t-257 -52q-226 0 -358 127t-141 337z" />
    <glyph glyph-name="jcircumflex" unicode="&#x135;" horiz-adv-x="493" 
d="M371 1329l161 -309h-229l-55 123l-58 -123h-227l162 309h246zM408 922v-902q0 -175 -90.5 -270.5t-260.5 -95.5q-75 0 -116 14v242q24 -4 47 -4q51 0 74.5 23t23.5 79v914h322z" />
    <glyph glyph-name="uni0136" unicode="&#x136;" horiz-adv-x="1245" 
d="M424 1257v-516l405 516h385l-440 -552l459 -705h-387l-318 483l-104 -133v-350h-330v1257h330zM436 -483l101 131q-42 13 -70.5 49.5t-28.5 87.5q0 64 47.5 105.5t118.5 41.5q69 0 117.5 -43.5t48.5 -115.5q0 -48 -20.5 -89.5t-59.5 -89.5l-59 -77h-195z" />
    <glyph glyph-name="uni0137" unicode="&#x137;" horiz-adv-x="1071" 
d="M694 0l-225 342l-61 -72v-270h-322v1331h322v-704l258 295h387l-351 -383l361 -539h-369zM350 -483l101 131q-42 13 -70.5 49.5t-28.5 87.5q0 64 47.5 105.5t118.5 41.5q69 0 117.5 -43.5t48.5 -115.5q0 -48 -20.5 -89.5t-59.5 -89.5l-59 -77h-195z" />
    <glyph glyph-name="kgreenlandic" unicode="&#x138;" horiz-adv-x="1071" 
d="M694 0l-225 342l-61 -72v-270h-322v922h322v-295l258 295h387l-351 -383l361 -539h-369z" />
    <glyph glyph-name="Lacute" unicode="&#x139;" horiz-adv-x="1044" 
d="M430 1364h-315l168 266h329zM94 0v1257h330v-972h563v-285h-893z" />
    <glyph glyph-name="lacute" unicode="&#x13a;" horiz-adv-x="495" 
d="M401 1403h-315l168 266h330zM408 1331v-1331h-322v1331h322z" />
    <glyph glyph-name="uni013B" unicode="&#x13b;" horiz-adv-x="1044" 
d="M94 0v1257h330v-972h563v-285h-893zM379 -483l100 131q-42 13 -70 49t-28 88q0 64 47.5 105.5t118.5 41.5q69 0 117.5 -43.5t48.5 -115.5q0 -48 -20.5 -89.5t-59.5 -89.5l-60 -77h-194z" />
    <glyph glyph-name="uni013C" unicode="&#x13c;" horiz-adv-x="495" 
d="M408 1331v-1331h-322v1331h322zM78 -483l100 131q-42 13 -70 49t-28 88q0 64 47.5 105.5t118.5 41.5q69 0 117.5 -43.5t48.5 -115.5q0 -48 -20.5 -89.5t-59.5 -89.5l-60 -77h-194z" />
    <glyph glyph-name="Lcaron" unicode="&#x13d;" horiz-adv-x="1044" 
d="M94 0v1257h330v-972h563v-285h-893zM793 915h-248l88 342h250z" />
    <glyph glyph-name="lcaron" unicode="&#x13e;" horiz-adv-x="495" 
d="M408 1331v-1331h-322v1331h322zM719 989h-248l88 342h250z" />
    <glyph glyph-name="Ldot" unicode="&#x13f;" horiz-adv-x="1044" 
d="M94 0v1257h330v-972h563v-285h-893zM948 709q0 -76 -53 -124t-129 -48t-129 48t-53 124q0 77 53 125.5t129 48.5t129 -48.5t53 -125.5z" />
    <glyph glyph-name="ldot" unicode="&#x140;" horiz-adv-x="872" 
d="M408 1331v-1331h-322v1331h322zM864 680q0 -76 -53 -124t-129 -48t-129 48t-53 124q0 77 53 125.5t129 48.5t129 -48.5t53 -125.5z" />
    <glyph glyph-name="Lslash" unicode="&#x141;" horiz-adv-x="1073" 
d="M23 397v254l100 41v565h330v-444l247 100v-256l-247 -98v-274h563v-285h-893v436z" />
    <glyph glyph-name="lslash" unicode="&#x142;" horiz-adv-x="598" 
d="M459 1331v-454l106 63v-235l-106 -64v-641h-322v481l-102 -59v235l102 60v614h322z" />
    <glyph glyph-name="Nacute" unicode="&#x143;" horiz-adv-x="1298" 
d="M799 1364h-316l168 266h330zM1204 1257v-1257h-266l-526 735v-735h-318v1257h307l486 -692v692h317z" />
    <glyph glyph-name="nacute" unicode="&#x144;" horiz-adv-x="1062" 
d="M686 1024h-295l168 307h305zM86 0v922h322v-80q40 45 105 72.5t142 27.5q152 0 239 -91.5t87 -246.5v-604h-319v526q0 59 -31 95t-90 36q-48 0 -84.5 -27t-48.5 -73v-557h-322z" />
    <glyph glyph-name="uni0145" unicode="&#x145;" horiz-adv-x="1298" 
d="M1204 1257v-1257h-266l-526 735v-735h-318v1257h307l486 -692v692h317zM479 -483l101 131q-42 13 -70.5 49.5t-28.5 87.5q0 64 47.5 105.5t118.5 41.5q69 0 117.5 -43.5t48.5 -115.5q0 -48 -20.5 -89.5t-59.5 -89.5l-59 -77h-195z" />
    <glyph glyph-name="uni0146" unicode="&#x146;" horiz-adv-x="1062" 
d="M86 0v922h322v-80q40 45 105 72.5t142 27.5q152 0 239 -91.5t87 -246.5v-604h-319v526q0 59 -31 95t-90 36q-48 0 -84.5 -27t-48.5 -73v-557h-322zM371 -483l100 131q-42 13 -70 49t-28 88q0 64 47.5 105.5t118.5 41.5q69 0 117.5 -43.5t48.5 -115.5q0 -48 -20.5 -89.5
t-59.5 -89.5l-60 -77h-194z" />
    <glyph glyph-name="Ncaron" unicode="&#x147;" horiz-adv-x="1298" 
d="M526 1358l-221 272h258l86 -94l86 94h258l-221 -272h-246zM1204 1257v-1257h-266l-526 735v-735h-318v1257h307l486 -692v692h317z" />
    <glyph glyph-name="ncaron" unicode="&#x148;" horiz-adv-x="1062" 
d="M868 1329l-196 -309h-246l-197 309h238l82 -115l82 115h237zM86 0v922h322v-80q40 45 105 72.5t142 27.5q152 0 239 -91.5t87 -246.5v-604h-319v526q0 59 -31 95t-90 36q-48 0 -84.5 -27t-48.5 -73v-557h-322z" />
    <glyph glyph-name="Eng" unicode="&#x14a;" horiz-adv-x="1298" 
d="M573 -324v287q71 -33 140 -33q78 0 114.5 37.5t44.5 122.5l-460 645v-735h-318v1257h307l486 -692v692h317v-1148q0 -236 -115.5 -349.5t-326.5 -113.5q-86 0 -189 30z" />
    <glyph glyph-name="eng" unicode="&#x14b;" horiz-adv-x="1062" 
d="M662 8v518q0 59 -31 95t-90 36q-48 0 -84.5 -27t-48.5 -73v-557h-322v922h322v-80q40 45 105 72.5t142 27.5q152 0 239 -91.5t87 -246.5v-584q0 -175 -90 -270.5t-260 -95.5q-76 0 -117 14v242q24 -4 47 -4q51 0 76 23.5t25 78.5z" />
    <glyph glyph-name="Omacron" unicode="&#x14c;" horiz-adv-x="1316" 
d="M387 1364v221h543v-221h-543zM1274 629q0 -186 -77.5 -334t-218.5 -231.5t-321 -83.5q-178 0 -318 83.5t-217 231.5t-77 334q0 284 171 466.5t441 182.5q180 0 321 -83.5t218.5 -231t77.5 -334.5zM942 629q0 162 -78.5 261t-206.5 99q-127 0 -203.5 -98.5t-76.5 -261.5
t76.5 -262t203.5 -99q128 0 206.5 99.5t78.5 261.5z" />
    <glyph glyph-name="omacron" unicode="&#x14d;" horiz-adv-x="1017" 
d="M250 1032v221h518v-221h-518zM979 461q0 -214 -130.5 -347.5t-340.5 -133.5q-209 0 -340 133.5t-131 347.5t131 347.5t340 133.5q210 0 340.5 -133.5t130.5 -347.5zM664 461q0 97 -41.5 157t-114.5 60q-72 0 -113 -60t-41 -157t41 -156t113 -59q74 0 115 59t41 156z" />
    <glyph glyph-name="Obreve" unicode="&#x14e;" horiz-adv-x="1316" 
d="M659 1348q-133 0 -213.5 77.5t-80.5 221.5h221q0 -42 19.5 -64t53.5 -22q74 0 74 86h221q0 -144 -81 -221.5t-214 -77.5zM1274 629q0 -186 -77.5 -334t-218.5 -231.5t-321 -83.5q-178 0 -318 83.5t-217 231.5t-77 334q0 284 171 466.5t441 182.5q180 0 321 -83.5
t218.5 -231t77.5 -334.5zM942 629q0 162 -78.5 261t-206.5 99q-127 0 -203.5 -98.5t-76.5 -261.5t76.5 -262t203.5 -99q128 0 206.5 99.5t78.5 261.5z" />
    <glyph glyph-name="obreve" unicode="&#x14f;" horiz-adv-x="1017" 
d="M508 999q-132 0 -212.5 80t-80.5 228h221q0 -46 18.5 -71.5t53.5 -25.5q74 0 74 97h219q0 -148 -80.5 -228t-212.5 -80zM979 461q0 -214 -130.5 -347.5t-340.5 -133.5q-209 0 -340 133.5t-131 347.5t131 347.5t340 133.5q210 0 340.5 -133.5t130.5 -347.5zM664 461
q0 97 -41.5 157t-114.5 60q-72 0 -113 -60t-41 -157t41 -156t113 -59q74 0 115 59t41 156z" />
    <glyph glyph-name="Ohungarumlaut" unicode="&#x150;" horiz-adv-x="1316" 
d="M623 1364h-265l154 266h266zM963 1364h-265l156 266h266zM1274 629q0 -186 -77.5 -334t-218.5 -231.5t-321 -83.5q-178 0 -318 83.5t-217 231.5t-77 334q0 284 171 466.5t441 182.5q180 0 321 -83.5t218.5 -231t77.5 -334.5zM942 629q0 162 -78.5 261t-206.5 99
q-127 0 -203.5 -98.5t-76.5 -261.5t76.5 -262t203.5 -99q128 0 206.5 99.5t78.5 261.5z" />
    <glyph glyph-name="ohungarumlaut" unicode="&#x151;" horiz-adv-x="1017" 
d="M465 1024h-250l156 307h252zM788 1024h-247l155 307h250zM979 461q0 -214 -130.5 -347.5t-340.5 -133.5q-209 0 -340 133.5t-131 347.5t131 347.5t340 133.5q210 0 340.5 -133.5t130.5 -347.5zM664 461q0 97 -41.5 157t-114.5 60q-72 0 -113 -60t-41 -157t41 -156
t113 -59q74 0 115 59t41 156z" />
    <glyph glyph-name="OE" unicode="&#x152;" horiz-adv-x="1732" 
d="M1665 1257v-282h-537v-197h486v-276h-486v-217h537v-285h-987q-293 0 -463 170t-170 459t169.5 458.5t463.5 169.5h987zM694 285h111v690h-111q-155 0 -239 -92t-84 -254q0 -160 84 -252t239 -92z" />
    <glyph glyph-name="oe" unicode="&#x153;" horiz-adv-x="1585" 
d="M1112 -20q-181 0 -303 112q-125 -112 -301 -112q-209 0 -340 133.5t-131 347.5t131 347.5t340 133.5q181 0 303 -113q119 113 295 113q208 0 325 -126.5t117 -336.5v-80h-596q7 -83 49 -126.5t111 -43.5q108 0 135 93h297q-25 -160 -139 -251t-293 -91zM1106 692
q-57 0 -95 -34t-53 -99h279q-3 59 -38 96t-93 37zM664 461q0 97 -41.5 157t-114.5 60q-72 0 -113 -60t-41 -157t41 -156t113 -59q74 0 115 59t41 156z" />
    <glyph glyph-name="Racute" unicode="&#x154;" horiz-adv-x="1175" 
d="M729 1364h-315l168 266h329zM535 416h-115v-416h-326v1257h565q207 0 332 -113t125 -315q0 -140 -66 -237t-184 -141l295 -451h-364zM420 981v-303h205q85 0 127.5 40t42.5 111t-42.5 111.5t-127.5 40.5h-205z" />
    <glyph glyph-name="racute" unicode="&#x155;" horiz-adv-x="747" 
d="M541 1024h-295l168 307h305zM705 926v-310q-57 29 -134 29q-66 0 -108.5 -27t-54.5 -77v-541h-322v922h322v-82q75 102 208 102q61 0 89 -16z" />
    <glyph glyph-name="uni0156" unicode="&#x156;" horiz-adv-x="1175" 
d="M535 416h-115v-416h-326v1257h565q207 0 332 -113t125 -315q0 -140 -66 -237t-184 -141l295 -451h-364zM420 981v-303h205q85 0 127.5 40t42.5 111t-42.5 111.5t-127.5 40.5h-205zM410 -483l100 131q-42 13 -70 49t-28 88q0 64 47.5 105.5t118.5 41.5q69 0 117 -43.5
t48 -115.5q0 -82 -79 -179l-60 -77h-194z" />
    <glyph glyph-name="uni0157" unicode="&#x157;" horiz-adv-x="747" 
d="M705 926v-310q-57 29 -134 29q-66 0 -108.5 -27t-54.5 -77v-541h-322v922h322v-82q75 102 208 102q61 0 89 -16zM74 -483l100 131q-42 13 -70 49t-28 88q0 64 47.5 105.5t118.5 41.5q69 0 117.5 -43.5t48.5 -115.5q0 -48 -20.5 -89.5t-59.5 -89.5l-60 -77h-194z" />
    <glyph glyph-name="Rcaron" unicode="&#x158;" horiz-adv-x="1175" 
d="M457 1358l-221 272h258l86 -94l86 94h258l-222 -272h-245zM535 416h-115v-416h-326v1257h565q207 0 332 -113t125 -315q0 -140 -66 -237t-184 -141l295 -451h-364zM420 981v-303h205q85 0 127.5 40t42.5 111t-42.5 111.5t-127.5 40.5h-205z" />
    <glyph glyph-name="rcaron" unicode="&#x159;" horiz-adv-x="747" 
d="M723 1329l-197 -309h-245l-197 309h238l81 -115l82 115h238zM705 926v-310q-57 29 -134 29q-66 0 -108.5 -27t-54.5 -77v-541h-322v922h322v-82q75 102 208 102q61 0 89 -16z" />
    <glyph glyph-name="Sacute" unicode="&#x15a;" horiz-adv-x="1114" 
d="M702 1364h-315l168 266h330zM25 373h342q41 -129 202 -129q77 0 123.5 32t46.5 89q0 43 -28 66.5t-90 37.5l-242 51q-324 72 -324 350q0 183 136 295.5t348 112.5q221 0 354.5 -107t161.5 -278h-322q-47 123 -192 123q-72 0 -115 -29.5t-43 -81.5q0 -78 104 -100l246 -57
q334 -79 334 -363q0 -125 -66.5 -218.5t-177 -140t-248.5 -46.5q-226 0 -371 103.5t-179 289.5z" />
    <glyph glyph-name="sacute" unicode="&#x15b;" horiz-adv-x="917" 
d="M596 1024h-295l168 307h305zM33 285h313q10 -38 42 -59t75 -21q42 0 68 16t26 47q0 25 -17.5 37.5t-54.5 20.5l-180 36q-123 26 -188.5 89.5t-65.5 179.5q0 143 112 227t281 84q184 0 290 -79t128 -220h-297q-19 74 -112 74q-37 0 -61.5 -16t-24.5 -46q0 -21 15 -33
t48 -18l182 -43q258 -60 258 -276q0 -143 -114 -224t-289 -81q-180 0 -296.5 79t-137.5 226z" />
    <glyph glyph-name="Scircumflex" unicode="&#x15c;" horiz-adv-x="1114" 
d="M684 1634l221 -270h-258l-86 92l-86 -92h-258l221 270h246zM25 373h342q41 -129 202 -129q77 0 123.5 32t46.5 89q0 43 -28 66.5t-90 37.5l-242 51q-324 72 -324 350q0 183 136 295.5t348 112.5q221 0 354.5 -107t161.5 -278h-322q-47 123 -192 123q-72 0 -115 -29.5
t-43 -81.5q0 -78 104 -100l246 -57q334 -79 334 -363q0 -125 -66.5 -218.5t-177 -140t-248.5 -46.5q-226 0 -371 103.5t-179 289.5z" />
    <glyph glyph-name="scircumflex" unicode="&#x15d;" horiz-adv-x="917" 
d="M582 1329l196 -309h-237l-82 113l-82 -113h-238l197 309h246zM33 285h313q10 -38 42 -59t75 -21q42 0 68 16t26 47q0 25 -17.5 37.5t-54.5 20.5l-180 36q-123 26 -188.5 89.5t-65.5 179.5q0 143 112 227t281 84q184 0 290 -79t128 -220h-297q-19 74 -112 74
q-37 0 -61.5 -16t-24.5 -46q0 -21 15 -33t48 -18l182 -43q258 -60 258 -276q0 -143 -114 -224t-289 -81q-180 0 -296.5 79t-137.5 226z" />
    <glyph glyph-name="Scedilla" unicode="&#x15e;" horiz-adv-x="1114" 
d="M25 373h342q41 -129 202 -129q77 0 123.5 32t46.5 89q0 43 -28 66.5t-90 37.5l-242 51q-324 72 -324 350q0 183 136 295.5t348 112.5q221 0 354.5 -107t161.5 -278h-322q-47 123 -192 123q-72 0 -115 -29.5t-43 -81.5q0 -78 104 -100l246 -57q334 -79 334 -363
q0 -125 -66.5 -218.5t-177 -140t-248.5 -46.5q-226 0 -371 103.5t-179 289.5zM553 -371h-272l141 289h274z" />
    <glyph glyph-name="scedilla" unicode="&#x15f;" horiz-adv-x="917" 
d="M33 285h313q10 -38 42 -59t75 -21q42 0 68 16t26 47q0 25 -17.5 37.5t-54.5 20.5l-180 36q-123 26 -188.5 89.5t-65.5 179.5q0 143 112 227t281 84q184 0 290 -79t128 -220h-297q-19 74 -112 74q-37 0 -61.5 -16t-24.5 -46q0 -21 15 -33t48 -18l182 -43q258 -60 258 -276
q0 -143 -114 -224t-289 -81q-180 0 -296.5 79t-137.5 226zM451 -371h-273l141 289h275z" />
    <glyph glyph-name="Scaron" unicode="&#x160;" horiz-adv-x="1114" 
d="M434 1358l-221 272h258l86 -94l86 94h258l-221 -272h-246zM25 373h342q41 -129 202 -129q77 0 123.5 32t46.5 89q0 43 -28 66.5t-90 37.5l-242 51q-324 72 -324 350q0 183 136 295.5t348 112.5q221 0 354.5 -107t161.5 -278h-322q-47 123 -192 123q-72 0 -115 -29.5
t-43 -81.5q0 -78 104 -100l246 -57q334 -79 334 -363q0 -125 -66.5 -218.5t-177 -140t-248.5 -46.5q-226 0 -371 103.5t-179 289.5z" />
    <glyph glyph-name="scaron" unicode="&#x161;" horiz-adv-x="917" 
d="M778 1329l-196 -309h-246l-197 309h238l82 -115l82 115h237zM33 285h313q10 -38 42 -59t75 -21q42 0 68 16t26 47q0 25 -17.5 37.5t-54.5 20.5l-180 36q-123 26 -188.5 89.5t-65.5 179.5q0 143 112 227t281 84q184 0 290 -79t128 -220h-297q-19 74 -112 74
q-37 0 -61.5 -16t-24.5 -46q0 -21 15 -33t48 -18l182 -43q258 -60 258 -276q0 -143 -114 -224t-289 -81q-180 0 -296.5 79t-137.5 226z" />
    <glyph glyph-name="uni0162" unicode="&#x162;" horiz-adv-x="1187" 
d="M41 975v282h1106v-282h-389v-975h-330v975h-387zM424 -483l100 131q-42 13 -70 49t-28 88q0 64 47.5 105.5t118.5 41.5q69 0 117.5 -43.5t48.5 -115.5q0 -48 -20.5 -89.5t-59.5 -89.5l-60 -77h-194z" />
    <glyph glyph-name="uni0163" unicode="&#x163;" horiz-adv-x="733" 
d="M152 317v355h-134v250h134v254h319v-254h193v-250h-193v-301q0 -103 98 -103q52 0 103 21v-279q-65 -28 -178 -28q-342 0 -342 335zM252 -483l100 131q-42 13 -70 49t-28 88q0 64 47.5 105.5t118.5 41.5q69 0 117.5 -43.5t48.5 -115.5q0 -48 -20.5 -89.5t-59.5 -89.5
l-60 -77h-194z" />
    <glyph glyph-name="Tcaron" unicode="&#x164;" horiz-adv-x="1187" 
d="M471 1358l-221 272h258l86 -94l86 94h258l-221 -272h-246zM41 975v282h1106v-282h-389v-975h-330v975h-387z" />
    <glyph glyph-name="tcaron" unicode="&#x165;" horiz-adv-x="733" 
d="M784 997h-247l88 342h249zM152 317v355h-134v250h134v254h319v-254h193v-250h-193v-301q0 -103 98 -103q52 0 103 21v-279q-65 -28 -178 -28q-342 0 -342 335z" />
    <glyph glyph-name="Tbar" unicode="&#x166;" horiz-adv-x="1187" 
d="M41 975v282h1106v-282h-389v-232h186v-266h-186v-477h-330v477h-186v266h186v232h-387z" />
    <glyph glyph-name="tbar" unicode="&#x167;" horiz-adv-x="737" 
d="M55 406v196h101v107h-131v213h131v254h319v-254h193v-213h-193v-107h135v-196h-135v-35q0 -103 98 -103q52 0 103 21v-279q-65 -28 -176 -28q-344 0 -344 335v89h-101z" />
    <glyph glyph-name="Utilde" unicode="&#x168;" horiz-adv-x="1255" 
d="M776 1657h174q0 -88 -16 -154t-57.5 -109.5t-106.5 -43.5q-52 0 -128 35.5t-107 35.5q-24 0 -38 -16.5t-16 -46.5h-174q0 64 9.5 117.5t29.5 97t56 68t85 24.5q53 0 129 -36t107 -36q50 0 53 64zM629 -20q-253 0 -401 139.5t-148 394.5v743h328v-714q0 -132 58.5 -201.5
t162.5 -69.5q103 0 161 69.5t58 201.5v714h328v-745q0 -254 -147 -393t-400 -139z" />
    <glyph glyph-name="utilde" unicode="&#x169;" horiz-adv-x="1058" 
d="M657 1325h177q0 -88 -16.5 -154t-58 -109.5t-106.5 -43.5q-40 0 -76.5 18.5t-67.5 37t-58 18.5q-24 0 -38 -18.5t-14 -49.5h-176q0 88 16 154t57.5 109.5t106.5 43.5q51 0 113 -37t90 -37q23 0 37 18.5t14 49.5zM973 922v-922h-322v80q-38 -44 -103.5 -72t-141.5 -28
q-151 0 -237.5 91t-86.5 246v605h319v-529q0 -61 30 -97t89 -36q45 0 82 28t49 74v560h322z" />
    <glyph glyph-name="Umacron" unicode="&#x16a;" horiz-adv-x="1255" 
d="M358 1364v221h543v-221h-543zM629 -20q-253 0 -401 139.5t-148 394.5v743h328v-714q0 -132 58.5 -201.5t162.5 -69.5q103 0 161 69.5t58 201.5v714h328v-745q0 -254 -147 -393t-400 -139z" />
    <glyph glyph-name="umacron" unicode="&#x16b;" horiz-adv-x="1058" 
d="M270 1032v221h518v-221h-518zM973 922v-922h-322v80q-38 -44 -103.5 -72t-141.5 -28q-151 0 -237.5 91t-86.5 246v605h319v-529q0 -61 30 -97t89 -36q45 0 82 28t49 74v560h322z" />
    <glyph glyph-name="Ubreve" unicode="&#x16c;" horiz-adv-x="1255" 
d="M629 1348q-133 0 -214 77.5t-81 221.5h221q0 -42 19.5 -64t54.5 -22q73 0 73 86h222q0 -144 -81 -221.5t-214 -77.5zM629 -20q-253 0 -401 139.5t-148 394.5v743h328v-714q0 -132 58.5 -201.5t162.5 -69.5q103 0 161 69.5t58 201.5v714h328v-745q0 -254 -147 -393
t-400 -139z" />
    <glyph glyph-name="ubreve" unicode="&#x16d;" horiz-adv-x="1058" 
d="M528 999q-132 0 -212 80t-80 228h221q0 -97 71 -97q74 0 74 97h219q0 -148 -80.5 -228t-212.5 -80zM973 922v-922h-322v80q-38 -44 -103.5 -72t-141.5 -28q-151 0 -237.5 91t-86.5 246v605h319v-529q0 -61 30 -97t89 -36q45 0 82 28t49 74v560h322z" />
    <glyph glyph-name="Uring" unicode="&#x16e;" horiz-adv-x="1255" 
d="M850 1530q0 -91 -63.5 -153t-157.5 -62t-157.5 62t-63.5 153t63.5 153t157.5 62t157.5 -62t63.5 -153zM702 1530q0 31 -20.5 52.5t-52.5 21.5q-31 0 -52.5 -21.5t-21.5 -52.5t21.5 -52.5t52.5 -21.5q32 0 52.5 21.5t20.5 52.5zM629 -20q-253 0 -401 139.5t-148 394.5v743
h328v-714q0 -132 58.5 -201.5t162.5 -69.5q103 0 161 69.5t58 201.5v714h328v-745q0 -254 -147 -393t-400 -139z" />
    <glyph glyph-name="uring" unicode="&#x16f;" horiz-adv-x="1058" 
d="M750 1206q0 -89 -64 -151t-158 -62q-93 0 -157 61.5t-64 151.5q0 91 64 154t157 63q94 0 158 -63t64 -154zM602 1206q0 32 -21 54t-53 22q-31 0 -52 -22t-21 -54q0 -29 21 -50t52 -21q32 0 53 20.5t21 50.5zM973 922v-922h-322v80q-38 -44 -103.5 -72t-141.5 -28
q-151 0 -237.5 91t-86.5 246v605h319v-529q0 -61 30 -97t89 -36q45 0 82 28t49 74v560h322z" />
    <glyph glyph-name="Uhungarumlaut" unicode="&#x170;" horiz-adv-x="1255" 
d="M592 1364h-264l153 266h267zM932 1364h-264l155 266h267zM629 -20q-253 0 -401 139.5t-148 394.5v743h328v-714q0 -132 58.5 -201.5t162.5 -69.5q103 0 161 69.5t58 201.5v714h328v-745q0 -254 -147 -393t-400 -139z" />
    <glyph glyph-name="uhungarumlaut" unicode="&#x171;" horiz-adv-x="1058" 
d="M485 1024h-249l155 307h252zM809 1024h-248l156 307h250zM973 922v-922h-322v80q-38 -44 -103.5 -72t-141.5 -28q-151 0 -237.5 91t-86.5 246v605h319v-529q0 -61 30 -97t89 -36q45 0 82 28t49 74v560h322z" />
    <glyph glyph-name="Uogonek" unicode="&#x172;" horiz-adv-x="1255" 
d="M647 -20h-18q-253 0 -401 139.5t-148 394.5v743h328v-714q0 -132 58.5 -201.5t162.5 -69.5q103 0 161 69.5t58 201.5v714h328v-745q0 -162 -58.5 -272t-177.5 -189q-95 -62 -138.5 -116t-43.5 -89q0 -39 41 -39q4 0 8.5 0.5t7.5 1.5t8 3l7.5 3t8.5 4.5t9 5t10.5 6.5
t11.5 7v-178q-63 -39 -133 -39q-84 0 -136 42.5t-52 119.5q0 96 98 197z" />
    <glyph glyph-name="uogonek" unicode="&#x173;" horiz-adv-x="1058" 
d="M973 922v-922q-10 -12 -23.5 -27.5t-20.5 -23.5t-16.5 -19.5t-14 -17t-11 -13.5t-9 -12.5t-5.5 -10.5t-4 -10.5t-2 -9.5t-1 -10q0 -39 41 -39q21 0 72 31v-178q-63 -39 -133 -39q-84 0 -136.5 42.5t-52.5 119.5q0 54 27.5 101.5t85.5 115.5h-119v80q-38 -44 -103.5 -72
t-141.5 -28q-151 0 -237.5 91t-86.5 246v605h319v-529q0 -61 30 -97t89 -36q45 0 82 28t49 74v560h322z" />
    <glyph glyph-name="Wcircumflex" unicode="&#x174;" horiz-adv-x="1679" 
d="M963 1634l221 -270h-258l-86 92l-86 -92h-258l221 270h246zM719 1257h250l192 -739l174 739h332l-332 -1257h-301l-194 737l-197 -737h-301l-330 1257h336l176 -739z" />
    <glyph glyph-name="wcircumflex" unicode="&#x175;" horiz-adv-x="1429" 
d="M838 1329l196 -309h-237l-82 113l-82 -113h-238l197 309h246zM823 922l138 -500l147 500h307l-297 -922h-272l-131 467l-131 -467h-273l-297 922h320l145 -500l139 500h205z" />
    <glyph glyph-name="Ycircumflex" unicode="&#x176;" horiz-adv-x="1253" 
d="M750 1634l221 -270h-258l-86 92l-86 -92h-258l221 270h246zM633 766l264 491h346l-455 -811v-446h-329v446l-447 811h357z" />
    <glyph glyph-name="ycircumflex" unicode="&#x177;" horiz-adv-x="1028" 
d="M647 1329l197 -309h-238l-82 113l-82 -113h-237l196 309h246zM541 -326h-318l135 349l-344 899h334l176 -525l172 525h320z" />
    <glyph glyph-name="Ydieresis" unicode="&#x178;" horiz-adv-x="1253" 
d="M281 1503q0 68 46 115t113 47q66 0 114 -47.5t48 -114.5t-48 -114.5t-114 -47.5q-67 0 -113 47t-46 115zM651 1503q0 67 47 114.5t113 47.5t114 -47.5t48 -114.5t-48 -114.5t-114 -47.5t-113 47.5t-47 114.5zM633 766l264 491h346l-455 -811v-446h-329v446l-447 811h357z
" />
    <glyph glyph-name="Zacute" unicode="&#x179;" horiz-adv-x="1148" 
d="M750 1364h-316l168 266h330zM1079 285v-285h-1009v244l583 731h-577v282h997v-241l-577 -731h583z" />
    <glyph glyph-name="zacute" unicode="&#x17a;" horiz-adv-x="933" 
d="M627 1024h-295l168 307h305zM868 252v-252h-805v211l406 461h-393v250h786v-209l-389 -461h395z" />
    <glyph glyph-name="Zdotaccent" unicode="&#x17b;" horiz-adv-x="1148" 
d="M782 1522q0 -77 -53 -125.5t-129 -48.5t-129 48.5t-53 125.5q0 76 53 124t129 48t129 -48t53 -124zM1079 285v-285h-1009v244l583 731h-577v282h997v-241l-577 -731h583z" />
    <glyph glyph-name="zdotaccent" unicode="&#x17c;" horiz-adv-x="933" 
d="M672 1186q0 -76 -53.5 -124t-129.5 -48t-129 48t-53 124q0 77 53 125.5t129 48.5t129.5 -48.5t53.5 -125.5zM868 252v-252h-805v211l406 461h-393v250h786v-209l-389 -461h395z" />
    <glyph glyph-name="Zcaron" unicode="&#x17d;" horiz-adv-x="1148" 
d="M477 1358l-221 272h258l86 -94l86 94h258l-221 -272h-246zM1079 285v-285h-1009v244l583 731h-577v282h997v-241l-577 -731h583z" />
    <glyph glyph-name="zcaron" unicode="&#x17e;" horiz-adv-x="933" 
d="M809 1329l-197 -309h-245l-197 309h238l81 -115l82 115h238zM868 252v-252h-805v211l406 461h-393v250h786v-209l-389 -461h395z" />
    <glyph glyph-name="florin" unicode="&#x192;" horiz-adv-x="860" 
d="M96 479v250h164l33 191q62 358 385 358q79 0 149 -25v-262q-40 19 -88 19q-102 0 -123 -109l-30 -172h162v-250h-205l-80 -454q-31 -178 -114 -268.5t-251 -90.5q-85 0 -155 25v233q37 -18 86 -18t73 26t33 82l80 465h-119z" />
    <glyph glyph-name="Aringacute" unicode="&#x1fa;" horiz-adv-x="1323" 
d="M821 1681h-313l129 209h328zM874 1468q0 -73 -63 -124.5t-154 -51.5t-154 51.5t-63 124.5q0 74 62.5 125.5t154.5 51.5t154.5 -51.5t62.5 -125.5zM731 1468q0 26 -21 43t-53 17t-53.5 -17t-21.5 -43q0 -25 21.5 -42t53.5 -17t53 17t21 42zM494 1257h335l480 -1257h-334
l-90 244h-457l-88 -244h-326zM657 868l-129 -354h258z" />
    <glyph glyph-name="aringacute" unicode="&#x1fb;" horiz-adv-x="978" 
d="M666 1366h-314l129 209h328zM719 1153q0 -73 -63 -124.5t-154 -51.5q-92 0 -155.5 52t-63.5 124q0 74 63.5 126t155.5 52t154.5 -52t62.5 -126zM575 1153q0 26 -20.5 43.5t-52.5 17.5t-54 -17.5t-22 -43.5q0 -25 22 -42t54 -17t52.5 17t20.5 42zM907 0h-309v47
q-25 -25 -88 -44t-133 -19q-144 0 -240 78.5t-96 218.5q0 131 100.5 211.5t253.5 80.5q56 0 115.5 -15t87.5 -36v60q0 47 -28.5 78.5t-84.5 31.5q-85 0 -108 -67h-303q21 138 135 228.5t287 90.5q196 0 303.5 -99.5t107.5 -279.5v-565zM598 258v53q-15 29 -52.5 46.5
t-82.5 17.5q-52 0 -89.5 -22.5t-37.5 -65.5q0 -44 37.5 -67t89.5 -23q45 0 82.5 17t52.5 44z" />
    <glyph glyph-name="AEacute" unicode="&#x1fc;" horiz-adv-x="1839" 
d="M1374 1364h-315l168 266h329zM721 1257h1048v-282h-534v-197h483v-276h-483v-217h534v-285h-858v244h-413l-136 -244h-348zM911 991l-264 -477h264v477z" />
    <glyph glyph-name="aeacute" unicode="&#x1fd;" horiz-adv-x="1499" 
d="M911 1024h-295l168 307h306zM1157 313h301q-29 -156 -144.5 -244.5t-293.5 -88.5q-180 0 -311 114q-136 -112 -330 -112q-141 0 -240.5 77t-99.5 207q0 139 110 216t279 77h162v27q0 49 -30 80.5t-89 31.5q-92 0 -115 -73h-282q19 139 127.5 228t275.5 89q172 0 275 -100
q119 100 272 100q203 0 320.5 -127.5t117.5 -335.5v-90h-596q15 -160 160 -160q104 0 131 84zM1020 692q-57 0 -95 -34t-53 -99h279q-5 59 -39 96t-92 37zM453 207q97 0 137 76v104h-131q-54 0 -89.5 -23t-35.5 -67t34.5 -67t84.5 -23z" />
    <glyph glyph-name="Oslashacute" unicode="&#x1fe;" horiz-adv-x="1335" 
d="M817 1364h-315l168 266h329zM70 74l118 131q-135 177 -135 424q0 284 171.5 466.5t443.5 182.5q213 0 374 -123l111 125l115 -96l-121 -133q135 -174 135 -422q0 -186 -77.5 -334t-218 -231.5t-318.5 -83.5q-221 0 -375 120l-109 -123zM385 629q0 -88 27 -174l426 475
q-68 59 -170 59q-128 0 -205.5 -98.5t-77.5 -261.5zM950 629q0 92 -26 172l-426 -475q71 -58 170 -58q126 0 204 99.5t78 261.5z" />
    <glyph glyph-name="oslashacute" unicode="&#x1ff;" horiz-adv-x="1038" 
d="M655 1024h-295l168 307h306zM61 37l93 102q-107 132 -107 322q0 214 131 347.5t340 133.5q158 0 277 -80l86 96l92 -75l-90 -103q106 -128 106 -319q0 -214 -130.5 -347.5t-340.5 -133.5q-158 0 -276 79l-88 -98zM358 461q0 -43 9 -80l241 270q-41 33 -90 33
q-72 0 -116 -63t-44 -160zM680 461q0 38 -10 80l-242 -271q40 -32 90 -32q74 0 118 63t44 160z" />
    <glyph glyph-name="uni0218" unicode="&#x218;" horiz-adv-x="1114" 
d="M25 373h342q41 -129 202 -129q77 0 123.5 32t46.5 89q0 43 -28 66.5t-90 37.5l-242 51q-324 72 -324 350q0 183 136 295.5t348 112.5q221 0 354.5 -107t161.5 -278h-322q-47 123 -192 123q-72 0 -115 -29.5t-43 -81.5q0 -78 104 -100l246 -57q334 -79 334 -363
q0 -125 -66.5 -218.5t-177 -140t-248.5 -46.5q-226 0 -371 103.5t-179 289.5zM383 -483l100 131q-42 13 -70 49t-28 88q0 64 47.5 105.5t118.5 41.5q69 0 117.5 -43.5t48.5 -115.5q0 -48 -20.5 -89.5t-59.5 -89.5l-59 -77h-195z" />
    <glyph glyph-name="uni0219" unicode="&#x219;" horiz-adv-x="917" 
d="M33 285h313q10 -38 42 -59t75 -21q42 0 68 16t26 47q0 25 -17.5 37.5t-54.5 20.5l-180 36q-123 26 -188.5 89.5t-65.5 179.5q0 143 112 227t281 84q184 0 290 -79t128 -220h-297q-19 74 -112 74q-37 0 -61.5 -16t-24.5 -46q0 -21 15 -33t48 -18l182 -43q258 -60 258 -276
q0 -143 -114 -224t-289 -81q-180 0 -296.5 79t-137.5 226zM287 -483l100 131q-42 13 -70 49t-28 88q0 64 47.5 105.5t118.5 41.5q69 0 117.5 -43.5t48.5 -115.5q0 -48 -20.5 -89.5t-59.5 -89.5l-60 -77h-194z" />
    <glyph glyph-name="uni0237" unicode="&#x237;" horiz-adv-x="493" 
d="M408 922v-902q0 -175 -90.5 -270.5t-260.5 -95.5q-75 0 -116 14v242q24 -4 47 -4q51 0 74.5 23t23.5 79v914h322z" />
    <glyph glyph-name="circumflex" unicode="&#x2c6;" 
d="M635 1329l196 -309h-237l-82 113l-82 -113h-237l196 309h246z" />
    <glyph glyph-name="caron" unicode="&#x2c7;" 
d="M831 1329l-196 -309h-246l-196 309h237l82 -115l82 115h237z" />
    <glyph glyph-name="breve" unicode="&#x2d8;" 
d="M512 999q-132 0 -212.5 80t-80.5 228h221q0 -46 18.5 -71.5t53.5 -25.5q74 0 74 97h219q0 -148 -80.5 -228t-212.5 -80z" />
    <glyph glyph-name="dotaccent" unicode="&#x2d9;" 
d="M694 1186q0 -76 -53 -124t-129 -48t-129 48t-53 124q0 77 53 125.5t129 48.5t129 -48.5t53 -125.5z" />
    <glyph glyph-name="ring" unicode="&#x2da;" 
d="M733 1206q0 -90 -64 -151.5t-157 -61.5t-157 61.5t-64 151.5q0 91 64 154t157 63t157 -63t64 -154zM586 1206q0 32 -21 54t-53 22q-31 0 -52.5 -22t-21.5 -54q0 -29 21.5 -50t52.5 -21q32 0 53 20.5t21 50.5z" />
    <glyph glyph-name="ogonek" unicode="&#x2db;" 
d="M469 16h199q-12 -15 -28 -34l-24 -28.5t-19 -23t-16 -20t-11.5 -15.5t-9 -14t-5 -12t-3.5 -12t-1 -11q0 -18 10.5 -28.5t28.5 -10.5q5 0 10 0.5t10 2.5t8.5 3t9.5 4.5t9.5 5.5t12 7t12.5 8v-178q-63 -39 -134 -39q-84 0 -136 42.5t-52 119.5q0 31 9 59.5t30.5 61t38 52.5
t51.5 60z" />
    <glyph glyph-name="tilde" unicode="&#x2dc;" 
d="M641 1325h176q0 -88 -16 -154t-57.5 -109.5t-106.5 -43.5q-51 0 -112 37t-91 37q-24 0 -37.5 -18.5t-13.5 -49.5h-176q0 88 16 154t57.5 109.5t106.5 43.5q51 0 113 -37t90 -37q23 0 37 18.5t14 49.5z" />
    <glyph glyph-name="hungarumlaut" unicode="&#x2dd;" 
d="M395 1024h-250l156 307h252zM719 1024h-248l156 307h250z" />
    <glyph glyph-name="Wgrave" unicode="&#x1e80;" horiz-adv-x="1679" 
d="M1006 1364h-316l-182 266h330zM719 1257h250l192 -739l174 739h332l-332 -1257h-301l-194 737l-197 -737h-301l-330 1257h336l176 -739z" />
    <glyph glyph-name="wgrave" unicode="&#x1e81;" horiz-adv-x="1429" 
d="M868 1024h-295l-178 307h305zM823 922l138 -500l147 500h307l-297 -922h-272l-131 467l-131 -467h-273l-297 922h320l145 -500l139 500h205z" />
    <glyph glyph-name="Wacute" unicode="&#x1e82;" horiz-adv-x="1679" 
d="M993 1364h-315l168 266h330zM719 1257h250l192 -739l174 739h332l-332 -1257h-301l-194 737l-197 -737h-301l-330 1257h336l176 -739z" />
    <glyph glyph-name="wacute" unicode="&#x1e83;" horiz-adv-x="1429" 
d="M852 1024h-295l168 307h305zM823 922l138 -500l147 500h307l-297 -922h-272l-131 467l-131 -467h-273l-297 922h320l145 -500l139 500h205z" />
    <glyph glyph-name="Wdieresis" unicode="&#x1e84;" horiz-adv-x="1679" 
d="M494 1503q0 68 46 115t113 47q66 0 114 -47.5t48 -114.5t-48 -114.5t-114 -47.5q-67 0 -113 47t-46 115zM864 1503q0 67 47 114.5t113 47.5t114 -47.5t48 -114.5t-48 -114.5t-114 -47.5t-113 47.5t-47 114.5zM719 1257h250l192 -739l174 739h332l-332 -1257h-301
l-194 737l-197 -737h-301l-330 1257h336l176 -739z" />
    <glyph glyph-name="wdieresis" unicode="&#x1e85;" horiz-adv-x="1429" 
d="M377 1161q0 66 46.5 112t111.5 46t111 -46t46 -112q0 -64 -46 -109.5t-111 -45.5t-111.5 45.5t-46.5 109.5zM739 1161q0 66 45.5 112t110.5 46t112.5 -46.5t47.5 -111.5q0 -64 -47.5 -109.5t-112.5 -45.5t-110.5 45.5t-45.5 109.5zM823 922l138 -500l147 500h307
l-297 -922h-272l-131 467l-131 -467h-273l-297 922h320l145 -500l139 500h205z" />
    <glyph glyph-name="Ygrave" unicode="&#x1ef2;" horiz-adv-x="1253" 
d="M797 1364h-316l-182 266h330zM633 766l264 491h346l-455 -811v-446h-329v446l-447 811h357z" />
    <glyph glyph-name="ygrave" unicode="&#x1ef3;" horiz-adv-x="1028" 
d="M680 1024h-295l-178 307h305zM541 -326h-318l135 349l-344 899h334l176 -525l172 525h320z" />
    <glyph glyph-name="endash" unicode="&#x2013;" horiz-adv-x="954" 
d="M74 426v219h809v-219h-809z" />
    <glyph glyph-name="emdash" unicode="&#x2014;" horiz-adv-x="1714" 
d="M74 426v219h1568v-219h-1568z" />
    <glyph glyph-name="quoteleft" unicode="&#x2018;" horiz-adv-x="454" 
d="M424 1257l-150 -233q59 -11 98.5 -55t39.5 -111q0 -77 -54.5 -128.5t-134.5 -51.5t-134 53.5t-54 147.5q0 91 78 211l108 167h203z" />
    <glyph glyph-name="quoteright" unicode="&#x2019;" horiz-adv-x="454" 
d="M31 698l149 234q-59 11 -98 55t-39 111q0 78 54 129t134 51t134.5 -53.5t54.5 -147.5q0 -91 -78 -211l-109 -168h-202z" />
    <glyph glyph-name="quotesinglbase" unicode="&#x201a;" horiz-adv-x="454" 
d="M31 -231l149 233q-59 11 -98 55t-39 111q0 78 54 129t134 51t134.5 -53.5t54.5 -147.5q0 -90 -78 -210l-109 -168h-202z" />
    <glyph glyph-name="quotedblleft" unicode="&#x201c;" horiz-adv-x="890" 
d="M424 1257l-150 -233q59 -11 98.5 -55t39.5 -111q0 -77 -54.5 -128.5t-134.5 -51.5t-134 53.5t-54 147.5q0 91 78 211l108 167h203zM860 1257l-149 -233q59 -11 98 -55t39 -111q0 -77 -54.5 -128.5t-134.5 -51.5t-134 53.5t-54 147.5q0 91 78 211l108 167h203z" />
    <glyph glyph-name="quotedblright" unicode="&#x201d;" horiz-adv-x="890" 
d="M31 698l149 234q-59 11 -98 55t-39 111q0 78 54 129t134 51t134.5 -53.5t54.5 -147.5q0 -91 -78 -211l-109 -168h-202zM467 698l149 234q-59 11 -98 55t-39 111q0 77 54.5 128.5t134.5 51.5t134 -53.5t54 -147.5q0 -91 -78 -211l-108 -168h-203z" />
    <glyph glyph-name="quotedblbase" unicode="&#x201e;" horiz-adv-x="890" 
d="M31 -231l149 233q-59 11 -98 55t-39 111q0 78 54 129t134 51t134.5 -53.5t54.5 -147.5q0 -90 -78 -210l-109 -168h-202zM467 -231l149 233q-59 11 -98 55t-39 111q0 77 54.5 128.5t134.5 51.5t134 -53.5t54 -147.5q0 -90 -78 -210l-108 -168h-203z" />
    <glyph glyph-name="dagger" unicode="&#x2020;" horiz-adv-x="706" 
d="M49 944v199h203v188h203v-188h202v-199h-202v-379h-203v379h-203z" />
    <glyph glyph-name="daggerdbl" unicode="&#x2021;" horiz-adv-x="714" 
d="M53 1016v178h207v137h195v-137h209v-178h-209v-137h209v-177h-209v-137h-195v137h-207v177h207v137h-207z" />
    <glyph glyph-name="bullet" unicode="&#x2022;" horiz-adv-x="780" 
d="M731 535q0 -145 -99 -240.5t-241 -95.5q-143 0 -242.5 95t-99.5 241q0 150 99 246t243 96q142 0 241 -96t99 -246z" />
    <glyph glyph-name="ellipsis" unicode="&#x2026;" horiz-adv-x="1454" 
d="M39 178q0 81 54.5 136t133.5 55q80 0 135.5 -55t55.5 -136t-55.5 -136.5t-135.5 -55.5q-78 0 -133 55.5t-55 136.5zM539 178q0 82 54 136.5t134 54.5t134 -54.5t54 -136.5t-54 -137t-134 -55t-134 55t-54 137zM1036 178q0 81 55 136t134 55q80 0 135 -55t55 -136
t-55 -136.5t-135 -55.5q-79 0 -134 55.5t-55 136.5z" />
    <glyph glyph-name="perthousand" unicode="&#x2030;" horiz-adv-x="2050" 
d="M49 975q0 126 86.5 214.5t210.5 88.5q126 0 214.5 -88.5t88.5 -214.5q0 -124 -88.5 -210.5t-214.5 -86.5q-124 0 -210.5 86t-86.5 211zM201 0l807 1257h184l-807 -1257h-184zM240 975q0 -44 31.5 -75.5t74.5 -31.5q46 0 79.5 31.5t33.5 75.5q0 46 -33.5 79t-79.5 33
q-43 0 -74.5 -33t-31.5 -79zM1346 283q0 -126 -87.5 -214.5t-211.5 -88.5q-126 0 -215 88.5t-89 214.5q0 124 89 210.5t215 86.5q125 0 212 -86.5t87 -210.5zM2001 283q0 -126 -86.5 -214.5t-210.5 -88.5q-126 0 -214.5 88.5t-88.5 214.5q0 124 88.5 210.5t214.5 86.5
q124 0 210.5 -86t86.5 -211zM1153 283q0 44 -31 75t-75 31q-46 0 -79.5 -31t-33.5 -75q0 -46 33.5 -79.5t79.5 -33.5q44 0 75 33.5t31 79.5zM1810 283q0 44 -31.5 75t-74.5 31q-46 0 -79.5 -31t-33.5 -75q0 -46 33.5 -79.5t79.5 -33.5q43 0 74.5 33.5t31.5 79.5z" />
    <glyph glyph-name="guilsinglleft" unicode="&#x2039;" horiz-adv-x="569" 
d="M518 119h-278l-189 336l189 336h278l-188 -336z" />
    <glyph glyph-name="guilsinglright" unicode="&#x203a;" horiz-adv-x="569" 
d="M330 119h-279l189 336l-189 336h279l188 -336z" />
    <glyph glyph-name="fraction" unicode="&#x2044;" horiz-adv-x="442" 
d="M688 1257l-756 -1257h-178l756 1257h178z" />
    <glyph glyph-name="Euro" unicode="&#x20ac;" horiz-adv-x="1163" 
d="M47 676v158h113q48 204 183 324t323 120q190 0 306 -112.5t150 -303.5h-288q-16 59 -58.5 95t-109.5 36q-137 0 -191 -159h275l-31 -158h-270v-90h253l-30 -158h-197q24 -77 72.5 -120.5t118.5 -43.5q67 0 109.5 36t58.5 95h288q-34 -191 -150 -303t-306 -112
q-188 0 -324 121.5t-182 326.5h-113v158h90v90h-90z" />
    <glyph glyph-name="uni2117" unicode="&#x2117;" horiz-adv-x="1441" 
d="M1370 629q0 -184 -88 -334t-236 -232.5t-325 -82.5t-325 82.5t-236 232.5t-88 334t88 334t236 232.5t325 82.5t325 -82.5t236 -232.5t88 -334zM1274 629q0 157 -75 285t-201.5 199t-276.5 71t-276.5 -71t-201.5 -199t-75 -285t75 -285t201.5 -199t276.5 -71t276.5 71
t201.5 199t75 285zM801 471h-131v-217h-217v756h348q127 0 203.5 -71t76.5 -198q0 -129 -76 -199.5t-204 -70.5zM868 741q0 38 -23 61t-69 23h-106v-170h106q46 0 69 23t23 63z" />
    <glyph glyph-name="trademark" unicode="&#x2122;" horiz-adv-x="1249" 
d="M41 1108v149h481v-149h-157v-371h-168v371h-156zM934 737h-100l-97 289v-289h-147v520h196l99 -294l98 294h197v-520h-150v289z" />
    <glyph glyph-name="uni2153" unicode="&#x2153;" horiz-adv-x="1497" 
d="M440 1257v-716h-213v477l-176 -86v215l236 110h153zM1233 1257l-860 -1257h-189l860 1257h189zM1098 285v151h47q32 0 53 15t21 45q0 24 -15.5 38.5t-42.5 14.5t-45.5 -19.5t-21.5 -46.5h-209q11 104 82 174t188 70q124 0 195 -62.5t71 -166.5q0 -40 -21 -80.5t-50 -59.5
q36 -18 56.5 -55.5t20.5 -79.5q0 -106 -72.5 -170.5t-197.5 -64.5q-123 0 -197.5 68t-80.5 182h221q7 -64 63 -64q28 0 44 14t16 39q0 29 -19.5 43.5t-50.5 14.5h-55z" />
    <glyph glyph-name="uni2154" unicode="&#x2154;" horiz-adv-x="1638" 
d="M408 1030q0 24 -15 38.5t-39 14.5t-39.5 -17t-17.5 -40h-225q11 105 86 175.5t192 70.5q122 0 196.5 -64t74.5 -166q0 -34 -9.5 -64t-31.5 -59t-39.5 -47.5t-51.5 -50.5l-104 -94h233v-182h-540v139l264 244q36 36 51 57t15 45zM1374 1257l-860 -1257h-190l860 1257h190z
M1237 287v147h49q33 0 54.5 15.5t21.5 46.5q0 26 -16 42.5t-46 16.5q-29 0 -47.5 -21t-21.5 -51h-207q11 104 82 174t188 70q125 0 196 -62.5t71 -166.5q0 -39 -21 -80t-51 -60q37 -18 58.5 -55.5t21.5 -79.5q0 -106 -73.5 -170.5t-199.5 -64.5q-123 0 -197.5 68t-80.5 182
h217q3 -32 21 -52t49 -20q28 0 45.5 16.5t17.5 44.5q0 60 -74 60h-57z" />
    <glyph glyph-name="uni215B" unicode="&#x215b;" horiz-adv-x="1515" 
d="M440 1257v-716h-213v477l-176 -86v215l236 110h153zM1233 1257l-860 -1257h-189l860 1257h189zM1151 -10q-121 0 -202 56.5t-81 152.5q0 59 29.5 100t77.5 61q-82 46 -82 152q0 101 75 159t183 58q107 0 182.5 -58t75.5 -159q0 -106 -84 -152q48 -20 77.5 -61t29.5 -100
q0 -96 -80 -152.5t-201 -56.5zM1151 446q30 0 50 18t20 44q0 28 -19.5 44.5t-50.5 16.5t-50.5 -16.5t-19.5 -44.5q0 -26 20 -44t50 -18zM1151 154q32 0 53 17.5t21 45.5q0 29 -21 47.5t-53 18.5q-33 0 -54.5 -18.5t-21.5 -47.5q0 -28 21.5 -45.5t54.5 -17.5z" />
    <glyph glyph-name="uni215C" unicode="&#x215c;" horiz-adv-x="1576" 
d="M276 827v148h50q33 0 53 15t20 46q0 25 -15 42.5t-44 17.5q-30 0 -48.5 -21.5t-21.5 -50.5h-207q11 104 82.5 174t188.5 70q124 0 195 -63t71 -167q0 -40 -21 -80t-51 -59q37 -18 58.5 -55.5t21.5 -79.5q0 -107 -73 -171.5t-199 -64.5q-123 0 -198 68t-81 182h217
q3 -32 21 -51.5t49 -19.5q28 0 46 17t18 44q0 59 -74 59h-58zM1294 1257l-860 -1257h-190l860 1257h190zM1212 -10q-121 0 -202.5 57t-81.5 152q0 59 29.5 100t78.5 61q-40 23 -62 63.5t-22 88.5q0 101 75 159t185 58q107 0 182.5 -58t75.5 -159q0 -49 -22 -89t-64 -63
q50 -20 79.5 -61t29.5 -100q0 -96 -80 -152.5t-201 -56.5zM1212 446q29 0 48.5 18t19.5 44q0 27 -19 44t-49 17q-31 0 -51 -17t-20 -44q0 -26 20 -44t51 -18zM1212 154q32 0 53 17.5t21 45.5q0 29 -21 47.5t-53 18.5q-34 0 -55.5 -18.5t-21.5 -47.5q0 -28 21.5 -45.5
t55.5 -17.5z" />
    <glyph glyph-name="uni215D" unicode="&#x215d;" horiz-adv-x="1593" 
d="M344 850q-33 0 -68 -27h-180v434h467v-174h-293v-92q33 23 103 23q113 0 179 -64.5t66 -171.5q0 -114 -73 -182t-195 -68q-129 0 -205.5 63t-83.5 175h215q3 -25 23 -42t49 -17q30 0 49 19.5t19 51.5q0 30 -19.5 51t-52.5 21zM1311 1257l-860 -1257h-191l860 1257h191z
M1229 -10q-121 0 -203 57t-82 152q0 59 30 100t79 61q-40 23 -62 63.5t-22 88.5q0 101 75 159t185 58q107 0 181.5 -58t74.5 -159q0 -106 -84 -152q50 -20 79 -61t29 -100q0 -95 -80.5 -152t-199.5 -57zM1229 446q29 0 48 18t19 44q0 27 -18.5 44t-48.5 17q-32 0 -52 -16.5
t-20 -44.5q0 -27 20 -44.5t52 -17.5zM1229 154q31 0 52.5 18t21.5 45q0 29 -21.5 47.5t-52.5 18.5q-34 0 -56 -18.5t-22 -47.5q0 -28 22 -45.5t56 -17.5z" />
    <glyph glyph-name="uni215E" unicode="&#x215e;" horiz-adv-x="1466" 
d="M578 1114l-228 -573h-223l215 532h-283v184h519v-143zM1182 1257l-860 -1257h-189l860 1257h189zM1100 -10q-121 0 -202 56.5t-81 152.5q0 59 30 100t79 61q-40 23 -62 63.5t-22 88.5q0 101 75 159t183 58t183 -58t75 -159q0 -106 -84 -152q49 -20 78.5 -61t29.5 -100
q0 -96 -80.5 -152.5t-201.5 -56.5zM1100 446q30 0 49.5 17.5t19.5 44.5q0 28 -19 44.5t-50 16.5t-50.5 -16.5t-19.5 -44.5q0 -26 20 -44t50 -18zM1100 154q33 0 54.5 17.5t21.5 45.5q0 29 -21.5 47.5t-54.5 18.5t-54.5 -18.5t-21.5 -47.5q0 -28 21.5 -45.5t54.5 -17.5z" />
    <glyph glyph-name="minus" unicode="&#x2212;" horiz-adv-x="1138" 
d="M104 494v237h930v-237h-930z" />
    <glyph glyph-name="approxequal" unicode="&#x2248;" horiz-adv-x="1175" 
d="M125 637v223q127 82 248 82q79 0 211 -40t211 -40q129 0 256 84v-223q-131 -84 -256 -84q-79 0 -211 41t-211 41q-123 0 -248 -84zM125 285v219q124 86 248 86q79 0 211 -42t211 -42q126 0 256 86v-223q-128 -82 -256 -82q-79 0 -211 40t-211 40q-121 0 -248 -82z" />
    <glyph glyph-name="notequal" unicode="&#x2260;" horiz-adv-x="1175" 
d="M125 696v213h551l123 191h196l-123 -191h179v-213h-314l-104 -161h418v-211h-553l-121 -191h-197l121 191h-176v211h311l105 161h-416z" />
    <glyph glyph-name="lessequal" unicode="&#x2264;" horiz-adv-x="905" 
d="M98 610v285l709 250v-252l-477 -139l477 -142v-250zM98 86v229h709v-229h-709z" />
    <glyph glyph-name="greaterequal" unicode="&#x2265;" horiz-adv-x="905" 
d="M807 895v-285l-709 -248v250l477 142l-477 139v252zM807 315v-229h-709v229h709z" />
    <glyph glyph-name="fi" unicode="&#xfb01;" horiz-adv-x="1187" 
d="M672 1325v-262q-34 18 -76 18q-55 0 -85 -27.5t-30 -82.5v-49h178v-250h-178v-672h-317v672h-137v250h137v67q0 167 95 264t263 97q80 0 150 -25zM1122 1171q0 -76 -53 -124t-129 -48t-129 48t-53 124q0 77 53 126t129 49t129 -49t53 -126zM1100 922v-922h-322v922h322z
" />
    <glyph glyph-name="fl" unicode="&#xfb02;" horiz-adv-x="1187" 
d="M672 1325v-262q-34 18 -76 18q-55 0 -85 -27.5t-30 -82.5v-49h178v-250h-178v-672h-317v672h-137v250h137v67q0 167 95 264t263 97q80 0 150 -25zM1100 1331v-1331h-322v1331h322z" />
    <glyph glyph-name="i.dot" horiz-adv-x="495" 
d="M430 1186q0 -76 -53 -124t-129 -48t-129 48t-53 124q0 77 53 125.5t129 48.5t129 -48.5t53 -125.5zM408 922v-922h-322v922h322z" />
    <glyph glyph-name="uni0020_uni0326" 
d="M348 -483l101 131q-42 13 -70.5 49.5t-28.5 87.5q0 64 47.5 105.5t118.5 41.5q69 0 117.5 -43.5t48.5 -115.5q0 -48 -20.5 -89.5t-59.5 -89.5l-59 -77h-195z" />
    <glyph glyph-name="uni0020_uni0326.alt" 
d="M678 1425l-107 -137q44 -13 72.5 -49.5t28.5 -89.5q0 -64 -48 -107t-120 -43q-69 0 -117.5 44t-48.5 118q0 81 80 182l63 82h197z" />
    <glyph glyph-name="space_dotbelowcomb" 
d="M690 -233q0 -76 -52 -123t-126 -47t-126 47t-52 123q0 73 52 119t126 46t126 -46t52 -119z" />
    <glyph glyph-name="caron.Slovak" 
d="M578 989h-248l88 342h250z" />
    <glyph glyph-name="cedilla.alt" 
d="M561 -371h-272l141 289h275z" />
    <glyph glyph-name="grave.cap" 
d="M760 1364h-316l-182 266h330z" />
    <glyph glyph-name="acute.cap" 
d="M578 1364h-316l168 266h330z" />
    <glyph glyph-name="circumflex.cap" 
d="M635 1634l221 -270h-258l-86 92l-86 -92h-258l221 270h246z" />
    <glyph glyph-name="caron.cap" 
d="M389 1358l-221 272h258l86 -94l86 94h258l-221 -272h-246z" />
    <glyph glyph-name="tilde.cap" 
d="M659 1657h175q0 -88 -16.5 -154t-58 -109.5t-106.5 -43.5q-53 0 -128 35.5t-107 35.5q-50 0 -53 -63h-175q0 64 9.5 117.5t30 97t56.5 68t85 24.5q53 0 128 -36t107 -36q50 0 53 64z" />
    <glyph glyph-name="macron.cap" 
d="M240 1364v221h542v-221h-542z" />
    <glyph glyph-name="breve.cap" 
d="M512 1348q-133 0 -214 77.5t-81 221.5h221q0 -42 19.5 -64t54.5 -22q74 0 74 86h221q0 -144 -81 -221.5t-214 -77.5z" />
    <glyph glyph-name="dotaccent.cap" 
d="M694 1522q0 -77 -53 -125.5t-129 -48.5t-129 48.5t-53 125.5q0 76 53 124t129 48t129 -48t53 -124z" />
    <glyph glyph-name="dieresis.cap" 
d="M166 1503q0 68 46.5 115t113.5 47q66 0 113.5 -47.5t47.5 -114.5t-47.5 -114.5t-113.5 -47.5q-67 0 -113.5 47t-46.5 115zM537 1503q0 67 46.5 114.5t112.5 47.5t114 -47.5t48 -114.5t-48 -114.5t-114 -47.5t-112.5 47.5t-46.5 114.5z" />
    <glyph glyph-name="ring.cap" 
d="M733 1530q0 -91 -63.5 -153t-157.5 -62t-157.5 62t-63.5 153t63.5 153t157.5 62t157.5 -62t63.5 -153zM586 1530q0 31 -21 52.5t-53 21.5q-31 0 -52.5 -21.5t-21.5 -52.5t21.5 -52.5t52.5 -21.5q32 0 53 21.5t21 52.5z" />
    <glyph glyph-name="hungarumlaut.cap" 
d="M395 1364h-264l154 266h266zM735 1364h-264l156 266h266z" />
    <glyph glyph-name="exclamdown.cap" horiz-adv-x="489" 
d="M53 1090q0 77 56.5 129.5t136.5 52.5q79 0 134.5 -52.5t55.5 -129.5q0 -76 -55.5 -128.5t-134.5 -52.5q-80 0 -136.5 52.5t-56.5 128.5zM49 0l72 836h248l71 -836h-391z" />
    <glyph glyph-name="questiondown.cap" horiz-adv-x="972" 
d="M657 1090q0 -77 -55 -129t-135 -52q-82 0 -138.5 51.5t-56.5 129.5t56.5 130t138.5 52q80 0 135 -52t55 -130zM41 356q0 44 11 84.5t36.5 81t44 65t57 69t52.5 61.5q56 65 59 119h317q-2 -56 -22 -101.5t-78 -116.5q-15 -19 -42 -49.5t-41 -47.5t-30 -41t-23 -45.5
t-7 -45.5q0 -52 31.5 -83.5t82.5 -31.5q56 0 88 36t35 89h332q-20 -184 -141.5 -301.5t-325.5 -117.5q-198 0 -317 101.5t-119 274.5z" />
    <glyph glyph-name="guilsinglleft.cap" horiz-adv-x="569" 
d="M518 283h-278l-189 335l189 336h278l-188 -336z" />
    <glyph glyph-name="guilsinglright.cap" horiz-adv-x="569" 
d="M330 283h-279l189 335l-189 336h279l188 -336z" />
    <glyph glyph-name="guillemotleft.cap" horiz-adv-x="923" 
d="M502 283h-262l-189 335l189 336h262l-189 -336zM872 283h-262l-188 335l188 336h262l-188 -336z" />
    <glyph glyph-name="guillemotright.cap" horiz-adv-x="923" 
d="M313 283h-262l189 335l-189 336h262l189 -336zM684 283h-262l188 335l-188 336h262l188 -336z" />
    <glyph glyph-name="slash.cap" horiz-adv-x="806" 
d="M10 -131l508 1503h279l-508 -1503h-279z" />
    <glyph glyph-name="backslash.cap" horiz-adv-x="806" 
d="M289 1372l508 -1503h-279l-508 1503h279z" />
    <glyph glyph-name="bar.cap" horiz-adv-x="456" 
d="M94 -131v1503h268v-1503h-268z" />
    <glyph glyph-name="periodcentered.cap" horiz-adv-x="477" 
d="M49 604q0 81 55 136t134 55q80 0 135 -55t55 -136t-55 -136.5t-135 -55.5q-79 0 -134 55.5t-55 136.5z" />
    <glyph glyph-name="bullet.cap" horiz-adv-x="780" 
d="M731 604q0 -147 -99 -241.5t-241 -94.5q-144 0 -243 94.5t-99 241.5q0 150 99 246t243 96q142 0 241 -96t99 -246z" />
    <glyph glyph-name="hyphen.cap" horiz-adv-x="638" 
d="M74 471v268h493v-268h-493z" />
    <glyph glyph-name="endash.cap" horiz-adv-x="954" 
d="M74 496v217h809v-217h-809z" />
    <glyph glyph-name="emdash.cap" horiz-adv-x="1714" 
d="M74 496v217h1568v-217h-1568z" />
    <glyph glyph-name="parenleft.cap" horiz-adv-x="684" 
d="M61 621q0 289 156.5 490t425.5 261v-301q-134 -45 -211.5 -157.5t-77.5 -292.5t77.5 -293t211.5 -158v-301q-269 60 -425.5 261.5t-156.5 490.5z" />
    <glyph glyph-name="parenright.cap" horiz-adv-x="684" 
d="M623 621q0 -289 -156.5 -490.5t-425.5 -261.5v301q134 45 211.5 158t77.5 293t-77.5 292.5t-211.5 157.5v301q269 -60 425.5 -261t156.5 -490z" />
    <glyph glyph-name="bracketleft.cap" horiz-adv-x="677" 
d="M393 1106v-971h244v-266h-543v1503h543v-266h-244z" />
    <glyph glyph-name="bracketright.cap" horiz-adv-x="677" 
d="M285 135v971h-244v266h543v-1503h-543v266h244z" />
    <glyph glyph-name="braceleft.cap" horiz-adv-x="749" 
d="M481 451v-256q0 -60 60 -60h168v-266h-254q-117 0 -191 74t-74 192v293q0 59 -59 59h-90v267h90q59 0 59 59v293q0 118 74 192t191 74h254v-266h-168q-60 0 -60 -59v-256q0 -110 -96 -170q96 -60 96 -170z" />
    <glyph glyph-name="braceright.cap" horiz-adv-x="749" 
d="M268 195v256q0 110 97 170q-97 60 -97 170v256q0 59 -59 59h-168v266h254q117 0 190.5 -74t73.5 -192v-293q0 -59 59 -59h91v-267h-91q-59 0 -59 -59v-293q0 -118 -73.5 -192t-190.5 -74h-254v266h168q59 0 59 60z" />
    <glyph glyph-name="at.cap" horiz-adv-x="1554" 
d="M1188 989l-86 -497q-8 -43 4.5 -63.5t48.5 -20.5q91 0 145 90t54 252q0 211 -148.5 332.5t-380.5 121.5q-274 0 -444 -173t-170 -453q0 -124 38 -222t99 -159t143.5 -101t165 -55.5t170.5 -15.5q237 0 459 98v-154q-83 -41 -205 -68.5t-254 -27.5q-123 0 -236 25.5
t-214 81t-175 136.5t-117.5 199.5t-43.5 262.5q0 215 97 392t277.5 282.5t409.5 105.5q150 0 279 -46.5t218.5 -127.5t140 -193.5t50.5 -240.5q0 -122 -34 -219.5t-93 -158t-135.5 -92.5t-165.5 -32q-73 0 -136.5 26t-100.5 76q-31 -48 -86.5 -73t-116.5 -25
q-130 0 -205 88.5t-75 226.5q0 116 46.5 215.5t134.5 161.5t199 62q56 0 105 -21.5t70 -52.5l12 57h256zM850 543l31 176q-8 28 -35 45.5t-64 17.5q-64 0 -107.5 -56t-43.5 -136q0 -53 26.5 -84t77.5 -31q73 0 115 68z" />
    <glyph glyph-name="Euro.lt" horiz-adv-x="1064" 
d="M49 676v158h92q45 204 170 324t299 120q177 0 286.5 -113t139.5 -303h-276q-13 59 -50 95t-96 36q-114 0 -161 -159h239l-28 -158h-234v-90h217l-29 -158h-165q44 -166 161 -166q59 0 96 36t50 95l276 2q-30 -190 -139.5 -302.5t-286.5 -112.5q-174 0 -300 121.5
t-169 326.5h-92v158h72v90h-72z" />
    <glyph glyph-name="dollar.lt" horiz-adv-x="1064" 
d="M416 -176v194q-151 30 -247 122t-120 237h320q41 -117 186 -117q65 0 105 29.5t40 79.5q0 46 -28.5 70t-93.5 38l-203 47q-141 34 -222 114.5t-81 227.5q0 146 94 245.5t250 127.5v186h262v-192q136 -32 217.5 -121t105.5 -221h-303q-43 106 -172 106q-64 0 -102.5 -28
t-38.5 -74q0 -40 24.5 -62.5t73.5 -35.5l224 -56q309 -75 309 -352q0 -148 -92 -245.5t-246 -127.5v-192h-262z" />
    <glyph glyph-name="cent.lt" horiz-adv-x="1064" 
d="M88 481q0 178 90 302.5t244 162.5v197h262v-197q126 -33 202.5 -126.5t90.5 -225.5h-309q-5 45 -36.5 73.5t-82.5 28.5q-66 0 -106 -58.5t-40 -156.5t40 -155.5t106 -57.5q51 0 82.5 28t36.5 73h309q-14 -134 -90.5 -227.5t-202.5 -125.5v-190h-262v188
q-154 40 -244 164.5t-90 302.5z" />
    <glyph glyph-name="sterling.lt" horiz-adv-x="1064" 
d="M500 864v-121h231v-243h-231v-47q0 -130 -43 -187h540v-266h-934v266h91q41 71 41 187v47h-132v243h132v111q0 187 110.5 305.5t298.5 118.5q176 0 281.5 -101t113.5 -268h-286q-3 47 -29 75t-72 28q-55 0 -83.5 -40t-28.5 -108z" />
    <glyph glyph-name="yen.lt" horiz-adv-x="1064" 
d="M86 500v188h195l-261 569h345l174 -415l174 415h331l-266 -569h197v-188h-285v-99h285v-188h-285v-213h-321v213h-283v188h283v99h-283z" />
    <glyph glyph-name="florin.lt" horiz-adv-x="1064" 
d="M242 479v250h164l34 191q62 358 385 358q82 0 148 -25v-262q-40 19 -86 19q-105 0 -123 -109l-31 -172h160v-250h-203l-80 -454q-31 -177 -114.5 -268t-249.5 -91q-90 0 -156 25v233q38 -18 86 -18t72 26t33 82l81 465h-120z" />
    <glyph glyph-name="zero.lt" horiz-adv-x="1064" 
d="M532 -20q-228 0 -359.5 178.5t-131.5 470.5t131.5 470.5t359.5 178.5t360 -178.5t132 -470.5t-132 -470.5t-360 -178.5zM532 989q-172 0 -172 -360q0 -361 172 -361q63 0 103 51.5t55 128.5t15 181t-15 181t-55 128t-103 51z" />
    <glyph glyph-name="one.lt" horiz-adv-x="1064" 
d="M123 0v283h305v618l-295 -145v313l393 188h222v-974h256v-283h-881z" />
    <glyph glyph-name="two.lt" horiz-adv-x="1064" 
d="M645 866q0 52 -32.5 84.5t-86.5 32.5q-56 0 -89 -35.5t-36 -89.5h-338q19 181 143.5 300.5t319.5 119.5q206 0 328.5 -107.5t122.5 -283.5q0 -58 -18 -112t-56 -105.5t-74 -90t-94 -92.5l-207 -204h453v-283h-911v211l432 430q55 59 77.5 85t44 65.5t21.5 74.5z" />
    <glyph glyph-name="three.lt" horiz-adv-x="1064" 
d="M436 518v236h72q71 0 115.5 32t44.5 95q0 54 -35.5 88.5t-97.5 34.5t-101 -40t-45 -100h-313q21 178 147.5 296t325.5 118q197 0 313.5 -106.5t116.5 -278.5q0 -81 -39 -153t-98 -105q73 -34 113 -105.5t40 -158.5q0 -172 -122 -281.5t-328 -109.5q-217 0 -345.5 114
t-142.5 309h330q5 -67 44 -107t110 -40q61 0 101 36.5t40 94.5q0 63 -45.5 97t-118.5 34h-82z" />
    <glyph glyph-name="four.lt" horiz-adv-x="1064" 
d="M721 1257l-346 -757h198v213h289v-213h164v-267h-164v-233h-282v233h-547v242l381 782h307z" />
    <glyph glyph-name="five.lt" horiz-adv-x="1064" 
d="M545 569q-44 0 -84 -17.5t-66 -45.5h-274v751h786v-280h-518v-189q90 46 186 46q197 0 311.5 -115.5t114.5 -304.5q0 -197 -124.5 -315.5t-333.5 -118.5q-213 0 -342.5 114.5t-141.5 308.5h326q6 -63 50.5 -104t113.5 -41q65 0 106 43.5t41 112.5q0 68 -40.5 111.5
t-110.5 43.5z" />
    <glyph glyph-name="six.lt" horiz-adv-x="1064" 
d="M1006 915h-312q-31 95 -131 95q-87 0 -140 -79.5t-56 -185.5v-10q31 42 92 68t141 26q186 0 301 -117t115 -290q0 -193 -127.5 -317.5t-339.5 -124.5q-123 0 -222.5 54t-162.5 154q-105 158 -105 412q0 197 58.5 349.5t173.5 240.5t270 88q183 0 298.5 -97t146.5 -266z
M379 414q0 -75 48.5 -122.5t123.5 -47.5q74 0 122 47.5t48 122.5q0 76 -48 124t-122 48q-75 0 -123.5 -48t-48.5 -124z" />
    <glyph glyph-name="seven.lt" horiz-adv-x="1064" 
d="M993 1036l-391 -1036h-330l373 975h-575v282h923v-221z" />
    <glyph glyph-name="eight.lt" horiz-adv-x="1064" 
d="M535 -20q-205 0 -341.5 100t-136.5 268q0 106 57.5 183t147.5 108q-77 37 -120.5 108.5t-43.5 163.5q0 87 35.5 157.5t96.5 115.5t139 69.5t166 24.5q118 0 215.5 -41t159 -126t61.5 -200q0 -91 -44 -163t-120 -109q89 -31 146 -108t57 -183q0 -112 -64 -197t-171 -128
t-240 -43zM535 774q61 0 102 35.5t41 91.5q0 59 -41 95t-102 36t-102.5 -36t-41.5 -95q0 -56 41.5 -91.5t102.5 -35.5zM535 233q70 0 115.5 39t45.5 101q0 63 -45.5 101t-115.5 38t-116 -38t-46 -101q0 -62 46 -101t116 -39z" />
    <glyph glyph-name="nine.lt" horiz-adv-x="1064" 
d="M59 342h312q31 -94 131 -94q87 0 140 79t56 185v10q-31 -42 -92 -68t-141 -26q-186 0 -301 117.5t-115 290.5q0 193 127.5 317.5t339.5 124.5q122 0 222 -54.5t163 -154.5q105 -158 105 -412q0 -197 -58.5 -349.5t-173.5 -240t-270 -87.5q-183 0 -298.5 96.5
t-146.5 265.5zM686 844q0 75 -48.5 122.5t-123.5 47.5q-74 0 -122 -47.5t-48 -122.5q0 -76 48 -124t122 -48q75 0 123.5 48t48.5 124z" />
    <glyph glyph-name="period.tab" horiz-adv-x="532" 
d="M76 178q0 81 54.5 136t133.5 55q80 0 135.5 -55t55.5 -136t-55.5 -136.5t-135.5 -55.5q-78 0 -133 55.5t-55 136.5z" />
    <glyph glyph-name="comma.tab" horiz-adv-x="532" 
d="M61 -215l154 235q-59 11 -99 56t-40 112q0 78 54 128.5t136 50.5q79 0 134 -53t55 -146t-78 -213l-113 -170h-203z" />
    <glyph glyph-name="colon.tab" horiz-adv-x="532" 
d="M76 721q0 81 54.5 135.5t133.5 54.5q80 0 135.5 -54.5t55.5 -135.5t-55.5 -137t-135.5 -56q-78 0 -133 56t-55 137zM76 178q0 81 54.5 136t133.5 55q80 0 135.5 -55t55.5 -136t-55.5 -136.5t-135.5 -55.5q-78 0 -133 55.5t-55 136.5z" />
    <glyph glyph-name="semicolon.tab" horiz-adv-x="532" 
d="M76 721q0 81 54.5 135.5t133.5 54.5q80 0 135.5 -54.5t55.5 -135.5t-55.5 -137t-135.5 -56q-78 0 -133 56t-55 137zM61 -215l154 235q-59 11 -99 56t-40 112q0 78 54 128.5t136 50.5q79 0 134 -53t55 -146t-78 -213l-113 -170h-203z" />
    <glyph glyph-name="space.tab" horiz-adv-x="532" 
 />
    <glyph glyph-name="percent.lt" horiz-adv-x="1064" 
d="M39 1024q0 106 74 180t178 74q105 0 179.5 -74.5t74.5 -179.5q0 -104 -74.5 -177t-179.5 -73q-104 0 -178 73t-74 177zM51 0l783 1257h180l-783 -1257h-180zM199 1024q0 -38 27 -64t65 -26q39 0 66.5 26t27.5 64t-28 66t-66 28t-65 -28t-27 -66zM1026 233
q0 -105 -74 -179t-178 -74q-105 0 -179.5 74t-74.5 179q0 104 74.5 177t179.5 73q104 0 178 -73t74 -177zM866 233q0 38 -27 64.5t-65 26.5q-39 0 -66.5 -26.5t-27.5 -64.5t28 -66t66 -28t65 28t27 66z" />
    <glyph glyph-name="perthousand.lt" horiz-adv-x="1638" 
d="M68 1024q0 106 73 180t176 74q106 0 180 -74t74 -180q0 -104 -74 -177t-180 -73q-103 0 -176 73t-73 177zM53 0l834 1257h180l-834 -1257h-180zM227 1024q0 -38 26.5 -64t63.5 -26q40 0 67.5 26t27.5 64t-28 66t-67 28q-37 0 -63.5 -28t-26.5 -66zM1053 233
q0 -106 -73 -179.5t-177 -73.5q-106 0 -180 73.5t-74 179.5q0 104 74 177t180 73q104 0 177 -73t73 -177zM1595 233q0 -106 -72.5 -179.5t-176.5 -73.5q-106 0 -180 73.5t-74 179.5q0 104 74 177t180 73q104 0 176.5 -73t72.5 -177zM893 233q0 38 -26 64.5t-64 26.5
q-39 0 -66.5 -26.5t-27.5 -64.5t28 -66t66 -28t64 27.5t26 66.5zM1436 233q0 38 -26.5 64.5t-63.5 26.5q-39 0 -67 -26.5t-28 -64.5t28.5 -66t66.5 -28q37 0 63.5 28t26.5 66z" />
    <glyph glyph-name="plus.lt" horiz-adv-x="1064" 
d="M414 1077h237v-346h344v-237h-344v-344h-237v344h-346v237h346v346z" />
    <glyph glyph-name="minus.lt" horiz-adv-x="1064" 
d="M68 494v237h927v-237h-927z" />
    <glyph glyph-name="multiply.lt" horiz-adv-x="1064" 
d="M367 610l-248 246l166 166l247 -246l246 246l166 -166l-246 -246l246 -245l-166 -166l-246 245l-247 -245l-166 166z" />
    <glyph glyph-name="divide.lt" horiz-adv-x="1064" 
d="M367 981q0 67 48.5 114.5t116.5 47.5t117 -47.5t49 -114.5t-49 -114.5t-117 -47.5t-116.5 47.5t-48.5 114.5zM68 494v237h927v-237h-927zM367 244q0 67 48.5 114.5t116.5 47.5t117 -47.5t49 -114.5t-49 -114.5t-117 -47.5t-116.5 47.5t-48.5 114.5z" />
    <glyph glyph-name="equal.lt" horiz-adv-x="1064" 
d="M68 696v215h927v-215h-927zM68 324v211h927v-211h-927z" />
    <glyph glyph-name="less.lt" horiz-adv-x="1064" 
d="M178 461v295l709 313v-264l-486 -197l486 -194v-267z" />
    <glyph glyph-name="greater.lt" horiz-adv-x="1064" 
d="M887 756v-295l-709 -314v267l484 194l-484 197v264z" />
    <glyph glyph-name="plusminus.lt" horiz-adv-x="1064" 
d="M424 1149h215v-262h340v-213h-340v-262h-215v262h-338v213h338v262zM86 98v215h893v-215h-893z" />
    <glyph glyph-name="lessequal.lt" horiz-adv-x="1064" 
d="M178 610v285l709 250v-252l-479 -139l479 -142v-250zM178 86v229h709v-229h-709z" />
    <glyph glyph-name="greaterequal.lt" horiz-adv-x="1064" 
d="M887 895v-285l-709 -248v250l477 142l-477 139v252zM887 315v-229h-709v229h709z" />
    <glyph glyph-name="notequal.lt" horiz-adv-x="1064" 
d="M68 696v213h550l123 191h197l-123 -191h180v-213h-315l-105 -161h420v-211h-555l-121 -191h-196l121 191h-176v211h311l104 161h-415z" />
    <glyph glyph-name="approxequal.lt" horiz-adv-x="1064" 
d="M68 637v223q129 82 249 82q78 0 210.5 -40t211.5 -40q127 0 256 84v-223q-134 -84 -256 -84q-79 0 -211.5 41t-210.5 41q-121 0 -249 -84zM68 285v219q127 86 249 86q78 0 210.5 -42t211.5 -42q123 0 256 86v-223q-131 -82 -256 -82q-79 0 -211.5 40t-210.5 40
q-120 0 -249 -82z" />
    </font>
</defs>
</svg>
