<?xml version="1.0" standalone="no"?>
<!DOCTYPE svg PUBLIC "-//W3C//DTD SVG 1.1//EN" "http://www.w3.org/Graphics/SVG/1.1/DTD/svg11.dtd" >
<svg xmlns="http://www.w3.org/2000/svg" xmlns:xlink="http://www.w3.org/1999/xlink" version="1.1">
<metadata>
Created by FontForge 20170731 at Thu May 16 15:43:42 2019
 By Aleksey,,,
Copyright (c) 2007-2019 Monotype GmbH. All rights reserved
</metadata>
<defs>
<font id="ClanPro-Thin" horiz-adv-x="392" >
  <font-face 
    font-family="Clan Pro Thin"
    font-weight="250"
    font-stretch="normal"
    units-per-em="1000"
    panose-1="2 0 4 3 4 0 0 2 0 4"
    ascent="787"
    descent="-213"
    x-height="584"
    cap-height="750"
    bbox="-229 -226 1097 972"
    underline-thickness="25"
    underline-position="-124"
    unicode-range="U+000D-FEFF"
  />
<missing-glyph horiz-adv-x="612" 
d="M105 750h402v-750h-402v750zM482 25v700h-352v-700h352z" />
    <glyph glyph-name="IJ" unicode="IJ" horiz-adv-x="858" 
d="M138 750h33v-750h-33v750zM734 226q0 -112 -58.5 -175.5t-170.5 -63.5q-51 0 -89.5 14t-64.5 37l7 29q28 -25 64 -38.5t83 -13.5q92 0 144 52.5t52 158.5v524h33v-524z" />
    <glyph glyph-name="ij" unicode="ij" horiz-adv-x="605" 
d="M137 0v582l30 3v-585h-30zM185 759q0 -32 -32 -32q-16 0 -25 6.5t-9 25.5q0 15 9 24t25 9q32 0 32 -33zM468 -26q0 -69 -30 -96.5t-80 -27.5q-13 0 -28.5 3t-26.5 8l4 24q23 -10 46 -10q38 0 61.5 23t23.5 77v607l30 3v-611zM486 762q0 -18 -8.5 -25.5t-24.5 -7.5
q-17 0 -25.5 6.5t-8.5 26.5q0 32 34 32q33 0 33 -32z" />
    <glyph glyph-name="f_i" unicode="fi" horiz-adv-x="683" 
d="M146 0v561h-101v23h101v30q0 41 10.5 74.5t32.5 57t56.5 36t83.5 12.5q19 0 39 -3t32 -6l-2 -22q-13 4 -30 6.5t-35 2.5q-83 0 -120 -42t-37 -116v-30h369v-584h-30v561h-339v-561h-30zM564 762q0 -18 -9 -25.5t-25 -7.5t-25 6.5t-9 26.5q0 32 34 32t34 -32z" />
    <glyph glyph-name="f_j" unicode="fj" horiz-adv-x="683" 
d="M146 0v561h-101v23h101v30q0 41 10.5 74.5t32.5 57t56.5 36t83.5 12.5q19 0 39 -3t32 -6l-2 -22q-13 4 -30 6.5t-35 2.5q-83 0 -120 -42t-37 -116v-30h369v-610q0 -69 -29.5 -96.5t-80.5 -27.5q-13 0 -28.5 3t-26.5 8l3 24q25 -10 48 -10q37 0 61 23t24 77v586h-340v-561
h-30zM564 762q0 -18 -9 -25.5t-25 -7.5t-25 6.5t-9 26.5q0 32 34 32t34 -32z" />
    <glyph glyph-name="f_l" unicode="fl" horiz-adv-x="655" 
d="M493 0v770q-30 3 -57.5 5t-62.5 2q-107 0 -152 -41.5t-45 -117.5v-34h154v-23h-154v-561h-30v561h-102v23h102v34q0 41 12 74.5t39 57.5t70 37t105 13q50 0 83 -4.5t68 -5.5v-790h-30z" />
    <glyph glyph-name=".notdef" horiz-adv-x="612" 
d="M105 750h402v-750h-402v750zM482 25v700h-352v-700h352z" />
    <glyph glyph-name=".null" horiz-adv-x="0" 
 />
    <glyph glyph-name=".null" horiz-adv-x="0" 
 />
    <glyph glyph-name="nonmarkingreturn" unicode="&#xd;" horiz-adv-x="337" 
 />
    <glyph glyph-name="space" unicode=" " horiz-adv-x="337" 
 />
    <glyph glyph-name="exclam" unicode="!" horiz-adv-x="303" 
d="M139 180l-6 570h34l-8 -570h-20zM184 20q0 -30 -33 -30q-15 0 -24 7t-9 23q0 15 9 23t24 8q33 0 33 -31z" />
    <glyph glyph-name="quotedbl" unicode="&#x22;" horiz-adv-x="339" 
d="M267 774l-13 -202h-21l-7 202h41zM113 774l-13 -202h-21l-7 202h41z" />
    <glyph glyph-name="numbersign" unicode="#" horiz-adv-x="658" 
d="M214 282l33 201h-170v25h173l34 242h24l-34 -242h145l34 242h24l-35 -242h140v-25h-142l-32 -201h173v-25h-176l-35 -257h-24l35 257h-145l-35 -257h-25l35 257h-135v25h138zM239 282h145l32 201h-145z" />
    <glyph glyph-name="dollar" unicode="$" horiz-adv-x="658" 
d="M288 -85l4 72q-57 2 -108.5 17t-87.5 38l5 33q40 -25 88.5 -41t104.5 -19l22 369q-41 14 -80.5 29.5t-70.5 37.5t-49.5 53t-18.5 76q0 86 64.5 133t176.5 49l4 67l25 -1l-4 -67q54 -2 97 -14t66 -25l-5 -29q-38 17 -76 27t-84 12l-20 -322q41 -14 81 -31t71.5 -42
t50.5 -60.5t19 -86.5q0 -106 -61 -154t-187 -49l-4 -74zM535 188q0 42 -16.5 71.5t-43.5 51t-62.5 37t-73.5 28.5l-22 -361q109 1 163.5 43t54.5 130zM127 581q0 -36 16 -61t42 -43.5t60.5 -32t72.5 -26.5l18 315q-54 0 -93 -12t-65 -32t-38.5 -47.5t-12.5 -60.5z" />
    <glyph glyph-name="percent" unicode="%" horiz-adv-x="681" 
d="M324 592q0 -95 -32 -134.5t-96 -39.5q-68 0 -99.5 39.5t-31.5 134.5q0 93 30 134t101 41q32 0 56 -9t40 -29.5t24 -54t8 -82.5zM298 593q0 45 -6 74.5t-18.5 47t-32 24.5t-45.5 7q-27 0 -47 -7t-32.5 -24.5t-19 -47t-6.5 -74.5t6.5 -74.5t19 -47t32.5 -24.5t47 -7
q26 0 45.5 7t32 24.5t18.5 47t6 74.5zM529 746l-370 -747l-23 10l370 747zM616 168q0 -95 -32 -134.5t-96 -39.5q-68 0 -99.5 39.5t-31.5 134.5q0 93 30 134.5t101 41.5q64 0 96 -39t32 -137zM590 168q0 45 -6 74.5t-18.5 47t-32 24.5t-45.5 7q-27 0 -46.5 -7t-32.5 -24.5
t-19.5 -47t-6.5 -74.5t6.5 -74t19.5 -46.5t32.5 -24.5t46.5 -7q26 0 45.5 7t32 24.5t18.5 47t6 73.5z" />
    <glyph glyph-name="ampersand" unicode="&#x26;" horiz-adv-x="667" 
d="M642 -10q-79 55 -161 129q-20 -27 -44 -51t-52.5 -42t-61.5 -28t-70 -10q-50 0 -85 14.5t-57.5 40t-32.5 59t-10 71.5q0 42 12.5 77.5t33.5 66t48 57t57 50.5q-33 52 -51.5 99t-18.5 85q0 33 9.5 61t28.5 48.5t48 32.5t68 12q36 0 61.5 -8.5t42.5 -24t25 -36.5t8 -46
q0 -29 -10.5 -54t-28.5 -48q-27 -35 -65.5 -65t-78.5 -62q42 -63 98.5 -128t119.5 -127q32 49 52 102t27 101h26q-5 -43 -25 -104t-58 -120q39 -36 78.5 -69t77.5 -61zM257 15q60 0 111 35.5t91 89.5q-65 61 -123 127.5t-101 131.5q-27 -22 -52 -46t-44 -52t-30 -60t-11 -69
t12 -66t33 -49.5t50 -31t64 -10.5zM178 608q0 -33 17 -75.5t47 -90.5q40 31 77 60t61 61q15 20 23.5 40.5t8.5 43.5q0 42 -28 66.5t-82 24.5q-53 0 -88.5 -34t-35.5 -96z" />
    <glyph glyph-name="quotesingle" unicode="'" horiz-adv-x="185" 
d="M113 774l-13 -202h-21l-7 202h41z" />
    <glyph glyph-name="parenleft" unicode="(" horiz-adv-x="304" 
d="M302 804q-74 -97 -118 -210t-44 -254q0 -73 12 -137t33 -121.5t50.5 -109t64.5 -97.5l-34 -1q-69 85 -111.5 204t-42.5 262q0 74 10.5 138t30.5 121t48.5 107.5t64.5 98.5z" />
    <glyph glyph-name="parenright" unicode=")" horiz-adv-x="304" 
d="M38 805q36 -48 64.5 -98.5t48.5 -107.5t30.5 -121t10.5 -138q0 -143 -42.5 -262t-111.5 -204l-34 1q35 46 64.5 97.5t50.5 109t33 121.5t12 137q0 141 -44 254t-117 210z" />
    <glyph glyph-name="asterisk" unicode="*" horiz-adv-x="341" 
d="M182 800v-122l115 34l9 -21l-117 -33l77 -101l-19 -15l-76 104l-78 -104l-19 15l78 101l-117 33l8 21l116 -34v122h23z" />
    <glyph glyph-name="plus" unicode="+" horiz-adv-x="592" 
d="M307 330v-199h-28v199h-195v26h195v204h28v-204h201v-26h-201z" />
    <glyph glyph-name="comma" unicode="," horiz-adv-x="234" 
d="M116 53q18 0 26.5 -9t8.5 -24q0 -8 -5.5 -27t-13.5 -42t-17.5 -47t-17.5 -42l-12 2l26 127q-13 1 -20 9.5t-7 19.5q0 15 7.5 24t24.5 9z" />
    <glyph glyph-name="hyphen" unicode="-" horiz-adv-x="421" 
d="M332 351v-23h-242v23h242z" />
    <glyph glyph-name="period" unicode="." horiz-adv-x="234" 
d="M150 22q0 -32 -33 -32t-33 32t33 32t33 -32z" />
    <glyph glyph-name="slash" unicode="/" horiz-adv-x="419" 
d="M404 805l-347 -937h-27l347 937h27z" />
    <glyph glyph-name="zero" unicode="0" horiz-adv-x="658" 
d="M585 377q0 -108 -14.5 -182t-45.5 -120t-79.5 -66t-115.5 -20q-69 0 -117.5 20t-79.5 66t-45.5 120t-14.5 182t14.5 181t45.5 118t79.5 64.5t117.5 19.5q67 0 115.5 -19.5t79.5 -64.5t45.5 -118t14.5 -181zM554 377q0 105 -13.5 173.5t-41 109t-69.5 57t-100 16.5
t-101 -16.5t-71 -57t-41.5 -109t-13.5 -173.5t13.5 -174.5t41.5 -111t71 -58t101 -16.5t100 16.5t69.5 57.5t41 110.5t13.5 175.5z" />
    <glyph glyph-name="one" unicode="1" horiz-adv-x="658" 
d="M199 27h158v601l2 81l-2 1l-65 -48l-119 -85l-5 29l203 148h18v-727h151v-27h-341v27z" />
    <glyph glyph-name="two" unicode="2" horiz-adv-x="658" 
d="M558 566q0 -65 -31.5 -128.5t-87 -129t-131 -134t-164.5 -143.5v-3h424l-2 -28h-468v22q77 71 154 140.5t138 137.5t99 134t38 130q0 34 -11.5 64t-36 52.5t-63 36t-92.5 13.5q-60 0 -114 -23t-92 -59l-13 24q39 36 96.5 61t123.5 25q111 0 172 -49.5t61 -142.5z" />
    <glyph glyph-name="three" unicode="3" horiz-adv-x="658" 
d="M573 223q0 -51 -15.5 -93.5t-47 -73t-80 -47.5t-114.5 -17q-40 0 -72.5 5t-59.5 14t-49 20.5t-41 24.5l10 26q43 -31 94.5 -47.5t117.5 -16.5q59 0 102 16t70.5 43.5t41 65.5t13.5 82q0 93 -67 131t-213 38v25q135 0 196.5 42.5t61.5 122.5q0 38 -14.5 65.5t-40.5 45.5
t-62.5 26.5t-80.5 8.5q-66 0 -115.5 -21.5t-91.5 -58.5l-13 22q35 35 91.5 60.5t129.5 25.5q106 0 165.5 -43t59.5 -129q0 -42 -13 -72.5t-36 -51.5t-53.5 -33.5t-64.5 -18.5v-3q92 -12 141.5 -54.5t49.5 -129.5z" />
    <glyph glyph-name="four" unicode="4" horiz-adv-x="658" 
d="M481 188v-188h-30v188h-362l-3 19l353 543h42v-535h112l-2 -27h-110zM454 645l2 81l-2 1l-43 -69l-244 -376l-44 -64l1 -3h328z" />
    <glyph glyph-name="five" unicode="5" horiz-adv-x="658" 
d="M559 253q0 -132 -61.5 -196.5t-182.5 -64.5q-68 0 -117 17t-90 47l9 28q42 -30 89 -48t107 -18q107 0 161.5 57.5t54.5 174.5q0 101 -50 146t-156 45q-60 0 -111.5 -15t-86.5 -37l-17 11l30 350h389l1 -28h-366l-20 -221l-9 -80l2 -2q40 25 92 37t99 12q119 0 176 -53
t57 -162z" />
    <glyph glyph-name="six" unicode="6" horiz-adv-x="658" 
d="M570 252q0 -127 -59 -193.5t-182 -66.5q-60 0 -106.5 18t-77.5 59t-47 109t-16 168q0 109 19 187t56.5 128t92.5 73.5t126 23.5q42 0 79 -7t77 -24l-5 -27q-36 15 -70.5 22t-77.5 7q-128 0 -196.5 -85t-72.5 -272l3 -2q45 47 105 71.5t122 24.5q122 0 176 -52.5
t54 -161.5zM539 252q0 99 -48.5 144t-154.5 45q-29 0 -60.5 -7t-61 -20.5t-56 -32t-45.5 -42.5q1 -87 14.5 -148t39.5 -99.5t66.5 -56t96.5 -17.5q104 0 156.5 59.5t52.5 174.5z" />
    <glyph glyph-name="seven" unicode="7" horiz-adv-x="658" 
d="M586 726l-354 -726h-37l360 722h-469l2 28h498v-24z" />
    <glyph glyph-name="eight" unicode="8" horiz-adv-x="658" 
d="M81 193q0 41 14 73.5t38 58t56.5 44.5t70.5 32v3q-31 10 -58 24t-47.5 34t-32 48.5t-11.5 67.5q0 84 50.5 131.5t168.5 47.5q112 0 165 -44t53 -135q0 -66 -39 -113.5t-115 -73.5v-3q36 -11 69.5 -25t59 -36.5t40.5 -54.5t15 -78q0 -103 -63 -152.5t-185 -49.5
q-130 0 -189.5 49.5t-59.5 151.5zM547 194q0 52 -23 84.5t-60 52.5t-82.5 33t-90.5 27q-38 -15 -71 -33t-57 -42t-38 -54t-14 -69q0 -42 11.5 -75t38 -55t68.5 -33.5t102 -11.5q99 0 157.5 42.5t58.5 133.5zM140 577q0 -44 18 -72.5t48.5 -48t70.5 -32.5t85 -25
q85 32 121.5 74.5t36.5 102.5q0 78 -46 117t-144 39q-99 0 -144.5 -40t-45.5 -115z" />
    <glyph glyph-name="nine" unicode="9" horiz-adv-x="658" 
d="M569 421q0 -117 -17.5 -198.5t-52.5 -133t-87.5 -74.5t-121.5 -23q-44 0 -80.5 7t-77.5 26l5 25q38 -16 72.5 -23.5t77.5 -7.5q63 0 110 21.5t79 68t48.5 121t18.5 179.5l-2 1q-45 -44 -100 -64.5t-118 -20.5q-128 0 -185.5 58.5t-57.5 158.5t57 158t177 58t187.5 -83.5
t67.5 -253.5zM540 438q-2 77 -18.5 132.5t-45.5 91.5t-70 53t-92 17q-102 0 -153 -49t-51 -141q0 -88 52 -140t162 -52q62 0 118 19.5t98 68.5z" />
    <glyph glyph-name="colon" unicode=":" horiz-adv-x="234" 
d="M150 529q0 -32 -33 -32t-33 32t33 32t33 -32zM150 22q0 -32 -33 -32t-33 32t33 32t33 -32z" />
    <glyph glyph-name="semicolon" unicode=";" horiz-adv-x="240" 
d="M156 529q0 -32 -33 -32t-33 32t33 32t33 -32zM116 53q18 0 26.5 -9t8.5 -24q0 -8 -5.5 -27t-13.5 -42t-17.5 -47t-17.5 -42l-12 2l26 127q-13 1 -20 9.5t-7 19.5q0 15 7.5 24t24.5 9z" />
    <glyph glyph-name="less" unicode="&#x3c;" horiz-adv-x="592" 
d="M211 380l-72 -35v-3l73 -35l286 -143v-31l-403 202v14l403 212v-30z" />
    <glyph glyph-name="equal" unicode="=" horiz-adv-x="592" 
d="M79 409v26h434v-26h-434zM79 252v26h434v-26h-434z" />
    <glyph glyph-name="greater" unicode="&#x3e;" horiz-adv-x="592" 
d="M95 164l284 142l74 35v3l-73 36l-285 151v30l403 -212v-14l-403 -202v31z" />
    <glyph glyph-name="question" unicode="?" horiz-adv-x="519" 
d="M458 598q0 -43 -13 -78.5t-38 -67t-60.5 -59.5t-81.5 -55l-3 -158h-25l-4 171q46 30 82 58t61 57.5t38 61.5t13 70q0 75 -43.5 107.5t-116.5 32.5q-64 0 -113 -23.5t-91 -61.5l-14 20q37 39 92 65t126 26q191 0 191 -166zM285 20q0 -30 -33 -30q-34 0 -34 30q0 31 34 31
q33 0 33 -31z" />
    <glyph glyph-name="at" unicode="@" horiz-adv-x="831" 
d="M443 545q30 0 53.5 -12t36.5 -36h3l12 40l22 -2l-45 -251q-2 -10 -3 -19.5t-1 -17.5q0 -41 20.5 -64t61.5 -23q63 0 101 61.5t38 180.5q0 75 -20 139t-59 110.5t-96.5 73t-131.5 26.5q-85 0 -149.5 -34.5t-108 -92t-65.5 -132.5t-22 -156q0 -84 20.5 -158.5t63 -130.5
t107.5 -88.5t154 -32.5q58 0 102.5 8.5t78 22.5t57.5 31.5t41 35.5l12 -21q-25 -22 -54.5 -40.5t-64.5 -32t-77.5 -21t-93.5 -7.5q-93 0 -163 33t-116.5 91t-69.5 137.5t-23 172.5q0 87 23.5 166t70 140t116 97t162.5 36q77 0 138.5 -27.5t104 -76.5t65.5 -118t23 -151
q0 -135 -47 -201t-123 -66q-40 0 -66.5 22t-31.5 69l-3 1q-22 -43 -56.5 -67.5t-74.5 -24.5q-54 0 -86 36t-32 114q0 51 15.5 98t42 83t62 57.5t76.5 21.5zM528 471q-14 26 -35.5 37t-50.5 11q-34 0 -64 -19.5t-52.5 -51.5t-35.5 -74.5t-13 -88.5q0 -65 26 -94t68 -29
q22 0 43 10.5t37.5 28.5t28 42.5t16.5 53.5z" />
    <glyph glyph-name="A" unicode="A" horiz-adv-x="686" 
d="M534 218h-383l-83 -218h-37l294 750h39l291 -750h-38zM315 644l-153 -398h362l-152 398l-26 77h-3z" />
    <glyph glyph-name="B" unicode="B" horiz-adv-x="682" 
d="M600 207q0 -50 -11.5 -88.5t-36.5 -64.5t-65.5 -40t-98.5 -14h-264v750h245q98 0 148 -42.5t50 -138.5q0 -80 -34.5 -120t-84.5 -49v-3q69 -12 110.5 -56t41.5 -134zM568 209q0 88 -45.5 130t-138.5 42h-228v-353h233q41 0 74 9.5t56.5 31t36 56t12.5 84.5zM536 565
q0 84 -41.5 120.5t-126.5 36.5h-212v-314h223q157 0 157 157z" />
    <glyph glyph-name="C" unicode="C" horiz-adv-x="616" 
d="M553 695q-31 16 -75.5 27t-92.5 11q-68 0 -119.5 -18t-85.5 -59t-51 -107.5t-17 -164.5q0 -105 17 -175.5t51.5 -113t86.5 -61t121 -18.5q50 0 91.5 11.5t76.5 30.5l8 -25q-32 -19 -80 -32.5t-99 -13.5q-81 0 -139 23t-95.5 71.5t-55 123.5t-17.5 179q0 100 18.5 172
t56 117.5t95 67t136.5 21.5q24 0 49 -3t48.5 -8.5t44 -12.5t34.5 -15z" />
    <glyph glyph-name="D" unicode="D" horiz-adv-x="743" 
d="M665 377q0 -103 -18.5 -174.5t-56.5 -116.5t-95.5 -65.5t-136.5 -20.5h-234v750h233q81 0 139 -20.5t95.5 -65t55.5 -115.5t18 -172zM631 377q0 97 -16 163t-50 106t-85.5 57t-123.5 17h-199v-690h200q67 0 118.5 16.5t86 56t52 106.5t17.5 168z" />
    <glyph glyph-name="E" unicode="E" horiz-adv-x="628" 
d="M570 29l-2 -29h-444v750h425l2 -29h-395v-312h345v-27h-345v-353h414z" />
    <glyph glyph-name="F" unicode="F" horiz-adv-x="595" 
d="M157 720v-313h332v-28h-332v-379h-33v750h425l2 -30h-394z" />
    <glyph glyph-name="G" unicode="G" horiz-adv-x="685" 
d="M607 32q-39 -21 -93.5 -33t-117.5 -12q-81 0 -141 20.5t-99 66t-58.5 119t-19.5 178.5q0 107 19 181.5t58.5 121t99.5 67.5t142 21q52 0 103 -11t87 -28l-6 -28q-39 17 -83.5 28t-99.5 11q-71 0 -124.5 -17.5t-89.5 -59.5t-54 -111.5t-18 -174.5q0 -97 16 -164.5
t50.5 -110t88.5 -61.5t129 -19q54 0 99 9.5t82 27.5v338h30v-359z" />
    <glyph glyph-name="H" unicode="H" horiz-adv-x="764" 
d="M608 0v381h-451v-381h-33v750h33v-341h451v341h33v-750h-33z" />
    <glyph glyph-name="I" unicode="I" horiz-adv-x="309" 
d="M138 750h33v-750h-33v750z" />
    <glyph glyph-name="J" unicode="J" horiz-adv-x="549" 
d="M425 226q0 -112 -58.5 -175.5t-170.5 -63.5q-51 0 -89.5 14t-64.5 37l7 29q28 -25 64 -38.5t83 -13.5q92 0 144 52.5t52 158.5v524h33v-524z" />
    <glyph glyph-name="K" unicode="K" horiz-adv-x="686" 
d="M596 0l-302 381h-137v-381h-33v750h33v-340h135l288 340h47l-300 -353l318 -397h-49z" />
    <glyph glyph-name="L" unicode="L" horiz-adv-x="579" 
d="M548 30l-2 -30h-422v750h32v-720h392z" />
    <glyph glyph-name="M" unicode="M" horiz-adv-x="908" 
d="M167 750l257 -636l29 -75h3l28 75l258 636h42v-750h-29v627l2 81l-3 1l-29 -76l-256 -633h-31l-255 626l-29 76l-2 -1l1 -81v-620h-29v750h43z" />
    <glyph glyph-name="N" unicode="N" horiz-adv-x="769" 
d="M619 0l-420 643l-43 69l-2 -1l1 -81v-630h-31v750h40l408 -630l44 -68l2 1l-2 80v616h29v-749h-26z" />
    <glyph glyph-name="O" unicode="O" horiz-adv-x="734" 
d="M656 375q0 -106 -15 -179.5t-49.5 -120t-89.5 -67.5t-134 -21q-80 0 -135 21t-89.5 67.5t-50 120t-15.5 179.5t15.5 179.5t50 119.5t89.5 67t135 21q79 0 134 -21t89.5 -67t49.5 -119.5t15 -179.5zM623 375q0 104 -14.5 173t-45 110t-79 58t-116.5 17t-116.5 -17
t-79.5 -58t-45.5 -110t-14.5 -173q0 -103 14.5 -172t45.5 -110.5t79.5 -59t116.5 -17.5t116.5 17.5t79 59t45 110.5t14.5 172z" />
    <glyph glyph-name="P" unicode="P" horiz-adv-x="640" 
d="M582 540q0 -111 -54.5 -163t-174.5 -52h-196v-325h-33v750h229q119 0 174 -48.5t55 -161.5zM549 540q0 99 -49 140.5t-147 41.5h-196v-369h196q48 0 85 9.5t61.5 31.5t37 57.5t12.5 88.5z" />
    <glyph glyph-name="Q" unicode="Q" horiz-adv-x="734" 
d="M656 375q0 -102 -14 -174t-45.5 -118.5t-82 -69t-123.5 -25.5l196 -133l-62 -10l-178 143q-74 3 -125 25t-83 68.5t-46.5 119t-14.5 174.5q0 106 15.5 179.5t50 119.5t89.5 67t135 21q79 0 134 -21t89.5 -67t49.5 -119.5t15 -179.5zM623 375q0 104 -14.5 173t-45 110
t-79 58t-116.5 17t-116.5 -17t-79.5 -58t-45.5 -110t-14.5 -173q0 -103 14.5 -172t45.5 -110.5t79.5 -59t116.5 -17.5t116.5 17.5t79 59t45 110.5t14.5 172z" />
    <glyph glyph-name="R" unicode="R" horiz-adv-x="643" 
d="M557 558q0 -96 -43.5 -142.5t-128.5 -51.5l221 -364h-42l-213 359h-194v-359h-33v750h233q105 0 152.5 -47.5t47.5 -144.5zM525 558q0 88 -41 126t-128 38h-199v-336h192q91 0 133.5 40.5t42.5 131.5z" />
    <glyph glyph-name="S" unicode="S" horiz-adv-x="559" 
d="M504 201q0 -101 -58 -157.5t-175 -56.5q-64 0 -115 16t-92 43l8 28q43 -29 91 -43.5t109 -14.5q98 0 149 48.5t51 134.5q0 43 -17 72.5t-45 49.5t-64 34t-73.5 27t-73.5 27.5t-64 36t-45 52.5t-17 77q0 40 13.5 74.5t40.5 59.5t68.5 39t98.5 14q55 0 101.5 -11t84.5 -31
l-9 -26q-42 19 -83.5 29.5t-92.5 10.5q-50 0 -86 -13t-59 -34.5t-34 -50.5t-11 -60q0 -41 17 -68t45 -46t64 -32t73.5 -26t73.5 -28t64 -37.5t45 -55.5t17 -82z" />
    <glyph glyph-name="T" unicode="T" horiz-adv-x="568" 
d="M300 720v-720h-33v720h-246l1 30h524l1 -30h-247z" />
    <glyph glyph-name="U" unicode="U" horiz-adv-x="746" 
d="M641 272q0 -77 -18.5 -131.5t-53 -88.5t-84.5 -49.5t-112 -15.5q-63 0 -112.5 15.5t-84 49.5t-53 88.5t-18.5 131.5v478h33v-479q0 -133 59 -193.5t176 -60.5q118 0 176.5 61t58.5 193v479h33v-478z" />
    <glyph glyph-name="V" unicode="V" horiz-adv-x="674" 
d="M637 750l-279 -750h-42l-279 750h38l234 -640l27 -76h3l26 76l236 640h36z" />
    <glyph glyph-name="W" unicode="W" horiz-adv-x="983" 
d="M513 750l170 -642l20 -78h3l17 79l154 641h33l-185 -750h-45l-169 638l-18 79h-3l-19 -79l-169 -638h-44l-186 750h34l155 -642l18 -79h3l19 78l170 643h42z" />
    <glyph glyph-name="X" unicode="X" horiz-adv-x="682" 
d="M364 389l261 -389h-41l-246 368l-239 -368h-42l256 390l-245 360h43l228 -340l224 340h41z" />
    <glyph glyph-name="Y" unicode="Y" horiz-adv-x="642" 
d="M78 750l205 -373l38 -71h3l37 71l205 373h39l-266 -478v-272h-34v272l-268 478h41z" />
    <glyph glyph-name="Z" unicode="Z" horiz-adv-x="616" 
d="M61 0v21l406 633l44 65l-1 2h-435l3 29h471v-25l-403 -629l-44 -64l1 -3h447l-3 -29h-486z" />
    <glyph glyph-name="bracketleft" unicode="[" horiz-adv-x="300" 
d="M112 805h184v-26h-155v-878h156v-25h-185v929z" />
    <glyph glyph-name="backslash" unicode="\" 
d="M58 805l310 -937h-27l-309 937h26z" />
    <glyph glyph-name="bracketright" unicode="]" horiz-adv-x="300" 
d="M188 -124h-185v25h157v878h-157v26h185v-929z" />
    <glyph glyph-name="asciicircum" unicode="^" horiz-adv-x="658" 
d="M329 775l-215 -313h-34l237 343h25l235 -343h-31z" />
    <glyph glyph-name="underscore" unicode="_" horiz-adv-x="442" 
d="M408 -53v-25h-369v25h369z" />
    <glyph glyph-name="grave" unicode="`" 
d="M226 669l-96 141h47l77 -141h-28z" />
    <glyph glyph-name="a" unicode="a" horiz-adv-x="565" 
d="M446 95l-3 1q-10 -23 -29 -42t-44.5 -33t-56 -22t-63.5 -8q-39 0 -71.5 9.5t-56.5 31t-37 55.5t-13 83q0 85 51 128t161 43q42 0 84.5 -8.5t73.5 -22.5v89q0 49 -10 82t-30.5 53t-51 28t-71.5 8q-45 0 -87.5 -9.5t-80.5 -30.5l-5 27q81 39 177 39q49 0 85 -10.5t59 -34.5
t34 -62.5t11 -93.5v-395h-23zM442 285q-12 9 -53.5 20.5t-101.5 11.5q-97 0 -141 -38.5t-44 -108.5q0 -44 12 -73.5t33 -47.5t49.5 -25.5t61.5 -7.5q36 0 69 12t58.5 31t41 43t15.5 48v135z" />
    <glyph glyph-name="b" unicode="b" horiz-adv-x="626" 
d="M561 292q0 -85 -15 -143t-44 -93.5t-71.5 -51t-97.5 -15.5q-60 0 -111 22t-80 67l-3 -1l-8 -77h-19v803l30 3v-217l-1 -80l2 -1q31 42 81 64.5t112 22.5q52 0 93.5 -15t70.5 -50t45 -93t16 -145zM530 292q0 81 -13.5 134t-39.5 84.5t-63 44.5t-84 13q-61 0 -110 -25
t-78 -70v-362q11 -19 28.5 -36.5t41.5 -31t54 -22t66 -8.5q43 0 79.5 13t63 44.5t41 85.5t14.5 136z" />
    <glyph glyph-name="c" unicode="c" horiz-adv-x="504" 
d="M440 531q-29 16 -65 26t-74 10q-109 0 -157.5 -63t-48.5 -202q0 -80 13 -135t39 -89t64 -49t89 -15q40 0 77.5 11.5t66.5 35.5l5 -27q-27 -20 -67.5 -33.5t-85.5 -13.5q-59 0 -102.5 17.5t-72 55t-43 97.5t-14.5 145q0 151 56 221t177 70q42 0 79.5 -9.5t67.5 -24.5z" />
    <glyph glyph-name="d" unicode="d" horiz-adv-x="621" 
d="M492 0l-7 76l-3 1q-28 -45 -76.5 -67t-114.5 -22q-62 0 -105.5 18t-70.5 55t-39 94.5t-12 135.5q0 153 53 227.5t176 74.5q59 0 109 -21t82 -66l2 1l-2 80v214l30 4v-805h-22zM484 472q-25 44 -74 69.5t-112 25.5q-55 0 -93.5 -16t-63 -50t-35.5 -86.5t-11 -124.5
q0 -74 10.5 -126.5t34.5 -86t62.5 -49.5t94.5 -16q42 0 73.5 9.5t54 24t37 32t22.5 32.5v362z" />
    <glyph glyph-name="e" unicode="e" horiz-adv-x="569" 
d="M314 -12q-68 0 -115.5 18.5t-77.5 58t-43.5 101.5t-13.5 150q0 138 56.5 208t168.5 70q47 0 87 -15t69 -47.5t45.5 -83.5t16.5 -123v-7q0 -4 -1 -7h-411q1 -83 14 -140t40 -91.5t68.5 -49.5t98.5 -15q48 0 87 12t77 35l4 -26q-38 -23 -78.5 -35.5t-91.5 -12.5zM478 332
q-1 64 -15.5 109t-39.5 73t-59.5 41t-74.5 13q-98 0 -144 -60.5t-51 -175.5h384z" />
    <glyph glyph-name="f" unicode="f" horiz-adv-x="403" 
d="M146 0v561h-102v23h102v30q0 41 10 74.5t32 57t56.5 36t83.5 12.5q20 0 41.5 -3.5t35.5 -8.5l-3 -21q-16 5 -35 7.5t-39 2.5q-79 0 -115.5 -41.5t-36.5 -115.5v-30h178v-23h-178v-561h-30z" />
    <glyph glyph-name="g" unicode="g" horiz-adv-x="558" 
d="M279 262q-21 0 -43 2.5t-43 9.5q-37 -7 -56 -23t-19 -39q0 -20 15 -35t48 -19l146 -16q55 -6 91 -17t57 -27.5t29.5 -38.5t8.5 -49q0 -36 -11 -65.5t-37.5 -50.5t-70.5 -32.5t-109 -11.5q-112 0 -161.5 41.5t-49.5 113.5q0 34 17.5 68.5t58.5 63.5q-27 7 -44 25t-17 47
q0 27 20.5 47t55.5 31q-32 17 -53 50t-21 90q0 83 43.5 124.5t144.5 41.5q38 0 76 -9t66 -34l93 46l8 -14l-83 -53q14 -18 21.5 -43t7.5 -59q0 -41 -9.5 -71.5t-31.5 -51.5t-58 -31.5t-90 -10.5zM179 131q-38 -24 -56.5 -57.5t-18.5 -66.5q0 -61 42 -96.5t138 -35.5
q59 0 97 10t60.5 27.5t31.5 42t9 53.5q0 22 -6.5 39.5t-24.5 30t-49 21.5t-79 15zM279 568q-87 0 -122.5 -36t-35.5 -106q0 -42 12 -69t33 -42.5t50 -21.5t63 -6q45 0 75.5 9t49 27t26.5 44t8 59q0 79 -38 110.5t-121 31.5z" />
    <glyph glyph-name="h" unicode="h" horiz-adv-x="618" 
d="M495 0v404q0 77 -42.5 119.5t-130.5 42.5q-61 0 -109.5 -27.5t-70.5 -66.5v-472h-30v801l30 4v-217l-1 -80l2 -1q27 38 75 62.5t110 24.5q197 0 197 -190v-404h-30z" />
    <glyph glyph-name="i" unicode="i" horiz-adv-x="304" 
d="M137 0v582l30 3v-585h-30zM185 759q0 -32 -32 -32q-16 0 -25 6.5t-9 25.5q0 15 9 24t25 9q32 0 32 -33z" />
    <glyph glyph-name="j" unicode="j" horiz-adv-x="301" 
d="M164 -26q0 -69 -30 -96.5t-80 -27.5q-13 0 -28.5 3t-26.5 8l4 24q23 -10 46 -10q38 0 61.5 23t23.5 77v607l30 3v-611zM182 762q0 -18 -8.5 -25.5t-24.5 -7.5q-17 0 -25.5 6.5t-8.5 26.5q0 32 34 32q33 0 33 -32z" />
    <glyph glyph-name="k" unicode="k" horiz-adv-x="559" 
d="M142 330h99l239 255h40l-254 -267l266 -318h-40l-251 304h-99v-304h-30v802l30 3v-475z" />
    <glyph glyph-name="l" unicode="l" horiz-adv-x="293" 
d="M132 0v802l30 3v-805h-30z" />
    <glyph glyph-name="m" unicode="m" horiz-adv-x="905" 
d="M782 0v406q0 83 -42.5 121t-116.5 38q-29 0 -55.5 -9t-47.5 -27t-33.5 -44.5t-12.5 -61.5v-423h-30v423q0 39 -12 66t-32 44t-47 24.5t-57 7.5q-23 0 -47 -6.5t-45.5 -18.5t-39 -29t-29.5 -38v-473h-30v584l22 2l6 -78h3q23 38 65.5 60.5t93.5 22.5q67 0 108 -27.5
t56 -80.5h3q17 53 61 81t105 28q41 0 75 -11t58 -33.5t37.5 -58t13.5 -83.5v-406h-30z" />
    <glyph glyph-name="n" unicode="n" horiz-adv-x="612" 
d="M489 0v403q0 85 -45 124t-130 39q-24 0 -49.5 -6t-50 -18t-45.5 -29.5t-34 -39.5v-473h-30v584l22 2l5 -79h3q28 40 78 63t107 23q94 0 146.5 -45t52.5 -144v-404h-30z" />
    <glyph glyph-name="o" unicode="o" horiz-adv-x="604" 
d="M540 291q0 -83 -13.5 -140.5t-42 -94t-73.5 -53t-107 -16.5t-107.5 16.5t-75 53t-43.5 94t-14 140.5q0 82 14.5 139.5t44 93.5t74.5 52.5t107 16.5t107 -16.5t73.5 -52.5t42 -93.5t13.5 -139.5zM95 291q0 -74 11.5 -127t37 -86.5t65 -49t95.5 -15.5q55 0 94 15.5t63.5 49
t36 86.5t11.5 127t-11.5 126.5t-36 86t-63.5 49t-94 15.5q-56 0 -95.5 -15.5t-65 -49.5t-37 -86.5t-11.5 -125.5z" />
    <glyph glyph-name="p" unicode="p" horiz-adv-x="619" 
d="M555 293q0 -86 -16 -144t-46 -94t-73 -51.5t-97 -15.5q-57 0 -105 19.5t-80 67.5l-2 -1l1 -81v-134h-30v723l22 2l7 -74h3q30 40 79 62t112 22q54 0 95.5 -14.5t70.5 -49.5t44 -93t15 -144zM524 292q0 80 -13.5 133t-39 84.5t-62 44t-82.5 12.5q-126 0 -190 -94v-360
q11 -19 28 -37t39.5 -31.5t51.5 -22t64 -8.5q44 0 81.5 13t64.5 44.5t42.5 85.5t15.5 136z" />
    <glyph glyph-name="q" unicode="q" horiz-adv-x="619" 
d="M480 -143v140l2 81l-2 1q-29 -42 -77.5 -65t-108.5 -23q-54 0 -96.5 15.5t-72 51t-45.5 93.5t-16 142q0 83 15.5 140.5t45 93t72.5 51.5t99 16q59 0 108.5 -23.5t78.5 -68.5h3l5 80h19v-723zM480 466q-9 20 -26.5 38t-41.5 32t-53 22t-61 8q-53 0 -91.5 -14.5t-63 -47
t-36.5 -84.5t-12 -127q0 -77 12.5 -130t38 -85t63.5 -46t88 -14q42 0 75 10.5t56.5 27t36.5 36t15 38.5v336z" />
    <glyph glyph-name="r" unicode="r" horiz-adv-x="430" 
d="M105 0v581l25 3l1 -87v-81h2q11 37 29.5 69t44 55.5t57.5 37t70 13.5q26 0 52 -6l-3 -28q-13 4 -25 5t-26 1q-40 0 -75.5 -19t-62.5 -53.5t-43 -83t-16 -108.5v-299h-30z" />
    <glyph glyph-name="s" unicode="s" horiz-adv-x="488" 
d="M431 156q0 -76 -45 -122t-141 -46q-52 0 -99 15t-78 44l7 27q32 -29 76.5 -45t92.5 -16q84 0 121.5 40t37.5 101q0 45 -24.5 71.5t-61 44t-79.5 30t-79.5 30.5t-61 46t-24.5 75q0 69 48 106t137 37q83 0 150 -34l-4 -26q-37 17 -73 26t-74 9q-71 0 -112.5 -31.5
t-41.5 -84.5q0 -42 24.5 -66t60.5 -39.5t79 -27.5t79 -31t60.5 -50t24.5 -83z" />
    <glyph glyph-name="t" unicode="t" horiz-adv-x="381" 
d="M175 560v-433q0 -60 28.5 -85.5t75.5 -25.5q12 0 26.5 2t23.5 7l4 -23q-11 -5 -28 -8t-33 -3q-62 0 -95 31.5t-33 103.5v434h-100v24h100l7 162l24 4v-166h161v-24h-161z" />
    <glyph glyph-name="u" unicode="u" horiz-adv-x="600" 
d="M507 175q0 -86 -51 -136.5t-156 -50.5t-156 50.5t-51 136.5v409h30v-408q0 -78 44.5 -119.5t132.5 -41.5q87 0 132 41.5t45 119.5v408h30v-409z" />
    <glyph glyph-name="v" unicode="v" horiz-adv-x="623" 
d="M572 584l-241 -584h-38l-242 584h36l195 -480l29 -75h3l28 75l194 480h36z" />
    <glyph glyph-name="w" unicode="w" horiz-adv-x="853" 
d="M447 584l138 -484l21 -78h3l18 79l122 483h31l-152 -584h-42l-135 476l-20 79h-3l-21 -79l-139 -476h-38l-158 584h33l123 -481l19 -78h3l20 78l141 481h36z" />
    <glyph glyph-name="x" unicode="x" horiz-adv-x="579" 
d="M288 278l-190 -278h-39l209 297l-203 287h39l185 -267l183 267h39l-201 -286l209 -298h-41z" />
    <glyph glyph-name="y" unicode="y" horiz-adv-x="622" 
d="M193 -125q37 0 64.5 20.5t51.5 76.5l5 14l-263 598h38l209 -488l31 -75h3l26 76l178 487h35l-227 -609q-14 -38 -30.5 -62t-35 -38.5t-39 -20t-42.5 -5.5t-42.5 5.5t-37.5 14.5l6 25q17 -11 35.5 -15t34.5 -4z" />
    <glyph glyph-name="z" unicode="z" horiz-adv-x="546" 
d="M161 93l-45 -64l1 -3h355l-1 -26h-391v19l310 472l45 65l-1 2h-341l2 26h375v-21z" />
    <glyph glyph-name="braceleft" unicode="{" horiz-adv-x="353" 
d="M229 441q0 -36 -17 -62.5t-52 -34.5v-3q35 -8 52 -34.5t17 -60.5q0 -37 -3 -67.5t-6 -59.5t-6 -59.5t-3 -67.5q0 -43 24 -65t89 -22h26v-26h-25q-80 0 -113 28t-33 82q0 37 3.5 68.5t7 61t7 60t3.5 67.5q0 36 -23 60t-65 27v20q42 3 65 26.5t23 59.5q0 37 -3.5 68
t-7 60.5t-7 60t-3.5 68.5q0 54 33 82t113 28h25v-26h-26q-65 0 -89 -21.5t-24 -64.5q0 -38 3 -68t6 -59t6 -59t3 -67z" />
    <glyph glyph-name="bar" unicode="|" horiz-adv-x="271" 
d="M123 819h25v-996h-25v996z" />
    <glyph glyph-name="braceright" unicode="}" horiz-adv-x="353" 
d="M124 246q0 34 17 60.5t53 34.5v3q-36 8 -53 34.5t-17 62.5q0 37 3 67t6.5 59t6.5 59t3 68q0 43 -24.5 64.5t-89.5 21.5h-26v26h25q80 0 112.5 -28t32.5 -82q0 -38 -3.5 -68.5t-7 -60t-7 -60.5t-3.5 -68q0 -36 23.5 -59.5t66.5 -26.5v-20q-43 -3 -66.5 -27t-23.5 -60
q0 -37 3.5 -67.5t7 -60t7 -61t3.5 -68.5q0 -54 -32.5 -82t-112.5 -28h-25v26h26q65 0 89.5 22t24.5 65q0 37 -3 67.5t-6.5 59.5t-6.5 59.5t-3 67.5z" />
    <glyph glyph-name="asciitilde" unicode="~" horiz-adv-x="658" 
d="M117 664q11 48 37.5 72.5t73.5 24.5q27 0 52.5 -12t50 -26.5t49 -26.5t48.5 -12q38 0 56.5 16t31.5 51h24q-24 -96 -112 -96q-27 0 -52 12t-49.5 26t-49 26t-48.5 12q-36 0 -55.5 -16.5t-31.5 -50.5h-25z" />
    <glyph glyph-name="uni00A0" unicode="&#xa0;" horiz-adv-x="337" 
 />
    <glyph glyph-name="exclamdown" unicode="&#xa1;" horiz-adv-x="303" 
d="M165 488l5 -624h-36l7 624h24zM118 647q0 29 33 29t33 -29q0 -31 -33 -31t-33 31z" />
    <glyph glyph-name="cent" unicode="&#xa2;" horiz-adv-x="658" 
d="M500 531q-29 16 -65 26t-74 10q-109 0 -157.5 -63t-48.5 -202q0 -80 13 -135t39 -89t64 -49t89 -15q40 0 77.5 11.5t66.5 35.5l5 -27q-26 -20 -63.5 -32.5t-79.5 -14.5l-5 -150h-28l6 150q-109 4 -162 77.5t-53 237.5q0 149 54.5 219t172.5 72l7 140h28l-7 -141
q35 -2 67 -11t58 -22z" />
    <glyph glyph-name="sterling" unicode="&#xa3;" horiz-adv-x="658" 
d="M98 393h55q-10 41 -19 78t-9 83q0 42 12.5 79t41 65t75 44t114.5 16q54 0 103.5 -12.5t86.5 -33.5l-7 -26q-32 19 -81 32t-101 13q-57 0 -97.5 -13.5t-66 -37t-37 -55.5t-11.5 -69q0 -42 8.5 -81t18.5 -82h284v-27h-278q7 -32 12 -67.5t5 -76.5q0 -71 -22 -120t-60 -77
l1 -2q28 4 54 6.5t54.5 4t60 2t70.5 0.5q60 0 120.5 -4t117.5 -9l-4 -28q-44 4 -76 6.5t-59 4.5t-53 3t-57 1q-36 0 -70 -1t-67.5 -3t-69 -4.5t-74.5 -6.5l-1 25q53 24 78.5 78.5t25.5 122.5q0 45 -4.5 80t-11.5 65h-60z" />
    <glyph glyph-name="currency" unicode="&#xa4;" horiz-adv-x="658" 
d="M166 358q0 29 10 55.5t28 48.5l-65 65l19 19l64 -65q21 18 48 28.5t57 10.5q31 0 58 -10.5t48 -29.5l68 66l18 -18l-67 -67q17 -21 27 -47.5t10 -55.5t-10 -55t-27 -47l67 -66l-19 -19l-67 65q-21 -18 -48 -28.5t-58 -10.5q-61 0 -105 38l-65 -65l-19 19l66 65
q-38 44 -38 104zM191 359q0 -29 10.5 -53.5t29 -42.5t43.5 -28.5t53 -10.5t53 10.5t43.5 28.5t29 42.5t10.5 53.5q0 28 -10.5 52.5t-29 43t-43.5 29t-53 10.5t-53 -10.5t-43.5 -29t-29 -43t-10.5 -52.5z" />
    <glyph glyph-name="yen" unicode="&#xa5;" horiz-adv-x="658" 
d="M308 312l-254 438h40l198 -351l38 -71h3l37 71l197 351h37l-247 -438h126v-26h-134v-62h135v-26h-135v-198h-33v198h-141v26h141v62h-141v26h133z" />
    <glyph glyph-name="brokenbar" unicode="&#xa6;" horiz-adv-x="271" 
d="M123 819h25v-444h-25v444zM123 280h25v-455h-25v455z" />
    <glyph glyph-name="section" unicode="&#xa7;" horiz-adv-x="554" 
d="M82 375q0 21 6 42t20 40.5t36.5 35.5t55.5 27q-46 26 -75 57t-29 76q0 66 50.5 105t147.5 39q48 0 97 -13.5t84 -39.5l-8 -25q-38 28 -82 40.5t-91 12.5q-83 0 -124.5 -31.5t-41.5 -85.5q0 -38 28 -66t70 -52t90.5 -47t90.5 -52t70 -67.5t28 -92.5q0 -21 -6.5 -42.5
t-21 -41t-37.5 -35.5t-55 -26q46 -27 75 -58.5t29 -75.5q0 -66 -49.5 -104.5t-146.5 -38.5q-49 0 -97.5 13.5t-83.5 39.5l7 25q38 -28 82 -40.5t91 -12.5q84 0 125 31.5t41 85.5q0 39 -28 66.5t-69.5 51.5t-90.5 47.5t-90.5 52.5t-69.5 67t-28 92zM474 276q0 45 -25 78.5
t-62 59.5t-79.5 47.5t-78.5 42.5q-63 -19 -90 -52t-27 -76q0 -46 26.5 -80t64.5 -60.5t80.5 -47.5t74.5 -40q59 17 87.5 50t28.5 78z" />
    <glyph glyph-name="dieresis" unicode="&#xa8;" 
d="M154 763q0 -28 -25 -28t-25 28t25 28t25 -28zM292 763q0 -28 -24 -28q-26 0 -26 28t26 28q24 0 24 -28z" />
    <glyph glyph-name="copyright" unicode="&#xa9;" horiz-adv-x="940" 
d="M77 381q0 81 30.5 152.5t84 124.5t125 84t153.5 31q81 0 153 -31t125.5 -84t84.5 -124.5t31 -152.5q0 -82 -31 -154t-84.5 -125.5t-125.5 -84.5t-153 -31q-82 0 -153.5 31t-125 84.5t-84 125.5t-30.5 154zM100 382q0 -75 28.5 -143t78 -119.5t117.5 -82t146 -30.5
q77 0 145 29.5t118.5 80.5t80 119t29.5 146q0 76 -29.5 143t-80 117t-118.5 79.5t-145 29.5q-78 0 -145.5 -29.5t-117.5 -79.5t-78.5 -117t-28.5 -143zM619 574q-26 16 -62 25.5t-70 9.5q-55 0 -98 -17t-72.5 -47.5t-45 -72.5t-15.5 -91q0 -51 16.5 -94t46.5 -74t73 -48.5
t96 -17.5q45 0 81.5 13t66.5 33l5 -23q-29 -22 -70.5 -37.5t-87.5 -15.5q-58 0 -105.5 19t-81.5 54t-53 83.5t-19 107.5q0 51 17 97.5t49.5 82t80.5 56t110 20.5q45 0 83 -12t60 -27z" />
    <glyph glyph-name="ordfeminine" unicode="&#xaa;" horiz-adv-x="394" 
d="M298 476l-3 1q-19 -29 -48.5 -46t-67.5 -17q-51 0 -83 27.5t-32 92.5q0 57 33.5 86.5t102.5 29.5q25 0 50.5 -5t45.5 -16v57q0 62 -24.5 84t-75.5 22q-29 0 -55 -5.5t-51 -18.5l-3 24q53 25 113 25q66 0 94.5 -30t28.5 -104v-264h-22zM296 608q-8 6 -32 12.5t-59 6.5
q-60 0 -86.5 -24t-26.5 -69q0 -27 7 -45.5t19.5 -29.5t30 -15.5t37.5 -4.5q22 0 42 7.5t35 19.5t24 27t9 30v85z" />
    <glyph glyph-name="guillemotleft" unicode="&#xab;" horiz-adv-x="596" 
d="M250 332l229 -141v-28l-267 167v6l267 167v-29zM70 332l229 -141v-28l-267 167v6l267 167v-29z" />
    <glyph glyph-name="logicalnot" unicode="&#xac;" horiz-adv-x="658" 
d="M129 328v31h400v-192h-29v161h-371z" />
    <glyph glyph-name="uni00AD" unicode="&#xad;" horiz-adv-x="421" 
d="M332 351v-23h-242v23h242z" />
    <glyph glyph-name="registered" unicode="&#xae;" horiz-adv-x="457" 
d="M63 672q0 35 13 65.5t35.5 53t53 35.5t64.5 13t64 -13t52.5 -35.5t35.5 -53t13 -65.5q0 -34 -13 -64t-35.5 -52.5t-52.5 -35.5t-64 -13t-64.5 13t-53 35.5t-35.5 52.5t-13 64zM79 673q0 -31 12 -58.5t32.5 -47.5t48 -32t58.5 -12q30 0 57 12t47.5 32t32 47.5t11.5 58.5
t-11.5 58.5t-32 48t-47.5 32t-57 11.5q-31 0 -58.5 -11.5t-48 -32t-32.5 -48t-12 -58.5zM311 720q0 -20 -12 -35t-33 -19l53 -88h-24l-50 87h-63v-87h-20v198h82q38 0 52.5 -15t14.5 -41zM292 720q0 20 -10.5 29.5t-36.5 9.5h-63v-77h69q20 0 30.5 10.5t10.5 27.5z" />
    <glyph glyph-name="macron" unicode="&#xaf;" 
d="M321 737h-244v23h244v-23z" />
    <glyph glyph-name="degree" unicode="&#xb0;" horiz-adv-x="361" 
d="M64 698q0 24 9 45.5t24.5 37.5t37 25.5t46.5 9.5q24 0 45 -9.5t37 -25.5t25 -37.5t9 -45.5q0 -23 -9 -44.5t-25 -37.5t-37 -25.5t-45 -9.5t-45.5 9.5t-37.5 25.5t-25 37.5t-9 44.5zM86 698q0 -38 27 -66t68 -28q19 0 36 7.5t30 20t20.5 29.5t7.5 37t-7.5 37.5t-20.5 30.5
t-30 20.5t-36 7.5q-21 0 -38.5 -8t-30 -21t-19.5 -30.5t-7 -36.5z" />
    <glyph glyph-name="plusminus" unicode="&#xb1;" horiz-adv-x="658" 
d="M341 354v-182h-29v182h-194v28h194v199h29v-199h200v-28h-200zM116 99v26h422v-26h-422z" />
    <glyph glyph-name="twosuperior" unicode="&#xb2;" horiz-adv-x="331" 
d="M293 805q0 -34 -15.5 -66t-42.5 -65t-64.5 -66.5t-81.5 -70.5v-3h209l-1 -26h-250v21q39 37 77.5 72.5t69 70t49 67t18.5 64.5q0 33 -21 56t-76 23q-31 0 -57.5 -12t-47.5 -29l-10 23q23 17 53 30t67 13q60 0 92 -27t32 -75z" />
    <glyph glyph-name="threesuperior" unicode="&#xb3;" horiz-adv-x="331" 
d="M306 626q0 -55 -33.5 -89t-104.5 -34q-39 0 -65 7.5t-54 24.5l10 23q22 -15 48.5 -23t60.5 -8q57 0 83.5 27.5t26.5 69.5q0 47 -31 65.5t-105 18.5v24q68 0 97 20.5t29 58.5q0 37 -27.5 54t-69.5 17q-34 0 -59.5 -10t-47.5 -28l-10 20q19 17 49.5 30t68.5 13
q57 0 90.5 -23t33.5 -71q0 -42 -23 -62.5t-58 -28.5v-2q45 -7 68 -28.5t23 -65.5z" />
    <glyph glyph-name="acute" unicode="&#xb4;" 
d="M305 810l-107 -141h-28l87 141h48z" />
    <glyph glyph-name="mu" unicode="&#xb5;" horiz-adv-x="612" 
d="M319 -12q-27 0 -54.5 5.5t-52.5 17.5t-45.5 32t-32.5 50l-2 -1q2 -63 3 -120.5t4 -112.5l-34 -4v729h30v-403q0 -41 14 -72t38.5 -53t58.5 -33t73 -11q36 0 67 9.5t53.5 28t35.5 45.5t13 62v427h31v-584l-23 -3l-5 77l-3 1q-20 -44 -65.5 -65.5t-103.5 -21.5z" />
    <glyph glyph-name="paragraph" unicode="&#xb6;" horiz-adv-x="625" 
d="M198 -142v667q-61 1 -97.5 31t-36.5 84q0 48 33.5 79t102.5 31h362l-1 -27h-79v-865h-30v865h-225v-865h-29z" />
    <glyph glyph-name="periodcentered" unicode="&#xb7;" horiz-adv-x="270" 
d="M169 343q0 -32 -33 -32t-33 32t33 32t33 -32z" />
    <glyph glyph-name="cedilla" unicode="&#xb8;" 
d="M202 -6l24 1l-41 -188h-38z" />
    <glyph glyph-name="onesuperior" unicode="&#xb9;" horiz-adv-x="258" 
d="M180 508h-29v274l3 79l-3 1l-94 -67l-3 28l105 82h21v-397z" />
    <glyph glyph-name="ordmasculine" unicode="&#xba;" horiz-adv-x="423" 
d="M365 614q0 -111 -36 -156.5t-116 -45.5q-40 0 -69 10.5t-48 34.5t-28 62.5t-9 94.5q0 55 9 93.5t28 62.5t48 35t69 11q81 0 116.5 -45.5t35.5 -156.5zM88 614q0 -97 28.5 -137t96.5 -40q67 0 96 40t29 137q0 49 -7 83t-22 55t-39 30t-57 9q-34 0 -57.5 -9.5t-38.5 -30.5
t-22 -54.5t-7 -82.5z" />
    <glyph glyph-name="guillemotright" unicode="&#xbb;" horiz-adv-x="596" 
d="M273 191l230 141l-230 142v29l268 -167v-6l-268 -167v28zM93 191l230 141l-230 142v29l268 -167v-6l-268 -167v28z" />
    <glyph glyph-name="onequarter" unicode="&#xbc;" horiz-adv-x="878" 
d="M180 356h-29v274l3 79l-3 1l-94 -67l-3 28l105 82h21v-397zM675 750l-510 -750h-30l511 750h29zM802 94v-94h-26v94h-207l-3 18l200 282h36v-277h54l-2 -23h-52zM777 288l3 81l-2 1l-47 -67l-86 -121l-47 -62l1 -3h177z" />
    <glyph glyph-name="onehalf" unicode="&#xbd;" horiz-adv-x="857" 
d="M180 356h-29v274l3 79l-3 1l-94 -67l-3 28l105 82h21v-397zM675 750l-510 -750h-30l511 750h29zM819 297q0 -34 -15.5 -66t-42.5 -65t-64.5 -66.5t-81.5 -70.5v-3h209l-1 -26h-250v21q39 37 77.5 72.5t69 70t49 67t18.5 64.5q0 33 -21 56t-76 23q-31 0 -57.5 -12
t-47.5 -29l-10 23q23 17 53 30t67 13q60 0 92 -27t32 -75z" />
    <glyph glyph-name="threequarters" unicode="&#xbe;" horiz-adv-x="951" 
d="M306 474q0 -55 -33.5 -89t-104.5 -34q-39 0 -65 7.5t-54 24.5l10 23q22 -15 48.5 -23t60.5 -8q57 0 83.5 27.5t26.5 69.5q0 47 -31 65.5t-105 18.5v24q68 0 97 20.5t29 58.5q0 37 -27.5 54t-69.5 17q-34 0 -59.5 -10t-47.5 -28l-10 20q19 17 49.5 30t68.5 13
q57 0 90.5 -23t33.5 -71q0 -42 -23 -62.5t-58 -28.5v-2q45 -7 68 -28.5t23 -65.5zM748 750l-510 -750h-30l511 750h29zM875 94v-94h-26v94h-207l-3 18l200 282h36v-277h54l-2 -23h-52zM850 288l3 81l-2 1l-47 -67l-86 -121l-47 -62l1 -3h177z" />
    <glyph glyph-name="questiondown" unicode="&#xbf;" horiz-adv-x="490" 
d="M62 64q0 43 13 78.5t38 67t61 59.5t82 55l2 158h26l3 -171q-46 -30 -82 -58t-61 -57.5t-38 -61.5t-13 -70q0 -75 43.5 -107.5t117.5 -32.5q63 0 112.5 23.5t90.5 61.5l14 -20q-36 -39 -91.5 -65t-126.5 -26q-97 0 -144 42.5t-47 123.5zM236 642q0 30 32 30q34 0 34 -30
t-34 -30q-32 0 -32 30z" />
    <glyph glyph-name="Agrave" unicode="&#xc0;" horiz-adv-x="686" 
d="M534 218h-383l-83 -218h-37l294 750h39l291 -750h-38zM315 644l-153 -398h362l-152 398l-26 77h-3zM351 805l-112 112h50l91 -112h-29z" />
    <glyph glyph-name="Aacute" unicode="&#xc1;" horiz-adv-x="686" 
d="M534 218h-383l-83 -218h-37l294 750h39l291 -750h-38zM315 644l-153 -398h362l-152 398l-26 77h-3zM451 916l-120 -113h-30l94 113h56z" />
    <glyph glyph-name="Acircumflex" unicode="&#xc2;" horiz-adv-x="686" 
d="M534 218h-383l-83 -218h-37l294 750h39l291 -750h-38zM315 644l-153 -398h362l-152 398l-26 77h-3zM360 916l126 -114h-41l-101 93l-98 -93h-41l123 114h32z" />
    <glyph glyph-name="Atilde" unicode="&#xc3;" horiz-adv-x="686" 
d="M534 218h-383l-83 -218h-37l294 750h39l291 -750h-38zM315 644l-153 -398h362l-152 398l-26 77h-3zM218 814q6 38 22.5 63.5t45.5 25.5q18 0 33.5 -13t29.5 -28.5t27.5 -28.5t28.5 -13q17 0 29.5 16t19.5 51l17 -1q-5 -38 -22 -64t-46 -26q-18 0 -33.5 13t-29.5 28.5
t-27.5 28.5t-28.5 13q-18 0 -29.5 -18.5t-18.5 -47.5z" />
    <glyph glyph-name="Adieresis" unicode="&#xc4;" horiz-adv-x="686" 
d="M534 218h-383l-83 -218h-37l294 750h39l291 -750h-38zM315 644l-153 -398h362l-152 398l-26 77h-3zM277 841q0 -27 -25 -27q-12 0 -18.5 6t-6.5 21q0 28 25 28t25 -28zM462 841q0 -27 -25 -27q-12 0 -18.5 6t-6.5 21q0 28 25 28t25 -28z" />
    <glyph glyph-name="Aring" unicode="&#xc5;" horiz-adv-x="686" 
d="M278 805q0 26 18 44t48 18q29 0 48 -17t19 -43q0 -22 -13 -38t-33 -22l290 -747h-38l-83 218h-383l-83 -218h-37l293 747q-21 5 -33.5 20t-12.5 38zM315 644l-153 -398h362l-152 398l-26 77h-3zM299 806q0 -19 12 -31t33 -12t33 12t12 31t-12 30.5t-33 11.5t-33 -12
t-12 -30z" />
    <glyph glyph-name="AE" unicode="&#xc6;" horiz-adv-x="1045" 
d="M546 721l43 -312h329v-27h-326l49 -353h345l-2 -29h-372l-29 218h-350l-123 -218h-42l432 750h475l3 -29h-432zM477 649l-228 -403h330l-52 394l-9 80l-3 1z" />
    <glyph glyph-name="Ccedilla" unicode="&#xc7;" horiz-adv-x="616" 
d="M369 -13q-77 2 -132 26.5t-90 73t-52 122t-17 175.5q0 100 18.5 172t56 117.5t95 67t136.5 21.5q24 0 49 -3t48.5 -8.5t44 -12.5t34.5 -15l-7 -28q-31 16 -75.5 27t-92.5 11q-68 0 -119.5 -18t-85.5 -59t-51 -107.5t-17 -164.5q0 -105 17 -175.5t51.5 -113t86.5 -61
t121 -18.5q50 0 91.5 11.5t76.5 30.5l8 -25q-31 -18 -76.5 -31t-94.5 -15l-39 -180h-38z" />
    <glyph glyph-name="Egrave" unicode="&#xc8;" horiz-adv-x="628" 
d="M570 29l-2 -29h-444v750h425l2 -29h-395v-312h345v-27h-345v-353h414zM352 805l-112 112h50l91 -112h-29z" />
    <glyph glyph-name="Eacute" unicode="&#xc9;" horiz-adv-x="628" 
d="M570 29l-2 -29h-444v750h425l2 -29h-395v-312h345v-27h-345v-353h414zM453 916l-120 -113h-30l94 113h56z" />
    <glyph glyph-name="Ecircumflex" unicode="&#xca;" horiz-adv-x="628" 
d="M570 29l-2 -29h-444v750h425l2 -29h-395v-312h345v-27h-345v-353h414zM362 916l126 -114h-41l-101 93l-98 -93h-41l123 114h32z" />
    <glyph glyph-name="Edieresis" unicode="&#xcb;" horiz-adv-x="628" 
d="M570 29l-2 -29h-444v750h425l2 -29h-395v-312h345v-27h-345v-353h414zM279 841q0 -27 -25 -27q-12 0 -18.5 6t-6.5 21q0 28 25 28t25 -28zM464 841q0 -27 -25 -27q-12 0 -18.5 6t-6.5 21q0 28 25 28t25 -28z" />
    <glyph glyph-name="Igrave" unicode="&#xcc;" horiz-adv-x="309" 
d="M138 750h33v-750h-33v750zM163 805l-112 112h50l91 -112h-29z" />
    <glyph glyph-name="Iacute" unicode="&#xcd;" horiz-adv-x="309" 
d="M138 750h33v-750h-33v750zM263 916l-120 -113h-30l94 113h56z" />
    <glyph glyph-name="Icircumflex" unicode="&#xce;" horiz-adv-x="309" 
d="M138 750h33v-750h-33v750zM172 916l126 -114h-41l-101 93l-98 -93h-41l123 114h32z" />
    <glyph glyph-name="Idieresis" unicode="&#xcf;" horiz-adv-x="309" 
d="M138 750h33v-750h-33v750zM89 841q0 -27 -25 -27q-12 0 -18.5 6t-6.5 21q0 28 25 28t25 -28zM274 841q0 -27 -25 -27q-12 0 -18.5 6t-6.5 21q0 28 25 28t25 -28z" />
    <glyph glyph-name="Eth" unicode="&#xd0;" horiz-adv-x="748" 
d="M670 377q0 -103 -18.5 -174.5t-56.5 -116.5t-95.5 -65.5t-136.5 -20.5h-234v383h-84v24h84v343h233q81 0 139 -20.5t95.5 -65t55.5 -115.5t18 -172zM636 377q0 97 -16 163t-50 106t-85.5 57t-123.5 17h-199v-313h127v-24h-127v-353h200q67 0 118.5 16.5t86 56t52 106.5
t17.5 168z" />
    <glyph glyph-name="Ntilde" unicode="&#xd1;" horiz-adv-x="769" 
d="M619 0l-420 643l-43 69l-2 -1l1 -81v-630h-31v750h40l408 -630l44 -68l2 1l-2 80v616h29v-749h-26zM268 814q6 38 22.5 63.5t45.5 25.5q18 0 33.5 -13t29.5 -28.5t27.5 -28.5t28.5 -13q17 0 29.5 16t19.5 51l17 -1q-5 -38 -22 -64t-46 -26q-18 0 -33.5 13t-29.5 28.5
t-27.5 28.5t-28.5 13q-18 0 -29.5 -18.5t-18.5 -47.5z" />
    <glyph glyph-name="Ograve" unicode="&#xd2;" horiz-adv-x="734" 
d="M656 375q0 -106 -15 -179.5t-49.5 -120t-89.5 -67.5t-134 -21q-80 0 -135 21t-89.5 67.5t-50 120t-15.5 179.5t15.5 179.5t50 119.5t89.5 67t135 21q79 0 134 -21t89.5 -67t49.5 -119.5t15 -179.5zM623 375q0 104 -14.5 173t-45 110t-79 58t-116.5 17t-116.5 -17
t-79.5 -58t-45.5 -110t-14.5 -173q0 -103 14.5 -172t45.5 -110.5t79.5 -59t116.5 -17.5t116.5 17.5t79 59t45 110.5t14.5 172zM396 805l-112 112h50l91 -112h-29z" />
    <glyph glyph-name="Oacute" unicode="&#xd3;" horiz-adv-x="734" 
d="M656 375q0 -106 -15 -179.5t-49.5 -120t-89.5 -67.5t-134 -21q-80 0 -135 21t-89.5 67.5t-50 120t-15.5 179.5t15.5 179.5t50 119.5t89.5 67t135 21q79 0 134 -21t89.5 -67t49.5 -119.5t15 -179.5zM623 375q0 104 -14.5 173t-45 110t-79 58t-116.5 17t-116.5 -17
t-79.5 -58t-45.5 -110t-14.5 -173q0 -103 14.5 -172t45.5 -110.5t79.5 -59t116.5 -17.5t116.5 17.5t79 59t45 110.5t14.5 172zM475 916l-120 -113h-30l94 113h56z" />
    <glyph glyph-name="Ocircumflex" unicode="&#xd4;" horiz-adv-x="734" 
d="M656 375q0 -106 -15 -179.5t-49.5 -120t-89.5 -67.5t-134 -21q-80 0 -135 21t-89.5 67.5t-50 120t-15.5 179.5t15.5 179.5t50 119.5t89.5 67t135 21q79 0 134 -21t89.5 -67t49.5 -119.5t15 -179.5zM623 375q0 104 -14.5 173t-45 110t-79 58t-116.5 17t-116.5 -17
t-79.5 -58t-45.5 -110t-14.5 -173q0 -103 14.5 -172t45.5 -110.5t79.5 -59t116.5 -17.5t116.5 17.5t79 59t45 110.5t14.5 172zM384 916l126 -114h-41l-101 93l-98 -93h-41l123 114h32z" />
    <glyph glyph-name="Otilde" unicode="&#xd5;" horiz-adv-x="734" 
d="M656 375q0 -106 -15 -179.5t-49.5 -120t-89.5 -67.5t-134 -21q-80 0 -135 21t-89.5 67.5t-50 120t-15.5 179.5t15.5 179.5t50 119.5t89.5 67t135 21q79 0 134 -21t89.5 -67t49.5 -119.5t15 -179.5zM623 375q0 104 -14.5 173t-45 110t-79 58t-116.5 17t-116.5 -17
t-79.5 -58t-45.5 -110t-14.5 -173q0 -103 14.5 -172t45.5 -110.5t79.5 -59t116.5 -17.5t116.5 17.5t79 59t45 110.5t14.5 172zM241 814q6 38 22.5 63.5t45.5 25.5q18 0 33.5 -13t29.5 -28.5t27.5 -28.5t28.5 -13q17 0 29.5 16t19.5 51l17 -1q-5 -38 -22 -64t-46 -26
q-18 0 -33.5 13t-29.5 28.5t-27.5 28.5t-28.5 13q-18 0 -29.5 -18.5t-18.5 -47.5z" />
    <glyph glyph-name="Odieresis" unicode="&#xd6;" horiz-adv-x="734" 
d="M656 375q0 -106 -15 -179.5t-49.5 -120t-89.5 -67.5t-134 -21q-80 0 -135 21t-89.5 67.5t-50 120t-15.5 179.5t15.5 179.5t50 119.5t89.5 67t135 21q79 0 134 -21t89.5 -67t49.5 -119.5t15 -179.5zM623 375q0 104 -14.5 173t-45 110t-79 58t-116.5 17t-116.5 -17
t-79.5 -58t-45.5 -110t-14.5 -173q0 -103 14.5 -172t45.5 -110.5t79.5 -59t116.5 -17.5t116.5 17.5t79 59t45 110.5t14.5 172zM301 841q0 -27 -25 -27q-12 0 -18.5 6t-6.5 21q0 28 25 28t25 -28zM486 841q0 -27 -25 -27q-12 0 -18.5 6t-6.5 21q0 28 25 28t25 -28z" />
    <glyph glyph-name="multiply" unicode="&#xd7;" horiz-adv-x="592" 
d="M459 161l-162 162l-162 -163l-20 19l163 163l-162 161l20 19l162 -161l159 161l20 -20l-160 -160l160 -163z" />
    <glyph glyph-name="Oslash" unicode="&#xd8;" horiz-adv-x="734" 
d="M67 8l64 87q-28 47 -40.5 115.5t-12.5 164.5q0 106 15.5 179.5t50 119.5t89.5 67t135 21q83 0 138.5 -22t89.5 -72l76 91l19 -18l-80 -99q24 -46 34.5 -111.5t10.5 -155.5q0 -106 -15 -179.5t-49 -120t-89 -67.5t-135 -21q-78 0 -132 19.5t-89 64.5l-60 -83zM572 645
q-30 48 -80.5 68t-123.5 20q-68 0 -116.5 -17t-79.5 -58t-45.5 -110t-14.5 -173q0 -170 41 -252zM623 375q0 82 -9 141.5t-28 101.5l-418 -522q31 -44 80.5 -62t119.5 -18q68 0 116.5 17.5t79 59t45 110.5t14.5 172z" />
    <glyph glyph-name="Ugrave" unicode="&#xd9;" horiz-adv-x="746" 
d="M641 272q0 -77 -18.5 -131.5t-53 -88.5t-84.5 -49.5t-112 -15.5q-63 0 -112.5 15.5t-84 49.5t-53 88.5t-18.5 131.5v478h33v-479q0 -133 59 -193.5t176 -60.5q118 0 176.5 61t58.5 193v479h33v-478zM378 805l-112 112h50l91 -112h-29z" />
    <glyph glyph-name="Uacute" unicode="&#xda;" horiz-adv-x="746" 
d="M641 272q0 -77 -18.5 -131.5t-53 -88.5t-84.5 -49.5t-112 -15.5q-63 0 -112.5 15.5t-84 49.5t-53 88.5t-18.5 131.5v478h33v-479q0 -133 59 -193.5t176 -60.5q118 0 176.5 61t58.5 193v479h33v-478zM479 916l-120 -113h-30l94 113h56z" />
    <glyph glyph-name="Ucircumflex" unicode="&#xdb;" horiz-adv-x="746" 
d="M641 272q0 -77 -18.5 -131.5t-53 -88.5t-84.5 -49.5t-112 -15.5q-63 0 -112.5 15.5t-84 49.5t-53 88.5t-18.5 131.5v478h33v-479q0 -133 59 -193.5t176 -60.5q118 0 176.5 61t58.5 193v479h33v-478zM388 916l126 -114h-41l-101 93l-98 -93h-41l123 114h32z" />
    <glyph glyph-name="Udieresis" unicode="&#xdc;" horiz-adv-x="746" 
d="M641 272q0 -77 -18.5 -131.5t-53 -88.5t-84.5 -49.5t-112 -15.5q-63 0 -112.5 15.5t-84 49.5t-53 88.5t-18.5 131.5v478h33v-479q0 -133 59 -193.5t176 -60.5q118 0 176.5 61t58.5 193v479h33v-478zM305 841q0 -27 -25 -27q-12 0 -18.5 6t-6.5 21q0 28 25 28t25 -28z
M490 841q0 -27 -25 -27q-12 0 -18.5 6t-6.5 21q0 28 25 28t25 -28z" />
    <glyph glyph-name="Yacute" unicode="&#xdd;" horiz-adv-x="642" 
d="M78 750l205 -373l38 -71h3l37 71l205 373h39l-266 -478v-272h-34v272l-268 478h41zM430 916l-120 -113h-30l94 113h56z" />
    <glyph glyph-name="Thorn" unicode="&#xde;" horiz-adv-x="638" 
d="M582 390q0 -56 -14 -96.5t-44.5 -66.5t-79.5 -38.5t-119 -12.5h-169v-176h-32v750h32v-149h169q69 0 118 -11.5t79.5 -37t45 -65.5t14.5 -97zM549 391q0 99 -53.5 140t-170.5 41h-169v-368h169q58 0 100 9.5t69.5 31.5t41 57.5t13.5 88.5z" />
    <glyph glyph-name="germandbls" unicode="&#xdf;" horiz-adv-x="610" 
d="M112 520q0 118 55.5 180.5t153.5 62.5q31 0 57.5 -8.5t46 -23.5t30.5 -35t11 -44q0 -30 -12.5 -55t-31.5 -46.5t-41.5 -39.5t-41.5 -34t-31.5 -29.5t-12.5 -26.5q0 -17 19.5 -31t48.5 -29t62.5 -32.5t62.5 -41t48.5 -55.5t19.5 -75q0 -78 -56.5 -121.5t-150.5 -43.5
q-21 0 -44 2.5t-45.5 8.5t-43.5 15t-37 22l5 27q32 -25 74.5 -37t87.5 -12q40 0 73 9t57 27t37 44t13 59q0 40 -19.5 68.5t-48.5 50t-63.5 38t-63.5 32t-48.5 32.5t-19.5 40q0 19 13 36t32.5 34t42 34.5t42 37t32.5 42t13 49.5q0 37 -32 61.5t-85 24.5q-88 0 -134 -56
t-46 -159v-522h-29v520z" />
    <glyph glyph-name="agrave" unicode="&#xe0;" horiz-adv-x="565" 
d="M446 95l-3 1q-10 -23 -29 -42t-44.5 -33t-56 -22t-63.5 -8q-39 0 -71.5 9.5t-56.5 31t-37 55.5t-13 83q0 85 51 128t161 43q42 0 84.5 -8.5t73.5 -22.5v89q0 49 -10 82t-30.5 53t-51 28t-71.5 8q-45 0 -87.5 -9.5t-80.5 -30.5l-5 27q81 39 177 39q49 0 85 -10.5t59 -34.5
t34 -62.5t11 -93.5v-395h-23zM442 285q-12 9 -53.5 20.5t-101.5 11.5q-97 0 -141 -38.5t-44 -108.5q0 -44 12 -73.5t33 -47.5t49.5 -25.5t61.5 -7.5q36 0 69 12t58.5 31t41 43t15.5 48v135zM280 669l-96 141h47l77 -141h-28z" />
    <glyph glyph-name="aacute" unicode="&#xe1;" horiz-adv-x="565" 
d="M446 95l-3 1q-10 -23 -29 -42t-44.5 -33t-56 -22t-63.5 -8q-39 0 -71.5 9.5t-56.5 31t-37 55.5t-13 83q0 85 51 128t161 43q42 0 84.5 -8.5t73.5 -22.5v89q0 49 -10 82t-30.5 53t-51 28t-71.5 8q-45 0 -87.5 -9.5t-80.5 -30.5l-5 27q81 39 177 39q49 0 85 -10.5t59 -34.5
t34 -62.5t11 -93.5v-395h-23zM442 285q-12 9 -53.5 20.5t-101.5 11.5q-97 0 -141 -38.5t-44 -108.5q0 -44 12 -73.5t33 -47.5t49.5 -25.5t61.5 -7.5q36 0 69 12t58.5 31t41 43t15.5 48v135zM372 810l-107 -141h-28l87 141h48z" />
    <glyph glyph-name="acircumflex" unicode="&#xe2;" horiz-adv-x="565" 
d="M446 95l-3 1q-10 -23 -29 -42t-44.5 -33t-56 -22t-63.5 -8q-39 0 -71.5 9.5t-56.5 31t-37 55.5t-13 83q0 85 51 128t161 43q42 0 84.5 -8.5t73.5 -22.5v89q0 49 -10 82t-30.5 53t-51 28t-71.5 8q-45 0 -87.5 -9.5t-80.5 -30.5l-5 27q81 39 177 39q49 0 85 -10.5t59 -34.5
t34 -62.5t11 -93.5v-395h-23zM442 285q-12 9 -53.5 20.5t-101.5 11.5q-97 0 -141 -38.5t-44 -108.5q0 -44 12 -73.5t33 -47.5t49.5 -25.5t61.5 -7.5q36 0 69 12t58.5 31t41 43t15.5 48v135zM294 810l109 -141h-31l-94 124l-92 -124h-30l107 141h31z" />
    <glyph glyph-name="atilde" unicode="&#xe3;" horiz-adv-x="565" 
d="M446 95l-3 1q-10 -23 -29 -42t-44.5 -33t-56 -22t-63.5 -8q-39 0 -71.5 9.5t-56.5 31t-37 55.5t-13 83q0 85 51 128t161 43q42 0 84.5 -8.5t73.5 -22.5v89q0 49 -10 82t-30.5 53t-51 28t-71.5 8q-45 0 -87.5 -9.5t-80.5 -30.5l-5 27q81 39 177 39q49 0 85 -10.5t59 -34.5
t34 -62.5t11 -93.5v-395h-23zM442 285q-12 9 -53.5 20.5t-101.5 11.5q-97 0 -141 -38.5t-44 -108.5q0 -44 12 -73.5t33 -47.5t49.5 -25.5t61.5 -7.5q36 0 69 12t58.5 31t41 43t15.5 48v135zM147 699q6 45 24.5 71t45.5 26q20 0 36 -13t30.5 -29t28.5 -29t30 -13q34 0 49 73
l20 -1q-6 -45 -24.5 -71t-46.5 -26q-20 0 -35.5 13t-30 29t-28 29t-29.5 13t-29 -20t-21 -53z" />
    <glyph glyph-name="adieresis" unicode="&#xe4;" horiz-adv-x="565" 
d="M446 95l-3 1q-10 -23 -29 -42t-44.5 -33t-56 -22t-63.5 -8q-39 0 -71.5 9.5t-56.5 31t-37 55.5t-13 83q0 85 51 128t161 43q42 0 84.5 -8.5t73.5 -22.5v89q0 49 -10 82t-30.5 53t-51 28t-71.5 8q-45 0 -87.5 -9.5t-80.5 -30.5l-5 27q81 39 177 39q49 0 85 -10.5t59 -34.5
t34 -62.5t11 -93.5v-395h-23zM442 285q-12 9 -53.5 20.5t-101.5 11.5q-97 0 -141 -38.5t-44 -108.5q0 -44 12 -73.5t33 -47.5t49.5 -25.5t61.5 -7.5q36 0 69 12t58.5 31t41 43t15.5 48v135zM241 763q0 -28 -25 -28t-25 28t25 28t25 -28zM379 763q0 -28 -24 -28q-26 0 -26 28
t26 28q24 0 24 -28z" />
    <glyph glyph-name="aring" unicode="&#xe5;" horiz-adv-x="565" 
d="M446 95l-3 1q-10 -23 -29 -42t-44.5 -33t-56 -22t-63.5 -8q-39 0 -71.5 9.5t-56.5 31t-37 55.5t-13 83q0 85 51 128t161 43q42 0 84.5 -8.5t73.5 -22.5v89q0 49 -10 82t-30.5 53t-51 28t-71.5 8q-45 0 -87.5 -9.5t-80.5 -30.5l-5 27q81 39 177 39q49 0 85 -10.5t59 -34.5
t34 -62.5t11 -93.5v-395h-23zM442 285q-12 9 -53.5 20.5t-101.5 11.5q-97 0 -141 -38.5t-44 -108.5q0 -44 12 -73.5t33 -47.5t49.5 -25.5t61.5 -7.5q36 0 69 12t58.5 31t41 43t15.5 48v135zM207 746q0 31 21 50.5t55 19.5q33 0 54.5 -20t21.5 -50q0 -29 -21 -49t-55 -20
q-33 0 -54.5 19.5t-21.5 49.5zM229 746q0 -23 14.5 -37t40.5 -14q24 0 39.5 14t15.5 37t-15.5 37.5t-39.5 14.5q-26 0 -40.5 -14.5t-14.5 -37.5z" />
    <glyph glyph-name="ae" unicode="&#xe6;" horiz-adv-x="940" 
d="M283 594q79 0 122 -29t55 -99h2q26 66 77.5 97t121.5 31q47 0 86.5 -15t68.5 -47.5t45.5 -83.5t16.5 -123v-7q0 -4 -1 -7h-410q1 -83 14.5 -140t41 -91.5t68.5 -49.5t98 -15q47 0 86 12t77 35l4 -26q-38 -23 -79 -35.5t-92 -12.5q-93 0 -149 34.5t-77 111.5h-3
q-17 -66 -70.5 -105.5t-132.5 -39.5q-40 0 -73.5 9.5t-57.5 31t-37 55.5t-13 83q0 85 51 127.5t161 42.5q44 0 85 -9.5t73 -23.5v92q0 49 -10 82t-30.5 53t-51 28t-71.5 8q-45 0 -87.5 -9.5t-80.5 -30.5l-5 27q81 39 177 39zM442 283q-12 9 -53.5 20.5t-101.5 11.5
q-97 0 -141.5 -38.5t-44.5 -108.5q0 -44 12 -73.5t33 -47.5t50 -25.5t62 -7.5q40 0 74 12.5t58.5 34.5t38 52t13.5 65v105zM850 332q-1 64 -15.5 109t-40 73t-59.5 41t-74 13q-97 0 -143.5 -60.5t-50.5 -175.5h383z" />
    <glyph glyph-name="ccedilla" unicode="&#xe7;" horiz-adv-x="504" 
d="M279 -13q-54 3 -94.5 21.5t-67.5 56.5t-40 96.5t-13 140.5q0 151 56 221t177 70q42 0 79.5 -9.5t67.5 -24.5l-4 -28q-29 16 -65 26t-74 10q-109 0 -157.5 -63t-48.5 -202q0 -80 13 -135t39 -89t64 -49t89 -15q40 0 77.5 11.5t66.5 35.5l5 -27q-26 -20 -64.5 -32.5
t-81.5 -14.5l-39 -180h-38z" />
    <glyph glyph-name="egrave" unicode="&#xe8;" horiz-adv-x="569" 
d="M314 -12q-68 0 -115.5 18.5t-77.5 58t-43.5 101.5t-13.5 150q0 138 56.5 208t168.5 70q47 0 87 -15t69 -47.5t45.5 -83.5t16.5 -123v-7q0 -4 -1 -7h-411q1 -83 14 -140t40 -91.5t68.5 -49.5t98.5 -15q48 0 87 12t77 35l4 -26q-38 -23 -78.5 -35.5t-91.5 -12.5zM478 332
q-1 64 -15.5 109t-39.5 73t-59.5 41t-74.5 13q-98 0 -144 -60.5t-51 -175.5h384zM290 669l-96 141h47l77 -141h-28z" />
    <glyph glyph-name="eacute" unicode="&#xe9;" horiz-adv-x="569" 
d="M314 -12q-68 0 -115.5 18.5t-77.5 58t-43.5 101.5t-13.5 150q0 138 56.5 208t168.5 70q47 0 87 -15t69 -47.5t45.5 -83.5t16.5 -123v-7q0 -4 -1 -7h-411q1 -83 14 -140t40 -91.5t68.5 -49.5t98.5 -15q48 0 87 12t77 35l4 -26q-38 -23 -78.5 -35.5t-91.5 -12.5zM478 332
q-1 64 -15.5 109t-39.5 73t-59.5 41t-74.5 13q-98 0 -144 -60.5t-51 -175.5h384zM382 810l-107 -141h-28l87 141h48z" />
    <glyph glyph-name="ecircumflex" unicode="&#xea;" horiz-adv-x="569" 
d="M314 -12q-68 0 -115.5 18.5t-77.5 58t-43.5 101.5t-13.5 150q0 138 56.5 208t168.5 70q47 0 87 -15t69 -47.5t45.5 -83.5t16.5 -123v-7q0 -4 -1 -7h-411q1 -83 14 -140t40 -91.5t68.5 -49.5t98.5 -15q48 0 87 12t77 35l4 -26q-38 -23 -78.5 -35.5t-91.5 -12.5zM478 332
q-1 64 -15.5 109t-39.5 73t-59.5 41t-74.5 13q-98 0 -144 -60.5t-51 -175.5h384zM304 810l109 -141h-31l-94 124l-92 -124h-30l107 141h31z" />
    <glyph glyph-name="edieresis" unicode="&#xeb;" horiz-adv-x="569" 
d="M314 -12q-68 0 -115.5 18.5t-77.5 58t-43.5 101.5t-13.5 150q0 138 56.5 208t168.5 70q47 0 87 -15t69 -47.5t45.5 -83.5t16.5 -123v-7q0 -4 -1 -7h-411q1 -83 14 -140t40 -91.5t68.5 -49.5t98.5 -15q48 0 87 12t77 35l4 -26q-38 -23 -78.5 -35.5t-91.5 -12.5zM478 332
q-1 64 -15.5 109t-39.5 73t-59.5 41t-74.5 13q-98 0 -144 -60.5t-51 -175.5h384zM239 763q0 -28 -25 -28t-25 28t25 28t25 -28zM377 763q0 -28 -24 -28q-26 0 -26 28t26 28q24 0 24 -28z" />
    <glyph glyph-name="igrave" unicode="&#xec;" horiz-adv-x="304" 
d="M137 0v582l30 3v-585h-30zM152 669l-96 141h47l77 -141h-28z" />
    <glyph glyph-name="iacute" unicode="&#xed;" horiz-adv-x="304" 
d="M137 0v582l30 3v-585h-30zM244 810l-107 -141h-28l87 141h48z" />
    <glyph glyph-name="icircumflex" unicode="&#xee;" horiz-adv-x="304" 
d="M137 0v582l30 3v-585h-30zM165 810l109 -141h-31l-94 124l-92 -124h-30l107 141h31z" />
    <glyph glyph-name="idieresis" unicode="&#xef;" horiz-adv-x="304" 
d="M137 0v582l30 3v-585h-30zM112 763q0 -28 -25 -28t-25 28t25 28t25 -28zM250 763q0 -28 -24 -28q-26 0 -26 28t26 28q24 0 24 -28z" />
    <glyph glyph-name="eth" unicode="&#xf0;" horiz-adv-x="605" 
d="M345 727q40 -37 76 -82.5t62.5 -96.5t42 -106t15.5 -112q0 -92 -15 -157t-45 -106t-74 -60t-102 -19q-62 0 -107 15.5t-75 50.5t-44.5 93t-14.5 143q0 76 12 132t40 92t73 53.5t110 17.5q61 0 104.5 -20t72.5 -57l2 1q-25 57 -60.5 107t-88.5 95l-84 -78l-17 12l85 79
q-23 19 -49 36t-53 34l15 18q26 -14 52 -32t52 -40l77 73l17 -13zM95 290q0 -81 13.5 -134t40.5 -84.5t66 -44t90 -12.5q101 0 153 74t52 240q0 110 -50 170t-156 60q-56 0 -95.5 -14.5t-65 -47t-37 -83.5t-11.5 -124z" />
    <glyph glyph-name="ntilde" unicode="&#xf1;" horiz-adv-x="612" 
d="M489 0v403q0 85 -45 124t-130 39q-24 0 -49.5 -6t-50 -18t-45.5 -29.5t-34 -39.5v-473h-30v584l22 2l5 -79h3q28 40 78 63t107 23q94 0 146.5 -45t52.5 -144v-404h-30zM175 699q6 45 24.5 71t45.5 26q20 0 36 -13t30.5 -29t28.5 -29t30 -13q34 0 49 73l20 -1
q-6 -45 -24.5 -71t-46.5 -26q-20 0 -35.5 13t-30 29t-28 29t-29.5 13t-29 -20t-21 -53z" />
    <glyph glyph-name="ograve" unicode="&#xf2;" horiz-adv-x="604" 
d="M540 291q0 -83 -13.5 -140.5t-42 -94t-73.5 -53t-107 -16.5t-107.5 16.5t-75 53t-43.5 94t-14 140.5q0 82 14.5 139.5t44 93.5t74.5 52.5t107 16.5t107 -16.5t73.5 -52.5t42 -93.5t13.5 -139.5zM95 291q0 -74 11.5 -127t37 -86.5t65 -49t95.5 -15.5q55 0 94 15.5t63.5 49
t36 86.5t11.5 127t-11.5 126.5t-36 86t-63.5 49t-94 15.5q-56 0 -95.5 -15.5t-65 -49.5t-37 -86.5t-11.5 -125.5zM306 669l-96 141h47l77 -141h-28z" />
    <glyph glyph-name="oacute" unicode="&#xf3;" horiz-adv-x="604" 
d="M540 291q0 -83 -13.5 -140.5t-42 -94t-73.5 -53t-107 -16.5t-107.5 16.5t-75 53t-43.5 94t-14 140.5q0 82 14.5 139.5t44 93.5t74.5 52.5t107 16.5t107 -16.5t73.5 -52.5t42 -93.5t13.5 -139.5zM95 291q0 -74 11.5 -127t37 -86.5t65 -49t95.5 -15.5q55 0 94 15.5t63.5 49
t36 86.5t11.5 127t-11.5 126.5t-36 86t-63.5 49t-94 15.5q-56 0 -95.5 -15.5t-65 -49.5t-37 -86.5t-11.5 -125.5zM398 810l-107 -141h-28l87 141h48z" />
    <glyph glyph-name="ocircumflex" unicode="&#xf4;" horiz-adv-x="604" 
d="M540 291q0 -83 -13.5 -140.5t-42 -94t-73.5 -53t-107 -16.5t-107.5 16.5t-75 53t-43.5 94t-14 140.5q0 82 14.5 139.5t44 93.5t74.5 52.5t107 16.5t107 -16.5t73.5 -52.5t42 -93.5t13.5 -139.5zM95 291q0 -74 11.5 -127t37 -86.5t65 -49t95.5 -15.5q55 0 94 15.5t63.5 49
t36 86.5t11.5 127t-11.5 126.5t-36 86t-63.5 49t-94 15.5q-56 0 -95.5 -15.5t-65 -49.5t-37 -86.5t-11.5 -125.5zM319 810l109 -141h-31l-94 124l-92 -124h-30l107 141h31z" />
    <glyph glyph-name="otilde" unicode="&#xf5;" horiz-adv-x="604" 
d="M540 291q0 -83 -13.5 -140.5t-42 -94t-73.5 -53t-107 -16.5t-107.5 16.5t-75 53t-43.5 94t-14 140.5q0 82 14.5 139.5t44 93.5t74.5 52.5t107 16.5t107 -16.5t73.5 -52.5t42 -93.5t13.5 -139.5zM95 291q0 -74 11.5 -127t37 -86.5t65 -49t95.5 -15.5q55 0 94 15.5t63.5 49
t36 86.5t11.5 127t-11.5 126.5t-36 86t-63.5 49t-94 15.5q-56 0 -95.5 -15.5t-65 -49.5t-37 -86.5t-11.5 -125.5zM172 699q6 45 24.5 71t45.5 26q20 0 36 -13t30.5 -29t28.5 -29t30 -13q34 0 49 73l20 -1q-6 -45 -24.5 -71t-46.5 -26q-20 0 -35.5 13t-30 29t-28 29t-29.5 13
t-29 -20t-21 -53z" />
    <glyph glyph-name="odieresis" unicode="&#xf6;" horiz-adv-x="604" 
d="M540 291q0 -83 -13.5 -140.5t-42 -94t-73.5 -53t-107 -16.5t-107.5 16.5t-75 53t-43.5 94t-14 140.5q0 82 14.5 139.5t44 93.5t74.5 52.5t107 16.5t107 -16.5t73.5 -52.5t42 -93.5t13.5 -139.5zM95 291q0 -74 11.5 -127t37 -86.5t65 -49t95.5 -15.5q55 0 94 15.5t63.5 49
t36 86.5t11.5 127t-11.5 126.5t-36 86t-63.5 49t-94 15.5q-56 0 -95.5 -15.5t-65 -49.5t-37 -86.5t-11.5 -125.5zM258 763q0 -28 -25 -28t-25 28t25 28t25 -28zM396 763q0 -28 -24 -28q-26 0 -26 28t26 28q24 0 24 -28z" />
    <glyph glyph-name="divide" unicode="&#xf7;" horiz-adv-x="592" 
d="M325 478q0 -29 -30 -29q-31 0 -31 29q0 28 31 28q30 0 30 -28zM325 206q0 -28 -30 -28q-14 0 -22.5 6t-8.5 22q0 28 31 28q30 0 30 -28zM72 328v29h448v-29h-448z" />
    <glyph glyph-name="oslash" unicode="&#xf8;" horiz-adv-x="604" 
d="M49 23l51 66q-36 72 -36 202q0 82 14.5 139.5t44 93.5t74.5 52.5t107 16.5q58 0 100.5 -14t71.5 -46l41 56l17 -15l-43 -60q25 -37 37 -91.5t12 -131.5q0 -83 -13.5 -140.5t-42 -94t-73.5 -53t-107 -16.5q-67 0 -114 19t-76 61l-49 -60zM509 291q0 132 -38 198l-339 -395
q25 -42 67 -61.5t105 -19.5q55 0 94 15.5t63.5 49t36 86.5t11.5 127zM95 291q0 -56 6.5 -99.5t20.5 -75.5l336 392q-48 60 -154 60q-56 0 -95.5 -15.5t-65 -49.5t-37 -86.5t-11.5 -125.5z" />
    <glyph glyph-name="ugrave" unicode="&#xf9;" horiz-adv-x="600" 
d="M507 175q0 -86 -51 -136.5t-156 -50.5t-156 50.5t-51 136.5v409h30v-408q0 -78 44.5 -119.5t132.5 -41.5q87 0 132 41.5t45 119.5v408h30v-409zM303 669l-96 141h47l77 -141h-28z" />
    <glyph glyph-name="uacute" unicode="&#xfa;" horiz-adv-x="600" 
d="M507 175q0 -86 -51 -136.5t-156 -50.5t-156 50.5t-51 136.5v409h30v-408q0 -78 44.5 -119.5t132.5 -41.5q87 0 132 41.5t45 119.5v408h30v-409zM395 810l-107 -141h-28l87 141h48z" />
    <glyph glyph-name="ucircumflex" unicode="&#xfb;" horiz-adv-x="600" 
d="M507 175q0 -86 -51 -136.5t-156 -50.5t-156 50.5t-51 136.5v409h30v-408q0 -78 44.5 -119.5t132.5 -41.5q87 0 132 41.5t45 119.5v408h30v-409zM316 810l109 -141h-31l-94 124l-92 -124h-30l107 141h31z" />
    <glyph glyph-name="udieresis" unicode="&#xfc;" horiz-adv-x="600" 
d="M507 175q0 -86 -51 -136.5t-156 -50.5t-156 50.5t-51 136.5v409h30v-408q0 -78 44.5 -119.5t132.5 -41.5q87 0 132 41.5t45 119.5v408h30v-409zM256 763q0 -28 -25 -28t-25 28t25 28t25 -28zM394 763q0 -28 -24 -28q-26 0 -26 28t26 28q24 0 24 -28z" />
    <glyph glyph-name="yacute" unicode="&#xfd;" horiz-adv-x="622" 
d="M193 -125q37 0 64.5 20.5t51.5 76.5l5 14l-263 598h38l209 -488l31 -75h3l26 76l178 487h35l-227 -609q-14 -38 -30.5 -62t-35 -38.5t-39 -20t-42.5 -5.5t-42.5 5.5t-37.5 14.5l6 25q17 -11 35.5 -15t34.5 -4zM397 810l-107 -141h-28l87 141h48z" />
    <glyph glyph-name="thorn" unicode="&#xfe;" horiz-adv-x="626" 
d="M561 293q0 -86 -15.5 -144t-44.5 -94t-71.5 -51.5t-96.5 -15.5q-57 0 -106.5 20t-81.5 66l-2 -1l1 -81v-133h-30v944l30 2v-215l-1 -80l2 -1q32 41 82.5 63t113.5 22q52 0 93 -14.5t69.5 -49.5t43 -93t14.5 -144zM530 293q0 80 -13.5 133t-38.5 84t-61.5 43.5t-82.5 12.5
q-128 0 -190 -94v-360q11 -19 27.5 -37t39.5 -31.5t51.5 -22t63.5 -8.5q46 0 83.5 13t64.5 45t41.5 86t14.5 136z" />
    <glyph glyph-name="ydieresis" unicode="&#xff;" horiz-adv-x="622" 
d="M193 -125q37 0 64.5 20.5t51.5 76.5l5 14l-263 598h38l209 -488l31 -75h3l26 76l178 487h35l-227 -609q-14 -38 -30.5 -62t-35 -38.5t-39 -20t-42.5 -5.5t-42.5 5.5t-37.5 14.5l6 25q17 -11 35.5 -15t34.5 -4zM267 763q0 -28 -25 -28t-25 28t25 28t25 -28zM405 763
q0 -28 -24 -28q-26 0 -26 28t26 28q24 0 24 -28z" />
    <glyph glyph-name="Amacron" unicode="&#x100;" horiz-adv-x="686" 
d="M534 218h-383l-83 -218h-37l294 750h39l291 -750h-38zM315 644l-153 -398h362l-152 398l-26 77h-3zM471 825h-246v22h246v-22z" />
    <glyph glyph-name="amacron" unicode="&#x101;" horiz-adv-x="565" 
d="M446 95l-3 1q-10 -23 -29 -42t-44.5 -33t-56 -22t-63.5 -8q-39 0 -71.5 9.5t-56.5 31t-37 55.5t-13 83q0 85 51 128t161 43q42 0 84.5 -8.5t73.5 -22.5v89q0 49 -10 82t-30.5 53t-51 28t-71.5 8q-45 0 -87.5 -9.5t-80.5 -30.5l-5 27q81 39 177 39q49 0 85 -10.5t59 -34.5
t34 -62.5t11 -93.5v-395h-23zM442 285q-12 9 -53.5 20.5t-101.5 11.5q-97 0 -141 -38.5t-44 -108.5q0 -44 12 -73.5t33 -47.5t49.5 -25.5t61.5 -7.5q36 0 69 12t58.5 31t41 43t15.5 48v135zM401 737h-244v23h244v-23z" />
    <glyph glyph-name="Abreve" unicode="&#x102;" horiz-adv-x="686" 
d="M534 218h-383l-83 -218h-37l294 750h39l291 -750h-38zM315 644l-153 -398h362l-152 398l-26 77h-3zM481 916q0 -55 -33.5 -86.5t-102.5 -31.5q-67 0 -103.5 29t-36.5 89h27q0 -51 32.5 -73t80.5 -22q49 0 79.5 22t29.5 73h27z" />
    <glyph glyph-name="abreve" unicode="&#x103;" horiz-adv-x="565" 
d="M446 95l-3 1q-10 -23 -29 -42t-44.5 -33t-56 -22t-63.5 -8q-39 0 -71.5 9.5t-56.5 31t-37 55.5t-13 83q0 85 51 128t161 43q42 0 84.5 -8.5t73.5 -22.5v89q0 49 -10 82t-30.5 53t-51 28t-71.5 8q-45 0 -87.5 -9.5t-80.5 -30.5l-5 27q81 39 177 39q49 0 85 -10.5t59 -34.5
t34 -62.5t11 -93.5v-395h-23zM442 285q-12 9 -53.5 20.5t-101.5 11.5q-97 0 -141 -38.5t-44 -108.5q0 -44 12 -73.5t33 -47.5t49.5 -25.5t61.5 -7.5q36 0 69 12t58.5 31t41 43t15.5 48v135zM400 810q0 -67 -30.5 -107.5t-91.5 -40.5q-60 0 -92 38t-32 110h27
q0 -62 27.5 -93.5t69.5 -31.5t68.5 31.5t26.5 93.5h27z" />
    <glyph glyph-name="Aogonek" unicode="&#x104;" horiz-adv-x="686" 
d="M642 0q-17 -1 -30.5 -9.5t-22.5 -21t-14 -28.5t-5 -31q0 -29 16.5 -46t52.5 -17q20 0 35.5 4t32.5 14l5 -18q-37 -23 -80 -23q-46 0 -68.5 22t-22.5 59q0 33 18.5 62.5t53.5 41.5l-79 209h-383l-83 -218h-37l294 750h39l291 -750h-13zM315 644l-153 -398h362l-152 398
l-26 77h-3z" />
    <glyph glyph-name="aogonek" unicode="&#x105;" horiz-adv-x="565" 
d="M459 -176q-25 0 -41.5 6t-26.5 16t-14 23.5t-4 27.5q0 29 19.5 59t56.5 47l-3 90l-3 1q-10 -23 -29 -42t-44.5 -33t-56 -22t-63.5 -8q-39 0 -71.5 9.5t-56.5 31t-37 55.5t-13 83q0 85 51 128t161 43q42 0 84.5 -8.5t73.5 -22.5v89q0 49 -10 82t-30.5 53t-51 28t-71.5 8
q-45 0 -87.5 -9.5t-80.5 -30.5l-5 27q81 39 177 39q49 0 85 -10.5t59 -34.5t34 -62.5t11 -93.5v-393h-1q-36 -19 -54 -45.5t-18 -55.5q0 -23 15 -38.5t50 -15.5q40 0 71 19l3 -18q-36 -22 -79 -22zM442 283q-12 9 -53.5 20.5t-101.5 11.5q-97 0 -141 -38.5t-44 -108.5
q0 -44 12 -73.5t33 -47.5t49.5 -25.5t61.5 -7.5q36 0 69 12t58.5 31t41 43t15.5 48v135z" />
    <glyph glyph-name="Cacute" unicode="&#x106;" horiz-adv-x="616" 
d="M553 695q-31 16 -75.5 27t-92.5 11q-68 0 -119.5 -18t-85.5 -59t-51 -107.5t-17 -164.5q0 -105 17 -175.5t51.5 -113t86.5 -61t121 -18.5q50 0 91.5 11.5t76.5 30.5l8 -25q-32 -19 -80 -32.5t-99 -13.5q-81 0 -139 23t-95.5 71.5t-55 123.5t-17.5 179q0 100 18.5 172
t56 117.5t95 67t136.5 21.5q24 0 49 -3t48.5 -8.5t44 -12.5t34.5 -15zM477 916l-120 -113h-30l94 113h56z" />
    <glyph glyph-name="cacute" unicode="&#x107;" horiz-adv-x="504" 
d="M440 531q-29 16 -65 26t-74 10q-109 0 -157.5 -63t-48.5 -202q0 -80 13 -135t39 -89t64 -49t89 -15q40 0 77.5 11.5t66.5 35.5l5 -27q-27 -20 -67.5 -33.5t-85.5 -13.5q-59 0 -102.5 17.5t-72 55t-43 97.5t-14.5 145q0 151 56 221t177 70q42 0 79.5 -9.5t67.5 -24.5z
M380 810l-107 -141h-28l87 141h48z" />
    <glyph glyph-name="Ccircumflex" unicode="&#x108;" horiz-adv-x="616" 
d="M553 695q-31 16 -75.5 27t-92.5 11q-68 0 -119.5 -18t-85.5 -59t-51 -107.5t-17 -164.5q0 -105 17 -175.5t51.5 -113t86.5 -61t121 -18.5q50 0 91.5 11.5t76.5 30.5l8 -25q-32 -19 -80 -32.5t-99 -13.5q-81 0 -139 23t-95.5 71.5t-55 123.5t-17.5 179q0 100 18.5 172
t56 117.5t95 67t136.5 21.5q24 0 49 -3t48.5 -8.5t44 -12.5t34.5 -15zM386 916l126 -114h-41l-101 93l-98 -93h-41l123 114h32z" />
    <glyph glyph-name="ccircumflex" unicode="&#x109;" horiz-adv-x="504" 
d="M440 531q-29 16 -65 26t-74 10q-109 0 -157.5 -63t-48.5 -202q0 -80 13 -135t39 -89t64 -49t89 -15q40 0 77.5 11.5t66.5 35.5l5 -27q-27 -20 -67.5 -33.5t-85.5 -13.5q-59 0 -102.5 17.5t-72 55t-43 97.5t-14.5 145q0 151 56 221t177 70q42 0 79.5 -9.5t67.5 -24.5z
M302 810l109 -141h-31l-94 124l-92 -124h-30l107 141h31z" />
    <glyph glyph-name="Cdotaccent" unicode="&#x10a;" horiz-adv-x="616" 
d="M553 695q-31 16 -75.5 27t-92.5 11q-68 0 -119.5 -18t-85.5 -59t-51 -107.5t-17 -164.5q0 -105 17 -175.5t51.5 -113t86.5 -61t121 -18.5q50 0 91.5 11.5t76.5 30.5l8 -25q-32 -19 -80 -32.5t-99 -13.5q-81 0 -139 23t-95.5 71.5t-55 123.5t-17.5 179q0 100 18.5 172
t56 117.5t95 67t136.5 21.5q24 0 49 -3t48.5 -8.5t44 -12.5t34.5 -15zM401 845q0 -32 -31 -32q-16 0 -25 7t-9 25q0 32 34 32q31 0 31 -32z" />
    <glyph glyph-name="cdotaccent" unicode="&#x10b;" horiz-adv-x="504" 
d="M440 531q-29 16 -65 26t-74 10q-109 0 -157.5 -63t-48.5 -202q0 -80 13 -135t39 -89t64 -49t89 -15q40 0 77.5 11.5t66.5 35.5l5 -27q-27 -20 -67.5 -33.5t-85.5 -13.5q-59 0 -102.5 17.5t-72 55t-43 97.5t-14.5 145q0 151 56 221t177 70q42 0 79.5 -9.5t67.5 -24.5z
M320 762q0 -18 -8.5 -25.5t-24.5 -7.5t-24.5 6.5t-8.5 26.5q0 32 33 32t33 -32z" />
    <glyph glyph-name="Ccaron" unicode="&#x10c;" horiz-adv-x="616" 
d="M553 695q-31 16 -75.5 27t-92.5 11q-68 0 -119.5 -18t-85.5 -59t-51 -107.5t-17 -164.5q0 -105 17 -175.5t51.5 -113t86.5 -61t121 -18.5q50 0 91.5 11.5t76.5 30.5l8 -25q-32 -19 -80 -32.5t-99 -13.5q-81 0 -139 23t-95.5 71.5t-55 123.5t-17.5 179q0 100 18.5 172
t56 117.5t95 67t136.5 21.5q24 0 49 -3t48.5 -8.5t44 -12.5t34.5 -15zM351 802l-124 114h41l100 -95l101 95h39l-124 -114h-33z" />
    <glyph glyph-name="ccaron" unicode="&#x10d;" horiz-adv-x="504" 
d="M440 531q-29 16 -65 26t-74 10q-109 0 -157.5 -63t-48.5 -202q0 -80 13 -135t39 -89t64 -49t89 -15q40 0 77.5 11.5t66.5 35.5l5 -27q-27 -20 -67.5 -33.5t-85.5 -13.5q-59 0 -102.5 17.5t-72 55t-43 97.5t-14.5 145q0 151 56 221t177 70q42 0 79.5 -9.5t67.5 -24.5z
M272 669l-109 141h32l92 -122l93 122h31l-108 -141h-31z" />
    <glyph glyph-name="Dcaron" unicode="&#x10e;" horiz-adv-x="743" 
d="M665 377q0 -103 -18.5 -174.5t-56.5 -116.5t-95.5 -65.5t-136.5 -20.5h-234v750h233q81 0 139 -20.5t95.5 -65t55.5 -115.5t18 -172zM631 377q0 97 -16 163t-50 106t-85.5 57t-123.5 17h-199v-690h200q67 0 118.5 16.5t86 56t52 106.5t17.5 168zM331 802l-124 114h41
l100 -95l101 95h39l-124 -114h-33z" />
    <glyph glyph-name="dcaron" unicode="&#x10f;" horiz-adv-x="621" 
d="M492 0l-7 76l-3 1q-28 -45 -76.5 -67t-114.5 -22q-62 0 -105.5 18t-70.5 55t-39 94.5t-12 135.5q0 153 53 227.5t176 74.5q59 0 109 -21t82 -66l2 1l-2 80v214l30 4v-805h-22zM484 472q-25 44 -74 69.5t-112 25.5q-55 0 -93.5 -16t-63 -50t-35.5 -86.5t-11 -124.5
q0 -74 10.5 -126.5t34.5 -86t62.5 -49.5t94.5 -16q42 0 73.5 9.5t54 24t37 32t22.5 32.5v362zM608 761q17 0 25 -8t8 -21q0 -7 -5.5 -20t-13.5 -29.5t-19 -34.5t-21 -34l-10 4l33 92q-14 0 -22 6.5t-8 17.5t8 19t25 8z" />
    <glyph glyph-name="Dcroat" unicode="&#x110;" horiz-adv-x="748" 
d="M670 377q0 -103 -18.5 -174.5t-56.5 -116.5t-95.5 -65.5t-136.5 -20.5h-234v383h-84v24h84v343h233q81 0 139 -20.5t95.5 -65t55.5 -115.5t18 -172zM636 377q0 97 -16 163t-50 106t-85.5 57t-123.5 17h-199v-313h127v-24h-127v-353h200q67 0 118.5 16.5t86 56t52 106.5
t17.5 168z" />
    <glyph glyph-name="dcroat" unicode="&#x111;" horiz-adv-x="622" 
d="M492 0l-7 76l-3 1q-28 -45 -76.5 -67t-114.5 -22q-62 0 -105.5 18t-70.5 55t-39 94.5t-12 135.5q0 153 53 227.5t176 74.5q59 0 109 -21t82 -66l2 1l-2 77v78h-141v23h141v116l30 4v-120h73v-23h-73v-662h-22zM484 472q-25 44 -74 69.5t-112 25.5q-55 0 -93.5 -16
t-63 -50t-35.5 -86.5t-11 -124.5q0 -74 10.5 -126.5t34.5 -86t62.5 -49.5t94.5 -16q42 0 73.5 9.5t54 24t37 32t22.5 32.5v362z" />
    <glyph glyph-name="Emacron" unicode="&#x112;" horiz-adv-x="628" 
d="M570 29l-2 -29h-444v750h425l2 -29h-395v-312h345v-27h-345v-353h414zM473 825h-246v22h246v-22z" />
    <glyph glyph-name="emacron" unicode="&#x113;" horiz-adv-x="569" 
d="M314 -12q-68 0 -115.5 18.5t-77.5 58t-43.5 101.5t-13.5 150q0 138 56.5 208t168.5 70q47 0 87 -15t69 -47.5t45.5 -83.5t16.5 -123v-7q0 -4 -1 -7h-411q1 -83 14 -140t40 -91.5t68.5 -49.5t98.5 -15q48 0 87 12t77 35l4 -26q-38 -23 -78.5 -35.5t-91.5 -12.5zM478 332
q-1 64 -15.5 109t-39.5 73t-59.5 41t-74.5 13q-98 0 -144 -60.5t-51 -175.5h384zM411 737h-244v23h244v-23z" />
    <glyph glyph-name="Ebreve" unicode="&#x114;" horiz-adv-x="628" 
d="M570 29l-2 -29h-444v750h425l2 -29h-395v-312h345v-27h-345v-353h414zM482 916q0 -55 -33.5 -86.5t-102.5 -31.5q-67 0 -103.5 29t-36.5 89h27q0 -51 32.5 -73t80.5 -22q49 0 79.5 22t29.5 73h27z" />
    <glyph glyph-name="ebreve" unicode="&#x115;" horiz-adv-x="569" 
d="M314 -12q-68 0 -115.5 18.5t-77.5 58t-43.5 101.5t-13.5 150q0 138 56.5 208t168.5 70q47 0 87 -15t69 -47.5t45.5 -83.5t16.5 -123v-7q0 -4 -1 -7h-411q1 -83 14 -140t40 -91.5t68.5 -49.5t98.5 -15q48 0 87 12t77 35l4 -26q-38 -23 -78.5 -35.5t-91.5 -12.5zM478 332
q-1 64 -15.5 109t-39.5 73t-59.5 41t-74.5 13q-98 0 -144 -60.5t-51 -175.5h384zM411 810q0 -67 -30.5 -107.5t-91.5 -40.5q-60 0 -92 38t-32 110h27q0 -62 27.5 -93.5t69.5 -31.5t68.5 31.5t26.5 93.5h27z" />
    <glyph glyph-name="Edotaccent" unicode="&#x116;" horiz-adv-x="628" 
d="M570 29l-2 -29h-444v750h425l2 -29h-395v-312h345v-27h-345v-353h414zM377 845q0 -32 -31 -32q-16 0 -25 7t-9 25q0 32 34 32q31 0 31 -32z" />
    <glyph glyph-name="edotaccent" unicode="&#x117;" horiz-adv-x="569" 
d="M314 -12q-68 0 -115.5 18.5t-77.5 58t-43.5 101.5t-13.5 150q0 138 56.5 208t168.5 70q47 0 87 -15t69 -47.5t45.5 -83.5t16.5 -123v-7q0 -4 -1 -7h-411q1 -83 14 -140t40 -91.5t68.5 -49.5t98.5 -15q48 0 87 12t77 35l4 -26q-38 -23 -78.5 -35.5t-91.5 -12.5zM478 332
q-1 64 -15.5 109t-39.5 73t-59.5 41t-74.5 13q-98 0 -144 -60.5t-51 -175.5h384zM322 762q0 -18 -8.5 -25.5t-24.5 -7.5t-24.5 6.5t-8.5 26.5q0 32 33 32t33 -32z" />
    <glyph glyph-name="Eogonek" unicode="&#x118;" horiz-adv-x="628" 
d="M570 29l-2 -29h-54q-17 -1 -30.5 -9.5t-22.5 -21t-14 -28.5t-5 -31q0 -29 16.5 -46t52.5 -17q20 0 35.5 4t32.5 14l5 -18q-37 -23 -80 -23q-46 0 -68.5 22t-22.5 59q0 28 13 54t39 41h-341v750h425l2 -29h-395v-312h345v-27h-345v-353h414z" />
    <glyph glyph-name="eogonek" unicode="&#x119;" horiz-adv-x="569" 
d="M334 -183q-25 0 -41.5 6t-26.5 16t-14 23.5t-4 27.5q0 26 15.5 53t46.5 47q-67 0 -114 18.5t-76 57.5t-42.5 101t-13.5 149q0 138 56.5 208t168.5 70q47 0 87 -15t69 -47.5t45.5 -83.5t16.5 -123v-7q0 -4 -1 -7h-411q1 -83 14 -140t40 -91.5t68.5 -49.5t98.5 -15
q48 0 87 12t77 35l4 -26q-32 -20 -66.5 -32t-75.5 -15q-35 -17 -51.5 -43t-16.5 -54q0 -23 15 -38.5t50 -15.5q40 0 71 19l3 -18q-36 -22 -79 -22zM478 332q-1 64 -15.5 109t-39.5 73t-59.5 41t-74.5 13q-98 0 -144 -60.5t-51 -175.5h384z" />
    <glyph glyph-name="Ecaron" unicode="&#x11a;" horiz-adv-x="628" 
d="M570 29l-2 -29h-444v750h425l2 -29h-395v-312h345v-27h-345v-353h414zM327 802l-124 114h41l100 -95l101 95h39l-124 -114h-33z" />
    <glyph glyph-name="ecaron" unicode="&#x11b;" horiz-adv-x="569" 
d="M314 -12q-68 0 -115.5 18.5t-77.5 58t-43.5 101.5t-13.5 150q0 138 56.5 208t168.5 70q47 0 87 -15t69 -47.5t45.5 -83.5t16.5 -123v-7q0 -4 -1 -7h-411q1 -83 14 -140t40 -91.5t68.5 -49.5t98.5 -15q48 0 87 12t77 35l4 -26q-38 -23 -78.5 -35.5t-91.5 -12.5zM478 332
q-1 64 -15.5 109t-39.5 73t-59.5 41t-74.5 13q-98 0 -144 -60.5t-51 -175.5h384zM274 669l-109 141h32l92 -122l93 122h31l-108 -141h-31z" />
    <glyph glyph-name="Gcircumflex" unicode="&#x11c;" horiz-adv-x="685" 
d="M607 32q-39 -21 -93.5 -33t-117.5 -12q-81 0 -141 20.5t-99 66t-58.5 119t-19.5 178.5q0 107 19 181.5t58.5 121t99.5 67.5t142 21q52 0 103 -11t87 -28l-6 -28q-39 17 -83.5 28t-99.5 11q-71 0 -124.5 -17.5t-89.5 -59.5t-54 -111.5t-18 -174.5q0 -97 16 -164.5
t50.5 -110t88.5 -61.5t129 -19q54 0 99 9.5t82 27.5v338h30v-359zM402 916l126 -114h-41l-101 93l-98 -93h-41l123 114h32z" />
    <glyph glyph-name="gcircumflex" unicode="&#x11d;" horiz-adv-x="558" 
d="M279 262q-21 0 -43 2.5t-43 9.5q-37 -7 -56 -23t-19 -39q0 -20 15 -35t48 -19l146 -16q55 -6 91 -17t57 -27.5t29.5 -38.5t8.5 -49q0 -36 -11 -65.5t-37.5 -50.5t-70.5 -32.5t-109 -11.5q-112 0 -161.5 41.5t-49.5 113.5q0 34 17.5 68.5t58.5 63.5q-27 7 -44 25t-17 47
q0 27 20.5 47t55.5 31q-32 17 -53 50t-21 90q0 83 43.5 124.5t144.5 41.5q38 0 76 -9t66 -34l93 46l8 -14l-83 -53q14 -18 21.5 -43t7.5 -59q0 -41 -9.5 -71.5t-31.5 -51.5t-58 -31.5t-90 -10.5zM179 131q-38 -24 -56.5 -57.5t-18.5 -66.5q0 -61 42 -96.5t138 -35.5
q59 0 97 10t60.5 27.5t31.5 42t9 53.5q0 22 -6.5 39.5t-24.5 30t-49 21.5t-79 15zM279 568q-87 0 -122.5 -36t-35.5 -106q0 -42 12 -69t33 -42.5t50 -21.5t63 -6q45 0 75.5 9t49 27t26.5 44t8 59q0 79 -38 110.5t-121 31.5zM306 810l109 -141h-31l-94 124l-92 -124h-30
l107 141h31z" />
    <glyph glyph-name="Gbreve" unicode="&#x11e;" horiz-adv-x="685" 
d="M607 32q-39 -21 -93.5 -33t-117.5 -12q-81 0 -141 20.5t-99 66t-58.5 119t-19.5 178.5q0 107 19 181.5t58.5 121t99.5 67.5t142 21q52 0 103 -11t87 -28l-6 -28q-39 17 -83.5 28t-99.5 11q-71 0 -124.5 -17.5t-89.5 -59.5t-54 -111.5t-18 -174.5q0 -97 16 -164.5
t50.5 -110t88.5 -61.5t129 -19q54 0 99 9.5t82 27.5v338h30v-359zM522 916q0 -55 -33.5 -86.5t-102.5 -31.5q-67 0 -103.5 29t-36.5 89h27q0 -51 32.5 -73t80.5 -22q49 0 79.5 22t29.5 73h27z" />
    <glyph glyph-name="gbreve" unicode="&#x11f;" horiz-adv-x="558" 
d="M279 262q-21 0 -43 2.5t-43 9.5q-37 -7 -56 -23t-19 -39q0 -20 15 -35t48 -19l146 -16q55 -6 91 -17t57 -27.5t29.5 -38.5t8.5 -49q0 -36 -11 -65.5t-37.5 -50.5t-70.5 -32.5t-109 -11.5q-112 0 -161.5 41.5t-49.5 113.5q0 34 17.5 68.5t58.5 63.5q-27 7 -44 25t-17 47
q0 27 20.5 47t55.5 31q-32 17 -53 50t-21 90q0 83 43.5 124.5t144.5 41.5q38 0 76 -9t66 -34l93 46l8 -14l-83 -53q14 -18 21.5 -43t7.5 -59q0 -41 -9.5 -71.5t-31.5 -51.5t-58 -31.5t-90 -10.5zM179 131q-38 -24 -56.5 -57.5t-18.5 -66.5q0 -61 42 -96.5t138 -35.5
q59 0 97 10t60.5 27.5t31.5 42t9 53.5q0 22 -6.5 39.5t-24.5 30t-49 21.5t-79 15zM279 568q-87 0 -122.5 -36t-35.5 -106q0 -42 12 -69t33 -42.5t50 -21.5t63 -6q45 0 75.5 9t49 27t26.5 44t8 59q0 79 -38 110.5t-121 31.5zM414 810q0 -67 -30.5 -107.5t-91.5 -40.5
q-60 0 -92 38t-32 110h27q0 -62 27.5 -93.5t69.5 -31.5t68.5 31.5t26.5 93.5h27z" />
    <glyph glyph-name="Gdotaccent" unicode="&#x120;" horiz-adv-x="685" 
d="M607 32q-39 -21 -93.5 -33t-117.5 -12q-81 0 -141 20.5t-99 66t-58.5 119t-19.5 178.5q0 107 19 181.5t58.5 121t99.5 67.5t142 21q52 0 103 -11t87 -28l-6 -28q-39 17 -83.5 28t-99.5 11q-71 0 -124.5 -17.5t-89.5 -59.5t-54 -111.5t-18 -174.5q0 -97 16 -164.5
t50.5 -110t88.5 -61.5t129 -19q54 0 99 9.5t82 27.5v338h30v-359zM417 845q0 -32 -31 -32q-16 0 -25 7t-9 25q0 32 34 32q31 0 31 -32z" />
    <glyph glyph-name="gdotaccent" unicode="&#x121;" horiz-adv-x="558" 
d="M279 262q-21 0 -43 2.5t-43 9.5q-37 -7 -56 -23t-19 -39q0 -20 15 -35t48 -19l146 -16q55 -6 91 -17t57 -27.5t29.5 -38.5t8.5 -49q0 -36 -11 -65.5t-37.5 -50.5t-70.5 -32.5t-109 -11.5q-112 0 -161.5 41.5t-49.5 113.5q0 34 17.5 68.5t58.5 63.5q-27 7 -44 25t-17 47
q0 27 20.5 47t55.5 31q-32 17 -53 50t-21 90q0 83 43.5 124.5t144.5 41.5q38 0 76 -9t66 -34l93 46l8 -14l-83 -53q14 -18 21.5 -43t7.5 -59q0 -41 -9.5 -71.5t-31.5 -51.5t-58 -31.5t-90 -10.5zM179 131q-38 -24 -56.5 -57.5t-18.5 -66.5q0 -61 42 -96.5t138 -35.5
q59 0 97 10t60.5 27.5t31.5 42t9 53.5q0 22 -6.5 39.5t-24.5 30t-49 21.5t-79 15zM279 568q-87 0 -122.5 -36t-35.5 -106q0 -42 12 -69t33 -42.5t50 -21.5t63 -6q45 0 75.5 9t49 27t26.5 44t8 59q0 79 -38 110.5t-121 31.5zM324 762q0 -18 -8.5 -25.5t-24.5 -7.5t-24.5 6.5
t-8.5 26.5q0 32 33 32t33 -32z" />
    <glyph glyph-name="uni0122" unicode="&#x122;" horiz-adv-x="685" 
d="M607 32q-39 -21 -93.5 -33t-117.5 -12q-81 0 -141 20.5t-99 66t-58.5 119t-19.5 178.5q0 107 19 181.5t58.5 121t99.5 67.5t142 21q52 0 103 -11t87 -28l-6 -28q-39 17 -83.5 28t-99.5 11q-71 0 -124.5 -17.5t-89.5 -59.5t-54 -111.5t-18 -174.5q0 -97 16 -164.5
t50.5 -110t88.5 -61.5t129 -19q54 0 99 9.5t82 27.5v338h30v-359zM394 -48q17 0 25 -8t8 -21q0 -7 -5.5 -20t-14 -29.5t-19 -34.5t-20.5 -34l-10 4l31 92q-29 0 -29 24q0 11 8 19t26 8z" />
    <glyph glyph-name="uni0123" unicode="&#x123;" horiz-adv-x="558" 
d="M279 262q-21 0 -43 2.5t-43 9.5q-37 -7 -56 -23t-19 -39q0 -20 15 -35t48 -19l146 -16q55 -6 91 -17t57 -27.5t29.5 -38.5t8.5 -49q0 -36 -11 -65.5t-37.5 -50.5t-70.5 -32.5t-109 -11.5q-112 0 -161.5 41.5t-49.5 113.5q0 34 17.5 68.5t58.5 63.5q-27 7 -44 25t-17 47
q0 27 20.5 47t55.5 31q-32 17 -53 50t-21 90q0 83 43.5 124.5t144.5 41.5q38 0 76 -9t66 -34l93 46l8 -14l-83 -53q14 -18 21.5 -43t7.5 -59q0 -41 -9.5 -71.5t-31.5 -51.5t-58 -31.5t-90 -10.5zM179 131q-38 -24 -56.5 -57.5t-18.5 -66.5q0 -61 42 -96.5t138 -35.5
q59 0 97 10t60.5 27.5t31.5 42t9 53.5q0 22 -6.5 39.5t-24.5 30t-49 21.5t-79 15zM279 568q-87 0 -122.5 -36t-35.5 -106q0 -42 12 -69t33 -42.5t50 -21.5t63 -6q45 0 75.5 9t49 27t26.5 44t8 59q0 79 -38 110.5t-121 31.5zM291 669q-17 0 -25 8t-8 21q0 7 5.5 20t14 29.5
t18.5 34t21 34.5l10 -4l-32 -91q29 0 29 -25q0 -11 -8 -19t-25 -8z" />
    <glyph glyph-name="Hcircumflex" unicode="&#x124;" horiz-adv-x="764" 
d="M608 0v381h-451v-381h-33v750h33v-341h451v341h33v-750h-33zM404 916l126 -114h-41l-101 93l-98 -93h-41l123 114h32z" />
    <glyph glyph-name="hcircumflex" unicode="&#x125;" horiz-adv-x="618" 
d="M495 0v404q0 77 -42.5 119.5t-130.5 42.5q-61 0 -109.5 -27.5t-70.5 -66.5v-472h-30v801l30 4v-217l-1 -80l2 -1q27 38 75 62.5t110 24.5q197 0 197 -190v-404h-30zM146 953l126 -114h-41l-101 93l-98 -93h-41l123 114h32z" />
    <glyph glyph-name="Hbar" unicode="&#x126;" horiz-adv-x="775" 
d="M613 0v381h-451v-381h-33v557h-70v23h70v170h33v-170h451v170h33v-170h77v-23h-77v-557h-33zM613 409v148h-451v-148h451z" />
    <glyph glyph-name="hbar" unicode="&#x127;" horiz-adv-x="615" 
d="M492 0v404q0 77 -42.5 119.5t-130.5 42.5q-61 0 -109.5 -27.5t-70.5 -66.5v-472h-30v662h-101v23h101v116l30 4v-120h113v-23h-113v-74l-1 -80l2 -1q27 38 75 62.5t110 24.5q197 0 197 -190v-404h-30z" />
    <glyph glyph-name="Itilde" unicode="&#x128;" horiz-adv-x="309" 
d="M138 750h33v-750h-33v750zM30 814q6 38 22.5 63.5t45.5 25.5q18 0 33.5 -13t29.5 -28.5t27.5 -28.5t28.5 -13q17 0 29.5 16t19.5 51l17 -1q-5 -38 -22 -64t-46 -26q-18 0 -33.5 13t-29.5 28.5t-27.5 28.5t-28.5 13q-18 0 -29.5 -18.5t-18.5 -47.5z" />
    <glyph glyph-name="itilde" unicode="&#x129;" horiz-adv-x="304" 
d="M137 0v582l30 3v-585h-30zM18 699q6 45 24.5 71t45.5 26q20 0 36 -13t30.5 -29t28.5 -29t30 -13q34 0 49 73l20 -1q-6 -45 -24.5 -71t-46.5 -26q-20 0 -35.5 13t-30 29t-28 29t-29.5 13t-29 -20t-21 -53z" />
    <glyph glyph-name="Imacron" unicode="&#x12a;" horiz-adv-x="309" 
d="M138 750h33v-750h-33v750zM278 825h-246v22h246v-22z" />
    <glyph glyph-name="imacron" unicode="&#x12b;" horiz-adv-x="304" 
d="M137 0v582l30 3v-585h-30zM272 737h-244v23h244v-23z" />
    <glyph glyph-name="Ibreve" unicode="&#x12c;" horiz-adv-x="309" 
d="M138 750h33v-750h-33v750zM293 916q0 -55 -33.5 -86.5t-102.5 -31.5q-67 0 -103.5 29t-36.5 89h27q0 -51 32.5 -73t80.5 -22q49 0 79.5 22t29.5 73h27z" />
    <glyph glyph-name="ibreve" unicode="&#x12d;" horiz-adv-x="304" 
d="M137 0v582l30 3v-585h-30zM272 810q0 -67 -30.5 -107.5t-91.5 -40.5q-60 0 -92 38t-32 110h27q0 -62 27.5 -93.5t69.5 -31.5t68.5 31.5t26.5 93.5h27z" />
    <glyph glyph-name="Iogonek" unicode="&#x12e;" horiz-adv-x="309" 
d="M171 0q-18 0 -32 -8t-23.5 -21t-15 -29t-5.5 -32q0 -29 16.5 -46t52.5 -17q20 0 35.5 4t32.5 14l5 -18q-37 -23 -80 -23q-46 0 -68.5 22t-22.5 59q0 33 18.5 62.5t53.5 41.5v741h33v-750z" />
    <glyph glyph-name="iogonek" unicode="&#x12f;" horiz-adv-x="304" 
d="M152 -174q-25 0 -41.5 6t-26.5 16t-14 23.5t-4 27.5q0 29 18 57.5t53 46.5v579l29 3v-585h-2q-36 -17 -54 -43.5t-18 -55.5q0 -23 15 -38.5t50 -15.5q40 0 71 19l3 -18q-36 -22 -79 -22zM185 759q0 -32 -32 -32q-16 0 -25 6.5t-9 25.5q0 15 9 24t25 9q32 0 32 -33z" />
    <glyph glyph-name="Idotaccent" unicode="&#x130;" horiz-adv-x="309" 
d="M138 750h33v-750h-33v750zM187 845q0 -32 -31 -32q-16 0 -25 7t-9 25q0 32 34 32q31 0 31 -32z" />
    <glyph glyph-name="dotlessi" unicode="&#x131;" horiz-adv-x="304" 
d="M137 0v582l30 3v-585h-30z" />
    <glyph glyph-name="Jcircumflex" unicode="&#x134;" horiz-adv-x="549" 
d="M425 226q0 -112 -58.5 -175.5t-170.5 -63.5q-51 0 -89.5 14t-64.5 37l7 29q28 -25 64 -38.5t83 -13.5q92 0 144 52.5t52 158.5v524h33v-524zM419 916l126 -114h-41l-101 93l-98 -93h-41l123 114h32z" />
    <glyph glyph-name="jcircumflex" unicode="&#x135;" horiz-adv-x="301" 
d="M164 -26q0 -69 -30 -96.5t-80 -27.5q-13 0 -28.5 3t-26.5 8l4 24q23 -10 46 -10q38 0 61 23t23 77v607l31 3v-611zM148 810l109 -141h-31l-94 124l-92 -124h-30l107 141h31z" />
    <glyph glyph-name="uni0136" unicode="&#x136;" horiz-adv-x="686" 
d="M596 0l-302 381h-137v-381h-33v750h33v-340h135l288 340h47l-300 -353l318 -397h-49zM355 -48q17 0 25 -8t8 -21q0 -7 -5.5 -20t-14 -29.5t-19 -34.5t-20.5 -34l-10 4l31 92q-29 0 -29 24q0 11 8 19t26 8z" />
    <glyph glyph-name="uni0137" unicode="&#x137;" horiz-adv-x="559" 
d="M142 330h99l239 255h40l-254 -267l266 -318h-40l-251 304h-99v-304h-30v802l30 3v-475zM293 -48q17 0 25 -8t8 -21q0 -7 -5.5 -20t-14 -29.5t-19 -34.5t-20.5 -34l-10 4l31 92q-29 0 -29 24q0 11 8 19t26 8z" />
    <glyph glyph-name="kgreenlandic" unicode="&#x138;" horiz-adv-x="559" 
d="M142 330h99l239 255h40l-254 -267l266 -318h-40l-251 304h-99v-304h-30v583l30 3v-256z" />
    <glyph glyph-name="Lacute" unicode="&#x139;" horiz-adv-x="579" 
d="M548 30l-2 -30h-422v750h32v-720h392zM346 916l-120 -113h-30l94 113h56z" />
    <glyph glyph-name="lacute" unicode="&#x13a;" horiz-adv-x="293" 
d="M132 0v802l30 3v-805h-30zM272 936l-120 -113h-30l94 113h56z" />
    <glyph glyph-name="uni013B" unicode="&#x13b;" horiz-adv-x="579" 
d="M548 30l-2 -30h-422v750h32v-720h392zM331 -48q17 0 25 -8t8 -21q0 -7 -5.5 -20t-14 -29.5t-19 -34.5t-20.5 -34l-10 4l31 92q-29 0 -29 24q0 11 8 19t26 8z" />
    <glyph glyph-name="uni013C" unicode="&#x13c;" horiz-adv-x="293" 
d="M132 0v802l30 3v-805h-30zM150 -48q17 0 25 -8t8 -21q0 -7 -5.5 -20t-14 -29.5t-19 -34.5t-20.5 -34l-10 4l31 92q-29 0 -29 24q0 11 8 19t26 8z" />
    <glyph glyph-name="Lcaron" unicode="&#x13d;" horiz-adv-x="579" 
d="M548 30l-2 -30h-422v750h32v-720h392zM392 761q17 0 25 -8t8 -21q0 -7 -5.5 -20t-13.5 -29.5t-19 -34.5t-21 -34l-10 4l33 92q-14 0 -22 6.5t-8 17.5t8 19t25 8z" />
    <glyph glyph-name="lcaron" unicode="&#x13e;" horiz-adv-x="293" 
d="M132 0v802l30 3v-805h-30zM278 760q17 0 25 -8t8 -21q0 -7 -5.5 -20t-13.5 -29.5t-19 -34.5t-21 -34l-10 4l33 92q-14 0 -22 6.5t-8 17.5t8 19t25 8z" />
    <glyph glyph-name="Ldot" unicode="&#x13f;" horiz-adv-x="579" 
d="M454 407q0 -32 -33 -32t-33 32t33 32t33 -32zM548 30l-2 -30h-422v750h32v-720h392z" />
    <glyph glyph-name="ldot" unicode="&#x140;" horiz-adv-x="364" 
d="M361 383q0 -32 -33 -32t-33 32t33 32t33 -32zM132 0v802l30 3v-805h-30z" />
    <glyph glyph-name="Lslash" unicode="&#x141;" horiz-adv-x="596" 
d="M565 30l-2 -30h-422v318l-85 -44l-3 28l88 46v402h32v-387l238 126l4 -29l-242 -127v-303h392z" />
    <glyph glyph-name="lslash" unicode="&#x142;" horiz-adv-x="343" 
d="M56 441l96 57v304l30 3v-296l103 62l2 -26l-105 -64v-481h-30v470l-94 -56z" />
    <glyph glyph-name="Nacute" unicode="&#x143;" horiz-adv-x="769" 
d="M619 0l-420 643l-43 69l-2 -1l1 -81v-630h-31v750h40l408 -630l44 -68l2 1l-2 80v616h29v-749h-26zM501 916l-120 -113h-30l94 113h56z" />
    <glyph glyph-name="nacute" unicode="&#x144;" horiz-adv-x="612" 
d="M489 0v403q0 85 -45 124t-130 39q-24 0 -49.5 -6t-50 -18t-45.5 -29.5t-34 -39.5v-473h-30v584l22 2l5 -79h3q28 40 78 63t107 23q94 0 146.5 -45t52.5 -144v-404h-30zM393 810l-107 -141h-28l87 141h48z" />
    <glyph glyph-name="uni0145" unicode="&#x145;" horiz-adv-x="769" 
d="M619 0l-420 643l-43 69l-2 -1l1 -81v-630h-31v750h40l408 -630l44 -68l2 1l-2 80v616h29v-749h-26zM387 -48q17 0 25 -8t8 -21q0 -7 -5.5 -20t-14 -29.5t-19 -34.5t-20.5 -34l-10 4l31 92q-29 0 -29 24q0 11 8 19t26 8z" />
    <glyph glyph-name="uni0146" unicode="&#x146;" horiz-adv-x="612" 
d="M489 0v403q0 85 -45 124t-130 39q-24 0 -49.5 -6t-50 -18t-45.5 -29.5t-34 -39.5v-473h-30v584l22 2l5 -79h3q28 40 78 63t107 23q94 0 146.5 -45t52.5 -144v-404h-30zM310 -48q17 0 25 -8t8 -21q0 -7 -5.5 -20t-14 -29.5t-19 -34.5t-20.5 -34l-10 4l31 92q-29 0 -29 24
q0 11 8 19t26 8z" />
    <glyph glyph-name="Ncaron" unicode="&#x147;" horiz-adv-x="769" 
d="M619 0l-420 643l-43 69l-2 -1l1 -81v-630h-31v750h40l408 -630l44 -68l2 1l-2 80v616h29v-749h-26zM383 802l-124 114h41l100 -95l101 95h39l-124 -114h-33z" />
    <glyph glyph-name="ncaron" unicode="&#x148;" horiz-adv-x="612" 
d="M489 0v403q0 85 -45 124t-130 39q-24 0 -49.5 -6t-50 -18t-45.5 -29.5t-34 -39.5v-473h-30v584l22 2l5 -79h3q28 40 78 63t107 23q94 0 146.5 -45t52.5 -144v-404h-30zM289 669l-109 141h32l92 -122l93 122h31l-108 -141h-31z" />
    <glyph glyph-name="napostrophe" unicode="&#x149;" horiz-adv-x="612" 
d="M491 0v403q0 85 -45 124t-130 39q-24 0 -49.5 -6t-50 -18t-45.5 -29.5t-34 -39.5v-473h-30v584l22 2l5 -79h3q28 40 78 63t107 23q94 0 146.5 -45t52.5 -144v-404h-30zM90 767q17 0 25 -8t8 -21q0 -7 -5.5 -20t-13.5 -29.5t-19 -34.5t-21 -34l-10 4l33 92q-14 0 -22 6.5
t-8 17.5t8 19t25 8z" />
    <glyph glyph-name="Eng" unicode="&#x14a;" horiz-adv-x="769" 
d="M645 38q0 -45 -10 -76t-28 -50t-42 -27.5t-52 -8.5q-31 0 -60 11t-46 28l7 23q18 -17 44.5 -27.5t49.5 -10.5q45 0 70.5 22t35.5 73l-416 648l-42 69l-2 -1l1 -81v-630h-31v750h40l410 -646l43 -69l2 1l-2 80l-1 633h29v-711z" />
    <glyph glyph-name="eng" unicode="&#x14b;" horiz-adv-x="612" 
d="M490 403q0 85 -45.5 124t-130.5 39q-24 0 -50 -6t-50 -18t-45 -29.5t-34 -39.5v-473h-30v584l21 2l6 -79h3q28 40 78 63t107 23q94 0 146.5 -45t52.5 -144v-378q0 -66 -34 -101t-88 -35q-29 0 -55.5 9t-43.5 24l7 25q17 -16 40.5 -24.5t45.5 -8.5q40 0 69.5 25.5
t29.5 80.5v382z" />
    <glyph glyph-name="Omacron" unicode="&#x14c;" horiz-adv-x="734" 
d="M656 375q0 -106 -15 -179.5t-49.5 -120t-89.5 -67.5t-134 -21q-80 0 -135 21t-89.5 67.5t-50 120t-15.5 179.5t15.5 179.5t50 119.5t89.5 67t135 21q79 0 134 -21t89.5 -67t49.5 -119.5t15 -179.5zM623 375q0 104 -14.5 173t-45 110t-79 58t-116.5 17t-116.5 -17
t-79.5 -58t-45.5 -110t-14.5 -173q0 -103 14.5 -172t45.5 -110.5t79.5 -59t116.5 -17.5t116.5 17.5t79 59t45 110.5t14.5 172zM495 825h-246v22h246v-22z" />
    <glyph glyph-name="omacron" unicode="&#x14d;" horiz-adv-x="604" 
d="M540 291q0 -83 -13.5 -140.5t-42 -94t-73.5 -53t-107 -16.5t-107.5 16.5t-75 53t-43.5 94t-14 140.5q0 82 14.5 139.5t44 93.5t74.5 52.5t107 16.5t107 -16.5t73.5 -52.5t42 -93.5t13.5 -139.5zM95 291q0 -74 11.5 -127t37 -86.5t65 -49t95.5 -15.5q55 0 94 15.5t63.5 49
t36 86.5t11.5 127t-11.5 126.5t-36 86t-63.5 49t-94 15.5q-56 0 -95.5 -15.5t-65 -49.5t-37 -86.5t-11.5 -125.5zM426 737h-244v23h244v-23z" />
    <glyph glyph-name="Obreve" unicode="&#x14e;" horiz-adv-x="734" 
d="M656 375q0 -106 -15 -179.5t-49.5 -120t-89.5 -67.5t-134 -21q-80 0 -135 21t-89.5 67.5t-50 120t-15.5 179.5t15.5 179.5t50 119.5t89.5 67t135 21q79 0 134 -21t89.5 -67t49.5 -119.5t15 -179.5zM623 375q0 104 -14.5 173t-45 110t-79 58t-116.5 17t-116.5 -17
t-79.5 -58t-45.5 -110t-14.5 -173q0 -103 14.5 -172t45.5 -110.5t79.5 -59t116.5 -17.5t116.5 17.5t79 59t45 110.5t14.5 172zM504 916q0 -55 -33.5 -86.5t-102.5 -31.5q-67 0 -103.5 29t-36.5 89h27q0 -51 32.5 -73t80.5 -22q49 0 79.5 22t29.5 73h27z" />
    <glyph glyph-name="obreve" unicode="&#x14f;" horiz-adv-x="604" 
d="M540 291q0 -83 -13.5 -140.5t-42 -94t-73.5 -53t-107 -16.5t-107.5 16.5t-75 53t-43.5 94t-14 140.5q0 82 14.5 139.5t44 93.5t74.5 52.5t107 16.5t107 -16.5t73.5 -52.5t42 -93.5t13.5 -139.5zM95 291q0 -74 11.5 -127t37 -86.5t65 -49t95.5 -15.5q55 0 94 15.5t63.5 49
t36 86.5t11.5 127t-11.5 126.5t-36 86t-63.5 49t-94 15.5q-56 0 -95.5 -15.5t-65 -49.5t-37 -86.5t-11.5 -125.5zM426 810q0 -67 -30.5 -107.5t-91.5 -40.5q-60 0 -92 38t-32 110h27q0 -62 27.5 -93.5t69.5 -31.5t68.5 31.5t26.5 93.5h27z" />
    <glyph glyph-name="Ohungarumlaut" unicode="&#x150;" horiz-adv-x="734" 
d="M656 375q0 -106 -15 -179.5t-49.5 -120t-89.5 -67.5t-134 -21q-80 0 -135 21t-89.5 67.5t-50 120t-15.5 179.5t15.5 179.5t50 119.5t89.5 67t135 21q79 0 134 -21t89.5 -67t49.5 -119.5t15 -179.5zM623 375q0 104 -14.5 173t-45 110t-79 58t-116.5 17t-116.5 -17
t-79.5 -58t-45.5 -110t-14.5 -173q0 -103 14.5 -172t45.5 -110.5t79.5 -59t116.5 -17.5t116.5 17.5t79 59t45 110.5t14.5 172zM419 916l-106 -115h-26l84 115h48zM547 916l-122 -115h-29l103 115h48z" />
    <glyph glyph-name="ohungarumlaut" unicode="&#x151;" horiz-adv-x="604" 
d="M540 291q0 -83 -13.5 -140.5t-42 -94t-73.5 -53t-107 -16.5t-107.5 16.5t-75 53t-43.5 94t-14 140.5q0 82 14.5 139.5t44 93.5t74.5 52.5t107 16.5t107 -16.5t73.5 -52.5t42 -93.5t13.5 -139.5zM95 291q0 -74 11.5 -127t37 -86.5t65 -49t95.5 -15.5q55 0 94 15.5t63.5 49
t36 86.5t11.5 127t-11.5 126.5t-36 86t-63.5 49t-94 15.5q-56 0 -95.5 -15.5t-65 -49.5t-37 -86.5t-11.5 -125.5zM362 810l-108 -141h-25l88 141h45zM483 810l-108 -141h-29l92 141h45z" />
    <glyph glyph-name="OE" unicode="&#x152;" horiz-adv-x="1122" 
d="M620 0v70l2 81l-3 1q-26 -87 -90.5 -126t-164.5 -39q-78 0 -132.5 21t-88.5 67.5t-49.5 120t-15.5 179.5t15.5 179.5t49.5 119.5t88.5 67t132.5 21q102 0 165.5 -36t89.5 -122h3l-2 73v73h423l2 -29h-394v-312h343v-27h-343v-353h413l-2 -29h-442zM619 375
q0 104 -13.5 173t-43.5 110.5t-78 58.5t-116 17t-116.5 -17t-79.5 -58.5t-45.5 -110.5t-14.5 -173q0 -103 14.5 -172t45.5 -110.5t79.5 -59t116.5 -17.5t116 17.5t78 59t43.5 110.5t13.5 172z" />
    <glyph glyph-name="oe" unicode="&#x153;" horiz-adv-x="1022" 
d="M767 -12q-103 0 -157 41.5t-73 136.5h-3q-19 -99 -75 -139t-145 -40q-62 0 -107 16.5t-74 53t-43 94t-14 140.5q0 82 14.5 139.5t43.5 93.5t74 52.5t106 16.5q91 0 146 -37t72 -123h3q18 83 72 122t136 39q47 0 86.5 -15t68.5 -47.5t45.5 -83.5t16.5 -123v-6q0 -2 -1 -8
h-409q1 -83 14 -140t40 -91.5t68 -49.5t98 -15q47 0 86 12t77 35l5 -26q-38 -23 -79 -35.5t-92 -12.5zM106 291q0 -74 11.5 -127t37 -86.5t65 -49t95.5 -15.5q55 0 94 15.5t63.5 49t35.5 86.5t11 127t-11 126.5t-35.5 86t-63.5 49t-94 15.5q-56 0 -95.5 -15.5t-65 -49.5
t-37 -86.5t-11.5 -125.5zM931 332q0 64 -15 109t-40.5 73t-60 41t-73.5 13q-97 0 -143.5 -60.5t-49.5 -175.5h382z" />
    <glyph glyph-name="Racute" unicode="&#x154;" horiz-adv-x="643" 
d="M557 558q0 -96 -43.5 -142.5t-128.5 -51.5l221 -364h-42l-213 359h-194v-359h-33v750h233q105 0 152.5 -47.5t47.5 -144.5zM525 558q0 88 -41 126t-128 38h-199v-336h192q91 0 133.5 40.5t42.5 131.5zM412 916l-120 -113h-30l94 113h56z" />
    <glyph glyph-name="racute" unicode="&#x155;" horiz-adv-x="430" 
d="M105 0v581l25 3l1 -87v-81h2q11 37 29.5 69t44 55.5t57.5 37t70 13.5q26 0 52 -6l-3 -28q-13 4 -25 5t-26 1q-40 0 -75.5 -19t-62.5 -53.5t-43 -83t-16 -108.5v-299h-30zM314 810l-107 -141h-28l87 141h48z" />
    <glyph glyph-name="uni0156" unicode="&#x156;" horiz-adv-x="643" 
d="M557 558q0 -96 -43.5 -142.5t-128.5 -51.5l221 -364h-42l-213 359h-194v-359h-33v750h233q105 0 152.5 -47.5t47.5 -144.5zM525 558q0 88 -41 126t-128 38h-199v-336h192q91 0 133.5 40.5t42.5 131.5zM333 -48q17 0 25 -8t8 -21q0 -7 -5.5 -20t-14 -29.5t-19 -34.5
t-20.5 -34l-10 4l31 92q-29 0 -29 24q0 11 8 19t26 8z" />
    <glyph glyph-name="uni0157" unicode="&#x157;" horiz-adv-x="430" 
d="M105 0v581l25 3l1 -87v-81h2q11 37 29.5 69t44 55.5t57.5 37t70 13.5q26 0 52 -6l-3 -28q-13 4 -25 5t-26 1q-40 0 -75.5 -19t-62.5 -53.5t-43 -83t-16 -108.5v-299h-30zM123 -48q17 0 25 -8t8 -21q0 -7 -5.5 -20t-14 -29.5t-19 -34.5t-20.5 -34l-10 4l31 92
q-29 0 -29 24q0 11 8 19t26 8z" />
    <glyph glyph-name="Rcaron" unicode="&#x158;" horiz-adv-x="643" 
d="M557 558q0 -96 -43.5 -142.5t-128.5 -51.5l221 -364h-42l-213 359h-194v-359h-33v750h233q105 0 152.5 -47.5t47.5 -144.5zM525 558q0 88 -41 126t-128 38h-199v-336h192q91 0 133.5 40.5t42.5 131.5zM299 802l-124 114h41l100 -95l101 95h39l-124 -114h-33z" />
    <glyph glyph-name="rcaron" unicode="&#x159;" horiz-adv-x="430" 
d="M105 0v581l25 3l1 -87v-81h2q11 37 29.5 69t44 55.5t57.5 37t70 13.5q26 0 52 -6l-3 -28q-13 4 -25 5t-26 1q-40 0 -75.5 -19t-62.5 -53.5t-43 -83t-16 -108.5v-299h-30zM217 669l-109 141h32l92 -122l93 122h31l-108 -141h-31z" />
    <glyph glyph-name="Sacute" unicode="&#x15a;" horiz-adv-x="559" 
d="M504 201q0 -101 -58 -157.5t-175 -56.5q-64 0 -115 16t-92 43l8 28q43 -29 91 -43.5t109 -14.5q98 0 149 48.5t51 134.5q0 43 -17 72.5t-45 49.5t-64 34t-73.5 27t-73.5 27.5t-64 36t-45 52.5t-17 77q0 40 13.5 74.5t40.5 59.5t68.5 39t98.5 14q55 0 101.5 -11t84.5 -31
l-9 -26q-42 19 -83.5 29.5t-92.5 10.5q-50 0 -86 -13t-59 -34.5t-34 -50.5t-11 -60q0 -41 17 -68t45 -46t64 -32t73.5 -26t73.5 -28t64 -37.5t45 -55.5t17 -82zM391 916l-120 -113h-30l94 113h56z" />
    <glyph glyph-name="sacute" unicode="&#x15b;" horiz-adv-x="488" 
d="M431 156q0 -76 -45 -122t-141 -46q-52 0 -99 15t-78 44l7 27q32 -29 76.5 -45t92.5 -16q84 0 121.5 40t37.5 101q0 45 -24.5 71.5t-61 44t-79.5 30t-79.5 30.5t-61 46t-24.5 75q0 69 48 106t137 37q83 0 150 -34l-4 -26q-37 17 -73 26t-74 9q-71 0 -112.5 -31.5
t-41.5 -84.5q0 -42 24.5 -66t60.5 -39.5t79 -27.5t79 -31t60.5 -50t24.5 -83zM347 810l-107 -141h-28l87 141h48z" />
    <glyph glyph-name="Scircumflex" unicode="&#x15c;" horiz-adv-x="559" 
d="M504 201q0 -101 -58 -157.5t-175 -56.5q-64 0 -115 16t-92 43l8 28q43 -29 91 -43.5t109 -14.5q98 0 149 48.5t51 134.5q0 43 -17 72.5t-45 49.5t-64 34t-73.5 27t-73.5 27.5t-64 36t-45 52.5t-17 77q0 40 13.5 74.5t40.5 59.5t68.5 39t98.5 14q55 0 101.5 -11t84.5 -31
l-9 -26q-42 19 -83.5 29.5t-92.5 10.5q-50 0 -86 -13t-59 -34.5t-34 -50.5t-11 -60q0 -41 17 -68t45 -46t64 -32t73.5 -26t73.5 -28t64 -37.5t45 -55.5t17 -82zM311 916l126 -114h-41l-101 93l-98 -93h-41l123 114h32z" />
    <glyph glyph-name="scircumflex" unicode="&#x15d;" horiz-adv-x="488" 
d="M431 156q0 -76 -45 -122t-141 -46q-52 0 -99 15t-78 44l7 27q32 -29 76.5 -45t92.5 -16q84 0 121.5 40t37.5 101q0 45 -24.5 71.5t-61 44t-79.5 30t-79.5 30.5t-61 46t-24.5 75q0 69 48 106t137 37q83 0 150 -34l-4 -26q-37 17 -73 26t-74 9q-71 0 -112.5 -31.5
t-41.5 -84.5q0 -42 24.5 -66t60.5 -39.5t79 -27.5t79 -31t60.5 -50t24.5 -83zM269 810l109 -141h-31l-94 124l-92 -124h-30l107 141h31z" />
    <glyph glyph-name="Scedilla" unicode="&#x15e;" horiz-adv-x="559" 
d="M272 -13h-1q-64 0 -115 16t-92 43l8 28q43 -29 91 -43.5t109 -14.5q98 0 149 48.5t51 134.5q0 43 -17 72.5t-45 49.5t-64 34t-73.5 27t-73.5 27.5t-64 36t-45 52.5t-17 77q0 40 13.5 74.5t40.5 59.5t68.5 39t98.5 14q55 0 101.5 -11t84.5 -31l-9 -26q-42 19 -83.5 29.5
t-92.5 10.5q-50 0 -86 -13t-59 -34.5t-34 -50.5t-11 -60q0 -41 17 -68t45 -46t64 -32t73.5 -26t73.5 -28t64 -37.5t45 -55.5t17 -82q0 -96 -52 -151t-156 -62l-39 -181h-38z" />
    <glyph glyph-name="scedilla" unicode="&#x15f;" horiz-adv-x="488" 
d="M246 -12h-1q-52 0 -99 15t-78 44l7 27q32 -29 76.5 -45t92.5 -16q84 0 121.5 40t37.5 101q0 45 -24.5 71.5t-61 44t-79.5 30t-79.5 30.5t-61 46t-24.5 75q0 69 48 106t137 37q83 0 150 -34l-4 -26q-37 17 -73 26t-74 9q-71 0 -112.5 -31.5t-41.5 -84.5q0 -42 24.5 -66
t60.5 -39.5t79 -27.5t79 -31t60.5 -50t24.5 -83q0 -71 -39 -115.5t-122 -51.5l-39 -182h-38z" />
    <glyph glyph-name="Scaron" unicode="&#x160;" horiz-adv-x="559" 
d="M504 201q0 -101 -58 -157.5t-175 -56.5q-64 0 -115 16t-92 43l8 28q43 -29 91 -43.5t109 -14.5q98 0 149 48.5t51 134.5q0 43 -17 72.5t-45 49.5t-64 34t-73.5 27t-73.5 27.5t-64 36t-45 52.5t-17 77q0 40 13.5 74.5t40.5 59.5t68.5 39t98.5 14q55 0 101.5 -11t84.5 -31
l-9 -26q-42 19 -83.5 29.5t-92.5 10.5q-50 0 -86 -13t-59 -34.5t-34 -50.5t-11 -60q0 -41 17 -68t45 -46t64 -32t73.5 -26t73.5 -28t64 -37.5t45 -55.5t17 -82zM284 802l-124 114h41l100 -95l101 95h39l-124 -114h-33z" />
    <glyph glyph-name="scaron" unicode="&#x161;" horiz-adv-x="488" 
d="M431 156q0 -76 -45 -122t-141 -46q-52 0 -99 15t-78 44l7 27q32 -29 76.5 -45t92.5 -16q84 0 121.5 40t37.5 101q0 45 -24.5 71.5t-61 44t-79.5 30t-79.5 30.5t-61 46t-24.5 75q0 69 48 106t137 37q83 0 150 -34l-4 -26q-37 17 -73 26t-74 9q-71 0 -112.5 -31.5
t-41.5 -84.5q0 -42 24.5 -66t60.5 -39.5t79 -27.5t79 -31t60.5 -50t24.5 -83zM239 669l-109 141h32l92 -122l93 122h31l-108 -141h-31z" />
    <glyph glyph-name="uni0162" unicode="&#x162;" horiz-adv-x="568" 
d="M300 720v-720h-5l-42 -193h-38l56 193h-4v720h-246l1 30h524l1 -30h-247z" />
    <glyph glyph-name="uni0163" unicode="&#x163;" horiz-adv-x="381" 
d="M259 -8q-56 3 -85.5 34.5t-29.5 99.5v434h-100v24h100l7 162l24 4v-166h161v-24h-161v-433q0 -60 28.5 -85.5t75.5 -25.5q12 0 26.5 2t23.5 7l4 -23q-9 -5 -22.5 -7.5t-27.5 -3.5l-40 -184h-38z" />
    <glyph glyph-name="Tcaron" unicode="&#x164;" horiz-adv-x="568" 
d="M300 720v-720h-33v720h-246l1 30h524l1 -30h-247zM267 802l-124 114h41l100 -95l101 95h39l-124 -114h-33z" />
    <glyph glyph-name="tcaron" unicode="&#x165;" horiz-adv-x="382" 
d="M176 560v-433q0 -60 28.5 -85.5t75.5 -25.5q12 0 26.5 2t23.5 7l4 -23q-11 -5 -28 -8t-33 -3q-62 0 -95 31.5t-33 103.5v434h-100v24h100l7 162l24 4v-166h161v-24h-161zM328 767q17 0 25 -8t8 -21q0 -7 -5.5 -20t-13.5 -29.5t-19 -34.5t-21 -34l-10 4l33 92
q-14 0 -22 6.5t-8 17.5t8 19t25 8z" />
    <glyph glyph-name="Tbar" unicode="&#x166;" horiz-adv-x="568" 
d="M300 720v-217h157v-23h-157v-480h-33v480h-156v23h156v217h-246l2 30h523l1 -30h-247z" />
    <glyph glyph-name="tbar" unicode="&#x167;" horiz-adv-x="381" 
d="M175 560v-114h161v-23h-161v-296q0 -60 28.5 -85.5t75.5 -25.5q12 0 26.5 2t23.5 7l4 -23q-11 -5 -28 -8t-33 -3q-62 0 -95 31.5t-33 103.5v297h-99v23h99v114h-100v24h100l7 162l24 4v-166h161v-24h-161z" />
    <glyph glyph-name="Utilde" unicode="&#x168;" horiz-adv-x="746" 
d="M641 272q0 -77 -18.5 -131.5t-53 -88.5t-84.5 -49.5t-112 -15.5q-63 0 -112.5 15.5t-84 49.5t-53 88.5t-18.5 131.5v478h33v-479q0 -133 59 -193.5t176 -60.5q118 0 176.5 61t58.5 193v479h33v-478zM245 814q6 38 22.5 63.5t45.5 25.5q18 0 33.5 -13t29.5 -28.5
t27.5 -28.5t28.5 -13q17 0 29.5 16t19.5 51l17 -1q-5 -38 -22 -64t-46 -26q-18 0 -33.5 13t-29.5 28.5t-27.5 28.5t-28.5 13q-18 0 -29.5 -18.5t-18.5 -47.5z" />
    <glyph glyph-name="utilde" unicode="&#x169;" horiz-adv-x="600" 
d="M507 175q0 -86 -51 -136.5t-156 -50.5t-156 50.5t-51 136.5v409h30v-408q0 -78 44.5 -119.5t132.5 -41.5q87 0 132 41.5t45 119.5v408h30v-409zM170 699q6 45 24.5 71t45.5 26q20 0 36 -13t30.5 -29t28.5 -29t30 -13q34 0 49 73l20 -1q-6 -45 -24.5 -71t-46.5 -26
q-20 0 -35.5 13t-30 29t-28 29t-29.5 13t-29 -20t-21 -53z" />
    <glyph glyph-name="Umacron" unicode="&#x16a;" horiz-adv-x="746" 
d="M641 272q0 -77 -18.5 -131.5t-53 -88.5t-84.5 -49.5t-112 -15.5q-63 0 -112.5 15.5t-84 49.5t-53 88.5t-18.5 131.5v478h33v-479q0 -133 59 -193.5t176 -60.5q118 0 176.5 61t58.5 193v479h33v-478zM499 825h-246v22h246v-22z" />
    <glyph glyph-name="umacron" unicode="&#x16b;" horiz-adv-x="600" 
d="M507 175q0 -86 -51 -136.5t-156 -50.5t-156 50.5t-51 136.5v409h30v-408q0 -78 44.5 -119.5t132.5 -41.5q87 0 132 41.5t45 119.5v408h30v-409zM424 737h-244v23h244v-23z" />
    <glyph glyph-name="Ubreve" unicode="&#x16c;" horiz-adv-x="746" 
d="M641 272q0 -77 -18.5 -131.5t-53 -88.5t-84.5 -49.5t-112 -15.5q-63 0 -112.5 15.5t-84 49.5t-53 88.5t-18.5 131.5v478h33v-479q0 -133 59 -193.5t176 -60.5q118 0 176.5 61t58.5 193v479h33v-478zM508 916q0 -55 -33.5 -86.5t-102.5 -31.5q-67 0 -103.5 29t-36.5 89h27
q0 -51 32.5 -73t80.5 -22q49 0 79.5 22t29.5 73h27z" />
    <glyph glyph-name="ubreve" unicode="&#x16d;" horiz-adv-x="600" 
d="M507 175q0 -86 -51 -136.5t-156 -50.5t-156 50.5t-51 136.5v409h30v-408q0 -78 44.5 -119.5t132.5 -41.5q87 0 132 41.5t45 119.5v408h30v-409zM423 810q0 -67 -30.5 -107.5t-91.5 -40.5q-60 0 -92 38t-32 110h27q0 -62 27.5 -93.5t69.5 -31.5t68.5 31.5t26.5 93.5h27z
" />
    <glyph glyph-name="Uring" unicode="&#x16e;" horiz-adv-x="746" 
d="M641 272q0 -77 -18.5 -131.5t-53 -88.5t-84.5 -49.5t-112 -15.5q-63 0 -112.5 15.5t-84 49.5t-53 88.5t-18.5 131.5v478h33v-479q0 -133 59 -193.5t176 -60.5q118 0 176.5 61t58.5 193v479h33v-478zM308 797q0 26 18 44t48 18q29 0 48 -17t19 -43q0 -27 -19 -44.5
t-48 -17.5t-47.5 16t-18.5 44zM329 798q0 -19 12 -31t33 -12t33 12t12 31t-12 30.5t-33 11.5t-33 -12t-12 -30z" />
    <glyph glyph-name="uring" unicode="&#x16f;" horiz-adv-x="600" 
d="M507 175q0 -86 -51 -136.5t-156 -50.5t-156 50.5t-51 136.5v409h30v-408q0 -78 44.5 -119.5t132.5 -41.5q87 0 132 41.5t45 119.5v408h30v-409zM229 746q0 31 21 50.5t55 19.5q33 0 54.5 -20t21.5 -50q0 -29 -21 -49t-55 -20q-33 0 -54.5 19.5t-21.5 49.5zM251 746
q0 -23 14.5 -37t40.5 -14q24 0 39.5 14t15.5 37t-15.5 37.5t-39.5 14.5q-26 0 -40.5 -14.5t-14.5 -37.5z" />
    <glyph glyph-name="Uhungarumlaut" unicode="&#x170;" horiz-adv-x="746" 
d="M641 272q0 -77 -18.5 -131.5t-53 -88.5t-84.5 -49.5t-112 -15.5q-63 0 -112.5 15.5t-84 49.5t-53 88.5t-18.5 131.5v478h33v-479q0 -133 59 -193.5t176 -60.5q118 0 176.5 61t58.5 193v479h33v-478zM416 916l-106 -115h-26l84 115h48zM544 916l-122 -115h-29l103 115h48z
" />
    <glyph glyph-name="uhungarumlaut" unicode="&#x171;" horiz-adv-x="600" 
d="M507 175q0 -86 -51 -136.5t-156 -50.5t-156 50.5t-51 136.5v409h30v-408q0 -78 44.5 -119.5t132.5 -41.5q87 0 132 41.5t45 119.5v408h30v-409zM344 810l-108 -141h-25l88 141h45zM465 810l-108 -141h-29l92 141h45z" />
    <glyph glyph-name="Uogonek" unicode="&#x172;" horiz-adv-x="746" 
d="M460 -174q-25 0 -41.5 6t-26.5 16t-14 23.5t-4 27.5q0 24 13.5 48.5t39.5 42.5q-29 -3 -54 -3q-63 0 -112.5 15.5t-84 49.5t-53 88.5t-18.5 131.5v478h33v-479q0 -133 59 -193.5t176 -60.5q118 0 176.5 61t58.5 193v479h33v-478q0 -123 -46 -188.5t-128 -85.5
q-34 -17 -50.5 -43t-16.5 -54q0 -23 15 -38.5t50 -15.5q40 0 71 19l3 -18q-36 -22 -79 -22z" />
    <glyph glyph-name="uogonek" unicode="&#x173;" horiz-adv-x="600" 
d="M371 -174q-25 0 -41.5 6t-26.5 16t-14 23.5t-4 27.5q0 24 13 48t39 43q-12 -2 -20 -2h-17q-105 0 -156 50.5t-51 136.5v409h30v-408q0 -78 44.5 -119.5t132.5 -41.5q87 0 132 41.5t45 119.5v408h30v-409q0 -69 -32.5 -115t-98.5 -63q-32 -17 -48.5 -43t-16.5 -53
q0 -23 15 -38.5t50 -15.5q40 0 71 19l3 -18q-36 -22 -79 -22z" />
    <glyph glyph-name="Wcircumflex" unicode="&#x174;" horiz-adv-x="983" 
d="M513 750l170 -642l20 -78h3l17 79l154 641h33l-185 -750h-45l-169 638l-18 79h-3l-19 -79l-169 -638h-44l-186 750h34l155 -642l18 -79h3l19 78l170 643h42zM505 916l126 -114h-41l-101 93l-98 -93h-41l123 114h32z" />
    <glyph glyph-name="wcircumflex" unicode="&#x175;" horiz-adv-x="853" 
d="M447 584l138 -484l21 -78h3l18 79l122 483h31l-152 -584h-42l-135 476l-20 79h-3l-21 -79l-139 -476h-38l-158 584h33l123 -481l19 -78h3l20 78l141 481h36zM436 810l109 -141h-31l-94 124l-92 -124h-30l107 141h31z" />
    <glyph glyph-name="Ycircumflex" unicode="&#x176;" horiz-adv-x="642" 
d="M78 750l205 -373l38 -71h3l37 71l205 373h39l-266 -478v-272h-34v272l-268 478h41zM339 916l126 -114h-41l-101 93l-98 -93h-41l123 114h32z" />
    <glyph glyph-name="ycircumflex" unicode="&#x177;" horiz-adv-x="622" 
d="M193 -125q37 0 64.5 20.5t51.5 76.5l5 14l-263 598h38l209 -488l31 -75h3l26 76l178 487h35l-227 -609q-14 -38 -30.5 -62t-35 -38.5t-39 -20t-42.5 -5.5t-42.5 5.5t-37.5 14.5l6 25q17 -11 35.5 -15t34.5 -4zM336 810l109 -141h-31l-94 124l-92 -124h-30l107 141h31z
" />
    <glyph glyph-name="Ydieresis" unicode="&#x178;" horiz-adv-x="642" 
d="M78 750l205 -373l38 -71h3l37 71l205 373h39l-266 -478v-272h-34v272l-268 478h41zM255 841q0 -27 -25 -27q-12 0 -18.5 6t-6.5 21q0 28 25 28t25 -28zM440 841q0 -27 -25 -27q-12 0 -18.5 6t-6.5 21q0 28 25 28t25 -28z" />
    <glyph glyph-name="Zacute" unicode="&#x179;" horiz-adv-x="616" 
d="M61 0v21l406 633l44 65l-1 2h-435l3 29h471v-25l-403 -629l-44 -64l1 -3h447l-3 -29h-486zM428 916l-120 -113h-30l94 113h56z" />
    <glyph glyph-name="zacute" unicode="&#x17a;" horiz-adv-x="546" 
d="M161 93l-45 -64l1 -3h355l-1 -26h-391v19l310 472l45 65l-1 2h-341l2 26h375v-21zM376 810l-107 -141h-28l87 141h48z" />
    <glyph glyph-name="Zdotaccent" unicode="&#x17b;" horiz-adv-x="616" 
d="M61 0v21l406 633l44 65l-1 2h-435l3 29h471v-25l-403 -629l-44 -64l1 -3h447l-3 -29h-486zM351 845q0 -32 -31 -32q-16 0 -25 7t-9 25q0 32 34 32q31 0 31 -32z" />
    <glyph glyph-name="zdotaccent" unicode="&#x17c;" horiz-adv-x="546" 
d="M161 93l-45 -64l1 -3h355l-1 -26h-391v19l310 472l45 65l-1 2h-341l2 26h375v-21zM316 762q0 -18 -8.5 -25.5t-24.5 -7.5t-24.5 6.5t-8.5 26.5q0 32 33 32t33 -32z" />
    <glyph glyph-name="Zcaron" unicode="&#x17d;" horiz-adv-x="616" 
d="M61 0v21l406 633l44 65l-1 2h-435l3 29h471v-25l-403 -629l-44 -64l1 -3h447l-3 -29h-486zM291 802l-124 114h41l100 -95l101 95h39l-124 -114h-33z" />
    <glyph glyph-name="zcaron" unicode="&#x17e;" horiz-adv-x="546" 
d="M161 93l-45 -64l1 -3h355l-1 -26h-391v19l310 472l45 65l-1 2h-341l2 26h375v-21zM267 669l-109 141h32l92 -122l93 122h31l-108 -141h-31z" />
    <glyph glyph-name="longs" unicode="&#x17f;" horiz-adv-x="277" 
d="M18 584h100q0 65 12.5 107t37.5 66.5t63 34t90 9.5l1 -22q-37 0 -69 -6.5t-55.5 -27t-37 -59.5t-13.5 -103v-485q0 -60 -11 -102t-33.5 -70.5t-57 -45t-82.5 -25.5l-3 21q42 8 72 23t49 40.5t28 64t9 94.5v466h-102z" />
    <glyph glyph-name="uni018F" unicode="&#x18f;" horiz-adv-x="735" 
d="M77 388h544q-2 93 -18.5 158.5t-50.5 107t-85.5 60.5t-123.5 19q-68 0 -122 -13t-87 -32l-8 27q16 9 39.5 17.5t52 15t61 10.5t65.5 4q81 0 140 -22t97 -69.5t56 -121t18 -176.5t-15.5 -176.5t-49.5 -120t-89 -68t-134 -21.5q-80 0 -135 20t-89 63.5t-49.5 113.5
t-16.5 171v33zM367 16q71 0 119.5 20t78 62.5t42.5 108t14 155.5h-510l1 -48q2 -79 16.5 -135.5t44.5 -92.5t78 -53t116 -17z" />
    <glyph glyph-name="florin" unicode="&#x192;" horiz-adv-x="390" 
d="M15 -142l152 702h-64l6 24h63l12 61q13 63 50 96t100 33q19 0 38.5 -4t31.5 -9l-10 -22q-12 6 -29 9.5t-32 3.5q-48 0 -79 -27.5t-40 -79.5l-11 -61h162l-6 -24h-163l-151 -702h-30z" />
    <glyph glyph-name="uni01B5" unicode="&#x1b5;" horiz-adv-x="617" 
d="M61 0v21l233 363h-181l2 21h192l160 249l44 65l-1 2h-435l3 29h471v-25l-205 -320h178l-2 -21h-190l-184 -288l-44 -64l1 -3h447l-3 -29h-486z" />
    <glyph glyph-name="uni01B6" unicode="&#x1b6;" horiz-adv-x="546" 
d="M304 311h131l-3 -22h-142l-129 -196l-45 -64l1 -3h355l-1 -26h-391v19l177 270h-124l2 22h137l118 180l45 65l-1 2h-341l2 26h375v-21z" />
    <glyph glyph-name="Aringacute" unicode="&#x1fa;" horiz-adv-x="686" 
d="M278 805q0 26 18 44t48 18q7 0 11 -1l72 87h56l-102 -95q14 -8 22 -21t8 -30q0 -22 -13 -38t-33 -22l290 -747h-38l-83 218h-383l-83 -218h-37l293 747q-21 5 -33.5 20t-12.5 38zM315 644l-153 -398h362l-152 398l-26 77h-3zM299 806q0 -19 12 -31t33 -12t33 12t12 31
t-12 30.5t-33 11.5t-33 -12t-12 -30z" />
    <glyph glyph-name="aringacute" unicode="&#x1fb;" horiz-adv-x="565" 
d="M446 95l-3 1q-10 -23 -29 -42t-44.5 -33t-56 -22t-63.5 -8q-39 0 -71.5 9.5t-56.5 31t-37 55.5t-13 83q0 85 51 128t161 43q42 0 84.5 -8.5t73.5 -22.5v89q0 49 -10 82t-30.5 53t-51 28t-71.5 8q-45 0 -87.5 -9.5t-80.5 -30.5l-5 27q81 39 177 39q49 0 85 -10.5t59 -34.5
t34 -62.5t11 -93.5v-395h-23zM442 285q-12 9 -53.5 20.5t-101.5 11.5q-97 0 -141 -38.5t-44 -108.5q0 -44 12 -73.5t33 -47.5t49.5 -25.5t61.5 -7.5q36 0 69 12t58.5 31t41 43t15.5 48v135zM432 940l-104 -137q14 -9 22.5 -24t8.5 -33q0 -29 -21 -49t-55 -20
q-33 0 -54.5 19.5t-21.5 49.5q0 31 21 50.5t55 19.5q12 0 23 -3l78 127h48zM229 746q0 -23 14.5 -37t40.5 -14q24 0 39.5 14t15.5 37t-15.5 37.5t-39.5 14.5q-26 0 -40.5 -14.5t-14.5 -37.5z" />
    <glyph glyph-name="AEacute" unicode="&#x1fc;" horiz-adv-x="1045" 
d="M546 721l43 -312h329v-27h-326l49 -353h345l-2 -29h-372l-29 218h-350l-123 -218h-42l432 750h475l3 -29h-432zM477 649l-228 -403h330l-52 394l-9 80l-3 1zM796 916l-120 -113h-30l94 113h56z" />
    <glyph glyph-name="aeacute" unicode="&#x1fd;" horiz-adv-x="940" 
d="M283 594q79 0 122 -29t55 -99h2q26 66 77.5 97t121.5 31q47 0 86.5 -15t68.5 -47.5t45.5 -83.5t16.5 -123v-7q0 -4 -1 -7h-410q1 -83 14.5 -140t41 -91.5t68.5 -49.5t98 -15q47 0 86 12t77 35l4 -26q-38 -23 -79 -35.5t-92 -12.5q-93 0 -149 34.5t-77 111.5h-3
q-17 -66 -70.5 -105.5t-132.5 -39.5q-40 0 -73.5 9.5t-57.5 31t-37 55.5t-13 83q0 85 51 127.5t161 42.5q44 0 85 -9.5t73 -23.5v92q0 49 -10 82t-30.5 53t-51 28t-71.5 8q-45 0 -87.5 -9.5t-80.5 -30.5l-5 27q81 39 177 39zM442 283q-12 9 -53.5 20.5t-101.5 11.5
q-97 0 -141.5 -38.5t-44.5 -108.5q0 -44 12 -73.5t33 -47.5t50 -25.5t62 -7.5q40 0 74 12.5t58.5 34.5t38 52t13.5 65v105zM850 332q-1 64 -15.5 109t-40 73t-59.5 41t-74 13q-97 0 -143.5 -60.5t-50.5 -175.5h383zM574 810l-107 -141h-28l87 141h48z" />
    <glyph glyph-name="Oslashacute" unicode="&#x1fe;" horiz-adv-x="734" 
d="M496 916l-120 -113h-30l94 113h56zM67 8l64 87q-28 47 -40.5 115.5t-12.5 164.5q0 106 15.5 179.5t50 119.5t89.5 67t135 21q83 0 138.5 -22t89.5 -72l76 91l19 -18l-80 -99q24 -46 34.5 -111.5t10.5 -155.5q0 -106 -15 -179.5t-49 -120t-89 -67.5t-135 -21
q-78 0 -132 19.5t-89 64.5l-60 -83zM572 645q-30 48 -80.5 68t-123.5 20q-68 0 -116.5 -17t-79.5 -58t-45.5 -110t-14.5 -173q0 -170 41 -252zM623 375q0 82 -9 141.5t-28 101.5l-418 -522q31 -44 80.5 -62t119.5 -18q68 0 116.5 17.5t79 59t45 110.5t14.5 172z" />
    <glyph glyph-name="oslashacute" unicode="&#x1ff;" horiz-adv-x="604" 
d="M49 23l51 66q-36 72 -36 202q0 82 14.5 139.5t44 93.5t74.5 52.5t107 16.5q58 0 100.5 -14t71.5 -46l41 56l17 -15l-43 -60q25 -37 37 -91.5t12 -131.5q0 -83 -13.5 -140.5t-42 -94t-73.5 -53t-107 -16.5q-67 0 -114 19t-76 61l-49 -60zM509 291q0 132 -38 198l-339 -395
q25 -42 67 -61.5t105 -19.5q55 0 94 15.5t63.5 49t36 86.5t11.5 127zM95 291q0 -56 6.5 -99.5t20.5 -75.5l336 392q-48 60 -154 60q-56 0 -95.5 -15.5t-65 -49.5t-37 -86.5t-11.5 -125.5zM412 810l-107 -141h-28l87 141h48z" />
    <glyph glyph-name="uni0218" unicode="&#x218;" horiz-adv-x="559" 
d="M504 201q0 -101 -58 -157.5t-175 -56.5q-64 0 -115 16t-92 43l8 28q43 -29 91 -43.5t109 -14.5q98 0 149 48.5t51 134.5q0 43 -17 72.5t-45 49.5t-64 34t-73.5 27t-73.5 27.5t-64 36t-45 52.5t-17 77q0 40 13.5 74.5t40.5 59.5t68.5 39t98.5 14q55 0 101.5 -11t84.5 -31
l-9 -26q-42 19 -83.5 29.5t-92.5 10.5q-50 0 -86 -13t-59 -34.5t-34 -50.5t-11 -60q0 -41 17 -68t45 -46t64 -32t73.5 -26t73.5 -28t64 -37.5t45 -55.5t17 -82zM286 -48q17 0 25 -8t8 -21q0 -7 -5.5 -20t-14 -29.5t-19 -34.5t-20.5 -34l-10 4l31 92q-29 0 -29 24q0 11 8 19
t26 8z" />
    <glyph glyph-name="uni0219" unicode="&#x219;" horiz-adv-x="488" 
d="M431 156q0 -76 -45 -122t-141 -46q-52 0 -99 15t-78 44l7 27q32 -29 76.5 -45t92.5 -16q84 0 121.5 40t37.5 101q0 45 -24.5 71.5t-61 44t-79.5 30t-79.5 30.5t-61 46t-24.5 75q0 69 48 106t137 37q83 0 150 -34l-4 -26q-37 17 -73 26t-74 9q-71 0 -112.5 -31.5
t-41.5 -84.5q0 -42 24.5 -66t60.5 -39.5t79 -27.5t79 -31t60.5 -50t24.5 -83zM253 -48q17 0 25 -8t8 -21q0 -7 -5.5 -20t-14 -29.5t-19 -34.5t-20.5 -34l-10 4l31 92q-29 0 -29 24q0 11 8 19t26 8z" />
    <glyph glyph-name="uni021A" unicode="&#x21a;" horiz-adv-x="568" 
d="M300 720v-720h-33v720h-246l1 30h524l1 -30h-247zM283 -48q17 0 25 -8t8 -21q0 -7 -5.5 -20t-14 -29.5t-19 -34.5t-20.5 -34l-10 4l31 92q-29 0 -29 24q0 11 8 19t26 8z" />
    <glyph glyph-name="uni021B" unicode="&#x21b;" horiz-adv-x="381" 
d="M175 560v-433q0 -60 28.5 -85.5t75.5 -25.5q12 0 26.5 2t23.5 7l4 -23q-11 -5 -28 -8t-33 -3q-62 0 -95 31.5t-33 103.5v434h-100v24h100l7 162l24 4v-166h161v-24h-161zM229 -48q17 0 25 -8t8 -21q0 -7 -5.5 -20t-14 -29.5t-19 -34.5t-20.5 -34l-10 4l31 92
q-29 0 -29 24q0 11 8 19t26 8z" />
    <glyph glyph-name="uni0237" unicode="&#x237;" horiz-adv-x="301" 
d="M164 -26q0 -69 -30 -96.5t-80 -27.5q-13 0 -28.5 3t-26.5 8l4 24q23 -10 46 -10q38 0 61 23t23 77v607l31 3v-611z" />
    <glyph glyph-name="uni0259" unicode="&#x259;" horiz-adv-x="569" 
d="M255 594q68 0 115.5 -18.5t77.5 -58t43.5 -101.5t13.5 -150q0 -138 -56.5 -208t-168.5 -70q-47 0 -87 15t-69 47.5t-45.5 83.5t-16.5 123v7q0 4 1 7h411q-1 83 -14 140t-40 91.5t-68.5 49.5t-98.5 15q-48 0 -87 -12t-77 -35l-4 26q38 23 78.5 35.5t91.5 12.5zM91 250
q1 -64 15.5 -109t39.5 -73t59 -41t75 -13q98 0 144 60.5t51 175.5h-384z" />
    <glyph glyph-name="uni02BB" unicode="&#x2bb;" horiz-adv-x="211" 
d="M107 634q-19 0 -26.5 9.5t-7.5 23.5q0 8 5 27t12.5 42t17 47t17.5 42l13 -3l-26 -126q11 -2 18.5 -10t7.5 -19q0 -15 -7 -24t-24 -9z" />
    <glyph glyph-name="uni02BC" unicode="&#x2bc;" horiz-adv-x="211" 
d="M105 804q18 0 26.5 -9t8.5 -24q0 -8 -5.5 -27t-13.5 -42t-17.5 -47t-17.5 -42l-12 2l26 127q-13 1 -20 9.5t-7 19.5q0 15 7.5 24t24.5 9z" />
    <glyph glyph-name="circumflex" unicode="&#x2c6;" 
d="M211 810l109 -141h-31l-94 124l-92 -124h-30l107 141h31z" />
    <glyph glyph-name="caron" unicode="&#x2c7;" 
d="M181 669l-109 141h32l92 -122l93 122h31l-108 -141h-31z" />
    <glyph glyph-name="breve" unicode="&#x2d8;" 
d="M319 810q0 -67 -30.5 -107.5t-91.5 -40.5q-60 0 -92 38t-32 110h27q0 -62 27.5 -93.5t69.5 -31.5t68.5 31.5t26.5 93.5h27z" />
    <glyph glyph-name="dotaccent" unicode="&#x2d9;" 
d="M228 762q0 -18 -8.5 -25.5t-24.5 -7.5t-24.5 6.5t-8.5 26.5q0 32 33 32t33 -32z" />
    <glyph glyph-name="ring" unicode="&#x2da;" 
d="M120 746q0 31 21 50.5t55 19.5q33 0 54.5 -20t21.5 -50q0 -29 -21 -49t-55 -20q-33 0 -54.5 19.5t-21.5 49.5zM142 746q0 -23 14.5 -37t40.5 -14q24 0 39.5 14t15.5 37t-15.5 37.5t-39.5 14.5q-26 0 -40.5 -14.5t-14.5 -37.5z" />
    <glyph glyph-name="ogonek" unicode="&#x2db;" 
d="M231 -174q-25 0 -41.5 6t-26.5 16t-14 23.5t-4 27.5q0 31 21.5 62t62.5 48l14 -9q-36 -17 -54 -43.5t-18 -55.5q0 -23 15 -38.5t50 -15.5q40 0 71 19l3 -18q-36 -22 -79 -22z" />
    <glyph glyph-name="tilde" unicode="&#x2dc;" 
d="M70 699q6 45 24.5 71t45.5 26q20 0 36 -13t30.5 -29t28.5 -29t30 -13q34 0 49 73l20 -1q-6 -45 -24.5 -71t-46.5 -26q-20 0 -35.5 13t-30 29t-28 29t-29.5 13t-29 -20t-21 -53z" />
    <glyph glyph-name="hungarumlaut" unicode="&#x2dd;" 
d="M262 810l-108 -141h-25l88 141h45zM383 810l-108 -141h-29l92 141h45z" />
    <glyph glyph-name="uni0307" unicode="&#x307;" horiz-adv-x="1" 
d="M-118 759q0 -32 -32 -32q-16 0 -25 6.5t-9 25.5q0 15 9 24t25 9q32 0 32 -33z" />
    <glyph glyph-name="uni0394" unicode="&#x394;" horiz-adv-x="767" 
d="M708 0h-649l312 755h25zM352 643l-247 -615h555l-248 615l-28 76h-3z" />
    <glyph glyph-name="uni03A9" unicode="&#x3a9;" horiz-adv-x="738" 
d="M369 762q141 0 211 -82t70 -259q0 -54 -12 -108t-37 -104.5t-63.5 -96.5t-90.5 -83v-3h213v-26h-241v32q91 73 145 173.5t54 214.5q0 161 -59 237.5t-190 76.5t-189.5 -76.5t-58.5 -237.5q0 -114 53.5 -214.5t145.5 -173.5v-32h-242v26h213l1 3q-53 37 -91.5 83
t-63.5 96.5t-37 104.5t-12 108q0 177 70.5 259t210.5 82z" />
    <glyph glyph-name="uni03BC" unicode="&#x3bc;" horiz-adv-x="612" 
d="M319 -12q-27 0 -54.5 5.5t-52.5 17.5t-45.5 32t-32.5 50l-2 -1q2 -63 3 -120.5t4 -112.5l-34 -4v729h30v-403q0 -41 14 -72t38.5 -53t58.5 -33t73 -11q36 0 67 9.5t53.5 28t35.5 45.5t13 62v427h31v-584l-23 -3l-5 77l-3 1q-20 -44 -65.5 -65.5t-103.5 -21.5z" />
    <glyph glyph-name="pi" unicode="&#x3c0;" horiz-adv-x="670" 
d="M469 558h-273v-558h-30v558q-39 -1 -67 -8t-45 -23l-17 21q19 18 52 27t90 9h434v-26h-115v-433q0 -30 4 -49.5t13.5 -31.5t26 -17t40.5 -5v-25q-35 0 -56.5 6t-34.5 21t-17.5 39.5t-4.5 61.5v433z" />
    <glyph glyph-name="Wgrave" unicode="&#x1e80;" horiz-adv-x="983" 
d="M513 750l170 -642l20 -78h3l17 79l154 641h33l-185 -750h-45l-169 638l-18 79h-3l-19 -79l-169 -638h-44l-186 750h34l155 -642l18 -79h3l19 78l170 643h42zM480 805l-112 112h50l91 -112h-29z" />
    <glyph glyph-name="wgrave" unicode="&#x1e81;" horiz-adv-x="853" 
d="M447 584l138 -484l21 -78h3l18 79l122 483h31l-152 -584h-42l-135 476l-20 79h-3l-21 -79l-139 -476h-38l-158 584h33l123 -481l19 -78h3l20 78l141 481h36zM419 669l-96 141h47l77 -141h-28z" />
    <glyph glyph-name="Wacute" unicode="&#x1e82;" horiz-adv-x="983" 
d="M513 750l170 -642l20 -78h3l17 79l154 641h33l-185 -750h-45l-169 638l-18 79h-3l-19 -79l-169 -638h-44l-186 750h34l155 -642l18 -79h3l19 78l170 643h42zM620 916l-120 -113h-30l94 113h56z" />
    <glyph glyph-name="wacute" unicode="&#x1e83;" horiz-adv-x="853" 
d="M447 584l138 -484l21 -78h3l18 79l122 483h31l-152 -584h-42l-135 476l-20 79h-3l-21 -79l-139 -476h-38l-158 584h33l123 -481l19 -78h3l20 78l141 481h36zM546 810l-107 -141h-28l87 141h48z" />
    <glyph glyph-name="Wdieresis" unicode="&#x1e84;" horiz-adv-x="983" 
d="M513 750l170 -642l20 -78h3l17 79l154 641h33l-185 -750h-45l-169 638l-18 79h-3l-19 -79l-169 -638h-44l-186 750h34l155 -642l18 -79h3l19 78l170 643h42zM424 841q0 -27 -25 -27q-12 0 -18.5 6t-6.5 21q0 28 25 28t25 -28zM609 841q0 -27 -25 -27q-12 0 -18.5 6
t-6.5 21q0 28 25 28t25 -28z" />
    <glyph glyph-name="wdieresis" unicode="&#x1e85;" horiz-adv-x="853" 
d="M447 584l138 -484l21 -78h3l18 79l122 483h31l-152 -584h-42l-135 476l-20 79h-3l-21 -79l-139 -476h-38l-158 584h33l123 -481l19 -78h3l20 78l141 481h36zM377 763q0 -28 -25 -28t-25 28t25 28t25 -28zM515 763q0 -28 -24 -28q-26 0 -26 28t26 28q24 0 24 -28z" />
    <glyph glyph-name="uni1E8A" unicode="&#x1e8a;" horiz-adv-x="682" 
d="M364 389l261 -389h-41l-246 368l-239 -368h-42l256 390l-245 360h43l228 -340l224 340h41zM373 845q0 -32 -31 -32q-16 0 -25 7t-9 25q0 32 34 32q31 0 31 -32z" />
    <glyph glyph-name="uni1E8B" unicode="&#x1e8b;" horiz-adv-x="579" 
d="M288 278l-190 -278h-39l209 297l-203 287h39l185 -267l183 267h39l-201 -286l209 -298h-41zM321 762q0 -18 -8.5 -25.5t-24.5 -7.5t-24.5 6.5t-8.5 26.5q0 32 33 32t33 -32z" />
    <glyph glyph-name="uni1E9E" unicode="&#x1e9e;" horiz-adv-x="1105" 
d="M504 201q0 -101 -58 -157.5t-175 -56.5q-64 0 -115 16t-92 43l8 28q43 -29 91 -43.5t109 -14.5q98 0 149 48.5t51 134.5q0 43 -17 72.5t-45 49.5t-64 34t-73.5 27t-73.5 27.5t-64 36t-45 52.5t-17 77q0 40 13.5 74.5t40.5 59.5t68.5 39t98.5 14q55 0 101.5 -11t84.5 -31
l-9 -26q-42 19 -83.5 29.5t-92.5 10.5q-50 0 -86 -13t-59 -34.5t-34 -50.5t-11 -60q0 -41 17 -68t45 -46t64 -32t73.5 -26t73.5 -28t64 -37.5t45 -55.5t17 -82zM1050 201q0 -101 -58 -157.5t-175 -56.5q-64 0 -115 16t-92 43l8 28q43 -29 91 -43.5t109 -14.5q98 0 149 48.5
t51 134.5q0 43 -17 72.5t-45 49.5t-64 34t-73.5 27t-73.5 27.5t-64 36t-45 52.5t-17 77q0 40 13.5 74.5t40.5 59.5t68.5 39t98.5 14q55 0 101.5 -11t84.5 -31l-9 -26q-42 19 -83.5 29.5t-92.5 10.5q-50 0 -86 -13t-59 -34.5t-34 -50.5t-11 -60q0 -41 17 -68t45 -46t64 -32
t73.5 -26t73.5 -28t64 -37.5t45 -55.5t17 -82z" />
    <glyph glyph-name="Ygrave" unicode="&#x1ef2;" horiz-adv-x="642" 
d="M78 750l205 -373l38 -71h3l37 71l205 373h39l-266 -478v-272h-34v272l-268 478h41zM329 805l-112 112h50l91 -112h-29z" />
    <glyph glyph-name="ygrave" unicode="&#x1ef3;" horiz-adv-x="622" 
d="M193 -125q37 0 64.5 20.5t51.5 76.5l5 14l-263 598h38l209 -488l31 -75h3l26 76l178 487h35l-227 -609q-14 -38 -30.5 -62t-35 -38.5t-39 -20t-42.5 -5.5t-42.5 5.5t-37.5 14.5l6 25q17 -11 35.5 -15t34.5 -4zM313 669l-96 141h47l77 -141h-28z" />
    <glyph glyph-name="uni2007" unicode="&#x2007;" horiz-adv-x="658" 
 />
    <glyph glyph-name="uni2008" unicode="&#x2008;" horiz-adv-x="234" 
 />
    <glyph glyph-name="space.frac" unicode="&#x2009;" horiz-adv-x="67" 
 />
    <glyph glyph-name="uni200B" unicode="&#x200b;" horiz-adv-x="0" 
 />
    <glyph glyph-name="endash" unicode="&#x2013;" horiz-adv-x="549" 
d="M460 351v-23h-371v23h371z" />
    <glyph glyph-name="emdash" unicode="&#x2014;" horiz-adv-x="719" 
d="M630 351v-23h-541v23h541z" />
    <glyph glyph-name="quoteleft" unicode="&#x2018;" horiz-adv-x="211" 
d="M107 634q-19 0 -26.5 9.5t-7.5 23.5q0 8 5 27t12.5 42t17 47t17.5 42l13 -3l-26 -126q11 -2 18.5 -10t7.5 -19q0 -15 -7 -24t-24 -9z" />
    <glyph glyph-name="quoteright" unicode="&#x2019;" horiz-adv-x="211" 
d="M105 804q18 0 26.5 -9t8.5 -24q0 -8 -5.5 -27t-13.5 -42t-17.5 -47t-17.5 -42l-12 2l26 127q-13 1 -20 9.5t-7 19.5q0 15 7.5 24t24.5 9z" />
    <glyph glyph-name="quotesinglbase" unicode="&#x201a;" horiz-adv-x="211" 
d="M105 53q18 0 26.5 -9t8.5 -24q0 -8 -5.5 -27t-13.5 -42t-17.5 -47t-17.5 -42l-12 2l26 127q-13 1 -20 9.5t-7 19.5q0 15 7.5 24t24.5 9z" />
    <glyph glyph-name="quotedblleft" unicode="&#x201c;" horiz-adv-x="359" 
d="M107 634q-19 0 -26.5 9.5t-7.5 23.5q0 8 5 27t12.5 42t17 47t17.5 42l13 -3l-26 -126q11 -2 18.5 -10t7.5 -19q0 -15 -7 -24t-24 -9zM254 634q-18 0 -26 9.5t-8 23.5q0 8 5.5 27t13.5 42t17.5 47t17.5 42l11 -3l-26 -126q13 -1 20.5 -9.5t7.5 -19.5q0 -15 -8 -24t-25 -9z
" />
    <glyph glyph-name="quotedblright" unicode="&#x201d;" horiz-adv-x="359" 
d="M105 804q18 0 26.5 -9t8.5 -24q0 -8 -5.5 -27t-13.5 -42t-17.5 -47t-17.5 -42l-12 2l26 127q-13 1 -20 9.5t-7 19.5q0 15 7.5 24t24.5 9zM252 804q18 0 26.5 -9t8.5 -24q0 -8 -5.5 -27t-13.5 -42t-17.5 -47t-17.5 -42l-12 2l26 127q-13 1 -20 9.5t-7 19.5q0 15 7.5 24
t24.5 9z" />
    <glyph glyph-name="quotedblbase" unicode="&#x201e;" horiz-adv-x="359" 
d="M252 53q18 0 26.5 -9t8.5 -24q0 -8 -5.5 -27t-13.5 -42t-17.5 -47t-17.5 -42l-12 2l26 127q-13 1 -20 9.5t-7 19.5q0 15 7.5 24t24.5 9zM105 53q18 0 26.5 -9t8.5 -24q0 -8 -5.5 -27t-13.5 -42t-17.5 -47t-17.5 -42l-12 2l26 127q-13 1 -20 9.5t-7 19.5q0 15 7.5 24
t24.5 9z" />
    <glyph glyph-name="dagger" unicode="&#x2020;" horiz-adv-x="510" 
d="M239 583l-2 219h29l-2 -219l186 3v-28l-186 2l2 -702h-29l2 702l-179 -2v28z" />
    <glyph glyph-name="daggerdbl" unicode="&#x2021;" horiz-adv-x="510" 
d="M450 74l-186 2l2 -219h-29l2 219l-179 -2v26l179 -1v461l-179 -2v28l179 -3l-2 219h29l-2 -219l186 3v-28l-186 2v-461l186 2v-27z" />
    <glyph glyph-name="bullet" unicode="&#x2022;" horiz-adv-x="399" 
d="M86 323q0 109 111 109q109 0 109 -109q0 -112 -109 -112q-111 0 -111 112z" />
    <glyph glyph-name="ellipsis" unicode="&#x2026;" horiz-adv-x="565" 
d="M481 22q0 -32 -33 -32t-33 32t33 32t33 -32zM321 22q0 -32 -33 -32t-33 32t33 32t33 -32zM150 22q0 -32 -33 -32t-33 32t33 32t33 -32z" />
    <glyph glyph-name="perthousand" unicode="&#x2030;" horiz-adv-x="981" 
d="M325 592q0 -95 -32.5 -134.5t-96.5 -39.5q-68 0 -99.5 39.5t-31.5 134.5q0 93 30 134t101 41q64 0 96.5 -38.5t32.5 -136.5zM300 593q0 45 -6.5 74.5t-19.5 47t-32.5 24.5t-45.5 7q-27 0 -47 -7t-33.5 -24.5t-20 -47t-6.5 -74.5t6.5 -74.5t20 -47t33.5 -24.5t47 -7
q26 0 45.5 7t32.5 24.5t19.5 47t6.5 74.5zM532 746l-370 -747l-26 10l370 747zM616 168q0 -95 -32 -134.5t-96 -39.5q-68 0 -99.5 39.5t-31.5 134.5q0 93 29.5 134.5t101.5 41.5q64 0 96 -39t32 -137zM592 168q0 45 -6.5 74.5t-19.5 47t-32.5 24.5t-45.5 7q-27 0 -46.5 -7
t-33 -24.5t-20 -47t-6.5 -74.5t6.5 -74t20 -46.5t33 -24.5t46.5 -7q26 0 45.5 7t32.5 24.5t19.5 47t6.5 73.5zM916 168q0 -95 -32 -134.5t-98 -39.5q-67 0 -98.5 39.5t-31.5 134.5q0 93 29.5 134.5t100.5 41.5q64 0 97 -39t33 -137zM892 168q0 45 -6.5 74.5t-19.5 47
t-33 24.5t-47 7q-26 0 -46 -7t-33 -24.5t-19.5 -47t-6.5 -74.5t6.5 -74t19.5 -46.5t33 -24.5t46 -7q27 0 47 7t33 24.5t19.5 47t6.5 73.5z" />
    <glyph glyph-name="guilsinglleft" unicode="&#x2039;" horiz-adv-x="416" 
d="M99 332l229 -141v-28l-267 167v6l267 167v-29z" />
    <glyph glyph-name="guilsinglright" unicode="&#x203a;" horiz-adv-x="416" 
d="M88 191l230 141l-230 142v29l268 -167v-6l-268 -167v28z" />
    <glyph glyph-name="fraction" unicode="&#x2044;" horiz-adv-x="268" 
d="M417 750l-510 -750h-30l511 750h29z" />
    <glyph glyph-name="uni2070" unicode="&#x2070;" horiz-adv-x="352" 
d="M313 706q0 -108 -33 -156t-103 -48q-71 0 -104.5 47.5t-33.5 156.5t33.5 155.5t104.5 46.5q70 0 103 -46.5t33 -155.5zM285 706q0 52 -7 86.5t-20.5 54.5t-34 28.5t-46.5 8.5q-27 0 -48 -8.5t-35 -28.5t-21 -54.5t-7 -86.5q0 -53 7 -87.5t21 -54.5t35 -28.5t48 -8.5
q26 0 46.5 8.5t34 29t20.5 55t7 86.5z" />
    <glyph glyph-name="uni2074" unicode="&#x2074;" horiz-adv-x="352" 
d="M276 602v-94h-26v94h-207l-3 18l200 282h36v-277h54l-2 -23h-52zM251 796l3 81l-2 1l-47 -67l-86 -121l-47 -62l1 -3h177z" />
    <glyph glyph-name="uni2075" unicode="&#x2075;" horiz-adv-x="352" 
d="M308 641q0 -138 -131 -138q-36 0 -63 8.5t-49 23.5l8 23q23 -15 46.5 -23.5t55.5 -8.5q61 0 84 27.5t23 86.5q0 47 -23 70.5t-80 23.5q-29 0 -54.5 -7t-42.5 -17l-17 6l17 186h208l1 -23h-189l-5 -64l-8 -80l2 -2q20 11 45 17t48 6q124 0 124 -115z" />
    <glyph glyph-name="uni2076" unicode="&#x2076;" horiz-adv-x="352" 
d="M310 641q0 -68 -32 -103t-98 -35q-33 0 -58 9.5t-42 31.5t-25.5 58t-8.5 88q0 114 41 165.5t118 51.5q23 0 43.5 -4.5t41.5 -12.5l-4 -24q-20 8 -37.5 12.5t-43.5 4.5q-66 0 -98 -43t-35 -129l3 -2q21 23 51.5 35t62.5 12q63 0 92 -27.5t29 -87.5zM281 641q0 47 -22 69
t-72 22q-14 0 -29.5 -3.5t-31 -9.5t-29 -15t-22.5 -20q2 -85 27.5 -121t78.5 -36q49 0 74.5 27t25.5 87z" />
    <glyph glyph-name="uni2077" unicode="&#x2077;" horiz-adv-x="352" 
d="M312 877l-174 -369h-35l177 368h-233l1 26h264v-25z" />
    <glyph glyph-name="uni2078" unicode="&#x2078;" horiz-adv-x="352" 
d="M42 612q0 39 23.5 65t61.5 40v3q-30 11 -50 31t-20 59q0 45 28 71t92 26q61 0 89 -24t28 -73q0 -66 -71 -95v-2q35 -11 61 -33t26 -67q0 -110 -133 -110q-71 0 -103 27t-32 82zM280 611q0 24 -11 39.5t-29 25.5t-40.5 17t-44.5 14q-34 -15 -59 -37t-25 -58
q0 -42 24.5 -63.5t81.5 -21.5q46 0 74.5 20.5t28.5 63.5zM85 809q0 -20 8 -33t22 -22t31.5 -15.5t37.5 -12.5l10 -3q36 16 54.5 36t18.5 49q0 37 -22.5 57t-67.5 20t-68.5 -20.5t-23.5 -55.5z" />
    <glyph glyph-name="uni2079" unicode="&#x2079;" horiz-adv-x="352" 
d="M303 726q0 -119 -37 -171t-110 -52q-27 0 -46.5 5t-38.5 13l5 24q20 -9 37.5 -13.5t41.5 -4.5q31 0 53.5 10.5t37.5 33t23 58.5t10 88l-2 1q-19 -21 -46 -32t-59 -11q-69 0 -98 32t-29 85q0 51 30.5 83.5t92.5 32.5q69 0 102 -45t33 -137zM275 740q-1 80 -28.5 112.5
t-78.5 32.5q-46 0 -71 -24t-25 -69q0 -44 23.5 -68.5t77.5 -24.5q28 0 57 10.5t45 30.5z" />
    <glyph glyph-name="uni207A" unicode="&#x207a;" horiz-adv-x="354" 
d="M188 698v-120h-24v120h-117v23h117v122h24v-122h119v-23h-119z" />
    <glyph glyph-name="uni207B" unicode="&#x207b;" horiz-adv-x="354" 
d="M53 700v23h255v-23h-255z" />
    <glyph glyph-name="uni207C" unicode="&#x207c;" horiz-adv-x="354" 
d="M45 751v22h264v-22h-264zM45 651v23h264v-23h-264z" />
    <glyph glyph-name="uni207D" unicode="&#x207d;" horiz-adv-x="198" 
d="M176 934q-35 -52 -57 -111.5t-22 -132.5q0 -74 22.5 -133t56.5 -110h-26q-37 45 -59 107.5t-22 135.5q0 78 21.5 136t59.5 109z" />
    <glyph glyph-name="uni207E" unicode="&#x207e;" horiz-adv-x="198" 
d="M49 935q39 -51 60 -109t21 -136q0 -73 -22 -135.5t-59 -107.5h-27q33 51 56.5 110t23.5 133q0 73 -22.5 132.5t-57.5 111.5z" />
    <glyph glyph-name="uni2080" unicode="&#x2080;" horiz-adv-x="352" 
d="M313 60q0 -108 -33 -156t-103 -48q-71 0 -104.5 47.5t-33.5 156.5t33.5 155.5t104.5 46.5q70 0 103 -46.5t33 -155.5zM285 60q0 52 -7 86.5t-20.5 54.5t-34 28.5t-46.5 8.5q-27 0 -48 -8.5t-35 -28.5t-21 -54.5t-7 -86.5q0 -53 7 -87.5t21 -54.5t35 -28.5t48 -8.5
q26 0 46.5 8.5t34 29t20.5 55t7 86.5z" />
    <glyph glyph-name="uni2081" unicode="&#x2081;" horiz-adv-x="258" 
d="M180 -138h-29v274l3 79l-3 1l-94 -67l-3 28l105 82h21v-397z" />
    <glyph glyph-name="uni2082" unicode="&#x2082;" horiz-adv-x="331" 
d="M293 159q0 -34 -15.5 -66t-42.5 -65t-64.5 -66.5t-81.5 -70.5v-3h209l-1 -26h-250v21q39 37 77.5 72.5t69 70t49 67t18.5 64.5q0 33 -21 56t-76 23q-31 0 -57.5 -12t-47.5 -29l-10 23q23 17 53 30t67 13q60 0 92 -27t32 -75z" />
    <glyph glyph-name="uni2083" unicode="&#x2083;" horiz-adv-x="331" 
d="M306 -20q0 -55 -33.5 -89t-104.5 -34q-39 0 -65 7.5t-54 24.5l10 23q22 -15 48.5 -23t60.5 -8q57 0 83.5 27.5t26.5 69.5q0 47 -31 65.5t-105 18.5v24q68 0 97 20.5t29 58.5q0 37 -27.5 54t-69.5 17q-34 0 -59.5 -10t-47.5 -28l-10 20q19 17 49.5 30t68.5 13
q57 0 90.5 -23t33.5 -71q0 -42 -23 -62.5t-58 -28.5v-2q45 -7 68 -28.5t23 -65.5z" />
    <glyph glyph-name="uni2084" unicode="&#x2084;" horiz-adv-x="352" 
d="M276 -44v-94h-26v94h-207l-3 18l200 282h36v-277h54l-2 -23h-52zM251 150l3 81l-2 1l-47 -67l-86 -121l-47 -62l1 -3h177z" />
    <glyph glyph-name="uni2085" unicode="&#x2085;" horiz-adv-x="352" 
d="M308 -5q0 -138 -131 -138q-36 0 -63 8.5t-49 23.5l8 23q23 -15 46.5 -23.5t55.5 -8.5q61 0 84 27.5t23 86.5q0 47 -23 70.5t-80 23.5q-29 0 -54.5 -7t-42.5 -17l-17 6l17 186h208l1 -23h-189l-5 -64l-8 -80l2 -2q20 11 45 17t48 6q124 0 124 -115z" />
    <glyph glyph-name="uni2086" unicode="&#x2086;" horiz-adv-x="352" 
d="M310 -5q0 -68 -32 -103t-98 -35q-33 0 -58 9.5t-42 31.5t-25.5 58t-8.5 88q0 114 41 165.5t118 51.5q23 0 43.5 -4.5t41.5 -12.5l-4 -24q-20 8 -37.5 12.5t-43.5 4.5q-66 0 -98 -43t-35 -129l3 -2q21 23 51.5 35t62.5 12q63 0 92 -27.5t29 -87.5zM281 -5q0 47 -22 69
t-72 22q-14 0 -29.5 -3.5t-31 -9.5t-29 -15t-22.5 -20q2 -85 27.5 -121t78.5 -36q49 0 74.5 27t25.5 87z" />
    <glyph glyph-name="uni2087" unicode="&#x2087;" horiz-adv-x="352" 
d="M312 231l-174 -369h-35l177 368h-233l1 26h264v-25z" />
    <glyph glyph-name="uni2088" unicode="&#x2088;" horiz-adv-x="352" 
d="M42 -34q0 39 23.5 65t61.5 40v3q-30 11 -50 31t-20 59q0 45 28 71t92 26q61 0 89 -24t28 -73q0 -66 -71 -95v-2q35 -11 61 -33t26 -67q0 -110 -133 -110q-71 0 -103 27t-32 82zM280 -35q0 24 -11 39.5t-29 25.5t-40.5 17t-44.5 14q-34 -15 -59 -37t-25 -58
q0 -42 24.5 -63.5t81.5 -21.5q46 0 74.5 20.5t28.5 63.5zM85 163q0 -20 8 -33t22 -22t31.5 -15.5t37.5 -12.5l10 -3q36 16 54.5 36t18.5 49q0 37 -22.5 57t-67.5 20t-68.5 -20.5t-23.5 -55.5z" />
    <glyph glyph-name="uni2089" unicode="&#x2089;" horiz-adv-x="352" 
d="M303 80q0 -119 -37 -171t-110 -52q-27 0 -46.5 5t-38.5 13l5 24q20 -9 37.5 -13.5t41.5 -4.5q31 0 53.5 10.5t37.5 33t23 58.5t10 88l-2 1q-19 -21 -46 -32t-59 -11q-69 0 -98 32t-29 85q0 51 30.5 83.5t92.5 32.5q69 0 102 -45t33 -137zM275 94q-1 80 -28.5 112.5
t-78.5 32.5q-46 0 -71 -24t-25 -69q0 -44 23.5 -68.5t77.5 -24.5q28 0 57 10.5t45 30.5z" />
    <glyph glyph-name="uni208A" unicode="&#x208a;" horiz-adv-x="354" 
d="M188 52v-120h-24v120h-117v23h117v122h24v-122h119v-23h-119z" />
    <glyph glyph-name="uni208B" unicode="&#x208b;" horiz-adv-x="354" 
d="M53 54v23h255v-23h-255z" />
    <glyph glyph-name="uni208C" unicode="&#x208c;" horiz-adv-x="354" 
d="M45 105v22h264v-22h-264zM45 5v23h264v-23h-264z" />
    <glyph glyph-name="uni208D" unicode="&#x208d;" horiz-adv-x="198" 
d="M176 288q-35 -52 -57 -111.5t-22 -132.5q0 -74 22.5 -133t56.5 -110h-26q-37 45 -59 107.5t-22 135.5q0 78 21.5 136t59.5 109z" />
    <glyph glyph-name="uni208E" unicode="&#x208e;" horiz-adv-x="198" 
d="M49 289q39 -51 60 -109t21 -136q0 -73 -22 -135.5t-59 -107.5h-27q33 51 56.5 110t23.5 133q0 73 -22.5 132.5t-57.5 111.5z" />
    <glyph glyph-name="franc" unicode="&#x20a3;" horiz-adv-x="658" 
d="M132 157v593h435l1 -30h-403v-313h322v-28h-322v-222h106v-25h-106v-132h-33v132h-103v25h103z" />
    <glyph glyph-name="lira" unicode="&#x20a4;" horiz-adv-x="658" 
d="M99 441h42q-7 26 -11.5 53.5t-4.5 59.5q0 42 12.5 79t41 65t75 44t114.5 16q54 0 103.5 -12.5t86.5 -33.5l-7 -26q-32 19 -81 32t-101 13q-57 0 -97.5 -13.5t-66 -37t-37 -55.5t-11.5 -69q0 -30 4.5 -58t11.5 -57h315v-28h-308q5 -19 8.5 -38.5t7.5 -40.5h292v-28h-287
q2 -20 4 -40.5t2 -43.5q0 -71 -22 -120t-60 -77l1 -2q28 4 54 6.5t54.5 4t60 2t70.5 0.5q60 0 120.5 -4t117.5 -9l-4 -28q-34 3 -64.5 5.5t-60 5t-59 3.5t-61.5 1q-36 0 -70 -1t-67.5 -3t-69 -4.5t-74.5 -6.5l-1 25q53 24 78.5 78.5t25.5 122.5q0 46 -6 85h-69l-1 28h66
q-4 22 -8.5 41t-9.5 38h-48z" />
    <glyph glyph-name="peseta" unicode="&#x20a7;" horiz-adv-x="658" 
d="M537 526q-4 -104 -55.5 -151t-160.5 -47h-180v-328h-30v526h-78v26h78v198h210q109 0 161.5 -45t54.5 -153h73l-1 -26h-72zM141 552h366q-2 94 -48 133t-138 39h-180v-172zM321 354q44 0 78 8.5t57 28.5t35.5 53t14.5 82h-365v-172h180z" />
    <glyph glyph-name="Euro" unicode="&#x20ac;" horiz-adv-x="658" 
d="M485 312h-318q12 -155 78.5 -224t191.5 -69q54 0 107 17t98 47l5 -27q-40 -29 -96.5 -46.5t-115.5 -17.5q-75 0 -128.5 19.5t-89.5 59t-55 99.5t-25 142h-95v26h94q-1 13 -1 25v57h-93v27h95q23 311 302 311q52 0 103 -11t83 -31l-9 -24q-22 10 -42 17.5t-41 12t-43.5 7
t-49.5 2.5q-125 0 -193 -73t-80 -211h367l-8 -27h-361v-58q0 -12 1 -24h327z" />
    <glyph glyph-name="trademark" unicode="&#x2122;" horiz-adv-x="632" 
d="M550 518v157l2 81l-3 1l-32 -75l-73 -164h-17l-75 165l-32 75l-2 -1l1 -81v-158h-20v262h30l73 -165l32 -74h3l31 74l74 165h26v-262h-18zM158 762v-244h-20v244h-92v18h204v-18h-92z" />
    <glyph glyph-name="Omega" unicode="&#x2126;" horiz-adv-x="738" 
d="M369 762q141 0 211 -82t70 -259q0 -54 -12 -108t-37 -104.5t-63.5 -96.5t-90.5 -83v-3h213v-26h-241v32q91 73 145 173.5t54 214.5q0 161 -59 237.5t-190 76.5t-189.5 -76.5t-58.5 -237.5q0 -114 53.5 -214.5t145.5 -173.5v-32h-242v26h213l1 3q-53 37 -91.5 83
t-63.5 96.5t-37 104.5t-12 108q0 177 70.5 259t210.5 82z" />
    <glyph glyph-name="uni2150" unicode="&#x2150;" horiz-adv-x="878" 
d="M180 356h-29v274l3 79l-3 1l-94 -67l-3 28l105 82h21v-397zM675 750l-510 -750h-30l511 750h29zM838 369l-174 -369h-35l177 368h-233l1 26h264v-25z" />
    <glyph glyph-name="uni2151" unicode="&#x2151;" horiz-adv-x="878" 
d="M180 356h-29v274l3 79l-3 1l-94 -67l-3 28l105 82h21v-397zM675 750l-510 -750h-30l511 750h29zM829 218q0 -119 -37 -171t-110 -52q-27 0 -46.5 5t-38.5 13l5 24q20 -9 37.5 -13.5t41.5 -4.5q31 0 53.5 10.5t37.5 33t23 58.5t10 88l-2 1q-19 -21 -46 -32t-59 -11
q-69 0 -98 32t-29 85q0 51 30.5 83.5t92.5 32.5q69 0 102 -45t33 -137zM801 232q-1 80 -28.5 112.5t-78.5 32.5q-46 0 -71 -24t-25 -69q0 -44 23.5 -68.5t77.5 -24.5q28 0 57 10.5t45 30.5z" />
    <glyph glyph-name="uni2152" unicode="&#x2152;" horiz-adv-x="1136" 
d="M180 356h-29v274l3 79l-3 1l-94 -67l-3 28l105 82h21v-397zM675 750l-510 -750h-30l511 750h29zM706 0h-29v274l3 79l-3 1l-94 -67l-3 28l105 82h21v-397zM1097 198q0 -108 -33 -156t-103 -48q-71 0 -104.5 47.5t-33.5 156.5t33.5 155.5t104.5 46.5q70 0 103 -46.5
t33 -155.5zM1069 198q0 52 -7 86.5t-20.5 54.5t-34 28.5t-46.5 8.5q-27 0 -48 -8.5t-35 -28.5t-21 -54.5t-7 -86.5q0 -53 7 -87.5t21 -54.5t35 -28.5t48 -8.5q26 0 46.5 8.5t34 29t20.5 55t7 86.5z" />
    <glyph glyph-name="onethird" unicode="&#x2153;" horiz-adv-x="857" 
d="M180 356h-29v274l3 79l-3 1l-94 -67l-3 28l105 82h21v-397zM675 750l-510 -750h-30l511 750h29zM832 118q0 -55 -33.5 -89t-104.5 -34q-39 0 -65 7.5t-54 24.5l10 23q22 -15 48.5 -23t60.5 -8q57 0 83.5 27.5t26.5 69.5q0 47 -31 65.5t-105 18.5v24q68 0 97 20.5t29 58.5
q0 37 -27.5 54t-69.5 17q-34 0 -59.5 -10t-47.5 -28l-10 20q19 17 49.5 30t68.5 13q57 0 90.5 -23t33.5 -71q0 -42 -23 -62.5t-58 -28.5v-2q45 -7 68 -28.5t23 -65.5z" />
    <glyph glyph-name="twothirds" unicode="&#x2154;" horiz-adv-x="930" 
d="M293 653q0 -34 -15.5 -66t-42.5 -65t-64.5 -66.5t-81.5 -70.5v-3h209l-1 -26h-250v21q39 37 77.5 72.5t69 70t49 67t18.5 64.5q0 33 -21 56t-76 23q-31 0 -57.5 -12t-47.5 -29l-10 23q23 17 53 30t67 13q60 0 92 -27t32 -75zM748 750l-510 -750h-30l511 750h29zM905 118
q0 -55 -33.5 -89t-104.5 -34q-39 0 -65 7.5t-54 24.5l10 23q22 -15 48.5 -23t60.5 -8q57 0 83.5 27.5t26.5 69.5q0 47 -31 65.5t-105 18.5v24q68 0 97 20.5t29 58.5q0 37 -27.5 54t-69.5 17q-34 0 -59.5 -10t-47.5 -28l-10 20q19 17 49.5 30t68.5 13q57 0 90.5 -23t33.5 -71
q0 -42 -23 -62.5t-58 -28.5v-2q45 -7 68 -28.5t23 -65.5z" />
    <glyph glyph-name="uni2155" unicode="&#x2155;" horiz-adv-x="878" 
d="M180 356h-29v274l3 79l-3 1l-94 -67l-3 28l105 82h21v-397zM675 750l-510 -750h-30l511 750h29zM834 133q0 -138 -131 -138q-36 0 -63 8.5t-49 23.5l8 23q23 -15 46.5 -23.5t55.5 -8.5q61 0 84 27.5t23 86.5q0 47 -23 70.5t-80 23.5q-29 0 -54.5 -7t-42.5 -17l-17 6
l17 186h208l1 -23h-189l-5 -64l-8 -80l2 -2q20 11 45 17t48 6q124 0 124 -115z" />
    <glyph glyph-name="uni2156" unicode="&#x2156;" horiz-adv-x="951" 
d="M293 653q0 -34 -15.5 -66t-42.5 -65t-64.5 -66.5t-81.5 -70.5v-3h209l-1 -26h-250v21q39 37 77.5 72.5t69 70t49 67t18.5 64.5q0 33 -21 56t-76 23q-31 0 -57.5 -12t-47.5 -29l-10 23q23 17 53 30t67 13q60 0 92 -27t32 -75zM748 750l-510 -750h-30l511 750h29zM907 133
q0 -138 -131 -138q-36 0 -63 8.5t-49 23.5l8 23q23 -15 46.5 -23.5t55.5 -8.5q61 0 84 27.5t23 86.5q0 47 -23 70.5t-80 23.5q-29 0 -54.5 -7t-42.5 -17l-17 6l17 186h208l1 -23h-189l-5 -64l-8 -80l2 -2q20 11 45 17t48 6q124 0 124 -115z" />
    <glyph glyph-name="uni2157" unicode="&#x2157;" horiz-adv-x="951" 
d="M306 474q0 -55 -33.5 -89t-104.5 -34q-39 0 -65 7.5t-54 24.5l10 23q22 -15 48.5 -23t60.5 -8q57 0 83.5 27.5t26.5 69.5q0 47 -31 65.5t-105 18.5v24q68 0 97 20.5t29 58.5q0 37 -27.5 54t-69.5 17q-34 0 -59.5 -10t-47.5 -28l-10 20q19 17 49.5 30t68.5 13
q57 0 90.5 -23t33.5 -71q0 -42 -23 -62.5t-58 -28.5v-2q45 -7 68 -28.5t23 -65.5zM748 750l-510 -750h-30l511 750h29zM907 133q0 -138 -131 -138q-36 0 -63 8.5t-49 23.5l8 23q23 -15 46.5 -23.5t55.5 -8.5q61 0 84 27.5t23 86.5q0 47 -23 70.5t-80 23.5q-29 0 -54.5 -7
t-42.5 -17l-17 6l17 186h208l1 -23h-189l-5 -64l-8 -80l2 -2q20 11 45 17t48 6q124 0 124 -115z" />
    <glyph glyph-name="uni2158" unicode="&#x2158;" horiz-adv-x="972" 
d="M276 450v-94h-26v94h-207l-3 18l200 282h36v-277h54l-2 -23h-52zM251 644l3 81l-2 1l-47 -67l-86 -121l-47 -62l1 -3h177zM769 750l-510 -750h-30l511 750h29zM928 133q0 -138 -131 -138q-36 0 -63 8.5t-49 23.5l8 23q23 -15 46.5 -23.5t55.5 -8.5q61 0 84 27.5t23 86.5
q0 47 -23 70.5t-80 23.5q-29 0 -54.5 -7t-42.5 -17l-17 6l17 186h208l1 -23h-189l-5 -64l-8 -80l2 -2q20 11 45 17t48 6q124 0 124 -115z" />
    <glyph glyph-name="uni2159" unicode="&#x2159;" horiz-adv-x="878" 
d="M180 356h-29v274l3 79l-3 1l-94 -67l-3 28l105 82h21v-397zM675 750l-510 -750h-30l511 750h29zM836 133q0 -68 -32 -103t-98 -35q-33 0 -58 9.5t-42 31.5t-25.5 58t-8.5 88q0 114 41 165.5t118 51.5q23 0 43.5 -4.5t41.5 -12.5l-4 -24q-20 8 -37.5 12.5t-43.5 4.5
q-66 0 -98 -43t-35 -129l3 -2q21 23 51.5 35t62.5 12q63 0 92 -27.5t29 -87.5zM807 133q0 47 -22 69t-72 22q-14 0 -29.5 -3.5t-31 -9.5t-29 -15t-22.5 -20q2 -85 27.5 -121t78.5 -36q49 0 74.5 27t25.5 87z" />
    <glyph glyph-name="uni215A" unicode="&#x215a;" horiz-adv-x="972" 
d="M308 489q0 -138 -131 -138q-36 0 -63 8.5t-49 23.5l8 23q23 -15 46.5 -23.5t55.5 -8.5q61 0 84 27.5t23 86.5q0 47 -23 70.5t-80 23.5q-29 0 -54.5 -7t-42.5 -17l-17 6l17 186h208l1 -23h-189l-5 -64l-8 -80l2 -2q20 11 45 17t48 6q124 0 124 -115zM769 750l-510 -750
h-30l511 750h29zM930 133q0 -68 -32 -103t-98 -35q-33 0 -58 9.5t-42 31.5t-25.5 58t-8.5 88q0 114 41 165.5t118 51.5q23 0 43.5 -4.5t41.5 -12.5l-4 -24q-20 8 -37.5 12.5t-43.5 4.5q-66 0 -98 -43t-35 -129l3 -2q21 23 51.5 35t62.5 12q63 0 92 -27.5t29 -87.5zM901 133
q0 47 -22 69t-72 22q-14 0 -29.5 -3.5t-31 -9.5t-29 -15t-22.5 -20q2 -85 27.5 -121t78.5 -36q49 0 74.5 27t25.5 87z" />
    <glyph glyph-name="oneeighth" unicode="&#x215b;" horiz-adv-x="878" 
d="M180 356h-29v274l3 79l-3 1l-94 -67l-3 28l105 82h21v-397zM675 750l-510 -750h-30l511 750h29zM568 104q0 39 23.5 65t61.5 40v3q-30 11 -50 31t-20 59q0 45 28 71t92 26q61 0 89 -24t28 -73q0 -66 -71 -95v-2q35 -11 61 -33t26 -67q0 -110 -133 -110q-71 0 -103 27
t-32 82zM806 103q0 24 -11 39.5t-29 25.5t-40.5 17t-44.5 14q-34 -15 -59 -37t-25 -58q0 -42 24.5 -63.5t81.5 -21.5q46 0 74.5 20.5t28.5 63.5zM611 301q0 -20 8 -33t22 -22t31.5 -15.5t37.5 -12.5l10 -3q36 16 54.5 36t18.5 49q0 37 -22.5 57t-67.5 20t-68.5 -20.5
t-23.5 -55.5z" />
    <glyph glyph-name="threeeighths" unicode="&#x215c;" horiz-adv-x="951" 
d="M306 474q0 -55 -33.5 -89t-104.5 -34q-39 0 -65 7.5t-54 24.5l10 23q22 -15 48.5 -23t60.5 -8q57 0 83.5 27.5t26.5 69.5q0 47 -31 65.5t-105 18.5v24q68 0 97 20.5t29 58.5q0 37 -27.5 54t-69.5 17q-34 0 -59.5 -10t-47.5 -28l-10 20q19 17 49.5 30t68.5 13
q57 0 90.5 -23t33.5 -71q0 -42 -23 -62.5t-58 -28.5v-2q45 -7 68 -28.5t23 -65.5zM748 750l-510 -750h-30l511 750h29zM641 104q0 39 23.5 65t61.5 40v3q-30 11 -50 31t-20 59q0 45 28 71t92 26q61 0 89 -24t28 -73q0 -66 -71 -95v-2q35 -11 61 -33t26 -67q0 -110 -133 -110
q-71 0 -103 27t-32 82zM879 103q0 24 -11 39.5t-29 25.5t-40.5 17t-44.5 14q-34 -15 -59 -37t-25 -58q0 -42 24.5 -63.5t81.5 -21.5q46 0 74.5 20.5t28.5 63.5zM684 301q0 -20 8 -33t22 -22t31.5 -15.5t37.5 -12.5l10 -3q36 16 54.5 36t18.5 49q0 37 -22.5 57t-67.5 20
t-68.5 -20.5t-23.5 -55.5z" />
    <glyph glyph-name="fiveeighths" unicode="&#x215d;" horiz-adv-x="972" 
d="M308 489q0 -138 -131 -138q-36 0 -63 8.5t-49 23.5l8 23q23 -15 46.5 -23.5t55.5 -8.5q61 0 84 27.5t23 86.5q0 47 -23 70.5t-80 23.5q-29 0 -54.5 -7t-42.5 -17l-17 6l17 186h208l1 -23h-189l-5 -64l-8 -80l2 -2q20 11 45 17t48 6q124 0 124 -115zM769 750l-510 -750
h-30l511 750h29zM662 104q0 39 23.5 65t61.5 40v3q-30 11 -50 31t-20 59q0 45 28 71t92 26q61 0 89 -24t28 -73q0 -66 -71 -95v-2q35 -11 61 -33t26 -67q0 -110 -133 -110q-71 0 -103 27t-32 82zM900 103q0 24 -11 39.5t-29 25.5t-40.5 17t-44.5 14q-34 -15 -59 -37t-25 -58
q0 -42 24.5 -63.5t81.5 -21.5q46 0 74.5 20.5t28.5 63.5zM705 301q0 -20 8 -33t22 -22t31.5 -15.5t37.5 -12.5l10 -3q36 16 54.5 36t18.5 49q0 37 -22.5 57t-67.5 20t-68.5 -20.5t-23.5 -55.5z" />
    <glyph glyph-name="seveneighths" unicode="&#x215e;" horiz-adv-x="972" 
d="M312 725l-174 -369h-35l177 368h-233l1 26h264v-25zM769 750l-510 -750h-30l511 750h29zM662 104q0 39 23.5 65t61.5 40v3q-30 11 -50 31t-20 59q0 45 28 71t92 26q61 0 89 -24t28 -73q0 -66 -71 -95v-2q35 -11 61 -33t26 -67q0 -110 -133 -110q-71 0 -103 27t-32 82z
M900 103q0 24 -11 39.5t-29 25.5t-40.5 17t-44.5 14q-34 -15 -59 -37t-25 -58q0 -42 24.5 -63.5t81.5 -21.5q46 0 74.5 20.5t28.5 63.5zM705 301q0 -20 8 -33t22 -22t31.5 -15.5t37.5 -12.5l10 -3q36 16 54.5 36t18.5 49q0 37 -22.5 57t-67.5 20t-68.5 -20.5t-23.5 -55.5z
" />
    <glyph glyph-name="uni215F" unicode="&#x215f;" horiz-adv-x="526" 
d="M180 356h-29v274l3 79l-3 1l-94 -67l-3 28l105 82h21v-397zM675 750l-510 -750h-30l511 750h29z" />
    <glyph glyph-name="uni2189" unicode="&#x2189;" horiz-adv-x="951" 
d="M313 554q0 -108 -33 -156t-103 -48q-71 0 -104.5 47.5t-33.5 156.5t33.5 155.5t104.5 46.5q70 0 103 -46.5t33 -155.5zM285 554q0 52 -7 86.5t-20.5 54.5t-34 28.5t-46.5 8.5q-27 0 -48 -8.5t-35 -28.5t-21 -54.5t-7 -86.5q0 -53 7 -87.5t21 -54.5t35 -28.5t48 -8.5
q26 0 46.5 8.5t34 29t20.5 55t7 86.5zM769 750l-510 -750h-30l511 750h29zM926 118q0 -55 -33.5 -89t-104.5 -34q-39 0 -65 7.5t-54 24.5l10 23q22 -15 48.5 -23t60.5 -8q57 0 83.5 27.5t26.5 69.5q0 47 -31 65.5t-105 18.5v24q68 0 97 20.5t29 58.5q0 37 -27.5 54t-69.5 17
q-34 0 -59.5 -10t-47.5 -28l-10 20q19 17 49.5 30t68.5 13q57 0 90.5 -23t33.5 -71q0 -42 -23 -62.5t-58 -28.5v-2q45 -7 68 -28.5t23 -65.5z" />
    <glyph glyph-name="partialdiff" unicode="&#x2202;" horiz-adv-x="623" 
d="M532 483q-11 129 -69 189t-158 60q-66 0 -111 -20.5t-80 -57.5l-13 20q36 37 85.5 60.5t121.5 23.5q58 0 104 -20t78.5 -61t50 -104t17.5 -149q0 -89 -20.5 -168.5t-58 -139t-91 -94.5t-119.5 -35q-107 0 -156 62t-49 173q0 80 18 145.5t52.5 112t85.5 71.5t117 25
q71 0 121 -26t71 -68zM527 406q0 25 -12 51t-35.5 47t-57.5 34.5t-79 13.5q-117 0 -182.5 -85t-65.5 -243q0 -211 175 -211q64 0 112 34t80 89t48.5 125.5t16.5 144.5z" />
    <glyph glyph-name="Delta" unicode="&#x2206;" horiz-adv-x="767" 
d="M708 0h-649l312 755h25zM352 643l-247 -615h555l-248 615l-28 76h-3z" />
    <glyph glyph-name="product" unicode="&#x220f;" horiz-adv-x="738" 
d="M174 -142v866l-88 4l-1 22h571l-2 -22l-87 -4v-866h-29v865h-335v-865h-29z" />
    <glyph glyph-name="summation" unicode="&#x2211;" horiz-adv-x="709" 
d="M201 -53l-48 -62l-1 -2h497l-2 -25h-528v21l306 434l-306 416v21h509l2 -26h-471l-1 -2l48 -62l253 -343v-9z" />
    <glyph glyph-name="minus" unicode="&#x2212;" horiz-adv-x="592" 
d="M89 328v29h415v-29h-415z" />
    <glyph glyph-name="uni2219" unicode="&#x2219;" horiz-adv-x="592" 
d="M186 323q0 109 111 109q109 0 109 -109q0 -112 -109 -112q-111 0 -111 112z" />
    <glyph glyph-name="radical" unicode="&#x221a;" horiz-adv-x="553" 
d="M11 482h112l130 -373l25 -77h3l20 78l201 695h32l-236 -805h-36l-160 455h-91v27z" />
    <glyph glyph-name="infinity" unicode="&#x221e;" horiz-adv-x="717" 
d="M522 189q-61 0 -100 32t-68 89q-13 -25 -27.5 -47t-33 -38.5t-42.5 -26t-56 -9.5q-60 0 -99.5 42.5t-39.5 123.5q0 36 9.5 66t27.5 52t43.5 34.5t58.5 12.5q59 0 98.5 -33t69.5 -88q12 24 26.5 46t33.5 38.5t43 26.5t56 10q30 0 55 -11t44 -32.5t29.5 -52.5t10.5 -71
q0 -36 -9.5 -66t-27.5 -51.5t-44 -34t-58 -12.5zM523 493q-32 0 -54.5 -12t-39.5 -31.5t-30 -45t-26 -52.5l-7 -15q29 -60 65.5 -91t90.5 -31q27 0 47.5 11t35 29.5t21.5 43.5t7 54q0 66 -32 103t-78 37zM194 216q31 0 54 12.5t40.5 33t31.5 47t27 54.5l3 7q-29 61 -65 92
t-90 31q-27 0 -47.5 -10.5t-34.5 -29.5t-21.5 -44t-7.5 -53q0 -67 32 -103.5t78 -36.5z" />
    <glyph glyph-name="integral" unicode="&#x222b;" horiz-adv-x="306" 
d="M170 36q0 -90 -40.5 -136.5t-124.5 -46.5v22q71 2 101.5 42.5t30.5 118.5v579q0 88 41.5 135.5t121.5 49.5l1 -25q-63 -1 -97 -42t-34 -119v-578z" />
    <glyph glyph-name="approxequal" unicode="&#x2248;" horiz-adv-x="658" 
d="M438 377q-28 0 -56 10t-56 21.5t-55.5 21.5t-52.5 10q-32 0 -56.5 -9.5t-49.5 -28.5v28q22 16 48 26t58 10q27 0 55 -10t56 -21.5t55.5 -21.5t53.5 -10q32 0 57.5 10.5t51.5 27.5v-27q-21 -16 -49 -26.5t-60 -10.5zM438 225q-28 0 -56 10t-56 22t-55.5 22t-52.5 10
q-32 0 -56.5 -10t-49.5 -28v27q22 16 48 27t58 11q27 0 55 -10t56 -22.5t55.5 -22.5t53.5 -10q32 0 57.5 10.5t51.5 27.5v-27q-21 -16 -49 -26.5t-60 -10.5z" />
    <glyph glyph-name="notequal" unicode="&#x2260;" horiz-adv-x="658" 
d="M454 552l-63 -117h156v-26h-170l-71 -131h241v-26h-255l-71 -132l-24 11l65 121h-150v26h164l71 131h-235v26h249l69 128z" />
    <glyph glyph-name="lessequal" unicode="&#x2264;" horiz-adv-x="658" 
d="M215 401l-73 -32v-3l74 -32l316 -142v-30l-418 192v25l418 203v-30zM119 69v25h413v-25h-413z" />
    <glyph glyph-name="greaterequal" unicode="&#x2265;" horiz-adv-x="658" 
d="M115 192l315 142l75 32v3l-74 32l-316 151v30l417 -203v-25l-417 -192v30zM114 69v25h412v-25h-412z" />
    <glyph glyph-name="dotmath" unicode="&#x22c5;" horiz-adv-x="592" 
d="M329 343q0 -32 -33 -32t-33 32t33 32t33 -32z" />
    <glyph glyph-name="lozenge" unicode="&#x25ca;" horiz-adv-x="600" 
d="M300 623l265 -307l-265 -307l-264 307zM72 315l228 -263l227 263l-227 264z" />
    <glyph glyph-name="orn001" unicode="&#xea01;" horiz-adv-x="724" 
d="M361 -12q-27 0 -50.5 22t-43 51t-35.5 58t-28 44q-21 24 -46 59.5t-46.5 79.5t-36 95.5t-14.5 107.5q0 52 15.5 99t51 82.5t92.5 56.5t141 21t141.5 -21t93 -56.5t51 -82.5t15.5 -99q0 -56 -14.5 -107.5t-35.5 -95.5t-46 -79.5t-46 -59.5q-13 -15 -29 -44t-35.5 -58
t-43 -51t-51.5 -22zM363 16q21 0 40 20t36.5 47t33 53.5t27.5 40.5q19 21 43 53.5t45 73t35 87.5t14 98q0 21 -14.5 36.5t-46.5 25.5t-85 14.5t-129 4.5q-77 0 -129.5 -4.5t-84.5 -14.5t-46 -25.5t-14 -36.5q0 -51 14 -98t35 -87.5t44.5 -73t43.5 -53.5q12 -14 27 -40.5
t32.5 -53.5t37.5 -47t41 -20zM456 227q-44 12 -94 12q-51 0 -93 -12q-14 15 -26.5 34.5t-20.5 40.5q32 -12 67.5 -18t72.5 -6q76 0 141 24q-16 -44 -47 -75zM382 380q15 5 34 12.5t37.5 17t36 21t31.5 26.5q8 -10 15 -24.5t7 -31.5q-15 -7 -33.5 -13t-38 -11t-38.5 -9
t-35 -6zM326 362q-16 2 -35 6t-38.5 9t-38 11t-33.5 13q0 17 6.5 31.5t14.5 24.5q28 -29 68.5 -48t71.5 -29z" />
    <glyph glyph-name="fi" unicode="&#xfb01;" horiz-adv-x="683" 
d="M146 0v561h-101v23h101v30q0 41 10.5 74.5t32.5 57t56.5 36t83.5 12.5q19 0 39 -3t32 -6l-2 -22q-13 4 -30 6.5t-35 2.5q-83 0 -120 -42t-37 -116v-30h369v-584h-30v561h-339v-561h-30zM564 762q0 -18 -9 -25.5t-25 -7.5t-25 6.5t-9 26.5q0 32 34 32t34 -32z" />
    <glyph glyph-name="fl" unicode="&#xfb02;" horiz-adv-x="655" 
d="M493 0v770q-30 3 -57.5 5t-62.5 2q-107 0 -152 -41.5t-45 -117.5v-34h154v-23h-154v-561h-30v561h-102v23h102v34q0 41 12 74.5t39 57.5t70 37t105 13q50 0 83 -4.5t68 -5.5v-790h-30z" />
    <glyph glyph-name="uniFEFF" unicode="&#xfeff;" horiz-adv-x="0" 
 />
    <glyph glyph-name="afii57929" horiz-adv-x="211" 
d="M105 804q18 0 26.5 -9t8.5 -24q0 -8 -5.5 -27t-13.5 -42t-17.5 -47t-17.5 -42l-12 2l26 127q-13 1 -20 9.5t-7 19.5q0 15 7.5 24t24.5 9z" />
    <glyph glyph-name="i.latn_TRK" horiz-adv-x="304" 
d="M137 0v582l30 3v-585h-30zM185 759q0 -32 -32 -32q-16 0 -25 6.5t-9 25.5q0 15 9 24t25 9q32 0 32 -33z" />
    <glyph glyph-name="Ldot.latn_CAT" horiz-adv-x="579" 
d="M454 407q0 -32 -33 -32t-33 32t33 32t33 -32zM548 30l-2 -30h-422v750h32v-720h392z" />
    <glyph glyph-name="ldot.latn_CAT" horiz-adv-x="364" 
d="M361 383q0 -32 -33 -32t-33 32t33 32t33 -32zM132 0v802l30 3v-805h-30z" />
    <glyph glyph-name="dollar.subs" horiz-adv-x="301" 
d="M197 325l-5 -82q24 -2 46 -7t40 -13l-6 -23q-23 9 -45 14t-48 5q-46 0 -67 -21.5t-21 -47.5q0 -24 14.5 -37.5t37 -22t48 -15.5t48 -18t37 -29.5t14.5 -49.5q0 -47 -28 -74.5t-82 -31.5l-2 -85h-28l4 85q-55 1 -96 28l5 25q23 -17 48.5 -23t55.5 -6q45 0 69.5 21.5
t24.5 56.5q0 26 -15 40t-37 23.5t-48 17t-48 18t-37 28.5t-15 48q0 37 24.5 63t78.5 30l5 83h28z" />
    <glyph glyph-name="comma.subs" horiz-adv-x="143" 
d="M71 -101q28 0 28 -27q0 -7 -3.5 -19t-9 -26t-12 -28t-12.5 -25l-13 3l17 72q-8 2 -15 8.5t-7 15.5q0 26 27 26z" />
    <glyph glyph-name="period.subs" horiz-adv-x="143" 
d="M99 -125q0 -24 -28 -24q-27 0 -27 24q0 26 27 26q28 0 28 -26z" />
    <glyph glyph-name="cent.subs" horiz-adv-x="301" 
d="M268 196q-17 8 -37.5 14t-42.5 6q-66 0 -93 -35.5t-27 -116.5q0 -91 29 -128t91 -37q23 0 44 7.5t39 19.5l3 -24q-15 -11 -37 -18.5t-48 -8.5l-2 -88h-28l4 88q-63 5 -94 49t-31 140q0 88 31 131t102 46l4 84h28l-4 -84q38 -3 72 -19z" />
    <glyph glyph-name="dollar.sups" horiz-adv-x="301" 
d="M197 972l-5 -82q24 -2 46 -7t40 -13l-6 -23q-23 9 -45 14t-48 5q-46 0 -67 -21.5t-21 -47.5q0 -24 14.5 -37.5t37 -22t48 -15.5t48 -18t37 -29.5t14.5 -49.5q0 -47 -28 -74.5t-82 -31.5l-2 -85h-28l4 85q-55 1 -96 28l5 25q23 -17 48.5 -23t55.5 -6q45 0 69.5 21.5
t24.5 56.5q0 25 -15 39.5t-37 24t-48 17t-48 18t-37 28.5t-15 48q0 37 24.5 63t78.5 30l5 83h28z" />
    <glyph glyph-name="comma.sups" horiz-adv-x="143" 
d="M71 546q28 0 28 -27q0 -7 -3.5 -19t-9 -26t-12 -28t-12.5 -25l-13 3l17 72q-8 2 -15 8.5t-7 15.5q0 26 27 26z" />
    <glyph glyph-name="period.sups" horiz-adv-x="143" 
d="M99 522q0 -24 -28 -24q-27 0 -27 24q0 26 27 26q28 0 28 -26z" />
    <glyph glyph-name="cent.sups" horiz-adv-x="301" 
d="M268 843q-17 8 -37.5 14t-42.5 6q-66 0 -93 -35.5t-27 -116.5q0 -91 29 -128t91 -37q23 0 44 7.5t39 19.5l3 -24q-15 -11 -37 -18.5t-48 -8.5l-2 -88h-28l4 88q-63 5 -94 49t-31 140q0 88 31 131t102 46l4 84h28l-4 -84q38 -3 72 -19z" />
    <glyph glyph-name="dollar.numr" horiz-adv-x="301" 
d="M197 820l-5 -82q24 -2 46 -7t40 -13l-6 -23q-23 9 -45 14t-48 5q-46 0 -67 -21.5t-21 -47.5q0 -24 14.5 -37.5t37 -22t48 -15.5t48 -18t37 -29.5t14.5 -49.5q0 -47 -28 -74.5t-82 -31.5l-2 -85h-28l4 85q-55 1 -96 28l5 25q23 -17 48.5 -23t55.5 -6q45 0 69.5 21.5
t24.5 56.5q0 25 -15 39.5t-37 24t-48 17t-48 18t-37 28.5t-15 48q0 37 24.5 63t78.5 30l5 83h28z" />
    <glyph glyph-name="parenleft.numr" horiz-adv-x="198" 
d="M176 782q-35 -52 -57 -111.5t-22 -132.5q0 -74 22.5 -133t56.5 -110h-26q-37 45 -59 107.5t-22 135.5q0 78 21.5 136t59.5 109z" />
    <glyph glyph-name="parenright.numr" horiz-adv-x="198" 
d="M49 783q39 -51 60 -109t21 -136q0 -73 -22 -135.5t-59 -107.5h-27q33 51 56.5 110t23.5 133q0 73 -22.5 132.5t-57.5 111.5z" />
    <glyph glyph-name="plus.numr" horiz-adv-x="354" 
d="M188 546v-120h-24v120h-117v23h117v122h24v-122h119v-23h-119z" />
    <glyph glyph-name="comma.numr" horiz-adv-x="143" 
d="M71 394q28 0 28 -27q0 -7 -3.5 -19t-9 -26t-12 -28t-12.5 -25l-13 3l17 72q-8 2 -15 8.5t-7 15.5q0 26 27 26z" />
    <glyph glyph-name="period.numr" horiz-adv-x="143" 
d="M99 370q0 -24 -28 -24q-27 0 -27 24q0 26 27 26q28 0 28 -26z" />
    <glyph glyph-name="zero.numr" horiz-adv-x="352" 
d="M313 554q0 -108 -33 -156t-103 -48q-71 0 -104.5 47.5t-33.5 156.5t33.5 155.5t104.5 46.5q70 0 103 -46.5t33 -155.5zM285 554q0 52 -7 86.5t-20.5 54.5t-34 28.5t-46.5 8.5q-27 0 -48 -8.5t-35 -28.5t-21 -54.5t-7 -86.5q0 -53 7 -87.5t21 -54.5t35 -28.5t48 -8.5
q26 0 46.5 8.5t34 29t20.5 55t7 86.5z" />
    <glyph glyph-name="one.numr" horiz-adv-x="258" 
d="M180 356h-29v274l3 79l-3 1l-94 -67l-3 28l105 82h21v-397z" />
    <glyph glyph-name="two.numr" horiz-adv-x="331" 
d="M293 653q0 -34 -15.5 -66t-42.5 -65t-64.5 -66.5t-81.5 -70.5v-3h209l-1 -26h-250v21q39 37 77.5 72.5t69 70t49 67t18.5 64.5q0 33 -21 56t-76 23q-31 0 -57.5 -12t-47.5 -29l-10 23q23 17 53 30t67 13q60 0 92 -27t32 -75z" />
    <glyph glyph-name="three.numr" horiz-adv-x="331" 
d="M306 474q0 -55 -33.5 -89t-104.5 -34q-39 0 -65 7.5t-54 24.5l10 23q22 -15 48.5 -23t60.5 -8q57 0 83.5 27.5t26.5 69.5q0 47 -31 65.5t-105 18.5v24q68 0 97 20.5t29 58.5q0 37 -27.5 54t-69.5 17q-34 0 -59.5 -10t-47.5 -28l-10 20q19 17 49.5 30t68.5 13
q57 0 90.5 -23t33.5 -71q0 -42 -23 -62.5t-58 -28.5v-2q45 -7 68 -28.5t23 -65.5z" />
    <glyph glyph-name="four.numr" horiz-adv-x="352" 
d="M276 450v-94h-26v94h-207l-3 18l200 282h36v-277h54l-2 -23h-52zM251 644l3 81l-2 1l-47 -67l-86 -121l-47 -62l1 -3h177z" />
    <glyph glyph-name="five.numr" horiz-adv-x="352" 
d="M308 489q0 -138 -131 -138q-36 0 -63 8.5t-49 23.5l8 23q23 -15 46.5 -23.5t55.5 -8.5q61 0 84 27.5t23 86.5q0 47 -23 70.5t-80 23.5q-29 0 -54.5 -7t-42.5 -17l-17 6l17 186h208l1 -23h-189l-5 -64l-8 -80l2 -2q20 11 45 17t48 6q124 0 124 -115z" />
    <glyph glyph-name="six.numr" horiz-adv-x="352" 
d="M310 489q0 -68 -32 -103t-98 -35q-33 0 -58 9.5t-42 31.5t-25.5 58t-8.5 88q0 114 41 165.5t118 51.5q23 0 43.5 -4.5t41.5 -12.5l-4 -24q-20 8 -37.5 12.5t-43.5 4.5q-66 0 -98 -43t-35 -129l3 -2q21 23 51.5 35t62.5 12q63 0 92 -27.5t29 -87.5zM281 489q0 47 -22 69
t-72 22q-14 0 -29.5 -3.5t-31 -9.5t-29 -15t-22.5 -20q2 -85 27.5 -121t78.5 -36q49 0 74.5 27t25.5 87z" />
    <glyph glyph-name="seven.numr" horiz-adv-x="352" 
d="M312 725l-174 -369h-35l177 368h-233l1 26h264v-25z" />
    <glyph glyph-name="eight.numr" horiz-adv-x="352" 
d="M42 460q0 39 23.5 65t61.5 40v3q-30 11 -50 31t-20 59q0 45 28 71t92 26q61 0 89 -24t28 -73q0 -66 -71 -95v-2q35 -11 61 -33t26 -67q0 -110 -133 -110q-71 0 -103 27t-32 82zM280 459q0 24 -11 39.5t-29 25.5t-40.5 17t-44.5 14q-34 -15 -59 -37t-25 -58
q0 -42 24.5 -63.5t81.5 -21.5q46 0 74.5 20.5t28.5 63.5zM85 657q0 -20 8 -33t22 -22t31.5 -15.5t37.5 -12.5l10 -3q36 16 54.5 36t18.5 49q0 37 -22.5 57t-67.5 20t-68.5 -20.5t-23.5 -55.5z" />
    <glyph glyph-name="nine.numr" horiz-adv-x="352" 
d="M303 574q0 -119 -37 -171t-110 -52q-27 0 -46.5 5t-38.5 13l5 24q20 -9 37.5 -13.5t41.5 -4.5q31 0 53.5 10.5t37.5 33t23 58.5t10 88l-2 1q-19 -21 -46 -32t-59 -11q-69 0 -98 32t-29 85q0 51 30.5 83.5t92.5 32.5q69 0 102 -45t33 -137zM275 588q-1 80 -28.5 112.5
t-78.5 32.5q-46 0 -71 -24t-25 -69q0 -44 23.5 -68.5t77.5 -24.5q28 0 57 10.5t45 30.5z" />
    <glyph glyph-name="equal.numr" horiz-adv-x="354" 
d="M45 599v22h264v-22h-264zM45 499v23h264v-23h-264z" />
    <glyph glyph-name="cent.numr" horiz-adv-x="301" 
d="M268 691q-17 8 -37.5 14t-42.5 6q-66 0 -93 -35.5t-27 -116.5q0 -91 29 -128t91 -37q23 0 44 7.5t39 19.5l3 -24q-15 -11 -37 -18.5t-48 -8.5l-2 -88h-28l4 88q-63 5 -94 49t-31 140q0 88 31 131t102 46l4 84h28l-4 -84q38 -3 72 -19z" />
    <glyph glyph-name="minus.numr" horiz-adv-x="354" 
d="M53 548v23h255v-23h-255z" />
    <glyph glyph-name="dollar.dnom" horiz-adv-x="301" 
d="M197 464l-5 -82q24 -2 46 -7t40 -13l-6 -23q-23 9 -45 14t-48 5q-46 0 -67 -21.5t-21 -47.5q0 -24 14.5 -37.5t37 -22t48 -15.5t48 -18t37 -29.5t14.5 -49.5q0 -47 -28 -74.5t-82 -31.5l-2 -85h-28l4 85q-55 1 -96 28l5 25q23 -17 48.5 -23t55.5 -6q45 0 69.5 21.5
t24.5 56.5q0 25 -15 39.5t-37 24t-48 17t-48 18t-37 28.5t-15 48q0 37 24.5 63t78.5 30l5 83h28z" />
    <glyph glyph-name="parenleft.dnom" horiz-adv-x="198" 
d="M176 426q-35 -52 -57 -111.5t-22 -132.5q0 -74 22.5 -133t56.5 -110h-26q-37 45 -59 107.5t-22 135.5q0 78 21.5 136t59.5 109z" />
    <glyph glyph-name="parenright.dnom" horiz-adv-x="198" 
d="M49 427q39 -51 60 -109t21 -136q0 -73 -22 -135.5t-59 -107.5h-27q33 51 56.5 110t23.5 133q0 73 -22.5 132.5t-57.5 111.5z" />
    <glyph glyph-name="plus.dnom" horiz-adv-x="354" 
d="M188 190v-120h-24v120h-117v23h117v122h24v-122h119v-23h-119z" />
    <glyph glyph-name="comma.dnom" horiz-adv-x="143" 
d="M71 38q28 0 28 -27q0 -7 -3.5 -19t-9 -26t-12 -28t-12.5 -25l-13 3l17 72q-8 2 -15 8.5t-7 15.5q0 26 27 26z" />
    <glyph glyph-name="period.dnom" horiz-adv-x="143" 
d="M99 14q0 -24 -28 -24q-27 0 -27 24q0 26 27 26q28 0 28 -26z" />
    <glyph glyph-name="zero.dnom" horiz-adv-x="352" 
d="M313 198q0 -108 -33 -156t-103 -48q-71 0 -104.5 47.5t-33.5 156.5t33.5 155.5t104.5 46.5q70 0 103 -46.5t33 -155.5zM285 198q0 52 -7 86.5t-20.5 54.5t-34 28.5t-46.5 8.5q-27 0 -48 -8.5t-35 -28.5t-21 -54.5t-7 -86.5q0 -53 7 -87.5t21 -54.5t35 -28.5t48 -8.5
q26 0 46.5 8.5t34 29t20.5 55t7 86.5z" />
    <glyph glyph-name="one.dnom" horiz-adv-x="258" 
d="M180 0h-29v274l3 79l-3 1l-94 -67l-3 28l105 82h21v-397z" />
    <glyph glyph-name="two.dnom" horiz-adv-x="331" 
d="M293 297q0 -34 -15.5 -66t-42.5 -65t-64.5 -66.5t-81.5 -70.5v-3h209l-1 -26h-250v21q39 37 77.5 72.5t69 70t49 67t18.5 64.5q0 33 -21 56t-76 23q-31 0 -57.5 -12t-47.5 -29l-10 23q23 17 53 30t67 13q60 0 92 -27t32 -75z" />
    <glyph glyph-name="three.dnom" horiz-adv-x="331" 
d="M306 118q0 -55 -33.5 -89t-104.5 -34q-39 0 -65 7.5t-54 24.5l10 23q22 -15 48.5 -23t60.5 -8q57 0 83.5 27.5t26.5 69.5q0 47 -31 65.5t-105 18.5v24q68 0 97 20.5t29 58.5q0 37 -27.5 54t-69.5 17q-34 0 -59.5 -10t-47.5 -28l-10 20q19 17 49.5 30t68.5 13
q57 0 90.5 -23t33.5 -71q0 -42 -23 -62.5t-58 -28.5v-2q45 -7 68 -28.5t23 -65.5z" />
    <glyph glyph-name="four.dnom" horiz-adv-x="352" 
d="M276 94v-94h-26v94h-207l-3 18l200 282h36v-277h54l-2 -23h-52zM251 288l3 81l-2 1l-47 -67l-86 -121l-47 -62l1 -3h177z" />
    <glyph glyph-name="five.dnom" horiz-adv-x="352" 
d="M308 133q0 -138 -131 -138q-36 0 -63 8.5t-49 23.5l8 23q23 -15 46.5 -23.5t55.5 -8.5q61 0 84 27.5t23 86.5q0 47 -23 70.5t-80 23.5q-29 0 -54.5 -7t-42.5 -17l-17 6l17 186h208l1 -23h-189l-5 -64l-8 -80l2 -2q20 11 45 17t48 6q124 0 124 -115z" />
    <glyph glyph-name="six.dnom" horiz-adv-x="352" 
d="M310 133q0 -68 -32 -103t-98 -35q-33 0 -58 9.5t-42 31.5t-25.5 58t-8.5 88q0 114 41 165.5t118 51.5q23 0 43.5 -4.5t41.5 -12.5l-4 -24q-20 8 -37.5 12.5t-43.5 4.5q-66 0 -98 -43t-35 -129l3 -2q21 23 51.5 35t62.5 12q63 0 92 -27.5t29 -87.5zM281 133q0 47 -22 69
t-72 22q-14 0 -29.5 -3.5t-31 -9.5t-29 -15t-22.5 -20q2 -85 27.5 -121t78.5 -36q49 0 74.5 27t25.5 87z" />
    <glyph glyph-name="seven.dnom" horiz-adv-x="352" 
d="M312 369l-174 -369h-35l177 368h-233l1 26h264v-25z" />
    <glyph glyph-name="eight.dnom" horiz-adv-x="352" 
d="M42 104q0 39 23.5 65t61.5 40v3q-30 11 -50 31t-20 59q0 45 28 71t92 26q61 0 89 -24t28 -73q0 -66 -71 -95v-2q35 -11 61 -33t26 -67q0 -110 -133 -110q-71 0 -103 27t-32 82zM280 103q0 24 -11 39.5t-29 25.5t-40.5 17t-44.5 14q-34 -15 -59 -37t-25 -58
q0 -42 24.5 -63.5t81.5 -21.5q46 0 74.5 20.5t28.5 63.5zM85 301q0 -20 8 -33t22 -22t31.5 -15.5t37.5 -12.5l10 -3q36 16 54.5 36t18.5 49q0 37 -22.5 57t-67.5 20t-68.5 -20.5t-23.5 -55.5z" />
    <glyph glyph-name="nine.dnom" horiz-adv-x="352" 
d="M303 218q0 -119 -37 -171t-110 -52q-27 0 -46.5 5t-38.5 13l5 24q20 -9 37.5 -13.5t41.5 -4.5q31 0 53.5 10.5t37.5 33t23 58.5t10 88l-2 1q-19 -21 -46 -32t-59 -11q-69 0 -98 32t-29 85q0 51 30.5 83.5t92.5 32.5q69 0 102 -45t33 -137zM275 232q-1 80 -28.5 112.5
t-78.5 32.5q-46 0 -71 -24t-25 -69q0 -44 23.5 -68.5t77.5 -24.5q28 0 57 10.5t45 30.5z" />
    <glyph glyph-name="equal.dnom" horiz-adv-x="354" 
d="M45 243v22h264v-22h-264zM45 143v23h264v-23h-264z" />
    <glyph glyph-name="cent.dnom" horiz-adv-x="301" 
d="M268 335q-17 8 -37.5 14t-42.5 6q-66 0 -93 -35.5t-27 -116.5q0 -91 29 -128t91 -37q23 0 44 7.5t39 19.5l3 -24q-15 -11 -37 -18.5t-48 -8.5l-2 -88h-28l4 88q-63 5 -94 49t-31 140q0 88 31 131t102 46l4 84h28l-4 -84q38 -3 72 -19z" />
    <glyph glyph-name="minus.dnom" horiz-adv-x="354" 
d="M53 192v23h255v-23h-255z" />
    <glyph glyph-name="numbersign.osf" horiz-adv-x="592" 
d="M172 245l29 171h-145v26h148l29 207h26l-29 -207h165l29 207h25l-29 -207h117v-26h-120l-28 -171h148v-25h-151l-30 -220h-26l31 220h-165l-30 -220h-26l29 220h-114v25h117zM199 245h165l28 171h-166z" />
    <glyph glyph-name="dollar.osf" horiz-adv-x="484" 
d="M429 156q0 -72 -40.5 -117t-127.5 -50l-5 -152h-28l5 151q-49 2 -93.5 16.5t-73.5 42.5l7 27q32 -29 76.5 -45t92.5 -16q84 0 121.5 40t37.5 101q0 45 -24.5 71.5t-61 44t-79.5 30t-79.5 30.5t-61 46t-24.5 75q0 68 47 105t135 38l8 139h28l-8 -140q68 -5 125 -33l-4 -26
q-37 17 -73 26t-74 9q-71 0 -112.5 -31.5t-41.5 -84.5q0 -42 24.5 -66t60.5 -39.5t79 -27.5t79 -31t60.5 -50t24.5 -83z" />
    <glyph glyph-name="zero.osf" horiz-adv-x="634" 
d="M562 306q0 -85 -14 -145t-44 -98t-76 -55.5t-110 -17.5q-65 0 -111.5 17.5t-76 55.5t-43.5 98t-14 145t14 145.5t43.5 99t76 56t111.5 17.5q64 0 110 -17.5t76 -56t44 -99t14 -145.5zM532 306q0 82 -13 137.5t-39 89.5t-66.5 48.5t-95.5 14.5q-56 0 -96.5 -14.5
t-67 -48.5t-39.5 -89.5t-13 -137.5q0 -81 13 -136.5t39.5 -89.5t67 -48.5t96.5 -14.5q55 0 95.5 15t66.5 48.5t39 89t13 136.5z" />
    <glyph glyph-name="one.osf" horiz-adv-x="475" 
d="M321 0h-31v492l2 81l-2 1l-65 -48l-102 -73l-4 29l185 136h17v-618z" />
    <glyph glyph-name="two.osf" horiz-adv-x="600" 
d="M511 458q0 -54 -29 -104.5t-80.5 -101.5t-122 -105.5t-153.5 -115.5v-3h394l-2 -28h-438v22q73 59 144.5 114.5t128.5 109t92 106t35 105.5q0 28 -10.5 53t-33.5 44t-58.5 30t-86.5 11q-55 0 -105.5 -19.5t-88.5 -51.5l-12 24q38 31 92 53.5t114 22.5q105 0 162.5 -44
t57.5 -122z" />
    <glyph glyph-name="three.osf" horiz-adv-x="588" 
d="M511 148q0 -59 -25.5 -106.5t-73.5 -81.5t-117.5 -53.5t-157.5 -20.5l-2 26q90 1 155.5 20t108 50.5t63.5 74t21 91.5q0 73 -49 112t-143 39q-15 0 -36.5 -1.5t-35.5 -3.5l-2 23q69 7 114.5 21t72.5 33.5t37.5 45t10.5 55.5q0 28 -9.5 51t-30 39.5t-53.5 25.5t-81 9
q-60 0 -108 -17t-88 -49l-11 21q33 32 89 52t119 20q52 0 90 -11t62.5 -31t36 -47.5t11.5 -59.5q0 -124 -142 -156v-2q93 -9 133.5 -53t40.5 -116z" />
    <glyph glyph-name="four.osf" horiz-adv-x="617" 
d="M477 78v-185l-26 -3v188h-398l-2 19l397 525l29 -3v-515h106l-3 -26h-103zM452 504l2 81l-2 1l-48 -66l-264 -352l-49 -61l1 -3h359z" />
    <glyph glyph-name="five.osf" horiz-adv-x="572" 
d="M507 168q0 -60 -23.5 -110.5t-71 -88t-118 -59.5t-163.5 -25l-2 28q86 3 151.5 22.5t109.5 52.5t66 78.5t22 99.5q0 79 -49 121t-149 42q-58 0 -105 -15t-80 -37l-18 11l30 326h370l2 -30h-349l-18 -194l-9 -80l2 -2q38 23 87 35.5t94 12.5q113 0 167 -49.5t54 -138.5z
" />
    <glyph glyph-name="six.osf" horiz-adv-x="589" 
d="M524 242q0 -123 -55 -186.5t-172 -63.5q-54 0 -97.5 17t-73.5 56.5t-46 103.5t-16 159q0 103 27.5 178.5t77 125.5t119 75.5t152.5 29.5l5 -26q-165 -6 -256.5 -95t-98.5 -257l3 -2q42 45 98.5 68t116.5 23q115 0 165.5 -49.5t50.5 -156.5zM495 243q0 94 -46.5 137
t-143.5 43q-28 0 -57.5 -6.5t-57.5 -19.5t-53 -31t-43 -40q1 -85 15 -143.5t40 -94.5t63 -52t85 -16q98 0 148 56t50 167z" />
    <glyph glyph-name="seven.osf" horiz-adv-x="588" 
d="M525 591l-334 -696h-34l333 689h-431l3 30h463v-23z" />
    <glyph glyph-name="eight.osf" horiz-adv-x="594" 
d="M64 160q0 33 12 59.5t32.5 48t49 37t61.5 25.5v3q-27 8 -50 19t-40.5 27.5t-27 39.5t-9.5 54q0 34 11.5 61.5t36 47.5t63.5 31t95 11q105 0 154.5 -39t49.5 -112q0 -111 -134 -152v-3q32 -8 61.5 -19.5t51.5 -29.5t35 -44t13 -63q0 -86 -58.5 -128t-172.5 -42
q-123 0 -178.5 43t-55.5 125zM500 160q0 45 -22.5 71.5t-58.5 42.5t-80 26t-87 21q-33 -11 -62.5 -26t-51 -34.5t-34 -44t-12.5 -55.5q0 -70 46 -106.5t160 -36.5q92 0 147 34t55 108zM120 472q0 -36 16.5 -59.5t45.5 -39t67.5 -25.5t83.5 -20q77 25 110 59t33 83
q0 63 -41 95.5t-138 32.5q-50 0 -83.5 -8.5t-54.5 -25t-30 -40t-9 -52.5z" />
    <glyph glyph-name="nine.osf" horiz-adv-x="576" 
d="M512 318q0 -106 -27.5 -185.5t-76 -133t-116 -81.5t-148.5 -31l-2 26q74 4 135 31t105 75.5t70 118.5t31 161l-2 1q-34 -51 -84.5 -73t-116.5 -22q-103 0 -159.5 52.5t-56.5 157.5q0 94 53 151t161 57q55 0 98.5 -17t73.5 -54t46 -95t16 -139zM481 335q-2 132 -49 196
t-154 64q-91 0 -137 -48t-46 -132q0 -87 46.5 -135t143.5 -48q63 0 115 24.5t81 78.5z" />
    <glyph glyph-name="cent.osf" horiz-adv-x="504" 
d="M440 531q-29 16 -65 26t-74 10q-109 0 -157.5 -63t-48.5 -202q0 -80 13 -135t39 -89t64 -49t89 -15q40 0 77.5 11.5t66.5 35.5l5 -27q-26 -20 -65 -33t-83 -14l-5 -150h-29l6 151q-53 3 -92 22t-65 57t-39 96t-13 139q0 148 53 218t168 73l8 140h28l-8 -140
q37 -2 70.5 -11t60.5 -23z" />
    <glyph glyph-name="sterling.osf" horiz-adv-x="525" 
d="M61 340h47q-8 35 -16 67.5t-8 71.5q0 36 11 68t35.5 56t64.5 38t99 14q47 0 90 -10t75 -29l-7 -23q-28 17 -70 28t-87 11q-50 0 -84.5 -11.5t-57 -32t-32.5 -48.5t-10 -60q0 -35 6.5 -65.5t17.5 -74.5h246v-24h-241q6 -28 10.5 -58.5t4.5 -65.5q0 -61 -19 -103.5
t-53 -67.5l2 -3q24 4 47 7t47.5 4.5t52 2t60.5 0.5q51 0 103.5 -4t101.5 -9l-2 -23q-59 5 -108.5 8.5t-104.5 3.5q-63 0 -119 -3t-124 -9v21q45 21 67 68t22 106q0 38 -4.5 68.5t-9.5 56.5h-52z" />
    <glyph glyph-name="currency.osf" horiz-adv-x="592" 
d="M139 332q0 29 10 54t27 46l-61 61l17 18l61 -61q20 17 46.5 27.5t55.5 10.5t55 -10.5t46 -29.5l64 63l18 -17l-64 -64q17 -20 26 -45t9 -53t-9 -52.5t-25 -44.5l63 -64l-18 -17l-62 63q-44 -39 -103 -39q-29 0 -55.5 10t-46.5 27l-62 -61l-17 17l61 61q-36 42 -36 100z
M167 332q0 -27 10 -50.5t27.5 -40.5t40.5 -27t50 -10t50 10t40 27t27 40.5t10 50.5q0 26 -10 49t-27 40.5t-40 27.5t-50 10t-50 -10t-40.5 -27.5t-27.5 -40.5t-10 -49z" />
    <glyph glyph-name="yen.osf" horiz-adv-x="592" 
d="M274 276l-229 373h36l215 -356l214 356h34l-223 -373h116v-25h-125v-66h125v-24h-125v-161h-29v161h-132v24h132v66h-132v25h123z" />
    <glyph glyph-name="franc.osf" horiz-adv-x="592" 
d="M137 140v509h405l1 -27h-377v-269h299l1 -27h-300v-186h100v-23h-100v-117h-29v117h-98v23h98z" />
    <glyph glyph-name="lira.osf" horiz-adv-x="592" 
d="M74 382h35q-6 22 -9.5 44t-3.5 48q0 37 11.5 70t38 58t69 39.5t105.5 14.5q51 0 97.5 -11t81.5 -31l-7 -24q-30 18 -75.5 29t-94.5 11q-54 0 -91.5 -12t-61 -33t-34.5 -49t-11 -61q0 -24 4 -47t9 -46h298v-26h-291q4 -17 8 -33.5t8 -34.5h275v-25h-271q6 -33 6 -72
q0 -60 -20 -102t-54 -67l2 -3q26 4 50.5 7t50.5 4.5t55 2t65 0.5q54 0 110.5 -4t108.5 -9l-3 -24q-42 3 -72.5 5.5t-55 4t-47.5 2.5t-51 1q-67 0 -127 -3t-133 -10v22q48 21 71 68t23 104q0 20 -2 38t-4 35h-62l-1 25h59q-4 19 -8 35.5t-9 32.5h-41z" />
    <glyph glyph-name="peseta.osf" horiz-adv-x="592" 
d="M265 473q0 -53 -6.5 -88t-20.5 -56t-36.5 -29.5t-54.5 -8.5h-68v-291h-26v649h94q31 0 53.5 -8t37 -28t21 -54t6.5 -86zM239 473q0 46 -5 75.5t-16 46t-28.5 23t-42.5 6.5h-68v-310h68q24 0 41 6.5t28.5 23.5t17 48t5.5 81zM550 102q0 -60 -18 -85t-53 -25q-33 0 -54 21
l2 24q11 -13 23.5 -17.5t26.5 -4.5q49 0 49 87q0 30 -7.5 48t-19 30t-24.5 22t-24.5 22.5t-19 31t-7.5 49.5q0 48 19.5 72t52.5 24q25 0 46 -16l-2 -22q-11 7 -21.5 11t-22.5 4q-23 0 -35 -19t-12 -54q0 -27 7.5 -43t18.5 -26.5t24.5 -20t24.5 -23t18.5 -34.5t7.5 -56z
M341 374v-305q0 -32 10 -43t24 -11q10 0 17 7l2 -22q-9 -7 -25 -7q-26 0 -39 17t-13 58v306h-29v21h29l5 96l19 4v-100h56v-21h-56z" />
    <glyph glyph-name="Euro.osf" horiz-adv-x="592" 
d="M535 594q-71 39 -168 39q-115 0 -172.5 -55t-69.5 -169h358l-12 -28h-349q-1 -11 -1 -23v-50q0 -12 1 -24h319l-13 -26h-304q13 -132 74.5 -187.5t170.5 -55.5q46 0 92 14t83 43l6 -29q-34 -25 -82.5 -41t-102.5 -16q-123 0 -190.5 65t-80.5 207h-54v26h52q-1 12 -1 24
v50q0 12 1 23h-52v28h55q14 126 79 188.5t190 62.5q52 0 99.5 -11t83.5 -31z" />
    <glyph glyph-name="numbersign.lf" horiz-adv-x="653" 
d="M212 282l33 201h-170v25h172l34 242h24l-33 -242h144l35 242h23l-34 -242h139v-25h-142l-31 -201h172v-25h-175l-36 -257h-24l36 257h-146l-35 -257h-24l35 257h-136v25h139zM236 282h146l32 201h-146z" />
    <glyph glyph-name="dollar.lf" horiz-adv-x="609" 
d="M263 -85l4 73q-57 2 -108 16.5t-87 37.5l5 33q40 -25 88 -41t104 -19l22 370q-41 14 -80 29.5t-70 37t-49.5 52.5t-18.5 76q0 86 64.5 133t176.5 49l4 67l25 -1l-4 -67q54 -2 97 -14t66 -25l-5 -29q-38 17 -76 27t-84 12l-20 -322q41 -14 81 -31t71.5 -42t50.5 -60.5
t19 -86.5q0 -106 -61 -153.5t-187 -49.5l-4 -74zM511 188q0 42 -16.5 71.5t-43.5 51t-62.5 37t-73.5 28.5l-22 -361q109 1 163.5 43t54.5 130zM103 581q0 -36 16 -61t42 -43.5t60.5 -32t71.5 -26.5l19 315q-54 0 -93 -12t-65 -32t-38.5 -47.5t-12.5 -60.5z" />
    <glyph glyph-name="zero.lf" horiz-adv-x="642" 
d="M577 377q0 -108 -14.5 -182t-45.5 -120t-79.5 -66t-115.5 -20q-69 0 -117.5 20t-80 66t-46 120t-14.5 182t14.5 181t46 118t80 64.5t117.5 19.5q67 0 115.5 -19.5t79.5 -64.5t45.5 -118t14.5 -181zM546 377q0 105 -13.5 173.5t-41 109t-69.5 57t-100 16.5t-101 -16.5
t-71 -57t-41.5 -109t-13.5 -173.5t13.5 -174.5t41.5 -111t71 -58t101 -16.5t100 16.5t69.5 57.5t41 110.5t13.5 175.5z" />
    <glyph glyph-name="one.lf" horiz-adv-x="477" 
d="M317 0h-32v626l2 81l-2 1l-63 -51l-116 -89l-5 29l198 157h18v-754z" />
    <glyph glyph-name="two.lf" horiz-adv-x="648" 
d="M552 566q0 -65 -31.5 -128.5t-87 -129t-131 -134t-164.5 -143.5v-3h424l-2 -28h-468v22q77 71 154 140.5t138 137.5t99 134t38 130q0 34 -11.5 64t-36 52.5t-63 36t-92.5 13.5q-60 0 -114 -23t-92 -59l-13 24q39 36 96.5 61t123.5 25q111 0 172 -49.5t61 -142.5z" />
    <glyph glyph-name="three.lf" horiz-adv-x="648" 
d="M569 223q0 -51 -15.5 -93.5t-47 -73t-80 -47.5t-114.5 -17q-40 0 -72.5 5t-59.5 14t-49.5 20.5t-41.5 24.5l10 26q44 -31 95 -47.5t118 -16.5q59 0 102 16t70.5 43.5t41 65.5t13.5 82q0 93 -67 131t-213 38v25q135 0 196.5 42.5t61.5 122.5q0 38 -14.5 65.5t-40.5 45.5
t-62.5 26.5t-80.5 8.5q-66 0 -115.5 -21.5t-91.5 -58.5l-13 22q35 35 91.5 60.5t129.5 25.5q105 0 165 -43t60 -129q0 -42 -13 -72.5t-36 -51.5t-53.5 -33.5t-64.5 -18.5v-3q92 -12 141.5 -54.5t49.5 -129.5z" />
    <glyph glyph-name="four.lf" horiz-adv-x="652" 
d="M476 188v-188h-30v188h-362l-3 19l353 543h42v-535h112l-2 -27h-110zM449 645l2 81l-2 1l-43 -69l-244 -376l-44 -64l1 -3h328z" />
    <glyph glyph-name="five.lf" horiz-adv-x="613" 
d="M549 253q0 -132 -62 -196.5t-183 -64.5q-68 0 -116.5 17t-89.5 47l9 28q42 -30 89 -48t107 -18q107 0 161.5 57.5t54.5 174.5q0 101 -50 146t-156 45q-60 0 -111.5 -15t-86.5 -37l-17 11l29 350h389l2 -28h-366l-20 -221l-9 -80l2 -2q39 25 91.5 37t99.5 12
q119 0 176 -53t57 -162z" />
    <glyph glyph-name="six.lf" horiz-adv-x="620" 
d="M552 252q0 -127 -58.5 -193.5t-181.5 -66.5q-61 0 -107 18t-77.5 59t-47.5 109t-16 168q0 109 19.5 187t57 128t92.5 73.5t126 23.5q42 0 78.5 -7t77.5 -24l-5 -27q-37 15 -71 22t-77 7q-128 0 -196.5 -84.5t-72.5 -271.5l3 -2q45 46 104.5 70.5t121.5 24.5
q122 0 176 -52.5t54 -161.5zM522 252q0 99 -49 144t-155 45q-29 0 -60 -7t-60.5 -20.5t-56 -32t-45.5 -42.5q1 -87 14 -148t39 -99.5t66.5 -56t96.5 -17.5q105 0 157.5 59.5t52.5 174.5z" />
    <glyph glyph-name="seven.lf" horiz-adv-x="634" 
d="M568 726l-347 -726h-37l353 722h-460l2 28h489v-24z" />
    <glyph glyph-name="eight.lf" horiz-adv-x="625" 
d="M64 193q0 41 14 73.5t38 58t56.5 44.5t70.5 32v3q-31 10 -58 24t-47.5 34t-32 48.5t-11.5 67.5q0 84 50.5 131.5t168.5 47.5q112 0 165 -44t53 -135q0 -66 -39 -113.5t-115 -73.5v-3q36 -11 69.5 -25t59 -36.5t40.5 -54.5t15 -78q0 -103 -63 -152.5t-185 -49.5
q-130 0 -189.5 49t-59.5 152zM530 194q0 52 -23 84.5t-60 52.5t-82.5 33t-90.5 27q-38 -15 -71 -33t-57 -42t-38 -54t-14 -69q0 -42 11.5 -75t38 -55t68.5 -33.5t102 -11.5q99 0 157.5 42.5t58.5 133.5zM123 577q0 -44 18 -72.5t48.5 -48t70.5 -32.5t85 -25
q85 32 121.5 74.5t36.5 102.5q0 78 -46 117t-144 39t-144 -40t-46 -115z" />
    <glyph glyph-name="nine.lf" horiz-adv-x="618" 
d="M554 421q0 -117 -17.5 -198.5t-53 -133t-87.5 -74.5t-121 -23q-44 0 -80.5 7t-78.5 26l6 25q37 -16 71.5 -23.5t77.5 -7.5q63 0 110 21t79 67.5t49 120.5t19 181l-2 1q-44 -44 -100 -64.5t-118 -20.5q-65 0 -111 15t-75.5 43.5t-43.5 68.5t-14 90q0 100 57.5 158
t177.5 58t187.5 -83.5t67.5 -253.5zM524 438q-1 77 -17.5 132.5t-45.5 91.5t-70.5 53t-92.5 17q-102 0 -152.5 -49t-50.5 -141q0 -88 51.5 -140t161.5 -52q63 0 118.5 19.5t97.5 68.5z" />
    <glyph glyph-name="cent.lf" horiz-adv-x="658" 
d="M500 531q-29 16 -65 26t-74 10q-109 0 -157.5 -63t-48.5 -202q0 -80 13 -135t39 -89t64 -49t89 -15q40 0 77.5 11.5t66.5 35.5l5 -27q-26 -20 -63.5 -32.5t-79.5 -14.5l-5 -150h-28l6 150q-109 4 -162 77.5t-53 237.5q0 149 54.5 219t172.5 72l7 140h28l-7 -141
q35 -2 67 -11t58 -22z" />
    <glyph glyph-name="sterling.lf" horiz-adv-x="653" 
d="M98 393h55q-10 41 -19 78t-9 83q0 42 12.5 79t41 65t75 44t114.5 16q54 0 103.5 -12.5t86.5 -33.5l-7 -26q-32 19 -81 32t-101 13q-57 0 -97.5 -13.5t-66 -37t-37 -55.5t-11.5 -69q0 -42 8.5 -81t18.5 -82h284v-27h-278q7 -32 12 -67.5t5 -76.5q0 -71 -22 -120t-60 -77
l1 -2q28 4 54 6.5t54.5 4t60 2t70.5 0.5q60 0 120.5 -4t117.5 -9l-4 -28q-44 4 -76 6.5t-59 4.5t-53 3t-57 1q-36 0 -70 -1t-67.5 -3t-69 -4.5t-74.5 -6.5l-1 25q53 24 78.5 78.5t25.5 122.5q0 45 -4.5 80t-11.5 65h-60z" />
    <glyph glyph-name="currency.lf" horiz-adv-x="554" 
d="M114 358q0 29 10 56t28 48l-65 65l19 19l65 -65q21 18 48 28.5t57 10.5t57 -10.5t48 -29.5l68 66l19 -18l-68 -68q17 -21 27 -47t10 -55t-9.5 -55.5t-26.5 -46.5l66 -66l-19 -19l-66 65q-44 -39 -106 -39q-30 0 -57 10t-49 28l-65 -65l-19 19l66 65q-38 44 -38 104z
M140 359q0 -29 10.5 -53.5t29 -42.5t43 -28.5t52.5 -10.5q29 0 54 10.5t43 28.5t28.5 42.5t10.5 53.5q0 28 -10.5 52.5t-28.5 43t-43 29t-54 10.5q-28 0 -52.5 -10.5t-43 -29t-29 -43t-10.5 -52.5z" />
    <glyph glyph-name="yen.lf" horiz-adv-x="728" 
d="M342 312l-254 438h40l198 -351l38 -71h3l37 71l197 351h37l-247 -438h126v-26h-134v-62h135v-26h-135v-198h-33v198h-141v26h141v62h-141v26h133z" />
    <glyph glyph-name="franc.lf" horiz-adv-x="616" 
d="M129 157v593h425l2 -30h-394v-313h313v-28h-313v-222h107v-25h-107v-132h-33v132h-103v25h103z" />
    <glyph glyph-name="lira.lf" horiz-adv-x="685" 
d="M99 441h42q-7 26 -11.5 53.5t-4.5 59.5q0 42 12.5 79t41 65t75 44t114.5 16q54 0 103.5 -12.5t86.5 -33.5l-7 -26q-32 19 -81 32t-101 13q-57 0 -97.5 -13.5t-66 -37t-37 -55.5t-11.5 -69q0 -30 4.5 -58t11.5 -57h315v-28h-308q5 -19 8.5 -38.5t7.5 -40.5h292v-28h-287
q2 -20 4 -40.5t2 -43.5q0 -71 -22 -120t-60 -77l1 -2q28 4 54 6.5t54.5 4t60 2t70.5 0.5q60 0 120.5 -4t117.5 -9l-4 -28q-34 3 -64.5 5.5t-60 5t-59 3.5t-61.5 1q-36 0 -70 -1t-67.5 -3t-69 -4.5t-74.5 -6.5l-1 25q53 24 78.5 78.5t25.5 122.5q0 46 -6 85h-69l-1 28h66
q-4 22 -8.5 41t-9.5 38h-48z" />
    <glyph glyph-name="peseta.lf" horiz-adv-x="764" 
d="M363 547q0 -59 -9 -99t-27.5 -65.5t-48 -36.5t-70.5 -11h-89v-335h-30v750h119q39 0 68.5 -9.5t48.5 -32.5t28.5 -62t9.5 -99zM333 547q0 50 -7 83.5t-22 54t-39 29t-57 8.5h-89v-359h89q32 0 55.5 8t39 29t23 56.5t7.5 90.5zM456 436v-357q0 -36 11 -49.5t28 -13.5
q11 0 22 7l3 -24q-5 -4 -14 -6t-17 -2q-30 0 -46 20t-16 68v357h-36v25h36l6 113l23 3v-116h67v-25h-67zM713 118q0 -69 -21.5 -99t-64.5 -30q-20 0 -37 6.5t-28 19.5l2 27q14 -15 29 -21t32 -6q32 0 46.5 25.5t14.5 76.5q0 35 -9.5 56t-23 35.5t-30 26t-30 26t-23 36.5
t-9.5 58q0 56 23 84.5t63 28.5q31 0 58 -19l-3 -26q-13 8 -26 13t-28 5q-29 0 -44 -22t-15 -63q0 -31 9 -49.5t23 -31.5t30 -24t30 -27t23 -40.5t9 -65.5z" />
    <glyph glyph-name="Euro.lf" horiz-adv-x="708" 
d="M485 312h-318q12 -155 78.5 -224t191.5 -69q54 0 107 17t98 47l5 -27q-40 -29 -96.5 -46.5t-115.5 -17.5q-75 0 -128.5 19.5t-89.5 59t-55 99.5t-25 142h-95v26h94q-1 13 -1 25v57h-93v27h95q23 311 302 311q52 0 103 -11t83 -31l-9 -24q-22 10 -42 17.5t-41 12t-43.5 7
t-49.5 2.5q-125 0 -193 -73t-80 -211h367l-8 -27h-361v-58q0 -12 1 -24h327z" />
    <glyph glyph-name="numbersign.tosf" horiz-adv-x="592" 
d="M172 245l29 171h-145v26h148l29 207h26l-29 -207h165l29 207h25l-29 -207h117v-26h-120l-28 -171h148v-25h-151l-30 -220h-26l31 220h-165l-30 -220h-26l29 220h-114v25h117zM199 245h165l28 171h-166z" />
    <glyph glyph-name="dollar.tosf" horiz-adv-x="592" 
d="M494 157q0 -36 -11 -66t-34 -52.5t-58.5 -35.5t-84.5 -15l-5 -153h-30l6 152q-54 2 -102 19t-80 46l8 28q34 -32 84 -49t103 -17q46 0 79.5 11t54.5 30t31 45t10 55q0 45 -27 71t-67.5 42.5t-88 29t-88 30t-67.5 45.5t-27 75q0 66 50.5 104t145.5 40l8 142h29l-7 -143
q77 -5 143 -36l-5 -27q-42 19 -81 28t-81 9q-78 0 -124.5 -31.5t-46.5 -83.5q0 -31 15.5 -51.5t41 -35t58 -24.5t67 -20t67 -22t58 -30t41 -44.5t15.5 -65.5z" />
    <glyph glyph-name="zero.tosf" horiz-adv-x="592" 
d="M540 306q0 -85 -14 -145t-43.5 -98t-75.5 -55.5t-110 -17.5q-65 0 -111.5 17.5t-76.5 55.5t-44 98t-14 145t14 145.5t44 99t76.5 56t111.5 17.5q64 0 110.5 -17.5t75.5 -56t43 -99t14 -145.5zM510 306q0 82 -12.5 137.5t-39 89.5t-66.5 48.5t-95 14.5t-95.5 -14.5
t-67.5 -48.5t-40 -89.5t-13 -137.5q0 -81 13 -136.5t40 -89.5t67.5 -48.5t95.5 -14.5t95 15t66.5 48.5t39 89t12.5 136.5z" />
    <glyph glyph-name="one.tosf" horiz-adv-x="592" 
d="M107 27h212v471l2 80l-2 2l-68 -44l-174 -108l-5 29l261 161h16v-591h187v-27h-429v27z" />
    <glyph glyph-name="two.tosf" horiz-adv-x="592" 
d="M509 458q0 -54 -29 -104.5t-80 -101.5t-121.5 -105.5t-154.5 -115.5v-3h395l-3 -28h-438v22q73 59 145 114.5t129 109t92 106t35 105.5q0 28 -10.5 53t-33.5 44t-59 30t-87 11q-54 0 -105 -19.5t-88 -51.5l-13 24q38 31 92 53.5t114 22.5q106 0 163 -44t57 -122z" />
    <glyph glyph-name="three.tosf" horiz-adv-x="592" 
d="M516 148q0 -59 -25.5 -106.5t-73.5 -81.5t-117.5 -53.5t-157.5 -20.5l-2 26q90 1 155.5 20t108 50.5t63.5 74t21 91.5q0 73 -48.5 112t-142.5 39q-16 0 -37.5 -1.5t-35.5 -3.5l-2 23q70 7 115.5 21t72.5 33.5t37.5 45t10.5 55.5q0 28 -9.5 51t-30.5 39.5t-54 25.5t-80 9
q-60 0 -108.5 -17t-88.5 -49l-11 21q33 32 89 52t120 20q52 0 89.5 -11t62 -31t36 -47.5t11.5 -59.5q0 -124 -142 -156v-2q93 -9 133.5 -53t40.5 -116z" />
    <glyph glyph-name="four.tosf" horiz-adv-x="592" 
d="M463 78v-185l-26 -3v188h-397l-3 19l398 525l28 -3v-515h106l-3 -26h-103zM438 502l2 81l-2 1l-48 -66l-263 -350l-49 -61l1 -3h357z" />
    <glyph glyph-name="five.tosf" horiz-adv-x="592" 
d="M519 168q0 -60 -23.5 -110.5t-71 -88t-118 -59.5t-163.5 -25l-2 28q86 3 151.5 22.5t109.5 52.5t66 78.5t22 99.5q0 79 -49 121t-149 42q-58 0 -105 -15t-81 -37l-17 11l29 326h370l3 -30h-349l-18 -194l-9 -80l2 -2q37 23 86.5 35.5t94.5 12.5q113 0 167 -49.5
t54 -138.5z" />
    <glyph glyph-name="six.tosf" horiz-adv-x="592" 
d="M530 242q0 -123 -55.5 -186.5t-172.5 -63.5q-54 0 -97.5 17t-73.5 56.5t-46 103.5t-16 159q0 103 27.5 178.5t77 125.5t119 75.5t152.5 29.5l5 -26q-164 -6 -256.5 -96t-98.5 -256l3 -2q42 45 98.5 68t115.5 23q115 0 166.5 -49.5t51.5 -156.5zM500 243q0 94 -46.5 137
t-144.5 43q-27 0 -56.5 -6.5t-57.5 -19.5t-53 -31t-43 -40q1 -85 15 -143.5t40 -94.5t63 -52t85 -16q98 0 148 56t50 167z" />
    <glyph glyph-name="seven.tosf" horiz-adv-x="592" 
d="M531 591l-334 -696h-34l333 689h-432l3 30h464v-23z" />
    <glyph glyph-name="eight.tosf" horiz-adv-x="592" 
d="M67 160q0 33 12 60t32.5 48t48.5 36.5t61 25.5v3q-27 7 -50 18t-40.5 27.5t-27 39.5t-9.5 55q0 34 11.5 61.5t36 47.5t63.5 31t95 11q106 0 155 -39t49 -112q0 -111 -133 -152v-3q32 -8 61.5 -19.5t51.5 -29.5t35 -44t13 -63q0 -86 -59 -128t-173 -42q-123 0 -178 43
t-55 125zM502 160q0 45 -22.5 71.5t-58.5 42.5t-80 26t-87 21q-33 -11 -62 -26t-50.5 -34.5t-34 -44t-12.5 -55.5q0 -35 10.5 -61.5t35 -44.5t63.5 -27.5t96 -9.5q92 0 147 34t55 108zM122 472q0 -36 17 -59.5t46 -39t67.5 -25.5t82.5 -20q77 25 110 59t33 83q0 63 -41 95.5
t-138 32.5q-50 0 -83.5 -8.5t-54.5 -25t-30 -40t-9 -52.5z" />
    <glyph glyph-name="nine.tosf" horiz-adv-x="592" 
d="M521 318q0 -106 -27.5 -185.5t-76 -133t-116 -81.5t-148.5 -31l-2 26q74 4 135 31t105 75t70 118t31 161l-2 1q-33 -51 -84 -72.5t-117 -21.5q-103 0 -159 52.5t-56 157.5q0 94 52.5 151t161.5 57q54 0 97.5 -17t73.5 -54t46 -95t16 -139zM490 335q-2 132 -48.5 196
t-154.5 64q-91 0 -136.5 -48t-45.5 -132q0 -87 46.5 -135t142.5 -48q64 0 115.5 24.5t80.5 78.5z" />
    <glyph glyph-name="cent.tosf" horiz-adv-x="592" 
d="M511 524q-34 18 -75 28.5t-86 10.5q-124 0 -179 -66t-55 -199q0 -77 15 -131.5t44.5 -88.5t73.5 -49.5t101 -15.5q46 0 89 13t77 39l5 -27q-30 -21 -75 -36t-95 -16l-6 -152h-28l5 153q-119 6 -177.5 80.5t-58.5 229.5q0 142 59.5 216t189.5 77l8 144h28l-7 -144
q43 -2 81 -12t70 -25z" />
    <glyph glyph-name="sterling.tosf" horiz-adv-x="592" 
d="M66 341h49q-5 20 -9.5 36t-7.5 31.5t-5 31t-2 34.5q0 37 11.5 70t37.5 58t69 39.5t106 14.5q51 0 97.5 -11t81.5 -31l-7 -24q-31 18 -76.5 29t-94.5 11q-53 0 -90.5 -12t-61.5 -33t-35 -49t-11 -61q0 -34 6.5 -62.5t17.5 -71.5h267v-24h-261q7 -28 11.5 -59t4.5 -67
q0 -60 -19.5 -102t-53.5 -67l2 -3q25 4 49.5 7t50.5 4.5t55.5 2t65.5 0.5q54 0 110 -4t109 -9l-3 -24q-41 3 -71 5.5t-55.5 4t-49.5 2.5t-51 1q-67 0 -127 -3t-132 -10l-1 22q48 21 71 68t23 104q0 39 -4.5 70t-11.5 57h-53z" />
    <glyph glyph-name="currency.tosf" horiz-adv-x="592" 
d="M139 332q0 29 10 54t27 46l-61 61l17 18l61 -61q20 17 46.5 27.5t55.5 10.5t55 -10.5t46 -29.5l64 63l18 -17l-64 -64q17 -20 26 -45t9 -53t-9 -52.5t-25 -44.5l63 -64l-18 -17l-62 63q-44 -39 -103 -39q-29 0 -55.5 10t-46.5 27l-62 -61l-17 17l61 61q-36 42 -36 100z
M167 332q0 -27 10 -50.5t27.5 -40.5t40.5 -27t50 -10t50 10t40 27t27 40.5t10 50.5q0 26 -10 49t-27 40.5t-40 27.5t-50 10t-50 -10t-40.5 -27.5t-27.5 -40.5t-10 -49z" />
    <glyph glyph-name="yen.tosf" horiz-adv-x="592" 
d="M274 276l-229 373h36l215 -356l214 356h34l-223 -373h116v-25h-125v-66h125v-24h-125v-161h-29v161h-132v24h132v66h-132v25h123z" />
    <glyph glyph-name="uni2007.tosf" horiz-adv-x="592" 
 />
    <glyph glyph-name="franc.tosf" horiz-adv-x="592" 
d="M137 140v509h405l1 -27h-377v-269h299l1 -27h-300v-186h100v-23h-100v-117h-29v117h-98v23h98z" />
    <glyph glyph-name="lira.tosf" horiz-adv-x="592" 
d="M74 382h35q-6 22 -9.5 44t-3.5 48q0 37 11.5 70t38 58t69 39.5t105.5 14.5q51 0 97.5 -11t81.5 -31l-7 -24q-30 18 -75.5 29t-94.5 11q-54 0 -91.5 -12t-61 -33t-34.5 -49t-11 -61q0 -24 4 -47t9 -46h298v-26h-291q4 -17 8 -33.5t8 -34.5h275v-25h-271q6 -33 6 -72
q0 -60 -20 -102t-54 -67l2 -3q26 4 50.5 7t50.5 4.5t55 2t65 0.5q54 0 110.5 -4t108.5 -9l-3 -24q-64 6 -122.5 9.5t-103.5 3.5q-67 0 -127 -3t-133 -10v22q48 21 71 68t23 104q0 20 -2 38t-4 35h-62l-1 25h59q-4 19 -8 35.5t-9 32.5h-41z" />
    <glyph glyph-name="peseta.tosf" horiz-adv-x="592" 
d="M499 453q-3 -91 -49.5 -131.5t-147.5 -40.5h-170v-281h-29v453h-74v21h74v175h199q102 0 149 -41t49 -134h74v-21h-75zM132 474h339q-2 81 -43 115.5t-126 34.5h-170v-150zM302 305q82 0 123.5 32t44.5 116h-338v-148h170z" />
    <glyph glyph-name="Euro.tosf" horiz-adv-x="592" 
d="M535 594q-71 39 -168 39q-115 0 -172.5 -55t-69.5 -169h358l-12 -28h-349q-1 -11 -1 -23v-50q0 -12 1 -24h319l-13 -26h-304q13 -132 74.5 -187.5t170.5 -55.5q46 0 92 14t83 43l6 -29q-34 -25 -82.5 -41t-102.5 -16q-123 0 -190.5 65t-80.5 207h-54v26h52q-1 12 -1 24
v50q0 12 1 23h-52v28h55q14 126 79 188.5t190 62.5q52 0 99.5 -11t83.5 -31z" />
    <glyph glyph-name="f_i.sc" horiz-adv-x="845" 
d="M144 621v-268h328v-28h-328v-325h-32v649h395l2 -28h-365zM684 649h32v-649h-32v649z" />
    <glyph glyph-name="f_l.sc" horiz-adv-x="1092" 
d="M144 621v-268h328v-28h-328v-325h-32v649h395l2 -28h-365zM1061 28l-2 -28h-392v649h31v-621h363z" />
    <glyph glyph-name="exclam.sc" horiz-adv-x="297" 
d="M136 158l-7 491h34l-6 -491h-21zM179 19q0 -28 -30 -28q-31 0 -31 28t31 28q30 0 30 -28z" />
    <glyph glyph-name="ampersand.sc" horiz-adv-x="642" 
d="M617 -9q-37 23 -74.5 51t-74.5 59q-37 -48 -88.5 -80t-118.5 -32q-46 0 -78 13t-52 35.5t-29 51.5t-9 62q0 36 11 66.5t29 56.5t42 47.5t50 41.5q-27 43 -42.5 83.5t-15.5 77.5q0 60 33 97.5t102 37.5q66 0 99.5 -29t33.5 -71q0 -33 -15 -60t-39.5 -51t-55.5 -46t-62 -45
q37 -54 89 -109t111 -106q29 43 47 90t24 89h27q-4 -38 -23 -92t-54 -105q72 -60 144 -109zM265 16q54 0 100 29.5t81 74.5q-60 51 -113.5 107t-92.5 113q-23 -18 -44 -38t-37 -43t-25 -50t-9 -58q0 -64 38.5 -99.5t101.5 -35.5zM196 523q0 -32 13.5 -68.5t38.5 -74.5
q29 21 57.5 41t50.5 41t35.5 44t13.5 50q0 39 -27 59t-78 20q-47 0 -75.5 -29t-28.5 -83z" />
    <glyph glyph-name="question.sc" horiz-adv-x="506" 
d="M440 513q0 -74 -47.5 -126.5t-133.5 -97.5l-3 -131h-23l-4 147q43 25 76 48t55.5 47.5t34 51.5t11.5 60q0 65 -40 93.5t-108 28.5q-59 0 -102 -19.5t-83 -55.5l-16 21q35 35 87 58.5t118 23.5q90 0 134 -38.5t44 -110.5zM276 19q0 -28 -29 -28q-31 0 -31 28t31 28
q29 0 29 -28z" />
    <glyph glyph-name="grave.sc" 
d="M216 708l-111 136h45l93 -136h-27z" />
    <glyph glyph-name="a.sc" horiz-adv-x="644" 
d="M497 188h-353l-77 -188h-35l271 649h37l272 -649h-38zM292 546l-137 -332h332l-135 332l-28 76h-3z" />
    <glyph glyph-name="b.sc" horiz-adv-x="619" 
d="M554 180q0 -42 -10 -75.5t-33 -57t-60 -35.5t-90 -12h-249v649h231q90 0 135 -38t45 -119q0 -69 -31.5 -103.5t-75.5 -42.5v-3q63 -10 100.5 -48.5t37.5 -114.5zM524 182q0 73 -41.5 111t-124.5 38h-216v-304h220q76 0 119 34.5t43 120.5zM493 488q0 71 -37 102.5
t-114 31.5h-200v-268h212q139 0 139 134z" />
    <glyph glyph-name="c.sc" horiz-adv-x="569" 
d="M501 596q-29 15 -70.5 25.5t-86.5 10.5q-63 0 -110.5 -16t-79 -51.5t-47 -92.5t-15.5 -140q0 -88 16 -148.5t47.5 -97.5t79.5 -53.5t112 -16.5q47 0 86 11t71 28l7 -25q-30 -17 -74 -29t-92 -12q-75 0 -128.5 20t-88.5 62t-51.5 107t-16.5 154q0 171 68.5 249t215.5 78
q45 0 90.5 -10.5t74.5 -24.5z" />
    <glyph glyph-name="d.sc" horiz-adv-x="675" 
d="M615 326q0 -87 -17 -149t-52 -101t-88 -57.5t-126 -18.5h-220v649h219q75 0 128.5 -18.5t88 -57.5t51 -100t16.5 -147zM583 326q0 82 -15 138.5t-45.5 91t-78 50t-113.5 15.5h-188v-593h188q63 0 110 14.5t78.5 49t47.5 92t16 142.5z" />
    <glyph glyph-name="e.sc" horiz-adv-x="582" 
d="M528 28l-3 -28h-413v649h397l2 -28h-368v-266h320v-25h-320v-302h385z" />
    <glyph glyph-name="f.sc" horiz-adv-x="555" 
d="M144 621v-268h328v-28h-328v-325h-32v649h395l2 -28h-365z" />
    <glyph glyph-name="g.sc" horiz-adv-x="628" 
d="M550 29q-37 -19 -87 -29.5t-108 -10.5q-75 0 -130.5 18t-92 58t-54.5 103.5t-18 153.5q0 91 17.5 155.5t54 105t92 59t131.5 18.5q49 0 97 -10t80 -27l-6 -25q-35 15 -77 24.5t-93 9.5q-65 0 -114.5 -15t-82.5 -51t-50 -95.5t-17 -148.5q0 -83 15 -141t47 -94.5
t81.5 -53.5t118.5 -17q97 0 166 32v288h30v-307z" />
    <glyph glyph-name="h.sc" horiz-adv-x="704" 
d="M559 0v328h-415v-328h-32v649h32v-293h415v293h33v-649h-33z" />
    <glyph glyph-name="i.sc" horiz-adv-x="290" 
d="M129 649h32v-649h-32v649z" />
    <glyph glyph-name="j.sc" horiz-adv-x="468" 
d="M369 189q0 -53 -13 -90.5t-36.5 -62t-56.5 -36t-72 -11.5q-42 0 -79.5 12t-61.5 35l7 28q26 -23 61.5 -35.5t68.5 -12.5q71 0 110.5 43t39.5 129v461h32v-460z" />
    <glyph glyph-name="k.sc" horiz-adv-x="634" 
d="M548 0l-278 328h-127v-328h-31v649h31v-293h130l263 293h44l-276 -306l292 -343h-48z" />
    <glyph glyph-name="l.sc" horiz-adv-x="537" 
d="M506 28l-2 -28h-392v649h31v-621h363z" />
    <glyph glyph-name="m.sc" horiz-adv-x="837" 
d="M152 649l235 -541l31 -74h3l30 74l236 541h38v-649h-29v526l2 81l-3 1l-31 -75l-233 -533h-25l-232 522l-32 75l-2 -1l1 -81v-515h-29v649h40z" />
    <glyph glyph-name="n.sc" horiz-adv-x="709" 
d="M572 0l-385 547l-45 67l-2 -1l1 -81v-532h-29v649h37l373 -532l46 -67l2 1l-2 80v519h29v-650h-25z" />
    <glyph glyph-name="o.sc" horiz-adv-x="657" 
d="M597 324q0 -90 -14 -153.5t-46 -104t-83 -59t-125 -18.5t-125 18.5t-83 59t-46.5 104t-14.5 153.5t14.5 154t46.5 104t83 58.5t125 18.5t125 -18.5t83 -58.5t46 -104t14 -154zM564 324q0 88 -13 147t-41.5 95t-73 51t-107.5 15t-108 -15t-73.5 -51t-42 -95t-13.5 -147
q0 -87 13.5 -146t42 -95.5t73.5 -52t108 -15.5t107.5 15.5t73 52t41.5 95.5t13 146z" />
    <glyph glyph-name="p.sc" horiz-adv-x="595" 
d="M537 466q0 -97 -49 -142t-160 -45h-184v-279h-32v649h216q109 0 159 -43t50 -140zM505 466q0 84 -43.5 120t-133.5 36h-184v-318h184q90 0 133.5 35.5t43.5 126.5z" />
    <glyph glyph-name="q.sc" horiz-adv-x="680" 
d="M608 324q0 -86 -12.5 -147.5t-41 -101.5t-74 -60t-110.5 -23l183 -119l-40 -10l-191 126q-69 2 -116.5 22t-77.5 60.5t-43.5 103t-13.5 149.5q0 90 14.5 154t46.5 104t83 58.5t125 18.5t125 -18.5t83 -58.5t46 -104t14 -154zM575 324q0 88 -13 147t-41.5 95t-73 51
t-107.5 15t-108 -15t-73.5 -51t-42 -95t-13.5 -147q0 -87 13.5 -146t42 -95.5t73.5 -52t108 -15.5t107.5 15.5t73 52t41.5 95.5t13 146z" />
    <glyph glyph-name="r.sc" horiz-adv-x="611" 
d="M515 481q0 -81 -39 -122t-117 -47l201 -312h-43l-193 307h-180v-307h-32v649h218q98 0 141.5 -42.5t43.5 -125.5zM483 481q0 74 -35.5 107.5t-117.5 33.5h-186v-289h181q85 0 121.5 36t36.5 112z" />
    <glyph glyph-name="s.sc" horiz-adv-x="530" 
d="M472 175q0 -86 -53.5 -136t-161.5 -50q-60 0 -107.5 13.5t-85.5 38.5l9 27q40 -27 84 -40.5t101 -13.5q90 0 136.5 43.5t46.5 116.5q0 37 -16 62t-41.5 42t-59 28t-68 21.5t-67.5 23t-58.5 31t-41.5 46t-16 68.5q0 34 12 63.5t37.5 51.5t63.5 35t91 13q102 0 172 -38
l-7 -25q-40 17 -78.5 27t-86.5 10q-46 0 -79 -11.5t-54 -30.5t-30.5 -43.5t-9.5 -50.5q0 -35 16 -58.5t41.5 -39t58.5 -26t67.5 -21t68 -23.5t59 -32.5t41.5 -49t16 -72.5z" />
    <glyph glyph-name="t.sc" horiz-adv-x="527" 
d="M279 621v-621h-32v621h-228l1 28h487l1 -28h-229z" />
    <glyph glyph-name="u.sc" horiz-adv-x="697" 
d="M598 246q0 -70 -17.5 -119t-49.5 -79.5t-78 -44.5t-104 -14t-104 14t-78.5 44.5t-49.5 79.5t-17 119v404h31v-404q0 -120 54.5 -175t163.5 -55q108 0 162 56t54 174v404h33v-404z" />
    <glyph glyph-name="v.sc" horiz-adv-x="635" 
d="M596 649l-258 -649h-40l-259 649h38l212 -546l28 -76h3l27 76l212 546h37z" />
    <glyph glyph-name="w.sc" horiz-adv-x="922" 
d="M481 649l154 -540l21 -78h3l18 78l140 540h34l-172 -649h-43l-153 539l-20 79h-3l-21 -79l-153 -539h-42l-173 649h35l140 -542l19 -78h3l20 78l154 542h39z" />
    <glyph glyph-name="x.sc" horiz-adv-x="644" 
d="M345 338l242 -338h-43l-225 316l-219 -316h-43l236 338l-226 311h46l207 -291l205 291h42z" />
    <glyph glyph-name="y.sc" horiz-adv-x="605" 
d="M80 649l224 -382l224 382h39l-246 -413v-236h-35v236l-247 413h41z" />
    <glyph glyph-name="z.sc" horiz-adv-x="581" 
d="M61 0v20l371 535l47 64l-1 2h-403l3 28h437v-24l-367 -531l-47 -63l1 -3h414l-2 -28h-453z" />
    <glyph glyph-name="exclamdown.sc" horiz-adv-x="303" 
d="M165 474l5 -571h-36l7 571h24zM118 633q0 30 33 30t33 -30t-33 -30t-33 30z" />
    <glyph glyph-name="dieresis.sc" 
d="M153 786q0 -27 -24 -27q-12 0 -18.5 6t-6.5 21q0 26 25 26q24 0 24 -26zM292 786q0 -27 -24 -27q-11 0 -18 6t-7 21q0 26 25 26q24 0 24 -26z" />
    <glyph glyph-name="macron.sc" 
d="M321 747h-244v22h244v-22z" />
    <glyph glyph-name="acute.sc" 
d="M313 844l-127 -136h-30l110 136h47z" />
    <glyph glyph-name="cedilla.sc" 
d="M202 -6l24 1l-41 -188h-38z" />
    <glyph glyph-name="questiondown.sc" horiz-adv-x="543" 
d="M66 64q0 43 13 78.5t38 67t61 60t82 55.5l3 148h25l3 -162q-46 -30 -82 -58t-61 -57.5t-38 -61.5t-13 -70q0 -75 44 -107.5t117 -32.5q64 0 113 23.5t90 61.5l14 -20q-36 -39 -91.5 -65t-126.5 -26q-97 0 -144 42.5t-47 123.5zM240 633q0 30 32 30q34 0 34 -30t-34 -30
q-32 0 -32 30z" />
    <glyph glyph-name="germandbls.sc" horiz-adv-x="1060" 
d="M472 175q0 -86 -53.5 -136t-161.5 -50q-60 0 -107.5 13.5t-85.5 38.5l9 27q40 -27 84 -40.5t101 -13.5q90 0 136.5 43.5t46.5 116.5q0 37 -16 62t-41.5 42t-59 28t-68 21.5t-67.5 23t-58.5 31t-41.5 46t-16 68.5q0 34 12 63.5t37.5 51.5t63.5 35t91 13q102 0 172 -38
l-7 -25q-40 17 -78.5 27t-86.5 10q-46 0 -79 -11.5t-54 -30.5t-30.5 -43.5t-9.5 -50.5q0 -35 16 -58.5t41.5 -39t58.5 -26t67.5 -21t68 -23.5t59 -32.5t41.5 -49t16 -72.5zM1002 175q0 -86 -53.5 -136t-161.5 -50q-60 0 -107.5 13.5t-85.5 38.5l9 27q40 -27 84 -40.5
t101 -13.5q90 0 136.5 43.5t46.5 116.5q0 37 -16 62t-41.5 42t-59 28t-68 21.5t-67.5 23t-58.5 31t-41.5 46t-16 68.5q0 34 12 63.5t37.5 51.5t63.5 35t91 13q102 0 172 -38l-7 -25q-40 17 -78.5 27t-86.5 10q-46 0 -79 -11.5t-54 -30.5t-30.5 -43.5t-9.5 -50.5
q0 -35 16 -58.5t41.5 -39t58.5 -26t67.5 -21t68 -23.5t59 -32.5t41.5 -49t16 -72.5z" />
    <glyph glyph-name="agrave.sc" horiz-adv-x="644" 
d="M497 188h-353l-77 -188h-35l271 649h37l272 -649h-38zM292 546l-137 -332h332l-135 332l-28 76h-3zM340 708l-111 136h45l93 -136h-27z" />
    <glyph glyph-name="aacute.sc" horiz-adv-x="644" 
d="M497 188h-353l-77 -188h-35l271 649h37l272 -649h-38zM292 546l-137 -332h332l-135 332l-28 76h-3zM435 844l-127 -136h-30l110 136h47z" />
    <glyph glyph-name="acircumflex.sc" horiz-adv-x="644" 
d="M497 188h-353l-77 -188h-35l271 649h37l272 -649h-38zM292 546l-137 -332h332l-135 332l-28 76h-3zM337 844l109 -136h-33l-92 120l-90 -120h-32l107 136h31z" />
    <glyph glyph-name="atilde.sc" horiz-adv-x="644" 
d="M497 188h-353l-77 -188h-35l271 649h37l272 -649h-38zM292 546l-137 -332h332l-135 332l-28 76h-3zM196 754q6 30 24 51t44 21q19 0 34.5 -10.5t29 -22.5t27 -22.5t28.5 -10.5q34 0 48 51l19 -1q-5 -29 -23 -50t-45 -21q-19 0 -34 10t-29 22.5t-27.5 22.5t-28.5 10
t-27 -13.5t-20 -36.5h-20z" />
    <glyph glyph-name="adieresis.sc" horiz-adv-x="644" 
d="M497 188h-353l-77 -188h-35l271 649h37l272 -649h-38zM292 546l-137 -332h332l-135 332l-28 76h-3zM277 786q0 -27 -24 -27q-12 0 -18.5 6t-6.5 21q0 26 25 26q24 0 24 -26zM416 786q0 -27 -24 -27q-11 0 -18 6t-7 21q0 26 25 26q24 0 24 -26z" />
    <glyph glyph-name="aring.sc" horiz-adv-x="644" 
d="M246 718q0 29 21 48.5t55 19.5q33 0 54.5 -19.5t21.5 -48.5q0 -26 -16 -45t-42 -24l272 -649h-38l-77 188h-353l-77 -188h-35l271 649q-26 5 -41.5 23.5t-15.5 45.5zM292 546l-137 -332h332l-135 332l-28 76h-3zM267 717q0 -23 15 -37.5t41 -14.5q24 0 39.5 14.5
t15.5 37.5t-15.5 37.5t-39.5 14.5q-26 0 -41 -15t-15 -37z" />
    <glyph glyph-name="ae.sc" horiz-adv-x="934" 
d="M476 621l39 -266h302v-25h-299l45 -302h315l-1 -28h-345l-28 187h-323l-112 -187h-42l398 649h443l2 -28h-394zM399 550l-202 -336h303l-48 326l-10 80l-3 1z" />
    <glyph glyph-name="ccedilla.sc" horiz-adv-x="569" 
d="M338 -11q-73 1 -125.5 21.5t-86.5 62.5t-50 106t-16 153q0 171 68.5 249t215.5 78q45 0 90.5 -10.5t74.5 -24.5l-8 -28q-29 15 -70.5 25.5t-86.5 10.5q-63 0 -110.5 -16t-79 -51.5t-47 -92.5t-15.5 -140q0 -88 16 -148.5t47.5 -97.5t79.5 -53.5t112 -16.5q47 0 86 11
t71 28l7 -25q-27 -15 -66 -26.5t-82 -13.5l-40 -183h-38z" />
    <glyph glyph-name="egrave.sc" horiz-adv-x="582" 
d="M528 28l-3 -28h-413v649h397l2 -28h-368v-266h320v-25h-320v-302h385zM339 708l-111 136h45l93 -136h-27z" />
    <glyph glyph-name="eacute.sc" horiz-adv-x="582" 
d="M528 28l-3 -28h-413v649h397l2 -28h-368v-266h320v-25h-320v-302h385zM435 844l-127 -136h-30l110 136h47z" />
    <glyph glyph-name="ecircumflex.sc" horiz-adv-x="582" 
d="M528 28l-3 -28h-413v649h397l2 -28h-368v-266h320v-25h-320v-302h385zM337 844l109 -136h-33l-92 120l-90 -120h-32l107 136h31z" />
    <glyph glyph-name="edieresis.sc" horiz-adv-x="582" 
d="M528 28l-3 -28h-413v649h397l2 -28h-368v-266h320v-25h-320v-302h385zM276 786q0 -27 -24 -27q-12 0 -18.5 6t-6.5 21q0 26 25 26q24 0 24 -26zM415 786q0 -27 -24 -27q-11 0 -18 6t-7 21q0 26 25 26q24 0 24 -26z" />
    <glyph glyph-name="igrave.sc" horiz-adv-x="290" 
d="M129 649h32v-649h-32v649zM162 708l-111 136h45l93 -136h-27z" />
    <glyph glyph-name="iacute.sc" horiz-adv-x="290" 
d="M129 649h32v-649h-32v649zM258 844l-127 -136h-30l110 136h47z" />
    <glyph glyph-name="icircumflex.sc" horiz-adv-x="290" 
d="M129 649h32v-649h-32v649zM159 844l109 -136h-33l-92 120l-90 -120h-32l107 136h31z" />
    <glyph glyph-name="idieresis.sc" horiz-adv-x="290" 
d="M129 649h32v-649h-32v649zM99 786q0 -27 -24 -27q-12 0 -18.5 6t-6.5 21q0 26 25 26q24 0 24 -26zM238 786q0 -27 -24 -27q-11 0 -18 6t-7 21q0 26 25 26q24 0 24 -26z" />
    <glyph glyph-name="eth.sc" horiz-adv-x="680" 
d="M621 326q0 -87 -17 -149t-52 -101t-88 -57.5t-126 -18.5h-220v331h-96v24h96v294h219q75 0 128.5 -18.5t88 -57.5t51 -100t16.5 -147zM589 326q0 82 -15 138.5t-45.5 91t-78 50t-113.5 15.5h-188v-266h164v-24h-164v-303h188q63 0 110 14.5t78.5 49t47.5 92t16 142.5z
" />
    <glyph glyph-name="ntilde.sc" horiz-adv-x="709" 
d="M572 0l-385 547l-45 67l-2 -1l1 -81v-532h-29v649h37l373 -532l46 -67l2 1l-2 80v519h29v-650h-25zM228 754q6 30 24 51t44 21q19 0 34.5 -10.5t29 -22.5t27 -22.5t28.5 -10.5q34 0 48 51l19 -1q-5 -29 -23 -50t-45 -21q-19 0 -34 10t-29 22.5t-27.5 22.5t-28.5 10
t-27 -13.5t-20 -36.5h-20z" />
    <glyph glyph-name="ograve.sc" horiz-adv-x="657" 
d="M597 324q0 -90 -14 -153.5t-46 -104t-83 -59t-125 -18.5t-125 18.5t-83 59t-46.5 104t-14.5 153.5t14.5 154t46.5 104t83 58.5t125 18.5t125 -18.5t83 -58.5t46 -104t14 -154zM564 324q0 88 -13 147t-41.5 95t-73 51t-107.5 15t-108 -15t-73.5 -51t-42 -95t-13.5 -147
q0 -87 13.5 -146t42 -95.5t73.5 -52t108 -15.5t107.5 15.5t73 52t41.5 95.5t13 146zM348 708l-111 136h45l93 -136h-27z" />
    <glyph glyph-name="oacute.sc" horiz-adv-x="657" 
d="M597 324q0 -90 -14 -153.5t-46 -104t-83 -59t-125 -18.5t-125 18.5t-83 59t-46.5 104t-14.5 153.5t14.5 154t46.5 104t83 58.5t125 18.5t125 -18.5t83 -58.5t46 -104t14 -154zM564 324q0 88 -13 147t-41.5 95t-73 51t-107.5 15t-108 -15t-73.5 -51t-42 -95t-13.5 -147
q0 -87 13.5 -146t42 -95.5t73.5 -52t108 -15.5t107.5 15.5t73 52t41.5 95.5t13 146zM443 844l-127 -136h-30l110 136h47z" />
    <glyph glyph-name="ocircumflex.sc" horiz-adv-x="657" 
d="M597 324q0 -90 -14 -153.5t-46 -104t-83 -59t-125 -18.5t-125 18.5t-83 59t-46.5 104t-14.5 153.5t14.5 154t46.5 104t83 58.5t125 18.5t125 -18.5t83 -58.5t46 -104t14 -154zM564 324q0 88 -13 147t-41.5 95t-73 51t-107.5 15t-108 -15t-73.5 -51t-42 -95t-13.5 -147
q0 -87 13.5 -146t42 -95.5t73.5 -52t108 -15.5t107.5 15.5t73 52t41.5 95.5t13 146zM345 844l109 -136h-33l-92 120l-90 -120h-32l107 136h31z" />
    <glyph glyph-name="otilde.sc" horiz-adv-x="657" 
d="M597 324q0 -90 -14 -153.5t-46 -104t-83 -59t-125 -18.5t-125 18.5t-83 59t-46.5 104t-14.5 153.5t14.5 154t46.5 104t83 58.5t125 18.5t125 -18.5t83 -58.5t46 -104t14 -154zM564 324q0 88 -13 147t-41.5 95t-73 51t-107.5 15t-108 -15t-73.5 -51t-42 -95t-13.5 -147
q0 -87 13.5 -146t42 -95.5t73.5 -52t108 -15.5t107.5 15.5t73 52t41.5 95.5t13 146zM204 754q6 30 24 51t44 21q19 0 34.5 -10.5t29 -22.5t27 -22.5t28.5 -10.5q34 0 48 51l19 -1q-5 -29 -23 -50t-45 -21q-19 0 -34 10t-29 22.5t-27.5 22.5t-28.5 10t-27 -13.5t-20 -36.5
h-20z" />
    <glyph glyph-name="odieresis.sc" horiz-adv-x="657" 
d="M597 324q0 -90 -14 -153.5t-46 -104t-83 -59t-125 -18.5t-125 18.5t-83 59t-46.5 104t-14.5 153.5t14.5 154t46.5 104t83 58.5t125 18.5t125 -18.5t83 -58.5t46 -104t14 -154zM564 324q0 88 -13 147t-41.5 95t-73 51t-107.5 15t-108 -15t-73.5 -51t-42 -95t-13.5 -147
q0 -87 13.5 -146t42 -95.5t73.5 -52t108 -15.5t107.5 15.5t73 52t41.5 95.5t13 146zM285 786q0 -27 -24 -27q-12 0 -18.5 6t-6.5 21q0 26 25 26q24 0 24 -26zM424 786q0 -27 -24 -27q-11 0 -18 6t-7 21q0 26 25 26q24 0 24 -26z" />
    <glyph glyph-name="oslash.sc" horiz-adv-x="657" 
d="M50 5l59 78q-26 41 -37.5 100t-11.5 141q0 90 14.5 154t46.5 104t83 58.5t125 18.5q69 0 118 -16.5t81 -51.5l63 75l18 -17l-66 -77q29 -41 41.5 -102t12.5 -146q0 -90 -14.5 -153.5t-46 -104t-83 -59t-124.5 -18.5q-72 0 -122.5 17.5t-82.5 55.5l-56 -74zM564 324
q0 154 -44 226l-376 -464q29 -38 74 -54.5t111 -16.5q63 0 107.5 15.5t73 52t41.5 95.5t13 146zM506 569q-29 34 -72 48.5t-105 14.5q-63 0 -108 -15t-73.5 -51t-42 -95t-13.5 -147q0 -75 9.5 -129t30.5 -90z" />
    <glyph glyph-name="ugrave.sc" horiz-adv-x="697" 
d="M598 246q0 -70 -17.5 -119t-49.5 -79.5t-78 -44.5t-104 -14t-104 14t-78.5 44.5t-49.5 79.5t-17 119v404h31v-404q0 -120 54.5 -175t163.5 -55q108 0 162 56t54 174v404h33v-404zM367 708l-111 136h45l93 -136h-27z" />
    <glyph glyph-name="uacute.sc" horiz-adv-x="697" 
d="M598 246q0 -70 -17.5 -119t-49.5 -79.5t-78 -44.5t-104 -14t-104 14t-78.5 44.5t-49.5 79.5t-17 119v404h31v-404q0 -120 54.5 -175t163.5 -55q108 0 162 56t54 174v404h33v-404zM462 844l-127 -136h-30l110 136h47z" />
    <glyph glyph-name="ucircumflex.sc" horiz-adv-x="697" 
d="M598 246q0 -70 -17.5 -119t-49.5 -79.5t-78 -44.5t-104 -14t-104 14t-78.5 44.5t-49.5 79.5t-17 119v404h31v-404q0 -120 54.5 -175t163.5 -55q108 0 162 56t54 174v404h33v-404zM364 844l109 -136h-33l-92 120l-90 -120h-32l107 136h31z" />
    <glyph glyph-name="udieresis.sc" horiz-adv-x="697" 
d="M598 246q0 -70 -17.5 -119t-49.5 -79.5t-78 -44.5t-104 -14t-104 14t-78.5 44.5t-49.5 79.5t-17 119v404h31v-404q0 -120 54.5 -175t163.5 -55q108 0 162 56t54 174v404h33v-404zM304 786q0 -27 -24 -27q-12 0 -18.5 6t-6.5 21q0 26 25 26q24 0 24 -26zM443 786
q0 -27 -24 -27q-11 0 -18 6t-7 21q0 26 25 26q24 0 24 -26z" />
    <glyph glyph-name="yacute.sc" horiz-adv-x="605" 
d="M80 649l224 -382l224 382h39l-246 -413v-236h-35v236l-247 413h41zM417 844l-127 -136h-30l110 136h47z" />
    <glyph glyph-name="thorn.sc" horiz-adv-x="605" 
d="M537 337q0 -96 -53.5 -142t-182.5 -46h-157v-149h-32v649h32v-129h157q64 0 108.5 -10.5t73 -33t41.5 -57t13 -82.5zM505 337q0 85 -48.5 121t-155.5 36h-157v-318h157q106 0 155 36t49 125z" />
    <glyph glyph-name="ydieresis.sc" horiz-adv-x="605" 
d="M80 649l224 -382l224 382h39l-246 -413v-236h-35v236l-247 413h41zM258 786q0 -27 -24 -27q-12 0 -18.5 6t-6.5 21q0 26 25 26q24 0 24 -26zM397 786q0 -27 -24 -27q-11 0 -18 6t-7 21q0 26 25 26q24 0 24 -26z" />
    <glyph glyph-name="amacron.sc" horiz-adv-x="644" 
d="M497 188h-353l-77 -188h-35l271 649h37l272 -649h-38zM292 546l-137 -332h332l-135 332l-28 76h-3zM444 747h-244v22h244v-22z" />
    <glyph glyph-name="abreve.sc" horiz-adv-x="644" 
d="M497 188h-353l-77 -188h-35l271 649h37l272 -649h-38zM292 546l-137 -332h332l-135 332l-28 76h-3zM443 844q0 -64 -30.5 -101.5t-90.5 -37.5q-61 0 -92.5 35.5t-31.5 103.5h27q0 -60 27 -88.5t70 -28.5q42 0 68 30t26 87h27z" />
    <glyph glyph-name="aogonek.sc" horiz-adv-x="644" 
d="M597 0q-18 0 -32 -8t-23.5 -21t-15 -29t-5.5 -32q0 -29 16.5 -46t52.5 -17q20 0 35.5 4t32.5 14l5 -18q-37 -23 -80 -23q-46 0 -68.5 22t-22.5 59q0 35 20 65t57 41l-72 177h-353l-77 -188h-35l271 649h37l272 -649h-15zM292 546l-137 -332h332l-135 332l-28 76h-3z" />
    <glyph glyph-name="cacute.sc" horiz-adv-x="569" 
d="M501 596q-29 15 -70.5 25.5t-86.5 10.5q-63 0 -110.5 -16t-79 -51.5t-47 -92.5t-15.5 -140q0 -88 16 -148.5t47.5 -97.5t79.5 -53.5t112 -16.5q47 0 86 11t71 28l7 -25q-30 -17 -74 -29t-92 -12q-75 0 -128.5 20t-88.5 62t-51.5 107t-16.5 154q0 171 68.5 249t215.5 78
q45 0 90.5 -10.5t74.5 -24.5zM436 844l-127 -136h-30l110 136h47z" />
    <glyph glyph-name="ccircumflex.sc" horiz-adv-x="569" 
d="M501 596q-29 15 -70.5 25.5t-86.5 10.5q-63 0 -110.5 -16t-79 -51.5t-47 -92.5t-15.5 -140q0 -88 16 -148.5t47.5 -97.5t79.5 -53.5t112 -16.5q47 0 86 11t71 28l7 -25q-30 -17 -74 -29t-92 -12q-75 0 -128.5 20t-88.5 62t-51.5 107t-16.5 154q0 171 68.5 249t215.5 78
q45 0 90.5 -10.5t74.5 -24.5zM338 844l109 -136h-33l-92 120l-90 -120h-32l107 136h31z" />
    <glyph glyph-name="cdotaccent.sc" horiz-adv-x="569" 
d="M501 596q-29 15 -70.5 25.5t-86.5 10.5q-63 0 -110.5 -16t-79 -51.5t-47 -92.5t-15.5 -140q0 -88 16 -148.5t47.5 -97.5t79.5 -53.5t112 -16.5q47 0 86 11t71 28l7 -25q-30 -17 -74 -29t-92 -12q-75 0 -128.5 20t-88.5 62t-51.5 107t-16.5 154q0 171 68.5 249t215.5 78
q45 0 90.5 -10.5t74.5 -24.5zM355 780q0 -32 -32 -32q-15 0 -23.5 6.5t-8.5 25.5q0 32 32 32t32 -32z" />
    <glyph glyph-name="ccaron.sc" horiz-adv-x="569" 
d="M501 596q-29 15 -70.5 25.5t-86.5 10.5q-63 0 -110.5 -16t-79 -51.5t-47 -92.5t-15.5 -140q0 -88 16 -148.5t47.5 -97.5t79.5 -53.5t112 -16.5q47 0 86 11t71 28l7 -25q-30 -17 -74 -29t-92 -12q-75 0 -128.5 20t-88.5 62t-51.5 107t-16.5 154q0 171 68.5 249t215.5 78
q45 0 90.5 -10.5t74.5 -24.5zM308 708l-110 136h34l90 -117l91 117h34l-109 -136h-30z" />
    <glyph glyph-name="dcaron.sc" horiz-adv-x="675" 
d="M615 326q0 -87 -17 -149t-52 -101t-88 -57.5t-126 -18.5h-220v649h219q75 0 128.5 -18.5t88 -57.5t51 -100t16.5 -147zM583 326q0 82 -15 138.5t-45.5 91t-78 50t-113.5 15.5h-188v-593h188q63 0 110 14.5t78.5 49t47.5 92t16 142.5zM298 708l-110 136h34l90 -117l91 117
h34l-109 -136h-30z" />
    <glyph glyph-name="dcroat.sc" horiz-adv-x="680" 
d="M621 326q0 -87 -17 -149t-52 -101t-88 -57.5t-126 -18.5h-220v331h-96v24h96v294h219q75 0 128.5 -18.5t88 -57.5t51 -100t16.5 -147zM589 326q0 82 -15 138.5t-45.5 91t-78 50t-113.5 15.5h-188v-266h164v-24h-164v-303h188q63 0 110 14.5t78.5 49t47.5 92t16 142.5z
" />
    <glyph glyph-name="emacron.sc" horiz-adv-x="582" 
d="M528 28l-3 -28h-413v649h397l2 -28h-368v-266h320v-25h-320v-302h385zM441 747h-244v22h244v-22z" />
    <glyph glyph-name="ebreve.sc" horiz-adv-x="582" 
d="M528 28l-3 -28h-413v649h397l2 -28h-368v-266h320v-25h-320v-302h385zM442 844q0 -64 -30.5 -101.5t-90.5 -37.5q-61 0 -92.5 35.5t-31.5 103.5h27q0 -60 27 -88.5t70 -28.5q42 0 68 30t26 87h27z" />
    <glyph glyph-name="edotaccent.sc" horiz-adv-x="582" 
d="M528 28l-3 -28h-413v649h397l2 -28h-368v-266h320v-25h-320v-302h385zM354 780q0 -32 -32 -32q-15 0 -23.5 6.5t-8.5 25.5q0 32 32 32t32 -32z" />
    <glyph glyph-name="eogonek.sc" horiz-adv-x="582" 
d="M528 28l-3 -28h-54q-18 0 -32 -8t-23.5 -21t-15 -29t-5.5 -32q0 -29 16.5 -46t52.5 -17q20 0 35.5 4t32.5 14l5 -18q-37 -23 -80 -23q-46 0 -68.5 22t-22.5 59q0 28 13 54t39 41h-306v649h397l2 -28h-368v-266h320v-25h-320v-302h385z" />
    </font>
</defs>
</svg>
