<?xml version="1.0" standalone="no"?>
<!DOCTYPE svg PUBLIC "-//W3C//DTD SVG 1.1//EN" "http://www.w3.org/Graphics/SVG/1.1/DTD/svg11.dtd" >
<svg xmlns="http://www.w3.org/2000/svg" xmlns:xlink="http://www.w3.org/1999/xlink" version="1.1">
<metadata>
Created by FontForge 20170731 at Thu May 16 15:43:43 2019
 By Aleksey,,,
Copyright (c) 2007-2019 Monotype GmbH. All rights reserved
</metadata>
<defs>
<font id="ClanPro-UltraItalic" horiz-adv-x="402" >
  <font-face 
    font-family="Clan Pro Ultra"
    font-weight="950"
    font-style="italic"
    font-stretch="normal"
    units-per-em="1000"
    panose-1="2 0 5 3 5 0 0 9 0 4"
    ascent="787"
    descent="-213"
    x-height="616"
    cap-height="750"
    bbox="-182 -242 1296 952"
    underline-thickness="100"
    underline-position="-200"
    slope="-8"
    unicode-range="U+000D-FEFF"
  />
<missing-glyph horiz-adv-x="638" 
d="M-10 750h658v-750h-658v750zM523 125v500h-408v-500h408z" />
    <glyph glyph-name="IJ" unicode="IJ" horiz-adv-x="890" 
d="M105 750h251l-105 -750h-251zM839 297q-13 -89 -45 -149t-80.5 -96t-113 -51t-141.5 -15q-45 0 -80 6t-64 17l37 184q15 -6 39 -10t55 -4q66 0 100 25t43 89l64 457h250z" />
    <glyph glyph-name="ij" unicode="ij" horiz-adv-x="641" 
d="M-4 0l85 610l228 10l-87 -620h-226zM219 809q58 0 84 -17t26 -51q0 -95 -133 -95q-56 0 -82.5 14.5t-26.5 49.5q0 49 32 74t100 25zM557 86q-10 -70 -38.5 -118t-72 -78.5t-99.5 -45t-119 -15.5l7 154q22 2 38.5 7.5t27.5 16.5t18 30t11 48l74 525l228 10zM542 809
q58 0 84 -17t26 -51q0 -95 -133 -95q-56 0 -82.5 14.5t-26.5 49.5q0 49 32 74t100 25z" />
    <glyph glyph-name="f_i" unicode="fi" horiz-adv-x="706" 
d="M54 604h50q7 46 27 84t60.5 65t105 42t161.5 15l-8 -159q-40 0 -63 -2.5t-35 -8t-16 -14.5t-6 -22h139q64 0 117 4t112 12l-87 -620h-226l63 450h-139l-63 -450h-226l63 450h-57zM608 809q58 0 84 -17t26 -51q0 -95 -133 -95q-56 0 -82.5 14.5t-26.5 49.5q0 49 32 74
t100 25z" />
    <glyph glyph-name="f_j" unicode="fj" horiz-adv-x="706" 
d="M623 86q-10 -70 -39 -118t-72.5 -78.5t-99 -45t-119.5 -15.5l7 154q23 2 39 7.5t27.5 16.5t18.5 30t11 48l49 348h-139l-60 -433h-226l60 433h-57l31 171h50q7 46 27 84t60.5 65t105 42t161.5 15l-9 -165q-38 0 -60.5 -2.5t-35 -7.5t-17.5 -13t-6 -18h159q48 0 101.5 5
t107.5 11zM610 809q58 0 84 -17t26 -51q0 -95 -133 -95q-56 0 -82.5 14.5t-26.5 49.5q0 49 32 74t100 25z" />
    <glyph glyph-name="f_l" unicode="fl" horiz-adv-x="687" 
d="M54 604h50q7 46 28.5 83.5t63 63.5t106 40.5t159.5 14.5q61 0 124.5 -6t117.5 -15l-110 -785h-227l92 655h-11q-36 0 -58 -3t-34.5 -9.5t-17.5 -16t-7 -22.5h84l-27 -154h-78l-63 -450h-226l63 450h-57z" />
    <glyph glyph-name=".notdef" horiz-adv-x="638" 
d="M-10 750h658v-750h-658v750zM523 125v500h-408v-500h408z" />
    <glyph glyph-name=".null" horiz-adv-x="0" 
 />
    <glyph glyph-name=".null" horiz-adv-x="0" 
 />
    <glyph glyph-name="nonmarkingreturn" unicode="&#xd;" horiz-adv-x="208" 
 />
    <glyph glyph-name="space" unicode=" " horiz-adv-x="208" 
 />
    <glyph glyph-name="exclam" unicode="!" horiz-adv-x="304" 
d="M46 235l38 515h245l-104 -515h-179zM132 186q56 0 80.5 -21.5t24.5 -59.5q0 -54 -32.5 -86t-100.5 -32q-54 0 -79.5 17.5t-25.5 57.5q0 58 32 91t101 33z" />
    <glyph glyph-name="quotedbl" unicode="&#x22;" horiz-adv-x="456" 
d="M505 763l-78 -305h-146l13 305h211zM275 763l-78 -305h-146l13 305h211z" />
    <glyph glyph-name="numbersign" unicode="#" horiz-adv-x="631" 
d="M103 313l33 114h-84l22 158h100l43 165h181l-44 -165h52l42 165h177l-44 -165h45l-22 -158h-60l-32 -114h75l-22 -157h-93l-39 -156h-176l40 156h-53l-40 -156h-179l39 156h-51l22 157h68zM283 313h52l32 114h-52z" />
    <glyph glyph-name="dollar" unicode="$" horiz-adv-x="631" 
d="M512 754q26 -4 48.5 -9t39.5 -12l-39 -186q-24 6 -54 11t-59 9l-37 -109q29 -11 57.5 -26.5t51 -38t36 -53t13.5 -72.5q0 -17 -3 -36q-17 -122 -94 -182.5t-222 -63.5l-28 -65l-120 10l21 63q-42 6 -78 15.5t-62 23.5q7 26 14 48l12 45q7 23 14 47t15 51q34 -18 69.5 -30
t73.5 -20l38 116q-32 13 -62.5 29.5t-55 40t-39.5 55.5t-15 76q0 16 3 36q15 109 96 169.5t233 65.5l20 63l134 -10zM291 164q36 1 54 12t18 28q0 16 -10.5 26t-32.5 21zM333 576q-40 -2 -53.5 -15t-13.5 -27t9 -22.5t32 -16.5z" />
    <glyph glyph-name="percent" unicode="%" horiz-adv-x="771" 
d="M238 755q73 0 111 -29.5t38 -98.5q0 -107 -53.5 -164t-145.5 -57q-77 0 -112.5 34t-35.5 100q0 112 51.5 163.5t146.5 51.5zM220 632q-6 0 -11.5 -3t-10 -11.5t-7.5 -23t-3 -38.5q0 -15 5 -20t13 -5q5 0 11 2.5t10.5 10.5t7.5 22.5t3 38.5q0 16 -5 21.5t-13 5.5zM691 599
l-507 -559l-112 97l507 560zM585 341q74 0 112 -32t38 -101q0 -106 -53 -163t-147 -57q-77 0 -112.5 34.5t-35.5 100.5q0 19 3 40q13 91 59.5 134.5t135.5 43.5zM568 214q-11 0 -21.5 -14.5t-10.5 -60.5q0 -17 4.5 -22t13.5 -5q5 0 11 2.5t10.5 11t7.5 23.5t3 40
q0 14 -4.5 19.5t-13.5 5.5z" />
    <glyph glyph-name="ampersand" unicode="&#x26;" horiz-adv-x="749" 
d="M377 762q48 0 89.5 -10.5t72 -30t47.5 -47.5t17 -63q0 -37 -17 -68.5t-45 -58.5t-63 -50.5t-71 -45.5q17 -17 34.5 -33.5t37.5 -33.5q14 23 26 47t23 47h193q-11 -40 -34 -90t-61 -102q23 -11 46.5 -20.5t48.5 -17.5l-109 -194q-36 13 -73.5 32t-73.5 44
q-56 -37 -121 -59t-140 -22q-61 0 -103 15.5t-68.5 41t-38.5 59.5t-12 70q0 42 12.5 77.5t34 65.5t49.5 54.5t59 44.5q-19 36 -29 69.5t-10 62.5q0 43 15.5 82t49.5 69t87 47.5t127 17.5zM242 264q-10 -14 -15.5 -28t-5.5 -31q0 -35 45 -35q31 0 57 10q-44 40 -81 84z
M350 605q-17 0 -29 -11t-12 -37q0 -18 9 -39q25 16 39 31t14 32q0 13 -7 18.5t-14 5.5z" />
    <glyph glyph-name="quotesingle" unicode="'" horiz-adv-x="252" 
d="M288 763l-78 -305h-146l13 305h211z" />
    <glyph glyph-name="parenleft" unicode="(" horiz-adv-x="388" 
d="M442 768q-49 -65 -84 -140.5t-57 -154t-32 -157.5t-10 -150q0 -78 13 -153t45 -140l-165 -14q-56 67 -82 155.5t-26 188.5q0 82 15.5 163t45.5 156t74 141t102 119z" />
    <glyph glyph-name="parenright" unicode=")" horiz-adv-x="388" 
d="M225 782q55 -67 81 -153.5t26 -186.5q0 -82 -15 -163.5t-45 -157.5t-74 -143t-102 -119l-160 14q48 65 82.5 140.5t56.5 154t32 157t10 150.5q0 78 -13 153t-44 140z" />
    <glyph glyph-name="asterisk" unicode="*" horiz-adv-x="397" 
d="M309 776l4 -95l92 20l21 -97l-93 -46l36 -83l-84 -57l-64 69l-88 -70l-72 54l58 87l-80 46l52 97l87 -20l32 95h99z" />
    <glyph glyph-name="plus" unicode="+" horiz-adv-x="607" 
d="M401 236v-155h-198v155h-155v193h155v155h198v-155h156v-193h-156z" />
    <glyph glyph-name="comma" unicode="," horiz-adv-x="283" 
d="M118 207q103 0 103 -100q0 -36 -13 -71t-35.5 -68t-52.5 -62.5t-64 -52.5l-64 42q16 23 30.5 47t25.5 50q-30 3 -47.5 23t-17.5 55q0 62 36.5 99.5t98.5 37.5z" />
    <glyph glyph-name="hyphen" unicode="-" horiz-adv-x="373" 
d="M350 419l-21 -152h-311l21 152h311z" />
    <glyph glyph-name="period" unicode="." horiz-adv-x="289" 
d="M124 209q57 0 82.5 -22.5t25.5 -64.5q0 -61 -33.5 -98t-105.5 -37q-57 0 -83 19t-26 64q0 66 34 102.5t106 36.5z" />
    <glyph glyph-name="slash" unicode="/" horiz-adv-x="485" 
d="M559 775l-464 -892h-187l456 892h195z" />
    <glyph glyph-name="zero" unicode="0" horiz-adv-x="631" 
d="M608 370q-28 -195 -111.5 -287.5t-234.5 -92.5q-128 0 -186.5 63t-58.5 195q0 28 2.5 58t7.5 64q15 105 41.5 178.5t68.5 120t100 68t135 21.5q125 0 185.5 -60.5t60.5 -198.5q0 -29 -2.5 -61t-7.5 -68zM374 373q12 88 12 130q0 43 -10.5 55.5t-29.5 12.5q-15 0 -27 -6.5
t-22 -27t-19 -60t-18 -105.5q-7 -45 -10 -77.5t-3 -55.5t3 -36t8.5 -20.5t13.5 -9.5t18 -2q14 0 25.5 6t21 27t18.5 61t19 108z" />
    <glyph glyph-name="one" unicode="1" horiz-adv-x="631" 
d="M113 153h85l40 284l8 40l-2 2q-8 -5 -18 -10.5t-18 -9.5l-80 -39v189l254 140h145l-84 -596h85l-21 -153h-415z" />
    <glyph glyph-name="two" unicode="2" horiz-adv-x="631" 
d="M373 759q124 0 183 -52.5t59 -139.5q0 -54 -20.5 -100.5t-58 -91t-91.5 -89t-121 -94.5v-3h233l-30 -189h-515l20 146q73 67 133.5 121t104 99t67.5 83t24 72q0 21 -15 32t-48 11q-44 0 -86 -16t-88 -42l-30 178q57 35 126 55t153 20z" />
    <glyph glyph-name="three" unicode="3" horiz-adv-x="631" 
d="M351 759q125 0 190.5 -50t65.5 -138q0 -61 -27.5 -108.5t-84.5 -77.5v-2q39 -20 60 -51t21 -76q0 -7 -0.5 -14.5t-1.5 -15.5q-14 -109 -99 -172.5t-245 -63.5q-66 0 -123.5 14.5t-97.5 39.5l67 170q42 -20 84 -31t89 -11q45 0 69.5 19t24.5 54q0 11 -5.5 21t-21 18
t-44 12.5t-73.5 4.5l22 158q51 0 82.5 4.5t49 14t23 23.5t5.5 32q0 19 -15 29t-57 10q-52 0 -98.5 -15t-90.5 -43l-29 171q53 34 122 54t138 20z" />
    <glyph glyph-name="four" unicode="4" horiz-adv-x="631" 
d="M531 122l-17 -122h-220l17 122h-314v142l338 486h284l-63 -445h57l-30 -183h-52zM376 478q3 21 9 40l-2 1q-5 -8 -11 -17.5t-11 -17.5l-97 -146q-5 -8 -11 -15.5t-12 -15.5l1 -2h101z" />
    <glyph glyph-name="five" unicode="5" horiz-adv-x="631" 
d="M586 553h-269l-15 -75q28 3 63 3q105 0 163 -44.5t58 -133.5q0 -20 -3 -42q-9 -61 -32.5 -111t-64 -85.5t-100 -55t-139.5 -19.5q-64 0 -126 12.5t-111 41.5l65 170q22 -11 42.5 -18.5t41 -12.5t42.5 -7.5t48 -2.5q56 0 76 21t20 58q0 26 -19 37.5t-60 11.5q-26 0 -61 -3
t-66 -11l-68 87l84 376h450z" />
    <glyph glyph-name="six" unicode="6" horiz-adv-x="631" 
d="M386 498q103 0 158 -45t55 -136q0 -11 -1 -23.5t-3 -25.5q-10 -72 -37 -124.5t-68.5 -86.5t-95 -50.5t-117.5 -16.5q-62 0 -110.5 15t-81.5 47t-50 82t-17 121q0 118 28.5 211.5t81.5 158.5t130 100t174 35q54 0 98 -6t83 -22l-40 -181q-34 11 -66.5 16t-70.5 5
q-69 0 -104 -24.5t-52 -69.5l1 -1q23 10 49.5 15.5t55.5 5.5zM317 332q-11 0 -30.5 -6t-27.5 -17q-6 -42 -6 -70q0 -40 12 -53.5t36 -13.5q22 0 38 22t24 78q1 5 1 9v10q0 23 -11 32t-36 9z" />
    <glyph glyph-name="seven" unicode="7" horiz-adv-x="631" 
d="M626 559l-318 -559h-268l332 508q5 8 10.5 15.5t12.5 15.5l-1 2h-341l40 207h560z" />
    <glyph glyph-name="eight" unicode="8" horiz-adv-x="631" 
d="M373 761q127 0 184 -48t57 -127q0 -57 -23.5 -103.5t-61.5 -79.5q29 -21 46.5 -53t17.5 -81q0 -18 -3 -39q-17 -119 -98 -179.5t-227 -60.5q-136 0 -200 50t-64 145q0 25 5.5 52.5t18 54.5t33 52.5t50.5 46.5q-16 21 -25.5 49.5t-9.5 66.5q0 57 18.5 104t55.5 80.5
t93.5 51.5t132.5 18zM270 293q-19 -18 -28.5 -37.5t-9.5 -44.5q0 -29 16.5 -39.5t46.5 -10.5q24 0 42.5 12.5t18.5 39.5q0 32 -22 47.5t-64 32.5zM348 592q-21 0 -37.5 -13.5t-16.5 -46.5q0 -24 19.5 -37t49.5 -24q16 16 25.5 33.5t9.5 43.5q0 44 -50 44z" />
    <glyph glyph-name="nine" unicode="9" horiz-adv-x="631" 
d="M364 760q123 0 188.5 -66t65.5 -201q0 -22 -1.5 -45.5t-5.5 -49.5q-15 -107 -47 -184t-81.5 -127t-116.5 -73.5t-152 -23.5q-36 0 -65 2.5t-53 7t-44.5 11t-40.5 15.5l58 179q35 -14 70 -21.5t79 -7.5q62 0 93 25t47 75l-2 2q-24 -11 -52 -15.5t-60 -4.5
q-102 0 -153 51.5t-51 137.5q0 71 21.5 128.5t63 98.5t102 63.5t137.5 22.5zM383 465q2 14 3 25t1 21q0 39 -14 51.5t-39 12.5q-27 0 -45.5 -21.5t-18.5 -78.5q0 -24 10.5 -34.5t36.5 -10.5t43.5 9.5t22.5 25.5z" />
    <glyph glyph-name="colon" unicode=":" horiz-adv-x="289" 
d="M175 575q57 0 83 -22.5t26 -64.5q0 -62 -34.5 -98.5t-105.5 -36.5q-56 0 -82 18.5t-26 62.5q0 67 33.5 104t105.5 37zM124 209q57 0 82.5 -22.5t25.5 -64.5q0 -61 -33.5 -98t-105.5 -37q-57 0 -83 19t-26 64q0 66 34 102.5t106 36.5z" />
    <glyph glyph-name="semicolon" unicode=";" horiz-adv-x="289" 
d="M175 575q57 0 83 -22.5t26 -64.5q0 -62 -34.5 -98.5t-105.5 -36.5q-56 0 -82 18.5t-26 62.5q0 67 33.5 104t105.5 37zM125 207q103 0 103 -100q0 -36 -13 -71t-35.5 -68t-52.5 -62.5t-64 -52.5l-64 42q16 23 30.5 47t25.5 50q-30 3 -47.5 23t-17.5 55q0 62 36.5 99.5
t98.5 37.5z" />
    <glyph glyph-name="less" unicode="&#x3c;" horiz-adv-x="607" 
d="M379 340q-9 -5 -18.5 -8.5t-18.5 -6.5v-2q9 -3 18.5 -7.5t18.5 -8.5l146 -70v-200l-446 236v107l446 236v-210z" />
    <glyph glyph-name="equal" unicode="=" horiz-adv-x="607" 
d="M71 351v162h463v-162h-463zM71 126v162h463v-162h-463z" />
    <glyph glyph-name="greater" unicode="&#x3e;" horiz-adv-x="607" 
d="M79 237l146 70q8 4 18 8.5t19 7.5v2q-9 3 -18.5 6.5t-18.5 8.5l-146 66v210l447 -236v-107l-447 -236v200z" />
    <glyph glyph-name="question" unicode="?" horiz-adv-x="503" 
d="M291 758q116 0 173 -46t57 -123q0 -47 -14.5 -86t-40 -71.5t-61 -58.5t-77.5 -47l-19 -90h-176l11 168q28 12 53 25.5t44 28.5t30 31.5t11 36.5q0 14 -13 25t-41 11q-35 0 -67 -10.5t-57 -30.5l-54 171q21 15 48.5 27t59 20.5t65.5 13.5t68 5zM212 186q56 0 80.5 -21.5
t24.5 -59.5q0 -54 -32.5 -86t-100.5 -32q-54 0 -80 17.5t-26 58.5q0 58 32.5 90.5t101.5 32.5z" />
    <glyph glyph-name="at" unicode="@" horiz-adv-x="927" 
d="M492 612q58 0 86 -36l22 30l116 -7l-81 -278q-4 -14 -8 -29.5t-4 -29.5q0 -17 7.5 -28t29.5 -11q19 0 38.5 9.5t36 32t29.5 58.5t21 89q2 14 3 28t1 28q0 50 -14.5 91.5t-45 71.5t-77 47t-110.5 17q-99 0 -173.5 -33t-124.5 -90.5t-75 -134t-25 -163.5q0 -63 18 -114.5
t55 -88.5t94 -57t135 -20q54 0 101 8.5t88 22.5t75.5 32t63.5 38l32 -105q-29 -20 -68.5 -40t-88 -35.5t-104 -25t-116.5 -9.5q-95 0 -171.5 24t-130.5 71t-83 117t-29 163q0 108 36.5 208.5t106.5 177.5t171.5 123.5t230.5 46.5q84 0 150 -24.5t111.5 -68t69.5 -104.5
t24 -134q0 -17 -1.5 -34t-3.5 -34q-12 -89 -42 -151t-70 -100.5t-85 -55.5t-87 -17q-51 0 -84.5 16.5t-49.5 46.5q-29 -27 -68.5 -45t-93.5 -18q-57 0 -95 39.5t-38 120.5q0 70 24.5 135.5t65.5 116.5t94.5 81.5t110.5 30.5zM504 453q-2 6 -6.5 10.5t-13.5 4.5
q-18 0 -37 -17.5t-34 -45.5t-25 -63t-10 -69q0 -16 6 -26t20 -10q20 0 37 22t28 63z" />
    <glyph glyph-name="A" unicode="A" horiz-adv-x="761" 
d="M435 120h-191l-44 -120h-259l345 750h293l141 -750h-274zM399 540q-2 -9 -5.5 -19t-7.5 -20l-74 -201h109l-17 199q-1 11 -2 20.5t-1 20.5h-2z" />
    <glyph glyph-name="B" unicode="B" horiz-adv-x="696" 
d="M435 750q125 0 185.5 -46t60.5 -121q0 -71 -34.5 -117t-86.5 -69v-2q98 -34 98 -138q0 -58 -21 -105.5t-62.5 -81t-104 -52t-145.5 -18.5h-333l105 750h338zM253 181h100q16 0 27.5 3.5t19 12.5t11 25t3.5 42q0 20 -10 28t-36 8h-98zM292 458h92q30 0 43 15t13 58
q0 20 -9.5 27t-31.5 7h-92z" />
    <glyph glyph-name="C" unicode="C" horiz-adv-x="586" 
d="M452 764q44 0 89.5 -8t78.5 -20l-48 -187q-27 8 -60 13t-72 5q-42 0 -68.5 -9t-43.5 -31t-26.5 -58.5t-17.5 -91.5q-4 -28 -6 -51t-2 -42q0 -29 6 -49t19 -32t34.5 -17t52.5 -5q38 0 72 6.5t64 17.5l-2 -181q-43 -17 -95.5 -27.5t-100.5 -10.5q-306 0 -306 293
q0 23 1.5 48t5.5 51q13 91 44.5 163t84 121.5t126 75.5t170.5 26z" />
    <glyph glyph-name="D" unicode="D" horiz-adv-x="726" 
d="M404 750q162 0 235.5 -66.5t73.5 -205.5q0 -23 -1.5 -47.5t-5.5 -51.5q-14 -102 -47 -173.5t-84 -117.5t-119.5 -67t-153.5 -21h-310l105 750h307zM264 198h60q30 0 49.5 5.5t33.5 24.5t23 55t18 97q4 29 6 51.5t2 39.5q0 49 -19.5 64.5t-62.5 15.5h-60z" />
    <glyph glyph-name="E" unicode="E" horiz-adv-x="614" 
d="M569 192l-30 -192h-547l105 750h534l-23 -194h-293l-13 -88h239l-24 -174h-239l-15 -102h306z" />
    <glyph glyph-name="F" unicode="F" horiz-adv-x="590" 
d="M314 552l-15 -107h241l-28 -186h-239l-36 -259h-245l105 750h533l-24 -198h-292z" />
    <glyph glyph-name="G" unicode="G" horiz-adv-x="666" 
d="M581 21q-21 -8 -48.5 -14.5t-58.5 -11t-63 -7t-62 -2.5q-90 0 -152.5 19.5t-102 56.5t-57.5 91t-18 123q0 23 1.5 48t5.5 51q13 94 45 166.5t86 121.5t130.5 74.5t178.5 25.5q54 0 110 -8t101 -23l-48 -194q-39 14 -86.5 22t-89.5 8q-48 0 -77.5 -8.5t-47.5 -30.5
t-27.5 -58.5t-17.5 -92.5q-9 -63 -9 -102q0 -57 22 -76t74 -19h8q5 0 10 1l32 227h216z" />
    <glyph glyph-name="H" unicode="H" horiz-adv-x="729" 
d="M392 0l39 279h-155l-39 -279h-245l105 750h245l-39 -274h155l39 274h245l-105 -750h-245z" />
    <glyph glyph-name="I" unicode="I" horiz-adv-x="351" 
d="M105 750h251l-105 -750h-251z" />
    <glyph glyph-name="J" unicode="J" horiz-adv-x="539" 
d="M488 297q-13 -89 -45 -149t-80.5 -96t-113 -51t-141.5 -15q-45 0 -80 6t-64 17l37 184q15 -6 39 -10t55 -4q66 0 100 25t43 89l64 457h250z" />
    <glyph glyph-name="K" unicode="K" horiz-adv-x="739" 
d="M402 0l-90 291h-35l-40 -291h-245l105 750h245l-39 -278h37l171 278h276l-233 -355l139 -395h-291z" />
    <glyph glyph-name="L" unicode="L" horiz-adv-x="562" 
d="M528 198l-32 -198h-504l105 750h247l-78 -552h262z" />
    <glyph glyph-name="M" unicode="M" horiz-adv-x="931" 
d="M364 750l88 -370l8 -40h2q4 9 8.5 18t9.5 18l197 374h267l-105 -750h-224l40 291q2 10 4.5 23.5t5.5 24.5l-2 1l-173 -340h-158l-76 340h-2q0 -22 -3 -41l-42 -299h-217l105 750h267z" />
    <glyph glyph-name="N" unicode="N" horiz-adv-x="735" 
d="M473 0l-194 340q-5 8 -10 18t-9 19l-2 -1q-1 -10 -1.5 -20.5t-2.5 -20.5l-47 -335h-215l105 750h201l167 -312q5 -10 10 -19t8 -16h2l2 20q1 10 3 20l43 307h215l-105 -750h-170z" />
    <glyph glyph-name="O" unicode="O" horiz-adv-x="756" 
d="M734 375q-14 -101 -44.5 -174t-80.5 -121t-120 -71t-163 -23q-158 0 -232.5 71.5t-74.5 217.5q0 23 1.5 48t5.5 52q28 196 126 291.5t283 95.5q159 0 233 -69.5t74 -212.5q0 -24 -2 -50t-6 -55zM476 376q5 34 7.5 60.5t2.5 46.5q0 52 -18.5 68.5t-60.5 16.5
q-29 0 -48.5 -7.5t-33 -28.5t-23 -58.5t-18.5 -97.5q-5 -33 -7.5 -59.5t-2.5 -46.5q0 -55 18.5 -72.5t60.5 -17.5q28 0 48 8t34 29.5t23.5 59.5t17.5 99z" />
    <glyph glyph-name="P" unicode="P" horiz-adv-x="677" 
d="M388 750q155 0 225 -54t70 -162q0 -74 -21 -134t-66 -102.5t-115 -65.5t-169 -23h-46l-29 -209h-245l105 750h291zM291 387h46q22 0 37 2.5t25 11.5t16 26t10 46q2 12 3 22.5t1 18.5q0 31 -15 41t-53 10h-45z" />
    <glyph glyph-name="Q" unicode="Q" horiz-adv-x="756" 
d="M734 375q-20 -142 -73 -229.5t-147 -126.5l106 -105l-272 -65l-49 138q-144 6 -212.5 77t-68.5 210q0 23 2 48.5t6 52.5q28 196 126 291.5t283 95.5q159 0 233 -69.5t74 -212.5q0 -24 -2 -50t-6 -55zM476 376q5 34 7.5 60.5t2.5 46.5q0 52 -18.5 68.5t-60.5 16.5
q-29 0 -48.5 -7.5t-33 -28.5t-23 -58.5t-18.5 -97.5q-5 -33 -7.5 -59.5t-2.5 -46.5q0 -55 18.5 -72.5t60.5 -17.5q28 0 48 8t34 29.5t23.5 59.5t17.5 99z" />
    <glyph glyph-name="R" unicode="R" horiz-adv-x="701" 
d="M395 750q144 0 217.5 -48t73.5 -154q0 -44 -9.5 -84t-27.5 -73.5t-42.5 -58.5t-54.5 -39l111 -293h-285l-58 244h-49l-34 -244h-245l105 750h298zM295 413h54q19 0 34 3.5t25.5 14.5t16 32t5.5 56q0 29 -13.5 38t-45.5 9h-55z" />
    <glyph glyph-name="S" unicode="S" horiz-adv-x="588" 
d="M382 763q56 0 114.5 -10t103.5 -28l-52 -187q-48 13 -94.5 20.5t-84.5 7.5q-27 0 -43.5 -3t-25.5 -8.5t-12 -13.5t-3 -17q0 -16 20.5 -26.5t51 -21.5t66 -25t66 -36.5t51 -57t20.5 -85.5q0 -65 -25.5 -118t-71 -90.5t-108 -57.5t-136.5 -20q-66 0 -127.5 13.5
t-110.5 39.5l55 194q51 -25 101.5 -39t104.5 -14q42 0 59.5 10.5t17.5 30.5q0 17 -20.5 28t-51 22t-66 25t-66 37t-51 57.5t-20.5 86.5q0 57 20.5 108.5t62.5 91t105.5 63t149.5 23.5z" />
    <glyph glyph-name="T" unicode="T" horiz-adv-x="614" 
d="M458 551l-77 -551h-249l77 551h-174l33 199h588l-23 -199h-175z" />
    <glyph glyph-name="U" unicode="U" horiz-adv-x="715" 
d="M667 267q-20 -137 -108.5 -209t-251.5 -72q-146 0 -217.5 57.5t-71.5 167.5q0 14 1 27.5t3 28.5l68 483h246l-69 -490q-1 -6 -1.5 -11t-0.5 -10q0 -29 16 -42t54 -13q44 0 62 17.5t24 58.5l69 490h245z" />
    <glyph glyph-name="V" unicode="V" horiz-adv-x="731" 
d="M798 750l-347 -750h-272l-136 750h270l41 -453q1 -10 2 -21t1 -20h2q3 9 6 19t7 19l172 456h254z" />
    <glyph glyph-name="W" unicode="W" horiz-adv-x="1067" 
d="M724 750l12 -458v-41h2q2 9 4.5 19t5.5 20l132 460h243l-276 -750h-297v459q0 11 1 21h-2q-2 -9 -4.5 -18.5t-5.5 -20.5l-127 -441h-292l-66 750h255v-460q0 -10 -0.5 -20.5t-0.5 -20.5h2q2 9 5 19l6 20l141 462h262z" />
    <glyph glyph-name="X" unicode="X" horiz-adv-x="729" 
d="M541 394l140 -394h-276l-48 175q-6 22 -9 40h-2q-3 -8 -8 -18t-10 -18l-98 -179h-282l246 387l-140 363h290l42 -151q2 -10 5 -20.5t5 -19.5h2q7 16 19 36l90 155h278z" />
    <glyph glyph-name="Y" unicode="Y" horiz-adv-x="729" 
d="M318 750l57 -258l8 -40h2q3 9 7.5 18.5t9.5 18.5l127 261h267l-322 -525l-31 -225h-251l31 225l-180 525h275z" />
    <glyph glyph-name="Z" unicode="Z" horiz-adv-x="619" 
d="M-30 0l20 149l312 371q13 17 27 29l-1 2h-276l34 199h560l-23 -166l-299 -355q-7 -8 -13.5 -15.5t-13.5 -13.5l1 -2h275l-30 -198h-573z" />
    <glyph glyph-name="bracketleft" unicode="[" horiz-adv-x="381" 
d="M117 776h320l-21 -146h-116l-87 -622h116l-20 -143h-320z" />
    <glyph glyph-name="backslash" unicode="\" horiz-adv-x="369" 
d="M202 775l161 -892h-183l-163 892h185z" />
    <glyph glyph-name="bracketright" unicode="]" horiz-adv-x="381" 
d="M253 -135h-318l19 143h116l87 622h-116l21 146h319z" />
    <glyph glyph-name="asciicircum" unicode="^" horiz-adv-x="631" 
d="M335 606q-5 8 -9.5 17t-9.5 18h-2q-4 -9 -9 -18t-10 -17l-84 -141h-176l205 339h153l201 -339h-175z" />
    <glyph glyph-name="underscore" unicode="_" horiz-adv-x="401" 
d="M345 -32l-18 -125h-398l18 125h398z" />
    <glyph glyph-name="grave" unicode="`" horiz-adv-x="413" 
d="M223 650l-112 147h251l29 -147h-168z" />
    <glyph glyph-name="a" unicode="a" horiz-adv-x="635" 
d="M386 626q34 0 58 -2t46 -4t47 -4t60 -2h34l-86 -614h-175l-13 42q-37 -29 -79 -41t-83 -12q-194 0 -194 213q0 91 27.5 168.5t77.5 134.5t121.5 89t158.5 32zM278 165q30 0 50.5 26t26.5 68l26 188q-5 0 -11 0.5t-13 0.5q-19 0 -37.5 -7.5t-34.5 -26.5t-28.5 -51.5
t-19.5 -81.5q-6 -39 -6 -63q0 -32 11 -42.5t36 -10.5z" />
    <glyph glyph-name="b" unicode="b" horiz-adv-x="639" 
d="M436 627q95 0 141 -50.5t46 -163.5q0 -114 -25.5 -194.5t-70.5 -131.5t-107.5 -75t-136.5 -24q-42 0 -78.5 4.5t-70 13.5t-66 22.5t-65.5 32.5l100 708l227 9l-20 -141q-2 -10 -3.5 -20.5t-3.5 -19.5l1 -1q31 17 65 24t67 7zM346 445q-29 0 -49 -24.5t-26 -64.5l-26 -183
q19 -9 46 -9q19 0 33.5 5t25.5 21t19.5 44t14.5 75q4 26 5.5 46t1.5 35q0 35 -11 45t-34 10z" />
    <glyph glyph-name="c" unicode="c" horiz-adv-x="487" 
d="M339 627q52 0 92.5 -10.5t73.5 -30.5l-81 -157q-16 7 -32.5 9.5t-35.5 2.5q-21 0 -39.5 -5.5t-33.5 -20.5t-26 -42t-17 -71q-2 -16 -3 -29.5t-1 -24.5q0 -50 18 -67.5t48 -17.5q27 0 49.5 9.5t38.5 23.5l57 -132q-46 -42 -97.5 -59t-117.5 -17q-50 0 -91.5 14t-71.5 43.5
t-47 75.5t-17 111q0 38 6 82q11 80 38.5 139t69.5 97.5t97.5 57.5t122.5 19z" />
    <glyph glyph-name="d" unicode="d" horiz-adv-x="637" 
d="M328 626q21 0 40 -1.5t38 -3.5l21 148l227 9l-109 -778h-175l-13 42q-38 -29 -81 -41t-87 -12q-94 0 -140.5 50t-46.5 163q0 112 25 192t68.5 131.5t103 76t129.5 24.5zM278 165q29 0 48.5 23.5t27.5 61.5l26 191q-8 1 -16 1.5t-18 0.5q-41 0 -68.5 -34t-39.5 -121
q-6 -44 -6 -68q0 -34 11 -44.5t35 -10.5z" />
    <glyph glyph-name="e" unicode="e" horiz-adv-x="547" 
d="M345 628q95 0 148 -43.5t53 -115.5q0 -108 -77 -167.5t-240 -82.5q6 -31 26.5 -42t58.5 -11q35 0 66.5 10t59.5 27l55 -134q-41 -33 -102.5 -57t-144.5 -24q-54 0 -98.5 14.5t-77 45t-50 77.5t-17.5 112q0 36 6 77q22 158 107 236t227 78zM323 461q-30 0 -48.5 -20
t-31.5 -75q59 12 81 32t22 43q0 20 -23 20z" />
    <glyph glyph-name="f" unicode="f" horiz-adv-x="405" 
d="M54 604h50q7 46 27 84t60.5 65t105 42t161.5 15l-10 -158q-37 0 -59 -3t-34.5 -9t-17.5 -15t-7 -21h107l-28 -154h-100l-63 -450h-226l63 450h-57z" />
    <glyph glyph-name="g" unicode="g" horiz-adv-x="630" 
d="M551 86q-10 -69 -41.5 -118t-78.5 -79.5t-105 -45t-121 -14.5q-51 0 -99 8t-89 24l40 162q74 -23 129 -23q56 0 92 17.5t47 63.5l-2 2q-27 -21 -58.5 -29.5t-66.5 -8.5q-40 0 -73.5 11.5t-58 36.5t-38 65t-13.5 97q0 79 22.5 147t66.5 118t109.5 78.5t152.5 28.5
q50 0 97 -5.5t99 -5.5h63zM285 219q22 0 43 19t27 64l21 150q-6 1 -13 1h-13q-24 0 -43.5 -13.5t-33 -37.5t-21 -57t-7.5 -72q0 -31 9.5 -42.5t30.5 -11.5z" />
    <glyph glyph-name="h" unicode="h" horiz-adv-x="643" 
d="M334 0l50 360q2 9 2 16v15q0 26 -9.5 36t-29.5 10q-31 0 -52 -26.5t-27 -70.5l-47 -340h-226l107 768l228 10l-20 -143q-2 -11 -3.5 -21.5t-3.5 -18.5l1 -1q60 34 135 34q89 0 133 -50t44 -144q0 -16 -1.5 -32.5t-3.5 -34.5l-51 -367h-226z" />
    <glyph glyph-name="i" unicode="i" horiz-adv-x="317" 
d="M-4 0l85 610l228 10l-87 -620h-226zM219 809q58 0 84 -17t26 -51q0 -95 -133 -95q-56 0 -82.5 14.5t-26.5 49.5q0 49 32 74t100 25z" />
    <glyph glyph-name="j" unicode="j" horiz-adv-x="324" 
d="M240 86q-10 -70 -38.5 -118t-72 -78.5t-99.5 -45t-119 -15.5l7 154q22 2 38.5 7.5t27.5 16.5t18 30t11 48l74 525l228 10zM225 809q58 0 84 -17t26 -51q0 -95 -133 -95q-56 0 -82.5 14.5t-26.5 49.5q0 49 32 74t100 25z" />
    <glyph glyph-name="k" unicode="k" horiz-adv-x="666" 
d="M-5 0l107 768l228 10l-23 -164q-2 -11 -3.5 -21.5t-3.5 -18.5l1 -1q42 29 86.5 42t87.5 13q81 0 119.5 -38t38.5 -110q0 -64 -29.5 -127t-89.5 -114q17 -35 43.5 -54t73.5 -28l-49 -166q-137 0 -217.5 76t-85.5 220q28 12 51 27.5t39.5 33t25.5 35.5t9 34q0 22 -23 22
q-16 0 -35 -11t-37 -35.5t-33 -64.5t-23 -97l-32 -231h-226z" />
    <glyph glyph-name="l" unicode="l" horiz-adv-x="315" 
d="M-5 0l107 768l228 10l-109 -778h-226z" />
    <glyph glyph-name="m" unicode="m" horiz-adv-x="953" 
d="M366 355q3 21 3 36q0 44 -35 44q-27 0 -45 -23.5t-24 -65.5l-48 -346h-227l85 611l178 9l10 -50h3q32 28 74.5 43t92.5 15q98 0 138 -74q37 35 84.5 54.5t104.5 19.5q85 0 124.5 -52t39.5 -146q0 -17 -1 -36t-4 -39l-49 -355h-226l49 355q3 19 3 35q0 24 -8.5 34
t-27.5 10q-27 0 -45 -24t-24 -70l-47 -340h-227z" />
    <glyph glyph-name="n" unicode="n" horiz-adv-x="638" 
d="M380 358q2 9 2 17v15q0 26 -9.5 36.5t-29.5 10.5q-29 0 -50 -23t-27 -65l-49 -349h-227l85 611l178 9l10 -50h3q32 28 74.5 43t93.5 15q89 0 133.5 -49.5t44.5 -144.5q0 -16 -1.5 -32.5t-3.5 -34.5l-51 -367h-226z" />
    <glyph glyph-name="o" unicode="o" horiz-adv-x="619" 
d="M324 450q-17 0 -30 -4.5t-23 -20t-17.5 -45t-14.5 -78.5q-4 -27 -5.5 -47.5t-1.5 -35.5q0 -40 12 -50.5t36 -10.5q18 0 31 4.5t22.5 20.5t17.5 45.5t15 80.5q4 26 5.5 46t1.5 35q0 38 -12 49t-37 11zM353 628q134 0 191 -60t57 -174q0 -21 -1.5 -44t-5.5 -48
q-11 -80 -36.5 -139t-67 -98t-100.5 -58.5t-138 -19.5q-134 0 -191.5 60.5t-57.5 174.5q0 21 1.5 43.5t5.5 47.5q11 80 36.5 139t67.5 98t101 58.5t138 19.5z" />
    <glyph glyph-name="p" unicode="p" horiz-adv-x="635" 
d="M432 628q95 0 141 -51t46 -164q0 -50 -9 -111q-12 -84 -36 -143.5t-58.5 -97.5t-78 -55.5t-93.5 -17.5q-37 0 -68 7.5t-57 20.5l-25 -175h-227l108 770l178 9l9 -47h3q36 30 79.5 42.5t87.5 12.5zM342 446q-29 0 -49 -25t-26 -65l-25 -177q23 -13 49 -13q19 0 32.5 5.5
t24 21.5t18.5 43.5t14 72.5q4 25 5.5 44.5t1.5 33.5q0 35 -11 47t-34 12z" />
    <glyph glyph-name="q" unicode="q" horiz-adv-x="635" 
d="M386 626q33 0 55.5 -1.5t43 -3.5t42 -3.5t52.5 -1.5h52l-109 -775h-226l19 138q2 11 3.5 20.5t4.5 19.5l-2 2q-31 -17 -63 -24.5t-63 -7.5q-194 0 -194 213q0 91 27.5 168.5t77.5 134.5t121.5 89t158.5 32zM278 164q29 0 48.5 24t27.5 62l27 198q-5 1 -11 1h-11
q-20 0 -38.5 -7.5t-35 -26.5t-29 -51.5t-19.5 -82.5q-3 -20 -4 -35t-1 -27q0 -32 10.5 -43.5t35.5 -11.5z" />
    <glyph glyph-name="r" unicode="r" horiz-adv-x="474" 
d="M427 628q23 0 44.5 -5.5t34.5 -14.5l-63 -212q-12 9 -26 12.5t-34 3.5q-48 0 -84 -39.5t-46 -112.5l-36 -260h-227l85 610l177 9l6 -34q2 -10 3 -19.5t2 -19.5l2 -1q33 39 73.5 61t88.5 22z" />
    <glyph glyph-name="s" unicode="s" horiz-adv-x="479" 
d="M317 628q48 0 92 -10t76 -29l-84 -157q-24 10 -55 14t-63 4q-19 0 -27 -7.5t-8 -18.5q0 -13 14.5 -21.5t36.5 -16t47.5 -17.5t47.5 -26.5t36.5 -42.5t14.5 -65v-16q0 -7 -2 -15q-7 -48 -24 -87.5t-48.5 -68t-78.5 -44t-113 -15.5q-60 0 -112 15t-92 40l66 158
q35 -23 73 -33t70 -10q43 0 43 28q0 14 -14.5 22.5t-37 17.5t-48 20t-48 29.5t-37 46t-14.5 69.5q0 50 18.5 93.5t55 75t90.5 49.5t125 18z" />
    <glyph glyph-name="t" unicode="t" horiz-adv-x="424" 
d="M32 604h78l47 139l180 17l-22 -156h129l-31 -168h-121l-29 -205q-1 -5 -1 -9v-8q0 -41 44 -41q11 0 26.5 3t28.5 8l-4 -162q-12 -6 -29 -11.5t-36.5 -9t-39.5 -6t-38 -2.5q-91 0 -136.5 45.5t-45.5 130.5q0 13 1 26t3 27l30 214h-65z" />
    <glyph glyph-name="u" unicode="u" horiz-adv-x="630" 
d="M580 231q-34 -241 -317 -241q-128 0 -190 49.5t-62 143.5q0 11 1 23.5t3 24.5l53 379l228 10l-55 -389q-1 -5 -1.5 -9t-0.5 -8q0 -23 12 -33t39 -10q31 0 45 14t19 46l54 383h226z" />
    <glyph glyph-name="v" unicode="v" horiz-adv-x="621" 
d="M604 640q5 -28 7.5 -61t2.5 -67q0 -29 -1.5 -56t-4.5 -48q-10 -75 -36.5 -135t-62 -106.5t-75.5 -80t-78.5 -55t-71 -31.5t-51.5 -10q-18 0 -52.5 13t-68 46t-59 90t-25.5 146q0 20 1.5 42.5t5.5 46.5l33 236l228 10l-35 -247q-5 -29 -6.5 -52.5t-1.5 -41.5
q0 -27 3.5 -43.5t8 -25.5t9.5 -12t9 -3q9 0 27 18.5t36 58.5t31.5 104t13.5 155q0 19 -0.5 35t-1.5 28z" />
    <glyph glyph-name="w" unicode="w" horiz-adv-x="939" 
d="M922 640q5 -29 7.5 -64t2.5 -70q0 -27 -1 -52.5t-4 -45.5q-10 -72 -35.5 -131t-59 -105.5t-72.5 -80.5t-75.5 -56.5t-68.5 -33.5t-51 -11q-12 0 -30 6.5t-38 22.5t-39.5 41t-34.5 63h-2q-28 -35 -57.5 -60t-57 -41.5t-51 -24.5t-38.5 -8q-17 0 -48.5 13t-63 46.5
t-54.5 90.5t-23 145q0 21 1.5 44t5.5 49l33 233l228 10l-35 -244q-5 -30 -6.5 -53.5t-1.5 -41.5q0 -26 3 -41t7 -23t8 -10.5t7 -2.5q7 0 18.5 9.5t24 32t24 59.5t19.5 93l30 213h227l-33 -235q-5 -29 -6 -52t-1 -41q0 -26 3 -41.5t7 -24t9 -11t8 -2.5q8 0 25 15t34 52.5
t30 100t13 157.5q0 20 -0.5 36t-1.5 29z" />
    <glyph glyph-name="x" unicode="x" horiz-adv-x="651" 
d="M-52 0l219 324l-126 286l258 9l39 -130q3 -11 5 -21l5 -18h2l9 18q5 10 10 18l76 130h239l-212 -313l128 -303h-252l-44 137q-7 19 -11 39h-2q-5 -9 -9.5 -18t-9.5 -18l-81 -140h-243z" />
    <glyph glyph-name="y" unicode="y" horiz-adv-x="625" 
d="M633 616q-29 -141 -80 -262.5t-120.5 -220.5t-156.5 -173.5t-189 -121.5l-74 162q39 20 75.5 46.5t68.5 58.5l-121 498l252 18l34 -235q2 -10 3 -20.5t2 -20.5h2q26 64 47 132.5t35 138.5h222z" />
    <glyph glyph-name="z" unicode="z" horiz-adv-x="533" 
d="M284 200q-7 -8 -13 -14.5t-13 -13.5v-2h231l-28 -170h-490l20 149l234 266q11 13 27 28l-1 2h-214l31 171h472l-21 -147z" />
    <glyph glyph-name="braceleft" unicode="{" horiz-adv-x="405" 
d="M313 437q-5 -38 -24.5 -66.5t-48.5 -47.5q42 -33 42 -92q0 -23 -4 -43t-9 -39t-9 -36.5t-4 -34.5q0 -26 14.5 -44.5t46.5 -18.5h37l-22 -154h-26q-70 0 -119 11t-79.5 32.5t-44.5 52t-14 69.5q0 18 3 38q3 18 8.5 39.5t11.5 43.5t10 42t4 34q0 23 -11.5 37.5t-27.5 21.5
l12 82q20 8 36.5 25.5t20.5 44.5q2 15 3 33.5t1.5 38.5t1.5 39.5t3 36.5q7 48 27 85.5t57 63.5t93 40t134 14h26l-22 -155h-37q-35 0 -55.5 -22.5t-25.5 -53.5q-4 -27 -4 -54.5t-5 -62.5z" />
    <glyph glyph-name="bar" unicode="|" horiz-adv-x="301" 
d="M62 802h175v-980h-175v980z" />
    <glyph glyph-name="braceright" unicode="}" horiz-adv-x="405" 
d="M82 208q11 76 73 115q-43 32 -43 91q0 23 4 43.5t9 39.5t9 36.5t4 34.5q0 26 -14.5 44t-44.5 18h-38l22 155h26q70 0 119 -11t79.5 -32t44 -51.5t13.5 -69.5q0 -18 -3 -39q-3 -18 -8.5 -40t-11 -43.5t-10 -41.5t-4.5 -34q0 -23 11.5 -37.5t28.5 -21.5l-12 -82
q-20 -8 -37.5 -25.5t-20.5 -44.5q-2 -15 -2.5 -34t-1.5 -38.5t-2 -39.5t-3 -36q-7 -48 -26.5 -85.5t-56.5 -63.5t-92.5 -40t-134.5 -14h-25l21 154h38q33 0 53.5 21.5t25.5 55.5q4 27 4.5 54.5t5.5 61.5z" />
    <glyph glyph-name="asciitilde" unicode="~" horiz-adv-x="631" 
d="M45 556q3 232 166 232q31 0 58.5 -9.5t53 -20.5t49 -20.5t44.5 -9.5q19 0 31 15.5t12 29.5h125q0 -117 -44 -174.5t-122 -57.5q-31 0 -58 9.5t-51.5 20.5t-46.5 20.5t-43 9.5q-20 0 -33.5 -14t-15.5 -31h-125z" />
    <glyph glyph-name="uni00A0" unicode="&#xa0;" horiz-adv-x="208" 
 />
    <glyph glyph-name="exclamdown" unicode="&#xa1;" horiz-adv-x="301" 
d="M251 417l-52 -549h-235l103 549h184zM188 652q55 0 80.5 -17t25.5 -57q0 -60 -32.5 -92t-101.5 -32q-56 0 -80.5 20.5t-24.5 58.5q0 54 32 86.5t101 32.5z" />
    <glyph glyph-name="cent" unicode="&#xa2;" horiz-adv-x="631" 
d="M526 728l-27 -113q36 -10 69 -29l-81 -157q-16 7 -32.5 9.5t-35.5 2.5q-21 0 -39.5 -5.5t-33.5 -20.5t-26 -42t-17 -71q-2 -16 -3 -29.5t-1 -24.5q0 -50 18 -67.5t48 -17.5q27 0 49.5 9.5t38.5 23.5l57 -132q-32 -29 -64.5 -45t-70.5 -24l-24 -108h-172l25 115
q-63 21 -99.5 76.5t-36.5 153.5q0 87 19 155t53.5 116t82.5 77t105 40l25 108h173z" />
    <glyph glyph-name="sterling" unicode="&#xa3;" horiz-adv-x="631" 
d="M60 449h43q-8 30 -8 58q0 48 19.5 94.5t61.5 83t108.5 58.5t161.5 22q60 0 101 -7.5t73 -17.5l-52 -190q-27 7 -58 12t-63 5q-36 0 -58 -6.5t-34.5 -18t-17 -27.5t-4.5 -35q0 -16 3 -31h219l-23 -164h-180q-11 -61 -62 -94l1 -2q35 8 72.5 11.5t69.5 3.5q41 0 72 -3
t65 -8l-40 -201q-57 8 -116.5 11t-120.5 3q-35 0 -67.5 -0.5t-66.5 -1.5t-70.5 -3t-78.5 -6l15 196q43 2 70.5 28t32.5 66h-82z" />
    <glyph glyph-name="currency" unicode="&#xa4;" horiz-adv-x="631" 
d="M345 574q20 0 37.5 -3.5t34.5 -9.5l90 78l97 -113l-84 -75q4 -14 6.5 -29t2.5 -32q0 -27 -7.5 -52.5t-19.5 -48.5l59 -69l-128 -113l-56 64q-46 -19 -91 -19q-46 0 -86 19l-75 -65l-96 113l78 69q-2 10 -3 21t-1 22q0 64 33 120l-64 75l129 112l66 -78q39 14 78 14z
M325 435q-31 0 -55 -23t-24 -56q0 -25 16.5 -41.5t42.5 -16.5q16 0 30.5 6t25.5 16.5t17.5 25t6.5 30.5q0 26 -16.5 42.5t-43.5 16.5z" />
    <glyph glyph-name="yen" unicode="&#xa5;" horiz-adv-x="631" 
d="M143 380l-89 369h272v-281q0 -10 -0.5 -20.5t-0.5 -20.5h2q2 9 4.5 19t5.5 20l84 283h263l-189 -369h80l-17 -122h-124l-4 -29h124l-17 -122h-124l-15 -107h-262l15 107h-116l17 122h116l4 29h-116l17 122h70z" />
    <glyph glyph-name="brokenbar" unicode="&#xa6;" horiz-adv-x="301" 
d="M62 802h175v-430h-175v430zM62 260h175v-420h-175v420z" />
    <glyph glyph-name="section" unicode="&#xa7;" horiz-adv-x="578" 
d="M366 770q25 0 52.5 -2t55 -6.5t52.5 -10.5t45 -15l-36 -156q-50 15 -92 21.5t-86 6.5q-23 0 -36.5 -7t-13.5 -20t18 -22.5t45.5 -21t59 -25.5t59 -35.5t45.5 -53t18 -75.5q0 -49 -24 -97.5t-73 -82.5q20 -20 31 -43.5t11 -52.5q0 -54 -21.5 -94.5t-60.5 -67.5t-93.5 -41
t-120.5 -14q-25 0 -52.5 2t-55 6.5t-52.5 11t-45 15.5l36 156q50 -15 92 -22t86 -7q23 0 36.5 6.5t13.5 18.5q0 13 -18 23t-45.5 21.5t-59 26t-59 36.5t-45.5 53t-18 76q0 49 24 97t72 82q-19 19 -30.5 43t-11.5 53q0 30 12.5 67.5t45.5 71t90.5 56t148.5 22.5zM259 365
q-18 -14 -21 -33q0 -23 17.5 -38.5t52.5 -32.5q9 8 15 17t6 20q0 19 -20.5 34.5t-49.5 32.5z" />
    <glyph glyph-name="dieresis" unicode="&#xa8;" horiz-adv-x="412" 
d="M165 809q42 0 60.5 -16t18.5 -48q0 -99 -102 -99q-39 0 -58.5 13.5t-19.5 45.5q0 104 101 104zM373 809q42 0 60.5 -16t18.5 -48q0 -99 -102 -99q-39 0 -59 14t-20 46q0 103 102 103z" />
    <glyph glyph-name="copyright" unicode="&#xa9;" horiz-adv-x="832" 
d="M473 768q74 0 136.5 -26t107.5 -71t70.5 -106t25.5 -132q0 -90 -37.5 -171t-99.5 -142t-143 -97t-169 -36q-74 0 -136.5 26t-108 71t-71 106.5t-25.5 132.5q0 89 38 170t100.5 142t143.5 97t168 36zM459 657q-65 0 -123.5 -26.5t-103.5 -71t-71.5 -102.5t-26.5 -122
q0 -51 18 -95.5t50.5 -77.5t77.5 -52t99 -19q63 0 122 26.5t104 71t72 103.5t27 124q0 51 -18 95t-50.5 76.5t-77.5 51t-99 18.5zM457 628q57 0 98 -17.5t68 -44.5l-35 -147q-19 11 -46.5 18t-51.5 7q-51 0 -75.5 -22.5t-24.5 -56.5q0 -28 20 -42.5t64 -14.5q26 0 55.5 7.5
t45.5 15.5q-1 -36 -1 -72v-70q-15 -13 -36.5 -25.5t-46.5 -22.5t-52.5 -16t-55.5 -6q-50 0 -91 17t-69.5 46.5t-44 69.5t-15.5 86q0 54 22 106t61 93t93 66t118 25z" />
    <glyph glyph-name="ordfeminine" unicode="&#xaa;" horiz-adv-x="555" 
d="M363 830q28 0 47.5 -1.5t37.5 -3.5t38 -3.5t50 -1.5h28l-73 -516h-147l-12 42q-30 -28 -64.5 -39.5t-68.5 -11.5q-75 0 -116.5 43.5t-41.5 135.5q0 75 23 140t65 113t101.5 75.5t132.5 27.5zM273 442q18 0 32.5 20.5t19.5 53.5l24 168h-11q-14 0 -28 -7t-26.5 -23.5
t-22 -44t-15.5 -69.5q-3 -19 -4 -33t-1 -25q0 -24 7.5 -32t24.5 -8z" />
    <glyph glyph-name="guillemotleft" unicode="&#xab;" horiz-adv-x="682" 
d="M517 315l115 -84l-23 -160l-305 237l2 13l372 238l-23 -161zM222 315l115 -84l-23 -160l-305 237l2 13l372 238l-23 -161z" />
    <glyph glyph-name="logicalnot" unicode="&#xac;" horiz-adv-x="631" 
d="M76 246v179h478v-322h-181v143h-297z" />
    <glyph glyph-name="uni00AD" unicode="&#xad;" horiz-adv-x="373" 
d="M350 419l-21 -152h-311l21 152h311z" />
    <glyph glyph-name="registered" unicode="&#xae;" horiz-adv-x="431" 
d="M284 833q39 0 71.5 -13.5t56 -37t36.5 -56t13 -69.5q0 -47 -19 -89.5t-51.5 -75t-75 -52t-89.5 -19.5q-39 0 -72.5 13.5t-57.5 37.5t-37.5 56.5t-13.5 70.5q0 48 20.5 90.5t54 74.5t76.5 50.5t88 18.5zM274 775q-33 0 -63.5 -14t-54.5 -37t-38 -53.5t-14 -64.5
q0 -27 9.5 -50t27 -40t41 -27t51.5 -10q33 0 63.5 13.5t54.5 36.5t38.5 53.5t14.5 63.5q0 27 -10 50.5t-27 41t-41 27.5t-52 10zM274 734q48 0 68.5 -17t20.5 -45q0 -20 -9.5 -38.5t-26.5 -29.5l17 -77h-91l-7 64h-5l-9 -64h-89l29 207h102zM248 642h13q9 0 12 5.5t3 10.5
q0 9 -12 9h-13z" />
    <glyph glyph-name="macron" unicode="&#xaf;" horiz-adv-x="412" 
d="M431 661h-363l18 127h363z" />
    <glyph glyph-name="degree" unicode="&#xb0;" horiz-adv-x="335" 
d="M58 665q4 32 20 60t39 48.5t52.5 32.5t61.5 12q29 0 53.5 -10t42.5 -27.5t28 -41.5t10 -52q0 -36 -14.5 -68t-39 -55.5t-56.5 -37.5t-67 -14q-59 0 -95.5 36.5t-36.5 93.5q0 6 0.5 11.5t1.5 11.5zM154 665q-1 -4 -1 -10q0 -21 13.5 -34t36.5 -13q28 0 47 19t19 48
q0 21 -13.5 34t-36.5 13q-26 0 -43.5 -15.5t-21.5 -41.5z" />
    <glyph glyph-name="plusminus" unicode="&#xb1;" horiz-adv-x="631" 
d="M413 322v-133h-198v133h-144v178h144v135h198v-135h145v-178h-145zM71 5v156h486v-156h-486z" />
    <glyph glyph-name="twosuperior" unicode="&#xb2;" horiz-adv-x="397" 
d="M276 882q78 0 113.5 -30.5t35.5 -75.5q0 -30 -11.5 -54.5t-32 -45t-49.5 -38.5t-64 -37v-3h130l-18 -116h-326l12 91q47 35 83.5 61t62 45.5t39 35t13.5 29.5q0 9 -9 15t-30 6q-28 0 -54.5 -8.5t-58.5 -24.5l-19 109q42 20 87 30.5t96 10.5z" />
    <glyph glyph-name="threesuperior" unicode="&#xb3;" horiz-adv-x="397" 
d="M262 882q81 0 122.5 -28.5t41.5 -76.5q0 -32 -16.5 -55t-47.5 -39v-2q23 -10 35.5 -26.5t12.5 -40.5q0 -65 -53 -101.5t-157 -36.5q-43 0 -82 9t-65 25l46 103q27 -13 55.5 -20.5t59.5 -7.5q26 0 39 6t13 21q0 5 -3.5 9t-14 6.5t-28.5 4t-46 1.5l13 94q33 0 52.5 2
t29 5.5t12 8t2.5 10.5q0 7 -9 12.5t-35 5.5q-34 0 -63.5 -7t-60.5 -24l-19 101q35 20 79 30.5t87 10.5z" />
    <glyph glyph-name="acute" unicode="&#xb4;" horiz-adv-x="413" 
d="M482 797l-147 -147h-168l64 147h251z" />
    <glyph glyph-name="mu" unicode="&#xb5;" horiz-adv-x="638" 
d="M253 -8q-19 0 -34.5 6.5t-27.5 22.5l-2 -1q-4 -90 -6 -173l-217 -15l110 784h227l-53 -376q-1 -5 -2 -15t-1 -13q0 -16 8.5 -27t31.5 -11q28 0 50.5 22.5t27.5 57.5l51 362h225l-86 -611l-161 -11l-22 45h-2q-21 -21 -50 -34t-67 -13z" />
    <glyph glyph-name="paragraph" unicode="&#xb6;" horiz-adv-x="743" 
d="M98 -168l85 604q-64 4 -104.5 36t-40.5 98q0 38 14 71t40 57t62.5 38t82.5 14h540l-34 -170h-72l-105 -748h-195l105 748h-78l-104 -748h-196z" />
    <glyph glyph-name="periodcentered" unicode="&#xb7;" horiz-adv-x="311" 
d="M169 458q57 0 82.5 -22.5t25.5 -64.5q0 -61 -33.5 -98t-105.5 -37q-57 0 -83 19t-26 64q0 66 34 102.5t106 36.5z" />
    <glyph glyph-name="cedilla" unicode="&#xb8;" horiz-adv-x="413" 
d="M116 22h147l-62 -209h-196z" />
    <glyph glyph-name="onesuperior" unicode="&#xb9;" horiz-adv-x="300" 
d="M277 482h-150l26 190q2 10 3.5 20.5t4.5 19.5l-2 2q-18 -12 -36 -19l-43 -20l4 121l153 80h95z" />
    <glyph glyph-name="ordmasculine" unicode="&#xba;" horiz-adv-x="523" 
d="M528 561q-10 -72 -31 -122.5t-55 -82t-81 -46t-109 -14.5q-104 0 -155.5 43.5t-51.5 144.5q0 35 6 77q20 143 87 205.5t189 62.5q106 0 156.5 -44.5t50.5 -145.5q0 -35 -6 -78zM248 561q-3 -25 -5 -44t-2 -30q0 -29 8 -37t25 -8q12 0 20.5 4t15 16.5t12 36t10.5 62.5
q3 25 5 43.5t2 30.5q0 29 -8 36.5t-25 7.5q-12 0 -20 -3.5t-15 -15.5t-12 -35.5t-11 -63.5z" />
    <glyph glyph-name="guillemotright" unicode="&#xbb;" horiz-adv-x="682" 
d="M310 231l138 84l-115 83l23 161l306 -238l-2 -13l-373 -237zM16 231l138 84l-115 83l23 161l306 -238l-2 -13l-373 -237z" />
    <glyph glyph-name="onequarter" unicode="&#xbc;" horiz-adv-x="1030" 
d="M259 356h-150l26 190q2 10 3.5 20.5t4.5 19.5l-2 2q-18 -12 -36 -19l-43 -20l4 121l153 80h95zM867 750l-596 -750h-153l594 750h155zM946 59l-8 -59h-139l8 59h-204v81l211 254h179l-32 -227h34l-18 -108h-31zM838 226q3 21 9 40l-2 1q-6 -8 -12.5 -17t-12.5 -17
l-27 -35q-12 -15 -26 -29l1 -2h59z" />
    <glyph glyph-name="onehalf" unicode="&#xbd;" horiz-adv-x="1025" 
d="M259 356h-150l26 190q2 10 3.5 20.5t4.5 19.5l-2 2q-18 -12 -36 -19l-43 -20l4 121l153 80h95zM867 750l-596 -750h-153l594 750h155zM836 400q78 0 113.5 -30.5t35.5 -75.5q0 -30 -11.5 -54.5t-32 -45t-49.5 -38.5t-64 -37v-3h130l-18 -116h-326l12 91q47 35 83.5 61
t62 45.5t39 35t13.5 29.5q0 9 -9 15t-30 6q-28 0 -54.5 -8.5t-58.5 -24.5l-19 109q42 20 87 30.5t96 10.5z" />
    <glyph glyph-name="threequarters" unicode="&#xbe;" horiz-adv-x="1127" 
d="M244 756q81 0 122.5 -28.5t41.5 -76.5q0 -32 -16.5 -55t-47.5 -39v-2q23 -10 35.5 -26.5t12.5 -40.5q0 -65 -53 -101.5t-157 -36.5q-43 0 -82 9t-65 25l46 103q27 -13 55.5 -20.5t59.5 -7.5q26 0 39 6t13 21q0 5 -3.5 9t-14 6.5t-28.5 4t-46 1.5l13 94q33 0 52.5 2
t29 5.5t12 8t2.5 10.5q0 7 -9 12.5t-35 5.5q-34 0 -63.5 -7t-60.5 -24l-19 101q35 20 79 30.5t87 10.5zM964 750l-596 -750h-153l594 750h155zM1043 59l-8 -59h-139l8 59h-204v81l211 254h179l-32 -227h34l-18 -108h-31zM935 226q3 21 9 40l-2 1q-6 -8 -12.5 -17t-12.5 -17
l-27 -35q-12 -15 -26 -29l1 -2h59z" />
    <glyph glyph-name="questiondown" unicode="&#xbf;" horiz-adv-x="488" 
d="M199 -101q-117 0 -173.5 46t-56.5 123q0 46 14 85t39.5 71.5t60.5 59t78 47.5l20 91h176l-12 -168q-27 -12 -52 -26t-43.5 -29t-29.5 -32t-11 -36q0 -15 12 -25t40 -10q35 0 67 10.5t58 30.5l55 -171q-43 -30 -109 -48.5t-133 -18.5zM306 670q55 0 80.5 -17.5t25.5 -57.5
q0 -59 -32.5 -91.5t-101.5 -32.5q-56 0 -80.5 20.5t-24.5 58.5q0 54 32 87t101 33z" />
    <glyph glyph-name="Agrave" unicode="&#xc0;" horiz-adv-x="761" 
d="M435 120h-191l-44 -120h-259l345 750h293l141 -750h-274zM399 540q-2 -9 -5.5 -19t-7.5 -20l-74 -201h109l-17 199q-1 11 -2 20.5t-1 20.5h-2zM361 788l-120 124h259l41 -124h-180z" />
    <glyph glyph-name="Aacute" unicode="&#xc1;" horiz-adv-x="761" 
d="M435 120h-191l-44 -120h-259l345 750h293l141 -750h-274zM399 540q-2 -9 -5.5 -19t-7.5 -20l-74 -201h109l-17 199q-1 11 -2 20.5t-1 20.5h-2zM683 912l-168 -124h-177l67 124h278z" />
    <glyph glyph-name="Acircumflex" unicode="&#xc2;" horiz-adv-x="761" 
d="M435 120h-191l-44 -120h-259l345 750h293l141 -750h-274zM399 540q-2 -9 -5.5 -19t-7.5 -20l-74 -201h109l-17 199q-1 11 -2 20.5t-1 20.5h-2zM580 913l78 -125h-191l-19 39l-31 -39h-188l110 125h241z" />
    <glyph glyph-name="Atilde" unicode="&#xc3;" horiz-adv-x="761" 
d="M435 120h-191l-44 -120h-259l345 750h293l141 -750h-274zM399 540q-2 -9 -5.5 -19t-7.5 -20l-74 -201h109l-17 199q-1 11 -2 20.5t-1 20.5h-2zM243 788q10 61 47.5 98t99.5 37q28 0 50 -3.5t40 -8.5l32 -8q14 -3 26 -3t17 2.5t7 10.5h96q-10 -63 -48.5 -98.5t-96.5 -35.5
q-28 0 -49.5 3.5t-38.5 8t-30 8.5t-25 4q-10 0 -17.5 -4.5t-9.5 -10.5h-100z" />
    <glyph glyph-name="Adieresis" unicode="&#xc4;" horiz-adv-x="761" 
d="M435 120h-191l-44 -120h-259l345 750h293l141 -750h-274zM399 540q-2 -9 -5.5 -19t-7.5 -20l-74 -201h109l-17 199q-1 11 -2 20.5t-1 20.5h-2zM354 937q41 0 59 -16t18 -45q0 -93 -98 -93q-40 0 -60 13t-20 45q0 46 25.5 71t75.5 25zM560 937q42 0 60 -16t18 -45
q0 -93 -99 -93q-40 0 -60 13t-20 45q0 46 25.5 71t75.5 25z" />
    <glyph glyph-name="Aring" unicode="&#xc5;" horiz-adv-x="761" 
d="M449 920q43 0 72.5 -7t47.5 -19.5t26 -30t8 -39.5q0 -54 -22 -85l139 -739h-274l-11 120h-191l-44 -120h-259l335 729q-9 18 -9 45q0 33 8.5 60t29 46t55.5 29.5t89 10.5zM399 540q-2 -9 -5.5 -19t-7.5 -20l-74 -201h109l-17 199q-1 11 -2 20.5t-1 20.5h-2zM442 828
q-20 0 -32 -2.5t-18.5 -7.5t-8.5 -13t-2 -19t10 -16t42 -5q34 0 46 8t12 30q0 12 -10 18.5t-39 6.5z" />
    <glyph glyph-name="AE" unicode="&#xc6;" horiz-adv-x="1076" 
d="M787 556l-11 -88h226l-24 -174h-223l-12 -101h289l-31 -193h-530l15 121h-190l-66 -121h-289l493 750h659l-23 -194h-283zM542 577q-3 -8 -8 -17t-10 -20l-131 -241h116l29 236q2 11 3.5 20.5t3.5 20.5z" />
    <glyph glyph-name="Ccedilla" unicode="&#xc7;" horiz-adv-x="586" 
d="M242 -8q-112 18 -167.5 88t-55.5 197q0 23 2 48.5t6 52.5q13 91 44.5 163t84 121.5t126 75.5t170.5 26q44 0 89.5 -8t78.5 -20l-48 -187q-27 8 -60 13t-72 5q-42 0 -68.5 -9t-43.5 -31t-26.5 -58.5t-17.5 -91.5q-4 -28 -6 -51t-2 -42q0 -29 6 -49t19 -32t34.5 -17
t52.5 -5q38 0 72 6.5t64 17.5l-2 -181q-28 -11 -60.5 -19.5t-65.5 -13.5l-52 -178h-196z" />
    <glyph glyph-name="Egrave" unicode="&#xc8;" horiz-adv-x="614" 
d="M569 192l-30 -192h-547l105 750h534l-23 -194h-293l-13 -88h239l-24 -174h-239l-15 -102h306zM301 788l-120 124h259l41 -124h-180z" />
    <glyph glyph-name="Eacute" unicode="&#xc9;" horiz-adv-x="614" 
d="M569 192l-30 -192h-547l105 750h534l-23 -194h-293l-13 -88h239l-24 -174h-239l-15 -102h306zM622 912l-168 -124h-177l67 124h278z" />
    <glyph glyph-name="Ecircumflex" unicode="&#xca;" horiz-adv-x="614" 
d="M569 192l-30 -192h-547l105 750h534l-23 -194h-293l-13 -88h239l-24 -174h-239l-15 -102h306zM513 913l78 -125h-191l-19 39l-31 -39h-188l110 125h241z" />
    <glyph glyph-name="Edieresis" unicode="&#xcb;" horiz-adv-x="614" 
d="M569 192l-30 -192h-547l105 750h534l-23 -194h-293l-13 -88h239l-24 -174h-239l-15 -102h306zM295 937q41 0 59 -16t18 -45q0 -93 -98 -93q-40 0 -60 13t-20 45q0 46 25.5 71t75.5 25zM501 937q42 0 60 -16t18 -45q0 -93 -99 -93q-40 0 -60 13t-20 45q0 46 25.5 71
t75.5 25z" />
    <glyph glyph-name="Igrave" unicode="&#xcc;" horiz-adv-x="351" 
d="M105 750h251l-105 -750h-251zM160 788l-120 124h259l41 -124h-180z" />
    <glyph glyph-name="Iacute" unicode="&#xcd;" horiz-adv-x="351" 
d="M105 750h251l-105 -750h-251zM482 912l-168 -124h-177l67 124h278z" />
    <glyph glyph-name="Icircumflex" unicode="&#xce;" horiz-adv-x="351" 
d="M105 750h251l-105 -750h-251zM373 913l78 -125h-191l-19 39l-31 -39h-188l110 125h241z" />
    <glyph glyph-name="Idieresis" unicode="&#xcf;" horiz-adv-x="351" 
d="M105 750h251l-105 -750h-251zM154 937q41 0 59 -16t18 -45q0 -93 -98 -93q-40 0 -60 13t-20 45q0 46 25.5 71t75.5 25zM360 937q42 0 60 -16t18 -45q0 -93 -99 -93q-40 0 -60 13t-20 45q0 46 25.5 71t75.5 25z" />
    <glyph glyph-name="Eth" unicode="&#xd0;" horiz-adv-x="740" 
d="M418 750q162 0 235.5 -66.5t73.5 -205.5q0 -23 -1.5 -47.5t-5.5 -51.5q-14 -102 -47 -173.5t-84 -117.5t-119.5 -67t-153.5 -21h-310l44 320h-47l19 133h47l42 297h307zM314 453h57l-19 -133h-57l-17 -122h60q30 0 49.5 5.5t33.5 24.5t23 55t18 97q4 29 6 51.5t2 39.5
q0 49 -19.5 64.5t-62.5 15.5h-60z" />
    <glyph glyph-name="Ntilde" unicode="&#xd1;" horiz-adv-x="735" 
d="M473 0l-194 340q-5 8 -10 18t-9 19l-2 -1q-1 -10 -1.5 -20.5t-2.5 -20.5l-47 -335h-215l105 750h201l167 -312q5 -10 10 -19t8 -16h2l2 20q1 10 3 20l43 307h215l-105 -750h-170zM224 788q10 61 47.5 98t99.5 37q28 0 50 -3.5t40 -8.5l32 -8q14 -3 26 -3t17 2.5t7 10.5
h96q-10 -63 -48.5 -98.5t-96.5 -35.5q-28 0 -49.5 3.5t-38.5 8t-30 8.5t-25 4q-10 0 -17.5 -4.5t-9.5 -10.5h-100z" />
    <glyph glyph-name="Ograve" unicode="&#xd2;" horiz-adv-x="756" 
d="M734 375q-14 -101 -44.5 -174t-80.5 -121t-120 -71t-163 -23q-158 0 -232.5 71.5t-74.5 217.5q0 23 1.5 48t5.5 52q28 196 126 291.5t283 95.5q159 0 233 -69.5t74 -212.5q0 -24 -2 -50t-6 -55zM476 376q5 34 7.5 60.5t2.5 46.5q0 52 -18.5 68.5t-60.5 16.5
q-29 0 -48.5 -7.5t-33 -28.5t-23 -58.5t-18.5 -97.5q-5 -33 -7.5 -59.5t-2.5 -46.5q0 -55 18.5 -72.5t60.5 -17.5q28 0 48 8t34 29.5t23.5 59.5t17.5 99zM367 788l-120 124h259l41 -124h-180z" />
    <glyph glyph-name="Oacute" unicode="&#xd3;" horiz-adv-x="756" 
d="M734 375q-14 -101 -44.5 -174t-80.5 -121t-120 -71t-163 -23q-158 0 -232.5 71.5t-74.5 217.5q0 23 1.5 48t5.5 52q28 196 126 291.5t283 95.5q159 0 233 -69.5t74 -212.5q0 -24 -2 -50t-6 -55zM476 376q5 34 7.5 60.5t2.5 46.5q0 52 -18.5 68.5t-60.5 16.5
q-29 0 -48.5 -7.5t-33 -28.5t-23 -58.5t-18.5 -97.5q-5 -33 -7.5 -59.5t-2.5 -46.5q0 -55 18.5 -72.5t60.5 -17.5q28 0 48 8t34 29.5t23.5 59.5t17.5 99zM685 912l-168 -124h-177l67 124h278z" />
    <glyph glyph-name="Ocircumflex" unicode="&#xd4;" horiz-adv-x="756" 
d="M734 375q-14 -101 -44.5 -174t-80.5 -121t-120 -71t-163 -23q-158 0 -232.5 71.5t-74.5 217.5q0 23 1.5 48t5.5 52q28 196 126 291.5t283 95.5q159 0 233 -69.5t74 -212.5q0 -24 -2 -50t-6 -55zM476 376q5 34 7.5 60.5t2.5 46.5q0 52 -18.5 68.5t-60.5 16.5
q-29 0 -48.5 -7.5t-33 -28.5t-23 -58.5t-18.5 -97.5q-5 -33 -7.5 -59.5t-2.5 -46.5q0 -55 18.5 -72.5t60.5 -17.5q28 0 48 8t34 29.5t23.5 59.5t17.5 99zM578 913l78 -125h-191l-19 39l-31 -39h-188l110 125h241z" />
    <glyph glyph-name="Otilde" unicode="&#xd5;" horiz-adv-x="756" 
d="M734 375q-14 -101 -44.5 -174t-80.5 -121t-120 -71t-163 -23q-158 0 -232.5 71.5t-74.5 217.5q0 23 1.5 48t5.5 52q28 196 126 291.5t283 95.5q159 0 233 -69.5t74 -212.5q0 -24 -2 -50t-6 -55zM476 376q5 34 7.5 60.5t2.5 46.5q0 52 -18.5 68.5t-60.5 16.5
q-29 0 -48.5 -7.5t-33 -28.5t-23 -58.5t-18.5 -97.5q-5 -33 -7.5 -59.5t-2.5 -46.5q0 -55 18.5 -72.5t60.5 -17.5q28 0 48 8t34 29.5t23.5 59.5t17.5 99zM237 788q10 61 47.5 98t99.5 37q28 0 50 -3.5t40 -8.5l32 -8q14 -3 26 -3t17 2.5t7 10.5h96q-10 -63 -48.5 -98.5
t-96.5 -35.5q-28 0 -49.5 3.5t-38.5 8t-30 8.5t-25 4q-10 0 -17.5 -4.5t-9.5 -10.5h-100z" />
    <glyph glyph-name="Odieresis" unicode="&#xd6;" horiz-adv-x="756" 
d="M734 375q-14 -101 -44.5 -174t-80.5 -121t-120 -71t-163 -23q-158 0 -232.5 71.5t-74.5 217.5q0 23 1.5 48t5.5 52q28 196 126 291.5t283 95.5q159 0 233 -69.5t74 -212.5q0 -24 -2 -50t-6 -55zM476 376q5 34 7.5 60.5t2.5 46.5q0 52 -18.5 68.5t-60.5 16.5
q-29 0 -48.5 -7.5t-33 -28.5t-23 -58.5t-18.5 -97.5q-5 -33 -7.5 -59.5t-2.5 -46.5q0 -55 18.5 -72.5t60.5 -17.5q28 0 48 8t34 29.5t23.5 59.5t17.5 99zM358 937q41 0 59 -16t18 -45q0 -93 -98 -93q-40 0 -60 13t-20 45q0 46 25.5 71t75.5 25zM564 937q42 0 60 -16t18 -45
q0 -93 -99 -93q-40 0 -60 13t-20 45q0 46 25.5 71t75.5 25z" />
    <glyph glyph-name="multiply" unicode="&#xd7;" horiz-adv-x="607" 
d="M420 75l-118 117l-116 -118l-129 130l117 117l-121 120l128 131l122 -122l122 122l129 -129l-123 -122l118 -117z" />
    <glyph glyph-name="Oslash" unicode="&#xd8;" horiz-adv-x="756" 
d="M-24 76l63 64q-11 29 -15.5 62.5t-4.5 71.5q0 23 1.5 48.5t5.5 52.5q28 196 126 291.5t283 95.5q130 0 202 -47l51 51l97 -100l-62 -62q19 -53 19 -126q0 -24 -2 -49.5t-6 -53.5q-14 -101 -44.5 -174t-80.5 -121t-120 -71t-163 -23q-126 0 -199 46l-51 -52zM470 536
q-10 12 -26 16.5t-39 4.5q-27 0 -47 -7t-34.5 -29t-25 -62.5t-17.5 -106.5zM292 210q10 -11 24.5 -15.5t37.5 -4.5q28 0 48 8t34.5 30.5t24.5 61.5t18 102z" />
    <glyph glyph-name="Ugrave" unicode="&#xd9;" horiz-adv-x="715" 
d="M667 267q-20 -137 -108.5 -209t-251.5 -72q-146 0 -217.5 57.5t-71.5 167.5q0 14 1 27.5t3 28.5l68 483h246l-69 -490q-1 -6 -1.5 -11t-0.5 -10q0 -29 16 -42t54 -13q44 0 62 17.5t24 58.5l69 490h245zM344 788l-120 124h259l41 -124h-180z" />
    <glyph glyph-name="Uacute" unicode="&#xda;" horiz-adv-x="715" 
d="M667 267q-20 -137 -108.5 -209t-251.5 -72q-146 0 -217.5 57.5t-71.5 167.5q0 14 1 27.5t3 28.5l68 483h246l-69 -490q-1 -6 -1.5 -11t-0.5 -10q0 -29 16 -42t54 -13q44 0 62 17.5t24 58.5l69 490h245zM666 912l-168 -124h-177l67 124h278z" />
    <glyph glyph-name="Ucircumflex" unicode="&#xdb;" horiz-adv-x="715" 
d="M667 267q-20 -137 -108.5 -209t-251.5 -72q-146 0 -217.5 57.5t-71.5 167.5q0 14 1 27.5t3 28.5l68 483h246l-69 -490q-1 -6 -1.5 -11t-0.5 -10q0 -29 16 -42t54 -13q44 0 62 17.5t24 58.5l69 490h245zM558 913l78 -125h-191l-19 39l-31 -39h-188l110 125h241z" />
    <glyph glyph-name="Udieresis" unicode="&#xdc;" horiz-adv-x="715" 
d="M667 267q-20 -137 -108.5 -209t-251.5 -72q-146 0 -217.5 57.5t-71.5 167.5q0 14 1 27.5t3 28.5l68 483h246l-69 -490q-1 -6 -1.5 -11t-0.5 -10q0 -29 16 -42t54 -13q44 0 62 17.5t24 58.5l69 490h245zM338 937q41 0 59 -16t18 -45q0 -93 -98 -93q-40 0 -60 13t-20 45
q0 46 25.5 71t75.5 25zM544 937q42 0 60 -16t18 -45q0 -93 -99 -93q-40 0 -60 13t-20 45q0 46 25.5 71t75.5 25z" />
    <glyph glyph-name="Yacute" unicode="&#xdd;" horiz-adv-x="729" 
d="M318 750l57 -258l8 -40h2q3 9 7.5 18.5t9.5 18.5l127 261h267l-322 -525l-31 -225h-251l31 225l-180 525h275zM676 912l-168 -124h-177l67 124h278z" />
    <glyph glyph-name="Thorn" unicode="&#xde;" horiz-adv-x="680" 
d="M373 650q156 0 226 -54t70 -162q0 -74 -21 -134t-66 -102.5t-115.5 -65.5t-169.5 -23h-45l-15 -109h-245l105 750h245l-14 -100h45zM277 286h45q22 0 37 3t25 12t16.5 26t10.5 46q3 22 3 39q0 31 -14.5 41t-52.5 10h-45z" />
    <glyph glyph-name="germandbls" unicode="&#xdf;" horiz-adv-x="685" 
d="M58 475q20 145 99.5 216.5t224.5 71.5q54 0 97 -13.5t72.5 -36.5t45 -55t15.5 -69q0 -32 -10 -56t-22.5 -42t-23.5 -31t-12 -24q0 -10 17 -22t37 -31.5t37 -50.5t17 -78q0 -60 -23 -108.5t-62.5 -83t-92 -53.5t-112.5 -19q-31 0 -64 5.5t-55 19.5l35 178q9 -6 29 -11
t42 -5q12 0 24.5 1.5t22.5 6.5t16 14t6 23q0 21 -19 38.5t-42 36.5t-42 42t-19 55q0 31 14.5 56.5t32.5 46.5t32.5 37t14.5 30q0 25 -39 25q-29 0 -43 -19t-21 -75l-57 -406q-10 -70 -38.5 -118.5t-72 -79t-99 -44.5t-118.5 -16l7 155q22 2 38 7t27 16.5t18.5 30.5t11.5 48z
" />
    <glyph glyph-name="agrave" unicode="&#xe0;" horiz-adv-x="635" 
d="M386 626q34 0 58 -2t46 -4t47 -4t60 -2h34l-86 -614h-175l-13 42q-37 -29 -79 -41t-83 -12q-194 0 -194 213q0 91 27.5 168.5t77.5 134.5t121.5 89t158.5 32zM278 165q30 0 50.5 26t26.5 68l26 188q-5 0 -11 0.5t-13 0.5q-19 0 -37.5 -7.5t-34.5 -26.5t-28.5 -51.5
t-19.5 -81.5q-6 -39 -6 -63q0 -32 11 -42.5t36 -10.5zM372 650l-112 147h251l29 -147h-168z" />
    <glyph glyph-name="aacute" unicode="&#xe1;" horiz-adv-x="635" 
d="M386 626q34 0 58 -2t46 -4t47 -4t60 -2h34l-86 -614h-175l-13 42q-37 -29 -79 -41t-83 -12q-194 0 -194 213q0 91 27.5 168.5t77.5 134.5t121.5 89t158.5 32zM278 165q30 0 50.5 26t26.5 68l26 188q-5 0 -11 0.5t-13 0.5q-19 0 -37.5 -7.5t-34.5 -26.5t-28.5 -51.5
t-19.5 -81.5q-6 -39 -6 -63q0 -32 11 -42.5t36 -10.5zM630 797l-147 -147h-168l64 147h251z" />
    <glyph glyph-name="acircumflex" unicode="&#xe2;" horiz-adv-x="635" 
d="M386 626q34 0 58 -2t46 -4t47 -4t60 -2h34l-86 -614h-175l-13 42q-37 -29 -79 -41t-83 -12q-194 0 -194 213q0 91 27.5 168.5t77.5 134.5t121.5 89t158.5 32zM278 165q30 0 50.5 26t26.5 68l26 188q-5 0 -11 0.5t-13 0.5q-19 0 -37.5 -7.5t-34.5 -26.5t-28.5 -51.5
t-19.5 -81.5q-6 -39 -6 -63q0 -32 11 -42.5t36 -10.5zM529 797l75 -147h-164l-20 56h-2q-5 -9 -8 -14.5t-8 -13.5l-18 -28h-162l113 147h194z" />
    <glyph glyph-name="atilde" unicode="&#xe3;" horiz-adv-x="635" 
d="M386 626q34 0 58 -2t46 -4t47 -4t60 -2h34l-86 -614h-175l-13 42q-37 -29 -79 -41t-83 -12q-194 0 -194 213q0 91 27.5 168.5t77.5 134.5t121.5 89t158.5 32zM278 165q30 0 50.5 26t26.5 68l26 188q-5 0 -11 0.5t-13 0.5q-19 0 -37.5 -7.5t-34.5 -26.5t-28.5 -51.5
t-19.5 -81.5q-6 -39 -6 -63q0 -32 11 -42.5t36 -10.5zM499 642q-27 0 -45.5 5.5t-31.5 12t-22.5 12t-19.5 5.5q-15 0 -22 -28h-120q10 70 48.5 113t99.5 43q27 0 45 -5.5t31 -12.5t22.5 -12.5t19.5 -5.5q16 0 22 28h121q-11 -70 -49.5 -112.5t-98.5 -42.5z" />
    <glyph glyph-name="adieresis" unicode="&#xe4;" horiz-adv-x="635" 
d="M386 626q34 0 58 -2t46 -4t47 -4t60 -2h34l-86 -614h-175l-13 42q-37 -29 -79 -41t-83 -12q-194 0 -194 213q0 91 27.5 168.5t77.5 134.5t121.5 89t158.5 32zM278 165q30 0 50.5 26t26.5 68l26 188q-5 0 -11 0.5t-13 0.5q-19 0 -37.5 -7.5t-34.5 -26.5t-28.5 -51.5
t-19.5 -81.5q-6 -39 -6 -63q0 -32 11 -42.5t36 -10.5zM343 809q42 0 60.5 -16t18.5 -48q0 -99 -102 -99q-39 0 -58.5 13.5t-19.5 45.5q0 104 101 104zM551 809q42 0 60.5 -16t18.5 -48q0 -99 -102 -99q-39 0 -59 14t-20 46q0 103 102 103z" />
    <glyph glyph-name="aring" unicode="&#xe5;" horiz-adv-x="635" 
d="M386 626q34 0 58 -2t46 -4t47 -4t60 -2h34l-86 -614h-175l-13 42q-37 -29 -79 -41t-83 -12q-194 0 -194 213q0 91 27.5 168.5t77.5 134.5t121.5 89t158.5 32zM278 165q30 0 50.5 26t26.5 68l26 188q-5 0 -11 0.5t-13 0.5q-19 0 -37.5 -7.5t-34.5 -26.5t-28.5 -51.5
t-19.5 -81.5q-6 -39 -6 -63q0 -32 11 -42.5t36 -10.5zM444 840q77 0 109.5 -23t32.5 -61q0 -61 -41 -87.5t-129 -26.5q-72 0 -106.5 16.5t-34.5 61.5q0 27 8.5 49.5t28 38t52 24t80.5 8.5zM436 762q-35 0 -45 -7t-10 -21q0 -8 9.5 -12t38.5 -4t40 5t13 17q0 10 -7.5 16
t-38.5 6z" />
    <glyph glyph-name="ae" unicode="&#xe6;" horiz-adv-x="898" 
d="M697 628q94 0 147.5 -43.5t53.5 -115.5q0 -104 -78.5 -169t-237.5 -89q7 -26 27.5 -35.5t55.5 -9.5t67 10t59 27l55 -134q-40 -33 -102 -57t-145 -24q-70 0 -119 25t-72 81h-2q-21 -30 -46.5 -50t-53.5 -32t-58 -17.5t-59 -5.5q-188 0 -188 212q0 102 29 181t79.5 133.5
t117.5 82.5t142 28q53 0 94.5 -9t74.5 -26q62 37 159 37zM278 165q29 0 48.5 23.5t27.5 61.5l29 206q-5 1 -10 1h-10q-21 0 -41 -9.5t-36.5 -30.5t-29 -54.5t-19.5 -81.5q-6 -39 -6 -63q0 -32 11 -42.5t36 -10.5zM674 461q-30 0 -48.5 -20t-31.5 -75q57 11 80.5 30.5
t23.5 43.5q0 21 -24 21z" />
    <glyph glyph-name="ccedilla" unicode="&#xe7;" horiz-adv-x="487" 
d="M173 -6q-38 7 -69 25t-53 47t-34 70.5t-12 96.5q0 37 6 81q11 80 38.5 139t69.5 97.5t97.5 57.5t122.5 19q52 0 92.5 -10.5t73.5 -30.5l-81 -157q-16 7 -32.5 9.5t-35.5 2.5q-21 0 -39.5 -5.5t-33.5 -20.5t-26 -42t-17 -71q-2 -16 -3 -29.5t-1 -24.5q0 -50 18 -67.5
t48 -17.5q27 0 49.5 9.5t38.5 23.5l57 -132q-55 -51 -120 -65l-54 -186h-196z" />
    <glyph glyph-name="egrave" unicode="&#xe8;" horiz-adv-x="547" 
d="M345 628q95 0 148 -43.5t53 -115.5q0 -108 -77 -167.5t-240 -82.5q6 -31 26.5 -42t58.5 -11q35 0 66.5 10t59.5 27l55 -134q-41 -33 -102.5 -57t-144.5 -24q-54 0 -98.5 14.5t-77 45t-50 77.5t-17.5 112q0 36 6 77q22 158 107 236t227 78zM323 461q-30 0 -48.5 -20
t-31.5 -75q59 12 81 32t22 43q0 20 -23 20zM277 650l-112 147h251l29 -147h-168z" />
    <glyph glyph-name="eacute" unicode="&#xe9;" horiz-adv-x="547" 
d="M345 628q95 0 148 -43.5t53 -115.5q0 -108 -77 -167.5t-240 -82.5q6 -31 26.5 -42t58.5 -11q35 0 66.5 10t59.5 27l55 -134q-41 -33 -102.5 -57t-144.5 -24q-54 0 -98.5 14.5t-77 45t-50 77.5t-17.5 112q0 36 6 77q22 158 107 236t227 78zM323 461q-30 0 -48.5 -20
t-31.5 -75q59 12 81 32t22 43q0 20 -23 20zM561 797l-147 -147h-168l64 147h251z" />
    <glyph glyph-name="ecircumflex" unicode="&#xea;" horiz-adv-x="547" 
d="M345 628q95 0 148 -43.5t53 -115.5q0 -108 -77 -167.5t-240 -82.5q6 -31 26.5 -42t58.5 -11q35 0 66.5 10t59.5 27l55 -134q-41 -33 -102.5 -57t-144.5 -24q-54 0 -98.5 14.5t-77 45t-50 77.5t-17.5 112q0 36 6 77q22 158 107 236t227 78zM323 461q-30 0 -48.5 -20
t-31.5 -75q59 12 81 32t22 43q0 20 -23 20zM467 797l75 -147h-164l-20 56h-2q-5 -9 -8 -14.5t-8 -13.5l-18 -28h-162l113 147h194z" />
    <glyph glyph-name="edieresis" unicode="&#xeb;" horiz-adv-x="547" 
d="M345 628q95 0 148 -43.5t53 -115.5q0 -108 -77 -167.5t-240 -82.5q6 -31 26.5 -42t58.5 -11q35 0 66.5 10t59.5 27l55 -134q-41 -33 -102.5 -57t-144.5 -24q-54 0 -98.5 14.5t-77 45t-50 77.5t-17.5 112q0 36 6 77q22 158 107 236t227 78zM323 461q-30 0 -48.5 -20
t-31.5 -75q59 12 81 32t22 43q0 20 -23 20zM258 809q42 0 60.5 -16t18.5 -48q0 -99 -102 -99q-39 0 -58.5 13.5t-19.5 45.5q0 104 101 104zM466 809q42 0 60.5 -16t18.5 -48q0 -99 -102 -99q-39 0 -59 14t-20 46q0 103 102 103z" />
    <glyph glyph-name="igrave" unicode="&#xec;" horiz-adv-x="317" 
d="M-4 0l85 610l233 10l-87 -620h-231zM137 650l-112 147h251l29 -147h-168z" />
    <glyph glyph-name="iacute" unicode="&#xed;" horiz-adv-x="317" 
d="M-4 0l85 610l233 10l-87 -620h-231zM422 797l-147 -147h-168l64 147h251z" />
    <glyph glyph-name="icircumflex" unicode="&#xee;" horiz-adv-x="317" 
d="M-4 0l85 610l233 10l-87 -620h-231zM323 797l75 -147h-164l-20 56h-2q-5 -9 -8 -14.5t-8 -13.5l-18 -28h-162l113 147h194z" />
    <glyph glyph-name="idieresis" unicode="&#xef;" horiz-adv-x="317" 
d="M-4 0l85 610l233 10l-87 -620h-231zM118 809q42 0 60.5 -16t18.5 -48q0 -99 -102 -99q-39 0 -58.5 13.5t-19.5 45.5q0 104 101 104zM326 809q42 0 60.5 -16t18.5 -48q0 -99 -102 -99q-39 0 -59 14t-20 46q0 103 102 103z" />
    <glyph glyph-name="eth" unicode="&#xf0;" horiz-adv-x="634" 
d="M504 666q51 -60 82 -133t31 -151q0 -23 -3 -45q-13 -93 -40 -159t-69.5 -107.5t-101.5 -61t-137 -19.5q-56 0 -104.5 10.5t-84 36t-56 68.5t-20.5 108q0 77 20.5 136.5t57.5 100t87.5 61.5t110.5 21q23 0 44.5 -2.5t40.5 -8.5q-10 17 -19 31.5t-20 28.5l-86 -40l-64 81
l75 35q-18 11 -35.5 21t-36.5 19l174 95q18 -10 36.5 -21.5t35.5 -25.5l93 45l60 -91zM312 356q-38 0 -57.5 -28.5t-19.5 -105.5q0 -36 12 -47.5t35 -11.5q22 0 36.5 5t24.5 17.5t16 34t11 55.5q1 8 1.5 14.5t0.5 12.5q0 30 -14.5 42t-45.5 12z" />
    <glyph glyph-name="ntilde" unicode="&#xf1;" horiz-adv-x="638" 
d="M380 358q2 9 2 17v15q0 26 -9.5 36.5t-29.5 10.5q-29 0 -50 -23t-27 -65l-49 -349h-227l85 611l178 9l10 -50h3q32 28 74.5 43t93.5 15q89 0 133.5 -49.5t44.5 -144.5q0 -16 -1.5 -32.5t-3.5 -34.5l-51 -367h-226zM439 642q-27 0 -45.5 5.5t-31.5 12t-22.5 12t-19.5 5.5
q-15 0 -22 -28h-120q10 70 48.5 113t99.5 43q27 0 45 -5.5t31 -12.5t22.5 -12.5t19.5 -5.5q16 0 22 28h121q-11 -70 -49.5 -112.5t-98.5 -42.5z" />
    <glyph glyph-name="ograve" unicode="&#xf2;" horiz-adv-x="619" 
d="M324 450q-17 0 -30 -4.5t-23 -20t-17.5 -45t-14.5 -78.5q-4 -27 -5.5 -47.5t-1.5 -35.5q0 -40 12 -50.5t36 -10.5q18 0 31 4.5t22.5 20.5t17.5 45.5t15 80.5q4 26 5.5 46t1.5 35q0 38 -12 49t-37 11zM353 628q134 0 191 -60t57 -174q0 -21 -1.5 -44t-5.5 -48
q-11 -80 -36.5 -139t-67 -98t-100.5 -58.5t-138 -19.5q-134 0 -191.5 60.5t-57.5 174.5q0 21 1.5 43.5t5.5 47.5q11 80 36.5 139t67.5 98t101 58.5t138 19.5zM283 650l-112 147h251l29 -147h-168z" />
    <glyph glyph-name="oacute" unicode="&#xf3;" horiz-adv-x="619" 
d="M324 450q-17 0 -30 -4.5t-23 -20t-17.5 -45t-14.5 -78.5q-4 -27 -5.5 -47.5t-1.5 -35.5q0 -40 12 -50.5t36 -10.5q18 0 31 4.5t22.5 20.5t17.5 45.5t15 80.5q4 26 5.5 46t1.5 35q0 38 -12 49t-37 11zM353 628q134 0 191 -60t57 -174q0 -21 -1.5 -44t-5.5 -48
q-11 -80 -36.5 -139t-67 -98t-100.5 -58.5t-138 -19.5q-134 0 -191.5 60.5t-57.5 174.5q0 21 1.5 43.5t5.5 47.5q11 80 36.5 139t67.5 98t101 58.5t138 19.5zM570 797l-147 -147h-168l64 147h251z" />
    <glyph glyph-name="ocircumflex" unicode="&#xf4;" horiz-adv-x="619" 
d="M324 450q-17 0 -30 -4.5t-23 -20t-17.5 -45t-14.5 -78.5q-4 -27 -5.5 -47.5t-1.5 -35.5q0 -40 12 -50.5t36 -10.5q18 0 31 4.5t22.5 20.5t17.5 45.5t15 80.5q4 26 5.5 46t1.5 35q0 38 -12 49t-37 11zM353 628q134 0 191 -60t57 -174q0 -21 -1.5 -44t-5.5 -48
q-11 -80 -36.5 -139t-67 -98t-100.5 -58.5t-138 -19.5q-134 0 -191.5 60.5t-57.5 174.5q0 21 1.5 43.5t5.5 47.5q11 80 36.5 139t67.5 98t101 58.5t138 19.5zM475 797l75 -147h-164l-20 56h-2q-5 -9 -8 -14.5t-8 -13.5l-18 -28h-162l113 147h194z" />
    <glyph glyph-name="otilde" unicode="&#xf5;" horiz-adv-x="619" 
d="M324 450q-17 0 -30 -4.5t-23 -20t-17.5 -45t-14.5 -78.5q-4 -27 -5.5 -47.5t-1.5 -35.5q0 -40 12 -50.5t36 -10.5q18 0 31 4.5t22.5 20.5t17.5 45.5t15 80.5q4 26 5.5 46t1.5 35q0 38 -12 49t-37 11zM353 628q134 0 191 -60t57 -174q0 -21 -1.5 -44t-5.5 -48
q-11 -80 -36.5 -139t-67 -98t-100.5 -58.5t-138 -19.5q-134 0 -191.5 60.5t-57.5 174.5q0 21 1.5 43.5t5.5 47.5q11 80 36.5 139t67.5 98t101 58.5t138 19.5zM429 642q-27 0 -45.5 5.5t-31.5 12t-22.5 12t-19.5 5.5q-15 0 -22 -28h-120q10 70 48.5 113t99.5 43q27 0 45 -5.5
t31 -12.5t22.5 -12.5t19.5 -5.5q16 0 22 28h121q-11 -70 -49.5 -112.5t-98.5 -42.5z" />
    <glyph glyph-name="odieresis" unicode="&#xf6;" horiz-adv-x="619" 
d="M324 450q-17 0 -30 -4.5t-23 -20t-17.5 -45t-14.5 -78.5q-4 -27 -5.5 -47.5t-1.5 -35.5q0 -40 12 -50.5t36 -10.5q18 0 31 4.5t22.5 20.5t17.5 45.5t15 80.5q4 26 5.5 46t1.5 35q0 38 -12 49t-37 11zM353 628q134 0 191 -60t57 -174q0 -21 -1.5 -44t-5.5 -48
q-11 -80 -36.5 -139t-67 -98t-100.5 -58.5t-138 -19.5q-134 0 -191.5 60.5t-57.5 174.5q0 21 1.5 43.5t5.5 47.5q11 80 36.5 139t67.5 98t101 58.5t138 19.5zM276 809q42 0 60.5 -16t18.5 -48q0 -99 -102 -99q-39 0 -58.5 13.5t-19.5 45.5q0 104 101 104zM484 809
q42 0 60.5 -16t18.5 -48q0 -99 -102 -99q-39 0 -59 14t-20 46q0 103 102 103z" />
    <glyph glyph-name="divide" unicode="&#xf7;" horiz-adv-x="607" 
d="M438 547q0 -96 -135 -96q-65 0 -99.5 20.5t-34.5 76.5q0 49 35 73.5t99 24.5q66 0 100.5 -24.5t34.5 -74.5zM438 118q0 -96 -135 -96q-66 0 -99.5 20t-33.5 77q0 48 34.5 72.5t98.5 24.5q135 0 135 -98zM48 236v193h509v-193h-509z" />
    <glyph glyph-name="oslash" unicode="&#xf8;" horiz-adv-x="619" 
d="M353 628q52 0 91.5 -9.5t68.5 -26.5l44 45l81 -80l-54 -54q17 -48 17 -111q0 -21 -2 -43.5t-5 -46.5q-11 -80 -36.5 -139t-67 -98t-100.5 -58.5t-138 -19.5q-94 0 -153 31l-42 -42l-81 80l47 47q-20 47 -20 118q0 21 1.5 44t5.5 48q11 80 36.5 139t67.5 98t101 58.5
t138 19.5zM324 450q-17 0 -30 -4.5t-23 -19.5t-17.5 -43.5t-14.5 -76.5l129 120q-5 15 -16 19.5t-28 4.5zM280 158q17 0 29.5 4.5t22.5 19t18 42t16 74.5l-129 -119q5 -14 16 -17.5t27 -3.5z" />
    <glyph glyph-name="ugrave" unicode="&#xf9;" horiz-adv-x="630" 
d="M580 231q-34 -241 -317 -241q-128 0 -190 49.5t-62 143.5q0 11 1 23.5t3 24.5l53 379l228 10l-55 -389q-1 -5 -1.5 -9t-0.5 -8q0 -23 12 -33t39 -10q31 0 45 14t19 46l54 383h226zM289 650l-112 147h251l29 -147h-168z" />
    <glyph glyph-name="uacute" unicode="&#xfa;" horiz-adv-x="630" 
d="M580 231q-34 -241 -317 -241q-128 0 -190 49.5t-62 143.5q0 11 1 23.5t3 24.5l53 379l228 10l-55 -389q-1 -5 -1.5 -9t-0.5 -8q0 -23 12 -33t39 -10q31 0 45 14t19 46l54 383h226zM566 797l-147 -147h-168l64 147h251z" />
    <glyph glyph-name="ucircumflex" unicode="&#xfb;" horiz-adv-x="630" 
d="M580 231q-34 -241 -317 -241q-128 0 -190 49.5t-62 143.5q0 11 1 23.5t3 24.5l53 379l228 10l-55 -389q-1 -5 -1.5 -9t-0.5 -8q0 -23 12 -33t39 -10q31 0 45 14t19 46l54 383h226zM476 797l75 -147h-164l-20 56h-2q-5 -9 -8 -14.5t-8 -13.5l-18 -28h-162l113 147h194z
" />
    <glyph glyph-name="udieresis" unicode="&#xfc;" horiz-adv-x="630" 
d="M580 231q-34 -241 -317 -241q-128 0 -190 49.5t-62 143.5q0 11 1 23.5t3 24.5l53 379l228 10l-55 -389q-1 -5 -1.5 -9t-0.5 -8q0 -23 12 -33t39 -10q31 0 45 14t19 46l54 383h226zM275 809q42 0 60.5 -16t18.5 -48q0 -99 -102 -99q-39 0 -58.5 13.5t-19.5 45.5
q0 104 101 104zM483 809q42 0 60.5 -16t18.5 -48q0 -99 -102 -99q-39 0 -59 14t-20 46q0 103 102 103z" />
    <glyph glyph-name="yacute" unicode="&#xfd;" horiz-adv-x="625" 
d="M633 616q-29 -141 -80 -262.5t-120.5 -220.5t-156.5 -173.5t-189 -121.5l-74 162q39 20 75.5 46.5t68.5 58.5l-121 498l252 18l34 -235q2 -10 3 -20.5t2 -20.5h2q26 64 47 132.5t35 138.5h222zM590 797l-147 -147h-168l64 147h251z" />
    <glyph glyph-name="thorn" unicode="&#xfe;" horiz-adv-x="639" 
d="M436 627q95 0 141 -50.5t46 -163.5q0 -50 -9 -111q-12 -84 -36 -143t-58.5 -96.5t-78 -55t-93.5 -17.5q-73 0 -125 30l-2 -2q-1 -10 -1.5 -19.5t-2.5 -20.5l-19 -137h-226l130 926l228 12l-20 -142q-2 -11 -3.5 -21.5t-3.5 -18.5l1 -1q31 17 64.5 24t67.5 7zM346 445
q-29 0 -49.5 -25.5t-25.5 -63.5l-25 -175q23 -13 49 -13q19 0 32.5 5.5t24 21t18.5 43t14 71.5q4 25 5.5 44t1.5 33q0 35 -11 47t-34 12z" />
    <glyph glyph-name="ydieresis" unicode="&#xff;" horiz-adv-x="625" 
d="M633 616q-29 -141 -80 -262.5t-120.5 -220.5t-156.5 -173.5t-189 -121.5l-74 162q39 20 75.5 46.5t68.5 58.5l-121 498l252 18l34 -235q2 -10 3 -20.5t2 -20.5h2q26 64 47 132.5t35 138.5h222zM290 809q42 0 60.5 -16t18.5 -48q0 -99 -102 -99q-39 0 -58.5 13.5
t-19.5 45.5q0 104 101 104zM498 809q42 0 60.5 -16t18.5 -48q0 -99 -102 -99q-39 0 -59 14t-20 46q0 103 102 103z" />
    <glyph glyph-name="Amacron" unicode="&#x100;" horiz-adv-x="761" 
d="M435 120h-191l-44 -120h-259l345 750h293l141 -750h-274zM399 540q-2 -9 -5.5 -19t-7.5 -20l-74 -201h109l-17 199q-1 11 -2 20.5t-1 20.5h-2zM616 799h-363l14 103h363z" />
    <glyph glyph-name="amacron" unicode="&#x101;" horiz-adv-x="635" 
d="M386 626q34 0 58 -2t46 -4t47 -4t60 -2h34l-86 -614h-175l-13 42q-37 -29 -79 -41t-83 -12q-194 0 -194 213q0 91 27.5 168.5t77.5 134.5t121.5 89t158.5 32zM278 165q30 0 50.5 26t26.5 68l26 188q-5 0 -11 0.5t-13 0.5q-19 0 -37.5 -7.5t-34.5 -26.5t-28.5 -51.5
t-19.5 -81.5q-6 -39 -6 -63q0 -32 11 -42.5t36 -10.5zM600 661h-363l18 127h363z" />
    <glyph glyph-name="Abreve" unicode="&#x102;" horiz-adv-x="761" 
d="M435 120h-191l-44 -120h-259l345 750h293l141 -750h-274zM399 540q-2 -9 -5.5 -19t-7.5 -20l-74 -201h109l-17 199q-1 11 -2 20.5t-1 20.5h-2zM646 912q-9 -64 -59 -97.5t-152 -33.5q-48 0 -81.5 7.5t-53.5 21t-29 33t-9 43.5q0 6 0.5 12.5t1.5 13.5h163v-5q0 -12 6 -16
t17 -4t19.5 4t10.5 21h166z" />
    <glyph glyph-name="abreve" unicode="&#x103;" horiz-adv-x="635" 
d="M386 626q34 0 58 -2t46 -4t47 -4t60 -2h34l-86 -614h-175l-13 42q-37 -29 -79 -41t-83 -12q-194 0 -194 213q0 91 27.5 168.5t77.5 134.5t121.5 89t158.5 32zM278 165q30 0 50.5 26t26.5 68l26 188q-5 0 -11 0.5t-13 0.5q-19 0 -37.5 -7.5t-34.5 -26.5t-28.5 -51.5
t-19.5 -81.5q-6 -39 -6 -63q0 -32 11 -42.5t36 -10.5zM623 797q-11 -77 -58.5 -116.5t-145.5 -39.5q-90 0 -125.5 31.5t-35.5 87.5q0 17 3 37h149q-1 -6 -1.5 -11t-0.5 -10q0 -18 7 -24t18 -6q12 0 22.5 9.5t15.5 41.5h152z" />
    <glyph glyph-name="Aogonek" unicode="&#x104;" horiz-adv-x="761" 
d="M435 120h-191l-44 -120h-259l345 750h293l141 -750h-32q-24 -2 -40 -15.5t-16 -30.5q0 -22 39 -22q21 0 38 7l3 -109q-27 -11 -57 -18t-68 -7q-67 0 -99.5 24t-32.5 62q0 37 19 64.5t54 44.5h-82zM399 540q-2 -9 -5.5 -19t-7.5 -20l-74 -201h109l-17 199q-1 11 -2 20.5
t-1 20.5h-2z" />
    <glyph glyph-name="aogonek" unicode="&#x105;" horiz-adv-x="635" 
d="M439 -195q-67 0 -99.5 24t-32.5 62t18.5 63.5t46.5 40.5l-15 47q-37 -29 -79 -41t-83 -12q-194 0 -194 213q0 91 27.5 168.5t77.5 134.5t121.5 89t158.5 32q34 0 58 -2t46 -4t47 -4t60 -2h34l-86 -614h-11q-50 -8 -50 -46q0 -22 39 -22q12 0 20.5 1.5t18.5 5.5l2 -109
q-27 -11 -56.5 -18t-68.5 -7zM278 165q30 0 50.5 26t26.5 68l26 188q-5 0 -11 0.5t-13 0.5q-19 0 -37.5 -7.5t-34.5 -26.5t-28.5 -51.5t-19.5 -81.5q-6 -39 -6 -63q0 -32 11 -42.5t36 -10.5z" />
    <glyph glyph-name="Cacute" unicode="&#x106;" horiz-adv-x="586" 
d="M452 764q44 0 89.5 -8t78.5 -20l-48 -187q-27 8 -60 13t-72 5q-42 0 -68.5 -9t-43.5 -31t-26.5 -58.5t-17.5 -91.5q-4 -28 -6 -51t-2 -42q0 -29 6 -49t19 -32t34.5 -17t52.5 -5q38 0 72 6.5t64 17.5l-2 -181q-43 -17 -95.5 -27.5t-100.5 -10.5q-306 0 -306 293
q0 23 1.5 48t5.5 51q13 91 44.5 163t84 121.5t126 75.5t170.5 26zM664 912l-168 -124h-177l67 124h278z" />
    <glyph glyph-name="cacute" unicode="&#x107;" horiz-adv-x="487" 
d="M339 627q52 0 92.5 -10.5t73.5 -30.5l-81 -157q-16 7 -32.5 9.5t-35.5 2.5q-21 0 -39.5 -5.5t-33.5 -20.5t-26 -42t-17 -71q-2 -16 -3 -29.5t-1 -24.5q0 -50 18 -67.5t48 -17.5q27 0 49.5 9.5t38.5 23.5l57 -132q-46 -42 -97.5 -59t-117.5 -17q-50 0 -91.5 14t-71.5 43.5
t-47 75.5t-17 111q0 38 6 82q11 80 38.5 139t69.5 97.5t97.5 57.5t122.5 19zM554 797l-147 -147h-168l64 147h251z" />
    <glyph glyph-name="Ccircumflex" unicode="&#x108;" horiz-adv-x="586" 
d="M452 764q44 0 89.5 -8t78.5 -20l-48 -187q-27 8 -60 13t-72 5q-42 0 -68.5 -9t-43.5 -31t-26.5 -58.5t-17.5 -91.5q-4 -28 -6 -51t-2 -42q0 -29 6 -49t19 -32t34.5 -17t52.5 -5q38 0 72 6.5t64 17.5l-2 -181q-43 -17 -95.5 -27.5t-100.5 -10.5q-306 0 -306 293
q0 23 1.5 48t5.5 51q13 91 44.5 163t84 121.5t126 75.5t170.5 26zM554 913l78 -125h-191l-19 39l-31 -39h-188l110 125h241z" />
    <glyph glyph-name="ccircumflex" unicode="&#x109;" horiz-adv-x="487" 
d="M339 627q52 0 92.5 -10.5t73.5 -30.5l-81 -157q-16 7 -32.5 9.5t-35.5 2.5q-21 0 -39.5 -5.5t-33.5 -20.5t-26 -42t-17 -71q-2 -16 -3 -29.5t-1 -24.5q0 -50 18 -67.5t48 -17.5q27 0 49.5 9.5t38.5 23.5l57 -132q-46 -42 -97.5 -59t-117.5 -17q-50 0 -91.5 14t-71.5 43.5
t-47 75.5t-17 111q0 38 6 82q11 80 38.5 139t69.5 97.5t97.5 57.5t122.5 19zM454 797l75 -147h-164l-20 56h-2q-5 -9 -8 -14.5t-8 -13.5l-18 -28h-162l113 147h194z" />
    <glyph glyph-name="Cdotaccent" unicode="&#x10a;" horiz-adv-x="586" 
d="M452 764q44 0 89.5 -8t78.5 -20l-48 -187q-27 8 -60 13t-72 5q-42 0 -68.5 -9t-43.5 -31t-26.5 -58.5t-17.5 -91.5q-4 -28 -6 -51t-2 -42q0 -29 6 -49t19 -32t34.5 -17t52.5 -5q38 0 72 6.5t64 17.5l-2 -181q-43 -17 -95.5 -27.5t-100.5 -10.5q-306 0 -306 293
q0 23 1.5 48t5.5 51q13 91 44.5 163t84 121.5t126 75.5t170.5 26zM439 925q63 0 88.5 -15t25.5 -45q0 -43 -29.5 -65t-105.5 -22q-63 0 -89.5 13.5t-26.5 45.5q0 44 31 66t106 22z" />
    <glyph glyph-name="cdotaccent" unicode="&#x10b;" horiz-adv-x="487" 
d="M339 627q52 0 92.5 -10.5t73.5 -30.5l-81 -157q-16 7 -32.5 9.5t-35.5 2.5q-21 0 -39.5 -5.5t-33.5 -20.5t-26 -42t-17 -71q-2 -16 -3 -29.5t-1 -24.5q0 -50 18 -67.5t48 -17.5q27 0 49.5 9.5t38.5 23.5l57 -132q-46 -42 -97.5 -59t-117.5 -17q-50 0 -91.5 14t-71.5 43.5
t-47 75.5t-17 111q0 38 6 82q11 80 38.5 139t69.5 97.5t97.5 57.5t122.5 19zM364 809q58 0 84 -17t26 -51q0 -95 -133 -95q-56 0 -82.5 14.5t-26.5 49.5q0 49 32 74t100 25z" />
    <glyph glyph-name="Ccaron" unicode="&#x10c;" horiz-adv-x="586" 
d="M452 764q44 0 89.5 -8t78.5 -20l-48 -187q-27 8 -60 13t-72 5q-42 0 -68.5 -9t-43.5 -31t-26.5 -58.5t-17.5 -91.5q-4 -28 -6 -51t-2 -42q0 -29 6 -49t19 -32t34.5 -17t52.5 -5q38 0 72 6.5t64 17.5l-2 -181q-43 -17 -95.5 -27.5t-100.5 -10.5q-306 0 -306 293
q0 23 1.5 48t5.5 51q13 91 44.5 163t84 121.5t126 75.5t170.5 26zM317 788l-76 125h190l17 -42h5l29 42h188l-114 -125h-239z" />
    <glyph glyph-name="ccaron" unicode="&#x10d;" horiz-adv-x="487" 
d="M339 627q52 0 92.5 -10.5t73.5 -30.5l-81 -157q-16 7 -32.5 9.5t-35.5 2.5q-21 0 -39.5 -5.5t-33.5 -20.5t-26 -42t-17 -71q-2 -16 -3 -29.5t-1 -24.5q0 -50 18 -67.5t48 -17.5q27 0 49.5 9.5t38.5 23.5l57 -132q-46 -42 -97.5 -59t-117.5 -17q-50 0 -91.5 14t-71.5 43.5
t-47 75.5t-17 111q0 38 6 82q11 80 38.5 139t69.5 97.5t97.5 57.5t122.5 19zM240 650l-70 147h163l7 -24q3 -11 5 -21l5 -18h2l8 16q4 8 9 16l18 31h165l-115 -147h-197z" />
    <glyph glyph-name="Dcaron" unicode="&#x10e;" horiz-adv-x="726" 
d="M404 750q162 0 235.5 -66.5t73.5 -205.5q0 -23 -1.5 -47.5t-5.5 -51.5q-14 -102 -47 -173.5t-84 -117.5t-119.5 -67t-153.5 -21h-310l105 750h307zM264 198h60q30 0 49.5 5.5t33.5 24.5t23 55t18 97q4 29 6 51.5t2 39.5q0 49 -19.5 64.5t-62.5 15.5h-60zM244 788l-76 125
h190l17 -42h5l29 42h188l-114 -125h-239z" />
    <glyph glyph-name="dcaron" unicode="&#x10f;" horiz-adv-x="637" 
d="M328 626q21 0 40 -1.5t38 -3.5l21 148l227 9l-109 -778h-175l-13 42q-38 -29 -81 -41t-87 -12q-94 0 -140.5 50t-46.5 163q0 112 25 192t68.5 131.5t103 76t129.5 24.5zM278 165q29 0 48.5 23.5t27.5 61.5l26 191q-8 1 -16 1.5t-18 0.5q-41 0 -68.5 -34t-39.5 -121
q-6 -44 -6 -68q0 -34 11 -44.5t35 -10.5zM769 813q39 0 58.5 -17t19.5 -46q0 -40 -32.5 -70.5t-80.5 -56.5l-49 23q20 23 32 42q-21 3 -33 15t-12 32q0 32 23 55t74 23z" />
    <glyph glyph-name="Dcroat" unicode="&#x110;" horiz-adv-x="740" 
d="M418 750q162 0 235.5 -66.5t73.5 -205.5q0 -23 -1.5 -47.5t-5.5 -51.5q-14 -102 -47 -173.5t-84 -117.5t-119.5 -67t-153.5 -21h-310l44 320h-47l19 133h47l42 297h307zM314 453h57l-19 -133h-57l-17 -122h60q30 0 49.5 5.5t33.5 24.5t23 55t18 97q4 29 6 51.5t2 39.5
q0 49 -19.5 64.5t-62.5 15.5h-60z" />
    <glyph glyph-name="dcroat" unicode="&#x111;" horiz-adv-x="640" 
d="M328 626q21 0 40 -1.5t38 -3.5l2 17l-60 7l16 92h58l5 32l227 9l-6 -41h34l-16 -112h-34l-87 -625h-175l-13 42q-38 -29 -81 -41t-87 -12q-94 0 -140.5 50t-46.5 163q0 112 25 192t68.5 131.5t103 76t129.5 24.5zM278 165q29 0 48.5 23.5t27.5 61.5l26 191q-8 1 -16 1.5
t-18 0.5q-41 0 -68.5 -34t-39.5 -121q-6 -44 -6 -68q0 -34 11 -44.5t35 -10.5z" />
    <glyph glyph-name="Emacron" unicode="&#x112;" horiz-adv-x="614" 
d="M569 192l-30 -192h-547l105 750h534l-23 -194h-293l-13 -88h239l-24 -174h-239l-15 -102h306zM550 799h-363l14 103h363z" />
    <glyph glyph-name="emacron" unicode="&#x113;" horiz-adv-x="547" 
d="M345 628q95 0 148 -43.5t53 -115.5q0 -108 -77 -167.5t-240 -82.5q6 -31 26.5 -42t58.5 -11q35 0 66.5 10t59.5 27l55 -134q-41 -33 -102.5 -57t-144.5 -24q-54 0 -98.5 14.5t-77 45t-50 77.5t-17.5 112q0 36 6 77q22 158 107 236t227 78zM323 461q-30 0 -48.5 -20
t-31.5 -75q59 12 81 32t22 43q0 20 -23 20zM533 661h-363l18 127h363z" />
    <glyph glyph-name="Ebreve" unicode="&#x114;" horiz-adv-x="614" 
d="M569 192l-30 -192h-547l105 750h534l-23 -194h-293l-13 -88h239l-24 -174h-239l-15 -102h306zM587 912q-9 -64 -59 -97.5t-152 -33.5q-48 0 -81.5 7.5t-53.5 21t-29 33t-9 43.5q0 6 0.5 12.5t1.5 13.5h163v-5q0 -12 6 -16t17 -4t19.5 4t10.5 21h166z" />
    <glyph glyph-name="ebreve" unicode="&#x115;" horiz-adv-x="547" 
d="M345 628q95 0 148 -43.5t53 -115.5q0 -108 -77 -167.5t-240 -82.5q6 -31 26.5 -42t58.5 -11q35 0 66.5 10t59.5 27l55 -134q-41 -33 -102.5 -57t-144.5 -24q-54 0 -98.5 14.5t-77 45t-50 77.5t-17.5 112q0 36 6 77q22 158 107 236t227 78zM323 461q-30 0 -48.5 -20
t-31.5 -75q59 12 81 32t22 43q0 20 -23 20zM551 797q-11 -77 -58.5 -116.5t-145.5 -39.5q-90 0 -125.5 31.5t-35.5 87.5q0 17 3 37h149q-1 -6 -1.5 -11t-0.5 -10q0 -18 7 -24t18 -6q12 0 22.5 9.5t15.5 41.5h152z" />
    <glyph glyph-name="Edotaccent" unicode="&#x116;" horiz-adv-x="614" 
d="M569 192l-30 -192h-547l105 750h534l-23 -194h-293l-13 -88h239l-24 -174h-239l-15 -102h306zM397 925q63 0 88.5 -15t25.5 -45q0 -43 -29.5 -65t-105.5 -22q-63 0 -89.5 13.5t-26.5 45.5q0 44 31 66t106 22z" />
    <glyph glyph-name="edotaccent" unicode="&#x117;" horiz-adv-x="547" 
d="M345 628q95 0 148 -43.5t53 -115.5q0 -108 -77 -167.5t-240 -82.5q6 -31 26.5 -42t58.5 -11q35 0 66.5 10t59.5 27l55 -134q-41 -33 -102.5 -57t-144.5 -24q-54 0 -98.5 14.5t-77 45t-50 77.5t-17.5 112q0 36 6 77q22 158 107 236t227 78zM323 461q-30 0 -48.5 -20
t-31.5 -75q59 12 81 32t22 43q0 20 -23 20zM372 809q58 0 84 -17t26 -51q0 -95 -133 -95q-56 0 -82.5 14.5t-26.5 49.5q0 49 32 74t100 25z" />
    <glyph glyph-name="Eogonek" unicode="&#x118;" horiz-adv-x="614" 
d="M569 192l-30 -192h-35q-24 -2 -40 -15.5t-16 -30.5q0 -22 39 -22q21 0 38 7l3 -109q-27 -11 -57 -18t-68 -7q-67 0 -99.5 24t-32.5 62q0 37 19 64.5t54 44.5h-352l105 750h534l-23 -194h-293l-13 -88h239l-24 -174h-239l-15 -102h306z" />
    <glyph glyph-name="eogonek" unicode="&#x119;" horiz-adv-x="547" 
d="M262 -195q-67 0 -99.5 24t-32.5 62q0 40 17.5 63t48.5 40q-89 11 -140 71t-51 172q0 35 6 77q22 158 107 236t227 78q95 0 148 -43.5t53 -115.5q0 -108 -77 -167.5t-240 -82.5q6 -31 26.5 -42t58.5 -11q35 0 66.5 10t59.5 27l55 -134q-29 -23 -64 -40t-83 -28
q-20 -5 -30.5 -17t-10.5 -26q0 -26 39 -26q12 0 20.5 1.5t18.5 5.5l2 -109q-26 -11 -56 -18t-69 -7zM323 461q-30 0 -48.5 -20t-31.5 -75q59 12 81 32t22 43q0 20 -23 20z" />
    <glyph glyph-name="Ecaron" unicode="&#x11a;" horiz-adv-x="614" 
d="M569 192l-30 -192h-547l105 750h534l-23 -194h-293l-13 -88h239l-24 -174h-239l-15 -102h306zM240 788l-76 125h190l17 -42h5l29 42h188l-114 -125h-239z" />
    <glyph glyph-name="ecaron" unicode="&#x11b;" horiz-adv-x="547" 
d="M345 628q95 0 148 -43.5t53 -115.5q0 -108 -77 -167.5t-240 -82.5q6 -31 26.5 -42t58.5 -11q35 0 66.5 10t59.5 27l55 -134q-41 -33 -102.5 -57t-144.5 -24q-54 0 -98.5 14.5t-77 45t-50 77.5t-17.5 112q0 36 6 77q22 158 107 236t227 78zM323 461q-30 0 -48.5 -20
t-31.5 -75q59 12 81 32t22 43q0 20 -23 20zM252 650l-70 147h163l7 -24q3 -11 5 -21l5 -18h2l8 16q4 8 9 16l18 31h165l-115 -147h-197z" />
    <glyph glyph-name="Gcircumflex" unicode="&#x11c;" horiz-adv-x="666" 
d="M581 21q-21 -8 -48.5 -14.5t-58.5 -11t-63 -7t-62 -2.5q-90 0 -152.5 19.5t-102 56.5t-57.5 91t-18 123q0 23 1.5 48t5.5 51q13 94 45 166.5t86 121.5t130.5 74.5t178.5 25.5q54 0 110 -8t101 -23l-48 -194q-39 14 -86.5 22t-89.5 8q-48 0 -77.5 -8.5t-47.5 -30.5
t-27.5 -58.5t-17.5 -92.5q-9 -63 -9 -102q0 -57 22 -76t74 -19h8q5 0 10 1l32 227h216zM575 913l78 -125h-191l-19 39l-31 -39h-188l110 125h241z" />
    <glyph glyph-name="gcircumflex" unicode="&#x11d;" horiz-adv-x="630" 
d="M551 86q-10 -69 -41.5 -118t-78.5 -79.5t-105 -45t-121 -14.5q-51 0 -99 8t-89 24l40 162q74 -23 129 -23q56 0 92 17.5t47 63.5l-2 2q-27 -21 -58.5 -29.5t-66.5 -8.5q-40 0 -73.5 11.5t-58 36.5t-38 65t-13.5 97q0 79 22.5 147t66.5 118t109.5 78.5t152.5 28.5
q50 0 97 -5.5t99 -5.5h63zM285 219q22 0 43 19t27 64l21 150q-6 1 -13 1h-13q-24 0 -43.5 -13.5t-33 -37.5t-21 -57t-7.5 -72q0 -31 9.5 -42.5t30.5 -11.5zM516 797l75 -147h-164l-20 56h-2q-5 -9 -8 -14.5t-8 -13.5l-18 -28h-162l113 147h194z" />
    <glyph glyph-name="Gbreve" unicode="&#x11e;" horiz-adv-x="666" 
d="M581 21q-21 -8 -48.5 -14.5t-58.5 -11t-63 -7t-62 -2.5q-90 0 -152.5 19.5t-102 56.5t-57.5 91t-18 123q0 23 1.5 48t5.5 51q13 94 45 166.5t86 121.5t130.5 74.5t178.5 25.5q54 0 110 -8t101 -23l-48 -194q-39 14 -86.5 22t-89.5 8q-48 0 -77.5 -8.5t-47.5 -30.5
t-27.5 -58.5t-17.5 -92.5q-9 -63 -9 -102q0 -57 22 -76t74 -19h8q5 0 10 1l32 227h216zM652 912q-9 -64 -59 -97.5t-152 -33.5q-48 0 -81.5 7.5t-53.5 21t-29 33t-9 43.5q0 6 0.5 12.5t1.5 13.5h163v-5q0 -12 6 -16t17 -4t19.5 4t10.5 21h166z" />
    <glyph glyph-name="gbreve" unicode="&#x11f;" horiz-adv-x="630" 
d="M551 86q-10 -69 -41.5 -118t-78.5 -79.5t-105 -45t-121 -14.5q-51 0 -99 8t-89 24l40 162q74 -23 129 -23q56 0 92 17.5t47 63.5l-2 2q-27 -21 -58.5 -29.5t-66.5 -8.5q-40 0 -73.5 11.5t-58 36.5t-38 65t-13.5 97q0 79 22.5 147t66.5 118t109.5 78.5t152.5 28.5
q50 0 97 -5.5t99 -5.5h63zM285 219q22 0 43 19t27 64l21 150q-6 1 -13 1h-13q-24 0 -43.5 -13.5t-33 -37.5t-21 -57t-7.5 -72q0 -31 9.5 -42.5t30.5 -11.5zM609 797q-11 -77 -58.5 -116.5t-145.5 -39.5q-90 0 -125.5 31.5t-35.5 87.5q0 17 3 37h149q-1 -6 -1.5 -11t-0.5 -10
q0 -18 7 -24t18 -6q12 0 22.5 9.5t15.5 41.5h152z" />
    <glyph glyph-name="Gdotaccent" unicode="&#x120;" horiz-adv-x="666" 
d="M581 21q-21 -8 -48.5 -14.5t-58.5 -11t-63 -7t-62 -2.5q-90 0 -152.5 19.5t-102 56.5t-57.5 91t-18 123q0 23 1.5 48t5.5 51q13 94 45 166.5t86 121.5t130.5 74.5t178.5 25.5q54 0 110 -8t101 -23l-48 -194q-39 14 -86.5 22t-89.5 8q-48 0 -77.5 -8.5t-47.5 -30.5
t-27.5 -58.5t-17.5 -92.5q-9 -63 -9 -102q0 -57 22 -76t74 -19h8q5 0 10 1l32 227h216zM478 925q63 0 88.5 -15t25.5 -45q0 -43 -29.5 -65t-105.5 -22q-63 0 -89.5 13.5t-26.5 45.5q0 44 31 66t106 22z" />
    <glyph glyph-name="gdotaccent" unicode="&#x121;" horiz-adv-x="630" 
d="M551 86q-10 -69 -41.5 -118t-78.5 -79.5t-105 -45t-121 -14.5q-51 0 -99 8t-89 24l40 162q74 -23 129 -23q56 0 92 17.5t47 63.5l-2 2q-27 -21 -58.5 -29.5t-66.5 -8.5q-40 0 -73.5 11.5t-58 36.5t-38 65t-13.5 97q0 79 22.5 147t66.5 118t109.5 78.5t152.5 28.5
q50 0 97 -5.5t99 -5.5h63zM285 219q22 0 43 19t27 64l21 150q-6 1 -13 1h-13q-24 0 -43.5 -13.5t-33 -37.5t-21 -57t-7.5 -72q0 -31 9.5 -42.5t30.5 -11.5zM439 809q58 0 84 -17t26 -51q0 -95 -133 -95q-56 0 -82.5 14.5t-26.5 49.5q0 49 32 74t100 25z" />
    <glyph glyph-name="uni0122" unicode="&#x122;" horiz-adv-x="666" 
d="M581 21q-21 -8 -48.5 -14.5t-58.5 -11t-63 -7t-62 -2.5q-90 0 -152.5 19.5t-102 56.5t-57.5 91t-18 123q0 23 1.5 48t5.5 51q13 94 45 166.5t86 121.5t130.5 74.5t178.5 25.5q54 0 110 -8t101 -23l-48 -194q-39 14 -86.5 22t-89.5 8q-48 0 -77.5 -8.5t-47.5 -30.5
t-27.5 -58.5t-17.5 -92.5q-9 -63 -9 -102q0 -57 22 -76t74 -19h8q5 0 10 1l32 227h216zM350 -27q58 0 83.5 -16.5t25.5 -44.5q0 -20 -12 -37.5t-33.5 -33t-50.5 -28.5t-63 -24l-40 25l39 40h-3q-32 1 -51 13t-19 33q0 30 28 51.5t96 21.5z" />
    <glyph glyph-name="uni0123" unicode="&#x123;" horiz-adv-x="630" 
d="M551 86q-10 -69 -41.5 -118t-78.5 -79.5t-105 -45t-121 -14.5q-51 0 -99 8t-89 24l40 162q74 -23 129 -23q56 0 92 17.5t47 63.5l-2 2q-27 -21 -58.5 -29.5t-66.5 -8.5q-40 0 -73.5 11.5t-58 36.5t-38 65t-13.5 97q0 79 22.5 147t66.5 118t109.5 78.5t152.5 28.5
q50 0 97 -5.5t99 -5.5h63zM285 219q22 0 43 19t27 64l21 150q-6 1 -13 1h-13q-24 0 -43.5 -13.5t-33 -37.5t-21 -57t-7.5 -72q0 -31 9.5 -42.5t30.5 -11.5zM404 648q-39 0 -59 17t-20 46q0 20 9 37.5t24.5 33.5t36 30t44.5 26l48 -23q-9 -11 -16.5 -21t-15.5 -21
q21 -4 33 -16.5t12 -32.5q0 -32 -23 -54t-73 -22z" />
    <glyph glyph-name="Hcircumflex" unicode="&#x124;" horiz-adv-x="729" 
d="M392 0l39 279h-155l-39 -279h-245l105 750h245l-39 -274h155l39 274h245l-105 -750h-245zM561 913l78 -125h-191l-19 39l-31 -39h-188l110 125h241z" />
    <glyph glyph-name="hcircumflex" unicode="&#x125;" horiz-adv-x="643" 
d="M334 0l50 360q2 9 2 16v15q0 26 -9.5 36t-29.5 10q-31 0 -52 -26.5t-27 -70.5l-47 -340h-226l107 768l228 10l-20 -143q-2 -11 -3.5 -21.5t-3.5 -18.5l1 -1q60 34 135 34q89 0 133 -50t44 -144q0 -16 -1.5 -32.5t-3.5 -34.5l-51 -367h-226zM381 933l78 -125h-191l-19 39
l-31 -39h-188l110 125h241z" />
    <glyph glyph-name="Hbar" unicode="&#x126;" horiz-adv-x="729" 
d="M392 0l39 279h-155l-39 -279h-245l77 549h-27l16 116h27l12 85h245l-12 -85h155l12 85h245l-12 -85h47l-16 -116h-47l-77 -549h-245zM458 476l11 73h-155l-11 -73h155z" />
    <glyph glyph-name="hbar" unicode="&#x127;" horiz-adv-x="644" 
d="M-4 0l87 623h-44l16 112h44l4 33l229 10l-6 -43h55l-16 -112h-55l-6 -45l2 -1q56 34 131 34q90 0 134.5 -50t44.5 -146q0 -15 -1.5 -31.5t-3.5 -33.5l-49 -350h-226l48 344q2 8 2 15v15q0 26 -9.5 36.5t-29.5 10.5q-29 0 -50.5 -24.5t-27.5 -65.5l-46 -331h-227z" />
    <glyph glyph-name="Itilde" unicode="&#x128;" horiz-adv-x="351" 
d="M105 750h251l-105 -750h-251zM43 788q10 61 47.5 98t99.5 37q28 0 50 -3.5t40 -8.5l32 -8q14 -3 26 -3t17 2.5t7 10.5h96q-10 -63 -48.5 -98.5t-96.5 -35.5q-28 0 -49.5 3.5t-38.5 8t-30 8.5t-25 4q-10 0 -17.5 -4.5t-9.5 -10.5h-100z" />
    <glyph glyph-name="itilde" unicode="&#x129;" horiz-adv-x="317" 
d="M-4 0l85 610l233 10l-87 -620h-231zM276 642q-27 0 -45.5 5.5t-31.5 12t-22.5 12t-19.5 5.5q-15 0 -22 -28h-120q10 70 48.5 113t99.5 43q27 0 45 -5.5t31 -12.5t22.5 -12.5t19.5 -5.5q16 0 22 28h121q-11 -70 -49.5 -112.5t-98.5 -42.5z" />
    <glyph glyph-name="Imacron" unicode="&#x12a;" horiz-adv-x="351" 
d="M105 750h251l-105 -750h-251zM419 799h-363l14 103h363z" />
    <glyph glyph-name="imacron" unicode="&#x12b;" horiz-adv-x="317" 
d="M-4 0l85 610l233 10l-87 -620h-231zM381 661h-363l18 127h363z" />
    <glyph glyph-name="Ibreve" unicode="&#x12c;" horiz-adv-x="351" 
d="M105 750h251l-105 -750h-251zM446 912q-9 -64 -59 -97.5t-152 -33.5q-48 0 -81.5 7.5t-53.5 21t-29 33t-9 43.5q0 6 0.5 12.5t1.5 13.5h163v-5q0 -12 6 -16t17 -4t19.5 4t10.5 21h166z" />
    <glyph glyph-name="ibreve" unicode="&#x12d;" horiz-adv-x="317" 
d="M-4 0l85 610l233 10l-87 -620h-231zM403 797q-11 -77 -58.5 -116.5t-145.5 -39.5q-90 0 -125.5 31.5t-35.5 87.5q0 17 3 37h149q-1 -6 -1.5 -11t-0.5 -10q0 -18 7 -24t18 -6q12 0 22.5 9.5t15.5 41.5h152z" />
    <glyph glyph-name="Iogonek" unicode="&#x12e;" horiz-adv-x="351" 
d="M105 750h251l-105 -750h-27q-24 -2 -40 -15.5t-16 -30.5q0 -22 39 -22q21 0 38 7l3 -109q-27 -11 -57 -18t-68 -7q-67 0 -99.5 24t-32.5 62t19.5 65t48.5 44h-59z" />
    <glyph glyph-name="iogonek" unicode="&#x12f;" horiz-adv-x="317" 
d="M97 -195q-67 0 -99.5 24t-32.5 62t19.5 65t48.5 44h-37l85 610l228 10l-87 -620h-26q-24 0 -39 -14t-15 -32q0 -22 39 -22q12 0 20.5 1.5t18.5 5.5l2 -109q-27 -11 -56.5 -18t-68.5 -7zM219 809q58 0 84 -17t26 -51q0 -95 -133 -95q-56 0 -82.5 14.5t-26.5 49.5
q0 49 32 74t100 25z" />
    <glyph glyph-name="Idotaccent" unicode="&#x130;" horiz-adv-x="351" 
d="M105 750h251l-105 -750h-251zM256 925q63 0 88.5 -15t25.5 -45q0 -43 -29.5 -65t-105.5 -22q-63 0 -89.5 13.5t-26.5 45.5q0 44 31 66t106 22z" />
    <glyph glyph-name="dotlessi" unicode="&#x131;" horiz-adv-x="317" 
d="M-4 0l85 610l233 10l-87 -620h-231z" />
    <glyph glyph-name="Jcircumflex" unicode="&#x134;" horiz-adv-x="539" 
d="M488 297q-13 -89 -45 -149t-80.5 -96t-113 -51t-141.5 -15q-45 0 -80 6t-64 17l37 184q15 -6 39 -10t55 -4q66 0 100 25t43 89l64 457h250zM557 913l78 -125h-191l-19 39l-31 -39h-188l110 125h241z" />
    <glyph glyph-name="jcircumflex" unicode="&#x135;" horiz-adv-x="324" 
d="M240 86q-10 -70 -39 -118t-72.5 -78.5t-99 -45t-118.5 -15.5l7 154q22 2 38.5 7.5t27.5 16.5t18 30t11 48l74 525l228 10zM317 797l75 -147h-164l-20 56h-2q-5 -9 -8 -14.5t-8 -13.5l-18 -28h-162l113 147h194z" />
    <glyph glyph-name="uni0136" unicode="&#x136;" horiz-adv-x="739" 
d="M402 0l-90 291h-35l-40 -291h-245l105 750h245l-39 -278h37l171 278h276l-233 -355l139 -395h-291zM309 -27q58 0 83.5 -16.5t25.5 -44.5q0 -20 -12 -37.5t-33.5 -33t-50.5 -28.5t-63 -24l-40 25l39 40h-3q-32 1 -51 13t-19 33q0 30 28 51.5t96 21.5z" />
    <glyph glyph-name="uni0137" unicode="&#x137;" horiz-adv-x="666" 
d="M-5 0l107 768l228 10l-23 -164q-2 -11 -3.5 -21.5t-3.5 -18.5l1 -1q42 29 86.5 42t87.5 13q81 0 119.5 -38t38.5 -110q0 -64 -29.5 -127t-89.5 -114q17 -35 43.5 -54t73.5 -28l-49 -166q-137 0 -217.5 76t-85.5 220q28 12 51 27.5t39.5 33t25.5 35.5t9 34q0 22 -23 22
q-16 0 -35 -11t-37 -35.5t-33 -64.5t-23 -97l-32 -231h-226zM305 -27q58 0 83.5 -16.5t25.5 -44.5q0 -20 -12 -37.5t-33.5 -33t-50.5 -28.5t-63 -24l-40 25l39 40h-3q-32 1 -51 13t-19 33q0 30 28 51.5t96 21.5z" />
    <glyph glyph-name="kgreenlandic" unicode="&#x138;" horiz-adv-x="636" 
d="M-10 0l85 611l229 10l-29 -209q-2 -10 -3.5 -21.5t-3.5 -19.5h1q26 17 53 48t50.5 66t39.5 70t20 61h211q-5 -32 -20 -71t-38.5 -80t-54.5 -81.5t-67 -73.5q20 -66 54 -105t87 -47l-53 -167q-121 1 -197 76t-97 215h-2q-1 -10 -1.5 -20.5t-2.5 -20.5l-34 -241h-227z" />
    <glyph glyph-name="Lacute" unicode="&#x139;" horiz-adv-x="562" 
d="M528 198l-32 -198h-504l105 750h247l-78 -552h262zM496 912l-168 -124h-177l67 124h278z" />
    <glyph glyph-name="lacute" unicode="&#x13a;" horiz-adv-x="315" 
d="M-5 0l107 768l228 10l-109 -778h-226zM459 926l-168 -124h-177l67 124h278z" />
    <glyph glyph-name="uni013B" unicode="&#x13b;" horiz-adv-x="562" 
d="M528 198l-32 -198h-504l105 750h247l-78 -552h262zM252 -27q58 0 83.5 -16.5t25.5 -44.5q0 -20 -12 -37.5t-33.5 -33t-50.5 -28.5t-63 -24l-40 25l39 40h-3q-32 1 -51 13t-19 33q0 30 28 51.5t96 21.5z" />
    <glyph glyph-name="uni013C" unicode="&#x13c;" horiz-adv-x="315" 
d="M-5 0l107 768l228 10l-109 -778h-226zM99 -27q58 0 83.5 -16.5t25.5 -44.5q0 -20 -12 -37.5t-33.5 -33t-50.5 -28.5t-63 -24l-40 25l39 40h-3q-32 1 -51 13t-19 33q0 30 28 51.5t96 21.5z" />
    <glyph glyph-name="Lcaron" unicode="&#x13d;" horiz-adv-x="562" 
d="M528 198l-32 -198h-504l105 750h247l-78 -552h262zM483 752q39 0 58.5 -17t19.5 -46q0 -40 -32.5 -70.5t-80.5 -56.5l-49 23q20 23 32 42q-21 3 -33 15t-12 32q0 32 23 55t74 23z" />
    <glyph glyph-name="lcaron" unicode="&#x13e;" horiz-adv-x="315" 
d="M-5 0l107 768l228 10l-109 -778h-226zM442 813q39 0 58.5 -17t19.5 -46q0 -40 -32.5 -70.5t-80.5 -56.5l-49 23q20 23 32 42q-21 3 -33 15t-12 32q0 32 23 55t74 23z" />
    <glyph glyph-name="Ldot" unicode="&#x13f;" horiz-adv-x="562" 
d="M528 198l-32 -198h-504l105 750h247l-78 -552h262zM468 508q49 0 71 -19.5t22 -55.5q0 -51 -29.5 -82.5t-90.5 -31.5q-48 0 -70 15.5t-22 53.5q0 57 28.5 88.5t90.5 31.5z" />
    <glyph glyph-name="ldot" unicode="&#x140;" horiz-adv-x="471" 
d="M-3 0l107 768l228 10l-109 -778h-226zM414 497q44 0 63 -17t19 -49q0 -48 -25.5 -76t-80.5 -28q-44 0 -63.5 14.5t-19.5 49.5q0 51 26 78.5t81 27.5z" />
    <glyph glyph-name="Lslash" unicode="&#x141;" horiz-adv-x="607" 
d="M573 198l-32 -198h-504l36 262l-64 -24l9 179l81 31l43 302h247l-31 -218l159 58l-6 -187l-180 -63l-20 -142h262z" />
    <glyph glyph-name="lslash" unicode="&#x142;" horiz-adv-x="387" 
d="M25 452l72 29l40 287l228 10l-30 -209l79 32l-26 -175l-77 -33l-55 -393h-226l42 303l-71 -30z" />
    <glyph glyph-name="Nacute" unicode="&#x143;" horiz-adv-x="735" 
d="M473 0l-194 340q-5 8 -10 18t-9 19l-2 -1q-1 -10 -1.5 -20.5t-2.5 -20.5l-47 -335h-215l105 750h201l167 -312q5 -10 10 -19t8 -16h2l2 20q1 10 3 20l43 307h215l-105 -750h-170zM672 912l-168 -124h-177l67 124h278z" />
    <glyph glyph-name="nacute" unicode="&#x144;" horiz-adv-x="638" 
d="M380 358q2 9 2 17v15q0 26 -9.5 36.5t-29.5 10.5q-29 0 -50 -23t-27 -65l-49 -349h-227l85 611l178 9l10 -50h3q32 28 74.5 43t93.5 15q89 0 133.5 -49.5t44.5 -144.5q0 -16 -1.5 -32.5t-3.5 -34.5l-51 -367h-226zM570 797l-147 -147h-168l64 147h251z" />
    <glyph glyph-name="uni0145" unicode="&#x145;" horiz-adv-x="735" 
d="M473 0l-194 340q-5 8 -10 18t-9 19l-2 -1q-1 -10 -1.5 -20.5t-2.5 -20.5l-47 -335h-215l105 750h201l167 -312q5 -10 10 -19t8 -16h2l2 20q1 10 3 20l43 307h215l-105 -750h-170zM328 -27q58 0 83.5 -16.5t25.5 -44.5q0 -20 -12 -37.5t-33.5 -33t-50.5 -28.5t-63 -24
l-40 25l39 40h-3q-32 1 -51 13t-19 33q0 30 28 51.5t96 21.5z" />
    <glyph glyph-name="uni0146" unicode="&#x146;" horiz-adv-x="638" 
d="M380 358q2 9 2 17v15q0 26 -9.5 36.5t-29.5 10.5q-29 0 -50 -23t-27 -65l-49 -349h-227l85 611l178 9l10 -50h3q32 28 74.5 43t93.5 15q89 0 133.5 -49.5t44.5 -144.5q0 -16 -1.5 -32.5t-3.5 -34.5l-51 -367h-226zM262 -27q58 0 83.5 -16.5t25.5 -44.5q0 -20 -12 -37.5
t-33.5 -33t-50.5 -28.5t-63 -24l-40 25l39 40h-3q-32 1 -51 13t-19 33q0 30 28 51.5t96 21.5z" />
    <glyph glyph-name="Ncaron" unicode="&#x147;" horiz-adv-x="735" 
d="M473 0l-194 340q-5 8 -10 18t-9 19l-2 -1q-1 -10 -1.5 -20.5t-2.5 -20.5l-47 -335h-215l105 750h201l167 -312q5 -10 10 -19t8 -16h2l2 20q1 10 3 20l43 307h215l-105 -750h-170zM296 788l-76 125h190l17 -42h5l29 42h188l-114 -125h-239z" />
    <glyph glyph-name="ncaron" unicode="&#x148;" horiz-adv-x="638" 
d="M380 358q2 9 2 17v15q0 26 -9.5 36.5t-29.5 10.5q-29 0 -50 -23t-27 -65l-49 -349h-227l85 611l178 9l10 -50h3q32 28 74.5 43t93.5 15q89 0 133.5 -49.5t44.5 -144.5q0 -16 -1.5 -32.5t-3.5 -34.5l-51 -367h-226zM259 650l-70 147h163l7 -24q3 -11 5 -21l5 -18h2l8 16
q4 8 9 16l18 31h165l-115 -147h-197z" />
    <glyph glyph-name="napostrophe" unicode="&#x149;" horiz-adv-x="685" 
d="M427 358q2 9 2 17v15q0 26 -9.5 36.5t-29.5 10.5q-29 0 -50 -23t-27 -65l-49 -349h-227l85 611l178 9l10 -50h3q32 28 74.5 43t93.5 15q89 0 133.5 -49.5t44.5 -144.5q0 -16 -1.5 -32.5t-3.5 -34.5l-51 -367h-226zM98 813q39 0 58.5 -17t19.5 -46q0 -40 -32.5 -70.5
t-80.5 -56.5l-49 23q20 23 32 42q-21 3 -33 15t-12 32q0 32 23 55t74 23z" />
    <glyph glyph-name="Eng" unicode="&#x14a;" horiz-adv-x="735" 
d="M655 86q-19 -132 -84 -192t-169 -60q-35 0 -67.5 5t-53.5 14l29 140q11 -5 24 -6.5t25 -1.5q16 0 29 3.5t23.5 13t18 27t11.5 45.5l-161 272q-5 8 -10 18t-9 19l-2 -1q-1 -10 -1.5 -20.5t-2.5 -20.5l-48 -341h-215l105 750h201l168 -306q5 -10 10 -19t8 -16h2l2 20
q1 10 3 20l42 301h215z" />
    <glyph glyph-name="eng" unicode="&#x14b;" horiz-adv-x="638" 
d="M257 -16q20 1 34 5.5t23.5 15.5t15.5 30.5t11 49.5l39 273q2 9 2 16v15q0 26 -9.5 36t-29.5 10q-29 0 -51 -23.5t-27 -63.5l-48 -348h-227l85 611l178 9l10 -50h3q32 28 74.5 43t93.5 15q89 0 133.5 -49.5t44.5 -144.5q0 -16 -1.5 -32.5t-3.5 -34.5l-39 -281
q-10 -69 -38 -117t-70 -78t-95.5 -44t-114.5 -15z" />
    <glyph glyph-name="Omacron" unicode="&#x14c;" horiz-adv-x="756" 
d="M734 375q-14 -101 -44.5 -174t-80.5 -121t-120 -71t-163 -23q-158 0 -232.5 71.5t-74.5 217.5q0 23 1.5 48t5.5 52q28 196 126 291.5t283 95.5q159 0 233 -69.5t74 -212.5q0 -24 -2 -50t-6 -55zM476 376q5 34 7.5 60.5t2.5 46.5q0 52 -18.5 68.5t-60.5 16.5
q-29 0 -48.5 -7.5t-33 -28.5t-23 -58.5t-18.5 -97.5q-5 -33 -7.5 -59.5t-2.5 -46.5q0 -55 18.5 -72.5t60.5 -17.5q28 0 48 8t34 29.5t23.5 59.5t17.5 99zM620 799h-363l14 103h363z" />
    <glyph glyph-name="omacron" unicode="&#x14d;" horiz-adv-x="619" 
d="M324 450q-17 0 -30 -4.5t-23 -20t-17.5 -45t-14.5 -78.5q-4 -27 -5.5 -47.5t-1.5 -35.5q0 -40 12 -50.5t36 -10.5q18 0 31 4.5t22.5 20.5t17.5 45.5t15 80.5q4 26 5.5 46t1.5 35q0 38 -12 49t-37 11zM353 628q134 0 191 -60t57 -174q0 -21 -1.5 -44t-5.5 -48
q-11 -80 -36.5 -139t-67 -98t-100.5 -58.5t-138 -19.5q-134 0 -191.5 60.5t-57.5 174.5q0 21 1.5 43.5t5.5 47.5q11 80 36.5 139t67.5 98t101 58.5t138 19.5zM541 661h-363l18 127h363z" />
    <glyph glyph-name="Obreve" unicode="&#x14e;" horiz-adv-x="756" 
d="M734 375q-14 -101 -44.5 -174t-80.5 -121t-120 -71t-163 -23q-158 0 -232.5 71.5t-74.5 217.5q0 23 1.5 48t5.5 52q28 196 126 291.5t283 95.5q159 0 233 -69.5t74 -212.5q0 -24 -2 -50t-6 -55zM476 376q5 34 7.5 60.5t2.5 46.5q0 52 -18.5 68.5t-60.5 16.5
q-29 0 -48.5 -7.5t-33 -28.5t-23 -58.5t-18.5 -97.5q-5 -33 -7.5 -59.5t-2.5 -46.5q0 -55 18.5 -72.5t60.5 -17.5q28 0 48 8t34 29.5t23.5 59.5t17.5 99zM649 912q-9 -64 -59 -97.5t-152 -33.5q-48 0 -81.5 7.5t-53.5 21t-29 33t-9 43.5q0 6 0.5 12.5t1.5 13.5h163v-5
q0 -12 6 -16t17 -4t19.5 4t10.5 21h166z" />
    <glyph glyph-name="obreve" unicode="&#x14f;" horiz-adv-x="619" 
d="M324 450q-17 0 -30 -4.5t-23 -20t-17.5 -45t-14.5 -78.5q-4 -27 -5.5 -47.5t-1.5 -35.5q0 -40 12 -50.5t36 -10.5q18 0 31 4.5t22.5 20.5t17.5 45.5t15 80.5q4 26 5.5 46t1.5 35q0 38 -12 49t-37 11zM353 628q134 0 191 -60t57 -174q0 -21 -1.5 -44t-5.5 -48
q-11 -80 -36.5 -139t-67 -98t-100.5 -58.5t-138 -19.5q-134 0 -191.5 60.5t-57.5 174.5q0 21 1.5 43.5t5.5 47.5q11 80 36.5 139t67.5 98t101 58.5t138 19.5zM559 797q-11 -77 -58.5 -116.5t-145.5 -39.5q-90 0 -125.5 31.5t-35.5 87.5q0 17 3 37h149q-1 -6 -1.5 -11
t-0.5 -10q0 -18 7 -24t18 -6q12 0 22.5 9.5t15.5 41.5h152z" />
    <glyph glyph-name="Ohungarumlaut" unicode="&#x150;" horiz-adv-x="756" 
d="M734 375q-14 -101 -44.5 -174t-80.5 -121t-120 -71t-163 -23q-158 0 -232.5 71.5t-74.5 217.5q0 23 1.5 48t5.5 52q28 196 126 291.5t283 95.5q159 0 233 -69.5t74 -212.5q0 -24 -2 -50t-6 -55zM476 376q5 34 7.5 60.5t2.5 46.5q0 52 -18.5 68.5t-60.5 16.5
q-29 0 -48.5 -7.5t-33 -28.5t-23 -58.5t-18.5 -97.5q-5 -33 -7.5 -59.5t-2.5 -46.5q0 -55 18.5 -72.5t60.5 -17.5q28 0 48 8t34 29.5t23.5 59.5t17.5 99zM516 911l-104 -124h-140l25 124h219zM757 911l-131 -124h-160l67 124h224z" />
    <glyph glyph-name="ohungarumlaut" unicode="&#x151;" horiz-adv-x="619" 
d="M324 450q-17 0 -30 -4.5t-23 -20t-17.5 -45t-14.5 -78.5q-4 -27 -5.5 -47.5t-1.5 -35.5q0 -40 12 -50.5t36 -10.5q18 0 31 4.5t22.5 20.5t17.5 45.5t15 80.5q4 26 5.5 46t1.5 35q0 38 -12 49t-37 11zM353 628q134 0 191 -60t57 -174q0 -21 -1.5 -44t-5.5 -48
q-11 -80 -36.5 -139t-67 -98t-100.5 -58.5t-138 -19.5q-134 0 -191.5 60.5t-57.5 174.5q0 21 1.5 43.5t5.5 47.5q11 80 36.5 139t67.5 98t101 58.5t138 19.5zM446 797l-129 -147h-142l50 147h221zM689 797l-149 -147h-161l84 147h226z" />
    <glyph glyph-name="OE" unicode="&#x152;" horiz-adv-x="1041" 
d="M444 0l4 32l-2 1q-35 -25 -78 -36t-94 -11q-124 0 -190 70.5t-66 215.5q0 24 2 49.5t6 53.5q28 197 119.5 292t240.5 95q45 0 85 -11.5t71 -34.5h2l5 34h510l-23 -194h-293l-13 -88h238l-24 -174h-238l-15 -102h306l-30 -192h-523zM476 376q9 64 9 103q0 51 -18 68
t-60 17q-29 0 -48.5 -7.5t-33.5 -28t-23.5 -57.5t-17.5 -95q-9 -65 -9 -103q0 -53 18.5 -71t59.5 -18q28 0 48 8t34 29t23.5 58.5t17.5 96.5z" />
    <glyph glyph-name="oe" unicode="&#x153;" horiz-adv-x="909" 
d="M353 628q113 0 164 -59q71 59 191 59q94 0 147.5 -43.5t53.5 -115.5q0 -104 -78.5 -169t-237.5 -89q7 -26 27.5 -35.5t55.5 -9.5t67 10t59 27l55 -134q-41 -33 -102.5 -57t-144.5 -24q-54 0 -95.5 15t-68.5 47q-72 -63 -194 -63q-134 0 -191.5 60.5t-57.5 174.5
q0 21 1.5 43.5t5.5 47.5q11 80 36.5 139t67.5 98t101 58.5t138 19.5zM323 447q-17 0 -30 -4.5t-22.5 -19.5t-17 -44t-14.5 -77q-4 -26 -5.5 -46t-1.5 -35q0 -39 12 -50t37 -11q17 0 30 4.5t22.5 20t17.5 45t15 79.5q4 26 5.5 45t1.5 33q0 39 -12.5 49.5t-37.5 10.5zM685 459
q-30 0 -48.5 -19t-31.5 -74q59 12 81.5 31t22.5 42q0 20 -24 20z" />
    <glyph glyph-name="Racute" unicode="&#x154;" horiz-adv-x="701" 
d="M395 750q144 0 217.5 -48t73.5 -154q0 -44 -9.5 -84t-27.5 -73.5t-42.5 -58.5t-54.5 -39l111 -293h-285l-58 244h-49l-34 -244h-245l105 750h298zM295 413h54q19 0 34 3.5t25.5 14.5t16 32t5.5 56q0 29 -13.5 38t-45.5 9h-55zM625 912l-168 -124h-177l67 124h278z" />
    <glyph glyph-name="racute" unicode="&#x155;" horiz-adv-x="474" 
d="M427 628q23 0 44.5 -5.5t34.5 -14.5l-63 -212q-12 9 -26 12.5t-34 3.5q-48 0 -84 -39.5t-46 -112.5l-36 -260h-227l85 610l177 9l6 -34q2 -10 3 -19.5t2 -19.5l2 -1q33 39 73.5 61t88.5 22zM483 797l-147 -147h-168l64 147h251z" />
    <glyph glyph-name="uni0156" unicode="&#x156;" horiz-adv-x="701" 
d="M395 750q144 0 217.5 -48t73.5 -154q0 -44 -9.5 -84t-27.5 -73.5t-42.5 -58.5t-54.5 -39l111 -293h-285l-58 244h-49l-34 -244h-245l105 750h298zM295 413h54q19 0 34 3.5t25.5 14.5t16 32t5.5 56q0 29 -13.5 38t-45.5 9h-55zM288 -27q58 0 83.5 -16.5t25.5 -44.5
q0 -20 -12 -37.5t-33.5 -33t-50.5 -28.5t-63 -24l-40 25l39 40h-3q-32 1 -51 13t-19 33q0 30 28 51.5t96 21.5z" />
    <glyph glyph-name="uni0157" unicode="&#x157;" horiz-adv-x="474" 
d="M427 628q23 0 44.5 -5.5t34.5 -14.5l-63 -212q-12 9 -26 12.5t-34 3.5q-48 0 -84 -39.5t-46 -112.5l-36 -260h-227l85 610l177 9l6 -34q2 -10 3 -19.5t2 -19.5l2 -1q33 39 73.5 61t88.5 22zM104 -27q58 0 83.5 -16.5t25.5 -44.5q0 -20 -12 -37.5t-33.5 -33t-50.5 -28.5
t-63 -24l-40 25l39 40h-3q-32 1 -51 13t-19 33q0 30 28 51.5t96 21.5z" />
    <glyph glyph-name="Rcaron" unicode="&#x158;" horiz-adv-x="701" 
d="M395 750q144 0 217.5 -48t73.5 -154q0 -44 -9.5 -84t-27.5 -73.5t-42.5 -58.5t-54.5 -39l111 -293h-285l-58 244h-49l-34 -244h-245l105 750h298zM295 413h54q19 0 34 3.5t25.5 14.5t16 32t5.5 56q0 29 -13.5 38t-45.5 9h-55zM235 788l-76 125h190l17 -42h5l29 42h188
l-114 -125h-239z" />
    <glyph glyph-name="rcaron" unicode="&#x159;" horiz-adv-x="474" 
d="M432 628q23 0 44.5 -5.5t34.5 -14.5l-63 -212q-12 9 -26 12.5t-34 3.5q-48 0 -84 -39.5t-46 -112.5l-36 -260h-227l85 610l177 9l6 -34q2 -10 3 -19.5t2 -19.5l2 -1q33 39 73.5 61t88.5 22zM196 650l-70 147h163l7 -24q3 -11 5 -21l5 -18h2l8 16q4 8 9 16l18 31h165
l-115 -147h-197z" />
    <glyph glyph-name="Sacute" unicode="&#x15a;" horiz-adv-x="588" 
d="M382 763q56 0 114.5 -10t103.5 -28l-52 -187q-48 13 -94.5 20.5t-84.5 7.5q-27 0 -43.5 -3t-25.5 -8.5t-12 -13.5t-3 -17q0 -16 20.5 -26.5t51 -21.5t66 -25t66 -36.5t51 -57t20.5 -85.5q0 -65 -25.5 -118t-71 -90.5t-108 -57.5t-136.5 -20q-66 0 -127.5 13.5
t-110.5 39.5l55 194q51 -25 101.5 -39t104.5 -14q42 0 59.5 10.5t17.5 30.5q0 17 -20.5 28t-51 22t-66 25t-66 37t-51 57.5t-20.5 86.5q0 57 20.5 108.5t62.5 91t105.5 63t149.5 23.5zM624 912l-168 -124h-177l67 124h278z" />
    <glyph glyph-name="sacute" unicode="&#x15b;" horiz-adv-x="479" 
d="M317 628q48 0 92 -10t76 -29l-84 -157q-24 10 -55 14t-63 4q-19 0 -27 -7.5t-8 -18.5q0 -13 14.5 -21.5t36.5 -16t47.5 -17.5t47.5 -26.5t36.5 -42.5t14.5 -65v-16q0 -7 -2 -15q-7 -48 -24 -87.5t-48.5 -68t-78.5 -44t-113 -15.5q-60 0 -112 15t-92 40l66 158
q35 -23 73 -33t70 -10q43 0 43 28q0 14 -14.5 22.5t-37 17.5t-48 20t-48 29.5t-37 46t-14.5 69.5q0 50 18.5 93.5t55 75t90.5 49.5t125 18zM514 797l-147 -147h-168l64 147h251z" />
    <glyph glyph-name="Scircumflex" unicode="&#x15c;" horiz-adv-x="588" 
d="M382 763q56 0 114.5 -10t103.5 -28l-52 -187q-48 13 -94.5 20.5t-84.5 7.5q-27 0 -43.5 -3t-25.5 -8.5t-12 -13.5t-3 -17q0 -16 20.5 -26.5t51 -21.5t66 -25t66 -36.5t51 -57t20.5 -85.5q0 -65 -25.5 -118t-71 -90.5t-108 -57.5t-136.5 -20q-66 0 -127.5 13.5
t-110.5 39.5l55 194q51 -25 101.5 -39t104.5 -14q42 0 59.5 10.5t17.5 30.5q0 17 -20.5 28t-51 22t-66 25t-66 37t-51 57.5t-20.5 86.5q0 57 20.5 108.5t62.5 91t105.5 63t149.5 23.5zM511 913l78 -125h-191l-19 39l-31 -39h-188l110 125h241z" />
    <glyph glyph-name="scircumflex" unicode="&#x15d;" horiz-adv-x="479" 
d="M317 628q48 0 92 -10t76 -29l-84 -157q-24 10 -55 14t-63 4q-19 0 -27 -7.5t-8 -18.5q0 -13 14.5 -21.5t36.5 -16t47.5 -17.5t47.5 -26.5t36.5 -42.5t14.5 -65v-16q0 -7 -2 -15q-7 -48 -24 -87.5t-48.5 -68t-78.5 -44t-113 -15.5q-60 0 -112 15t-92 40l66 158
q35 -23 73 -33t70 -10q43 0 43 28q0 14 -14.5 22.5t-37 17.5t-48 20t-48 29.5t-37 46t-14.5 69.5q0 50 18.5 93.5t55 75t90.5 49.5t125 18zM420 797l75 -147h-164l-20 56h-2q-5 -9 -8 -14.5t-8 -13.5l-18 -28h-162l113 147h194z" />
    <glyph glyph-name="Scedilla" unicode="&#x15e;" horiz-adv-x="588" 
d="M150 -10q-97 11 -169 49l55 194q51 -25 101.5 -39t104.5 -14q42 0 59.5 10.5t17.5 30.5q0 17 -20.5 28t-51 22t-66 25t-66 37t-51 57.5t-20.5 86.5q0 57 20.5 108.5t62.5 91t105.5 63t149.5 23.5q56 0 114.5 -10t103.5 -28l-52 -187q-48 13 -94.5 20.5t-84.5 7.5
q-27 0 -43.5 -3t-25.5 -8.5t-12 -13.5t-3 -17q0 -16 20.5 -26.5t51 -21.5t66 -25t66 -36.5t51 -57t20.5 -85.5q0 -55 -19 -101.5t-52.5 -82.5t-80.5 -60t-102 -34l-53 -181h-196z" />
    <glyph glyph-name="scedilla" unicode="&#x15f;" horiz-adv-x="479" 
d="M105 -4q-38 6 -71 18.5t-59 29.5l66 158q35 -23 73 -33t70 -10q43 0 43 28q0 14 -14.5 22.5t-37 17.5t-48 20t-48 29.5t-37 46t-14.5 69.5q0 50 18.5 93.5t55 75t90.5 49.5t125 18q48 0 92 -10t76 -29l-84 -157q-24 10 -55 14t-63 4q-19 0 -27 -7.5t-8 -18.5
q0 -13 14.5 -21.5t36.5 -16t47.5 -17.5t47.5 -26.5t36.5 -42.5t14.5 -65q0 -90 -46.5 -155t-139.5 -83l-54 -184h-196z" />
    <glyph glyph-name="Scaron" unicode="&#x160;" horiz-adv-x="588" 
d="M382 763q56 0 114.5 -10t103.5 -28l-52 -187q-48 13 -94.5 20.5t-84.5 7.5q-27 0 -43.5 -3t-25.5 -8.5t-12 -13.5t-3 -17q0 -16 20.5 -26.5t51 -21.5t66 -25t66 -36.5t51 -57t20.5 -85.5q0 -65 -25.5 -118t-71 -90.5t-108 -57.5t-136.5 -20q-66 0 -127.5 13.5
t-110.5 39.5l55 194q51 -25 101.5 -39t104.5 -14q42 0 59.5 10.5t17.5 30.5q0 17 -20.5 28t-51 22t-66 25t-66 37t-51 57.5t-20.5 86.5q0 57 20.5 108.5t62.5 91t105.5 63t149.5 23.5zM260 788l-76 125h190l17 -42h5l29 42h188l-114 -125h-239z" />
    <glyph glyph-name="scaron" unicode="&#x161;" horiz-adv-x="479" 
d="M317 628q48 0 92 -10t76 -29l-84 -157q-24 10 -55 14t-63 4q-19 0 -27 -7.5t-8 -18.5q0 -13 14.5 -21.5t36.5 -16t47.5 -17.5t47.5 -26.5t36.5 -42.5t14.5 -65v-16q0 -7 -2 -15q-7 -48 -24 -87.5t-48.5 -68t-78.5 -44t-113 -15.5q-60 0 -112 15t-92 40l66 158
q35 -23 73 -33t70 -10q43 0 43 28q0 14 -14.5 22.5t-37 17.5t-48 20t-48 29.5t-37 46t-14.5 69.5q0 50 18.5 93.5t55 75t90.5 49.5t125 18zM205 650l-70 147h163l7 -24q3 -11 5 -21l5 -18h2l8 16q4 8 9 16l18 31h165l-115 -147h-197z" />
    <glyph glyph-name="uni0162" unicode="&#x162;" horiz-adv-x="614" 
d="M179 0h-47l77 551h-174l33 199h588l-23 -199h-175l-77 -551h-50l-55 -187h-196z" />
    <glyph glyph-name="uni0163" unicode="&#x163;" horiz-adv-x="424" 
d="M142 2q-110 33 -110 167q0 13 1 26t3 27l30 214h-65l31 168h78l47 139l180 17l-22 -156h129l-31 -168h-121l-29 -205q-1 -5 -1 -9v-8q0 -41 44 -41q11 0 26.5 3t28.5 8l-4 -162q-12 -6 -28.5 -11t-34.5 -9l-56 -189h-196z" />
    <glyph glyph-name="Tcaron" unicode="&#x164;" horiz-adv-x="614" 
d="M458 551l-77 -551h-249l77 551h-174l33 199h588l-23 -199h-175zM231 788l-76 125h190l17 -42h5l29 42h188l-114 -125h-239z" />
    <glyph glyph-name="tcaron" unicode="&#x165;" horiz-adv-x="424" 
d="M32 604h78l47 139l180 17l-22 -156h129l-31 -168h-121l-29 -205q-1 -5 -1 -9v-8q0 -41 44 -41q11 0 26.5 3t28.5 8l-4 -162q-12 -6 -29 -11.5t-36.5 -9t-39.5 -6t-38 -2.5q-91 0 -136.5 45.5t-45.5 130.5q0 13 1 26t3 27l30 214h-65zM474 813q39 0 58.5 -17t19.5 -46
q0 -40 -32.5 -70.5t-80.5 -56.5l-49 23q20 23 32 42q-21 3 -33 15t-12 32q0 32 23 55t74 23z" />
    <glyph glyph-name="Tbar" unicode="&#x166;" horiz-adv-x="614" 
d="M458 551l-11 -81h110l-21 -145h-110l-45 -325h-249l45 325h-97l21 145h97l11 81h-174l33 199h588l-23 -199h-175z" />
    <glyph glyph-name="tbar" unicode="&#x167;" horiz-adv-x="424" 
d="M39 604h71l47 139l180 17l-22 -156h129l-29 -152h-121l-5 -35h119l-27 -149h-113l-5 -37q-1 -5 -1 -9v-8q0 -41 44 -41q11 0 26.5 3t28.5 8l-4 -162q-12 -6 -29 -11.5t-36.5 -9t-39.5 -6t-38 -2.5q-91 0 -136.5 45.5t-45.5 130.5q0 13 1 26t3 27l6 46h-57l27 149h51l5 35
h-59z" />
    <glyph glyph-name="Utilde" unicode="&#x168;" horiz-adv-x="715" 
d="M667 267q-20 -137 -108.5 -209t-251.5 -72q-146 0 -217.5 57.5t-71.5 167.5q0 14 1 27.5t3 28.5l68 483h246l-69 -490q-1 -6 -1.5 -11t-0.5 -10q0 -29 16 -42t54 -13q44 0 62 17.5t24 58.5l69 490h245zM217 788q10 61 47.5 98t99.5 37q28 0 50 -3.5t40 -8.5l32 -8
q14 -3 26 -3t17 2.5t7 10.5h96q-10 -63 -48.5 -98.5t-96.5 -35.5q-28 0 -49.5 3.5t-38.5 8t-30 8.5t-25 4q-10 0 -17.5 -4.5t-9.5 -10.5h-100z" />
    <glyph glyph-name="utilde" unicode="&#x169;" horiz-adv-x="630" 
d="M580 231q-34 -241 -317 -241q-128 0 -190 49.5t-62 143.5q0 11 1 23.5t3 24.5l53 379l228 10l-55 -389q-1 -5 -1.5 -9t-0.5 -8q0 -23 12 -33t39 -10q31 0 45 14t19 46l54 383h226zM432 642q-27 0 -45.5 5.5t-31.5 12t-22.5 12t-19.5 5.5q-15 0 -22 -28h-120
q10 70 48.5 113t99.5 43q27 0 45 -5.5t31 -12.5t22.5 -12.5t19.5 -5.5q16 0 22 28h121q-11 -70 -49.5 -112.5t-98.5 -42.5z" />
    <glyph glyph-name="Umacron" unicode="&#x16a;" horiz-adv-x="715" 
d="M667 267q-20 -137 -108.5 -209t-251.5 -72q-146 0 -217.5 57.5t-71.5 167.5q0 14 1 27.5t3 28.5l68 483h246l-69 -490q-1 -6 -1.5 -11t-0.5 -10q0 -29 16 -42t54 -13q44 0 62 17.5t24 58.5l69 490h245zM599 799h-363l14 103h363z" />
    <glyph glyph-name="umacron" unicode="&#x16b;" horiz-adv-x="630" 
d="M580 231q-34 -241 -317 -241q-128 0 -190 49.5t-62 143.5q0 11 1 23.5t3 24.5l53 379l228 10l-55 -389q-1 -5 -1.5 -9t-0.5 -8q0 -23 12 -33t39 -10q31 0 45 14t19 46l54 383h226zM537 661h-363l18 127h363z" />
    <glyph glyph-name="Ubreve" unicode="&#x16c;" horiz-adv-x="715" 
d="M667 267q-20 -137 -108.5 -209t-251.5 -72q-146 0 -217.5 57.5t-71.5 167.5q0 14 1 27.5t3 28.5l68 483h246l-69 -490q-1 -6 -1.5 -11t-0.5 -10q0 -29 16 -42t54 -13q44 0 62 17.5t24 58.5l69 490h245zM630 912q-9 -64 -59 -97.5t-152 -33.5q-48 0 -81.5 7.5t-53.5 21
t-29 33t-9 43.5q0 6 0.5 12.5t1.5 13.5h163v-5q0 -12 6 -16t17 -4t19.5 4t10.5 21h166z" />
    <glyph glyph-name="ubreve" unicode="&#x16d;" horiz-adv-x="630" 
d="M580 231q-34 -241 -317 -241q-128 0 -190 49.5t-62 143.5q0 11 1 23.5t3 24.5l53 379l228 10l-55 -389q-1 -5 -1.5 -9t-0.5 -8q0 -23 12 -33t39 -10q31 0 45 14t19 46l54 383h226zM560 797q-11 -77 -58.5 -116.5t-145.5 -39.5q-90 0 -125.5 31.5t-35.5 87.5q0 17 3 37
h149q-1 -6 -1.5 -11t-0.5 -10q0 -18 7 -24t18 -6q12 0 22.5 9.5t15.5 41.5h152z" />
    <glyph glyph-name="Uring" unicode="&#x16e;" horiz-adv-x="715" 
d="M431 913q43 0 72.5 -7t47.5 -19.5t26 -30t8 -39.5q0 -40 -12 -67h162l-68 -483q-20 -137 -108.5 -209t-251.5 -72q-146 0 -217.5 57.5t-71.5 167.5q0 14 1 27.5t3 28.5l68 483h160q0 4 -0.5 8t-0.5 9q0 33 8.5 60t29 46t55.5 29.5t89 10.5zM335 184q44 0 62 17.5t24 58.5
l60 424q-34 -7 -83 -7q-21 0 -39 1t-33 4l-59 -422q-1 -6 -1.5 -11t-0.5 -10q0 -29 16 -42t54 -13zM424 821q-20 0 -32 -2.5t-18.5 -7.5t-8.5 -13t-2 -19t10 -16t42 -5q34 0 46 8t12 30q0 12 -10 18.5t-39 6.5z" />
    <glyph glyph-name="uring" unicode="&#x16f;" horiz-adv-x="630" 
d="M580 231q-34 -241 -317 -241q-128 0 -190 49.5t-62 143.5q0 11 1 23.5t3 24.5l53 379l228 10l-55 -389q-1 -5 -1.5 -9t-0.5 -8q0 -23 12 -33t39 -10q31 0 45 14t19 46l54 383h226zM387 840q77 0 109.5 -23t32.5 -61q0 -61 -41 -87.5t-129 -26.5q-72 0 -106.5 16.5
t-34.5 61.5q0 27 8.5 49.5t28 38t52 24t80.5 8.5zM379 762q-35 0 -45 -7t-10 -21q0 -8 9.5 -12t38.5 -4t40 5t13 17q0 10 -7.5 16t-38.5 6z" />
    <glyph glyph-name="Uhungarumlaut" unicode="&#x170;" horiz-adv-x="715" 
d="M667 267q-20 -137 -108.5 -209t-251.5 -72q-146 0 -217.5 57.5t-71.5 167.5q0 14 1 27.5t3 28.5l68 483h246l-69 -490q-1 -6 -1.5 -11t-0.5 -10q0 -29 16 -42t54 -13q44 0 62 17.5t24 58.5l69 490h245zM495 911l-104 -124h-140l25 124h219zM736 911l-131 -124h-160
l67 124h224z" />
    <glyph glyph-name="uhungarumlaut" unicode="&#x171;" horiz-adv-x="630" 
d="M580 231q-34 -241 -317 -241q-128 0 -190 49.5t-62 143.5q0 11 1 23.5t3 24.5l53 379l228 10l-55 -389q-1 -5 -1.5 -9t-0.5 -8q0 -23 12 -33t39 -10q31 0 45 14t19 46l54 383h226zM451 797l-129 -147h-142l50 147h221zM694 797l-149 -147h-161l84 147h226z" />
    <glyph glyph-name="Uogonek" unicode="&#x172;" horiz-adv-x="715" 
d="M340 -195q-67 0 -99.5 24t-32.5 62q0 61 55 99q-125 6 -185 63t-60 158q0 14 1 27.5t3 28.5l68 483h246l-69 -490q-1 -6 -1.5 -11t-0.5 -10q0 -29 16 -42t54 -13q44 0 62 17.5t24 58.5l69 490h245l-68 -483q-15 -108 -72.5 -176t-159.5 -91q-50 -11 -50 -46q0 -22 39 -22
q12 0 20.5 1.5t18.5 5.5l2 -109q-27 -11 -56.5 -18t-68.5 -7z" />
    <glyph glyph-name="uogonek" unicode="&#x173;" horiz-adv-x="630" 
d="M267 -195q-67 0 -99.5 24t-32.5 62q0 36 18 62.5t46 43.5q-97 10 -142.5 57.5t-45.5 128.5q0 11 1 23.5t3 24.5l53 379l228 10l-55 -389q-1 -5 -1.5 -9t-0.5 -8q0 -23 12 -33t39 -10q31 0 45 14t19 46l54 383h226l-54 -383q-14 -101 -69 -159t-160 -75
q-18 -3 -28.5 -15.5t-10.5 -27.5q0 -22 39 -22q12 0 20.5 1.5t18.5 5.5l2 -109q-27 -11 -56.5 -18t-68.5 -7z" />
    <glyph glyph-name="Wcircumflex" unicode="&#x174;" horiz-adv-x="1067" 
d="M724 750l12 -458v-41h2q2 9 4.5 19t5.5 20l132 460h243l-276 -750h-297v459q0 11 1 21h-2q-2 -9 -4.5 -18.5t-5.5 -20.5l-127 -441h-292l-66 750h255v-460q0 -10 -0.5 -20.5t-0.5 -20.5h2q2 9 5 19l6 20l141 462h262zM736 913l78 -125h-191l-19 39l-31 -39h-188l110 125
h241z" />
    <glyph glyph-name="wcircumflex" unicode="&#x175;" horiz-adv-x="939" 
d="M613 797l75 -147h-164l-20 56h-2q-5 -9 -8 -14.5t-8 -13.5l-18 -28h-162l113 147h194zM922 640q5 -29 7.5 -64t2.5 -70q0 -27 -1 -52.5t-4 -45.5q-10 -72 -35.5 -131t-59 -105.5t-72.5 -80.5t-75.5 -56.5t-68.5 -33.5t-51 -11q-12 0 -30 6.5t-38 22.5t-39.5 41t-34.5 63
h-2q-28 -35 -57.5 -60t-57 -41.5t-51 -24.5t-38.5 -8q-17 0 -48.5 13t-63 46.5t-54.5 90.5t-23 145q0 21 1.5 44t5.5 49l33 233l228 10l-35 -244q-5 -30 -6.5 -53.5t-1.5 -41.5q0 -26 3 -41t7 -23t8 -10.5t7 -2.5q7 0 18.5 9.5t24 32t24 59.5t19.5 93l30 213h227l-33 -235
q-5 -29 -6 -52t-1 -41q0 -26 3 -41.5t7 -24t9 -11t8 -2.5q8 0 25 15t34 52.5t30 100t13 157.5q0 20 -0.5 36t-1.5 29z" />
    <glyph glyph-name="Ycircumflex" unicode="&#x176;" horiz-adv-x="729" 
d="M318 750l57 -258l8 -40h2q3 9 7.5 18.5t9.5 18.5l127 261h267l-322 -525l-31 -225h-251l31 225l-180 525h275zM565 913l78 -125h-191l-19 39l-31 -39h-188l110 125h241z" />
    <glyph glyph-name="ycircumflex" unicode="&#x177;" horiz-adv-x="625" 
d="M633 616q-29 -141 -80 -262.5t-120.5 -220.5t-156.5 -173.5t-189 -121.5l-74 162q39 20 75.5 46.5t68.5 58.5l-121 498l252 18l34 -235q2 -10 3 -20.5t2 -20.5h2q26 64 47 132.5t35 138.5h222zM475 797l75 -147h-164l-20 56h-2q-5 -9 -8 -14.5t-8 -13.5l-18 -28h-162
l113 147h194z" />
    <glyph glyph-name="Ydieresis" unicode="&#x178;" horiz-adv-x="729" 
d="M318 750l57 -258l8 -40h2q3 9 7.5 18.5t9.5 18.5l127 261h267l-322 -525l-31 -225h-251l31 225l-180 525h275zM348 937q41 0 59 -16t18 -45q0 -93 -98 -93q-40 0 -60 13t-20 45q0 46 25.5 71t75.5 25zM554 937q42 0 60 -16t18 -45q0 -93 -99 -93q-40 0 -60 13t-20 45
q0 46 25.5 71t75.5 25z" />
    <glyph glyph-name="Zacute" unicode="&#x179;" horiz-adv-x="619" 
d="M-30 0l20 149l312 371q13 17 27 29l-1 2h-276l34 199h560l-23 -166l-299 -355q-7 -8 -13.5 -15.5t-13.5 -13.5l1 -2h275l-30 -198h-573zM607 912l-168 -124h-177l67 124h278z" />
    <glyph glyph-name="zacute" unicode="&#x17a;" horiz-adv-x="533" 
d="M284 200q-7 -8 -13 -14.5t-13 -13.5v-2h231l-28 -170h-490l20 149l234 266q11 13 27 28l-1 2h-214l31 171h472l-21 -147zM520 797l-147 -147h-168l64 147h251z" />
    <glyph glyph-name="Zdotaccent" unicode="&#x17b;" horiz-adv-x="619" 
d="M-30 0l20 149l312 371q13 17 27 29l-1 2h-276l34 199h560l-23 -166l-299 -355q-7 -8 -13.5 -15.5t-13.5 -13.5l1 -2h275l-30 -198h-573zM399 925q63 0 88.5 -15t25.5 -45q0 -43 -29.5 -65t-105.5 -22q-63 0 -89.5 13.5t-26.5 45.5q0 44 31 66t106 22z" />
    <glyph glyph-name="zdotaccent" unicode="&#x17c;" horiz-adv-x="533" 
d="M284 200q-7 -8 -13 -14.5t-13 -13.5v-2h231l-28 -170h-490l20 149l234 266q11 13 27 28l-1 2h-214l31 171h472l-21 -147zM330 809q58 0 84 -17t26 -51q0 -95 -133 -95q-56 0 -82.5 14.5t-26.5 49.5q0 49 32 74t100 25z" />
    <glyph glyph-name="Zcaron" unicode="&#x17d;" horiz-adv-x="619" 
d="M-30 0l20 149l312 371q13 17 27 29l-1 2h-276l34 199h560l-23 -166l-299 -355q-7 -8 -13.5 -15.5t-13.5 -13.5l1 -2h275l-30 -198h-573zM251 788l-76 125h190l17 -42h5l29 42h188l-114 -125h-239z" />
    <glyph glyph-name="zcaron" unicode="&#x17e;" horiz-adv-x="533" 
d="M284 200q-7 -8 -13 -14.5t-13 -13.5v-2h231l-28 -170h-490l20 149l234 266q11 13 27 28l-1 2h-214l31 171h472l-21 -147zM210 650l-70 147h163l7 -24q3 -11 5 -21l5 -18h2l8 16q4 8 9 16l18 31h165l-115 -147h-197z" />
    <glyph glyph-name="longs" unicode="&#x17f;" horiz-adv-x="365" 
d="M54 604h50q7 46 27 84t60.5 65t105 42t161.5 15l-10 -158q-37 0 -59.5 -3t-35 -9t-17 -15t-6.5 -22l-72 -517q-10 -70 -38.5 -118t-72 -78.5t-99.5 -45t-119 -15.5l7 154q22 2 38.5 7.5t27.5 16.5t18 30t11 48l51 365h-56z" />
    <glyph glyph-name="uni018F" unicode="&#x18f;" horiz-adv-x="752" 
d="M26 369q2 13 7 41.5t11 51.5h438q0 32 -6.5 52.5t-22 32t-41.5 16t-66 4.5q-56 0 -113 -6.5t-111 -19.5l2 181q36 12 69 19.5t67 12t71.5 6.5t82.5 2q78 0 138.5 -16.5t102 -51.5t62.5 -90t21 -132q0 -23 -1.5 -47t-5.5 -50q-14 -96 -44 -169t-79.5 -121.5t-120.5 -73.5
t-165 -25q-80 0 -137.5 17.5t-94.5 53t-54.5 88t-17.5 121.5q0 24 2 49.5t6 53.5zM350 180q23 0 40.5 5.5t31 19.5t23.5 38.5t18 63.5h-189q-3 -26 -3 -44q0 -45 18 -64t61 -19z" />
    <glyph glyph-name="florin" unicode="&#x192;" horiz-adv-x="448" 
d="M-118 -158l216 613h-62l58 160h61l8 25q10 31 33.5 60t59 51.5t83 35.5t104.5 13q29 0 56.5 -4t47.5 -10l-61 -136q-12 2 -23 3.5t-22 1.5q-27 0 -38 -5t-14 -15l-7 -20h101l-58 -160h-101l-218 -613h-224z" />
    <glyph glyph-name="uni01B5" unicode="&#x1b5;" horiz-adv-x="619" 
d="M-30 0l20 149l140 167h-94l25 134h182l59 70q13 17 27 29l-1 2h-276l34 199h560l-23 -166l-113 -134h86l-25 -134h-174l-73 -87q-7 -8 -13.5 -15.5t-13.5 -13.5l1 -2h275l-30 -198h-573z" />
    <glyph glyph-name="uni01B6" unicode="&#x1b6;" horiz-adv-x="533" 
d="M438 377h59l-24 -122h-141l-48 -55q-7 -8 -13 -14.5t-13 -13.5v-2h231l-28 -170h-490l20 149l93 106h-57l24 122h140l34 38q11 13 27 28l-1 2h-214l31 171h472l-21 -147z" />
    <glyph glyph-name="Aringacute" unicode="&#x1fa;" horiz-adv-x="761" 
d="M694 952l-113 -83q20 -23 20 -57q0 -49 -19 -80l138 -732h-274l-11 120h-191l-44 -120h-259l332 721q-8 15 -8 41q0 28 6 52t20 42t38.5 30.5t60.5 17.5l26 48h278zM399 540q-2 -9 -5.5 -19t-7.5 -20l-74 -201h109l-17 199q-1 11 -2 20.5t-1 20.5h-2zM440 816
q-20 0 -32 -2.5t-18.5 -7.5t-8.5 -13t-2 -19t10 -16t42 -5q34 0 46 8t12 30q0 12 -10 18.5t-39 6.5z" />
    <glyph glyph-name="aringacute" unicode="&#x1fb;" horiz-adv-x="635" 
d="M681 915l-107 -107q22 -21 22 -52q0 -61 -41 -87.5t-129 -26.5q-72 0 -106.5 16.5t-34.5 61.5t24 75.5t86 40.5l35 79h251zM446 762q-35 0 -45 -7t-10 -21q0 -8 9.5 -12t38.5 -4t40 5t13 17q0 10 -7.5 16t-38.5 6zM386 626q34 0 58 -2t46 -4t47 -4t60 -2h34l-86 -614
h-175l-13 42q-37 -29 -79 -41t-83 -12q-194 0 -194 213q0 91 27.5 168.5t77.5 134.5t121.5 89t158.5 32zM278 165q30 0 50.5 26t26.5 68l26 188q-5 0 -11 0.5t-13 0.5q-19 0 -37.5 -7.5t-34.5 -26.5t-28.5 -51.5t-19.5 -81.5q-6 -39 -6 -63q0 -32 11 -42.5t36 -10.5z" />
    <glyph glyph-name="AEacute" unicode="&#x1fc;" horiz-adv-x="1076" 
d="M787 556l-11 -88h226l-24 -174h-223l-12 -101h289l-31 -193h-530l15 121h-190l-66 -121h-289l493 750h659l-23 -194h-283zM542 577q-3 -8 -8 -17t-10 -20l-131 -241h116l29 236q2 11 3.5 20.5t3.5 20.5zM969 912l-168 -124h-177l67 124h278z" />
    <glyph glyph-name="aeacute" unicode="&#x1fd;" horiz-adv-x="898" 
d="M697 628q94 0 147.5 -43.5t53.5 -115.5q0 -104 -78.5 -169t-237.5 -89q7 -26 27.5 -35.5t55.5 -9.5t67 10t59 27l55 -134q-40 -33 -102 -57t-145 -24q-70 0 -119 25t-72 81h-2q-21 -30 -46.5 -50t-53.5 -32t-58 -17.5t-59 -5.5q-188 0 -188 212q0 102 29 181t79.5 133.5
t117.5 82.5t142 28q53 0 94.5 -9t74.5 -26q62 37 159 37zM278 165q29 0 48.5 23.5t27.5 61.5l29 206q-5 1 -10 1h-10q-21 0 -41 -9.5t-36.5 -30.5t-29 -54.5t-19.5 -81.5q-6 -39 -6 -63q0 -32 11 -42.5t36 -10.5zM674 461q-30 0 -48.5 -20t-31.5 -75q57 11 80.5 30.5
t23.5 43.5q0 21 -24 21zM701 797l-147 -147h-168l64 147h251z" />
    <glyph glyph-name="Oslashacute" unicode="&#x1fe;" horiz-adv-x="756" 
d="M675 912l-168 -124h-177l67 124h278zM-24 76l63 64q-11 29 -15.5 62.5t-4.5 71.5q0 23 1.5 48.5t5.5 52.5q28 196 126 291.5t283 95.5q130 0 202 -47l51 51l97 -100l-62 -62q19 -53 19 -126q0 -24 -2 -49.5t-6 -53.5q-14 -101 -44.5 -174t-80.5 -121t-120 -71t-163 -23
q-126 0 -199 46l-51 -52zM470 536q-10 12 -26 16.5t-39 4.5q-27 0 -47 -7t-34.5 -29t-25 -62.5t-17.5 -106.5zM292 210q10 -11 24.5 -15.5t37.5 -4.5q28 0 48 8t34.5 30.5t24.5 61.5t18 102z" />
    <glyph glyph-name="oslashacute" unicode="&#x1ff;" horiz-adv-x="619" 
d="M572 797l-147 -147h-168l64 147h251zM353 628q52 0 91.5 -9.5t68.5 -26.5l44 45l81 -80l-54 -54q17 -48 17 -111q0 -21 -2 -43.5t-5 -46.5q-11 -80 -36.5 -139t-67 -98t-100.5 -58.5t-138 -19.5q-94 0 -153 31l-42 -42l-81 80l47 47q-20 47 -20 118q0 21 1.5 44t5.5 48
q11 80 36.5 139t67.5 98t101 58.5t138 19.5zM324 450q-17 0 -30 -4.5t-23 -19.5t-17.5 -43.5t-14.5 -76.5l129 120q-5 15 -16 19.5t-28 4.5zM280 158q17 0 29.5 4.5t22.5 19t18 42t16 74.5l-129 -119q5 -14 16 -17.5t27 -3.5z" />
    <glyph glyph-name="uni0218" unicode="&#x218;" horiz-adv-x="588" 
d="M382 763q56 0 114.5 -10t103.5 -28l-52 -187q-48 13 -94.5 20.5t-84.5 7.5q-27 0 -43.5 -3t-25.5 -8.5t-12 -13.5t-3 -17q0 -16 20.5 -26.5t51 -21.5t66 -25t66 -36.5t51 -57t20.5 -85.5q0 -65 -25.5 -118t-71 -90.5t-108 -57.5t-136.5 -20q-66 0 -127.5 13.5
t-110.5 39.5l55 194q51 -25 101.5 -39t104.5 -14q42 0 59.5 10.5t17.5 30.5q0 17 -20.5 28t-51 22t-66 25t-66 37t-51 57.5t-20.5 86.5q0 57 20.5 108.5t62.5 91t105.5 63t149.5 23.5zM229 -27q58 0 83.5 -16.5t25.5 -44.5q0 -20 -12 -37.5t-33.5 -33t-50.5 -28.5t-63 -24
l-40 25l39 40h-3q-32 1 -51 13t-19 33q0 30 28 51.5t96 21.5z" />
    <glyph glyph-name="uni0219" unicode="&#x219;" horiz-adv-x="479" 
d="M317 628q48 0 92 -10t76 -29l-84 -157q-24 10 -55 14t-63 4q-19 0 -27 -7.5t-8 -18.5q0 -13 14.5 -21.5t36.5 -16t47.5 -17.5t47.5 -26.5t36.5 -42.5t14.5 -65v-16q0 -7 -2 -15q-7 -48 -24 -87.5t-48.5 -68t-78.5 -44t-113 -15.5q-60 0 -112 15t-92 40l66 158
q35 -23 73 -33t70 -10q43 0 43 28q0 14 -14.5 22.5t-37 17.5t-48 20t-48 29.5t-37 46t-14.5 69.5q0 50 18.5 93.5t55 75t90.5 49.5t125 18zM197 -27q58 0 83.5 -16.5t25.5 -44.5q0 -20 -12 -37.5t-33.5 -33t-50.5 -28.5t-63 -24l-40 25l39 40h-3q-32 1 -51 13t-19 33
q0 30 28 51.5t96 21.5z" />
    <glyph glyph-name="uni021A" unicode="&#x21a;" horiz-adv-x="614" 
d="M458 551l-77 -551h-249l77 551h-174l33 199h588l-23 -199h-175zM250 -27q58 0 83.5 -16.5t25.5 -44.5q0 -20 -12 -37.5t-33.5 -33t-50.5 -28.5t-63 -24l-40 25l39 40h-3q-32 1 -51 13t-19 33q0 30 28 51.5t96 21.5z" />
    <glyph glyph-name="uni021B" unicode="&#x21b;" horiz-adv-x="424" 
d="M32 604h78l47 139l180 17l-22 -156h129l-31 -168h-121l-29 -205q-1 -5 -1 -9v-8q0 -41 44 -41q11 0 26.5 3t28.5 8l-4 -162q-12 -6 -29 -11.5t-36.5 -9t-39.5 -6t-38 -2.5q-91 0 -136.5 45.5t-45.5 130.5q0 13 1 26t3 27l30 214h-65zM191 -27q58 0 83.5 -16.5t25.5 -44.5
q0 -20 -12 -37.5t-33.5 -33t-50.5 -28.5t-63 -24l-40 25l39 40h-3q-32 1 -51 13t-19 33q0 30 28 51.5t96 21.5z" />
    <glyph glyph-name="uni0237" unicode="&#x237;" horiz-adv-x="324" 
d="M240 86q-10 -70 -39 -118t-72.5 -78.5t-99 -45t-118.5 -15.5l7 154q22 2 38.5 7.5t27.5 16.5t18 30t11 48l74 525l228 10z" />
    <glyph glyph-name="uni0259" unicode="&#x259;" horiz-adv-x="547" 
d="M198 -12q-96 0 -148.5 44t-52.5 119q0 107 76 169t240 87q-8 25 -28.5 34.5t-55.5 9.5t-66.5 -10t-58.5 -27l-56 134q41 32 102.5 56t144.5 24q54 0 98.5 -14.5t77 -45t50 -77.5t17.5 -112q0 -37 -6 -77q-22 -157 -107 -235.5t-227 -78.5zM220 156q15 0 28 5t23 17
t18.5 32t14.5 51q-60 -13 -83.5 -36t-23.5 -48q0 -21 23 -21z" />
    <glyph glyph-name="uni02BB" unicode="&#x2bb;" horiz-adv-x="278" 
d="M156 466q-104 0 -104 101q0 35 13 70t35.5 68t53 62.5t64.5 52.5l64 -42q-16 -23 -30.5 -47t-27.5 -50q31 -3 48.5 -22.5t17.5 -53.5q0 -63 -36 -101t-98 -38z" />
    <glyph glyph-name="uni02BC" unicode="&#x2bc;" horiz-adv-x="278" 
d="M195 775q104 0 104 -101q0 -35 -13.5 -70.5t-36 -68.5t-52.5 -62t-63 -52l-64 42q32 45 56 97q-30 3 -47.5 23t-17.5 55q0 62 36 99.5t98 37.5z" />
    <glyph glyph-name="circumflex" unicode="&#x2c6;" horiz-adv-x="412" 
d="M365 797l75 -147h-164l-20 56h-2q-5 -9 -8 -14.5t-8 -13.5l-18 -28h-162l113 147h194z" />
    <glyph glyph-name="caron" unicode="&#x2c7;" horiz-adv-x="412" 
d="M150 650l-70 147h163l7 -24q3 -11 5 -21l5 -18h2l8 16q4 8 9 16l18 31h165l-115 -147h-197z" />
    <glyph glyph-name="breve" unicode="&#x2d8;" horiz-adv-x="412" 
d="M449 797q-11 -77 -58.5 -116.5t-145.5 -39.5q-90 0 -125.5 31.5t-35.5 87.5q0 17 3 37h149q-1 -6 -1.5 -11t-0.5 -10q0 -18 7 -24t18 -6q12 0 22.5 9.5t15.5 41.5h152z" />
    <glyph glyph-name="dotaccent" unicode="&#x2d9;" horiz-adv-x="413" 
d="M270 809q58 0 84 -17t26 -51q0 -95 -133 -95q-56 0 -82.5 14.5t-26.5 49.5q0 49 32 74t100 25z" />
    <glyph glyph-name="ring" unicode="&#x2da;" horiz-adv-x="412" 
d="M276 840q77 0 109.5 -23t32.5 -61q0 -61 -41 -87.5t-129 -26.5q-72 0 -106.5 16.5t-34.5 61.5q0 27 8.5 49.5t28 38t52 24t80.5 8.5zM268 762q-35 0 -45 -7t-10 -21q0 -8 9.5 -12t38.5 -4t40 5t13 17q0 10 -7.5 16t-38.5 6z" />
    <glyph glyph-name="ogonek" unicode="&#x2db;" horiz-adv-x="413" 
d="M205 -195q-67 0 -99.5 24t-32.5 62q0 29 11 51.5t30.5 39t45 27.5t54.5 19l86 -28q-50 -8 -50 -46q0 -22 39 -22q12 0 20.5 1.5t18.5 5.5l2 -109q-27 -11 -56.5 -18t-68.5 -7z" />
    <glyph glyph-name="tilde" unicode="&#x2dc;" horiz-adv-x="413" 
d="M322 642q-27 0 -45.5 5.5t-31.5 12t-22.5 12t-19.5 5.5q-15 0 -22 -28h-120q10 70 48.5 113t99.5 43q27 0 45 -5.5t31 -12.5t22.5 -12.5t19.5 -5.5q16 0 22 28h121q-11 -70 -49.5 -112.5t-98.5 -42.5z" />
    <glyph glyph-name="hungarumlaut" unicode="&#x2dd;" horiz-adv-x="412" 
d="M343 797l-129 -147h-142l50 147h221zM586 797l-149 -147h-161l84 147h226z" />
    <glyph glyph-name="uni0394" unicode="&#x394;" horiz-adv-x="728" 
d="M665 0h-704l377 753h161zM374 456q-4 -9 -7 -17.5t-8 -19.5l-109 -242h168l-37 238q-5 28 -5 41h-2z" />
    <glyph glyph-name="uni03A9" unicode="&#x3a9;" horiz-adv-x="750" 
d="M431 761q71 0 128.5 -15t98 -45.5t62.5 -78t22 -112.5q0 -104 -44.5 -189.5t-131.5 -141.5v-3h132l-24 -176h-332l35 252q16 10 31.5 24t28.5 35.5t23.5 52.5t16.5 76q2 14 3 25.5t1 21.5q0 49 -20.5 65.5t-56.5 16.5q-22 0 -39.5 -5.5t-31 -20t-23 -39.5t-15.5 -64
q-3 -18 -4 -33t-1 -29q0 -27 4 -47t11.5 -35t16.5 -25.5t20 -18.5l-35 -252h-331l24 176h129l1 3q-50 37 -74 90t-24 119q0 93 31 163t84.5 116.5t126.5 70t157 23.5z" />
    <glyph glyph-name="uni03BC" unicode="&#x3bc;" horiz-adv-x="638" 
d="M253 -8q-19 0 -34.5 6.5t-27.5 22.5l-2 -1q-4 -90 -6 -173l-217 -15l110 784h227l-53 -376q-1 -5 -2 -15t-1 -13q0 -16 8.5 -27t31.5 -11q28 0 50.5 22.5t27.5 57.5l51 362h225l-86 -611l-161 -11l-22 45h-2q-21 -21 -50 -34t-67 -13z" />
    <glyph glyph-name="pi" unicode="&#x3c0;" horiz-adv-x="688" 
d="M392 435h-66l-61 -435h-226l60 432q-17 -2 -28 -4.5t-21 -7.5l-22 166q27 14 75.5 22t107.5 8h484l-25 -181h-51l-35 -247q-1 -5 -1 -7v-4q0 -15 9 -21t31 -6l-22 -156q-70 0 -117.5 8t-76.5 25t-41.5 44.5t-12.5 65.5q0 12 1 24.5t3 26.5z" />
    <glyph glyph-name="Wgrave" unicode="&#x1e80;" horiz-adv-x="1067" 
d="M724 750l12 -458v-41h2q2 9 4.5 19t5.5 20l132 460h243l-276 -750h-297v459q0 11 1 21h-2q-2 -9 -4.5 -18.5t-5.5 -20.5l-127 -441h-292l-66 750h255v-460q0 -10 -0.5 -20.5t-0.5 -20.5h2q2 9 5 19l6 20l141 462h262zM521 788l-120 124h259l41 -124h-180z" />
    <glyph glyph-name="wgrave" unicode="&#x1e81;" horiz-adv-x="939" 
d="M431 650l-112 147h251l29 -147h-168zM922 640q5 -29 7.5 -64t2.5 -70q0 -27 -1 -52.5t-4 -45.5q-10 -72 -35.5 -131t-59 -105.5t-72.5 -80.5t-75.5 -56.5t-68.5 -33.5t-51 -11q-12 0 -30 6.5t-38 22.5t-39.5 41t-34.5 63h-2q-28 -35 -57.5 -60t-57 -41.5t-51 -24.5
t-38.5 -8q-17 0 -48.5 13t-63 46.5t-54.5 90.5t-23 145q0 21 1.5 44t5.5 49l33 233l228 10l-35 -244q-5 -30 -6.5 -53.5t-1.5 -41.5q0 -26 3 -41t7 -23t8 -10.5t7 -2.5q7 0 18.5 9.5t24 32t24 59.5t19.5 93l30 213h227l-33 -235q-5 -29 -6 -52t-1 -41q0 -26 3 -41.5t7 -24
t9 -11t8 -2.5q8 0 25 15t34 52.5t30 100t13 157.5q0 20 -0.5 36t-1.5 29z" />
    <glyph glyph-name="Wacute" unicode="&#x1e82;" horiz-adv-x="1067" 
d="M724 750l12 -458v-41h2q2 9 4.5 19t5.5 20l132 460h243l-276 -750h-297v459q0 11 1 21h-2q-2 -9 -4.5 -18.5t-5.5 -20.5l-127 -441h-292l-66 750h255v-460q0 -10 -0.5 -20.5t-0.5 -20.5h2q2 9 5 19l6 20l141 462h262zM847 912l-168 -124h-177l67 124h278z" />
    <glyph glyph-name="wacute" unicode="&#x1e83;" horiz-adv-x="939" 
d="M724 797l-147 -147h-168l64 147h251zM922 640q5 -29 7.5 -64t2.5 -70q0 -27 -1 -52.5t-4 -45.5q-10 -72 -35.5 -131t-59 -105.5t-72.5 -80.5t-75.5 -56.5t-68.5 -33.5t-51 -11q-12 0 -30 6.5t-38 22.5t-39.5 41t-34.5 63h-2q-28 -35 -57.5 -60t-57 -41.5t-51 -24.5
t-38.5 -8q-17 0 -48.5 13t-63 46.5t-54.5 90.5t-23 145q0 21 1.5 44t5.5 49l33 233l228 10l-35 -244q-5 -30 -6.5 -53.5t-1.5 -41.5q0 -26 3 -41t7 -23t8 -10.5t7 -2.5q7 0 18.5 9.5t24 32t24 59.5t19.5 93l30 213h227l-33 -235q-5 -29 -6 -52t-1 -41q0 -26 3 -41.5t7 -24
t9 -11t8 -2.5q8 0 25 15t34 52.5t30 100t13 157.5q0 20 -0.5 36t-1.5 29z" />
    <glyph glyph-name="Wdieresis" unicode="&#x1e84;" horiz-adv-x="1067" 
d="M724 750l12 -458v-41h2q2 9 4.5 19t5.5 20l132 460h243l-276 -750h-297v459q0 11 1 21h-2q-2 -9 -4.5 -18.5t-5.5 -20.5l-127 -441h-292l-66 750h255v-460q0 -10 -0.5 -20.5t-0.5 -20.5h2q2 9 5 19l6 20l141 462h262zM512 937q41 0 59 -16t18 -45q0 -93 -98 -93
q-40 0 -60 13t-20 45q0 46 25.5 71t75.5 25zM718 937q42 0 60 -16t18 -45q0 -93 -99 -93q-40 0 -60 13t-20 45q0 46 25.5 71t75.5 25z" />
    <glyph glyph-name="wdieresis" unicode="&#x1e85;" horiz-adv-x="939" 
d="M431 809q42 0 60.5 -16t18.5 -48q0 -99 -102 -99q-39 0 -58.5 13.5t-19.5 45.5q0 104 101 104zM639 809q42 0 60.5 -16t18.5 -48q0 -99 -102 -99q-39 0 -59 14t-20 46q0 103 102 103zM922 640q5 -29 7.5 -64t2.5 -70q0 -27 -1 -52.5t-4 -45.5q-10 -72 -35.5 -131
t-59 -105.5t-72.5 -80.5t-75.5 -56.5t-68.5 -33.5t-51 -11q-12 0 -30 6.5t-38 22.5t-39.5 41t-34.5 63h-2q-28 -35 -57.5 -60t-57 -41.5t-51 -24.5t-38.5 -8q-17 0 -48.5 13t-63 46.5t-54.5 90.5t-23 145q0 21 1.5 44t5.5 49l33 233l228 10l-35 -244q-5 -30 -6.5 -53.5
t-1.5 -41.5q0 -26 3 -41t7 -23t8 -10.5t7 -2.5q7 0 18.5 9.5t24 32t24 59.5t19.5 93l30 213h227l-33 -235q-5 -29 -6 -52t-1 -41q0 -26 3 -41.5t7 -24t9 -11t8 -2.5q8 0 25 15t34 52.5t30 100t13 157.5q0 20 -0.5 36t-1.5 29z" />
    <glyph glyph-name="uni1E8A" unicode="&#x1e8a;" horiz-adv-x="729" 
d="M541 394l140 -394h-276l-48 175q-6 22 -9 40h-2q-3 -8 -8 -18t-10 -18l-98 -179h-282l246 387l-140 363h290l42 -151q2 -10 5 -20.5t5 -19.5h2q7 16 19 36l90 155h278zM445 925q63 0 88.5 -15t25.5 -45q0 -43 -29.5 -65t-105.5 -22q-63 0 -89.5 13.5t-26.5 45.5
q0 44 31 66t106 22z" />
    <glyph glyph-name="uni1E8B" unicode="&#x1e8b;" horiz-adv-x="651" 
d="M-52 0l219 324l-126 286l258 9l39 -130q3 -11 5 -21l5 -18h2l9 18q5 10 10 18l76 130h239l-212 -313l128 -303h-252l-44 137q-7 19 -11 39h-2q-5 -9 -9.5 -18t-9.5 -18l-81 -140h-243zM388 809q58 0 84 -17t26 -51q0 -95 -133 -95q-56 0 -82.5 14.5t-26.5 49.5
q0 49 32 74t100 25z" />
    <glyph glyph-name="uni1E9E" unicode="&#x1e9e;" horiz-adv-x="1164" 
d="M382 763q56 0 114.5 -10t103.5 -28l-52 -187q-48 13 -94.5 20.5t-84.5 7.5q-27 0 -43.5 -3t-25.5 -8.5t-12 -13.5t-3 -17q0 -16 20.5 -26.5t51 -21.5t66 -25t66 -36.5t51 -57t20.5 -85.5q0 -65 -25.5 -118t-71 -90.5t-108 -57.5t-136.5 -20q-66 0 -127.5 13.5
t-110.5 39.5l55 194q51 -25 101.5 -39t104.5 -14q42 0 59.5 10.5t17.5 30.5q0 17 -20.5 28t-51 22t-66 25t-66 37t-51 57.5t-20.5 86.5q0 57 20.5 108.5t62.5 91t105.5 63t149.5 23.5zM958 763q56 0 114.5 -10t103.5 -28l-52 -187q-48 13 -94.5 20.5t-84.5 7.5
q-27 0 -43.5 -3t-25.5 -8.5t-12 -13.5t-3 -17q0 -16 20.5 -26.5t51 -21.5t66 -25t66 -36.5t51 -57t20.5 -85.5q0 -65 -25.5 -118t-71 -90.5t-108 -57.5t-136.5 -20q-66 0 -127.5 13.5t-110.5 39.5l55 194q51 -25 101.5 -39t104.5 -14q42 0 59.5 10.5t17.5 30.5
q0 17 -20.5 28t-51 22t-66 25t-66 37t-51 57.5t-20.5 86.5q0 57 20.5 108.5t62.5 91t105.5 63t149.5 23.5z" />
    <glyph glyph-name="Ygrave" unicode="&#x1ef2;" horiz-adv-x="729" 
d="M318 750l57 -258l8 -40h2q3 9 7.5 18.5t9.5 18.5l127 261h267l-322 -525l-31 -225h-251l31 225l-180 525h275zM355 788l-120 124h259l41 -124h-180z" />
    <glyph glyph-name="ygrave" unicode="&#x1ef3;" horiz-adv-x="625" 
d="M633 616q-29 -141 -80 -262.5t-120.5 -220.5t-156.5 -173.5t-189 -121.5l-74 162q39 20 75.5 46.5t68.5 58.5l-121 498l252 18l34 -235q2 -10 3 -20.5t2 -20.5h2q26 64 47 132.5t35 138.5h222zM299 650l-112 147h251l29 -147h-168z" />
    <glyph glyph-name="uni2007" unicode="&#x2007;" horiz-adv-x="631" 
 />
    <glyph glyph-name="uni2008" unicode="&#x2008;" horiz-adv-x="289" 
 />
    <glyph glyph-name="space.frac" unicode="&#x2009;" horiz-adv-x="41" 
 />
    <glyph glyph-name="uni200B" unicode="&#x200b;" horiz-adv-x="0" 
 />
    <glyph glyph-name="endash" unicode="&#x2013;" horiz-adv-x="498" 
d="M475 419l-21 -152h-436l21 152h436z" />
    <glyph glyph-name="emdash" unicode="&#x2014;" horiz-adv-x="686" 
d="M663 419l-21 -152h-624l21 152h624z" />
    <glyph glyph-name="quoteleft" unicode="&#x2018;" horiz-adv-x="278" 
d="M156 466q-104 0 -104 101q0 35 13 70t35.5 68t53 62.5t64.5 52.5l64 -42q-16 -23 -30.5 -47t-27.5 -50q31 -3 48.5 -22.5t17.5 -53.5q0 -63 -36 -101t-98 -38z" />
    <glyph glyph-name="quoteright" unicode="&#x2019;" horiz-adv-x="278" 
d="M195 775q104 0 104 -101q0 -35 -13.5 -70.5t-36 -68.5t-52.5 -62t-63 -52l-64 42q32 45 56 97q-30 3 -47.5 23t-17.5 55q0 62 36 99.5t98 37.5z" />
    <glyph glyph-name="quotesinglbase" unicode="&#x201a;" horiz-adv-x="278" 
d="M116 207q103 0 103 -100q0 -36 -13 -71t-35.5 -68t-52.5 -62.5t-64 -52.5l-64 42q16 23 30.5 47t25.5 50q-30 3 -47.5 23t-17.5 55q0 62 36.5 99.5t98.5 37.5z" />
    <glyph glyph-name="quotedblleft" unicode="&#x201c;" horiz-adv-x="535" 
d="M156 466q-104 0 -104 101q0 35 13 70t35.5 68t53 62.5t64.5 52.5l64 -42q-16 -23 -30.5 -47t-27.5 -50q31 -3 48.5 -22.5t17.5 -53.5q0 -63 -36 -101t-98 -38zM414 466q-104 0 -104 101q0 35 13 70t35.5 68t53 62.5t64.5 52.5l64 -42q-16 -23 -30.5 -47t-27.5 -50
q31 -3 48.5 -22.5t17.5 -53.5q0 -63 -36 -101t-98 -38z" />
    <glyph glyph-name="quotedblright" unicode="&#x201d;" horiz-adv-x="535" 
d="M195 772q104 0 104 -101q0 -35 -13.5 -70.5t-36 -68.5t-52.5 -62t-64 -52l-64 42q16 23 30.5 47t26.5 50q-30 3 -47.5 22t-17.5 54q0 63 36 101t98 38zM452 772q104 0 104 -101q0 -35 -13.5 -70.5t-36 -68.5t-52.5 -62t-64 -52l-64 42q16 23 30.5 47t26.5 50
q-30 3 -47.5 22t-17.5 54q0 63 36 101t98 38z" />
    <glyph glyph-name="quotedblbase" unicode="&#x201e;" horiz-adv-x="535" 
d="M373 207q103 0 103 -100q0 -36 -13 -71t-35.5 -68t-52.5 -62.5t-64 -52.5l-64 42q16 23 30.5 47t25.5 50q-30 3 -47.5 23t-17.5 55q0 62 36.5 99.5t98.5 37.5zM116 207q103 0 103 -100q0 -36 -13 -71t-35.5 -68t-52.5 -62.5t-64 -52.5l-64 42q16 23 30.5 47t25.5 50
q-30 3 -47.5 23t-17.5 55q0 62 36.5 99.5t98.5 37.5z" />
    <glyph glyph-name="dagger" unicode="&#x2020;" horiz-adv-x="481" 
d="M187 613v166h225l-39 -166l134 14l-27 -190l-130 14l-68 -600h-225l104 600l-138 -14l27 190z" />
    <glyph glyph-name="daggerdbl" unicode="&#x2021;" horiz-adv-x="481" 
d="M420 12l-130 16l-8 -177h-225l44 177l-138 -16l27 190l136 -13l35 262l-138 -14l27 190l137 -14v166h225l-39 -166l134 14l-27 -190l-130 14l-37 -262l134 13z" />
    <glyph glyph-name="bullet" unicode="&#x2022;" horiz-adv-x="422" 
d="M21 322q25 182 207 182q165 0 165 -141q0 -114 -58.5 -169.5t-157.5 -55.5q-159 0 -159 139q0 21 3 45z" />
    <glyph glyph-name="ellipsis" unicode="&#x2026;" horiz-adv-x="837" 
d="M672 209q57 0 82.5 -22.5t25.5 -64.5q0 -61 -33.5 -98t-105.5 -37q-57 0 -83 19t-26 64q0 66 34 102.5t106 36.5zM400 209q57 0 82.5 -22.5t25.5 -64.5q0 -61 -33.5 -98t-105.5 -37q-57 0 -83 19t-26 64q0 66 34 102.5t106 36.5zM124 209q57 0 82.5 -22.5t25.5 -64.5
q0 -61 -33.5 -98t-105.5 -37q-57 0 -83 19t-26 64q0 66 34 102.5t106 36.5z" />
    <glyph glyph-name="perthousand" unicode="&#x2030;" horiz-adv-x="1126" 
d="M238 755q73 0 111 -29.5t38 -98.5q0 -107 -53.5 -164t-145.5 -57q-77 0 -112.5 34t-35.5 100q0 112 51.5 163.5t146.5 51.5zM220 632q-6 0 -11.5 -3t-10 -11.5t-7.5 -23t-3 -38.5q0 -15 5 -20t13 -5q5 0 11 2.5t10.5 10.5t7.5 22.5t3 38.5q0 16 -5 21.5t-13 5.5zM691 599
l-507 -559l-112 97l507 560zM585 341q74 0 112 -32t38 -101q0 -106 -53 -163t-147 -57q-77 0 -112.5 34.5t-35.5 100.5q0 19 3 40q13 91 59.5 134.5t135.5 43.5zM569 214q-6 0 -11.5 -3t-10.5 -11.5t-8 -23t-3 -37.5q0 -17 4.5 -22t13.5 -5q5 0 11 3t10.5 11t7.5 23.5
t3 39.5q0 14 -4.5 19.5t-12.5 5.5zM940 341q73 0 111 -32.5t38 -101.5q0 -106 -52.5 -162.5t-146.5 -56.5q-77 0 -112.5 34.5t-35.5 100.5q0 19 3 40q13 91 59.5 134.5t135.5 43.5zM923 214q-6 0 -11.5 -3t-10.5 -11.5t-8 -23t-3 -37.5q0 -17 4.5 -22t13.5 -5q5 0 11 3
t10.5 11t7.5 23.5t3 39.5q0 14 -4.5 19.5t-12.5 5.5z" />
    <glyph glyph-name="guilsinglleft" unicode="&#x2039;" horiz-adv-x="382" 
d="M220 315l115 -84l-23 -160l-305 237l2 13l372 238l-23 -161z" />
    <glyph glyph-name="guilsinglright" unicode="&#x203a;" horiz-adv-x="382" 
d="M11 231l138 84l-115 83l23 161l306 -238l-2 -13l-373 -237z" />
    <glyph glyph-name="fraction" unicode="&#x2044;" horiz-adv-x="328" 
d="M567 750l-596 -750h-153l594 750h155z" />
    <glyph glyph-name="uni2070" unicode="&#x2070;" 
d="M275 881q84 0 122.5 -36.5t38.5 -112.5q0 -125 -56 -190t-162 -65q-85 0 -123 37t-38 110q0 12 1 25.5t3 27.5q14 105 64.5 154.5t149.5 49.5zM259 768q-10 0 -17.5 -3.5t-13.5 -13t-11 -27.5t-9 -47q-2 -15 -3 -26.5t-1 -20.5q0 -26 8 -33t22 -7q9 0 16 3t13 12t11 26.5
t9 46.5q2 15 3 27.5t1 21.5q0 26 -7 33.5t-21 7.5z" />
    <glyph glyph-name="uni2074" unicode="&#x2074;" 
d="M386 541l-8 -59h-139l8 59h-204v81l211 254h179l-32 -227h34l-18 -108h-31zM278 708q3 21 9 40l-2 1q-6 -8 -12.5 -17t-12.5 -17l-27 -35q-12 -15 -26 -29l1 -2h59z" />
    <glyph glyph-name="uni2075" unicode="&#x2075;" 
d="M412 759h-174l-5 -24q10 1 20 1.5t21 0.5q68 0 105.5 -25.5t37.5 -73.5q0 -34 -12 -63.5t-37.5 -51t-64 -34t-92.5 -12.5q-40 0 -80.5 5.5t-75.5 20.5l36 106q35 -12 61.5 -17.5t61.5 -5.5q32 0 42.5 7t10.5 17q0 9 -11 15t-35 6q-20 0 -44.5 -1t-43.5 -3l-47 44l52 205
h287z" />
    <glyph glyph-name="uni2076" unicode="&#x2076;" 
d="M405 755q-22 7 -43 9.5t-47 2.5q-38 0 -59.5 -8.5t-32.5 -23.5l1 -1q27 9 61 9q67 0 104 -24.5t37 -74.5q0 -42 -15 -73.5t-42 -52.5t-64 -31.5t-80 -10.5q-82 0 -125.5 38.5t-43.5 115.5q0 55 17 101.5t49 80t79.5 52t108.5 18.5q36 0 64.5 -3.5t54.5 -12.5zM246 647
q-6 0 -19.5 -1.5t-17.5 -6.5q-1 -5 -1.5 -9.5t-0.5 -9.5q0 -35 35 -35q14 0 24 10t10 33q0 8 -6.5 13.5t-23.5 5.5z" />
    <glyph glyph-name="uni2077" unicode="&#x2077;" 
d="M438 755l-191 -273h-173l182 237q6 8 12 15t13 15l-1 2h-211l25 125h361z" />
    <glyph glyph-name="uni2078" unicode="&#x2078;" 
d="M218 476q-90 0 -131 29t-41 80q0 26 13 53.5t47 48.5q-9 12 -14 26t-5 33q0 63 45 99.5t143 36.5q83 0 119.5 -27.5t36.5 -70.5q0 -27 -11.5 -49.5t-30.5 -38.5q15 -12 25 -29t10 -43q0 -70 -52.5 -109t-153.5 -39zM275 596q0 13 -18 20t-46 15q-19 -16 -19 -31
q0 -20 44 -20q15 0 27 3t12 13zM260 780q-29 0 -32 -18q0 -12 13 -17.5t38 -10.5q14 11 14 25q0 10 -7 15.5t-26 5.5z" />
    <glyph glyph-name="uni2079" unicode="&#x2079;" 
d="M269 882q87 0 127 -37.5t40 -109.5q0 -65 -17.5 -113.5t-49.5 -81t-77.5 -48.5t-102.5 -16q-48 0 -77 6t-56 15l37 106q24 -9 47 -13.5t52 -4.5q38 0 61.5 10t32.5 36l-2 2q-30 -17 -75 -17q-77 0 -109.5 28.5t-32.5 73.5q0 34 13 64t38.5 52.5t63 35t87.5 12.5zM251 772
q-22 0 -31 -9t-9 -29q0 -12 7 -17t27 -5q28 0 35.5 10.5t7.5 21.5q0 16 -8.5 22t-28.5 6z" />
    <glyph glyph-name="uni207A" unicode="&#x207a;" 
d="M309 618v-100h-128v100h-98v124h98v100h128v-100h99v-124h-99z" />
    <glyph glyph-name="uni207B" unicode="&#x207b;" 
d="M85 626v119h311v-119h-311z" />
    <glyph glyph-name="uni207C" unicode="&#x207c;" 
d="M99 705v103h294v-103h-294zM99 560v102h294v-102h-294z" />
    <glyph glyph-name="uni207D" unicode="&#x207d;" horiz-adv-x="233" 
d="M317 895q-50 -63 -75 -143.5t-25 -162.5q0 -44 8 -83.5t26 -73.5l-97 -11q-37 35 -53.5 82t-16.5 101q0 89 34 168t104 133z" />
    <glyph glyph-name="uni207E" unicode="&#x207e;" horiz-adv-x="233" 
d="M165 905q36 -35 52 -81.5t16 -100.5q0 -89 -33.5 -168.5t-102.5 -133.5l-96 11q51 63 75.5 145.5t24.5 162.5q0 43 -8.5 82.5t-26.5 72.5z" />
    <glyph glyph-name="uni2080" unicode="&#x2080;" 
d="M186 240q84 0 122.5 -36.5t38.5 -112.5q0 -125 -56 -190t-162 -65q-85 0 -123 37t-38 110q0 12 1 25.5t3 27.5q14 105 64.5 154.5t149.5 49.5zM170 127q-10 0 -17.5 -3.5t-13.5 -13t-11 -27.5t-9 -47q-2 -15 -3 -26.5t-1 -20.5q0 -26 8 -33t22 -7q9 0 16 3t13 12t11 26.5
t9 46.5q2 15 3 27.5t1 21.5q0 26 -7 33.5t-21 7.5z" />
    <glyph glyph-name="uni2081" unicode="&#x2081;" horiz-adv-x="300" 
d="M188 -159h-150l26 190q2 10 3.5 20.5t4.5 19.5l-2 2q-18 -12 -36 -19l-43 -20l4 121l153 80h95z" />
    <glyph glyph-name="uni2082" unicode="&#x2082;" horiz-adv-x="397" 
d="M187 241q78 0 113.5 -30.5t35.5 -75.5q0 -30 -11.5 -54.5t-32 -45t-49.5 -38.5t-64 -37v-3h130l-18 -116h-326l12 91q47 35 83.5 61t62 45.5t39 35t13.5 29.5q0 9 -9 15t-30 6q-28 0 -54.5 -8.5t-58.5 -24.5l-19 109q42 20 87 30.5t96 10.5z" />
    <glyph glyph-name="uni2083" unicode="&#x2083;" horiz-adv-x="397" 
d="M173 241q81 0 122.5 -28.5t41.5 -76.5q0 -32 -16.5 -55t-47.5 -39v-2q23 -10 35.5 -26.5t12.5 -40.5q0 -65 -53 -101.5t-157 -36.5q-43 0 -82 9t-65 25l46 103q27 -13 55.5 -20.5t59.5 -7.5q26 0 39 6t13 21q0 5 -3.5 9t-14 6.5t-28.5 4t-46 1.5l13 94q33 0 52.5 2
t29 5.5t12 8t2.5 10.5q0 7 -9 12.5t-35 5.5q-34 0 -63.5 -7t-60.5 -24l-19 101q35 20 79 30.5t87 10.5z" />
    <glyph glyph-name="uni2084" unicode="&#x2084;" 
d="M297 -100l-8 -59h-139l8 59h-204v81l211 254h179l-32 -227h34l-18 -108h-31zM189 67q3 21 9 40l-2 1q-6 -8 -12.5 -17t-12.5 -17l-27 -35q-12 -15 -26 -29l1 -2h59z" />
    <glyph glyph-name="uni2085" unicode="&#x2085;" 
d="M323 118h-174l-5 -24q10 1 20 1.5t21 0.5q68 0 105.5 -25.5t37.5 -73.5q0 -34 -12 -63.5t-37.5 -51t-64 -34t-92.5 -12.5q-40 0 -80.5 5.5t-75.5 20.5l36 106q35 -12 61.5 -17.5t61.5 -5.5q32 0 42.5 7t10.5 17q0 9 -11 15t-35 6q-20 0 -44.5 -1t-43.5 -3l-47 44l52 205
h287z" />
    <glyph glyph-name="uni2086" unicode="&#x2086;" 
d="M316 114q-22 7 -43 9.5t-47 2.5q-38 0 -59.5 -8.5t-32.5 -23.5l1 -1q27 9 61 9q67 0 104 -24.5t37 -74.5q0 -42 -15 -73.5t-42 -52.5t-64 -31.5t-80 -10.5q-82 0 -125.5 38.5t-43.5 115.5q0 55 17 101.5t49 80t79.5 52t108.5 18.5q36 0 64.5 -3.5t54.5 -12.5zM157 6
q-6 0 -19.5 -1.5t-17.5 -6.5q-1 -5 -1.5 -9.5t-0.5 -9.5q0 -35 35 -35q14 0 24 10t10 33q0 8 -6.5 13.5t-23.5 5.5z" />
    <glyph glyph-name="uni2087" unicode="&#x2087;" 
d="M349 114l-191 -273h-173l182 237q6 8 12 15t13 15l-1 2h-211l25 125h361z" />
    <glyph glyph-name="uni2088" unicode="&#x2088;" 
d="M129 -165q-90 0 -131 29t-41 80q0 26 13 53.5t47 48.5q-9 12 -14 26t-5 33q0 63 45 99.5t143 36.5q83 0 119.5 -27.5t36.5 -70.5q0 -27 -11.5 -49.5t-30.5 -38.5q15 -12 25 -29t10 -43q0 -70 -52.5 -109t-153.5 -39zM186 -45q0 13 -18 20t-46 15q-19 -16 -19 -31
q0 -20 44 -20q15 0 27 3t12 13zM171 139q-29 0 -32 -18q0 -12 13 -17.5t38 -10.5q14 11 14 25q0 10 -7 15.5t-26 5.5z" />
    <glyph glyph-name="uni2089" unicode="&#x2089;" 
d="M180 241q87 0 127 -37.5t40 -109.5q0 -65 -17.5 -113.5t-49.5 -81t-77.5 -48.5t-102.5 -16q-48 0 -77 6t-56 15l37 106q24 -9 47 -13.5t52 -4.5q38 0 61.5 10t32.5 36l-2 2q-30 -17 -75 -17q-77 0 -109.5 28.5t-32.5 73.5q0 34 13 64t38.5 52.5t63 35t87.5 12.5zM162 131
q-22 0 -31 -9t-9 -29q0 -12 7 -17t27 -5q28 0 35.5 10.5t7.5 21.5q0 16 -8.5 22t-28.5 6z" />
    <glyph glyph-name="uni208A" unicode="&#x208a;" 
d="M220 -23v-100h-128v100h-98v124h98v100h128v-100h99v-124h-99z" />
    <glyph glyph-name="uni208B" unicode="&#x208b;" 
d="M-4 -15v119h311v-119h-311z" />
    <glyph glyph-name="uni208C" unicode="&#x208c;" 
d="M10 64v103h294v-103h-294zM10 -81v102h294v-102h-294z" />
    <glyph glyph-name="uni208D" unicode="&#x208d;" horiz-adv-x="233" 
d="M228 254q-50 -63 -75 -143.5t-25 -162.5q0 -44 8 -83.5t26 -73.5l-97 -11q-37 35 -53.5 82t-16.5 101q0 89 34 168t104 133z" />
    <glyph glyph-name="uni208E" unicode="&#x208e;" horiz-adv-x="233" 
d="M76 264q36 -35 52 -81.5t16 -100.5q0 -89 -33.5 -168.5t-102.5 -133.5l-96 11q51 63 75.5 145.5t24.5 162.5q0 43 -8.5 82.5t-26.5 72.5z" />
    <glyph glyph-name="franc" unicode="&#x20a3;" horiz-adv-x="631" 
d="M52 221l74 529h530l-25 -199h-288l-12 -83h214l-28 -187h-212l-8 -60h63l-21 -147h-63l-10 -74h-245l10 74h-53l21 147h53z" />
    <glyph glyph-name="lira" unicode="&#x20a4;" horiz-adv-x="631" 
d="M76 493h23q-1 4 -1 8v9q0 48 19.5 94t62 81.5t109 57.5t160.5 22q60 0 101 -7.5t73 -17.5l-53 -190q-26 7 -57.5 12t-63.5 5q-29 0 -49.5 -6t-34 -16t-20.5 -23t-9 -27v-2h228l-16 -110h-198q2 -7 3 -14l2 -14h189l-15 -108h-188q-16 -36 -49 -56l1 -2q35 8 72.5 11.5
t69.5 3.5q42 0 72.5 -3t64.5 -8l-39 -201q-58 8 -117 11t-120 3q-35 0 -68 -0.5t-67 -1.5t-70 -3t-78 -6l15 196q26 2 50.5 16t40.5 40h-60l9 108h60q-2 15 -6 28h-53z" />
    <glyph glyph-name="peseta" unicode="&#x20a7;" horiz-adv-x="631" 
d="M622 419q-13 -53 -38 -93.5t-65.5 -68t-97 -42t-131.5 -14.5h-39l-28 -201h-228l58 419h-28l15 101h28l32 230h267q143 0 207 -51.5t64 -160.5v-18h32l-15 -101h-33zM296 520h106q-2 26 -15.5 35.5t-45.5 9.5h-39zM314 377q29 0 45.5 8t26.5 34h-105l-6 -42h39z" />
    <glyph glyph-name="Euro" unicode="&#x20ac;" horiz-adv-x="631" 
d="M472 246h-130q11 -42 41 -59t77 -17q24 0 50 5.5t49 13.5l-8 -167q-37 -17 -80 -24.5t-103 -7.5q-129 0 -200.5 63t-79.5 193h-78l16 106h65q2 17 4 28h-65l15 111h79q22 58 57 106t81 82.5t103 53.5t122 19q56 0 95.5 -6.5t72.5 -18.5l-71 -183q-14 5 -31.5 7.5
t-36.5 2.5q-51 0 -83.5 -16t-52.5 -47h186l-42 -111h-180q-2 -7 -3 -14t-1 -14h172z" />
    <glyph glyph-name="trademark" unicode="&#x2122;" horiz-adv-x="726" 
d="M611 451l15 108q2 10 4 20.5t5 20.5l-2 1l-68 -150h-95l-27 144h-2q-1 -10 -1.5 -20.5t-2.5 -20.5l-14 -103h-112l42 300h165l17 -111q2 -10 3 -20.5t2 -20.5h2q3 9 7 19t8 19l48 114h160l-42 -300h-112zM250 642l-27 -191h-135l27 191h-70l15 109h273l-15 -109h-68z" />
    <glyph glyph-name="Omega" unicode="&#x2126;" horiz-adv-x="750" 
d="M431 761q71 0 128.5 -15t98 -45.5t62.5 -78t22 -112.5q0 -104 -44.5 -189.5t-131.5 -141.5v-3h132l-24 -176h-332l35 252q16 10 31.5 24t28.5 35.5t23.5 52.5t16.5 76q2 14 3 25.5t1 21.5q0 49 -20.5 65.5t-56.5 16.5q-22 0 -39.5 -5.5t-31 -20t-23 -39.5t-15.5 -64
q-3 -18 -4 -33t-1 -29q0 -27 4 -47t11.5 -35t16.5 -25.5t20 -18.5l-35 -252h-331l24 176h129l1 3q-50 37 -74 90t-24 119q0 93 31 163t84.5 116.5t126.5 70t157 23.5z" />
    <glyph glyph-name="uni2150" unicode="&#x2150;" horiz-adv-x="1030" 
d="M259 356h-150l26 190q2 10 3.5 20.5t4.5 19.5l-2 2q-18 -12 -36 -19l-43 -20l4 121l153 80h95zM867 750l-596 -750h-153l594 750h155zM998 273l-191 -273h-173l182 237q6 8 12 15t13 15l-1 2h-211l25 125h361z" />
    <glyph glyph-name="uni2151" unicode="&#x2151;" horiz-adv-x="1030" 
d="M259 356h-150l26 190q2 10 3.5 20.5t4.5 19.5l-2 2q-18 -12 -36 -19l-43 -20l4 121l153 80h95zM867 750l-596 -750h-153l594 750h155zM829 400q87 0 127 -37.5t40 -109.5q0 -65 -17.5 -113.5t-49.5 -81t-77.5 -48.5t-102.5 -16q-48 0 -77 6t-56 15l37 106q24 -9 47 -13.5
t52 -4.5q38 0 61.5 10t32.5 36l-2 2q-30 -17 -75 -17q-77 0 -109.5 28.5t-32.5 73.5q0 34 13 64t38.5 52.5t63 35t87.5 12.5zM811 290q-22 0 -31 -9t-9 -29q0 -12 7 -17t27 -5q28 0 35.5 10.5t7.5 21.5q0 16 -8.5 22t-28.5 6z" />
    <glyph glyph-name="uni2152" unicode="&#x2152;" horiz-adv-x="1330" 
d="M259 356h-150l26 190q2 10 3.5 20.5t4.5 19.5l-2 2q-18 -12 -36 -19l-43 -20l4 121l153 80h95zM867 750l-596 -750h-153l594 750h155zM837 0h-150l26 190q2 10 3.5 20.5t4.5 19.5l-2 2q-18 -12 -36 -19l-43 -20l4 121l153 80h95zM1135 399q84 0 122.5 -36.5t38.5 -112.5
q0 -125 -56 -190t-162 -65q-85 0 -123 37t-38 110q0 12 1 25.5t3 27.5q14 105 64.5 154.5t149.5 49.5zM1119 286q-10 0 -17.5 -3.5t-13.5 -13t-11 -27.5t-9 -47q-2 -15 -3 -26.5t-1 -20.5q0 -26 8 -33t22 -7q9 0 16 3t13 12t11 26.5t9 46.5q2 15 3 27.5t1 21.5q0 26 -7 33.5
t-21 7.5z" />
    <glyph glyph-name="onethird" unicode="&#x2153;" horiz-adv-x="1025" 
d="M259 356h-150l26 190q2 10 3.5 20.5t4.5 19.5l-2 2q-18 -12 -36 -19l-43 -20l4 121l153 80h95zM867 750l-596 -750h-153l594 750h155zM822 400q81 0 122.5 -28.5t41.5 -76.5q0 -32 -16.5 -55t-47.5 -39v-2q23 -10 35.5 -26.5t12.5 -40.5q0 -65 -53 -101.5t-157 -36.5
q-43 0 -82 9t-65 25l46 103q27 -13 55.5 -20.5t59.5 -7.5q26 0 39 6t13 21q0 5 -3.5 9t-14 6.5t-28.5 4t-46 1.5l13 94q33 0 52.5 2t29 5.5t12 8t2.5 10.5q0 7 -9 12.5t-35 5.5q-34 0 -63.5 -7t-60.5 -24l-19 101q35 20 79 30.5t87 10.5z" />
    <glyph glyph-name="twothirds" unicode="&#x2154;" horiz-adv-x="1122" 
d="M258 756q78 0 113.5 -30.5t35.5 -75.5q0 -30 -11.5 -54.5t-32 -45t-49.5 -38.5t-64 -37v-3h130l-18 -116h-326l12 91q47 35 83.5 61t62 45.5t39 35t13.5 29.5q0 9 -9 15t-30 6q-28 0 -54.5 -8.5t-58.5 -24.5l-19 109q42 20 87 30.5t96 10.5zM964 750l-596 -750h-153
l594 750h155zM919 400q81 0 122.5 -28.5t41.5 -76.5q0 -32 -16.5 -55t-47.5 -39v-2q23 -10 35.5 -26.5t12.5 -40.5q0 -65 -53 -101.5t-157 -36.5q-43 0 -82 9t-65 25l46 103q27 -13 55.5 -20.5t59.5 -7.5q26 0 39 6t13 21q0 5 -3.5 9t-14 6.5t-28.5 4t-46 1.5l13 94
q33 0 52.5 2t29 5.5t12 8t2.5 10.5q0 7 -9 12.5t-35 5.5q-34 0 -63.5 -7t-60.5 -24l-19 101q35 20 79 30.5t87 10.5z" />
    <glyph glyph-name="uni2155" unicode="&#x2155;" horiz-adv-x="1030" 
d="M259 356h-150l26 190q2 10 3.5 20.5t4.5 19.5l-2 2q-18 -12 -36 -19l-43 -20l4 121l153 80h95zM867 750l-596 -750h-153l594 750h155zM972 277h-174l-5 -24q10 1 20 1.5t21 0.5q68 0 105.5 -25.5t37.5 -73.5q0 -34 -12 -63.5t-37.5 -51t-64 -34t-92.5 -12.5
q-40 0 -80.5 5.5t-75.5 20.5l36 106q35 -12 61.5 -17.5t61.5 -5.5q32 0 42.5 7t10.5 17q0 9 -11 15t-35 6q-20 0 -44.5 -1t-43.5 -3l-47 44l52 205h287z" />
    <glyph glyph-name="uni2156" unicode="&#x2156;" horiz-adv-x="1127" 
d="M258 756q78 0 113.5 -30.5t35.5 -75.5q0 -30 -11.5 -54.5t-32 -45t-49.5 -38.5t-64 -37v-3h130l-18 -116h-326l12 91q47 35 83.5 61t62 45.5t39 35t13.5 29.5q0 9 -9 15t-30 6q-28 0 -54.5 -8.5t-58.5 -24.5l-19 109q42 20 87 30.5t96 10.5zM964 750l-596 -750h-153
l594 750h155zM1069 277h-174l-5 -24q10 1 20 1.5t21 0.5q68 0 105.5 -25.5t37.5 -73.5q0 -34 -12 -63.5t-37.5 -51t-64 -34t-92.5 -12.5q-40 0 -80.5 5.5t-75.5 20.5l36 106q35 -12 61.5 -17.5t61.5 -5.5q32 0 42.5 7t10.5 17q0 9 -11 15t-35 6q-20 0 -44.5 -1t-43.5 -3
l-47 44l52 205h287z" />
    <glyph glyph-name="uni2157" unicode="&#x2157;" horiz-adv-x="1127" 
d="M244 756q81 0 122.5 -28.5t41.5 -76.5q0 -32 -16.5 -55t-47.5 -39v-2q23 -10 35.5 -26.5t12.5 -40.5q0 -65 -53 -101.5t-157 -36.5q-43 0 -82 9t-65 25l46 103q27 -13 55.5 -20.5t59.5 -7.5q26 0 39 6t13 21q0 5 -3.5 9t-14 6.5t-28.5 4t-46 1.5l13 94q33 0 52.5 2
t29 5.5t12 8t2.5 10.5q0 7 -9 12.5t-35 5.5q-34 0 -63.5 -7t-60.5 -24l-19 101q35 20 79 30.5t87 10.5zM964 750l-596 -750h-153l594 750h155zM1069 277h-174l-5 -24q10 1 20 1.5t21 0.5q68 0 105.5 -25.5t37.5 -73.5q0 -34 -12 -63.5t-37.5 -51t-64 -34t-92.5 -12.5
q-40 0 -80.5 5.5t-75.5 20.5l36 106q35 -12 61.5 -17.5t61.5 -5.5q32 0 42.5 7t10.5 17q0 9 -11 15t-35 6q-20 0 -44.5 -1t-43.5 -3l-47 44l52 205h287z" />
    <glyph glyph-name="uni2158" unicode="&#x2158;" horiz-adv-x="1132" 
d="M368 415l-8 -59h-139l8 59h-204v81l211 254h179l-32 -227h34l-18 -108h-31zM260 582q3 21 9 40l-2 1q-6 -8 -12.5 -17t-12.5 -17l-27 -35q-12 -15 -26 -29l1 -2h59zM969 750l-596 -750h-153l594 750h155zM1074 277h-174l-5 -24q10 1 20 1.5t21 0.5q68 0 105.5 -25.5
t37.5 -73.5q0 -34 -12 -63.5t-37.5 -51t-64 -34t-92.5 -12.5q-40 0 -80.5 5.5t-75.5 20.5l36 106q35 -12 61.5 -17.5t61.5 -5.5q32 0 42.5 7t10.5 17q0 9 -11 15t-35 6q-20 0 -44.5 -1t-43.5 -3l-47 44l52 205h287z" />
    <glyph glyph-name="uni2159" unicode="&#x2159;" horiz-adv-x="1030" 
d="M259 356h-150l26 190q2 10 3.5 20.5t4.5 19.5l-2 2q-18 -12 -36 -19l-43 -20l4 121l153 80h95zM867 750l-596 -750h-153l594 750h155zM965 273q-22 7 -43 9.5t-47 2.5q-38 0 -59.5 -8.5t-32.5 -23.5l1 -1q27 9 61 9q67 0 104 -24.5t37 -74.5q0 -42 -15 -73.5t-42 -52.5
t-64 -31.5t-80 -10.5q-82 0 -125.5 38.5t-43.5 115.5q0 55 17 101.5t49 80t79.5 52t108.5 18.5q36 0 64.5 -3.5t54.5 -12.5zM806 165q-6 0 -19.5 -1.5t-17.5 -6.5q-1 -5 -1.5 -9.5t-0.5 -9.5q0 -35 35 -35q14 0 24 10t10 33q0 8 -6.5 13.5t-23.5 5.5z" />
    <glyph glyph-name="uni215A" unicode="&#x215a;" horiz-adv-x="1132" 
d="M394 633h-174l-5 -24q10 1 20 1.5t21 0.5q68 0 105.5 -25.5t37.5 -73.5q0 -34 -12 -63.5t-37.5 -51t-64 -34t-92.5 -12.5q-40 0 -80.5 5.5t-75.5 20.5l36 106q35 -12 61.5 -17.5t61.5 -5.5q32 0 42.5 7t10.5 17q0 9 -11 15t-35 6q-20 0 -44.5 -1t-43.5 -3l-47 44l52 205
h287zM969 750l-596 -750h-153l594 750h155zM1067 273q-22 7 -43 9.5t-47 2.5q-38 0 -59.5 -8.5t-32.5 -23.5l1 -1q27 9 61 9q67 0 104 -24.5t37 -74.5q0 -42 -15 -73.5t-42 -52.5t-64 -31.5t-80 -10.5q-82 0 -125.5 38.5t-43.5 115.5q0 55 17 101.5t49 80t79.5 52
t108.5 18.5q36 0 64.5 -3.5t54.5 -12.5zM908 165q-6 0 -19.5 -1.5t-17.5 -6.5q-1 -5 -1.5 -9.5t-0.5 -9.5q0 -35 35 -35q14 0 24 10t10 33q0 8 -6.5 13.5t-23.5 5.5z" />
    <glyph glyph-name="oneeighth" unicode="&#x215b;" horiz-adv-x="1030" 
d="M259 356h-150l26 190q2 10 3.5 20.5t4.5 19.5l-2 2q-18 -12 -36 -19l-43 -20l4 121l153 80h95zM867 750l-596 -750h-153l594 750h155zM778 -6q-90 0 -131 29t-41 80q0 26 13 53.5t47 48.5q-9 12 -14 26t-5 33q0 63 45 99.5t143 36.5q83 0 119.5 -27.5t36.5 -70.5
q0 -27 -11.5 -49.5t-30.5 -38.5q15 -12 25 -29t10 -43q0 -70 -52.5 -109t-153.5 -39zM835 114q0 13 -18 20t-46 15q-19 -16 -19 -31q0 -20 44 -20q15 0 27 3t12 13zM820 298q-29 0 -32 -18q0 -12 13 -17.5t38 -10.5q14 11 14 25q0 10 -7 15.5t-26 5.5z" />
    <glyph glyph-name="threeeighths" unicode="&#x215c;" horiz-adv-x="1127" 
d="M244 756q81 0 122.5 -28.5t41.5 -76.5q0 -32 -16.5 -55t-47.5 -39v-2q23 -10 35.5 -26.5t12.5 -40.5q0 -65 -53 -101.5t-157 -36.5q-43 0 -82 9t-65 25l46 103q27 -13 55.5 -20.5t59.5 -7.5q26 0 39 6t13 21q0 5 -3.5 9t-14 6.5t-28.5 4t-46 1.5l13 94q33 0 52.5 2
t29 5.5t12 8t2.5 10.5q0 7 -9 12.5t-35 5.5q-34 0 -63.5 -7t-60.5 -24l-19 101q35 20 79 30.5t87 10.5zM964 750l-596 -750h-153l594 750h155zM875 -6q-90 0 -131 29t-41 80q0 26 13 53.5t47 48.5q-9 12 -14 26t-5 33q0 63 45 99.5t143 36.5q83 0 119.5 -27.5t36.5 -70.5
q0 -27 -11.5 -49.5t-30.5 -38.5q15 -12 25 -29t10 -43q0 -70 -52.5 -109t-153.5 -39zM932 114q0 13 -18 20t-46 15q-19 -16 -19 -31q0 -20 44 -20q15 0 27 3t12 13zM917 298q-29 0 -32 -18q0 -12 13 -17.5t38 -10.5q14 11 14 25q0 10 -7 15.5t-26 5.5z" />
    <glyph glyph-name="fiveeighths" unicode="&#x215d;" horiz-adv-x="1132" 
d="M394 633h-174l-5 -24q10 1 20 1.5t21 0.5q68 0 105.5 -25.5t37.5 -73.5q0 -34 -12 -63.5t-37.5 -51t-64 -34t-92.5 -12.5q-40 0 -80.5 5.5t-75.5 20.5l36 106q35 -12 61.5 -17.5t61.5 -5.5q32 0 42.5 7t10.5 17q0 9 -11 15t-35 6q-20 0 -44.5 -1t-43.5 -3l-47 44l52 205
h287zM969 750l-596 -750h-153l594 750h155zM880 -6q-90 0 -131 29t-41 80q0 26 13 53.5t47 48.5q-9 12 -14 26t-5 33q0 63 45 99.5t143 36.5q83 0 119.5 -27.5t36.5 -70.5q0 -27 -11.5 -49.5t-30.5 -38.5q15 -12 25 -29t10 -43q0 -70 -52.5 -109t-153.5 -39zM937 114
q0 13 -18 20t-46 15q-19 -16 -19 -31q0 -20 44 -20q15 0 27 3t12 13zM922 298q-29 0 -32 -18q0 -12 13 -17.5t38 -10.5q14 11 14 25q0 10 -7 15.5t-26 5.5z" />
    <glyph glyph-name="seveneighths" unicode="&#x215e;" horiz-adv-x="1132" 
d="M420 629l-191 -273h-173l182 237q6 8 12 15t13 15l-1 2h-211l25 125h361zM969 750l-596 -750h-153l594 750h155zM880 -6q-90 0 -131 29t-41 80q0 26 13 53.5t47 48.5q-9 12 -14 26t-5 33q0 63 45 99.5t143 36.5q83 0 119.5 -27.5t36.5 -70.5q0 -27 -11.5 -49.5
t-30.5 -38.5q15 -12 25 -29t10 -43q0 -70 -52.5 -109t-153.5 -39zM937 114q0 13 -18 20t-46 15q-19 -16 -19 -31q0 -20 44 -20q15 0 27 3t12 13zM922 298q-29 0 -32 -18q0 -12 13 -17.5t38 -10.5q14 11 14 25q0 10 -7 15.5t-26 5.5z" />
    <glyph glyph-name="uni215F" unicode="&#x215f;" horiz-adv-x="628" 
d="M259 356h-150l26 190q2 10 3.5 20.5t4.5 19.5l-2 2q-18 -12 -36 -19l-43 -20l4 121l153 80h95zM867 750l-596 -750h-153l594 750h155z" />
    <glyph glyph-name="uni2189" unicode="&#x2189;" horiz-adv-x="1028" 
d="M257 755q84 0 122.5 -36.5t38.5 -112.5q0 -125 -56 -190t-162 -65q-85 0 -123 37t-38 110q0 12 1 25.5t3 27.5q14 105 64.5 154.5t149.5 49.5zM241 642q-10 0 -17.5 -3.5t-13.5 -13t-11 -27.5t-9 -47q-2 -15 -3 -26.5t-1 -20.5q0 -26 8 -33t22 -7q9 0 16 3t13 12t11 26.5
t9 46.5q2 15 3 27.5t1 21.5q0 26 -7 33.5t-21 7.5zM870 750l-596 -750h-153l594 750h155zM825 400q81 0 122.5 -28.5t41.5 -76.5q0 -32 -16.5 -55t-47.5 -39v-2q23 -10 35.5 -26.5t12.5 -40.5q0 -65 -53 -101.5t-157 -36.5q-43 0 -82 9t-65 25l46 103q27 -13 55.5 -20.5
t59.5 -7.5q26 0 39 6t13 21q0 5 -3.5 9t-14 6.5t-28.5 4t-46 1.5l13 94q33 0 52.5 2t29 5.5t12 8t2.5 10.5q0 7 -9 12.5t-35 5.5q-34 0 -63.5 -7t-60.5 -24l-19 101q35 20 79 30.5t87 10.5z" />
    <glyph glyph-name="partialdiff" unicode="&#x2202;" horiz-adv-x="649" 
d="M319 533q55 0 102 -25l2 1q-7 35 -33.5 53.5t-80.5 18.5q-51 0 -95 -10.5t-92 -31.5l-32 150q32 17 63 30.5t64 22.5t71 13.5t84 4.5q43 0 91 -14.5t87.5 -48t65.5 -88.5t26 -136q0 -35 -6 -75q-13 -93 -43.5 -169t-81 -130t-121 -83.5t-162.5 -29.5q-115 0 -173 50.5
t-58 146.5q0 12 1 25t3 27q10 75 37.5 131t68.5 93t95 55.5t117 18.5zM382 313q1 3 1 6v7q0 20 -11 33t-37 13q-38 0 -66.5 -37t-39.5 -121q-1 -4 -1 -8v-6q0 -48 51 -48q36 0 64 40t39 121z" />
    <glyph glyph-name="Delta" unicode="&#x2206;" horiz-adv-x="728" 
d="M665 0h-704l377 753h161zM374 456q-4 -9 -7 -17.5t-8 -19.5l-109 -242h168l-37 238q-5 28 -5 41h-2z" />
    <glyph glyph-name="product" unicode="&#x220f;" horiz-adv-x="762" 
d="M112 -168v758l-91 12l-5 148h730l-3 -148l-91 -12v-758h-216v742h-107v-742h-217z" />
    <glyph glyph-name="summation" unicode="&#x2211;" horiz-adv-x="689" 
d="M393 70l-55 -56l1 -3h327l-4 -179h-623v117l304 352l-304 317v132h610l4 -183h-300l-1 -2l56 -56l179 -186v-45z" />
    <glyph glyph-name="minus" unicode="&#x2212;" horiz-adv-x="607" 
d="M42 236l27 193h489l-27 -193h-489z" />
    <glyph glyph-name="uni2219" unicode="&#x2219;" horiz-adv-x="607" 
d="M119 322q25 182 207 182q165 0 165 -141q0 -114 -58.5 -169.5t-157.5 -55.5q-159 0 -159 139q0 21 3 45z" />
    <glyph glyph-name="radical" unicode="&#x221a;" horiz-adv-x="650" 
d="M24 516h234l30 -224q2 -12 3 -22t1 -19h2q3 9 6 19t7 19l186 486h238l-334 -775h-268l-63 325h-68z" />
    <glyph glyph-name="infinity" unicode="&#x221e;" horiz-adv-x="795" 
d="M552 129q-49 0 -85.5 12.5t-65.5 37.5q-25 -22 -62 -36t-93 -14q-45 0 -85 14t-69 41t-46 66t-17 90q0 47 13 86t39.5 67t66.5 43.5t94 15.5q49 0 85.5 -13t65.5 -38q25 23 62 37t93 14q45 0 85 -14t69 -41t46 -66t17 -90q0 -47 -13 -86t-39.5 -67t-66.5 -43.5t-94 -15.5
zM255 305q22 0 34.5 17.5t23.5 44.5q-10 8 -22.5 14.5t-31.5 6.5q-21 0 -32.5 -12t-11.5 -32q0 -21 12 -30t28 -9zM540 376q-22 0 -35 -18t-24 -44q10 -9 23 -15t32 -6q21 0 32 12.5t11 32.5t-12 29t-27 9z" />
    <glyph glyph-name="integral" unicode="&#x222b;" horiz-adv-x="343" 
d="M286 40q0 -59 -16 -100t-49.5 -67t-85.5 -37.5t-124 -11.5l-5 138q23 0 36.5 14t13.5 56v566q0 103 65.5 152t210.5 49l5 -137q-24 0 -36.5 -14t-12.5 -50z" />
    <glyph glyph-name="approxequal" unicode="&#x2248;" horiz-adv-x="631" 
d="M425 331q-33 0 -62 6t-55.5 12.5t-52 12.5t-51.5 6q-32 0 -62.5 -6.5t-58.5 -20.5v162q29 13 59 20t62 7q33 0 62.5 -6t56 -12.5t51.5 -12.5t51 -6q34 0 63.5 7t57.5 20v-162q-29 -14 -58 -20.5t-63 -6.5zM425 107q-33 0 -62 6t-55.5 12.5t-52 12.5t-51.5 6
q-32 0 -62.5 -6.5t-58.5 -20.5v162q29 13 59 20t62 7q33 0 62.5 -6t56 -12.5t51.5 -12.5t51 -6q34 0 63.5 7t57.5 20v-162q-29 -14 -58 -20.5t-63 -6.5z" />
    <glyph glyph-name="notequal" unicode="&#x2260;" horiz-adv-x="631" 
d="M516 564l-24 -51h54v-162h-130l-29 -63h159v-162h-235l-55 -118l-140 65l24 53h-57v162h133l29 63h-162v162h237l55 117z" />
    <glyph glyph-name="lessequal" unicode="&#x2264;" horiz-adv-x="631" 
d="M302 442q-10 -2 -20.5 -3t-20.5 -2v-2q10 0 20.5 -1.5t20.5 -2.5l256 -35v-197l-488 136v208l488 136v-201zM73 18v169h485v-169h-485z" />
    <glyph glyph-name="greaterequal" unicode="&#x2265;" horiz-adv-x="631" 
d="M70 396l256 35q10 1 20.5 2.5t20.5 1.5v2q-10 1 -20.5 2t-20.5 3l-256 36v201l488 -136v-208l-488 -136v197zM70 18v169h485v-169h-485z" />
    <glyph glyph-name="dotmath" unicode="&#x22c5;" horiz-adv-x="607" 
d="M319 458q57 0 82.5 -22.5t25.5 -64.5q0 -61 -33.5 -98t-105.5 -37q-57 0 -83 19t-26 64q0 66 34 102.5t106 36.5z" />
    <glyph glyph-name="lozenge" unicode="&#x25ca;" horiz-adv-x="641" 
d="M320 708l305 -353l-305 -353l-304 353zM320 444l-76 -88l76 -86l75 86z" />
    <glyph glyph-name="orn001" unicode="&#xea01;" horiz-adv-x="700" 
d="M360 -15q-29 0 -60 17.5t-59 41.5t-51 48.5t-36 38.5q-23 24 -43 63t-34 86.5t-22 98.5t-8 99q0 62 16 115t52.5 91.5t96.5 60.5t148 22q87 0 147.5 -22t97.5 -60.5t53.5 -91.5t16.5 -115q0 -48 -8 -99.5t-22.5 -98.5t-34.5 -86t-43 -63q-14 -14 -37.5 -38.5t-51.5 -48.5
t-59 -41.5t-59 -17.5zM361 67q19 0 39.5 12t39 27.5t34.5 31.5t26 24q13 13 26 39.5t22.5 59t15.5 68.5t6 70q0 39 -8 64.5t-31 41t-63.5 22t-104.5 6.5q-68 0 -109 -6t-63.5 -21t-30 -41t-7.5 -66q0 -34 5.5 -70t14.5 -68.5t21.5 -59t26.5 -39.5q10 -8 26 -24t35.5 -31.5
t40 -27.5t38.5 -12zM471 168q-48 9 -104 9t-110 -9q-20 22 -33.5 55t-15.5 69q78 -23 153 -23q78 0 155 23q-2 -37 -13 -69t-32 -55zM313 309q-37 3 -70.5 12.5t-59.5 23.5q-1 6 -1.5 12.5t-0.5 12.5q0 33 10.5 61t31.5 42q29 -35 59.5 -58.5t66.5 -43.5zM379 371
q36 20 67 43.5t60 58.5q20 -14 30 -43.5t10 -64.5q0 -5 -0.5 -10t-0.5 -10q-26 -14 -60.5 -23.5t-70.5 -12.5z" />
    <glyph glyph-name="fi" unicode="&#xfb01;" horiz-adv-x="706" 
d="M54 604h50q7 46 27 84t60.5 65t105 42t161.5 15l-8 -159q-40 0 -63 -2.5t-35 -8t-16 -14.5t-6 -22h139q64 0 117 4t112 12l-87 -620h-226l63 450h-139l-63 -450h-226l63 450h-57zM608 809q58 0 84 -17t26 -51q0 -95 -133 -95q-56 0 -82.5 14.5t-26.5 49.5q0 49 32 74
t100 25z" />
    <glyph glyph-name="fl" unicode="&#xfb02;" horiz-adv-x="687" 
d="M54 604h50q7 46 28.5 83.5t63 63.5t106 40.5t159.5 14.5q61 0 124.5 -6t117.5 -15l-110 -785h-227l92 655h-11q-36 0 -58 -3t-34.5 -9.5t-17.5 -16t-7 -22.5h84l-27 -154h-78l-63 -450h-226l63 450h-57z" />
    <glyph glyph-name="uniFEFF" unicode="&#xfeff;" horiz-adv-x="0" 
 />
    <glyph glyph-name="afii57929" horiz-adv-x="278" 
d="M195 775q104 0 104 -101q0 -35 -13.5 -70.5t-36 -68.5t-52.5 -62t-63 -52l-64 42q32 45 56 97q-30 3 -47.5 23t-17.5 55q0 62 36 99.5t98 37.5z" />
    <glyph glyph-name="product.alt001" horiz-adv-x="762" 
d="M39 -167l107 759l-90 12l16 146h727l-23 -145l-92 -12l-107 -760h-213l105 744h-112l-105 -744h-213z" />
    <glyph glyph-name="summation.alt001" horiz-adv-x="690" 
d="M316 36q-8 -7 -14.5 -13t-14.5 -11v-3h330l-29 -176h-622l16 115l356 354l-261 319l18 129h609l-21 -180h-304l-1 -2q7 -8 13.5 -14.5t12.5 -14.5l176 -216l-6 -44z" />
    <glyph glyph-name="infinity.alt001" horiz-adv-x="793" 
d="M268 551q49 0 84 -13t60 -38q29 23 68 37t95 14q41 0 75.5 -11.5t59.5 -33t39 -54t14 -74.5q0 -54 -16.5 -99.5t-48 -78.5t-77 -51.5t-102.5 -18.5q-49 0 -84 13t-59 38q-29 -23 -68 -37t-95 -14q-41 0 -75.5 11.5t-60 33.5t-40 54.5t-14.5 74.5q0 54 17 99.5t48.5 78
t77 51t102.5 18.5zM542 378q-23 0 -38 -18.5t-32 -46.5q10 -9 22 -15.5t32 -6.5q23 0 37 15t14 41q0 17 -10 24t-25 7zM246 303q23 0 38 18t30 46q-8 10 -20 16.5t-32 6.5q-23 0 -37.5 -15t-14.5 -39q0 -17 10.5 -25t25.5 -8z" />
    <glyph glyph-name="integral.alt001" horiz-adv-x="342" 
d="M239 39q-9 -58 -30.5 -99t-58.5 -66.5t-89.5 -37.5t-123.5 -12l13 136q25 0 40.5 15t21.5 57l80 567q14 102 86 151t215 49l-14 -135q-25 0 -39.5 -14.5t-19.5 -50.5z" />
    <glyph glyph-name="lozenge.alt001" horiz-adv-x="640" 
d="M369 706l254 -352l-353 -352l-255 352zM331 446l-91 -91l66 -89l90 89z" />
    <glyph glyph-name="i.latn_TRK" horiz-adv-x="317" 
d="M-4 0l85 610l233 10l-87 -620h-231zM224 809q58 0 84 -17t26 -51q0 -95 -133 -95q-56 0 -82.5 14.5t-26.5 49.5q0 49 32 74t100 25z" />
    <glyph glyph-name="Ldot.latn_CAT" horiz-adv-x="562" 
d="M528 198l-32 -198h-504l105 750h247l-78 -552h262zM468 508q49 0 71 -19.5t22 -55.5q0 -51 -29.5 -82.5t-90.5 -31.5q-48 0 -70 15.5t-22 53.5q0 57 28.5 88.5t90.5 31.5z" />
    <glyph glyph-name="ldot.latn_CAT" horiz-adv-x="471" 
d="M-3 0l107 768l228 10l-109 -778h-226zM414 497q44 0 63 -17t19 -49q0 -48 -25.5 -76t-80.5 -28q-44 0 -63.5 14.5t-19.5 49.5q0 51 26 78.5t81 27.5z" />
    <glyph glyph-name="dollar.subs" horiz-adv-x="354" 
d="M264 298l-18 -71q15 -2 29.5 -5.5t28.5 -7.5l-30 -106q-29 7 -51.5 11t-45.5 4q-32 0 -40 -3.5t-9 -11.5q0 -7 11.5 -10t29 -6t38 -8t38 -15.5t29 -28t11.5 -46.5q0 -55 -32.5 -93t-90.5 -51l-14 -57h-112l11 54q-49 8 -88 27l32 108q32 -15 56 -23t57 -8q42 0 43 13
q0 6 -11.5 9t-29 6.5t-38 9t-38 17t-29 29.5t-11.5 46q0 25 8.5 49.5t26 44t44.5 34t65 20.5l18 69h112z" />
    <glyph glyph-name="comma.subs" horiz-adv-x="190" 
d="M36 -35q36 0 52 -17t16 -41q0 -18 -8.5 -38.5t-21.5 -41t-29 -38.5t-31 -31l-49 12q8 14 18 31t18 34q-25 2 -36.5 16.5t-11.5 35.5q0 13 4.5 27t14.5 25t26 18.5t38 7.5z" />
    <glyph glyph-name="period.subs" horiz-adv-x="190" 
d="M109 -100q-5 -32 -24.5 -49.5t-61.5 -17.5q-37 0 -53.5 11t-16.5 38q0 43 21 64.5t68 21.5q36 0 52 -13.5t16 -39.5q0 -10 -1 -15z" />
    <glyph glyph-name="cent.subs" horiz-adv-x="354" 
d="M293 106q-15 4 -32 6.5t-32 2.5q-54 0 -75.5 -20t-21.5 -68q0 -30 19 -45t54 -15q20 0 38 3.5t35 6.5l-5 -100q-26 -14 -71 -20l-15 -64h-116l15 69q-55 14 -83 50t-28 92q0 89 47.5 150t141.5 75l18 69h116l-18 -73q10 -2 19 -4t16 -5z" />
    <glyph glyph-name="dollar.sups" horiz-adv-x="354" 
d="M352 939l-18 -71q15 -2 29.5 -5.5t28.5 -7.5l-30 -106q-29 7 -51.5 11t-45.5 4q-32 0 -40 -3.5t-9 -11.5q0 -7 11.5 -10t29 -6t38 -8t38 -15.5t29 -28t11.5 -46.5q0 -55 -32.5 -93t-90.5 -51l-14 -57h-112l11 54q-49 8 -88 27l32 108q32 -15 56 -23t57 -8q42 0 43 13
q0 6 -11.5 9t-29 6.5t-38 9t-38 17t-29 29.5t-11.5 46q0 25 8.5 49.5t26 44t44.5 34t65 20.5l18 69h112z" />
    <glyph glyph-name="comma.sups" horiz-adv-x="190" 
d="M124 606q36 0 52 -17t16 -41q0 -18 -8.5 -38.5t-21.5 -41t-29 -38.5t-31 -31l-49 12q8 14 18 31t18 34q-25 2 -36.5 16.5t-11.5 35.5q0 13 4.5 27t14.5 25t26 18.5t38 7.5z" />
    <glyph glyph-name="period.sups" horiz-adv-x="190" 
d="M197 541q-5 -32 -24.5 -49.5t-61.5 -17.5q-37 0 -53.5 11t-16.5 38q0 43 21 64.5t68 21.5q36 0 52 -13.5t16 -39.5q0 -10 -1 -15z" />
    <glyph glyph-name="cent.sups" horiz-adv-x="354" 
d="M381 747q-15 4 -32 6.5t-32 2.5q-54 0 -75.5 -20t-21.5 -68q0 -30 19 -45t54 -15q20 0 38 3.5t35 6.5l-5 -100q-26 -14 -71 -20l-15 -64h-116l15 69q-55 14 -83 50t-28 92q0 89 47.5 150t141.5 75l18 69h116l-18 -73q10 -2 19 -4t16 -5z" />
    <glyph glyph-name="dollar.numr" horiz-adv-x="354" 
d="M335 813l-18 -71q15 -2 29.5 -5.5t28.5 -7.5l-30 -106q-29 7 -51.5 11t-45.5 4q-32 0 -40 -3.5t-9 -11.5q0 -7 11.5 -10t29 -6t38 -8t38 -15.5t29 -28t11.5 -46.5q0 -55 -32.5 -93t-90.5 -51l-14 -57h-112l11 54q-49 8 -88 27l32 108q32 -15 56 -23t57 -8q42 0 43 13
q0 6 -11.5 9t-29 6.5t-38 9t-38 17t-29 29.5t-11.5 46q0 25 8.5 49.5t26 44t44.5 34t65 20.5l18 69h112z" />
    <glyph glyph-name="parenleft.numr" horiz-adv-x="233" 
d="M299 769q-50 -63 -75 -143.5t-25 -162.5q0 -44 8 -83.5t26 -73.5l-97 -11q-37 35 -53.5 82t-16.5 101q0 89 34 168t104 133z" />
    <glyph glyph-name="parenright.numr" horiz-adv-x="233" 
d="M147 779q36 -35 52 -81.5t16 -100.5q0 -89 -33.5 -168.5t-102.5 -133.5l-96 11q51 63 75.5 145.5t24.5 162.5q0 43 -8.5 82.5t-26.5 72.5z" />
    <glyph glyph-name="plus.numr" 
d="M291 492v-100h-128v100h-98v124h98v100h128v-100h99v-124h-99z" />
    <glyph glyph-name="comma.numr" horiz-adv-x="190" 
d="M107 480q36 0 52 -17t16 -41q0 -18 -8.5 -38.5t-21.5 -41t-29 -38.5t-31 -31l-49 12q8 14 18 31t18 34q-25 2 -36.5 16.5t-11.5 35.5q0 13 4.5 27t14.5 25t26 18.5t38 7.5z" />
    <glyph glyph-name="period.numr" horiz-adv-x="190" 
d="M180 415q-5 -32 -24.5 -49.5t-61.5 -17.5q-37 0 -53.5 11t-16.5 38q0 43 21 64.5t68 21.5q36 0 52 -13.5t16 -39.5q0 -10 -1 -15z" />
    <glyph glyph-name="zero.numr" 
d="M257 755q84 0 122.5 -36.5t38.5 -112.5q0 -125 -56 -190t-162 -65q-85 0 -123 37t-38 110q0 12 1 25.5t3 27.5q14 105 64.5 154.5t149.5 49.5zM241 642q-10 0 -17.5 -3.5t-13.5 -13t-11 -27.5t-9 -47q-2 -15 -3 -26.5t-1 -20.5q0 -26 8 -33t22 -7q9 0 16 3t13 12t11 26.5
t9 46.5q2 15 3 27.5t1 21.5q0 26 -7 33.5t-21 7.5z" />
    <glyph glyph-name="one.numr" horiz-adv-x="300" 
d="M259 356h-150l26 190q2 10 3.5 20.5t4.5 19.5l-2 2q-18 -12 -36 -19l-43 -20l4 121l153 80h95z" />
    <glyph glyph-name="two.numr" horiz-adv-x="397" 
d="M258 756q78 0 113.5 -30.5t35.5 -75.5q0 -30 -11.5 -54.5t-32 -45t-49.5 -38.5t-64 -37v-3h130l-18 -116h-326l12 91q47 35 83.5 61t62 45.5t39 35t13.5 29.5q0 9 -9 15t-30 6q-28 0 -54.5 -8.5t-58.5 -24.5l-19 109q42 20 87 30.5t96 10.5z" />
    <glyph glyph-name="three.numr" horiz-adv-x="397" 
d="M244 756q81 0 122.5 -28.5t41.5 -76.5q0 -32 -16.5 -55t-47.5 -39v-2q23 -10 35.5 -26.5t12.5 -40.5q0 -65 -53 -101.5t-157 -36.5q-43 0 -82 9t-65 25l46 103q27 -13 55.5 -20.5t59.5 -7.5q26 0 39 6t13 21q0 5 -3.5 9t-14 6.5t-28.5 4t-46 1.5l13 94q33 0 52.5 2
t29 5.5t12 8t2.5 10.5q0 7 -9 12.5t-35 5.5q-34 0 -63.5 -7t-60.5 -24l-19 101q35 20 79 30.5t87 10.5z" />
    <glyph glyph-name="four.numr" 
d="M368 415l-8 -59h-139l8 59h-204v81l211 254h179l-32 -227h34l-18 -108h-31zM260 582q3 21 9 40l-2 1q-6 -8 -12.5 -17t-12.5 -17l-27 -35q-12 -15 -26 -29l1 -2h59z" />
    <glyph glyph-name="five.numr" 
d="M394 633h-174l-5 -24q10 1 20 1.5t21 0.5q68 0 105.5 -25.5t37.5 -73.5q0 -34 -12 -63.5t-37.5 -51t-64 -34t-92.5 -12.5q-40 0 -80.5 5.5t-75.5 20.5l36 106q35 -12 61.5 -17.5t61.5 -5.5q32 0 42.5 7t10.5 17q0 9 -11 15t-35 6q-20 0 -44.5 -1t-43.5 -3l-47 44l52 205
h287z" />
    <glyph glyph-name="six.numr" 
d="M387 629q-22 7 -43 9.5t-47 2.5q-38 0 -59.5 -8.5t-32.5 -23.5l1 -1q27 9 61 9q67 0 104 -24.5t37 -74.5q0 -42 -15 -73.5t-42 -52.5t-64 -31.5t-80 -10.5q-82 0 -125.5 38.5t-43.5 115.5q0 55 17 101.5t49 80t79.5 52t108.5 18.5q36 0 64.5 -3.5t54.5 -12.5zM228 521
q-6 0 -19.5 -1.5t-17.5 -6.5q-1 -5 -1.5 -9.5t-0.5 -9.5q0 -35 35 -35q14 0 24 10t10 33q0 8 -6.5 13.5t-23.5 5.5z" />
    <glyph glyph-name="seven.numr" 
d="M420 629l-191 -273h-173l182 237q6 8 12 15t13 15l-1 2h-211l25 125h361z" />
    <glyph glyph-name="eight.numr" 
d="M200 350q-90 0 -131 29t-41 80q0 26 13 53.5t47 48.5q-9 12 -14 26t-5 33q0 63 45 99.5t143 36.5q83 0 119.5 -27.5t36.5 -70.5q0 -27 -11.5 -49.5t-30.5 -38.5q15 -12 25 -29t10 -43q0 -70 -52.5 -109t-153.5 -39zM257 470q0 13 -18 20t-46 15q-19 -16 -19 -31
q0 -20 44 -20q15 0 27 3t12 13zM242 654q-29 0 -32 -18q0 -12 13 -17.5t38 -10.5q14 11 14 25q0 10 -7 15.5t-26 5.5z" />
    <glyph glyph-name="nine.numr" 
d="M251 756q87 0 127 -37.5t40 -109.5q0 -65 -17.5 -113.5t-49.5 -81t-77.5 -48.5t-102.5 -16q-48 0 -77 6t-56 15l37 106q24 -9 47 -13.5t52 -4.5q38 0 61.5 10t32.5 36l-2 2q-30 -17 -75 -17q-77 0 -109.5 28.5t-32.5 73.5q0 34 13 64t38.5 52.5t63 35t87.5 12.5zM233 646
q-22 0 -31 -9t-9 -29q0 -12 7 -17t27 -5q28 0 35.5 10.5t7.5 21.5q0 16 -8.5 22t-28.5 6z" />
    <glyph glyph-name="equal.numr" 
d="M81 579v103h294v-103h-294zM81 434v102h294v-102h-294z" />
    <glyph glyph-name="cent.numr" horiz-adv-x="354" 
d="M364 621q-15 4 -32 6.5t-32 2.5q-54 0 -75.5 -20t-21.5 -68q0 -30 19 -45t54 -15q20 0 38 3.5t35 6.5l-5 -100q-26 -14 -71 -20l-15 -64h-116l15 69q-55 14 -83 50t-28 92q0 89 47.5 150t141.5 75l18 69h116l-18 -73q10 -2 19 -4t16 -5z" />
    <glyph glyph-name="minus.numr" 
d="M67 500v119h311v-119h-311z" />
    <glyph glyph-name="dollar.dnom" horiz-adv-x="354" 
d="M285 457l-18 -71q15 -2 29.5 -5.5t28.5 -7.5l-30 -106q-29 7 -51.5 11t-45.5 4q-32 0 -40 -3.5t-9 -11.5q0 -7 11.5 -10t29 -6t38 -8t38 -15.5t29 -28t11.5 -46.5q0 -55 -32.5 -93t-90.5 -51l-14 -57h-112l11 54q-49 8 -88 27l32 108q32 -15 56 -23t57 -8q42 0 43 13
q0 6 -11.5 9t-29 6.5t-38 9t-38 17t-29 29.5t-11.5 46q0 25 8.5 49.5t26 44t44.5 34t65 20.5l18 69h112z" />
    <glyph glyph-name="parenleft.dnom" horiz-adv-x="233" 
d="M249 413q-50 -63 -75 -143.5t-25 -162.5q0 -44 8 -83.5t26 -73.5l-97 -11q-37 35 -53.5 82t-16.5 101q0 89 34 168t104 133z" />
    <glyph glyph-name="parenright.dnom" horiz-adv-x="233" 
d="M97 423q36 -35 52 -81.5t16 -100.5q0 -89 -33.5 -168.5t-102.5 -133.5l-96 11q51 63 75.5 145.5t24.5 162.5q0 43 -8.5 82.5t-26.5 72.5z" />
    <glyph glyph-name="plus.dnom" 
d="M241 136v-100h-128v100h-98v124h98v100h128v-100h99v-124h-99z" />
    <glyph glyph-name="comma.dnom" horiz-adv-x="190" 
d="M57 124q36 0 52 -17t16 -41q0 -18 -8.5 -38.5t-21.5 -41t-29 -38.5t-31 -31l-49 12q8 14 18 31t18 34q-25 2 -36.5 16.5t-11.5 35.5q0 13 4.5 27t14.5 25t26 18.5t38 7.5z" />
    <glyph glyph-name="period.dnom" horiz-adv-x="190" 
d="M130 59q-5 -32 -24.5 -49.5t-61.5 -17.5q-37 0 -53.5 11t-16.5 38q0 43 21 64.5t68 21.5q36 0 52 -13.5t16 -39.5q0 -10 -1 -15z" />
    <glyph glyph-name="zero.dnom" 
d="M207 399q84 0 122.5 -36.5t38.5 -112.5q0 -125 -56 -190t-162 -65q-85 0 -123 37t-38 110q0 12 1 25.5t3 27.5q14 105 64.5 154.5t149.5 49.5zM191 286q-10 0 -17.5 -3.5t-13.5 -13t-11 -27.5t-9 -47q-2 -15 -3 -26.5t-1 -20.5q0 -26 8 -33t22 -7q9 0 16 3t13 12t11 26.5
t9 46.5q2 15 3 27.5t1 21.5q0 26 -7 33.5t-21 7.5z" />
    <glyph glyph-name="one.dnom" horiz-adv-x="300" 
d="M209 0h-150l26 190q2 10 3.5 20.5t4.5 19.5l-2 2q-18 -12 -36 -19l-43 -20l4 121l153 80h95z" />
    <glyph glyph-name="two.dnom" horiz-adv-x="397" 
d="M208 400q78 0 113.5 -30.5t35.5 -75.5q0 -30 -11.5 -54.5t-32 -45t-49.5 -38.5t-64 -37v-3h130l-18 -116h-326l12 91q47 35 83.5 61t62 45.5t39 35t13.5 29.5q0 9 -9 15t-30 6q-28 0 -54.5 -8.5t-58.5 -24.5l-19 109q42 20 87 30.5t96 10.5z" />
    <glyph glyph-name="three.dnom" horiz-adv-x="397" 
d="M194 400q81 0 122.5 -28.5t41.5 -76.5q0 -32 -16.5 -55t-47.5 -39v-2q23 -10 35.5 -26.5t12.5 -40.5q0 -65 -53 -101.5t-157 -36.5q-43 0 -82 9t-65 25l46 103q27 -13 55.5 -20.5t59.5 -7.5q26 0 39 6t13 21q0 5 -3.5 9t-14 6.5t-28.5 4t-46 1.5l13 94q33 0 52.5 2
t29 5.5t12 8t2.5 10.5q0 7 -9 12.5t-35 5.5q-34 0 -63.5 -7t-60.5 -24l-19 101q35 20 79 30.5t87 10.5z" />
    <glyph glyph-name="four.dnom" 
d="M318 59l-8 -59h-139l8 59h-204v81l211 254h179l-32 -227h34l-18 -108h-31zM210 226q3 21 9 40l-2 1q-6 -8 -12.5 -17t-12.5 -17l-27 -35q-12 -15 -26 -29l1 -2h59z" />
    <glyph glyph-name="five.dnom" 
d="M344 277h-174l-5 -24q10 1 20 1.5t21 0.5q68 0 105.5 -25.5t37.5 -73.5q0 -34 -12 -63.5t-37.5 -51t-64 -34t-92.5 -12.5q-40 0 -80.5 5.5t-75.5 20.5l36 106q35 -12 61.5 -17.5t61.5 -5.5q32 0 42.5 7t10.5 17q0 9 -11 15t-35 6q-20 0 -44.5 -1t-43.5 -3l-47 44l52 205
h287z" />
    <glyph glyph-name="six.dnom" 
d="M337 273q-22 7 -43 9.5t-47 2.5q-38 0 -59.5 -8.5t-32.5 -23.5l1 -1q27 9 61 9q67 0 104 -24.5t37 -74.5q0 -42 -15 -73.5t-42 -52.5t-64 -31.5t-80 -10.5q-82 0 -125.5 38.5t-43.5 115.5q0 55 17 101.5t49 80t79.5 52t108.5 18.5q36 0 64.5 -3.5t54.5 -12.5zM178 165
q-6 0 -19.5 -1.5t-17.5 -6.5q-1 -5 -1.5 -9.5t-0.5 -9.5q0 -35 35 -35q14 0 24 10t10 33q0 8 -6.5 13.5t-23.5 5.5z" />
    <glyph glyph-name="seven.dnom" 
d="M370 273l-191 -273h-173l182 237q6 8 12 15t13 15l-1 2h-211l25 125h361z" />
    <glyph glyph-name="eight.dnom" 
d="M150 -6q-90 0 -131 29t-41 80q0 26 13 53.5t47 48.5q-9 12 -14 26t-5 33q0 63 45 99.5t143 36.5q83 0 119.5 -27.5t36.5 -70.5q0 -27 -11.5 -49.5t-30.5 -38.5q15 -12 25 -29t10 -43q0 -70 -52.5 -109t-153.5 -39zM207 114q0 13 -18 20t-46 15q-19 -16 -19 -31
q0 -20 44 -20q15 0 27 3t12 13zM192 298q-29 0 -32 -18q0 -12 13 -17.5t38 -10.5q14 11 14 25q0 10 -7 15.5t-26 5.5z" />
    <glyph glyph-name="nine.dnom" 
d="M201 400q87 0 127 -37.5t40 -109.5q0 -65 -17.5 -113.5t-49.5 -81t-77.5 -48.5t-102.5 -16q-48 0 -77 6t-56 15l37 106q24 -9 47 -13.5t52 -4.5q38 0 61.5 10t32.5 36l-2 2q-30 -17 -75 -17q-77 0 -109.5 28.5t-32.5 73.5q0 34 13 64t38.5 52.5t63 35t87.5 12.5zM183 290
q-22 0 -31 -9t-9 -29q0 -12 7 -17t27 -5q28 0 35.5 10.5t7.5 21.5q0 16 -8.5 22t-28.5 6z" />
    <glyph glyph-name="equal.dnom" 
d="M31 223v103h294v-103h-294zM31 78v102h294v-102h-294z" />
    <glyph glyph-name="cent.dnom" horiz-adv-x="354" 
d="M314 265q-15 4 -32 6.5t-32 2.5q-54 0 -75.5 -20t-21.5 -68q0 -30 19 -45t54 -15q20 0 38 3.5t35 6.5l-5 -100q-26 -14 -71 -20l-15 -64h-116l15 69q-55 14 -83 50t-28 92q0 89 47.5 150t141.5 75l18 69h116l-18 -73q10 -2 19 -4t16 -5z" />
    <glyph glyph-name="minus.dnom" 
d="M17 144v119h311v-119h-311z" />
    <glyph glyph-name="numbersign.osf" horiz-adv-x="607" 
d="M79 276l29 91h-84l20 141h104l42 141h174l-42 -141h62l42 141h171l-43 -141h51l-20 -141h-71l-28 -91h86l-19 -138h-105l-41 -138h-170l40 138h-64l-41 -138h-173l41 138h-48l19 138h68zM252 276h64l28 91h-63z" />
    <glyph glyph-name="dollar.osf" horiz-adv-x="497" 
d="M429 728l-26 -109q48 -11 82 -30l-84 -157q-24 10 -55 14t-63 4q-19 0 -27 -7.5t-8 -18.5q0 -13 14.5 -21.5t36.5 -16t47.5 -17.5t47.5 -26.5t36.5 -42.5t14.5 -65q0 -44 -11 -82.5t-32.5 -69t-54 -52.5t-75.5 -32l-24 -112h-172l23 110q-35 6 -66.5 18t-57.5 29l66 158
q35 -23 73 -33t70 -10q43 0 43 28q0 14 -14.5 22.5t-37 17.5t-48 20t-48 29.5t-37 46t-14.5 69.5q0 85 51.5 146.5t152.5 81.5l25 108h172z" />
    <glyph glyph-name="zero.osf" horiz-adv-x="608" 
d="M347 665q126 0 185 -57t59 -182q0 -23 -2 -48.5t-6 -53.5q-23 -168 -103 -251t-229 -83q-128 0 -185.5 59.5t-57.5 178.5q0 22 1.5 46t5.5 50q12 89 37.5 153.5t65.5 106t97 61.5t132 20zM323 489q-15 0 -27 -6t-22 -23t-18 -49.5t-15 -84.5q-5 -30 -6.5 -53t-1.5 -40
q0 -43 11.5 -55t33.5 -12q13 0 24 5t20.5 21.5t17 48.5t15.5 85q9 61 9 95q0 42 -11 55t-30 13z" />
    <glyph glyph-name="one.osf" horiz-adv-x="450" 
d="M339 0h-232l50 358q2 10 3.5 20t3.5 20l-2 2q-8 -5 -18 -10l-18 -9l-78 -37l5 183l236 127h141z" />
    <glyph glyph-name="two.osf" horiz-adv-x="564" 
d="M327 664q61 0 105 -13t72 -36t41.5 -54.5t13.5 -68.5q0 -50 -17 -90.5t-49.5 -77.5t-78.5 -71.5t-104 -71.5v-3h203l-29 -178h-494l19 137q72 58 129 103.5t97 82t61 65.5t21 55q0 19 -14 29.5t-46 10.5q-42 0 -82 -14t-87 -37l-31 165q57 32 124.5 49.5t145.5 17.5z" />
    <glyph glyph-name="three.osf" horiz-adv-x="559" 
d="M291 666q60 0 105.5 -13t76 -35.5t46 -53.5t15.5 -68q0 -51 -21.5 -94t-62.5 -71q63 -39 63 -115q0 -6 -0.5 -13t-1.5 -15q-10 -72 -47 -126.5t-98 -91t-145.5 -55.5t-189.5 -22l4 170q75 2 124 13.5t78.5 29.5t41.5 41t12 47q0 20 -15 32.5t-56 12.5q-16 0 -29.5 -1.5
t-31.5 -4.5l10 143q43 4 72.5 10t47 14.5t25 20t7.5 27.5q0 17 -14.5 27.5t-56.5 10.5q-50 0 -91 -11.5t-84 -36.5l-25 164q48 29 111.5 46.5t129.5 17.5z" />
    <glyph glyph-name="four.osf" horiz-adv-x="608" 
d="M497 52l-22 -152l-213 -10l23 162h-301v139l334 474l263 -15l-61 -433h55l-28 -165h-50zM356 421q3 21 9 40l-3 1q-5 -8 -10.5 -17.5t-10.5 -17.5l-116 -177q-5 -8 -11 -15.5t-12 -15.5l1 -2h114z" />
    <glyph glyph-name="five.osf" horiz-adv-x="557" 
d="M520 465h-255l-16 -78q14 2 28 3t30 1q97 0 153.5 -42.5t56.5 -124.5v-17q0 -8 -2 -17q-20 -140 -141.5 -218t-343.5 -78l3 178q132 0 192 29.5t60 75.5q0 17 -16 27.5t-59 10.5q-29 0 -61.5 -3t-61.5 -11l-62 80l83 376h431z" />
    <glyph glyph-name="six.osf" horiz-adv-x="598" 
d="M518 579q-94 0 -153 -31t-88 -76l1 -1q40 17 89 17q100 0 151.5 -44.5t51.5 -130.5q0 -20 -3 -44q-10 -73 -36.5 -126t-66.5 -87t-92 -50t-113 -16q-122 0 -187 61t-65 188q0 128 46 225t119 162.5t162 99t176 33.5zM285 172q20 0 35 21t23 75q1 4 1 8v7q0 20 -10 30.5
t-35 10.5q-11 0 -28.5 -5.5t-25.5 -15.5q-6 -44 -6 -71q0 -36 11.5 -48t34.5 -12z" />
    <glyph glyph-name="seven.osf" horiz-adv-x="566" 
d="M557 475l-311 -566h-256l305 512q5 8 10.5 16t11.5 16l-1 2h-281l41 200h507z" />
    <glyph glyph-name="eight.osf" horiz-adv-x="617" 
d="M258 -13q-136 0 -200.5 45.5t-64.5 129.5q0 46 22 93t78 84q-16 19 -25 44t-9 58q0 52 18 93t54 70t91.5 44.5t130.5 15.5q64 0 109 -11t73.5 -31.5t42 -49.5t13.5 -65q0 -50 -21 -88.5t-53 -66.5q27 -20 44.5 -48.5t17.5 -73.5q0 -119 -84.5 -181t-236.5 -62zM252 253
q-15 -13 -24 -27t-9 -32q0 -24 17 -33.5t50 -9.5q24 0 42 8t18 29q0 25 -25 38t-69 27zM327 503q-23 0 -37 -9t-14 -26q0 -22 19.5 -33.5t57.5 -21.5q12 11 20.5 23.5t8.5 28.5q0 18 -12.5 28t-42.5 10z" />
    <glyph glyph-name="nine.osf" horiz-adv-x="595" 
d="M340 665q121 0 181.5 -60t60.5 -175q0 -36 -6 -76q-18 -126 -65 -213.5t-115 -141.5t-152 -78.5t-175 -24.5l2 176q80 0 144.5 26.5t95.5 85.5l-2 2q-38 -18 -93 -18q-88 0 -142 45.5t-54 141.5q0 72 22 129t63.5 97.5t100.5 62t134 21.5zM311 485q-13 0 -24 -4.5
t-19.5 -16.5t-13 -32.5t-4.5 -51.5q0 -23 9.5 -31t33.5 -8q15 0 27 3t19.5 12t11.5 26t4 45q0 36 -11.5 47t-32.5 11z" />
    <glyph glyph-name="cent.osf" horiz-adv-x="493" 
d="M480 728l-28 -118q14 -5 27 -11t26 -13l-81 -157q-16 7 -32.5 9.5t-35.5 2.5q-21 0 -39.5 -5.5t-33.5 -20.5t-26 -42t-17 -71q-2 -16 -3 -29.5t-1 -24.5q0 -50 18 -67.5t48 -17.5q27 0 49.5 9.5t38.5 23.5l57 -132q-27 -25 -55.5 -40.5t-60.5 -23.5l-25 -113h-172l23 110
q-68 18 -110 74.5t-42 160.5q0 91 20.5 160.5t57.5 118t88 76.5t113 36l24 105h172z" />
    <glyph glyph-name="sterling.osf" horiz-adv-x="599" 
d="M39 393h39q-4 15 -4 34q0 42 17.5 84t58 75t105.5 53.5t160 20.5q57 0 97.5 -6t75.5 -15l-49 -168q-28 6 -60.5 10.5t-64.5 4.5q-36 0 -58 -6t-33.5 -16.5t-15 -25t-3.5 -32.5q0 -9 1 -13h218l-21 -144h-185v-1q-3 -26 -17 -47.5t-37 -35.5l1 -2q38 8 77 11t70 3
q41 0 72.5 -2.5t61.5 -7.5l-34 -174q-58 7 -118.5 9.5t-120.5 2.5q-34 0 -65.5 -0.5t-64.5 -1t-68.5 -2.5t-76.5 -5l17 176q16 0 31 5t27 14.5t19 24t7 33.5h-72z" />
    <glyph glyph-name="currency.osf" horiz-adv-x="607" 
d="M329 534q38 0 72 -14l91 79l97 -113l-86 -76q4 -14 6.5 -28.5t2.5 -31.5q0 -27 -7 -53t-20 -49l60 -69l-129 -113l-56 64q-46 -19 -91 -19q-46 0 -86 19l-75 -65l-97 114l79 69q-2 10 -3 21t-1 22q0 66 33 119l-64 76l129 113l68 -79q37 14 77 14zM308 395
q-32 0 -55.5 -23.5t-23.5 -55.5q0 -26 16.5 -42.5t43.5 -16.5q32 0 55.5 23.5t23.5 56.5q0 25 -17 41.5t-43 16.5z" />
    <glyph glyph-name="yen.osf" horiz-adv-x="607" 
d="M133 320l-101 328h245l25 -238q1 -10 2 -20.5t1 -20.5h2q2 9 5.5 19t7.5 19l93 241h241l-193 -328h81l-13 -97h-122l-4 -28h122l-14 -97h-122l-13 -98h-244l13 98h-112l14 97h112l4 28h-112l13 97h69z" />
    <glyph glyph-name="franc.osf" horiz-adv-x="607" 
d="M49 191l65 458h496l-22 -180h-279l-9 -66h201l-26 -169h-199l-6 -43h57l-18 -133h-57l-8 -58h-221l8 58h-45l18 133h45z" />
    <glyph glyph-name="lira.osf" horiz-adv-x="607" 
d="M416 660q57 0 98 -6t76 -15l-49 -167q-28 7 -61 11t-65 4q-60 0 -82.5 -16t-26.5 -45h217l-13 -95h-195q1 -6 1.5 -12t0.5 -12h190l-14 -95h-189q-14 -29 -41 -47l1 -2q38 8 77 11t71 3q41 0 72.5 -2.5t62.5 -7.5l-35 -174q-57 7 -117.5 9.5t-120.5 2.5q-34 0 -66 -0.5
t-65 -1t-68.5 -2.5t-77.5 -5l18 176q26 1 45.5 12.5t29.5 27.5h-53l7 95h53q-2 6 -2.5 12t-1.5 12h-48l4 95h28q0 42 17 84t57 75.5t105 54t160 20.5z" />
    <glyph glyph-name="peseta.osf" horiz-adv-x="607" 
d="M179 649q31 0 53.5 -5t37 -18.5t21.5 -36.5t7 -58q0 -20 -2 -43t-6 -51q-9 -62 -20.5 -101.5t-30 -62.5t-47 -32t-70.5 -9h-5l-32 -232h-120l91 649h123zM398 305l-25 -182q-2 -9 -2 -13v-5q0 -9 9 -9q2 0 8 2l-11 -95q-6 -4 -19 -7t-25 -3q-34 0 -53 20.5t-19 63.5v16
q0 8 2 16l27 196h-12l15 101h18l29 84l83 12l-13 -96h33l-20 -101h-25zM571 155q0 -27 -6.5 -56t-21 -53t-38.5 -39t-58 -15q-17 0 -31.5 3.5t-23.5 9.5l16 101q16 -7 40 -7q23 0 23 24q0 10 -8 18.5t-17.5 21t-17.5 31.5t-8 50q0 33 8.5 63.5t24.5 53t38.5 36t50.5 13.5
q35 0 55 -15l-23 -106q-8 4 -18 5.5t-18 1.5t-13 -5.5t-5 -16.5t8 -20.5t17.5 -22t17.5 -30.5t8 -46zM160 527l-26 -180h3q5 0 9 2t7.5 10.5t6.5 26.5t8 50q4 29 6 47.5t2 26.5q0 12 -3 14.5t-9 2.5h-4z" />
    <glyph glyph-name="Euro.osf" horiz-adv-x="607" 
d="M435 658q52 0 103.5 -8t85.5 -23l-76 -164q-17 5 -38.5 7.5t-39.5 2.5q-49 0 -82.5 -9.5t-49.5 -29.5h195l-47 -101h-182q-3 -12 -3 -23h176l-46 -99h-122q17 -23 42.5 -33.5t70.5 -10.5q33 0 58 5t52 13l-17 -161q-32 -17 -77 -26.5t-106 -9.5q-134 0 -208 57.5
t-86 165.5h-40l14 99h28q0 11 3 23h-28l14 101h40q40 104 129.5 164t236.5 60z" />
    <glyph glyph-name="numbersign.lf" horiz-adv-x="620" 
d="M86 308l38 121h-97l21 152h119l51 169h181l-51 -169h51l50 169h177l-51 -169h59l-21 -152h-81l-37 -121h101l-22 -154h-122l-45 -154h-176l45 154h-53l-46 -154h-179l45 154h-55l22 154h76zM267 308h52l37 121h-51z" />
    <glyph glyph-name="dollar.lf" horiz-adv-x="582" 
d="M517 815l-21 -61q25 -4 47 -9t39 -12l-38 -185q-24 5 -52.5 10t-57.5 9l-37 -111q28 -12 55 -27.5t48.5 -38t35 -52.5t13.5 -71q0 -21 -4 -49.5t-15.5 -59.5t-32.5 -61t-55.5 -54t-84.5 -39.5t-118 -16.5l-27 -65l-119 10l20 63q-39 5 -73.5 14.5t-60.5 23.5l55 189
q32 -17 66.5 -28.5t70.5 -19.5l38 118q-30 13 -60 29t-53.5 39.5t-38 55t-14.5 74.5q0 125 83.5 196t239.5 76l20 63zM277 165q69 1 69 38q0 17 -9.5 27.5t-31.5 21.5zM322 576q-21 0 -33.5 -5t-19.5 -12t-9.5 -15t-2.5 -15q0 -11 10.5 -19.5t28.5 -16.5z" />
    <glyph glyph-name="zero.lf" horiz-adv-x="617" 
d="M365 758q125 0 185.5 -60t60.5 -199q0 -29 -2.5 -61t-7.5 -68q-28 -195 -112 -287.5t-235 -92.5q-127 0 -185.5 63t-58.5 194q0 28 2.5 58.5t7.5 64.5q15 105 41.5 178.5t68 120t99.5 68t136 21.5zM339 571q-15 0 -27 -6.5t-22 -27t-19 -60t-18 -105.5q-7 -45 -10 -77
t-3 -55q0 -44 11.5 -56t31.5 -12q14 0 25 6t21 26.5t18.5 60.5t18.5 108q12 90 12 131q0 43 -10.5 55t-28.5 12z" />
    <glyph glyph-name="one.lf" horiz-adv-x="467" 
d="M365 0h-244l60 430l8 40l-2 2q-8 -5 -18 -10t-18 -10l-79 -39v196l254 140h144z" />
    <glyph glyph-name="two.lf" horiz-adv-x="594" 
d="M350 759q63 0 108.5 -14t75 -39.5t44 -60.5t14.5 -78q0 -52 -19.5 -97.5t-55.5 -89t-88 -87.5t-116 -93v-3h223l-32 -197h-515l20 146q73 67 134 122t104.5 100.5t67.5 83t24 69.5q0 21 -15 32t-48 11q-45 0 -87 -16t-87 -42l-31 178q57 35 126 55t153 20z" />
    <glyph glyph-name="three.lf" horiz-adv-x="594" 
d="M329 759q125 0 190.5 -50t65.5 -138q0 -61 -27.5 -108.5t-84.5 -77.5v-2q39 -20 60 -51t21 -76v-15q0 -7 -2 -15q-15 -110 -99.5 -173t-244.5 -63q-66 0 -123.5 14.5t-97.5 39.5l67 170q42 -20 84 -31t89 -11q43 0 69 18.5t26 57.5q0 12 -5.5 21.5t-21.5 16.5t-44 11
t-74 4l22 158q53 0 84.5 5t48.5 14.5t22 23t5 29.5q0 20 -15 30.5t-57 10.5q-52 0 -98.5 -15t-90.5 -43l-29 171q53 34 122 54t138 20z" />
    <glyph glyph-name="four.lf" horiz-adv-x="630" 
d="M530 122l-17 -122h-220l17 122h-314v142l338 486h284l-63 -445h57l-30 -183h-52zM375 478q3 21 9 40l-3 1q-5 -8 -9.5 -16.5t-11.5 -18.5l-97 -146q-5 -8 -11 -15.5t-12 -15.5l1 -2h101z" />
    <glyph glyph-name="five.lf" horiz-adv-x="584" 
d="M555 553h-269l-15 -75q28 3 63 3q105 0 163 -44.5t58 -133.5q0 -20 -3 -42q-9 -61 -32.5 -111t-64 -85.5t-100 -55t-139.5 -19.5q-64 0 -126 12.5t-111 41.5l66 170q22 -11 42 -18.5t40.5 -12.5t42.5 -7.5t48 -2.5q56 0 76 21t20 58q0 26 -19 37.5t-60 11.5q-26 0 -61 -3
t-66 -11l-68 83l84 380h450z" />
    <glyph glyph-name="six.lf" horiz-adv-x="615" 
d="M425 760q54 0 98 -6t83 -22l-39 -181q-35 11 -67 16t-70 5q-69 0 -105 -23.5t-53 -71.5l1 -1q49 22 106 22q103 0 158 -45t55 -136q0 -11 -1 -23.5t-3 -25.5q-10 -72 -37 -124.5t-68 -86.5t-95 -50.5t-118 -16.5q-62 0 -110.5 15t-81.5 47t-50 82t-17 121
q0 118 28.5 211.5t81.5 158.5t130 100t174 35zM310 332q-10 0 -29.5 -6t-27.5 -17q-6 -42 -6 -69q0 -38 11.5 -51.5t35.5 -13.5q23 0 38.5 21.5t23.5 75.5q1 4 1 8v7q0 21 -10.5 33t-36.5 12z" />
    <glyph glyph-name="seven.lf" horiz-adv-x="612" 
d="M617 559l-318 -559h-269l334 512q5 8 10.5 15.5t12.5 15.5l-1 2h-343l40 205h561z" />
    <glyph glyph-name="eight.lf" horiz-adv-x="621" 
d="M260 -10q-136 0 -200 50t-64 145q0 25 5.5 52.5t18 54.5t32.5 52t50 46q-16 22 -25.5 50.5t-9.5 66.5q0 57 18.5 104t56 80.5t94 51.5t132.5 18q127 0 184 -48t57 -127q0 -57 -23.5 -103.5t-61.5 -79.5q29 -21 46.5 -53t17.5 -81q0 -18 -3 -39q-17 -119 -98 -179.5
t-227 -60.5zM265 293q-19 -18 -28.5 -37.5t-9.5 -44.5q0 -29 16.5 -39.5t46.5 -10.5q23 0 42 10.5t19 41.5q0 32 -22 47.5t-64 32.5zM343 591q-21 0 -38 -13t-17 -46q0 -24 19.5 -37.5t49.5 -24.5q17 16 26.5 34t9.5 44q0 43 -50 43z" />
    <glyph glyph-name="nine.lf" horiz-adv-x="618" 
d="M359 760q123 0 188 -66t65 -201q0 -22 -1.5 -45.5t-5.5 -49.5q-15 -107 -47 -184t-81 -127t-116.5 -73.5t-152.5 -23.5q-36 0 -64.5 2.5t-52.5 7t-45 11t-41 15.5l58 179q35 -14 70 -22t78 -8q63 0 94 25t47 76l-2 2q-46 -20 -111 -20q-103 0 -154 51.5t-51 137.5
q0 22 3 46q9 61 33 110.5t64 84t96 53.5t129 19zM328 575q-27 0 -45.5 -21.5t-18.5 -78.5q0 -25 10.5 -35.5t36.5 -10.5q25 0 39.5 8t21 20.5t8 27t1.5 26.5q0 38 -14 51t-39 13z" />
    <glyph glyph-name="cent.lf" horiz-adv-x="501" 
d="M486 728l-28 -120q12 -5 24 -10.5t23 -11.5l-81 -157q-16 7 -32.5 9.5t-35.5 2.5q-21 0 -39.5 -5.5t-33.5 -20.5t-26 -42t-17 -71q-2 -16 -3 -29.5t-1 -24.5q0 -50 18 -67.5t48 -17.5q27 0 49.5 9.5t38.5 23.5l57 -132q-51 -46 -111 -63l-25 -114h-172l24 109
q-72 17 -115 73.5t-43 162.5q0 91 21 161.5t58.5 119t90 76.5t114.5 35l24 104h173z" />
    <glyph glyph-name="sterling.lf" horiz-adv-x="610" 
d="M30 451h44q-6 24 -6 50q0 49 19.5 96t63 84.5t113 60.5t170.5 23q62 0 105 -8t78 -18l-52 -183q-29 8 -62.5 12.5t-67.5 4.5q-38 0 -61 -6.5t-36.5 -19t-18 -29.5t-4.5 -38q0 -16 3 -29h230l-22 -155h-192l-1 -9q-5 -35 -21.5 -62.5t-42.5 -44.5l1 -2q38 8 78.5 12
t74.5 4q43 0 75.5 -3t66.5 -9l-38 -190q-60 8 -123 11t-127 3q-36 0 -70.5 -0.5t-69.5 -1.5t-73.5 -3t-82.5 -6l18 199q42 2 71 28.5t29 73.5h-81z" />
    <glyph glyph-name="currency.lf" horiz-adv-x="635" 
d="M349 581q20 0 38 -3.5t35 -9.5l93 80l99 -116l-88 -77q10 -26 10 -59q0 -29 -7.5 -56t-19.5 -50l60 -70l-132 -116l-57 66q-44 -19 -91 -19t-88 19l-76 -66l-100 116l81 71q-4 17 -4 42q0 35 8.5 64.5t24.5 57.5l-65 77l132 115l68 -80q39 14 79 14zM328 440
q-15 0 -30 -6.5t-26 -17.5t-18 -25.5t-7 -30.5q0 -26 17.5 -43t44.5 -17q16 0 30.5 6.5t25.5 17.5t17.5 25.5t6.5 30.5q0 26 -17.5 43t-43.5 17z" />
    <glyph glyph-name="yen.lf" horiz-adv-x="711" 
d="M177 387l-115 362h275l25 -302q1 -10 1.5 -20.5t0.5 -20.5h2q3 9 6 19.5t7 19.5l109 304h271l-212 -362h89l-16 -111h-137l-4 -34h137l-16 -111h-137l-18 -131h-273l18 131h-127l16 111h127l4 34h-127l16 111h78z" />
    <glyph glyph-name="franc.lf" horiz-adv-x="619" 
d="M36 221l74 529h533l-24 -197h-292l-12 -89h210l-28 -184h-208l-8 -59h58l-22 -151h-58l-9 -70h-245l9 70h-49l22 151h49z" />
    <glyph glyph-name="lira.lf" horiz-adv-x="616" 
d="M48 492h27q0 48 17.5 96.5t58.5 87.5t111 64t175 25q62 0 105 -8t78 -18l-52 -180q-29 7 -62.5 12t-67.5 5q-66 0 -91.5 -21.5t-27.5 -62.5h239l-16 -109h-208q1 -6 2 -13.5t1 -14.5h201l-15 -107h-199q-18 -42 -57 -70l1 -1q39 9 81 13t76 4q44 0 76.5 -3t66.5 -9
l-38 -190q-60 8 -123 11t-127 3q-36 0 -70.5 -0.5t-69.5 -1.5t-73.5 -3t-82.5 -6l18 199q32 1 55 16t34 38h-59l8 107h59q0 7 -1.5 14t-3.5 14h-52z" />
    <glyph glyph-name="peseta.lf" horiz-adv-x="872" 
d="M252 750q92 0 135 -37.5t43 -129.5q0 -19 -2 -40t-5 -45q-9 -64 -26.5 -110t-46 -75.5t-70 -43.5t-98.5 -14h-7l-35 -255h-161l105 750h168zM572 342l-28 -189q-1 -5 -2 -12.5t-1 -13.5q0 -13 17 -13q9 0 17 3l-13 -115q-9 -4 -27.5 -7.5t-40.5 -3.5q-48 0 -72.5 26
t-24.5 76v16q0 8 2 16l31 217h-20l16 116h27l36 92l113 12l-14 -104h45l-16 -116h-45zM825 139q-10 -70 -49 -109.5t-109 -39.5q-53 0 -87 17l26 121q14 -7 31.5 -10t31.5 -3q23 0 23 20q0 14 -12.5 23t-27.5 22t-27.5 34.5t-12.5 60.5q0 37 10.5 70.5t31.5 59.5t51 41.5
t69 15.5q23 0 44 -5t36 -13l-27 -128q-14 6 -30 9t-28 3q-11 0 -15.5 -6t-4.5 -14q0 -12 12 -21.5t27 -24t27 -36.5t12 -58v-14q0 -7 -2 -15zM223 595l-27 -194h7q11 0 18.5 2t12.5 11.5t9 28.5t9 54q4 25 6 42t2 28q0 19 -7 23.5t-22 4.5h-8z" />
    <glyph glyph-name="Euro.lf" horiz-adv-x="570" 
d="M433 246h-128q10 -48 40 -66t75 -18q23 0 45 4.5t45 11.5l-7 -158q-35 -15 -75 -22.5t-93 -7.5q-125 0 -193 62.5t-76 193.5h-72l15 106h61q1 8 1.5 14.5t2.5 14.5h-61l16 112h73q21 59 55 107t79 82t99 52.5t116 18.5q51 0 88 -6t68 -17l-65 -170q-27 9 -64 9
q-50 0 -87.5 -21t-48.5 -53l1 -2h179l-40 -112h-173q-2 -8 -2.5 -14.5t-1.5 -14.5h166z" />
    <glyph glyph-name="numbersign.tosf" horiz-adv-x="607" 
d="M79 276l29 91h-84l21 146h105l40 136h174l-40 -136h62l40 136h170l-40 -136h50l-21 -146h-71l-28 -91h86l-20 -146h-107l-38 -130h-170l38 130h-64l-39 -130h-173l39 130h-47l20 146h68zM252 276h64l28 91h-63z" />
    <glyph glyph-name="dollar.tosf" horiz-adv-x="607" 
d="M554 211q-11 -81 -67 -139.5t-168 -76.5l-27 -114h-186l27 112q-76 7 -138 32l55 183q24 -12 52.5 -20t57 -13t55.5 -7.5t47 -2.5q26 0 37.5 7t11.5 18q0 12 -20 17t-50 10.5t-65 13.5t-65 25.5t-50 47t-20 78.5q0 92 56.5 155.5t172.5 82.5l29 119h186l-29 -117
q34 -5 66 -12.5t61 -16.5l-46 -183q-45 17 -96.5 25t-98.5 8q-32 0 -42 -5t-10 -15q0 -12 19.5 -17.5t49.5 -10.5t64 -13t64 -24t49.5 -44t19.5 -73v-15q0 -7 -2 -15z" />
    <glyph glyph-name="zero.tosf" horiz-adv-x="607" 
d="M347 665q126 0 185 -57t59 -182q0 -23 -2 -48.5t-6 -53.5q-23 -168 -103.5 -251t-229.5 -83q-128 0 -185.5 59.5t-57.5 179.5q0 22 1.5 45.5t5.5 49.5q12 89 37.5 153.5t66 106t97 61.5t132.5 20zM322 489q-15 0 -26.5 -6t-21 -23t-18 -49.5t-15.5 -84.5
q-5 -31 -6.5 -54.5t-1.5 -40.5q0 -43 11.5 -54.5t32.5 -11.5q13 0 24 5t20.5 21.5t17 48.5t15.5 86q9 63 9 96q0 43 -11 55t-30 12z" />
    <glyph glyph-name="one.tosf" horiz-adv-x="607" 
d="M87 122h97l33 234q2 10 3.5 20t3.5 20l-2 2q-8 -5 -18 -10l-18 -9l-80 -38l4 185l239 128h141l-74 -532h104l-17 -122h-433z" />
    <glyph glyph-name="two.tosf" horiz-adv-x="607" 
d="M346 664q61 0 105 -13t72 -36t41.5 -55t13.5 -70q0 -50 -17.5 -90.5t-50.5 -77t-81 -72.5t-108 -75v-3h210l-27 -172h-494l19 137q72 58 128.5 104t96.5 82.5t61 66.5t21 56q0 18 -13.5 27.5t-45.5 9.5q-43 0 -83 -14t-87 -38l-30 166q56 32 123.5 49.5t145.5 17.5z" />
    <glyph glyph-name="three.tosf" horiz-adv-x="607" 
d="M319 666q60 0 105 -13t75.5 -35.5t46 -53.5t15.5 -68q0 -51 -21 -94t-62 -71q63 -39 63 -115q0 -6 -0.5 -13t-1.5 -15q-10 -72 -47 -126.5t-98 -91t-145.5 -55.5t-189.5 -22l4 170q75 2 124 13.5t78.5 29.5t41.5 41t12 47q0 20 -15 32.5t-56 12.5q-16 0 -30 -1.5
t-31 -4.5l9 143q45 5 75 11t47.5 15t24.5 20.5t7 27.5q0 15 -14.5 25.5t-56.5 10.5q-48 0 -90.5 -11.5t-85.5 -36.5l-26 164q50 30 115 47t127 17z" />
    <glyph glyph-name="four.tosf" horiz-adv-x="607" 
d="M520 217h54l-28 -165h-49l-22 -152l-214 -10l23 162h-300v139l333 474l264 -15zM355 422q2 10 4.5 20.5t5.5 19.5l-3 1q-5 -8 -10.5 -17.5t-10.5 -17.5l-117 -178q-5 -8 -11 -15.5t-12 -15.5l1 -2h114z" />
    <glyph glyph-name="five.tosf" horiz-adv-x="607" 
d="M542 465h-255l-16 -78q14 2 28 3t30 1q97 0 153.5 -43t56.5 -125v-16q0 -8 -2 -17q-20 -140 -141.5 -218t-343.5 -78l3 178q131 0 191.5 29t60.5 75q0 17 -17 26.5t-59 9.5q-29 0 -61.5 -4t-60.5 -12l-62 85l83 376h431z" />
    <glyph glyph-name="six.tosf" horiz-adv-x="607" 
d="M372 488q100 0 151.5 -44.5t51.5 -130.5q0 -20 -3 -44q-10 -73 -37 -126t-67 -87t-92 -50t-113 -16q-121 0 -186 61t-65 188q0 128 46 225t119 162.5t162 99t176 33.5l8 -180q-96 0 -155.5 -32t-88.5 -78l1 -1q21 9 43.5 14.5t48.5 5.5zM303 324q-11 0 -28 -5.5
t-25 -15.5q-6 -45 -6 -72q0 -35 11 -47t34 -12q21 0 36 21t23 75q1 4 1 8v7q0 20 -10 30.5t-36 10.5z" />
    <glyph glyph-name="seven.tosf" horiz-adv-x="607" 
d="M578 475l-311 -566h-256l305 512q5 8 10.5 16t11.5 16l-1 2h-282l42 200h507z" />
    <glyph glyph-name="eight.tosf" horiz-adv-x="607" 
d="M252 -13q-136 0 -200.5 45.5t-64.5 129.5q0 23 5 46.5t16.5 46.5t31 44.5t48.5 39.5q-16 19 -25 44t-9 58q0 52 17.5 93t54 70t91.5 44.5t130 15.5q64 0 109 -11t74 -31.5t42.5 -49.5t13.5 -65q0 -50 -20.5 -88.5t-53.5 -66.5q28 -20 45 -49t17 -73q0 -119 -84.5 -181
t-237.5 -62zM247 253q-15 -13 -24.5 -27t-9.5 -32q0 -23 17.5 -33t50.5 -10q24 0 42 8t18 29q0 25 -25 38t-69 27zM321 503q-22 0 -36.5 -9t-14.5 -26q0 -22 19.5 -33.5t57.5 -21.5q12 11 20.5 23.5t8.5 28.5q0 18 -12.5 28t-42.5 10z" />
    <glyph glyph-name="nine.tosf" horiz-adv-x="607" 
d="M341 663q121 0 181.5 -59.5t60.5 -174.5q0 -35 -6 -75q-18 -126 -65 -213.5t-115 -141.5t-152 -78.5t-175 -24.5l2 176q81 0 147 28t96 90l-2 2q-41 -18 -95 -18q-44 0 -80 11t-62 33.5t-40 57t-14 81.5q0 72 22 128.5t63 96t100.5 60.5t133.5 21zM310 482q-25 0 -43 -21
t-18 -81q0 -23 10.5 -32t33.5 -9q24 0 36.5 9t18.5 22t7 28t1 27q0 36 -12 46.5t-34 10.5z" />
    <glyph glyph-name="cent.tosf" horiz-adv-x="607" 
d="M557 740l-31 -122q20 -3 37.5 -7t31.5 -9l-38 -185q-26 7 -55 11t-54 4q-42 0 -70 -6t-46.5 -20t-28.5 -38.5t-15 -61.5q-2 -8 -2 -15v-13q0 -56 35.5 -78.5t90.5 -22.5q32 0 62 5t56 11l-8 -169q-48 -26 -128 -33l-26 -111h-182l29 120q-91 23 -136 84t-45 157
q0 15 1.5 31.5t3.5 33.5q9 64 31.5 117.5t60 94t91 67t124.5 35.5l30 120h181z" />
    <glyph glyph-name="sterling.tosf" horiz-adv-x="607" 
d="M42 393h39q-4 15 -4 34q0 42 17.5 84t58 75t105.5 53.5t160 20.5q57 0 98 -6t76 -15l-49 -168q-28 6 -61 10.5t-65 4.5q-34 0 -55.5 -5t-33.5 -14t-16 -22t-4 -29v-12q0 -6 1 -11h217l-21 -144h-185v-1q-3 -26 -17.5 -47.5t-37.5 -35.5l1 -2q38 8 77.5 11t70.5 3
q41 0 72.5 -2.5t62.5 -7.5l-35 -174q-57 7 -117.5 9.5t-120.5 2.5q-34 0 -66 -0.5t-65 -1t-68.5 -2.5t-77.5 -5l18 176q31 2 57 20t26 57h-71z" />
    <glyph glyph-name="currency.tosf" horiz-adv-x="607" 
d="M329 534q38 0 72 -14l91 79l97 -113l-86 -76q4 -14 6.5 -28.5t2.5 -31.5q0 -27 -7 -53t-20 -49l60 -69l-129 -113l-56 64q-46 -19 -91 -19q-46 0 -86 19l-75 -65l-97 114l79 69q-2 10 -3 21t-1 22q0 66 33 119l-64 76l129 113l68 -79q37 14 77 14zM308 395
q-15 0 -29 -6.5t-25.5 -17t-18 -24.5t-6.5 -30q0 -26 17 -43t43 -17q32 0 55.5 23.5t23.5 55.5q0 25 -17 42t-43 17z" />
    <glyph glyph-name="yen.tosf" horiz-adv-x="607" 
d="M133 320l-101 328h245l25 -238q1 -10 2 -20.5t1 -20.5h2q2 9 5.5 19t7.5 19l93 241h241l-192 -328h80l-13 -97h-122l-4 -28h122l-14 -97h-122l-13 -98h-244l13 98h-112l14 97h112l4 28h-112l13 97h69z" />
    <glyph glyph-name="uni2007.tosf" horiz-adv-x="607" 
 />
    <glyph glyph-name="franc.tosf" horiz-adv-x="607" 
d="M49 191l65 458h496l-22 -180h-279l-9 -66h201l-26 -169h-199l-6 -43h57l-18 -133h-57l-8 -58h-221l8 58h-45l18 133h45z" />
    <glyph glyph-name="lira.tosf" horiz-adv-x="607" 
d="M49 426h28q0 42 17 84t57 75.5t105 54t160 20.5q57 0 98 -6t76 -15l-49 -167q-28 7 -61 11t-65 4q-59 0 -82.5 -17t-26.5 -44h217l-13 -95h-197q3 -14 3 -24h191l-14 -95h-191q-7 -14 -17 -26.5t-24 -20.5l1 -2q38 8 78 11t72 3q41 0 72.5 -2.5t62.5 -7.5l-35 -174
q-57 7 -117.5 9.5t-120.5 2.5q-34 0 -66 -0.5t-65 -1t-68.5 -2.5t-77.5 -5l18 176q27 0 47 13t28 27h-53l7 95h53q-2 6 -2.5 12t-1.5 12h-48z" />
    <glyph glyph-name="peseta.tosf" horiz-adv-x="607" 
d="M327 649q135 0 193 -47.5t58 -144.5h33l-14 -97h-33q-25 -86 -96.5 -133.5t-206.5 -47.5h-34l-25 -179h-214l50 360h-22l14 97h22l27 192h248zM270 491l-5 -34h91q-2 20 -13.5 27t-37.5 7h-35zM282 329q24 0 38 5t22 26h-91l-4 -31h35z" />
    <glyph glyph-name="Euro.tosf" horiz-adv-x="607" 
d="M548 463q-17 5 -38.5 7.5t-39.5 2.5q-52 0 -82.5 -10t-45.5 -29h191l-47 -101h-182q-3 -12 -3 -23h177l-46 -99h-115q14 -21 41.5 -32.5t63.5 -11.5q33 0 58 5t52 13l-17 -161q-32 -17 -77 -26.5t-106 -9.5q-134 0 -208 57.5t-86 165.5h-40l14 99h28q0 11 3 23h-28
l14 101h40q40 104 129.5 164t236.5 60q52 0 103.5 -8t85.5 -23z" />
    <glyph glyph-name="f_i.sc" horiz-adv-x="868" 
d="M282 467l-10 -73h219l-26 -172h-217l-31 -222h-227l91 649h490l-22 -182h-267zM634 649h233l-91 -649h-233z" />
    <glyph glyph-name="f_l.sc" horiz-adv-x="1069" 
d="M282 467l-10 -73h219l-26 -172h-217l-31 -222h-227l91 649h490l-22 -182h-267zM1033 182l-30 -182h-462l91 649h228l-66 -467h239z" />
    <glyph glyph-name="exclam.sc" horiz-adv-x="285" 
d="M40 207l30 442h226l-90 -442h-166zM118 168q51 0 74 -18.5t23 -53.5q0 -49 -29.5 -78t-92.5 -29q-50 0 -73.5 15t-23.5 53q0 52 29.5 81.5t92.5 29.5z" />
    <glyph glyph-name="ampersand.sc" horiz-adv-x="679" 
d="M649 362q-8 -33 -29 -75t-53 -87q20 -10 40.5 -17.5t42.5 -13.5l-99 -177q-66 22 -135 65q-50 -32 -108.5 -51t-125.5 -19q-56 0 -95 14t-63 37t-34.5 52.5t-10.5 61.5q0 37 11 67t29.5 55.5t43.5 46t52 37.5q-34 62 -34 112q0 37 14 71t44 60.5t78 42t116 15.5
q44 0 81.5 -9t64.5 -26.5t42.5 -41.5t15.5 -54q0 -32 -15 -59.5t-39 -50.5t-54.5 -43.5t-61.5 -39.5q13 -13 28.5 -26t32.5 -26q13 19 23.5 39t18.5 40h179zM238 151q11 0 23.5 2t24.5 5q-20 15 -38 32t-34 34q-16 -22 -16 -44q0 -16 11 -22.5t29 -6.5zM307 514
q-14 0 -23 -8t-9 -26q0 -13 8 -34q19 12 31 23.5t12 25.5q0 19 -19 19z" />
    <glyph glyph-name="question.sc" horiz-adv-x="461" 
d="M256 656q107 0 159.5 -41t52.5 -110q0 -80 -48 -135t-124 -90l-16 -72h-164l8 144q24 9 46 19.5t38.5 22.5t26.5 25.5t10 29.5q0 11 -10 19.5t-35 8.5q-64 0 -114 -36l-50 156q19 13 44.5 24t54.5 19t60 12t61 4zM190 168q51 0 73 -18.5t22 -52.5q0 -50 -28.5 -79
t-91.5 -29q-51 0 -74.5 15t-23.5 53q0 52 30 81.5t93 29.5z" />
    <glyph glyph-name="grave.sc" horiz-adv-x="413" 
d="M210 676l-114 124h246l33 -124h-165z" />
    <glyph glyph-name="a.sc" horiz-adv-x="698" 
d="M392 98h-173l-38 -98h-240l312 649h268l136 -649h-254zM355 444q-3 -10 -6.5 -19t-7.5 -19l-56 -142h90l-15 139q-3 21 -3 41h-2z" />
    <glyph glyph-name="b.sc" horiz-adv-x="628" 
d="M391 649q114 0 169.5 -41.5t55.5 -106.5q0 -60 -30.5 -99t-75.5 -59v-2q45 -15 66.5 -46t21.5 -74q0 -102 -76 -161.5t-225 -59.5h-307l91 649h310zM230 167h91q29 0 40 10.5t11 45.5q0 15 -9 21.5t-32 6.5h-89zM264 399h84q25 0 35 10.5t10 42.5q0 15 -7.5 20.5
t-25.5 5.5h-85z" />
    <glyph glyph-name="c.sc" horiz-adv-x="531" 
d="M398 661q40 0 81.5 -7t72.5 -17l-46 -175q-25 8 -54.5 13t-66.5 5q-38 0 -61.5 -7.5t-38 -25.5t-23 -48t-14.5 -74t-6 -73q0 -25 5 -41.5t17 -26.5t31 -14t48 -4q33 0 65.5 6t61.5 17l-2 -165q-41 -17 -89 -26.5t-93 -9.5q-140 0 -211 64.5t-71 195.5q0 37 6 78
q11 78 39.5 140t76.5 105.5t115.5 66.5t156.5 23z" />
    <glyph glyph-name="d.sc" horiz-adv-x="658" 
d="M363 649q148 0 215 -60t67 -179q0 -20 -2 -40.5t-5 -43.5q-12 -86 -41.5 -148t-75 -101.5t-107.5 -58t-139 -18.5h-285l91 649h282zM242 182h52q27 0 44 4.5t29 19.5t19.5 44t14.5 79q6 43 6 71q0 42 -16.5 54.5t-55.5 12.5h-53z" />
    <glyph glyph-name="e.sc" horiz-adv-x="563" 
d="M520 176l-28 -176h-502l91 649h491l-22 -178h-267l-9 -64h217l-23 -159h-217l-10 -72h279z" />
    <glyph glyph-name="f.sc" horiz-adv-x="551" 
d="M282 467l-10 -73h219l-26 -172h-217l-31 -222h-227l91 649h490l-22 -182h-267z" />
    <glyph glyph-name="g.sc" horiz-adv-x="600" 
d="M408 661q51 0 102.5 -7t92.5 -21l-45 -180q-36 12 -80 18t-81 6q-43 0 -69 -7.5t-41.5 -24.5t-23.5 -46.5t-14 -72.5q-4 -25 -5.5 -44.5t-1.5 -35.5q0 -23 4.5 -38t14.5 -23.5t26 -11.5t39 -3h17l26 183h201l-47 -332q-21 -8 -46.5 -14t-54 -10t-57.5 -6.5t-56 -2.5
q-83 0 -141 17.5t-94.5 50.5t-53 80.5t-16.5 107.5q0 38 6 80q11 80 39.5 142.5t77 106t118.5 66t163 22.5z" />
    <glyph glyph-name="h.sc" horiz-adv-x="670" 
d="M353 0l32 234h-136l-32 -234h-227l91 649h227l-33 -234h136l33 234h227l-91 -649h-227z" />
    <glyph glyph-name="i.sc" horiz-adv-x="317" 
d="M83 649h233l-91 -649h-233z" />
    <glyph glyph-name="j.sc" horiz-adv-x="442" 
d="M393 252q-10 -71 -35 -121.5t-63.5 -82t-90 -46t-114.5 -14.5q-40 0 -71.5 5t-56.5 14l35 171q13 -6 33 -9t39 -3q27 0 43.5 4.5t26.5 14t15 25.5t8 40l56 399h231z" />
    <glyph glyph-name="k.sc" horiz-adv-x="679" 
d="M362 0l-80 245h-31l-34 -245h-227l91 649h226l-34 -237h33l154 237h256l-212 -306l129 -343h-271z" />
    <glyph glyph-name="l.sc" horiz-adv-x="518" 
d="M482 182l-30 -182h-462l91 649h228l-66 -467h239z" />
    <glyph glyph-name="m.sc" horiz-adv-x="855" 
d="M327 649l82 -308q2 -10 4.5 -20t4.5 -20h2q7 18 18 36l172 312h246l-91 -649h-208l39 283q3 19 8 41l-2 1l-156 -325h-146l-65 315h-2q-1 -10 -1.5 -20.5t-2.5 -20.5l-38 -274h-201l91 649h246z" />
    <glyph glyph-name="n.sc" horiz-adv-x="676" 
d="M405 0l-172 304l-2 -1q-1 -10 -1.5 -20.5t-2.5 -20.5l-36 -262h-201l91 649h184l171 -294l2 1q0 10 1 20t3 20l35 253h200l-91 -649h-181z" />
    <glyph glyph-name="o.sc" horiz-adv-x="679" 
d="M381 659q147 0 215.5 -64t68.5 -188q0 -40 -6 -83q-23 -168 -112 -252t-260 -84q-146 0 -214.5 64.5t-68.5 189.5q0 38 6 82q23 164 112 249.5t259 85.5zM357 481q-26 0 -43.5 -6.5t-29.5 -23.5t-20 -47.5t-15 -78.5q-4 -25 -5.5 -44.5t-1.5 -35.5q0 -47 16.5 -63
t54.5 -16q25 0 42.5 6.5t29.5 24.5t20 49t15 79q4 26 5.5 46.5t1.5 36.5q0 44 -16 58.5t-54 14.5z" />
    <glyph glyph-name="p.sc" horiz-adv-x="621" 
d="M347 649q142 0 205.5 -48.5t63.5 -143.5q0 -64 -19 -116.5t-59.5 -90t-104 -58.5t-153.5 -21h-39l-24 -171h-227l91 649h266zM263 335h40q19 0 31.5 2t21 9t13.5 21t8 38q3 19 3 33q0 25 -13 33t-45 8h-39z" />
    <glyph glyph-name="q.sc" horiz-adv-x="679" 
d="M381 659q147 0 215.5 -64t68.5 -188q0 -143 -49 -240t-133 -139l81 -112l-265 -32l-39 105q-133 6 -194.5 70.5t-61.5 183.5q0 37 6 81q23 164 112 249.5t259 85.5zM357 481q-26 0 -43.5 -6.5t-29.5 -23.5t-20 -47.5t-15 -78.5q-4 -25 -5.5 -44.5t-1.5 -35.5
q0 -47 16.5 -63t54.5 -16q25 0 42.5 6.5t29.5 24.5t20 49t15 79q4 26 5.5 46.5t1.5 36.5q0 44 -16 58.5t-54 14.5z" />
    <glyph glyph-name="r.sc" horiz-adv-x="645" 
d="M355 649q131 0 199 -43.5t68 -137.5q0 -37 -9 -71.5t-24.5 -63t-38 -50.5t-49.5 -34l105 -249h-265l-54 203h-42l-28 -203h-227l91 649h274zM266 354h47q16 0 27.5 2t19 8.5t12 19.5t7.5 35q1 8 1.5 14.5t0.5 11.5q0 23 -11.5 30.5t-38.5 7.5h-47z" />
    <glyph glyph-name="s.sc" horiz-adv-x="539" 
d="M340 660q50 0 105 -8.5t97 -24.5l-48 -169q-47 12 -90.5 18.5t-78.5 6.5q-23 0 -37 -2t-21.5 -6t-10 -9.5t-2.5 -12.5q0 -13 19 -21t47 -16.5t61 -20.5t61 -31.5t47 -50t19 -75.5q0 -57 -23 -103.5t-64.5 -79t-98.5 -50t-124 -17.5q-60 0 -116.5 12t-102.5 35l51 176
q47 -23 94 -35.5t96 -12.5q37 0 51.5 6.5t14.5 21.5q0 11 -18.5 19t-47 17t-61 21.5t-61 33t-47 51.5t-18.5 77q0 51 18.5 96.5t56.5 79.5t95.5 54t136.5 20z" />
    <glyph glyph-name="t.sc" horiz-adv-x="561" 
d="M412 470l-66 -470h-231l66 470h-158l29 179h538l-20 -179h-158z" />
    <glyph glyph-name="u.sc" horiz-adv-x="658" 
d="M606 237q-17 -120 -97.5 -184.5t-230.5 -64.5q-134 0 -199.5 51.5t-65.5 149.5q0 11 1 22.5t3 25.5l58 412h228l-59 -416q-1 -5 -1 -9v-9q0 -23 13 -34t47 -11q40 0 55.5 14t20.5 49l59 416h226z" />
    <glyph glyph-name="v.sc" horiz-adv-x="672" 
d="M724 649l-314 -649h-248l-132 649h250l40 -379q1 -10 2 -21t1 -20h2q3 9 6.5 19t7.5 19l149 382h236z" />
    <glyph glyph-name="w.sc" horiz-adv-x="978" 
d="M657 649l16 -393q0 -10 0.5 -20.5t0.5 -20.5h2q2 10 4.5 20t5.5 20l110 394h225l-249 -649h-276v386q0 11 1 21h-2q-2 -10 -4 -18.5t-6 -20.5l-110 -368h-269l-66 649h234v-419q0 -10 -1 -20h2q2 9 5 19l6 20l127 400h244z" />
    <glyph glyph-name="x.sc" horiz-adv-x="671" 
d="M490 340l132 -340h-257l-41 140q-3 9 -5.5 19t-4.5 20h-2q-5 -9 -9 -17t-10 -19l-82 -143h-263l223 335l-131 314h270l36 -118l6 -20q3 -10 5 -19h2q4 8 9.5 17.5t10.5 17.5l75 122h259z" />
    <glyph glyph-name="y.sc" horiz-adv-x="672" 
d="M286 649l51 -223l8 -40h2q4 10 8 19t9 18l113 226h247l-291 -454l-27 -195h-233l27 195l-170 454h256z" />
    <glyph glyph-name="z.sc" horiz-adv-x="572" 
d="M-27 0l18 134l269 304q6 7 12.5 14t14.5 14l-1 2h-244l32 181h512l-22 -152l-254 -285q-7 -8 -13.5 -15t-13.5 -13v-2h242l-27 -182h-525z" />
    <glyph glyph-name="exclamdown.sc" horiz-adv-x="301" 
d="M252 421l-47 -511h-235l97 511h185zM191 670q55 0 80.5 -17.5t25.5 -57.5q0 -59 -32.5 -91.5t-101.5 -32.5q-56 0 -80.5 20.5t-24.5 58.5q0 54 32 87t101 33z" />
    <glyph glyph-name="dieresis.sc" horiz-adv-x="413" 
d="M165 809q39 0 57 -14t18 -41q0 -84 -94 -84q-39 0 -58 12.5t-19 41.5q0 85 96 85zM377 809q76 0 76 -55q0 -84 -95 -84q-39 0 -58 12.5t-19 41.5q0 85 96 85z" />
    <glyph glyph-name="macron.sc" horiz-adv-x="413" 
d="M432 683h-361l16 112h361z" />
    <glyph glyph-name="acute.sc" horiz-adv-x="371" 
d="M485 800l-174 -124h-181l91 124h264z" />
    <glyph glyph-name="cedilla.sc" horiz-adv-x="413" 
d="M115 23h148l-62 -210h-196z" />
    <glyph glyph-name="questiondown.sc" horiz-adv-x="495" 
d="M211 -62q-118 0 -176 43.5t-58 116.5q0 43 14 79.5t39.5 67t61 55t77.5 44.5l18 80h177l-10 -156q-28 -11 -52.5 -23t-43 -25.5t-29.5 -28.5t-11 -32q0 -14 12.5 -23t40.5 -9q35 0 68 10.5t59 28.5l55 -165q-43 -29 -108.5 -46t-133.5 -17zM310 663q54 0 80 -17.5
t26 -58.5q0 -58 -33 -90.5t-101 -32.5q-56 0 -81 21t-25 59q0 54 32.5 86.5t101.5 32.5z" />
    <glyph glyph-name="germandbls.sc" horiz-adv-x="1078" 
d="M340 660q50 0 105 -8.5t97 -24.5l-48 -169q-47 12 -90.5 18.5t-78.5 6.5q-23 0 -37 -2t-21.5 -6t-10 -9.5t-2.5 -12.5q0 -13 19 -21t47 -16.5t61 -20.5t61 -31.5t47 -50t19 -75.5q0 -57 -23 -103.5t-64.5 -79t-98.5 -50t-124 -17.5q-60 0 -116.5 12t-102.5 35l51 176
q47 -23 94 -35.5t96 -12.5q37 0 51.5 6.5t14.5 21.5q0 11 -18.5 19t-47 17t-61 21.5t-61 33t-47 51.5t-18.5 77q0 51 18.5 96.5t56.5 79.5t95.5 54t136.5 20zM879 660q50 0 105 -8.5t97 -24.5l-48 -169q-47 12 -90.5 18.5t-78.5 6.5q-23 0 -37 -2t-21.5 -6t-10 -9.5
t-2.5 -12.5q0 -13 19 -21t47 -16.5t61 -20.5t61 -31.5t47 -50t19 -75.5q0 -57 -23 -103.5t-64.5 -79t-98.5 -50t-124 -17.5q-60 0 -116.5 12t-102.5 35l51 176q47 -23 94 -35.5t96 -12.5q37 0 51.5 6.5t14.5 21.5q0 11 -18.5 19t-47 17t-61 21.5t-61 33t-47 51.5t-18.5 77
q0 51 18.5 96.5t56.5 79.5t95.5 54t136.5 20z" />
    <glyph glyph-name="agrave.sc" horiz-adv-x="698" 
d="M392 98h-173l-38 -98h-240l312 649h268l136 -649h-254zM355 444q-3 -10 -6.5 -19t-7.5 -19l-56 -142h90l-15 139q-3 21 -3 41h-2zM336 676l-114 124h246l33 -124h-165z" />
    <glyph glyph-name="aacute.sc" horiz-adv-x="698" 
d="M392 98h-173l-38 -98h-240l312 649h268l136 -649h-254zM355 444q-3 -10 -6.5 -19t-7.5 -19l-56 -142h90l-15 139q-3 21 -3 41h-2zM652 800l-174 -124h-181l91 124h264z" />
    <glyph glyph-name="acircumflex.sc" horiz-adv-x="698" 
d="M392 98h-173l-38 -98h-240l312 649h268l136 -649h-254zM355 444q-3 -10 -6.5 -19t-7.5 -19l-56 -142h90l-15 139q-3 21 -3 41h-2zM503 800l78 -124h-164l-17 47h-5l-31 -47h-163l109 124h193z" />
    </font>
</defs>
</svg>
