<?xml version="1.0" standalone="no"?>
<!DOCTYPE svg PUBLIC "-//W3C//DTD SVG 1.1//EN" "http://www.w3.org/Graphics/SVG/1.1/DTD/svg11.dtd" >
<svg xmlns="http://www.w3.org/2000/svg" xmlns:xlink="http://www.w3.org/1999/xlink" version="1.1">
<metadata>
Created by FontForge 20170731 at Thu May 16 15:43:01 2019
 By Aleksey,,,
Copyright (c) 2007-2019 Monotype GmbH. All rights reserved
</metadata>
<defs>
<font id="ClanPro-Black" horiz-adv-x="409" >
  <font-face 
    font-family="Clan Pro Black"
    font-weight="900"
    font-stretch="normal"
    units-per-em="1000"
    panose-1="2 0 10 3 4 0 0 2 0 4"
    ascent="787"
    descent="-213"
    x-height="612"
    cap-height="750"
    bbox="-307 -241 1278 964"
    underline-thickness="100"
    underline-position="-200"
    unicode-range="U+000D-FEFF"
  />
<missing-glyph horiz-adv-x="634" 
d="M50 750h534v-750h-534v750zM474 110v530h-314v-530h314z" />
    <glyph glyph-name="IJ" unicode="IJ" horiz-adv-x="895" 
d="M65 750h214v-750h-214v750zM839 287q0 -84 -22.5 -142t-63.5 -93t-100 -50.5t-132 -15.5q-46 0 -82.5 7t-66.5 20l11 169q17 -9 44 -14.5t60 -5.5q70 0 104.5 29.5t34.5 98.5v460h213v-463z" />
    <glyph glyph-name="ij" unicode="ij" horiz-adv-x="648" 
d="M63 0v606l197 9v-615h-197zM266 732q0 -38 -24.5 -56.5t-79.5 -18.5q-54 0 -79.5 16.5t-25.5 58.5q0 37 25.5 56t79.5 19q55 0 79.5 -19t24.5 -56zM586 13q0 -52 -15.5 -87t-42 -56t-61.5 -29.5t-74 -8.5q-51 0 -91 14l9 129q18 -5 34 -5q21 0 34.5 11t13.5 37v589l193 8
v-602zM591 732q0 -37 -24.5 -55.5t-80.5 -18.5q-54 0 -79.5 16.5t-25.5 57.5q0 37 25.5 56t79.5 19q56 0 80.5 -19t24.5 -56z" />
    <glyph glyph-name="f_i" unicode="fi" horiz-adv-x="720" 
d="M276 0h-192v474h-69v138h68v24q0 33 13 62.5t39.5 52t67 36t96.5 13.5q28 0 52 -3t41 -8l-5 -121q-11 2 -22 3t-24 1q-37 0 -51 -10.5t-14 -29.5v-20h378v-612h-196v474h-182v-474zM662 732q0 -37 -24.5 -55.5t-79.5 -18.5q-54 0 -79.5 16.5t-25.5 57.5q0 37 25.5 56
t79.5 19q55 0 79.5 -19t24.5 -56z" />
    <glyph glyph-name="f_j" unicode="fj" horiz-adv-x="720" 
d="M84 0v474h-69v138h68v24q0 33 13 62.5t39.5 52t67 36t96.5 13.5q28 0 52 -3t41 -8l-5 -121q-11 2 -22 3t-24 1q-37 0 -51 -10.5t-14 -29.5v-20h377v-599q0 -52 -15.5 -87t-42 -56t-61.5 -29.5t-74 -8.5q-51 0 -91 14l9 129q18 -5 34 -5q21 0 35 11t14 37v456h-185v-474
h-192zM662 732q0 -37 -24.5 -55.5t-79.5 -18.5q-54 0 -79.5 16.5t-25.5 57.5q0 37 25.5 56t79.5 19q55 0 79.5 -19t24.5 -56z" />
    <glyph glyph-name="f_l" unicode="fl" horiz-adv-x="685" 
d="M434 0v670q-20 3 -38 5t-35 2q-51 0 -68 -14t-17 -39v-12h81v-138h-81v-474h-192v474h-69v138h68v19q0 34 13.5 64.5t45.5 54t86 37.5t135 14q35 0 66.5 -2.5t63 -6t64.5 -7t71 -4.5v-781h-194z" />
    <glyph glyph-name=".notdef" horiz-adv-x="634" 
d="M50 750h534v-750h-534v750zM474 110v530h-314v-530h314z" />
    <glyph glyph-name=".null" horiz-adv-x="0" 
 />
    <glyph glyph-name=".null" horiz-adv-x="0" 
 />
    <glyph glyph-name="nonmarkingreturn" unicode="&#xd;" horiz-adv-x="245" 
 />
    <glyph glyph-name="space" unicode=" " horiz-adv-x="245" 
 />
    <glyph glyph-name="exclam" unicode="!" horiz-adv-x="303" 
d="M76 227l-29 523h209l-28 -523h-152zM259 77q0 -42 -24.5 -65.5t-79.5 -23.5q-54 0 -78.5 20.5t-24.5 68.5q0 43 24.5 66.5t78.5 23.5q55 0 79.5 -23.5t24.5 -66.5z" />
    <glyph glyph-name="quotedbl" unicode="&#x22;" horiz-adv-x="458" 
d="M439 765l-32 -291h-124l-26 291h182zM222 765l-32 -291h-124l-26 291h182z" />
    <glyph glyph-name="numbersign" unicode="#" horiz-adv-x="636" 
d="M128 308l17 126h-97v140h113l22 176h154l-22 -176h67l21 176h151l-22 -176h59v-140h-74l-17 -126h91l1 -143h-108l-20 -165h-150l20 165h-69l-20 -165h-153l20 165h-64v143h80zM282 308h68l17 126h-68z" />
    <glyph glyph-name="dollar" unicode="$" horiz-adv-x="636" 
d="M203 -70l10 63q-44 5 -83 15.5t-67 25.5q7 46 11.5 85t12.5 87q35 -18 74 -31.5t79 -21.5l24 142q-37 13 -73.5 31.5t-65.5 46t-47 66t-18 92.5q0 111 69 169.5t212 61.5l11 64l114 -10l-11 -62q27 -4 51.5 -9.5t42.5 -13.5l-10 -166q-26 7 -55.5 12t-58.5 9l-23 -129
q34 -12 67.5 -29.5t59.5 -44t42.5 -64t16.5 -90.5q0 -122 -64.5 -181.5t-206.5 -61.5l-11 -65zM430 203q0 19 -17.5 32t-46.5 24l-20 -114q46 3 65 18.5t19 39.5zM236 540q0 -17 16.5 -28.5t43.5 -21.5l17 101q-44 -2 -60.5 -16.5t-16.5 -34.5z" />
    <glyph glyph-name="percent" unicode="%" horiz-adv-x="756" 
d="M348 583q0 -88 -42 -132t-123 -44q-85 0 -123.5 45t-38.5 131q0 91 38.5 132.5t124.5 41.5q81 0 122.5 -40.5t41.5 -133.5zM221 583q0 37 -9 49t-28 12t-27.5 -12t-8.5 -49q0 -36 9 -48t27 -12q20 0 28.5 11.5t8.5 48.5zM635 620l-418 -586l-108 85l418 586zM735 164
q0 -87 -42 -131t-123 -44q-85 0 -123.5 44.5t-38.5 130.5q0 91 38.5 134t124.5 43q81 0 122.5 -41.5t41.5 -135.5zM608 164q0 35 -9 47t-28 12t-27.5 -12t-8.5 -47q0 -36 8.5 -47.5t27.5 -11.5t28 11.5t9 47.5z" />
    <glyph glyph-name="ampersand" unicode="&#x26;" horiz-adv-x="735" 
d="M660 -9q-78 31 -159 83q-49 -39 -109.5 -63.5t-135.5 -24.5q-65 0 -110.5 18.5t-74 49.5t-41.5 69.5t-13 79.5q0 36 10 67t27.5 57t40.5 47.5t49 40.5q-29 44 -45 84t-16 73q0 39 11.5 73.5t39 60.5t72.5 41t111 15q49 0 91 -11.5t73 -32.5t48.5 -51t17.5 -67
q0 -34 -14.5 -63t-38.5 -54.5t-54.5 -48t-61.5 -43.5q23 -23 49 -46t55 -45q14 26 25 53.5t18 54.5h165q-5 -39 -23 -91.5t-50 -106.5q28 -15 55.5 -27.5t56.5 -22.5zM287 158q41 0 77 18q-63 53 -118 112q-14 -16 -21.5 -32.5t-7.5 -35.5q0 -32 18.5 -47t51.5 -15zM263 572
q0 -26 23 -66q29 19 47.5 37.5t19.5 39.5q0 20 -12.5 29t-27.5 9q-23 0 -36.5 -12t-13.5 -37z" />
    <glyph glyph-name="quotesingle" unicode="'" horiz-adv-x="240" 
d="M211 765l-32 -291h-124l-26 291h182z" />
    <glyph glyph-name="parenleft" unicode="(" horiz-adv-x="373" 
d="M370 773q-62 -97 -89.5 -213.5t-27.5 -236.5t28 -236.5t89 -213.5l-141 -12q-81 87 -121.5 207t-40.5 255q0 137 40.5 255.5t121.5 206.5z" />
    <glyph glyph-name="parenright" unicode=")" horiz-adv-x="373" 
d="M144 785q82 -88 122 -206.5t40 -255.5q0 -135 -40.5 -255t-121.5 -207l-141 12q62 97 89.5 213.5t27.5 236.5t-27.5 236.5t-89.5 213.5z" />
    <glyph glyph-name="asterisk" unicode="*" horiz-adv-x="388" 
d="M239 779l14 -98l94 22l30 -86l-91 -44l52 -86l-66 -51l-75 74l-77 -75l-70 48l52 90l-92 43l33 87l94 -22l16 98h86z" />
    <glyph glyph-name="plus" unicode="+" horiz-adv-x="605" 
d="M386 249v-161h-169v161h-162v170h162v161h169v-161h163v-170h-163z" />
    <glyph glyph-name="comma" unicode="," horiz-adv-x="274" 
d="M135 183q55 0 80.5 -28.5t25.5 -79.5q0 -23 -9 -52.5t-23.5 -59.5t-33 -59t-37.5 -50l-68 16l25 120q-23 11 -42.5 35t-19.5 56q0 43 23 72.5t79 29.5z" />
    <glyph glyph-name="hyphen" unicode="-" horiz-adv-x="381" 
d="M340 409v-133h-299v133h299z" />
    <glyph glyph-name="period" unicode="." horiz-adv-x="280" 
d="M247 87q0 -46 -25 -72.5t-82 -26.5t-82 22.5t-25 76.5q0 48 25 74t82 26t82 -26t25 -74z" />
    <glyph glyph-name="slash" unicode="/" horiz-adv-x="474" 
d="M484 779l-340 -898h-161l335 898h166z" />
    <glyph glyph-name="zero" unicode="0" horiz-adv-x="636" 
d="M603 371q0 -198 -69 -289.5t-218 -91.5q-75 0 -128.5 22.5t-88 69t-50.5 118.5t-16 171q0 105 16 179t50.5 120t88.5 67t130 21q75 0 128.5 -21t88.5 -67t51.5 -120t16.5 -179zM403 373q0 70 -5 112.5t-15.5 65t-26.5 29.5t-37 7q-23 0 -39 -7.5t-27 -30.5t-16 -65
t-5 -111q0 -72 5 -115t16 -65.5t27 -29t39 -6.5q21 0 37 7.5t26.5 30t15.5 65t5 113.5z" />
    <glyph glyph-name="one" unicode="1" horiz-adv-x="636" 
d="M152 140h97v374l-123 -67l-20 161l228 142h123v-610h97v-140h-402v140z" />
    <glyph glyph-name="two" unicode="2" horiz-adv-x="636" 
d="M583 533q0 -48 -18.5 -91.5t-52.5 -86.5t-81.5 -87t-104.5 -92v-3h253l-4 -173h-507v128q64 66 119.5 120.5t96.5 101.5t64 87t23 76q0 33 -21.5 51.5t-71.5 18.5q-46 0 -88 -17t-84 -44l-48 160q50 35 114.5 56t145.5 21q67 0 117 -16.5t83 -46.5t49 -71.5t16 -91.5z
" />
    <glyph glyph-name="three" unicode="3" horiz-adv-x="636" 
d="M590 226q0 -109 -73 -172.5t-229 -63.5q-68 0 -126.5 15.5t-101.5 40.5l37 153q45 -22 89.5 -34t95.5 -12q54 0 81.5 20.5t27.5 58.5q0 18 -6.5 33t-25.5 26t-53.5 17t-89.5 6v140q53 0 86 5t51.5 15t25 24t6.5 32q0 27 -22.5 43.5t-76.5 16.5t-99.5 -16t-85.5 -45
l-46 154q46 34 110.5 55t134.5 21q131 0 202.5 -57.5t71.5 -157.5q0 -105 -94 -155v-2q53 -22 81.5 -61.5t28.5 -99.5z" />
    <glyph glyph-name="four" unicode="4" horiz-adv-x="636" 
d="M550 132v-132h-188v132h-322l-17 123l284 495h243v-454h66l-4 -164h-62zM375 479l5 81l-2 1l-38 -72l-106 -193h134z" />
    <glyph glyph-name="five" unicode="5" horiz-adv-x="636" 
d="M590 260q0 -62 -16.5 -112t-51 -85t-89.5 -54t-131 -19q-65 0 -126.5 13.5t-112.5 41.5l36 154q23 -11 44.5 -19.5t43 -14t45 -8.5t50.5 -3q63 0 85 22t22 67q0 42 -26 59.5t-81 17.5q-32 0 -69 -5.5t-68 -14.5l-70 75l31 375h440l7 -173h-285l-8 -104q39 6 84 6
q117 0 181.5 -55t64.5 -164z" />
    <glyph glyph-name="six" unicode="6" horiz-adv-x="636" 
d="M601 266q0 -71 -18.5 -123t-54 -86t-86 -50.5t-113.5 -16.5q-71 0 -126 20t-92.5 64.5t-57 115t-19.5 171.5q0 192 86 295.5t256 103.5q51 0 95 -6.5t85 -21.5l-14 -167q-35 12 -69 17.5t-72 5.5q-80 0 -117.5 -31t-48.5 -93l2 -2q54 31 125 31q118 0 178.5 -56
t60.5 -171zM402 269q0 38 -18 57t-61 19q-9 0 -21 -2.5t-24 -7t-22 -10.5t-15 -14q0 -47 5 -77t15.5 -47.5t26.5 -24.5t39 -7q37 0 56 26t19 88z" />
    <glyph glyph-name="seven" unicode="7" horiz-adv-x="636" 
d="M596 583l-259 -583h-229l289 563h-360l10 186h549v-166z" />
    <glyph glyph-name="eight" unicode="8" horiz-adv-x="636" 
d="M33 226q0 46 22.5 90t67.5 75q-29 27 -46.5 66t-17.5 97q0 96 63 151t197 55q136 0 197.5 -56t61.5 -150q0 -48 -18.5 -86.5t-50.5 -66.5q40 -25 67 -66t27 -110q0 -235 -284 -235q-147 0 -216.5 61t-69.5 175zM406 211q0 21 -10.5 35.5t-28.5 26t-41.5 20.5t-49.5 18
q-20 -17 -34 -38.5t-14 -47.5q0 -46 23.5 -64t73.5 -18q36 0 58.5 14.5t22.5 53.5zM248 545q0 -18 8.5 -31.5t22.5 -23.5t33.5 -17.5t42.5 -14.5q20 16 31.5 35t11.5 44q0 35 -19 51.5t-61 16.5q-35 0 -52.5 -14t-17.5 -46z" />
    <glyph glyph-name="nine" unicode="9" horiz-adv-x="636" 
d="M599 401q0 -216 -82 -313.5t-247 -97.5q-67 0 -112 9t-88 27l29 160q37 -14 73 -22t79 -8q74 0 107 33.5t42 104.5l-2 2q-51 -29 -129 -29q-59 0 -103 17t-73.5 47.5t-44.5 73.5t-15 95q0 60 16.5 108t51 81.5t86 52t122.5 18.5q139 0 214.5 -89t75.5 -270zM397 461
q0 39 -6.5 65t-18.5 41.5t-28.5 21.5t-37.5 6q-39 0 -59 -20t-20 -67q0 -45 18.5 -66t64.5 -21q32 0 54.5 10.5t32.5 29.5z" />
    <glyph glyph-name="colon" unicode=":" horiz-adv-x="280" 
d="M247 473q0 -46 -25 -72.5t-82 -26.5t-82 22.5t-25 76.5q0 48 25 74t82 26t82 -26t25 -74zM247 87q0 -46 -25 -72.5t-82 -26.5t-82 22.5t-25 76.5q0 48 25 74t82 26t82 -26t25 -74z" />
    <glyph glyph-name="semicolon" unicode=";" horiz-adv-x="281" 
d="M248 473q0 -46 -25 -72.5t-82 -26.5t-82 22.5t-25 76.5q0 48 25 74t82 26t82 -26t25 -74zM141 183q55 0 80.5 -28.5t25.5 -79.5q0 -23 -9 -52.5t-23.5 -59.5t-33 -59t-37.5 -50l-68 16l25 120q-23 11 -42.5 35t-19.5 56q0 43 23 72.5t79 29.5z" />
    <glyph glyph-name="less" unicode="&#x3c;" horiz-adv-x="605" 
d="M383 360l-74 -31v-3l73 -33l140 -66v-176l-439 231v93l438 233v-184z" />
    <glyph glyph-name="equal" unicode="=" horiz-adv-x="605" 
d="M73 359v143h458v-143h-458zM73 144v143h458v-143h-458z" />
    <glyph glyph-name="greater" unicode="&#x3e;" horiz-adv-x="605" 
d="M83 227l139 66l74 33v3l-75 32l-137 63v184l438 -233v-93l-439 -231v176z" />
    <glyph glyph-name="question" unicode="?" horiz-adv-x="505" 
d="M485 563q0 -82 -44 -138.5t-119 -96.5l-7 -100h-150l-11 168q59 30 96 61.5t37 74.5q0 25 -19 40t-57 15q-39 0 -73 -12.5t-60 -34.5l-67 149q38 31 99.5 50.5t129.5 19.5q123 0 184 -53t61 -143zM342 77q0 -42 -24.5 -65.5t-78.5 -23.5t-79 20.5t-25 68.5q0 43 25 66.5
t79 23.5t78.5 -23.5t24.5 -66.5z" />
    <glyph glyph-name="at" unicode="@" horiz-adv-x="910" 
d="M454 602q56 0 91 -38l17 32l101 -6l-43 -274q-2 -10 -3 -20t-1 -20q0 -25 10 -43.5t40 -18.5q21 0 40.5 10.5t34 34t23 60.5t8.5 91q0 63 -17.5 116.5t-53 92.5t-89.5 61.5t-127 22.5q-88 0 -153 -27.5t-107.5 -75.5t-63.5 -113t-21 -140q0 -79 20.5 -145.5t63.5 -115
t108.5 -75.5t154.5 -27q58 0 107 10.5t87 25.5t66.5 32.5t46.5 32.5l42 -93q-26 -21 -62 -40.5t-80 -34.5t-96.5 -24.5t-111.5 -9.5q-105 0 -189 30.5t-143.5 89.5t-91.5 145.5t-32 198.5q0 93 30 176t88 146t143 100t196 37q91 0 163.5 -29.5t123.5 -82.5t78.5 -125.5
t27.5 -157.5q0 -86 -20 -146.5t-52.5 -98.5t-73 -55t-82.5 -17q-50 0 -83.5 17t-51.5 49q-25 -29 -61.5 -47.5t-87.5 -18.5q-32 0 -59.5 12.5t-48 37t-32.5 62t-12 87.5q0 61 18 117t50 99t75.5 68t94.5 25zM497 456q-4 8 -12 13.5t-21 5.5q-21 0 -38.5 -15.5t-29.5 -41
t-19 -58t-7 -66.5q0 -30 9.5 -49t32.5 -19q24 0 42 24.5t24 68.5z" />
    <glyph glyph-name="A" unicode="A" horiz-adv-x="748" 
d="M484 129h-232l-33 -129h-221l249 750h250l253 -750h-233zM349 506l-54 -210h147l-53 209l-18 80h-3z" />
    <glyph glyph-name="B" unicode="B" horiz-adv-x="693" 
d="M662 221q0 -51 -16.5 -92t-51 -69.5t-88.5 -44t-129 -15.5h-321v750h322q65 0 113.5 -14t81 -39.5t48.5 -61.5t16 -80q0 -61 -26.5 -99.5t-71.5 -58.5v-2q123 -38 123 -174zM453 236q0 38 -16.5 54t-59.5 16h-120v-141h123q40 0 56.5 14.5t16.5 56.5zM437 519
q0 35 -15 48.5t-52 13.5h-113v-128h115q36 0 50.5 15t14.5 51z" />
    <glyph glyph-name="C" unicode="C" horiz-adv-x="591" 
d="M546 562q-29 9 -64 15.5t-76 6.5q-46 0 -75.5 -10t-47 -34t-24 -63.5t-6.5 -98.5q0 -63 7 -104t25 -66t48 -35t76 -10q38 0 73.5 7t65.5 20l21 -164q-39 -18 -90 -29t-100 -11q-173 0 -259.5 96.5t-86.5 296.5q0 92 21 164t65.5 121t112.5 74.5t161 25.5q45 0 92.5 -8.5
t81.5 -21.5z" />
    <glyph glyph-name="D" unicode="D" horiz-adv-x="729" 
d="M696 379q0 -102 -22 -174t-65 -117.5t-107.5 -66.5t-148.5 -21h-297v750h294q92 0 157.5 -22t107.5 -67.5t61.5 -115.5t19.5 -166zM476 380q0 59 -6 96t-21 58t-39.5 28.5t-60.5 7.5h-84v-392h84q36 0 60.5 7t39 28.5t21 61.5t6.5 105z" />
    <glyph glyph-name="E" unicode="E" horiz-adv-x="616" 
d="M589 175l-4 -175h-529v750h516l3 -177h-310v-110h256v-160h-256v-128h324z" />
    <glyph glyph-name="F" unicode="F" horiz-adv-x="591" 
d="M265 569v-126h256l-2 -171h-254v-272h-209v750h515l3 -181h-309z" />
    <glyph glyph-name="G" unicode="G" horiz-adv-x="672" 
d="M630 27q-44 -19 -106.5 -30t-123.5 -11q-101 0 -170.5 25.5t-113.5 74.5t-63.5 121.5t-19.5 167.5q0 96 21.5 168.5t67 121t116 73.5t169.5 25q54 0 111 -8.5t102 -24.5l-20 -174q-40 14 -88 22t-93 8q-51 0 -83.5 -9.5t-50.5 -33.5t-25 -64.5t-7 -101.5q0 -64 6.5 -105
t23 -65t43.5 -33t68 -9q13 0 25.5 1t24.5 3v237h186v-379z" />
    <glyph glyph-name="H" unicode="H" horiz-adv-x="735" 
d="M470 0v290h-205v-290h-209v750h209v-280h205v280h209v-750h-209z" />
    <glyph glyph-name="I" unicode="I" horiz-adv-x="344" 
d="M65 750h214v-750h-214v750z" />
    <glyph glyph-name="J" unicode="J" horiz-adv-x="551" 
d="M495 287q0 -84 -22.5 -142t-63.5 -93t-100 -50.5t-132 -15.5q-46 0 -82.5 7t-66.5 20l11 169q17 -9 44 -14.5t60 -5.5q70 0 104.5 29.5t34.5 98.5v460h213v-463z" />
    <glyph glyph-name="K" unicode="K" horiz-adv-x="730" 
d="M476 0l-155 301h-56v-301h-209v750h209v-287h59l154 287h237l-202 -357l213 -393h-250z" />
    <glyph glyph-name="L" unicode="L" horiz-adv-x="565" 
d="M550 180l-4 -180h-490v750h211v-570h283z" />
    <glyph glyph-name="M" unicode="M" horiz-adv-x="927" 
d="M285 750l149 -383l28 -76h3l27 75l151 384h228v-750h-191v316l2 81l-3 1l-28 -77l-123 -321h-137l-123 323l-27 77l-2 -1l1 -81v-318h-184v750h229z" />
    <glyph glyph-name="N" unicode="N" horiz-adv-x="741" 
d="M539 0l-250 346l-46 67l-2 -1l1 -81v-331h-186v750h174l270 -389l2 1l-2 80v308h185v-750h-146z" />
    <glyph glyph-name="O" unicode="O" horiz-adv-x="752" 
d="M719 375q0 -101 -19.5 -174.5t-61.5 -121t-107 -70.5t-155 -23q-179 0 -261 95.5t-82 293.5q0 99 19.5 172t61.5 120.5t107 71t155 23.5t155 -23.5t107 -71t61.5 -120.5t19.5 -172zM499 375q0 64 -6 104t-20 63t-38 31.5t-60 8.5q-35 0 -58.5 -8.5t-37.5 -31.5t-20 -63.5
t-6 -103.5q0 -64 6 -104.5t20.5 -64t38.5 -32.5t59 -9t58.5 9t37.5 32.5t20 64.5t6 104z" />
    <glyph glyph-name="P" unicode="P" horiz-adv-x="671" 
d="M648 482q0 -60 -17.5 -108t-55 -81t-96.5 -50.5t-143 -17.5h-71v-225h-209v750h280q83 0 142.5 -16.5t97 -50t55 -84t17.5 -117.5zM432 483q0 30 -4.5 49.5t-15.5 30.5t-29.5 15.5t-46.5 4.5h-71v-198h71q26 0 44.5 3.5t30 14t16.5 30t5 50.5z" />
    <glyph glyph-name="Q" unicode="Q" horiz-adv-x="752" 
d="M719 375q0 -150 -43.5 -239t-137.5 -125l129 -105l-229 -58l-86 139q-166 6 -242.5 101.5t-76.5 286.5q0 99 19.5 172t61.5 120.5t107 71t155 23.5t155 -23.5t107 -71t61.5 -120.5t19.5 -172zM499 375q0 64 -6 104t-20 63t-38 31.5t-60 8.5q-35 0 -58.5 -8.5t-37.5 -31.5
t-20 -63.5t-6 -103.5q0 -64 6 -104.5t20.5 -64t38.5 -32.5t59 -9t58.5 9t37.5 32.5t20 64.5t6 104z" />
    <glyph glyph-name="R" unicode="R" horiz-adv-x="691" 
d="M645 507q0 -75 -29.5 -129t-83.5 -76l163 -302h-244l-110 261h-76v-261h-209v750h286q152 0 227.5 -58t75.5 -185zM427 499q0 50 -18 67t-65 17h-79v-172h77q23 0 39.5 3.5t26.5 13t14.5 27t4.5 44.5z" />
    <glyph glyph-name="S" unicode="S" horiz-adv-x="583" 
d="M562 230q0 -56 -20 -101.5t-57.5 -77t-91.5 -48.5t-122 -17q-66 0 -127 14.5t-112 40.5l26 173q51 -26 103.5 -40t107.5 -14q51 0 72 14.5t21 42.5q0 23 -24.5 37t-61 27t-79 28.5t-79 42t-61 67.5t-24.5 104q0 49 16.5 93t51 76.5t89 51.5t129.5 19q57 0 114.5 -10
t103.5 -28l-24 -169q-49 14 -95.5 21.5t-86.5 7.5q-30 0 -49 -4t-29.5 -10.5t-14.5 -16t-4 -20.5q0 -23 24.5 -37t60.5 -27t79 -28t79 -41t60.5 -67t24.5 -104z" />
    <glyph glyph-name="T" unicode="T" horiz-adv-x="606" 
d="M408 569v-569h-211v569h-187l4 181h578l4 -181h-188z" />
    <glyph glyph-name="U" unicode="U" horiz-adv-x="720" 
d="M673 268q0 -140 -77 -211t-235 -71q-157 0 -235.5 71t-78.5 211v482h209v-480q0 -53 24.5 -77.5t81.5 -24.5t80 24t23 78v480h208v-482z" />
    <glyph glyph-name="V" unicode="V" horiz-adv-x="721" 
d="M725 750l-248 -750h-233l-247 750h230l119 -461l19 -78h3l18 78l122 461h217z" />
    <glyph glyph-name="W" unicode="W" horiz-adv-x="1052" 
d="M643 750l86 -464l14 -80h3l11 80l77 464h207l-174 -750h-249l-78 452l-12 81h-3l-13 -81l-78 -452h-249l-174 750h218l75 -467l12 -80h3l13 80l86 467h225z" />
    <glyph glyph-name="X" unicode="X" horiz-adv-x="721" 
d="M507 394l206 -394h-236l-82 178l-31 75h-3l-32 -75l-80 -178h-241l201 387l-198 363h247l104 -226h3l33 73l73 153h237z" />
    <glyph glyph-name="Y" unicode="Y" horiz-adv-x="714" 
d="M231 750l102 -253l29 -75h3l27 76l98 252h228l-251 -518v-232h-214v232l-256 518h234z" />
    <glyph glyph-name="Z" unicode="Z" horiz-adv-x="618" 
d="M27 0v131l259 372l47 64l-1 2h-299l6 181h545v-146l-250 -358l-47 -63l1 -3h300l-3 -180h-558z" />
    <glyph glyph-name="bracketleft" unicode="[" horiz-adv-x="367" 
d="M67 780h297v-129h-123v-658h123v-126h-297v913z" />
    <glyph glyph-name="backslash" unicode="\" horiz-adv-x="372" 
d="M129 779l290 -898h-156l-291 898h157z" />
    <glyph glyph-name="bracketright" unicode="]" horiz-adv-x="367" 
d="M300 -133h-297v126h123v658h-123v129h297v-913z" />
    <glyph glyph-name="asciicircum" unicode="^" horiz-adv-x="636" 
d="M318 663l-123 -199h-152l211 340h131l207 -340h-150z" />
    <glyph glyph-name="underscore" unicode="_" horiz-adv-x="408" 
d="M402 -35v-110h-395v110h395z" />
    <glyph glyph-name="grave" unicode="`" 
d="M189 653l-126 146h216l55 -146h-145z" />
    <glyph glyph-name="a" unicode="a" horiz-adv-x="585" 
d="M379 50q-30 -29 -70 -44.5t-89 -15.5q-90 0 -140.5 51t-50.5 154q0 42 15 77.5t43 61t68.5 40t91.5 14.5q31 0 56 -3.5t47 -9.5v22q0 34 -22 52t-79 18q-26 0 -47 -2t-40.5 -5.5t-38.5 -9.5t-41 -14l-15 146q93 40 218 40q72 0 121 -15.5t79 -47t43 -79t13 -110.5v-370
h-148zM350 253q-11 3 -27 6t-39 3q-75 0 -75 -65q0 -33 17.5 -47.5t46.5 -14.5q31 0 54 15.5t23 40.5v62z" />
    <glyph glyph-name="b" unicode="b" horiz-adv-x="638" 
d="M612 308q0 -83 -17.5 -143.5t-50 -99.5t-79.5 -58t-106 -19q-49 0 -87.5 15.5t-65.5 41.5l-22 -45h-130v773l192 9v-123l-2 -80l3 -2q29 23 64 34t71 11q53 0 95.5 -18t72.5 -56.5t46 -98t16 -141.5zM413 304q0 51 -5.5 82t-16 47.5t-27 22t-38.5 5.5q-26 0 -46.5 -10.5
t-33.5 -29.5v-243q12 -18 32 -30t49 -12q21 0 37 6.5t27 24.5t16.5 51t5.5 86z" />
    <glyph glyph-name="c" unicode="c" horiz-adv-x="490" 
d="M452 441q-22 6 -46 10.5t-47 4.5q-39 0 -64.5 -8t-40.5 -26t-21.5 -47.5t-6.5 -72.5q0 -83 34 -119.5t95 -36.5q28 0 53 5t47 13l13 -144q-26 -15 -65 -23.5t-90 -8.5q-141 0 -214 78.5t-73 235.5q0 75 17 134.5t52 100.5t90 62.5t132 21.5q37 0 77 -6.5t68 -17.5z" />
    <glyph glyph-name="d" unicode="d" horiz-adv-x="637" 
d="M434 0l-17 48q-29 -29 -67 -44.5t-90 -15.5q-115 0 -174.5 78.5t-59.5 242.5q0 150 58.5 232t171.5 82q78 0 136 -47l2 2l-2 80v115l192 9v-782h-150zM392 424q-11 14 -31.5 24t-46.5 10q-24 0 -41 -7.5t-27.5 -25.5t-15.5 -48t-5 -75q0 -49 4 -80.5t14.5 -50t27.5 -26
t44 -7.5q29 0 48.5 12t28.5 28v246z" />
    <glyph glyph-name="e" unicode="e" horiz-adv-x="591" 
d="M344 -11q-164 0 -241 83t-77 238q0 73 16.5 131t51 98t87.5 61.5t125 21.5q122 0 191 -70t69 -215q0 -21 -1.5 -44t-3.5 -42h-335q6 -56 40 -79t102 -23q85 0 161 25l21 -148q-38 -17 -92 -27t-114 -10zM390 372q-2 53 -22.5 75t-60.5 22q-22 0 -37 -5t-25 -16
t-15.5 -29.5t-7.5 -46.5h168z" />
    <glyph glyph-name="f" unicode="f" horiz-adv-x="406" 
d="M84 0v474h-69v138h68v24q0 33 13 62.5t39.5 52t67 36t96.5 13.5q28 0 55.5 -4t48.5 -10l-11 -120q-26 6 -52 6q-36 0 -50 -10.5t-14 -29.5v-20h115v-138h-115v-474h-192z" />
    <glyph glyph-name="g" unicode="g" horiz-adv-x="595" 
d="M288 240q-17 0 -33.5 1t-33.5 3q-10 -8 -10 -20q0 -21 32 -22l144 -7q106 -5 152.5 -45.5t46.5 -114.5q0 -94 -70 -148.5t-223 -54.5q-68 0 -116.5 12t-80 33.5t-46 51t-14.5 63.5q0 54 42 92q-20 15 -32.5 37.5t-12.5 53.5q0 32 17 61t58 50q-31 22 -48.5 57t-17.5 86
q0 41 13 76.5t42.5 61.5t76 40.5t113.5 14.5q40 0 80 -7t74 -24l105 31l40 -88l-61 -50q6 -24 6 -55q0 -89 -57.5 -139t-185.5 -50zM212 49q-14 -17 -14 -33q0 -24 21 -35t70 -11q38 0 62.5 2.5t38.5 7.5t19.5 12t5.5 16q0 16 -12 23t-50 9zM289 484q-32 0 -44.5 -13.5
t-12.5 -45.5q0 -35 13.5 -47t39.5 -12q35 0 48 12.5t13 46.5q0 33 -12.5 46t-44.5 13z" />
    <glyph glyph-name="h" unicode="h" horiz-adv-x="638" 
d="M400 0v382q0 78 -74 78q-26 0 -47 -10t-33 -25v-425h-192v773l192 9v-121l-2 -80l3 -2q34 26 70.5 35t70.5 9q97 0 151 -63.5t54 -177.5v-382h-193z" />
    <glyph glyph-name="i" unicode="i" horiz-adv-x="324" 
d="M63 0v606l197 9v-615h-197zM266 732q0 -38 -24.5 -56.5t-79.5 -18.5q-54 0 -79.5 16.5t-25.5 58.5q0 37 25.5 56t79.5 19q55 0 79.5 -19t24.5 -56z" />
    <glyph glyph-name="j" unicode="j" horiz-adv-x="324" 
d="M262 13q0 -52 -15.5 -87t-42 -56t-61.5 -29.5t-74 -8.5q-51 0 -91 14l9 129q18 -5 34 -5q21 0 34.5 11t13.5 37v589l193 8v-602zM267 732q0 -37 -24.5 -55.5t-80.5 -18.5q-54 0 -79.5 16.5t-25.5 57.5q0 37 25.5 56t79.5 19q56 0 80.5 -19t24.5 -56z" />
    <glyph glyph-name="k" unicode="k" horiz-adv-x="635" 
d="M246 401h68l99 211h210l-145 -278l149 -334h-214l-100 251h-67v-251h-192v773l192 9v-381z" />
    <glyph glyph-name="l" unicode="l" horiz-adv-x="309" 
d="M57 0v773l195 9v-782h-195z" />
    <glyph glyph-name="m" unicode="m" horiz-adv-x="954" 
d="M717 0v382q0 39 -18.5 58t-52.5 19q-70 0 -70 -74v-385h-193v385q0 40 -17.5 57t-52.5 17q-23 0 -41.5 -9t-29.5 -25v-425h-192v607l138 8l30 -52q32 29 71.5 44.5t81.5 15.5q108 0 158 -76q34 41 77 58.5t94 17.5q46 0 84.5 -15t66 -44.5t43 -74t15.5 -103.5v-386h-192z
" />
    <glyph glyph-name="n" unicode="n" horiz-adv-x="634" 
d="M396 0v382q0 42 -18.5 60t-55.5 18q-24 0 -45.5 -9t-34.5 -26v-425h-192v608l138 8l27 -48q34 27 75.5 41t86.5 14q97 0 154.5 -62t57.5 -179v-382h-193z" />
    <glyph glyph-name="o" unicode="o" horiz-adv-x="630" 
d="M604 303q0 -84 -17 -144t-52 -98.5t-89.5 -56.5t-130.5 -18q-150 0 -219.5 74.5t-69.5 242.5t70 244t220 76q75 0 129.5 -18.5t90 -57.5t52 -99.5t16.5 -144.5zM226 303q0 -51 5 -83.5t15.5 -51t27.5 -25.5t42 -7t42 7t27.5 26t15 51t4.5 83t-4.5 83.5t-15 51t-27.5 25.5
t-42 7t-42.5 -7t-28 -25.5t-15 -51t-4.5 -83.5z" />
    <glyph glyph-name="p" unicode="p" horiz-adv-x="634" 
d="M608 307q0 -79 -17 -138.5t-48 -99t-74.5 -59.5t-96.5 -20q-36 0 -68.5 9t-59.5 32l-3 -1l2 -81v-106h-193v764l134 8l35 -48q32 26 72 40.5t84 14.5q57 0 100.5 -16.5t73 -54t44.5 -97.5t15 -147zM409 308q0 45 -4.5 74.5t-15 46.5t-27 23.5t-40.5 6.5
q-26 0 -46.5 -10.5t-32.5 -28.5v-236q12 -18 31 -29.5t46 -11.5q20 0 36.5 6.5t28 24.5t18 50t6.5 84z" />
    <glyph glyph-name="q" unicode="q" horiz-adv-x="635" 
d="M391 -157v99l2 80l-2 2q-51 -33 -126 -33q-53 0 -96.5 18.5t-75.5 56.5t-49.5 97t-17.5 140q0 152 60 235.5t184 83.5q106 0 169 -60l21 49h124v-768h-193zM391 424q-11 14 -30 23.5t-48 9.5q-26 0 -43 -6t-26.5 -23t-13.5 -47t-4 -78q0 -44 4.5 -74t15 -48.5t28 -26.5
t42.5 -8q30 0 49 11t26 26v241z" />
    <glyph glyph-name="r" unicode="r" horiz-adv-x="466" 
d="M50 0v607l153 7l17 -88h3q29 50 69 73t88 23q22 0 39.5 -2.5t29.5 -7.5l-11 -182q-15 5 -33 7.5t-38 2.5q-56 0 -90 -34.5t-34 -100.5v-305h-193z" />
    <glyph glyph-name="s" unicode="s" horiz-adv-x="500" 
d="M475 198q0 -47 -13.5 -85.5t-43 -66.5t-76 -43t-111.5 -15q-115 0 -194 38l19 152q19 -10 42 -17.5t46 -12t45.5 -7t40.5 -2.5q35 0 51 11.5t16 30.5t-20 29.5t-49.5 19.5t-64 20t-64 31.5t-49.5 54t-20 88.5q0 42 14.5 78.5t44.5 63t76 41.5t108 15q48 0 93.5 -9
t84.5 -25l-14 -150q-19 7 -41.5 12.5t-45 9.5t-43.5 5.5t-37 1.5q-56 0 -56 -35q0 -18 19.5 -28t48.5 -18.5t62.5 -19.5t62.5 -31t48.5 -52.5t19.5 -84.5z" />
    <glyph glyph-name="t" unicode="t" 
d="M266 473v-281q0 -29 15 -42.5t48 -13.5q11 0 25 2t22 5l10 -134q-17 -8 -48.5 -13.5t-67.5 -5.5q-101 0 -149 53.5t-48 143.5v286h-58v139h68l31 130l152 13v-143h127v-139h-127z" />
    <glyph glyph-name="u" unicode="u" horiz-adv-x="628" 
d="M584 223q0 -116 -66.5 -175t-203.5 -59t-203 60t-66 174v389h192v-386q0 -37 18 -55t60 -18q40 0 58 17.5t18 55.5v386h193v-389z" />
    <glyph glyph-name="v" unicode="v" horiz-adv-x="661" 
d="M655 612l-214 -612h-223l-212 612h209l114 -433h3l19 78l95 355h209z" />
    <glyph glyph-name="w" unicode="w" horiz-adv-x="901" 
d="M554 612l63 -361l13 -80h3l10 80l53 361h188l-131 -612h-235l-49 320l-10 81h-3l-11 -81l-51 -320h-235l-141 612h193l69 -442h3l11 80l60 362h200z" />
    <glyph glyph-name="x" unicode="x" horiz-adv-x="638" 
d="M343 141l-30 75h-3l-30 -76l-58 -140h-212l175 308l-172 304h223l87 -206h3l30 75l56 131h213l-163 -300l166 -312h-222z" />
    <glyph glyph-name="y" unicode="y" horiz-adv-x="663" 
d="M177 -35q30 0 52 10t35 39l2 6l-260 592h218l108 -326l24 -77h3l17 79l77 324h204l-200 -592q-35 -103 -95.5 -147.5t-149.5 -44.5q-60 0 -110 19l14 130q17 -7 31 -9.5t30 -2.5z" />
    <glyph glyph-name="z" unicode="z" horiz-adv-x="536" 
d="M300 217l-49 -61l1 -3h256l-4 -153h-473v130l197 264l49 62l-1 2h-239l6 154h455v-130z" />
    <glyph glyph-name="braceleft" unicode="{" horiz-adv-x="396" 
d="M289 438q0 -76 -57 -113q57 -35 57 -111q0 -41 -4 -72t-4 -65q0 -31 19 -54t58 -23h35v-137h-26q-72 0 -121 13t-79.5 37.5t-44 59.5t-13.5 80q0 40 6.5 83.5t6.5 79.5q0 29 -16 47.5t-39 25.5v73q23 7 39 25.5t16 47.5q0 36 -6.5 79.5t-6.5 83.5q0 45 13.5 80t44 59.5
t79.5 37.5t121 13h26v-137h-35q-39 0 -58 -23t-19 -54q0 -34 4 -65t4 -71z" />
    <glyph glyph-name="bar" unicode="|" horiz-adv-x="296" 
d="M74 804h149v-982h-149v982z" />
    <glyph glyph-name="braceright" unicode="}" horiz-adv-x="396" 
d="M107 214q0 76 57 111q-57 37 -57 113q0 40 4.5 71t4.5 65q0 31 -19.5 54t-57.5 23h-36v137h26q72 0 121.5 -13t79.5 -37.5t43.5 -59.5t13.5 -80q0 -40 -6.5 -83.5t-6.5 -79.5q0 -29 16 -47.5t39 -25.5v-73q-23 -7 -39 -25.5t-16 -47.5q0 -36 6.5 -79.5t6.5 -83.5
q0 -45 -13.5 -80t-43.5 -59.5t-79.5 -37.5t-121.5 -13h-26v137h36q38 0 57.5 23t19.5 54q0 34 -4.5 65t-4.5 72z" />
    <glyph glyph-name="asciitilde" unicode="~" horiz-adv-x="636" 
d="M58 572q6 212 157 212q30 0 57.5 -9.5t53 -21.5t48.5 -21.5t45 -9.5q23 0 35.5 15.5t15.5 32.5h107q-2 -107 -43 -160t-113 -53q-30 0 -57 10t-51.5 21.5t-47.5 21.5t-44 10q-23 0 -37.5 -14.5t-17.5 -33.5h-108z" />
    <glyph glyph-name="uni00A0" unicode="&#xa0;" horiz-adv-x="245" 
 />
    <glyph glyph-name="exclamdown" unicode="&#xa1;" horiz-adv-x="302" 
d="M230 427l22 -559h-202l23 559h157zM45 567q0 41 24 65t79 24q54 0 78.5 -20.5t24.5 -68.5q0 -43 -24.5 -66.5t-78.5 -23.5q-55 0 -79 23.5t-24 66.5z" />
    <glyph glyph-name="cent" unicode="&#xa2;" horiz-adv-x="636" 
d="M505 441q-22 6 -46 10.5t-47 4.5q-39 0 -64.5 -8t-40.5 -26t-21.5 -47.5t-6.5 -72.5q0 -83 34 -119.5t95 -36.5q28 0 53 5t47 13l13 -144q-41 -23 -109 -30l-8 -110h-148l9 120q-92 26 -139 101t-47 201q0 131 52 212t166 101l10 114h148l-10 -115q41 -6 70 -17z" />
    <glyph glyph-name="sterling" unicode="&#xa3;" horiz-adv-x="636" 
d="M56 441h45q-8 23 -14 46.5t-6 50.5q0 44 15.5 85t51.5 72.5t94 50t143 18.5q60 0 103 -8.5t77 -19.5l-23 -167q-28 9 -62.5 15t-70.5 6q-68 0 -95 -21.5t-27 -56.5q0 -19 3.5 -36.5t8.5 -34.5h230v-144h-195q1 -5 1 -10v-9q0 -38 -15 -66.5t-42 -45.5l2 -3
q38 10 79.5 13.5t79.5 3.5q45 0 81 -3t74 -8q0 -1 -0.5 -14t-1.5 -32.5t-2 -41.5t-2 -41.5t-2 -33t-1 -14.5q-61 8 -119.5 11.5t-120.5 3.5q-35 0 -68 -0.5t-66.5 -2t-70 -3.5t-77.5 -6l-10 172q42 5 66.5 35t24.5 67q0 8 -0.5 14.5t-1.5 13.5h-79z" />
    <glyph glyph-name="currency" unicode="&#xa4;" horiz-adv-x="636" 
d="M115 363q0 49 21 90l-72 73l97 99l75 -76q39 17 81 17q43 0 80 -17l77 76l96 -99l-72 -73q10 -20 15.5 -43t5.5 -47q0 -42 -16 -80l67 -68l-97 -99l-65 64q-41 -21 -91 -21q-48 0 -92 22l-65 -65l-96 99l67 68q-16 38 -16 80zM237 365q0 -32 23 -55t56 -23q35 0 58 23
t23 55q0 33 -23 56t-58 23q-33 0 -56 -23t-23 -56z" />
    <glyph glyph-name="yen" unicode="&#xa5;" horiz-adv-x="636" 
d="M165 371l-157 379h228l65 -290l16 -79h3l15 79l65 290h225l-152 -379h84v-109h-126v-34h126v-108h-126v-120h-223v120h-120v108h120v34h-120v109h77z" />
    <glyph glyph-name="brokenbar" unicode="&#xa6;" horiz-adv-x="296" 
d="M74 804h149v-432h-149v432zM74 263h149v-425h-149v425z" />
    <glyph glyph-name="section" unicode="&#xa7;" horiz-adv-x="574" 
d="M34 318q0 42 19.5 82t58.5 67q-27 23 -44 52t-17 67q0 93 65 140.5t190 47.5q24 0 51.5 -2.5t54.5 -7t52.5 -11.5t45.5 -16l-12 -139q-50 17 -93 24.5t-88 7.5q-67 0 -67 -36q0 -18 22 -31t55 -26.5t71.5 -30.5t71.5 -42.5t55 -62t22 -89.5q0 -42 -19.5 -82t-58.5 -68
q27 -23 44 -51.5t17 -66.5q0 -94 -65 -141.5t-190 -47.5q-24 0 -51.5 2.5t-54.5 7t-52.5 12t-45.5 16.5l12 138q50 -17 93 -24t88 -7q67 0 67 36q0 18 -22 31t-55 26.5t-71.5 30.5t-71.5 42.5t-55 62t-22 89.5zM361 292q0 14 -9 26.5t-24 24t-35 22.5t-42 22
q-31 -18 -31 -49q0 -15 8.5 -27.5t23.5 -24t35 -22t43 -21.5q31 19 31 49z" />
    <glyph glyph-name="dieresis" unicode="&#xa8;" 
d="M185 732q0 -36 -18 -54.5t-60 -18.5q-40 0 -59 16.5t-19 56.5q0 75 78 75q42 0 60 -19t18 -56zM381 732q0 -36 -18 -54.5t-60 -18.5q-40 0 -59 16.5t-19 56.5q0 75 78 75q42 0 60 -19t18 -56z" />
    <glyph glyph-name="copyright" unicode="&#xa9;" horiz-adv-x="851" 
d="M34 378q0 81 31 152t84 124t124.5 83.5t152.5 30.5t152 -30.5t124 -83.5t84 -124t31 -152t-31 -152t-84 -124.5t-124 -84t-152 -30.5t-152.5 30.5t-124.5 84t-84 124.5t-31 152zM129 377q0 -61 23 -115t63 -94.5t94 -64.5t117 -24q62 0 116 23.5t94.5 64t64 94.5
t23.5 116q0 60 -23.5 113.5t-64 93t-94.5 63t-116 23.5t-116.5 -23.5t-94.5 -63t-63 -93t-23 -113.5zM599 571q-3 -32 -6 -64.5t-7 -65.5q-21 12 -51 19.5t-56 7.5q-57 0 -85 -25.5t-28 -65.5q0 -44 29 -68t87 -24q30 0 59.5 8t46.5 18q5 -32 9 -62.5t8 -62.5
q-14 -12 -33 -24.5t-42 -22t-49 -15.5t-53 -6q-56 0 -102.5 20.5t-80 55.5t-52.5 82t-19 100q0 49 17.5 95t50.5 81.5t80.5 56.5t107.5 21q54 0 97 -17t72 -42z" />
    <glyph glyph-name="ordfeminine" unicode="&#xaa;" horiz-adv-x="459" 
d="M287 355q-45 -45 -115 -45q-69 0 -109.5 42t-40.5 127q0 35 12 64.5t34 50.5t53 33t69 12q22 0 40.5 -2.5t33.5 -7.5v15q0 22 -16.5 34t-62.5 12q-35 0 -61 -5t-60 -19l-12 128q38 15 80 23.5t89 8.5q57 0 96 -12.5t63 -38t34.5 -65t10.5 -92.5v-300h-125zM263 523
q-17 5 -40 5q-24 0 -36 -10.5t-12 -36.5q0 -23 11 -33t30 -10t33 10t14 28v47z" />
    <glyph glyph-name="guillemotleft" unicode="&#xab;" horiz-adv-x="668" 
d="M479 317l141 -91v-142l-326 227v13l326 227v-142zM204 317l141 -91v-142l-326 227v13l326 227v-142z" />
    <glyph glyph-name="logicalnot" unicode="&#xac;" horiz-adv-x="636" 
d="M86 258v158h464v-304h-155v146h-309z" />
    <glyph glyph-name="uni00AD" unicode="&#xad;" horiz-adv-x="381" 
d="M340 409v-133h-299v133h299z" />
    <glyph glyph-name="registered" unicode="&#xae;" horiz-adv-x="435" 
d="M19 633q0 42 16 78.5t43 63.5t63.5 43t77.5 16t77 -16t63 -43t42.5 -63.5t15.5 -78.5q0 -41 -15.5 -77t-42.5 -63t-63 -43t-77 -16t-77.5 16t-63.5 43t-43 63t-16 77zM70 633q0 -30 11.5 -57t32 -47.5t47.5 -32t58 -11.5q30 0 57 11.5t47.5 32t32 47.5t11.5 57
q0 31 -11.5 58t-32 47t-47.5 32t-57 12q-31 0 -58 -12t-47.5 -32t-32 -47t-11.5 -58zM319 668q0 -17 -7.5 -32.5t-21.5 -23.5l30 -77h-80l-21 66h-16v-66h-77v205h99q51 0 72.5 -20t21.5 -52zM245 664q0 16 -20 16h-22v-32h23q19 0 19 16z" />
    <glyph glyph-name="macron" unicode="&#xaf;" 
d="M377 672h-342v112h342v-112z" />
    <glyph glyph-name="degree" unicode="&#xb0;" horiz-adv-x="340" 
d="M23 670q0 31 11.5 58t31 47t46.5 31.5t58 11.5t57.5 -11.5t46.5 -31.5t31.5 -47t11.5 -58t-11.5 -58t-31.5 -47t-46.5 -31.5t-57.5 -11.5t-57.5 11.5t-46.5 31.5t-31.5 47t-11.5 58zM107 670q0 -27 17.5 -44.5t45.5 -17.5t45.5 17.5t17.5 44.5t-17.5 45t-45.5 18
t-45.5 -18t-17.5 -45z" />
    <glyph glyph-name="plusminus" unicode="&#xb1;" horiz-adv-x="636" 
d="M401 327v-140h-169v140h-152v156h152v144h169v-144h155v-156h-155zM80 18v138h475v-138h-475z" />
    <glyph glyph-name="twosuperior" unicode="&#xb2;" horiz-adv-x="385" 
d="M355 759q0 -26 -10.5 -47.5t-29.5 -41t-46 -38t-60 -39.5v-3h144l-2 -104h-313v81q41 35 74 61.5t56.5 47.5t36.5 38t13 34q0 14 -11.5 23t-39.5 9q-29 0 -54 -9t-54 -25l-30 99q32 20 73 30.5t90 10.5q85 0 124 -36.5t39 -90.5z" />
    <glyph glyph-name="threesuperior" unicode="&#xb3;" horiz-adv-x="385" 
d="M363 604q0 -59 -43.5 -91t-138.5 -32q-43 0 -81 8.5t-65 24.5l27 94q28 -14 57 -21.5t61 -7.5q57 0 57 32q0 7 -3.5 13t-14 10.5t-30.5 7t-54 2.5v84q32 0 51.5 2t30 6t14 10t3.5 13q0 11 -11.5 18t-42.5 7q-35 0 -63 -7.5t-55 -24.5l-30 93q30 19 70.5 30t82.5 11
q82 0 126 -31.5t44 -85.5t-54 -80v-2q29 -11 45.5 -31t16.5 -52z" />
    <glyph glyph-name="acute" unicode="&#xb4;" 
d="M401 799l-124 -146h-143l50 146h217z" />
    <glyph glyph-name="mu" unicode="&#xb5;" horiz-adv-x="633" 
d="M326 -9q-71 0 -108 55l-2 -1q4 -51 8 -100t10 -96l-184 -14v777h192v-386q0 -32 21.5 -51.5t57.5 -19.5q35 0 55 16.5t20 50.5v390h193v-607l-137 -11l-22 37q-20 -18 -46 -29t-58 -11z" />
    <glyph glyph-name="paragraph" unicode="&#xb6;" horiz-adv-x="723" 
d="M177 -164v612q-35 2 -64.5 12.5t-51 30t-33.5 48.5t-12 67q0 63 45 103.5t124 40.5h509l-8 -149h-73v-765h-167v765h-102v-765h-167z" />
    <glyph glyph-name="periodcentered" unicode="&#xb7;" horiz-adv-x="304" 
d="M258 346q0 -46 -25 -72.5t-82 -26.5t-82 22.5t-25 76.5q0 48 25 74t82 26t82 -26t25 -74z" />
    <glyph glyph-name="cedilla" unicode="&#xb8;" 
d="M170 17l126 2l-34 -207h-169z" />
    <glyph glyph-name="onesuperior" unicode="&#xb9;" horiz-adv-x="293" 
d="M246 486h-131v252l-76 -40l-11 102l135 81h83v-395z" />
    <glyph glyph-name="ordmasculine" unicode="&#xba;" horiz-adv-x="506" 
d="M477 569q0 -70 -13 -119t-40.5 -79.5t-70 -44.5t-100.5 -14t-100 14t-69.5 44.5t-41 79.5t-13.5 119q0 138 54.5 198t169.5 60q117 0 170.5 -60t53.5 -198zM197 569q0 -41 3 -66t9.5 -38.5t17.5 -18t26 -4.5q16 0 26.5 4.5t17 18.5t9.5 38.5t3 65.5q0 40 -3 65t-9.5 38.5
t-17 18t-26.5 4.5q-15 0 -26 -4.5t-17.5 -18t-9.5 -38t-3 -65.5z" />
    <glyph glyph-name="guillemotright" unicode="&#xbb;" horiz-adv-x="668" 
d="M319 226l141 91l-141 92v142l327 -227v-13l-327 -227v142zM44 226l141 91l-141 92v142l327 -227v-13l-327 -227v142z" />
    <glyph glyph-name="onequarter" unicode="&#xbc;" horiz-adv-x="1004" 
d="M246 356h-131v252l-76 -40l-11 102l135 81h83v-395zM789 750l-494 -750h-133l493 750h134zM957 64v-64h-121v64h-203l-10 72l178 258h156v-230h37l-3 -100h-34zM848 282l-6 1l-31 -52l-45 -64l1 -3h73z" />
    <glyph glyph-name="onehalf" unicode="&#xbd;" horiz-adv-x="996" 
d="M246 356h-131v252l-76 -40l-11 102l135 81h83v-395zM789 750l-494 -750h-133l493 750h134zM966 273q0 -26 -10.5 -47.5t-29.5 -41t-46 -38t-60 -39.5v-3h144l-2 -104h-313v81q41 35 74 61.5t56.5 47.5t36.5 38t13 34q0 14 -11.5 23t-39.5 9q-29 0 -54 -9t-54 -25l-30 99
q32 20 73 30.5t90 10.5q85 0 124 -36.5t39 -90.5z" />
    <glyph glyph-name="threequarters" unicode="&#xbe;" horiz-adv-x="1096" 
d="M363 474q0 -59 -43.5 -91t-138.5 -32q-43 0 -81 8.5t-65 24.5l27 94q28 -14 57 -21.5t61 -7.5q57 0 57 32q0 7 -3.5 13t-14 10.5t-30.5 7t-54 2.5v84q32 0 51.5 2t30 6t14 10t3.5 13q0 11 -11.5 18t-42.5 7q-35 0 -63 -7.5t-55 -24.5l-30 93q30 19 70.5 30t82.5 11
q82 0 126 -31.5t44 -85.5t-54 -80v-2q29 -11 45.5 -31t16.5 -52zM881 750l-494 -750h-133l493 750h134zM1049 64v-64h-121v64h-203l-10 72l178 258h156v-230h37l-3 -100h-34zM940 282l-6 1l-31 -52l-45 -64l1 -3h73z" />
    <glyph glyph-name="questiondown" unicode="&#xbf;" horiz-adv-x="488" 
d="M16 95q0 81 44 138t120 97l7 100h150l10 -168q-58 -30 -95 -61.5t-37 -74.5q0 -25 19 -40t56 -15q40 0 74 12.5t60 35.5l67 -150q-38 -31 -99.5 -50.5t-129.5 -19.5q-123 0 -184.5 53t-61.5 143zM160 581q0 42 24.5 65.5t78.5 23.5t79 -20.5t25 -68.5q0 -43 -25 -66.5
t-79 -23.5t-78.5 23.5t-24.5 66.5z" />
    <glyph glyph-name="Agrave" unicode="&#xc0;" horiz-adv-x="748" 
d="M484 129h-232l-33 -129h-221l249 750h250l253 -750h-233zM349 506l-54 -210h147l-53 209l-18 80h-3zM308 791l-132 123h223l64 -123h-155z" />
    <glyph glyph-name="Aacute" unicode="&#xc1;" horiz-adv-x="748" 
d="M484 129h-232l-33 -129h-221l249 750h250l253 -750h-233zM349 506l-54 -210h147l-53 209l-18 80h-3zM578 912l-144 -122h-153l57 122h240z" />
    <glyph glyph-name="Acircumflex" unicode="&#xc2;" horiz-adv-x="748" 
d="M484 129h-232l-33 -129h-221l249 750h250l253 -750h-233zM349 506l-54 -210h147l-53 209l-18 80h-3zM471 912l101 -122h-165l-38 45l-38 -45h-162l97 122h205z" />
    <glyph glyph-name="Atilde" unicode="&#xc3;" horiz-adv-x="748" 
d="M484 129h-232l-33 -129h-221l249 750h250l253 -750h-233zM349 506l-54 -210h147l-53 209l-18 80h-3zM186 792q2 57 32 92t83 35q27 0 49 -5t40 -10.5t32.5 -10.5t26.5 -5q13 0 19 4.5t8 16.5l82 -1q-2 -59 -33.5 -93t-82.5 -34q-27 0 -47.5 5t-37.5 11t-30.5 11t-25.5 5
q-11 0 -19 -6.5t-10 -15.5z" />
    <glyph glyph-name="Adieresis" unicode="&#xc4;" horiz-adv-x="748" 
d="M484 129h-232l-33 -129h-221l249 750h250l253 -750h-233zM349 506l-54 -210h147l-53 209l-18 80h-3zM346 856q0 -34 -18 -51.5t-59 -17.5q-39 0 -58 15.5t-19 53.5q0 71 77 71q41 0 59 -18t18 -53zM549 856q0 -34 -18 -51.5t-60 -17.5q-38 0 -57.5 15.5t-19.5 53.5
q0 71 77 71q42 0 60 -18t18 -53z" />
    <glyph glyph-name="Aring" unicode="&#xc5;" horiz-adv-x="748" 
d="M219 803q0 25 7 45t24 34.5t45.5 22t70.5 7.5q84 0 118 -30t34 -79q0 -42 -17 -66l249 -737h-233l-33 129h-232l-33 -129h-221l242 729q-21 24 -21 74zM349 506l-54 -210h147l-53 209l-18 80h-3zM317 796q0 -15 9.5 -23t44.5 -8q30 0 40.5 7t10.5 24t-9.5 26t-41.5 9
q-35 0 -44.5 -9t-9.5 -26z" />
    <glyph glyph-name="AE" unicode="&#xc6;" horiz-adv-x="1070" 
d="M726 573l4 -110h245v-160h-238l5 -128h301l-4 -175h-502l-5 131h-224l-57 -131h-247l395 750h628l3 -177h-304zM483 533l-104 -238h147l-8 231l-1 81l-3 1z" />
    <glyph glyph-name="Ccedilla" unicode="&#xc7;" horiz-adv-x="591" 
d="M308 -9q-139 18 -207 113.5t-68 274.5q0 92 21 164t65.5 121t112.5 74.5t161 25.5q45 0 92.5 -8.5t81.5 -21.5l-21 -172q-29 9 -64 15.5t-76 6.5q-46 0 -75.5 -10t-47 -34t-24 -63.5t-6.5 -98.5q0 -63 7 -104t25 -66t48 -35t76 -10q38 0 73.5 7t65.5 20l21 -164
q-28 -13 -61.5 -22t-68.5 -14l-29 -178h-169z" />
    <glyph glyph-name="Egrave" unicode="&#xc8;" horiz-adv-x="616" 
d="M589 175l-4 -175h-529v750h516l3 -177h-310v-110h256v-160h-256v-128h324zM259 791l-132 123h223l64 -123h-155z" />
    <glyph glyph-name="Eacute" unicode="&#xc9;" horiz-adv-x="616" 
d="M589 175l-4 -175h-529v750h516l3 -177h-310v-110h256v-160h-256v-128h324zM529 912l-144 -122h-153l57 122h240z" />
    <glyph glyph-name="Ecircumflex" unicode="&#xca;" horiz-adv-x="616" 
d="M589 175l-4 -175h-529v750h516l3 -177h-310v-110h256v-160h-256v-128h324zM422 912l101 -122h-165l-38 45l-38 -45h-162l97 122h205z" />
    <glyph glyph-name="Edieresis" unicode="&#xcb;" horiz-adv-x="616" 
d="M589 175l-4 -175h-529v750h516l3 -177h-310v-110h256v-160h-256v-128h324zM297 856q0 -34 -18 -51.5t-59 -17.5q-39 0 -58 15.5t-19 53.5q0 71 77 71q41 0 59 -18t18 -53zM500 856q0 -34 -18 -51.5t-60 -17.5q-38 0 -57.5 15.5t-19.5 53.5q0 71 77 71q42 0 60 -18t18 -53
z" />
    <glyph glyph-name="Igrave" unicode="&#xcc;" horiz-adv-x="344" 
d="M65 750h214v-750h-214v750zM110 791l-132 123h223l64 -123h-155z" />
    <glyph glyph-name="Iacute" unicode="&#xcd;" horiz-adv-x="344" 
d="M65 750h214v-750h-214v750zM379 912l-144 -122h-153l57 122h240z" />
    <glyph glyph-name="Icircumflex" unicode="&#xce;" horiz-adv-x="344" 
d="M65 750h214v-750h-214v750zM273 912l101 -122h-165l-38 45l-38 -45h-162l97 122h205z" />
    <glyph glyph-name="Idieresis" unicode="&#xcf;" horiz-adv-x="344" 
d="M65 750h214v-750h-214v750zM148 856q0 -34 -18 -51.5t-59 -17.5q-39 0 -58 15.5t-19 53.5q0 71 77 71q41 0 59 -18t18 -53zM351 856q0 -34 -18 -51.5t-60 -17.5q-38 0 -57.5 15.5t-19.5 53.5q0 71 77 71q42 0 60 -18t18 -53z" />
    <glyph glyph-name="Eth" unicode="&#xd0;" horiz-adv-x="741" 
d="M708 379q0 -102 -22 -174t-65 -117.5t-107.5 -66.5t-148.5 -21h-297v329h-53v118h53v303h294q92 0 157.5 -22t107.5 -67.5t61.5 -115.5t19.5 -166zM488 380q0 59 -6 96t-21 58t-39.5 28.5t-60.5 7.5h-84v-123h69v-118h-69v-151h84q36 0 60.5 7t39 28.5t21 61.5t6.5 105z
" />
    <glyph glyph-name="Ntilde" unicode="&#xd1;" horiz-adv-x="741" 
d="M539 0l-250 346l-46 67l-2 -1l1 -81v-331h-186v750h174l270 -389l2 1l-2 80v308h185v-750h-146zM187 792q2 57 32 92t83 35q27 0 49 -5t40 -10.5t32.5 -10.5t26.5 -5q13 0 19 4.5t8 16.5l82 -1q-2 -59 -33.5 -93t-82.5 -34q-27 0 -47.5 5t-37.5 11t-30.5 11t-25.5 5
q-11 0 -19 -6.5t-10 -15.5z" />
    <glyph glyph-name="Ograve" unicode="&#xd2;" horiz-adv-x="752" 
d="M719 375q0 -101 -19.5 -174.5t-61.5 -121t-107 -70.5t-155 -23q-179 0 -261 95.5t-82 293.5q0 99 19.5 172t61.5 120.5t107 71t155 23.5t155 -23.5t107 -71t61.5 -120.5t19.5 -172zM499 375q0 64 -6 104t-20 63t-38 31.5t-60 8.5q-35 0 -58.5 -8.5t-37.5 -31.5t-20 -63.5
t-6 -103.5q0 -64 6 -104.5t20.5 -64t38.5 -32.5t59 -9t58.5 9t37.5 32.5t20 64.5t6 104zM324 791l-132 123h223l64 -123h-155z" />
    <glyph glyph-name="Oacute" unicode="&#xd3;" horiz-adv-x="752" 
d="M719 375q0 -101 -19.5 -174.5t-61.5 -121t-107 -70.5t-155 -23q-179 0 -261 95.5t-82 293.5q0 99 19.5 172t61.5 120.5t107 71t155 23.5t155 -23.5t107 -71t61.5 -120.5t19.5 -172zM499 375q0 64 -6 104t-20 63t-38 31.5t-60 8.5q-35 0 -58.5 -8.5t-37.5 -31.5t-20 -63.5
t-6 -103.5q0 -64 6 -104.5t20.5 -64t38.5 -32.5t59 -9t58.5 9t37.5 32.5t20 64.5t6 104zM584 912l-144 -122h-153l57 122h240z" />
    <glyph glyph-name="Ocircumflex" unicode="&#xd4;" horiz-adv-x="752" 
d="M719 375q0 -101 -19.5 -174.5t-61.5 -121t-107 -70.5t-155 -23q-179 0 -261 95.5t-82 293.5q0 99 19.5 172t61.5 120.5t107 71t155 23.5t155 -23.5t107 -71t61.5 -120.5t19.5 -172zM499 375q0 64 -6 104t-20 63t-38 31.5t-60 8.5q-35 0 -58.5 -8.5t-37.5 -31.5t-20 -63.5
t-6 -103.5q0 -64 6 -104.5t20.5 -64t38.5 -32.5t59 -9t58.5 9t37.5 32.5t20 64.5t6 104zM478 912l101 -122h-165l-38 45l-38 -45h-162l97 122h205z" />
    <glyph glyph-name="Otilde" unicode="&#xd5;" horiz-adv-x="752" 
d="M719 375q0 -101 -19.5 -174.5t-61.5 -121t-107 -70.5t-155 -23q-179 0 -261 95.5t-82 293.5q0 99 19.5 172t61.5 120.5t107 71t155 23.5t155 -23.5t107 -71t61.5 -120.5t19.5 -172zM499 375q0 64 -6 104t-20 63t-38 31.5t-60 8.5q-35 0 -58.5 -8.5t-37.5 -31.5t-20 -63.5
t-6 -103.5q0 -64 6 -104.5t20.5 -64t38.5 -32.5t59 -9t58.5 9t37.5 32.5t20 64.5t6 104zM193 792q2 57 32 92t83 35q27 0 49 -5t40 -10.5t32.5 -10.5t26.5 -5q13 0 19 4.5t8 16.5l82 -1q-2 -59 -33.5 -93t-82.5 -34q-27 0 -47.5 5t-37.5 11t-30.5 11t-25.5 5q-11 0 -19 -6.5
t-10 -15.5z" />
    <glyph glyph-name="Odieresis" unicode="&#xd6;" horiz-adv-x="752" 
d="M719 375q0 -101 -19.5 -174.5t-61.5 -121t-107 -70.5t-155 -23q-179 0 -261 95.5t-82 293.5q0 99 19.5 172t61.5 120.5t107 71t155 23.5t155 -23.5t107 -71t61.5 -120.5t19.5 -172zM499 375q0 64 -6 104t-20 63t-38 31.5t-60 8.5q-35 0 -58.5 -8.5t-37.5 -31.5t-20 -63.5
t-6 -103.5q0 -64 6 -104.5t20.5 -64t38.5 -32.5t59 -9t58.5 9t37.5 32.5t20 64.5t6 104zM353 856q0 -34 -18 -51.5t-59 -17.5q-39 0 -58 15.5t-19 53.5q0 71 77 71q41 0 59 -18t18 -53zM556 856q0 -34 -18 -51.5t-60 -17.5q-38 0 -57.5 15.5t-19.5 53.5q0 71 77 71
q42 0 60 -18t18 -53z" />
    <glyph glyph-name="multiply" unicode="&#xd7;" horiz-adv-x="605" 
d="M427 87l-125 124l-124 -125l-111 114l125 124l-128 126l110 115l129 -128l128 128l110 -114l-129 -127l126 -123z" />
    <glyph glyph-name="Oslash" unicode="&#xd8;" horiz-adv-x="752" 
d="M24 67l56 67q-47 90 -47 241q0 99 19.5 172t61.5 120.5t107 71t155 23.5q135 0 213 -53l48 56l96 -88l-58 -68q43 -89 43 -234q0 -101 -19.5 -174.5t-61 -121t-106.5 -70.5t-155 -23q-131 0 -209 50l-46 -55zM252 340q0 -16 1 -30l213 242q-15 17 -37 23.5t-54 6.5
q-35 0 -58.5 -8.5t-38 -31.5t-20.5 -63.5t-6 -103.5v-35zM499 432l-211 -239q15 -16 36.5 -22t51.5 -6q35 0 58.5 9t38 32.5t20.5 64.5t6 104v57z" />
    <glyph glyph-name="Ugrave" unicode="&#xd9;" horiz-adv-x="720" 
d="M673 268q0 -140 -77 -211t-235 -71q-157 0 -235.5 71t-78.5 211v482h209v-480q0 -53 24.5 -77.5t81.5 -24.5t80 24t23 78v480h208v-482zM299 791l-132 123h223l64 -123h-155z" />
    <glyph glyph-name="Uacute" unicode="&#xda;" horiz-adv-x="720" 
d="M673 268q0 -140 -77 -211t-235 -71q-157 0 -235.5 71t-78.5 211v482h209v-480q0 -53 24.5 -77.5t81.5 -24.5t80 24t23 78v480h208v-482zM569 912l-144 -122h-153l57 122h240z" />
    <glyph glyph-name="Ucircumflex" unicode="&#xdb;" horiz-adv-x="720" 
d="M673 268q0 -140 -77 -211t-235 -71q-157 0 -235.5 71t-78.5 211v482h209v-480q0 -53 24.5 -77.5t81.5 -24.5t80 24t23 78v480h208v-482zM462 912l101 -122h-165l-38 45l-38 -45h-162l97 122h205z" />
    <glyph glyph-name="Udieresis" unicode="&#xdc;" horiz-adv-x="720" 
d="M673 268q0 -140 -77 -211t-235 -71q-157 0 -235.5 71t-78.5 211v482h209v-480q0 -53 24.5 -77.5t81.5 -24.5t80 24t23 78v480h208v-482zM337 856q0 -34 -18 -51.5t-59 -17.5q-39 0 -58 15.5t-19 53.5q0 71 77 71q41 0 59 -18t18 -53zM540 856q0 -34 -18 -51.5t-60 -17.5
q-38 0 -57.5 15.5t-19.5 53.5q0 71 77 71q42 0 60 -18t18 -53z" />
    <glyph glyph-name="Yacute" unicode="&#xdd;" horiz-adv-x="714" 
d="M231 750l102 -253l29 -75h3l27 76l98 252h228l-251 -518v-232h-214v232l-256 518h234zM568 912l-144 -122h-153l57 122h240z" />
    <glyph glyph-name="Thorn" unicode="&#xde;" horiz-adv-x="673" 
d="M648 375q0 -60 -17.5 -108t-55.5 -81t-98 -50.5t-146 -17.5h-66v-118h-209v750h209v-107h66q85 0 145 -16.5t98.5 -50t56 -84t17.5 -117.5zM432 376q0 30 -4.5 49t-16.5 30.5t-31.5 15.5t-49.5 4h-65v-197h66q28 0 47 3.5t31 14t17.5 30t5.5 50.5z" />
    <glyph glyph-name="germandbls" unicode="&#xdf;" horiz-adv-x="672" 
d="M54 482q0 281 270 281q54 0 98 -14.5t75 -39.5t47.5 -58.5t16.5 -72.5q0 -29 -11 -51t-23.5 -39t-23.5 -30t-11 -24q0 -12 24.5 -26.5t54.5 -38.5t54.5 -61t24.5 -95q0 -51 -18 -92t-50.5 -70.5t-78 -45t-100.5 -15.5q-32 0 -69 6.5t-62 22.5l9 156q14 -8 38.5 -14
t50.5 -6q35 0 59 10.5t24 41.5q0 19 -12.5 35t-31 30.5t-40.5 28.5t-40.5 30t-31 35t-12.5 44q0 27 14 49.5t31 42t31 36.5t14 34t-14 27.5t-41 10.5q-40 0 -57 -24.5t-17 -86.5v-499h-192v482z" />
    <glyph glyph-name="agrave" unicode="&#xe0;" horiz-adv-x="585" 
d="M379 50q-30 -29 -70 -44.5t-89 -15.5q-90 0 -140.5 51t-50.5 154q0 42 15 77.5t43 61t68.5 40t91.5 14.5q31 0 56 -3.5t47 -9.5v22q0 34 -22 52t-79 18q-26 0 -47 -2t-40.5 -5.5t-38.5 -9.5t-41 -14l-15 146q93 40 218 40q72 0 121 -15.5t79 -47t43 -79t13 -110.5v-370
h-148zM350 253q-11 3 -27 6t-39 3q-75 0 -75 -65q0 -33 17.5 -47.5t46.5 -14.5q31 0 54 15.5t23 40.5v62zM234 653l-126 146h216l55 -146h-145z" />
    <glyph glyph-name="aacute" unicode="&#xe1;" horiz-adv-x="585" 
d="M379 50q-30 -29 -70 -44.5t-89 -15.5q-90 0 -140.5 51t-50.5 154q0 42 15 77.5t43 61t68.5 40t91.5 14.5q31 0 56 -3.5t47 -9.5v22q0 34 -22 52t-79 18q-26 0 -47 -2t-40.5 -5.5t-38.5 -9.5t-41 -14l-15 146q93 40 218 40q72 0 121 -15.5t79 -47t43 -79t13 -110.5v-370
h-148zM350 253q-11 3 -27 6t-39 3q-75 0 -75 -65q0 -33 17.5 -47.5t46.5 -14.5q31 0 54 15.5t23 40.5v62zM464 799l-124 -146h-143l50 146h217z" />
    <glyph glyph-name="acircumflex" unicode="&#xe2;" horiz-adv-x="585" 
d="M379 50q-30 -29 -70 -44.5t-89 -15.5q-90 0 -140.5 51t-50.5 154q0 42 15 77.5t43 61t68.5 40t91.5 14.5q31 0 56 -3.5t47 -9.5v22q0 34 -22 52t-79 18q-26 0 -47 -2t-40.5 -5.5t-38.5 -9.5t-41 -14l-15 146q93 40 218 40q72 0 121 -15.5t79 -47t43 -79t13 -110.5v-370
h-148zM350 253q-11 3 -27 6t-39 3q-75 0 -75 -65q0 -33 17.5 -47.5t46.5 -14.5q31 0 54 15.5t23 40.5v62zM372 799l97 -146h-141l-35 69h-6l-36 -69h-141l95 146h167z" />
    <glyph glyph-name="atilde" unicode="&#xe3;" horiz-adv-x="585" 
d="M379 50q-30 -29 -70 -44.5t-89 -15.5q-90 0 -140.5 51t-50.5 154q0 42 15 77.5t43 61t68.5 40t91.5 14.5q31 0 56 -3.5t47 -9.5v22q0 34 -22 52t-79 18q-26 0 -47 -2t-40.5 -5.5t-38.5 -9.5t-41 -14l-15 146q93 40 218 40q72 0 121 -15.5t79 -47t43 -79t13 -110.5v-370
h-148zM350 253q-11 3 -27 6t-39 3q-75 0 -75 -65q0 -33 17.5 -47.5t46.5 -14.5q31 0 54 15.5t23 40.5v62zM111 661q1 31 9 57t22.5 45.5t35.5 30.5t47 11q27 0 45.5 -7t33.5 -15.5t28.5 -15.5t28.5 -7q14 0 20.5 10t10.5 24l86 -1q-2 -64 -32.5 -103t-81.5 -39q-26 0 -45 7
t-34 15t-28.5 15t-28.5 7q-13 0 -20.5 -10t-9.5 -24h-87z" />
    <glyph glyph-name="adieresis" unicode="&#xe4;" horiz-adv-x="585" 
d="M379 50q-30 -29 -70 -44.5t-89 -15.5q-90 0 -140.5 51t-50.5 154q0 42 15 77.5t43 61t68.5 40t91.5 14.5q31 0 56 -3.5t47 -9.5v22q0 34 -22 52t-79 18q-26 0 -47 -2t-40.5 -5.5t-38.5 -9.5t-41 -14l-15 146q93 40 218 40q72 0 121 -15.5t79 -47t43 -79t13 -110.5v-370
h-148zM350 253q-11 3 -27 6t-39 3q-75 0 -75 -65q0 -33 17.5 -47.5t46.5 -14.5q31 0 54 15.5t23 40.5v62zM273 732q0 -36 -18 -54.5t-60 -18.5q-40 0 -59 16.5t-19 56.5q0 75 78 75q42 0 60 -19t18 -56zM469 732q0 -36 -18 -54.5t-60 -18.5q-40 0 -59 16.5t-19 56.5
q0 75 78 75q42 0 60 -19t18 -56z" />
    <glyph glyph-name="aring" unicode="&#xe5;" horiz-adv-x="585" 
d="M379 50q-30 -29 -70 -44.5t-89 -15.5q-90 0 -140.5 51t-50.5 154q0 42 15 77.5t43 61t68.5 40t91.5 14.5q31 0 56 -3.5t47 -9.5v22q0 34 -22 52t-79 18q-26 0 -47 -2t-40.5 -5.5t-38.5 -9.5t-41 -14l-15 146q93 40 218 40q72 0 121 -15.5t79 -47t43 -79t13 -110.5v-370
h-148zM350 253q-11 3 -27 6t-39 3q-75 0 -75 -65q0 -33 17.5 -47.5t46.5 -14.5q31 0 54 15.5t23 40.5v62zM151 742q0 44 31 69.5t109 25.5q75 0 108 -26.5t33 -68.5q0 -50 -32.5 -72.5t-108.5 -22.5q-72 0 -106 21t-34 74zM243 741q0 -13 9.5 -19.5t41.5 -6.5q28 0 39 6
t11 20q0 12 -10.5 19t-39.5 7q-31 0 -41 -6.5t-10 -19.5z" />
    <glyph glyph-name="ae" unicode="&#xe6;" horiz-adv-x="899" 
d="M285 621q64 0 106.5 -13.5t68.5 -39.5q31 26 72 40t95 14q55 0 100.5 -17.5t78 -52.5t50.5 -89t18 -126q0 -21 -1.5 -44t-3.5 -42h-335q7 -56 41 -79t101 -23q82 0 161 28l21 -151q-38 -17 -92 -27t-114 -10q-85 0 -138 22t-86 57q-33 -38 -81 -58t-108 -20
q-104 0 -157 51t-53 154q0 42 15 77.5t43 61t68.5 40t91.5 14.5q32 0 56.5 -3.5t46.5 -9.5v22q0 34 -22 52t-79 18q-26 0 -47 -2t-40.5 -5.5t-38.5 -9.5t-41 -14l-15 146q96 39 218 39zM350 253q-11 3 -27 6t-39 3q-75 0 -75 -65q0 -33 17.5 -47.5t46.5 -14.5q32 0 54.5 16
t22.5 45v57zM698 372q-2 53 -23 75t-60 22q-22 0 -37 -5t-25 -16t-15.5 -29.5t-7.5 -46.5h168z" />
    <glyph glyph-name="ccedilla" unicode="&#xe7;" horiz-adv-x="490" 
d="M240 -6q-106 19 -160 96t-54 212q0 75 17 134.5t52 100.5t90 62.5t132 21.5q37 0 77 -6.5t68 -17.5l-10 -156q-22 6 -46 10.5t-47 4.5q-39 0 -64.5 -8t-40.5 -26t-21.5 -47.5t-6.5 -72.5q0 -83 34 -119.5t95 -36.5q28 0 53 5t47 13l13 -144q-39 -22 -98 -29l-29 -179
h-169z" />
    <glyph glyph-name="egrave" unicode="&#xe8;" horiz-adv-x="591" 
d="M344 -11q-164 0 -241 83t-77 238q0 73 16.5 131t51 98t87.5 61.5t125 21.5q122 0 191 -70t69 -215q0 -21 -1.5 -44t-3.5 -42h-335q6 -56 40 -79t102 -23q85 0 161 25l21 -148q-38 -17 -92 -27t-114 -10zM390 372q-2 53 -22.5 75t-60.5 22q-22 0 -37 -5t-25 -16
t-15.5 -29.5t-7.5 -46.5h168zM250 653l-126 146h216l55 -146h-145z" />
    <glyph glyph-name="eacute" unicode="&#xe9;" horiz-adv-x="591" 
d="M344 -11q-164 0 -241 83t-77 238q0 73 16.5 131t51 98t87.5 61.5t125 21.5q122 0 191 -70t69 -215q0 -21 -1.5 -44t-3.5 -42h-335q6 -56 40 -79t102 -23q85 0 161 25l21 -148q-38 -17 -92 -27t-114 -10zM390 372q-2 53 -22.5 75t-60.5 22q-22 0 -37 -5t-25 -16
t-15.5 -29.5t-7.5 -46.5h168zM480 799l-124 -146h-143l50 146h217z" />
    <glyph glyph-name="ecircumflex" unicode="&#xea;" horiz-adv-x="591" 
d="M344 -11q-164 0 -241 83t-77 238q0 73 16.5 131t51 98t87.5 61.5t125 21.5q122 0 191 -70t69 -215q0 -21 -1.5 -44t-3.5 -42h-335q6 -56 40 -79t102 -23q85 0 161 25l21 -148q-38 -17 -92 -27t-114 -10zM390 372q-2 53 -22.5 75t-60.5 22q-22 0 -37 -5t-25 -16
t-15.5 -29.5t-7.5 -46.5h168zM388 799l97 -146h-141l-35 69h-6l-36 -69h-141l95 146h167z" />
    <glyph glyph-name="edieresis" unicode="&#xeb;" horiz-adv-x="591" 
d="M344 -11q-164 0 -241 83t-77 238q0 73 16.5 131t51 98t87.5 61.5t125 21.5q122 0 191 -70t69 -215q0 -21 -1.5 -44t-3.5 -42h-335q6 -56 40 -79t102 -23q85 0 161 25l21 -148q-38 -17 -92 -27t-114 -10zM390 372q-2 53 -22.5 75t-60.5 22q-22 0 -37 -5t-25 -16
t-15.5 -29.5t-7.5 -46.5h168zM276 732q0 -36 -18 -54.5t-60 -18.5q-40 0 -59 16.5t-19 56.5q0 75 78 75q42 0 60 -19t18 -56zM472 732q0 -36 -18 -54.5t-60 -18.5q-40 0 -59 16.5t-19 56.5q0 75 78 75q42 0 60 -19t18 -56z" />
    <glyph glyph-name="igrave" unicode="&#xec;" horiz-adv-x="324" 
d="M63 0v606l197 9v-615h-197zM111 653l-126 146h216l55 -146h-145z" />
    <glyph glyph-name="iacute" unicode="&#xed;" horiz-adv-x="324" 
d="M63 0v606l197 9v-615h-197zM341 799l-124 -146h-143l50 146h217z" />
    <glyph glyph-name="icircumflex" unicode="&#xee;" horiz-adv-x="324" 
d="M63 0v606l197 9v-615h-197zM249 799l97 -146h-141l-35 69h-6l-36 -69h-141l95 146h167z" />
    <glyph glyph-name="idieresis" unicode="&#xef;" horiz-adv-x="324" 
d="M63 0v606l197 9v-615h-197zM148 732q0 -36 -18 -54.5t-60 -18.5q-40 0 -59 16.5t-19 56.5q0 75 78 75q42 0 60 -19t18 -56zM344 732q0 -36 -18 -54.5t-60 -18.5q-40 0 -59 16.5t-19 56.5q0 75 78 75q42 0 60 -19t18 -56z" />
    <glyph glyph-name="eth" unicode="&#xf0;" horiz-adv-x="631" 
d="M442 676q35 -35 65 -75t51.5 -83.5t34 -89.5t12.5 -92q0 -93 -18 -159t-54 -108t-90 -61t-126 -19q-62 0 -115.5 13.5t-92.5 47t-61 89.5t-22 141q0 128 62 194t176 66q63 0 109 -20l2 2q-30 42 -70 80l-87 -48l-66 71l71 40q-37 24 -79 46l135 84q42 -22 82 -50l86 49
l63 -80zM226 273q0 -40 5.5 -65.5t16 -40t26.5 -20t36 -5.5q50 0 72 34t23 117q0 51 -24 71.5t-69 20.5q-48 0 -67 -24.5t-19 -87.5z" />
    <glyph glyph-name="ntilde" unicode="&#xf1;" horiz-adv-x="634" 
d="M396 0v382q0 42 -18.5 60t-55.5 18q-24 0 -45.5 -9t-34.5 -26v-425h-192v608l138 8l27 -48q34 27 75.5 41t86.5 14q97 0 154.5 -62t57.5 -179v-382h-193zM146 661q1 31 9 57t22.5 45.5t35.5 30.5t47 11q27 0 45.5 -7t33.5 -15.5t28.5 -15.5t28.5 -7q14 0 20.5 10t10.5 24
l86 -1q-2 -64 -32.5 -103t-81.5 -39q-26 0 -45 7t-34 15t-28.5 15t-28.5 7q-13 0 -20.5 -10t-9.5 -24h-87z" />
    <glyph glyph-name="ograve" unicode="&#xf2;" horiz-adv-x="630" 
d="M604 303q0 -84 -17 -144t-52 -98.5t-89.5 -56.5t-130.5 -18q-150 0 -219.5 74.5t-69.5 242.5t70 244t220 76q75 0 129.5 -18.5t90 -57.5t52 -99.5t16.5 -144.5zM226 303q0 -51 5 -83.5t15.5 -51t27.5 -25.5t42 -7t42 7t27.5 26t15 51t4.5 83t-4.5 83.5t-15 51t-27.5 25.5
t-42 7t-42.5 -7t-28 -25.5t-15 -51t-4.5 -83.5zM260 653l-126 146h216l55 -146h-145z" />
    <glyph glyph-name="oacute" unicode="&#xf3;" horiz-adv-x="630" 
d="M604 303q0 -84 -17 -144t-52 -98.5t-89.5 -56.5t-130.5 -18q-150 0 -219.5 74.5t-69.5 242.5t70 244t220 76q75 0 129.5 -18.5t90 -57.5t52 -99.5t16.5 -144.5zM226 303q0 -51 5 -83.5t15.5 -51t27.5 -25.5t42 -7t42 7t27.5 26t15 51t4.5 83t-4.5 83.5t-15 51t-27.5 25.5
t-42 7t-42.5 -7t-28 -25.5t-15 -51t-4.5 -83.5zM490 799l-124 -146h-143l50 146h217z" />
    <glyph glyph-name="ocircumflex" unicode="&#xf4;" horiz-adv-x="630" 
d="M604 303q0 -84 -17 -144t-52 -98.5t-89.5 -56.5t-130.5 -18q-150 0 -219.5 74.5t-69.5 242.5t70 244t220 76q75 0 129.5 -18.5t90 -57.5t52 -99.5t16.5 -144.5zM226 303q0 -51 5 -83.5t15.5 -51t27.5 -25.5t42 -7t42 7t27.5 26t15 51t4.5 83t-4.5 83.5t-15 51t-27.5 25.5
t-42 7t-42.5 -7t-28 -25.5t-15 -51t-4.5 -83.5zM398 799l97 -146h-141l-35 69h-6l-36 -69h-141l95 146h167z" />
    <glyph glyph-name="otilde" unicode="&#xf5;" horiz-adv-x="630" 
d="M604 303q0 -84 -17 -144t-52 -98.5t-89.5 -56.5t-130.5 -18q-150 0 -219.5 74.5t-69.5 242.5t70 244t220 76q75 0 129.5 -18.5t90 -57.5t52 -99.5t16.5 -144.5zM226 303q0 -51 5 -83.5t15.5 -51t27.5 -25.5t42 -7t42 7t27.5 26t15 51t4.5 83t-4.5 83.5t-15 51t-27.5 25.5
t-42 7t-42.5 -7t-28 -25.5t-15 -51t-4.5 -83.5zM137 661q1 31 9 57t22.5 45.5t35.5 30.5t47 11q27 0 45.5 -7t33.5 -15.5t28.5 -15.5t28.5 -7q14 0 20.5 10t10.5 24l86 -1q-2 -64 -32.5 -103t-81.5 -39q-26 0 -45 7t-34 15t-28.5 15t-28.5 7q-13 0 -20.5 -10t-9.5 -24h-87z
" />
    <glyph glyph-name="odieresis" unicode="&#xf6;" horiz-adv-x="630" 
d="M604 303q0 -84 -17 -144t-52 -98.5t-89.5 -56.5t-130.5 -18q-150 0 -219.5 74.5t-69.5 242.5t70 244t220 76q75 0 129.5 -18.5t90 -57.5t52 -99.5t16.5 -144.5zM226 303q0 -51 5 -83.5t15.5 -51t27.5 -25.5t42 -7t42 7t27.5 26t15 51t4.5 83t-4.5 83.5t-15 51t-27.5 25.5
t-42 7t-42.5 -7t-28 -25.5t-15 -51t-4.5 -83.5zM295 732q0 -36 -18 -54.5t-60 -18.5q-40 0 -59 16.5t-19 56.5q0 75 78 75q42 0 60 -19t18 -56zM491 732q0 -36 -18 -54.5t-60 -18.5q-40 0 -59 16.5t-19 56.5q0 75 78 75q42 0 60 -19t18 -56z" />
    <glyph glyph-name="divide" unicode="&#xf7;" horiz-adv-x="605" 
d="M419 538q0 -87 -116 -87q-56 0 -86 18.5t-30 68.5q0 44 29.5 66t86.5 22q116 0 116 -88zM419 130q0 -86 -116 -86q-57 0 -86.5 18t-29.5 68q0 45 29.5 67t86.5 22q116 0 116 -89zM53 249v170h499v-170h-499z" />
    <glyph glyph-name="oslash" unicode="&#xf8;" horiz-adv-x="630" 
d="M26 51l41 49q-41 72 -41 203q0 168 70 244t220 76q103 0 168 -36l36 43l79 -70l-39 -47q44 -75 44 -210q0 -84 -17 -144t-52 -98.5t-89.5 -56.5t-130.5 -18q-110 0 -174 38l-36 -43zM405 322q0 10 1 19l-160 -172q11 -19 28 -26t42 -7t42 7t27.5 26t15 51t4.5 83v19z
M226 277l155 167q-11 15 -26.5 20.5t-38.5 5.5q-25 0 -42.5 -7t-28 -25.5t-15 -51t-4.5 -83.5v-26z" />
    <glyph glyph-name="ugrave" unicode="&#xf9;" horiz-adv-x="628" 
d="M584 223q0 -116 -66.5 -175t-203.5 -59t-203 60t-66 174v389h192v-386q0 -37 18 -55t60 -18q40 0 58 17.5t18 55.5v386h193v-389zM259 653l-126 146h216l55 -146h-145z" />
    <glyph glyph-name="uacute" unicode="&#xfa;" horiz-adv-x="628" 
d="M584 223q0 -116 -66.5 -175t-203.5 -59t-203 60t-66 174v389h192v-386q0 -37 18 -55t60 -18q40 0 58 17.5t18 55.5v386h193v-389zM489 799l-124 -146h-143l50 146h217z" />
    <glyph glyph-name="ucircumflex" unicode="&#xfb;" horiz-adv-x="628" 
d="M584 223q0 -116 -66.5 -175t-203.5 -59t-203 60t-66 174v389h192v-386q0 -37 18 -55t60 -18q40 0 58 17.5t18 55.5v386h193v-389zM397 799l97 -146h-141l-35 69h-6l-36 -69h-141l95 146h167z" />
    <glyph glyph-name="udieresis" unicode="&#xfc;" horiz-adv-x="628" 
d="M584 223q0 -116 -66.5 -175t-203.5 -59t-203 60t-66 174v389h192v-386q0 -37 18 -55t60 -18q40 0 58 17.5t18 55.5v386h193v-389zM294 732q0 -36 -18 -54.5t-60 -18.5q-40 0 -59 16.5t-19 56.5q0 75 78 75q42 0 60 -19t18 -56zM490 732q0 -36 -18 -54.5t-60 -18.5
q-40 0 -59 16.5t-19 56.5q0 75 78 75q42 0 60 -19t18 -56z" />
    <glyph glyph-name="yacute" unicode="&#xfd;" horiz-adv-x="663" 
d="M177 -35q30 0 52 10t35 39l2 6l-260 592h218l108 -326l24 -77h3l17 79l77 324h204l-200 -592q-35 -103 -95.5 -147.5t-149.5 -44.5q-60 0 -110 19l14 130q17 -7 31 -9.5t30 -2.5zM513 799l-124 -146h-143l50 146h217z" />
    <glyph glyph-name="thorn" unicode="&#xfe;" horiz-adv-x="638" 
d="M612 307q0 -79 -17 -138.5t-47.5 -99t-74 -59.5t-96.5 -20q-35 0 -67.5 8.5t-61.5 29.5l-3 -1l2 -81v-103h-193v930l192 9v-129l-2 -80l3 -2q29 24 65.5 37.5t78.5 13.5q51 0 92 -16.5t69.5 -54t44 -97.5t15.5 -147zM412 308q0 45 -4.5 74.5t-14.5 46.5t-26.5 23.5
t-40.5 6.5q-26 0 -46.5 -10.5t-32.5 -28.5v-236q12 -18 31 -29.5t45 -11.5q21 0 37.5 6.5t28 24.5t17.5 50t6 84z" />
    <glyph glyph-name="ydieresis" unicode="&#xff;" horiz-adv-x="663" 
d="M177 -35q30 0 52 10t35 39l2 6l-260 592h218l108 -326l24 -77h3l17 79l77 324h204l-200 -592q-35 -103 -95.5 -147.5t-149.5 -44.5q-60 0 -110 19l14 130q17 -7 31 -9.5t30 -2.5zM313 732q0 -36 -18 -54.5t-60 -18.5q-40 0 -59 16.5t-19 56.5q0 75 78 75q42 0 60 -19
t18 -56zM509 732q0 -36 -18 -54.5t-60 -18.5q-40 0 -59 16.5t-19 56.5q0 75 78 75q42 0 60 -19t18 -56z" />
    <glyph glyph-name="Amacron" unicode="&#x100;" horiz-adv-x="748" 
d="M484 129h-232l-33 -129h-221l249 750h250l253 -750h-233zM349 506l-54 -210h147l-53 209l-18 80h-3zM544 799h-343v91h343v-91z" />
    <glyph glyph-name="amacron" unicode="&#x101;" horiz-adv-x="585" 
d="M379 50q-30 -29 -70 -44.5t-89 -15.5q-90 0 -140.5 51t-50.5 154q0 42 15 77.5t43 61t68.5 40t91.5 14.5q31 0 56 -3.5t47 -9.5v22q0 34 -22 52t-79 18q-26 0 -47 -2t-40.5 -5.5t-38.5 -9.5t-41 -14l-15 146q93 40 218 40q72 0 121 -15.5t79 -47t43 -79t13 -110.5v-370
h-148zM350 253q-11 3 -27 6t-39 3q-75 0 -75 -65q0 -33 17.5 -47.5t46.5 -14.5q31 0 54 15.5t23 40.5v62zM461 672h-342v112h342v-112z" />
    <glyph glyph-name="Abreve" unicode="&#x102;" horiz-adv-x="748" 
d="M484 129h-232l-33 -129h-221l249 750h250l253 -750h-233zM349 506l-54 -210h147l-53 209l-18 80h-3zM553 913q0 -63 -43 -96t-140 -33q-51 0 -85.5 9t-55.5 25.5t-30.5 40.5t-9.5 54h140q1 -21 12 -28.5t30 -7.5q17 0 28.5 7t11.5 29h142z" />
    <glyph glyph-name="abreve" unicode="&#x103;" horiz-adv-x="585" 
d="M379 50q-30 -29 -70 -44.5t-89 -15.5q-90 0 -140.5 51t-50.5 154q0 42 15 77.5t43 61t68.5 40t91.5 14.5q31 0 56 -3.5t47 -9.5v22q0 34 -22 52t-79 18q-26 0 -47 -2t-40.5 -5.5t-38.5 -9.5t-41 -14l-15 146q93 40 218 40q72 0 121 -15.5t79 -47t43 -79t13 -110.5v-370
h-148zM350 253q-11 3 -27 6t-39 3q-75 0 -75 -65q0 -33 17.5 -47.5t46.5 -14.5q31 0 54 15.5t23 40.5v62zM459 799q0 -75 -40 -115t-131 -40q-48 0 -81 10.5t-52.5 31t-28 49t-8.5 64.5h127q1 -35 12.5 -48.5t30.5 -13.5q17 0 29 12.5t12 49.5h130z" />
    <glyph glyph-name="Aogonek" unicode="&#x104;" horiz-adv-x="748" 
d="M484 129h-232l-33 -129h-221l249 750h250l253 -750h-29q-23 -2 -38 -16t-15 -31q0 -16 10.5 -24.5t35.5 -8.5q13 0 23 2t20 7l15 -97q-23 -11 -50.5 -18t-63.5 -7q-68 0 -101.5 27t-33.5 71q0 32 14 55.5t40 39.5h-60zM349 506l-54 -210h147l-53 209l-18 80h-3z" />
    <glyph glyph-name="aogonek" unicode="&#x105;" horiz-adv-x="585" 
d="M379 50q-30 -29 -70 -44.5t-89 -15.5q-90 0 -140.5 51t-50.5 154q0 42 15 77.5t43 61t68.5 40t91.5 14.5q31 0 56 -3.5t47 -9.5v22q0 34 -22 52t-79 18q-26 0 -47 -2t-40.5 -5.5t-38.5 -9.5t-41 -14l-15 146q93 40 218 40q72 0 121 -15.5t79 -47t43 -79t13 -110.5v-370
h-1q-47 -12 -47 -48q0 -15 10.5 -23.5t35.5 -8.5q14 0 23.5 2t19.5 7l15 -96q-23 -12 -50.5 -18.5t-63.5 -6.5q-69 0 -101.5 27t-32.5 69q0 33 14.5 56.5t40.5 39.5h-11zM350 253q-11 3 -27 6t-39 3q-75 0 -75 -65q0 -33 17.5 -47.5t46.5 -14.5q31 0 54 15.5t23 40.5v62z
" />
    <glyph glyph-name="Cacute" unicode="&#x106;" horiz-adv-x="591" 
d="M546 562q-29 9 -64 15.5t-76 6.5q-46 0 -75.5 -10t-47 -34t-24 -63.5t-6.5 -98.5q0 -63 7 -104t25 -66t48 -35t76 -10q38 0 73.5 7t65.5 20l21 -164q-39 -18 -90 -29t-100 -11q-173 0 -259.5 96.5t-86.5 296.5q0 92 21 164t65.5 121t112.5 74.5t161 25.5q45 0 92.5 -8.5
t81.5 -21.5zM567 912l-144 -122h-153l57 122h240z" />
    <glyph glyph-name="cacute" unicode="&#x107;" horiz-adv-x="490" 
d="M452 441q-22 6 -46 10.5t-47 4.5q-39 0 -64.5 -8t-40.5 -26t-21.5 -47.5t-6.5 -72.5q0 -83 34 -119.5t95 -36.5q28 0 53 5t47 13l13 -144q-26 -15 -65 -23.5t-90 -8.5q-141 0 -214 78.5t-73 235.5q0 75 17 134.5t52 100.5t90 62.5t132 21.5q37 0 77 -6.5t68 -17.5z
M473 799l-124 -146h-143l50 146h217z" />
    <glyph glyph-name="Ccircumflex" unicode="&#x108;" horiz-adv-x="591" 
d="M546 562q-29 9 -64 15.5t-76 6.5q-46 0 -75.5 -10t-47 -34t-24 -63.5t-6.5 -98.5q0 -63 7 -104t25 -66t48 -35t76 -10q38 0 73.5 7t65.5 20l21 -164q-39 -18 -90 -29t-100 -11q-173 0 -259.5 96.5t-86.5 296.5q0 92 21 164t65.5 121t112.5 74.5t161 25.5q45 0 92.5 -8.5
t81.5 -21.5zM461 912l101 -122h-165l-38 45l-38 -45h-162l97 122h205z" />
    <glyph glyph-name="ccircumflex" unicode="&#x109;" horiz-adv-x="490" 
d="M452 441q-22 6 -46 10.5t-47 4.5q-39 0 -64.5 -8t-40.5 -26t-21.5 -47.5t-6.5 -72.5q0 -83 34 -119.5t95 -36.5q28 0 53 5t47 13l13 -144q-26 -15 -65 -23.5t-90 -8.5q-141 0 -214 78.5t-73 235.5q0 75 17 134.5t52 100.5t90 62.5t132 21.5q37 0 77 -6.5t68 -17.5z
M377 799l97 -146h-141l-35 69h-6l-36 -69h-141l95 146h167z" />
    <glyph glyph-name="Cdotaccent" unicode="&#x10a;" horiz-adv-x="591" 
d="M546 562q-29 9 -64 15.5t-76 6.5q-46 0 -75.5 -10t-47 -34t-24 -63.5t-6.5 -98.5q0 -63 7 -104t25 -66t48 -35t76 -10q38 0 73.5 7t65.5 20l21 -164q-39 -18 -90 -29t-100 -11q-173 0 -259.5 96.5t-86.5 296.5q0 92 21 164t65.5 121t112.5 74.5t161 25.5q45 0 92.5 -8.5
t81.5 -21.5zM468 850q0 -33 -23.5 -50t-84.5 -17q-60 0 -84.5 15t-24.5 52q0 34 24.5 51t84.5 17q61 0 84.5 -17t23.5 -51z" />
    <glyph glyph-name="cdotaccent" unicode="&#x10b;" horiz-adv-x="490" 
d="M452 441q-22 6 -46 10.5t-47 4.5q-39 0 -64.5 -8t-40.5 -26t-21.5 -47.5t-6.5 -72.5q0 -83 34 -119.5t95 -36.5q28 0 53 5t47 13l13 -144q-26 -15 -65 -23.5t-90 -8.5q-141 0 -214 78.5t-73 235.5q0 75 17 134.5t52 100.5t90 62.5t132 21.5q37 0 77 -6.5t68 -17.5z
M404 732q0 -37 -24.5 -55.5t-80.5 -18.5q-54 0 -79 16.5t-25 57.5q0 75 104 75q56 0 80.5 -19t24.5 -56z" />
    <glyph glyph-name="Ccaron" unicode="&#x10c;" horiz-adv-x="591" 
d="M546 562q-29 9 -64 15.5t-76 6.5q-46 0 -75.5 -10t-47 -34t-24 -63.5t-6.5 -98.5q0 -63 7 -104t25 -66t48 -35t76 -10q38 0 73.5 7t65.5 20l21 -164q-39 -18 -90 -29t-100 -11q-173 0 -259.5 96.5t-86.5 296.5q0 92 21 164t65.5 121t112.5 74.5t161 25.5q45 0 92.5 -8.5
t81.5 -21.5zM256 790l-99 122h164l38 -49l39 49h163l-101 -122h-204z" />
    <glyph glyph-name="ccaron" unicode="&#x10d;" horiz-adv-x="490" 
d="M452 441q-22 6 -46 10.5t-47 4.5q-39 0 -64.5 -8t-40.5 -26t-21.5 -47.5t-6.5 -72.5q0 -83 34 -119.5t95 -36.5q28 0 53 5t47 13l13 -144q-26 -15 -65 -23.5t-90 -8.5q-141 0 -214 78.5t-73 235.5q0 75 17 134.5t52 100.5t90 62.5t132 21.5q37 0 77 -6.5t68 -17.5z
M212 653l-94 146h140l35 -75h6l35 75h143l-97 -146h-168z" />
    <glyph glyph-name="Dcaron" unicode="&#x10e;" horiz-adv-x="729" 
d="M696 379q0 -102 -22 -174t-65 -117.5t-107.5 -66.5t-148.5 -21h-297v750h294q92 0 157.5 -22t107.5 -67.5t61.5 -115.5t19.5 -166zM476 380q0 59 -6 96t-21 58t-39.5 28.5t-60.5 7.5h-84v-392h84q36 0 60.5 7t39 28.5t21 61.5t6.5 105zM214 790l-99 122h164l38 -49l39 49
h163l-101 -122h-204z" />
    <glyph glyph-name="dcaron" unicode="&#x10f;" horiz-adv-x="637" 
d="M434 0l-17 48q-29 -29 -67 -44.5t-90 -15.5q-115 0 -174.5 78.5t-59.5 242.5q0 150 58.5 232t171.5 82q78 0 136 -47l2 2l-2 80v115l192 9v-782h-150zM392 424q-11 14 -31.5 24t-46.5 10q-24 0 -41 -7.5t-27.5 -25.5t-15.5 -48t-5 -75q0 -49 4 -80.5t14.5 -50t27.5 -26
t44 -7.5q29 0 48.5 12t28.5 28v246zM685 758q42 0 60.5 -18t18.5 -50q0 -33 -27 -62.5t-63 -53.5l-44 20l20 52q-41 12 -41 55q0 23 17 40t59 17z" />
    <glyph glyph-name="Dcroat" unicode="&#x110;" horiz-adv-x="741" 
d="M708 379q0 -102 -22 -174t-65 -117.5t-107.5 -66.5t-148.5 -21h-297v329h-53v118h53v303h294q92 0 157.5 -22t107.5 -67.5t61.5 -115.5t19.5 -166zM488 380q0 59 -6 96t-21 58t-39.5 28.5t-60.5 7.5h-84v-123h69v-118h-69v-151h84q36 0 60.5 7t39 28.5t21 61.5t6.5 105z
" />
    <glyph glyph-name="dcroat" unicode="&#x111;" horiz-adv-x="647" 
d="M434 0l-17 48q-29 -29 -67 -44.5t-90 -15.5q-115 0 -174.5 78.5t-59.5 242.5q0 150 58.5 232t171.5 82q79 0 134 -46l2 1v55h-55v99h55v41l192 9v-50h49v-99h-49v-633h-150zM392 424q-11 14 -31.5 24t-46.5 10q-24 0 -41 -7.5t-27.5 -25.5t-15.5 -48t-5 -75
q0 -49 4 -80.5t14.5 -50t27.5 -26t44 -7.5q29 0 48.5 12t28.5 28v246z" />
    <glyph glyph-name="Emacron" unicode="&#x112;" horiz-adv-x="616" 
d="M589 175l-4 -175h-529v750h516l3 -177h-310v-110h256v-160h-256v-128h324zM495 799h-343v91h343v-91z" />
    <glyph glyph-name="emacron" unicode="&#x113;" horiz-adv-x="591" 
d="M344 -11q-164 0 -241 83t-77 238q0 73 16.5 131t51 98t87.5 61.5t125 21.5q122 0 191 -70t69 -215q0 -21 -1.5 -44t-3.5 -42h-335q6 -56 40 -79t102 -23q85 0 161 25l21 -148q-38 -17 -92 -27t-114 -10zM390 372q-2 53 -22.5 75t-60.5 22q-22 0 -37 -5t-25 -16
t-15.5 -29.5t-7.5 -46.5h168zM477 672h-342v112h342v-112z" />
    <glyph glyph-name="Ebreve" unicode="&#x114;" horiz-adv-x="616" 
d="M589 175l-4 -175h-529v750h516l3 -177h-310v-110h256v-160h-256v-128h324zM504 913q0 -63 -43 -96t-140 -33q-51 0 -85.5 9t-55.5 25.5t-30.5 40.5t-9.5 54h140q1 -21 12 -28.5t30 -7.5q17 0 28.5 7t11.5 29h142z" />
    <glyph glyph-name="ebreve" unicode="&#x115;" horiz-adv-x="591" 
d="M344 -11q-164 0 -241 83t-77 238q0 73 16.5 131t51 98t87.5 61.5t125 21.5q122 0 191 -70t69 -215q0 -21 -1.5 -44t-3.5 -42h-335q6 -56 40 -79t102 -23q85 0 161 25l21 -148q-38 -17 -92 -27t-114 -10zM390 372q-2 53 -22.5 75t-60.5 22q-22 0 -37 -5t-25 -16
t-15.5 -29.5t-7.5 -46.5h168zM475 799q0 -75 -40 -115t-131 -40q-48 0 -81 10.5t-52.5 31t-28 49t-8.5 64.5h127q1 -35 12.5 -48.5t30.5 -13.5q17 0 29 12.5t12 49.5h130z" />
    <glyph glyph-name="Edotaccent" unicode="&#x116;" horiz-adv-x="616" 
d="M589 175l-4 -175h-529v750h516l3 -177h-310v-110h256v-160h-256v-128h324zM430 850q0 -33 -23.5 -50t-84.5 -17q-60 0 -84.5 15t-24.5 52q0 34 24.5 51t84.5 17q61 0 84.5 -17t23.5 -51z" />
    <glyph glyph-name="edotaccent" unicode="&#x117;" horiz-adv-x="591" 
d="M344 -11q-164 0 -241 83t-77 238q0 73 16.5 131t51 98t87.5 61.5t125 21.5q122 0 191 -70t69 -215q0 -21 -1.5 -44t-3.5 -42h-335q6 -56 40 -79t102 -23q85 0 161 25l21 -148q-38 -17 -92 -27t-114 -10zM390 372q-2 53 -22.5 75t-60.5 22q-22 0 -37 -5t-25 -16
t-15.5 -29.5t-7.5 -46.5h168zM411 732q0 -37 -24.5 -55.5t-80.5 -18.5q-54 0 -79 16.5t-25 57.5q0 75 104 75q56 0 80.5 -19t24.5 -56z" />
    <glyph glyph-name="Eogonek" unicode="&#x118;" horiz-adv-x="616" 
d="M589 175l-4 -175h-38q-23 -2 -38 -16t-15 -31q0 -16 10.5 -24.5t35.5 -8.5q13 0 23 2t20 7l15 -97q-23 -11 -50.5 -18t-63.5 -7q-68 0 -101.5 27t-33.5 71q0 32 14 55.5t40 39.5h-347v750h516l3 -177h-310v-110h256v-160h-256v-128h324z" />
    <glyph glyph-name="eogonek" unicode="&#x119;" horiz-adv-x="591" 
d="M272 -6q-127 17 -186.5 97.5t-59.5 218.5q0 73 16.5 131t51 98t87.5 61.5t125 21.5q122 0 191 -70t69 -215q0 -21 -1.5 -44t-3.5 -42h-335q6 -56 40 -79t102 -23q85 0 161 25l21 -148q-29 -13 -67.5 -21.5t-82.5 -12.5q-40 -13 -40 -47q0 -15 10.5 -23.5t35.5 -8.5
q14 0 23.5 2t19.5 7l15 -96q-23 -12 -50.5 -18.5t-63.5 -6.5q-69 0 -101.5 27t-32.5 69q0 34 15 57.5t41 39.5zM390 372q-2 53 -22.5 75t-60.5 22q-22 0 -37 -5t-25 -16t-15.5 -29.5t-7.5 -46.5h168z" />
    <glyph glyph-name="Ecaron" unicode="&#x11a;" horiz-adv-x="616" 
d="M589 175l-4 -175h-529v750h516l3 -177h-310v-110h256v-160h-256v-128h324zM218 790l-99 122h164l38 -49l39 49h163l-101 -122h-204z" />
    <glyph glyph-name="ecaron" unicode="&#x11b;" horiz-adv-x="591" 
d="M344 -11q-164 0 -241 83t-77 238q0 73 16.5 131t51 98t87.5 61.5t125 21.5q122 0 191 -70t69 -215q0 -21 -1.5 -44t-3.5 -42h-335q6 -56 40 -79t102 -23q85 0 161 25l21 -148q-38 -17 -92 -27t-114 -10zM390 372q-2 53 -22.5 75t-60.5 22q-22 0 -37 -5t-25 -16
t-15.5 -29.5t-7.5 -46.5h168zM222 653l-94 146h140l35 -75h6l35 75h143l-97 -146h-168z" />
    <glyph glyph-name="Gcircumflex" unicode="&#x11c;" horiz-adv-x="672" 
d="M630 27q-44 -19 -106.5 -30t-123.5 -11q-101 0 -170.5 25.5t-113.5 74.5t-63.5 121.5t-19.5 167.5q0 96 21.5 168.5t67 121t116 73.5t169.5 25q54 0 111 -8.5t102 -24.5l-20 -174q-40 14 -88 22t-93 8q-51 0 -83.5 -9.5t-50.5 -33.5t-25 -64.5t-7 -101.5q0 -64 6.5 -105
t23 -65t43.5 -33t68 -9q13 0 25.5 1t24.5 3v237h186v-379zM483 912l101 -122h-165l-38 45l-38 -45h-162l97 122h205z" />
    <glyph glyph-name="gcircumflex" unicode="&#x11d;" horiz-adv-x="595" 
d="M288 240q-17 0 -33.5 1t-33.5 3q-10 -8 -10 -20q0 -21 32 -22l144 -7q106 -5 152.5 -45.5t46.5 -114.5q0 -94 -70 -148.5t-223 -54.5q-68 0 -116.5 12t-80 33.5t-46 51t-14.5 63.5q0 54 42 92q-20 15 -32.5 37.5t-12.5 53.5q0 32 17 61t58 50q-31 22 -48.5 57t-17.5 86
q0 41 13 76.5t42.5 61.5t76 40.5t113.5 14.5q40 0 80 -7t74 -24l105 31l40 -88l-61 -50q6 -24 6 -55q0 -89 -57.5 -139t-185.5 -50zM212 49q-14 -17 -14 -33q0 -24 21 -35t70 -11q38 0 62.5 2.5t38.5 7.5t19.5 12t5.5 16q0 16 -12 23t-50 9zM289 484q-32 0 -44.5 -13.5
t-12.5 -45.5q0 -35 13.5 -47t39.5 -12q35 0 48 12.5t13 46.5q0 33 -12.5 46t-44.5 13zM385 799l97 -146h-141l-35 69h-6l-36 -69h-141l95 146h167z" />
    <glyph glyph-name="Gbreve" unicode="&#x11e;" horiz-adv-x="672" 
d="M630 27q-44 -19 -106.5 -30t-123.5 -11q-101 0 -170.5 25.5t-113.5 74.5t-63.5 121.5t-19.5 167.5q0 96 21.5 168.5t67 121t116 73.5t169.5 25q54 0 111 -8.5t102 -24.5l-20 -174q-40 14 -88 22t-93 8q-51 0 -83.5 -9.5t-50.5 -33.5t-25 -64.5t-7 -101.5q0 -64 6.5 -105
t23 -65t43.5 -33t68 -9q13 0 25.5 1t24.5 3v237h186v-379zM565 913q0 -63 -43 -96t-140 -33q-51 0 -85.5 9t-55.5 25.5t-30.5 40.5t-9.5 54h140q1 -21 12 -28.5t30 -7.5q17 0 28.5 7t11.5 29h142z" />
    <glyph glyph-name="gbreve" unicode="&#x11f;" horiz-adv-x="595" 
d="M288 240q-17 0 -33.5 1t-33.5 3q-10 -8 -10 -20q0 -21 32 -22l144 -7q106 -5 152.5 -45.5t46.5 -114.5q0 -94 -70 -148.5t-223 -54.5q-68 0 -116.5 12t-80 33.5t-46 51t-14.5 63.5q0 54 42 92q-20 15 -32.5 37.5t-12.5 53.5q0 32 17 61t58 50q-31 22 -48.5 57t-17.5 86
q0 41 13 76.5t42.5 61.5t76 40.5t113.5 14.5q40 0 80 -7t74 -24l105 31l40 -88l-61 -50q6 -24 6 -55q0 -89 -57.5 -139t-185.5 -50zM212 49q-14 -17 -14 -33q0 -24 21 -35t70 -11q38 0 62.5 2.5t38.5 7.5t19.5 12t5.5 16q0 16 -12 23t-50 9zM289 484q-32 0 -44.5 -13.5
t-12.5 -45.5q0 -35 13.5 -47t39.5 -12q35 0 48 12.5t13 46.5q0 33 -12.5 46t-44.5 13zM474 799q0 -75 -40 -115t-131 -40q-48 0 -81 10.5t-52.5 31t-28 49t-8.5 64.5h127q1 -35 12.5 -48.5t30.5 -13.5q17 0 29 12.5t12 49.5h130z" />
    <glyph glyph-name="Gdotaccent" unicode="&#x120;" horiz-adv-x="672" 
d="M630 27q-44 -19 -106.5 -30t-123.5 -11q-101 0 -170.5 25.5t-113.5 74.5t-63.5 121.5t-19.5 167.5q0 96 21.5 168.5t67 121t116 73.5t169.5 25q54 0 111 -8.5t102 -24.5l-20 -174q-40 14 -88 22t-93 8q-51 0 -83.5 -9.5t-50.5 -33.5t-25 -64.5t-7 -101.5q0 -64 6.5 -105
t23 -65t43.5 -33t68 -9q13 0 25.5 1t24.5 3v237h186v-379zM504 850q0 -33 -23.5 -50t-84.5 -17q-60 0 -84.5 15t-24.5 52q0 34 24.5 51t84.5 17q61 0 84.5 -17t23.5 -51z" />
    <glyph glyph-name="gdotaccent" unicode="&#x121;" horiz-adv-x="595" 
d="M288 240q-17 0 -33.5 1t-33.5 3q-10 -8 -10 -20q0 -21 32 -22l144 -7q106 -5 152.5 -45.5t46.5 -114.5q0 -94 -70 -148.5t-223 -54.5q-68 0 -116.5 12t-80 33.5t-46 51t-14.5 63.5q0 54 42 92q-20 15 -32.5 37.5t-12.5 53.5q0 32 17 61t58 50q-31 22 -48.5 57t-17.5 86
q0 41 13 76.5t42.5 61.5t76 40.5t113.5 14.5q40 0 80 -7t74 -24l105 31l40 -88l-61 -50q6 -24 6 -55q0 -89 -57.5 -139t-185.5 -50zM212 49q-14 -17 -14 -33q0 -24 21 -35t70 -11q38 0 62.5 2.5t38.5 7.5t19.5 12t5.5 16q0 16 -12 23t-50 9zM289 484q-32 0 -44.5 -13.5
t-12.5 -45.5q0 -35 13.5 -47t39.5 -12q35 0 48 12.5t13 46.5q0 33 -12.5 46t-44.5 13zM408 732q0 -37 -24.5 -55.5t-80.5 -18.5q-54 0 -79 16.5t-25 57.5q0 75 104 75q56 0 80.5 -19t24.5 -56z" />
    <glyph glyph-name="uni0122" unicode="&#x122;" horiz-adv-x="672" 
d="M630 27q-44 -19 -106.5 -30t-123.5 -11q-101 0 -170.5 25.5t-113.5 74.5t-63.5 121.5t-19.5 167.5q0 96 21.5 168.5t67 121t116 73.5t169.5 25q54 0 111 -8.5t102 -24.5l-20 -174q-40 14 -88 22t-93 8q-51 0 -83.5 -9.5t-50.5 -33.5t-25 -64.5t-7 -101.5q0 -64 6.5 -105
t23 -65t43.5 -33t68 -9q13 0 25.5 1t24.5 3v237h186v-379zM402 -30q55 0 79 -17t24 -44q0 -18 -9.5 -34t-25.5 -30.5t-37 -27.5t-45 -24l-57 19l24 50q-53 13 -53 53q0 23 22 39t78 16z" />
    <glyph glyph-name="uni0123" unicode="&#x123;" horiz-adv-x="595" 
d="M288 240q-17 0 -33.5 1t-33.5 3q-10 -8 -10 -20q0 -21 32 -22l144 -7q106 -5 152.5 -45.5t46.5 -114.5q0 -94 -70 -148.5t-223 -54.5q-68 0 -116.5 12t-80 33.5t-46 51t-14.5 63.5q0 54 42 92q-20 15 -32.5 37.5t-12.5 53.5q0 32 17 61t58 50q-31 22 -48.5 57t-17.5 86
q0 41 13 76.5t42.5 61.5t76 40.5t113.5 14.5q40 0 80 -7t74 -24l105 31l40 -88l-61 -50q6 -24 6 -55q0 -89 -57.5 -139t-185.5 -50zM212 49q-14 -17 -14 -33q0 -24 21 -35t70 -11q38 0 62.5 2.5t38.5 7.5t19.5 12t5.5 16q0 16 -12 23t-50 9zM289 484q-32 0 -44.5 -13.5
t-12.5 -45.5q0 -35 13.5 -47t39.5 -12q35 0 48 12.5t13 46.5q0 33 -12.5 46t-44.5 13zM304 667q-42 0 -60 18.5t-18 49.5q0 33 27 63t62 53l45 -20l-20 -52q41 -13 41 -54q0 -24 -17 -41t-60 -17z" />
    <glyph glyph-name="Hcircumflex" unicode="&#x124;" horiz-adv-x="735" 
d="M470 0v290h-205v-290h-209v750h209v-280h205v280h209v-750h-209zM469 912l101 -122h-165l-38 45l-38 -45h-162l97 122h205z" />
    <glyph glyph-name="hcircumflex" unicode="&#x125;" horiz-adv-x="638" 
d="M400 0v382q0 78 -74 78q-26 0 -47 -10t-33 -25v-425h-192v773l192 9v-121l-2 -80l3 -2q34 26 70.5 35t70.5 9q97 0 151 -63.5t54 -177.5v-382h-193zM258 932l101 -122h-165l-38 45l-38 -45h-162l97 122h205z" />
    <glyph glyph-name="Hbar" unicode="&#x126;" horiz-adv-x="745" 
d="M474 0v290h-205v-290h-209v550h-34v103h34v97h209v-97h205v97h209v-97h53v-103h-53v-550h-209zM474 470v80h-205v-80h205z" />
    <glyph glyph-name="hbar" unicode="&#x127;" horiz-adv-x="642" 
d="M405 0v382q0 78 -74 78q-26 0 -47 -10t-33 -25v-425h-192v633h-52v99h52v41l192 9v-50h52v-99h-52v-52l3 -1q32 25 68.5 34t70.5 9q97 0 151 -63.5t54 -177.5v-382h-193z" />
    <glyph glyph-name="Itilde" unicode="&#x128;" horiz-adv-x="344" 
d="M65 750h214v-750h-214v750zM-12 792q2 57 32 92t83 35q27 0 49 -5t40 -10.5t32.5 -10.5t26.5 -5q13 0 19 4.5t8 16.5l82 -1q-2 -59 -33.5 -93t-82.5 -34q-27 0 -47.5 5t-37.5 11t-30.5 11t-25.5 5q-11 0 -19 -6.5t-10 -15.5z" />
    <glyph glyph-name="itilde" unicode="&#x129;" horiz-adv-x="324" 
d="M63 0v606l197 9v-615h-197zM-15 661q1 31 9 57t22.5 45.5t35.5 30.5t47 11q27 0 45.5 -7t33.5 -15.5t28.5 -15.5t28.5 -7q14 0 20.5 10t10.5 24l86 -1q-2 -64 -32.5 -103t-81.5 -39q-26 0 -45 7t-34 15t-28.5 15t-28.5 7q-13 0 -20.5 -10t-9.5 -24h-87z" />
    <glyph glyph-name="Imacron" unicode="&#x12a;" horiz-adv-x="344" 
d="M65 750h214v-750h-214v750zM345 799h-343v91h343v-91z" />
    <glyph glyph-name="imacron" unicode="&#x12b;" horiz-adv-x="324" 
d="M63 0v606l197 9v-615h-197zM339 672h-342v112h342v-112z" />
    <glyph glyph-name="Ibreve" unicode="&#x12c;" horiz-adv-x="344" 
d="M65 750h214v-750h-214v750zM355 913q0 -63 -43 -96t-140 -33q-51 0 -85.5 9t-55.5 25.5t-30.5 40.5t-9.5 54h140q1 -21 12 -28.5t30 -7.5q17 0 28.5 7t11.5 29h142z" />
    <glyph glyph-name="ibreve" unicode="&#x12d;" horiz-adv-x="324" 
d="M63 0v606l197 9v-615h-197zM336 799q0 -75 -40 -115t-131 -40q-48 0 -81 10.5t-52.5 31t-28 49t-8.5 64.5h127q1 -35 12.5 -48.5t30.5 -13.5q17 0 29 12.5t12 49.5h130z" />
    <glyph glyph-name="Iogonek" unicode="&#x12e;" horiz-adv-x="344" 
d="M65 750h214v-750h-23q-23 -2 -38 -16t-15 -31q0 -16 10.5 -24.5t35.5 -8.5q13 0 23 2t20 7l15 -97q-23 -11 -50.5 -18t-63.5 -7q-68 0 -101.5 27t-33.5 71q0 32 14 55.5t40 39.5h-47v750z" />
    <glyph glyph-name="iogonek" unicode="&#x12f;" horiz-adv-x="324" 
d="M197 -192q-69 0 -101.5 27t-32.5 69q0 33 14.5 56.5t40.5 39.5h-41v606l197 9v-615h-20q-47 -12 -47 -48q0 -15 10.5 -23.5t35.5 -8.5q14 0 23.5 2t19.5 7l15 -96q-23 -12 -50.5 -18.5t-63.5 -6.5zM280 732q0 -38 -24.5 -56.5t-79.5 -18.5q-54 0 -79.5 16.5t-25.5 58.5
q0 37 25.5 56t79.5 19q55 0 79.5 -19t24.5 -56z" />
    <glyph glyph-name="Idotaccent" unicode="&#x130;" horiz-adv-x="344" 
d="M65 750h214v-750h-214v750zM280 850q0 -33 -23.5 -50t-84.5 -17q-60 0 -84.5 15t-24.5 52q0 34 24.5 51t84.5 17q61 0 84.5 -17t23.5 -51z" />
    <glyph glyph-name="dotlessi" unicode="&#x131;" horiz-adv-x="324" 
d="M63 0v606l197 9v-615h-197z" />
    <glyph glyph-name="Jcircumflex" unicode="&#x134;" horiz-adv-x="551" 
d="M495 287q0 -84 -22.5 -142t-63.5 -93t-100 -50.5t-132 -15.5q-46 0 -82.5 7t-66.5 20l11 169q17 -9 44 -14.5t60 -5.5q70 0 104.5 29.5t34.5 98.5v460h213v-463zM485 912l101 -122h-165l-38 45l-38 -45h-162l97 122h205z" />
    <glyph glyph-name="jcircumflex" unicode="&#x135;" horiz-adv-x="324" 
d="M262 13q0 -52 -15.5 -87t-42 -56t-61.5 -29.5t-74 -8.5q-51 0 -91 14l9 129q18 -5 34 -5q21 0 34.5 11t13.5 37v589l193 8v-602zM242 799l97 -146h-141l-35 69h-6l-36 -69h-141l95 146h167z" />
    <glyph glyph-name="uni0136" unicode="&#x136;" horiz-adv-x="730" 
d="M476 0l-155 301h-56v-301h-209v750h209v-287h59l154 287h237l-202 -357l213 -393h-250zM362 -30q55 0 79 -17t24 -44q0 -18 -9.5 -34t-25.5 -30.5t-37 -27.5t-45 -24l-57 19l24 50q-53 13 -53 53q0 23 22 39t78 16z" />
    <glyph glyph-name="uni0137" unicode="&#x137;" horiz-adv-x="635" 
d="M246 401h68l99 211h210l-145 -278l149 -334h-214l-100 251h-67v-251h-192v773l192 9v-381zM319 -30q55 0 79 -17t24 -44q0 -18 -9.5 -34t-25.5 -30.5t-37 -27.5t-45 -24l-57 19l24 50q-53 13 -53 53q0 23 22 39t78 16z" />
    <glyph glyph-name="kgreenlandic" unicode="&#x138;" horiz-adv-x="635" 
d="M246 401h68l99 211h210l-145 -278l149 -334h-214l-100 251h-67v-251h-192v609l192 9v-217z" />
    <glyph glyph-name="Lacute" unicode="&#x139;" horiz-adv-x="565" 
d="M550 180l-4 -180h-490v750h211v-570h283zM426 912l-144 -122h-153l57 122h240z" />
    <glyph glyph-name="lacute" unicode="&#x13a;" horiz-adv-x="309" 
d="M57 0v773l195 9v-782h-195zM361 927l-144 -122h-153l57 122h240z" />
    <glyph glyph-name="uni013B" unicode="&#x13b;" horiz-adv-x="565" 
d="M550 180l-4 -180h-490v750h211v-570h283zM303 -30q55 0 79 -17t24 -44q0 -18 -9.5 -34t-25.5 -30.5t-37 -27.5t-45 -24l-57 19l24 50q-53 13 -53 53q0 23 22 39t78 16z" />
    <glyph glyph-name="uni013C" unicode="&#x13c;" horiz-adv-x="309" 
d="M57 0v773l195 9v-782h-195zM153 -30q55 0 79 -17t24 -44q0 -18 -9.5 -34t-25.5 -30.5t-37 -27.5t-45 -24l-57 19l24 50q-53 13 -53 53q0 23 22 39t78 16z" />
    <glyph glyph-name="Lcaron" unicode="&#x13d;" horiz-adv-x="565" 
d="M550 180l-4 -180h-490v750h211v-570h283zM421 758q42 0 60.5 -18t18.5 -50q0 -33 -27 -62.5t-63 -53.5l-44 20l20 52q-41 12 -41 55q0 23 17 40t59 17z" />
    <glyph glyph-name="lcaron" unicode="&#x13e;" horiz-adv-x="311" 
d="M59 0v773l195 9v-782h-195zM358 758q42 0 60.5 -18t18.5 -50q0 -33 -27 -62.5t-63 -53.5l-44 20l20 52q-41 12 -41 55q0 23 17 40t59 17z" />
    <glyph glyph-name="Ldot" unicode="&#x13f;" horiz-adv-x="565" 
d="M536 406q0 -40 -22 -63t-73 -23q-50 0 -72 19t-22 67q0 42 22 64.5t72 22.5q51 0 73 -22.5t22 -64.5zM550 180l-4 -180h-490v750h211v-570h283z" />
    <glyph glyph-name="ldot" unicode="&#x140;" horiz-adv-x="439" 
d="M461 409q0 -36 -20.5 -57.5t-65.5 -21.5q-46 0 -66 18t-20 61q0 39 20 59.5t66 20.5q45 0 65.5 -20.5t20.5 -59.5zM57 0v773l195 9v-782h-195z" />
    <glyph glyph-name="Lslash" unicode="&#x141;" horiz-adv-x="605" 
d="M590 180l-4 -180h-490v269l-65 -26l-14 158l79 32v317h211v-240l165 66l18 -165l-183 -69v-162h283z" />
    <glyph glyph-name="lslash" unicode="&#x142;" horiz-adv-x="382" 
d="M20 451l72 32v290l195 9v-221l77 36v-154l-77 -37v-406h-195v326l-71 -33z" />
    <glyph glyph-name="Nacute" unicode="&#x143;" horiz-adv-x="741" 
d="M539 0l-250 346l-46 67l-2 -1l1 -81v-331h-186v750h174l270 -389l2 1l-2 80v308h185v-750h-146zM578 912l-144 -122h-153l57 122h240z" />
    <glyph glyph-name="nacute" unicode="&#x144;" horiz-adv-x="634" 
d="M396 0v382q0 42 -18.5 60t-55.5 18q-24 0 -45.5 -9t-34.5 -26v-425h-192v608l138 8l27 -48q34 27 75.5 41t86.5 14q97 0 154.5 -62t57.5 -179v-382h-193zM497 799l-124 -146h-143l50 146h217z" />
    <glyph glyph-name="uni0145" unicode="&#x145;" horiz-adv-x="741" 
d="M539 0l-250 346l-46 67l-2 -1l1 -81v-331h-186v750h174l270 -389l2 1l-2 80v308h185v-750h-146zM368 -30q55 0 79 -17t24 -44q0 -18 -9.5 -34t-25.5 -30.5t-37 -27.5t-45 -24l-57 19l24 50q-53 13 -53 53q0 23 22 39t78 16z" />
    <glyph glyph-name="uni0146" unicode="&#x146;" horiz-adv-x="634" 
d="M396 0v382q0 42 -18.5 60t-55.5 18q-24 0 -45.5 -9t-34.5 -26v-425h-192v608l138 8l27 -48q34 27 75.5 41t86.5 14q97 0 154.5 -62t57.5 -179v-382h-193zM315 -30q55 0 79 -17t24 -44q0 -18 -9.5 -34t-25.5 -30.5t-37 -27.5t-45 -24l-57 19l24 50q-53 13 -53 53
q0 23 22 39t78 16z" />
    <glyph glyph-name="Ncaron" unicode="&#x147;" horiz-adv-x="741" 
d="M539 0l-250 346l-46 67l-2 -1l1 -81v-331h-186v750h174l270 -389l2 1l-2 80v308h185v-750h-146zM271 790l-99 122h164l38 -49l39 49h163l-101 -122h-204z" />
    <glyph glyph-name="ncaron" unicode="&#x148;" horiz-adv-x="634" 
d="M396 0v382q0 42 -18.5 60t-55.5 18q-24 0 -45.5 -9t-34.5 -26v-425h-192v608l138 8l27 -48q34 27 75.5 41t86.5 14q97 0 154.5 -62t57.5 -179v-382h-193zM231 653l-94 146h140l35 -75h6l35 75h143l-97 -146h-168z" />
    <glyph glyph-name="napostrophe" unicode="&#x149;" horiz-adv-x="670" 
d="M432 0v382q0 42 -18.5 60t-55.5 18q-24 0 -45.5 -9t-34.5 -26v-425h-192v608l138 8l27 -48q34 27 75.5 41t86.5 14q97 0 154.5 -62t57.5 -179v-382h-193zM56 811q42 0 60.5 -18t18.5 -50q0 -33 -27 -62.5t-63 -53.5l-44 20l20 52q-41 12 -41 55q0 23 17 40t59 17z" />
    <glyph glyph-name="Eng" unicode="&#x14a;" horiz-adv-x="741" 
d="M685 86q0 -125 -53.5 -182t-147.5 -57q-63 0 -105 22l8 122q11 -8 26 -12t29 -4q25 0 38.5 12.5t18.5 47.5l-213 324l-43 69l-2 -1l1 -81v-346h-186v750h174l270 -424l2 1l-2 80v343h185v-664z" />
    <glyph glyph-name="eng" unicode="&#x14b;" horiz-adv-x="634" 
d="M397 382q0 42 -19 60t-56 18q-24 0 -45.5 -9t-34.5 -26v-425h-192v608l138 8l27 -48q34 27 75.5 41t86.5 14q97 0 154.5 -62t57.5 -179v-331q0 -96 -47.5 -143t-135.5 -47q-58 0 -96 20l8 129q16 -11 38 -11q41 0 41 39v344z" />
    <glyph glyph-name="Omacron" unicode="&#x14c;" horiz-adv-x="752" 
d="M719 375q0 -101 -19.5 -174.5t-61.5 -121t-107 -70.5t-155 -23q-179 0 -261 95.5t-82 293.5q0 99 19.5 172t61.5 120.5t107 71t155 23.5t155 -23.5t107 -71t61.5 -120.5t19.5 -172zM499 375q0 64 -6 104t-20 63t-38 31.5t-60 8.5q-35 0 -58.5 -8.5t-37.5 -31.5t-20 -63.5
t-6 -103.5q0 -64 6 -104.5t20.5 -64t38.5 -32.5t59 -9t58.5 9t37.5 32.5t20 64.5t6 104zM551 799h-343v91h343v-91z" />
    <glyph glyph-name="omacron" unicode="&#x14d;" horiz-adv-x="630" 
d="M604 303q0 -84 -17 -144t-52 -98.5t-89.5 -56.5t-130.5 -18q-150 0 -219.5 74.5t-69.5 242.5t70 244t220 76q75 0 129.5 -18.5t90 -57.5t52 -99.5t16.5 -144.5zM226 303q0 -51 5 -83.5t15.5 -51t27.5 -25.5t42 -7t42 7t27.5 26t15 51t4.5 83t-4.5 83.5t-15 51t-27.5 25.5
t-42 7t-42.5 -7t-28 -25.5t-15 -51t-4.5 -83.5zM486 672h-342v112h342v-112z" />
    <glyph glyph-name="Obreve" unicode="&#x14e;" horiz-adv-x="752" 
d="M719 375q0 -101 -19.5 -174.5t-61.5 -121t-107 -70.5t-155 -23q-179 0 -261 95.5t-82 293.5q0 99 19.5 172t61.5 120.5t107 71t155 23.5t155 -23.5t107 -71t61.5 -120.5t19.5 -172zM499 375q0 64 -6 104t-20 63t-38 31.5t-60 8.5q-35 0 -58.5 -8.5t-37.5 -31.5t-20 -63.5
t-6 -103.5q0 -64 6 -104.5t20.5 -64t38.5 -32.5t59 -9t58.5 9t37.5 32.5t20 64.5t6 104zM560 913q0 -63 -43 -96t-140 -33q-51 0 -85.5 9t-55.5 25.5t-30.5 40.5t-9.5 54h140q1 -21 12 -28.5t30 -7.5q17 0 28.5 7t11.5 29h142z" />
    <glyph glyph-name="obreve" unicode="&#x14f;" horiz-adv-x="630" 
d="M604 303q0 -84 -17 -144t-52 -98.5t-89.5 -56.5t-130.5 -18q-150 0 -219.5 74.5t-69.5 242.5t70 244t220 76q75 0 129.5 -18.5t90 -57.5t52 -99.5t16.5 -144.5zM226 303q0 -51 5 -83.5t15.5 -51t27.5 -25.5t42 -7t42 7t27.5 26t15 51t4.5 83t-4.5 83.5t-15 51t-27.5 25.5
t-42 7t-42.5 -7t-28 -25.5t-15 -51t-4.5 -83.5zM485 799q0 -75 -40 -115t-131 -40q-48 0 -81 10.5t-52.5 31t-28 49t-8.5 64.5h127q1 -35 12.5 -48.5t30.5 -13.5q17 0 29 12.5t12 49.5h130z" />
    <glyph glyph-name="Ohungarumlaut" unicode="&#x150;" horiz-adv-x="752" 
d="M719 375q0 -101 -19.5 -174.5t-61.5 -121t-107 -70.5t-155 -23q-179 0 -261 95.5t-82 293.5q0 99 19.5 172t61.5 120.5t107 71t155 23.5t155 -23.5t107 -71t61.5 -120.5t19.5 -172zM499 375q0 64 -6 104t-20 63t-38 31.5t-60 8.5q-35 0 -58.5 -8.5t-37.5 -31.5t-20 -63.5
t-6 -103.5q0 -64 6 -104.5t20.5 -64t38.5 -32.5t59 -9t58.5 9t37.5 32.5t20 64.5t6 104zM435 912l-90 -123h-121l21 123h190zM656 912l-115 -123h-137l58 123h194z" />
    <glyph glyph-name="ohungarumlaut" unicode="&#x151;" horiz-adv-x="630" 
d="M604 303q0 -84 -17 -144t-52 -98.5t-89.5 -56.5t-130.5 -18q-150 0 -219.5 74.5t-69.5 242.5t70 244t220 76q75 0 129.5 -18.5t90 -57.5t52 -99.5t16.5 -144.5zM226 303q0 -51 5 -83.5t15.5 -51t27.5 -25.5t42 -7t42 7t27.5 26t15 51t4.5 83t-4.5 83.5t-15 51t-27.5 25.5
t-42 7t-42.5 -7t-28 -25.5t-15 -51t-4.5 -83.5zM386 799l-108 -146h-122l39 146h191zM608 799l-124 -146h-139l68 146h195z" />
    <glyph glyph-name="OE" unicode="&#x152;" horiz-adv-x="1055" 
d="M515 0v43l-2 1q-33 -30 -77.5 -44t-100.5 -14q-148 0 -225 95t-77 294t76 293t229 94q50 0 95 -13t80 -40l2 1v40h495l4 -177h-310v-110h256v-160h-256v-128h324l-4 -175h-509zM499 375q0 64 -6 104t-20 63t-38 31.5t-60 8.5q-35 0 -58.5 -8.5t-37.5 -31.5t-20 -63.5
t-6 -103.5q0 -64 6 -104.5t20.5 -64t38.5 -32.5t59 -9t58.5 9t37.5 32.5t20 64.5t6 104z" />
    <glyph glyph-name="oe" unicode="&#x153;" horiz-adv-x="970" 
d="M730 -11q-79 0 -132 18t-88 55q-31 -38 -81 -57t-128 -19q-140 0 -207.5 74.5t-67.5 242.5t68.5 244t206.5 76q75 0 124 -18t80 -52q30 33 75.5 51t111.5 18q117 0 185 -70t68 -215q0 -21 -2 -44t-4 -42h-334q6 -56 40.5 -79t101.5 -23q82 0 161 28l21 -151
q-38 -17 -91 -27t-108 -10zM226 303q0 -51 5 -83.5t15.5 -51t28 -25.5t42.5 -7t41.5 7t27 26t15 51t4.5 83t-4.5 83.5t-15 51t-27.5 25.5t-42 7t-42.5 -7t-28 -25.5t-15 -51t-4.5 -83.5zM768 372q-2 53 -22.5 75t-59.5 22q-22 0 -37 -5t-25 -16t-15.5 -29.5t-7.5 -46.5h167z
" />
    <glyph glyph-name="Racute" unicode="&#x154;" horiz-adv-x="691" 
d="M645 507q0 -75 -29.5 -129t-83.5 -76l163 -302h-244l-110 261h-76v-261h-209v750h286q152 0 227.5 -58t75.5 -185zM427 499q0 50 -18 67t-65 17h-79v-172h77q23 0 39.5 3.5t26.5 13t14.5 27t4.5 44.5zM523 912l-144 -122h-153l57 122h240z" />
    <glyph glyph-name="racute" unicode="&#x155;" horiz-adv-x="466" 
d="M50 0v607l153 7l17 -88h3q29 50 69 73t88 23q22 0 39.5 -2.5t29.5 -7.5l-11 -182q-15 5 -33 7.5t-38 2.5q-56 0 -90 -34.5t-34 -100.5v-305h-193zM404 799l-124 -146h-143l50 146h217z" />
    <glyph glyph-name="uni0156" unicode="&#x156;" horiz-adv-x="691" 
d="M645 507q0 -75 -29.5 -129t-83.5 -76l163 -302h-244l-110 261h-76v-261h-209v750h286q152 0 227.5 -58t75.5 -185zM427 499q0 50 -18 67t-65 17h-79v-172h77q23 0 39.5 3.5t26.5 13t14.5 27t4.5 44.5zM340 -30q55 0 79 -17t24 -44q0 -18 -9.5 -34t-25.5 -30.5t-37 -27.5
t-45 -24l-57 19l24 50q-53 13 -53 53q0 23 22 39t78 16z" />
    <glyph glyph-name="uni0157" unicode="&#x157;" horiz-adv-x="466" 
d="M50 0v607l153 7l17 -88h3q29 50 69 73t88 23q22 0 39.5 -2.5t29.5 -7.5l-11 -182q-15 5 -33 7.5t-38 2.5q-56 0 -90 -34.5t-34 -100.5v-305h-193zM147 -30q55 0 79 -17t24 -44q0 -18 -9.5 -34t-25.5 -30.5t-37 -27.5t-45 -24l-57 19l24 50q-53 13 -53 53q0 23 22 39
t78 16z" />
    <glyph glyph-name="Rcaron" unicode="&#x158;" horiz-adv-x="691" 
d="M645 507q0 -75 -29.5 -129t-83.5 -76l163 -302h-244l-110 261h-76v-261h-209v750h286q152 0 227.5 -58t75.5 -185zM427 499q0 50 -18 67t-65 17h-79v-172h77q23 0 39.5 3.5t26.5 13t14.5 27t4.5 44.5zM207 790l-99 122h164l38 -49l39 49h163l-101 -122h-204z" />
    <glyph glyph-name="rcaron" unicode="&#x159;" horiz-adv-x="466" 
d="M50 0v607l153 7l17 -88h3q29 50 69 73t88 23q22 0 39.5 -2.5t29.5 -7.5l-11 -182q-15 5 -33 7.5t-38 2.5q-56 0 -90 -34.5t-34 -100.5v-305h-193zM162 653l-94 146h140l35 -75h6l35 75h143l-97 -146h-168z" />
    <glyph glyph-name="Sacute" unicode="&#x15a;" horiz-adv-x="583" 
d="M562 230q0 -56 -20 -101.5t-57.5 -77t-91.5 -48.5t-122 -17q-66 0 -127 14.5t-112 40.5l26 173q51 -26 103.5 -40t107.5 -14q51 0 72 14.5t21 42.5q0 23 -24.5 37t-61 27t-79 28.5t-79 42t-61 67.5t-24.5 104q0 49 16.5 93t51 76.5t89 51.5t129.5 19q57 0 114.5 -10
t103.5 -28l-24 -169q-49 14 -95.5 21.5t-86.5 7.5q-30 0 -49 -4t-29.5 -10.5t-14.5 -16t-4 -20.5q0 -23 24.5 -37t60.5 -27t79 -28t79 -41t60.5 -67t24.5 -104zM519 912l-144 -122h-153l57 122h240z" />
    <glyph glyph-name="sacute" unicode="&#x15b;" horiz-adv-x="500" 
d="M475 198q0 -47 -13.5 -85.5t-43 -66.5t-76 -43t-111.5 -15q-115 0 -194 38l19 152q19 -10 42 -17.5t46 -12t45.5 -7t40.5 -2.5q35 0 51 11.5t16 30.5t-20 29.5t-49.5 19.5t-64 20t-64 31.5t-49.5 54t-20 88.5q0 42 14.5 78.5t44.5 63t76 41.5t108 15q48 0 93.5 -9
t84.5 -25l-14 -150q-19 7 -41.5 12.5t-45 9.5t-43.5 5.5t-37 1.5q-56 0 -56 -35q0 -18 19.5 -28t48.5 -18.5t62.5 -19.5t62.5 -31t48.5 -52.5t19.5 -84.5zM435 799l-124 -146h-143l50 146h217z" />
    <glyph glyph-name="Scircumflex" unicode="&#x15c;" horiz-adv-x="583" 
d="M562 230q0 -56 -20 -101.5t-57.5 -77t-91.5 -48.5t-122 -17q-66 0 -127 14.5t-112 40.5l26 173q51 -26 103.5 -40t107.5 -14q51 0 72 14.5t21 42.5q0 23 -24.5 37t-61 27t-79 28.5t-79 42t-61 67.5t-24.5 104q0 49 16.5 93t51 76.5t89 51.5t129.5 19q57 0 114.5 -10
t103.5 -28l-24 -169q-49 14 -95.5 21.5t-86.5 7.5q-30 0 -49 -4t-29.5 -10.5t-14.5 -16t-4 -20.5q0 -23 24.5 -37t60.5 -27t79 -28t79 -41t60.5 -67t24.5 -104zM415 912l101 -122h-165l-38 45l-38 -45h-162l97 122h205z" />
    <glyph glyph-name="scircumflex" unicode="&#x15d;" horiz-adv-x="500" 
d="M475 198q0 -47 -13.5 -85.5t-43 -66.5t-76 -43t-111.5 -15q-115 0 -194 38l19 152q19 -10 42 -17.5t46 -12t45.5 -7t40.5 -2.5q35 0 51 11.5t16 30.5t-20 29.5t-49.5 19.5t-64 20t-64 31.5t-49.5 54t-20 88.5q0 42 14.5 78.5t44.5 63t76 41.5t108 15q48 0 93.5 -9
t84.5 -25l-14 -150q-19 7 -41.5 12.5t-45 9.5t-43.5 5.5t-37 1.5q-56 0 -56 -35q0 -18 19.5 -28t48.5 -18.5t62.5 -19.5t62.5 -31t48.5 -52.5t19.5 -84.5zM343 799l97 -146h-141l-35 69h-6l-36 -69h-141l95 146h167z" />
    <glyph glyph-name="Scedilla" unicode="&#x15e;" horiz-adv-x="583" 
d="M214 -11q-50 5 -96 18t-86 34l26 173q51 -26 103.5 -40t107.5 -14q51 0 72 14.5t21 42.5q0 23 -24.5 37t-61 27t-79 28.5t-79 42t-61 67.5t-24.5 104q0 49 16.5 93t51 76.5t89 51.5t129.5 19q57 0 114.5 -10t103.5 -28l-24 -169q-49 14 -95.5 21.5t-86.5 7.5
q-30 0 -49 -4t-29.5 -10.5t-14.5 -16t-4 -20.5q0 -23 24.5 -37t60.5 -27t79 -28t79 -41t60.5 -67t24.5 -104q0 -97 -56.5 -159t-159.5 -79l-29 -180h-169z" />
    <glyph glyph-name="scedilla" unicode="&#x15f;" horiz-adv-x="500" 
d="M171 -9q-38 4 -71.5 12.5t-62.5 22.5l19 152q19 -10 42 -17.5t46 -12t45.5 -7t40.5 -2.5q35 0 51 11.5t16 30.5t-20 29.5t-49.5 19.5t-64 20t-64 31.5t-49.5 54t-20 88.5q0 42 14.5 78.5t44.5 63t76 41.5t108 15q48 0 93.5 -9t84.5 -25l-14 -150q-19 7 -41.5 12.5
t-45 9.5t-43.5 5.5t-37 1.5q-56 0 -56 -35q0 -18 19.5 -28t48.5 -18.5t62.5 -19.5t62.5 -31t48.5 -52.5t19.5 -84.5q0 -80 -40.5 -134.5t-131.5 -69.5l-30 -182h-169z" />
    <glyph glyph-name="Scaron" unicode="&#x160;" horiz-adv-x="583" 
d="M562 230q0 -56 -20 -101.5t-57.5 -77t-91.5 -48.5t-122 -17q-66 0 -127 14.5t-112 40.5l26 173q51 -26 103.5 -40t107.5 -14q51 0 72 14.5t21 42.5q0 23 -24.5 37t-61 27t-79 28.5t-79 42t-61 67.5t-24.5 104q0 49 16.5 93t51 76.5t89 51.5t129.5 19q57 0 114.5 -10
t103.5 -28l-24 -169q-49 14 -95.5 21.5t-86.5 7.5q-30 0 -49 -4t-29.5 -10.5t-14.5 -16t-4 -20.5q0 -23 24.5 -37t60.5 -27t79 -28t79 -41t60.5 -67t24.5 -104zM214 790l-99 122h164l38 -49l39 49h163l-101 -122h-204z" />
    <glyph glyph-name="scaron" unicode="&#x161;" horiz-adv-x="500" 
d="M475 198q0 -47 -13.5 -85.5t-43 -66.5t-76 -43t-111.5 -15q-115 0 -194 38l19 152q19 -10 42 -17.5t46 -12t45.5 -7t40.5 -2.5q35 0 51 11.5t16 30.5t-20 29.5t-49.5 19.5t-64 20t-64 31.5t-49.5 54t-20 88.5q0 42 14.5 78.5t44.5 63t76 41.5t108 15q48 0 93.5 -9
t84.5 -25l-14 -150q-19 7 -41.5 12.5t-45 9.5t-43.5 5.5t-37 1.5q-56 0 -56 -35q0 -18 19.5 -28t48.5 -18.5t62.5 -19.5t62.5 -31t48.5 -52.5t19.5 -84.5zM177 653l-94 146h140l35 -75h6l35 75h143l-97 -146h-168z" />
    <glyph glyph-name="uni0162" unicode="&#x162;" horiz-adv-x="606" 
d="M237 0h-40v569h-187l4 181h578l4 -181h-188v-569h-41l-31 -188h-169z" />
    <glyph glyph-name="uni0163" unicode="&#x163;" 
d="M210 -4q-70 15 -103.5 65t-33.5 126v286h-58v139h68l31 130l152 13v-143h127v-139h-127v-281q0 -29 15 -42.5t48 -13.5q11 0 25 2t22 5l10 -134q-15 -8 -46 -13l-30 -184h-169z" />
    <glyph glyph-name="Tcaron" unicode="&#x164;" horiz-adv-x="606" 
d="M408 569v-569h-211v569h-187l4 181h578l4 -181h-188zM200 790l-99 122h164l38 -49l39 49h163l-101 -122h-204z" />
    <glyph glyph-name="tcaron" unicode="&#x165;" 
d="M266 473v-281q0 -29 15 -42.5t48 -13.5q11 0 25 2t22 5l10 -134q-17 -8 -48.5 -13.5t-67.5 -5.5q-101 0 -149 53.5t-48 143.5v286h-58v139h68l31 130l152 13v-143h127v-139h-127zM380 811q42 0 60.5 -18t18.5 -50q0 -33 -27 -62.5t-63 -53.5l-44 20l20 52q-41 12 -41 55
q0 23 17 40t59 17z" />
    <glyph glyph-name="Tbar" unicode="&#x166;" horiz-adv-x="606" 
d="M408 569v-94h118v-128h-118v-347h-211v347h-104v128h104v94h-187l4 181h578l4 -181h-188z" />
    <glyph glyph-name="tbar" unicode="&#x167;" 
d="M266 473v-50h127v-133h-127v-98q0 -29 15 -42.5t48 -13.5q11 0 25 2t22 5l10 -134q-17 -8 -48.5 -13.5t-67.5 -5.5q-101 0 -149 53.5t-48 143.5v103h-57v133h57v50h-58v139h68l31 130l152 13v-143h127v-139h-127z" />
    <glyph glyph-name="Utilde" unicode="&#x168;" horiz-adv-x="720" 
d="M673 268q0 -140 -77 -211t-235 -71q-157 0 -235.5 71t-78.5 211v482h209v-480q0 -53 24.5 -77.5t81.5 -24.5t80 24t23 78v480h208v-482zM177 792q2 57 32 92t83 35q27 0 49 -5t40 -10.5t32.5 -10.5t26.5 -5q13 0 19 4.5t8 16.5l82 -1q-2 -59 -33.5 -93t-82.5 -34
q-27 0 -47.5 5t-37.5 11t-30.5 11t-25.5 5q-11 0 -19 -6.5t-10 -15.5z" />
    <glyph glyph-name="utilde" unicode="&#x169;" horiz-adv-x="628" 
d="M584 223q0 -116 -66.5 -175t-203.5 -59t-203 60t-66 174v389h192v-386q0 -37 18 -55t60 -18q40 0 58 17.5t18 55.5v386h193v-389zM136 661q1 31 9 57t22.5 45.5t35.5 30.5t47 11q27 0 45.5 -7t33.5 -15.5t28.5 -15.5t28.5 -7q14 0 20.5 10t10.5 24l86 -1
q-2 -64 -32.5 -103t-81.5 -39q-26 0 -45 7t-34 15t-28.5 15t-28.5 7q-13 0 -20.5 -10t-9.5 -24h-87z" />
    <glyph glyph-name="Umacron" unicode="&#x16a;" horiz-adv-x="720" 
d="M673 268q0 -140 -77 -211t-235 -71q-157 0 -235.5 71t-78.5 211v482h209v-480q0 -53 24.5 -77.5t81.5 -24.5t80 24t23 78v480h208v-482zM535 799h-343v91h343v-91z" />
    <glyph glyph-name="umacron" unicode="&#x16b;" horiz-adv-x="628" 
d="M584 223q0 -116 -66.5 -175t-203.5 -59t-203 60t-66 174v389h192v-386q0 -37 18 -55t60 -18q40 0 58 17.5t18 55.5v386h193v-389zM486 672h-342v112h342v-112z" />
    <glyph glyph-name="Ubreve" unicode="&#x16c;" horiz-adv-x="720" 
d="M673 268q0 -140 -77 -211t-235 -71q-157 0 -235.5 71t-78.5 211v482h209v-480q0 -53 24.5 -77.5t81.5 -24.5t80 24t23 78v480h208v-482zM544 913q0 -63 -43 -96t-140 -33q-51 0 -85.5 9t-55.5 25.5t-30.5 40.5t-9.5 54h140q1 -21 12 -28.5t30 -7.5q17 0 28.5 7t11.5 29
h142z" />
    <glyph glyph-name="ubreve" unicode="&#x16d;" horiz-adv-x="628" 
d="M584 223q0 -116 -66.5 -175t-203.5 -59t-203 60t-66 174v389h192v-386q0 -37 18 -55t60 -18q40 0 58 17.5t18 55.5v386h193v-389zM484 799q0 -75 -40 -115t-131 -40q-48 0 -81 10.5t-52.5 31t-28 49t-8.5 64.5h127q1 -35 12.5 -48.5t30.5 -13.5q17 0 29 12.5t12 49.5h130
z" />
    <glyph glyph-name="Uring" unicode="&#x16e;" horiz-adv-x="720" 
d="M210 795q0 25 7 45t24 34.5t45.5 22t70.5 7.5q84 0 118 -30t34 -79q0 -27 -7 -45h171v-482q0 -140 -77 -211t-235 -71q-157 0 -235.5 71t-78.5 211v482h169q-6 19 -6 45zM362 168q57 0 80 24t23 78v434q-35 -19 -108 -19q-68 0 -101 17v-432q0 -53 24.5 -77.5t81.5 -24.5
zM308 788q0 -15 9.5 -23t44.5 -8q30 0 40.5 7t10.5 24t-9.5 26t-41.5 9q-35 0 -44.5 -9t-9.5 -26z" />
    <glyph glyph-name="uring" unicode="&#x16f;" horiz-adv-x="628" 
d="M584 223q0 -116 -66.5 -175t-203.5 -59t-203 60t-66 174v389h192v-386q0 -37 18 -55t60 -18q40 0 58 17.5t18 55.5v386h193v-389zM177 742q0 44 31 69.5t109 25.5q75 0 108 -26.5t33 -68.5q0 -50 -32.5 -72.5t-108.5 -22.5q-72 0 -106 21t-34 74zM269 741
q0 -13 9.5 -19.5t41.5 -6.5q28 0 39 6t11 20q0 12 -10.5 19t-39.5 7q-31 0 -41 -6.5t-10 -19.5z" />
    <glyph glyph-name="Uhungarumlaut" unicode="&#x170;" horiz-adv-x="720" 
d="M673 268q0 -140 -77 -211t-235 -71q-157 0 -235.5 71t-78.5 211v482h209v-480q0 -53 24.5 -77.5t81.5 -24.5t80 24t23 78v480h208v-482zM417 912l-90 -123h-121l21 123h190zM638 912l-115 -123h-137l58 123h194z" />
    <glyph glyph-name="uhungarumlaut" unicode="&#x171;" horiz-adv-x="628" 
d="M584 223q0 -116 -66.5 -175t-203.5 -59t-203 60t-66 174v389h192v-386q0 -37 18 -55t60 -18q40 0 58 17.5t18 55.5v386h193v-389zM381 799l-108 -146h-122l39 146h191zM603 799l-124 -146h-139l68 146h195z" />
    <glyph glyph-name="Uogonek" unicode="&#x172;" horiz-adv-x="720" 
d="M425 -192q-69 0 -101.5 27t-32.5 69q0 27 9.5 47.5t28.5 37.5q-141 6 -211.5 76t-70.5 203v482h209v-480q0 -53 24.5 -77.5t81.5 -24.5t80 24t23 78v480h208v-482q0 -226 -201 -271q-37 -13 -37 -45q0 -15 10.5 -23.5t35.5 -8.5q14 0 23.5 2t19.5 7l15 -96
q-23 -12 -50.5 -18.5t-63.5 -6.5z" />
    <glyph glyph-name="uogonek" unicode="&#x173;" horiz-adv-x="628" 
d="M356 -192q-69 0 -101.5 27t-32.5 69q0 29 11.5 51t32.5 39q-113 8 -167 67t-54 162v389h192v-386q0 -37 18 -55t60 -18q40 0 58 17.5t18 55.5v386h193v-389q0 -193 -183 -226q-35 -13 -35 -45q0 -15 10.5 -23.5t35.5 -8.5q14 0 23.5 2t19.5 7l15 -96q-23 -12 -50.5 -18.5
t-63.5 -6.5z" />
    <glyph glyph-name="Wcircumflex" unicode="&#x174;" horiz-adv-x="1052" 
d="M643 750l86 -464l14 -80h3l11 80l77 464h207l-174 -750h-249l-78 452l-12 81h-3l-13 -81l-78 -452h-249l-174 750h218l75 -467l12 -80h3l13 80l86 467h225zM626 912l101 -122h-165l-38 45l-38 -45h-162l97 122h205z" />
    <glyph glyph-name="wcircumflex" unicode="&#x175;" horiz-adv-x="901" 
d="M554 612l63 -361l13 -80h3l10 80l53 361h188l-131 -612h-235l-49 320l-10 81h-3l-11 -81l-51 -320h-235l-141 612h193l69 -442h3l11 80l60 362h200zM532 799l97 -146h-141l-35 69h-6l-36 -69h-141l95 146h167z" />
    <glyph glyph-name="Ycircumflex" unicode="&#x176;" horiz-adv-x="714" 
d="M231 750l102 -253l29 -75h3l27 76l98 252h228l-251 -518v-232h-214v232l-256 518h234zM462 912l101 -122h-165l-38 45l-38 -45h-162l97 122h205z" />
    <glyph glyph-name="ycircumflex" unicode="&#x177;" horiz-adv-x="663" 
d="M177 -35q30 0 52 10t35 39l2 6l-260 592h218l108 -326l24 -77h3l17 79l77 324h204l-200 -592q-35 -103 -95.5 -147.5t-149.5 -44.5q-60 0 -110 19l14 130q17 -7 31 -9.5t30 -2.5zM424 799l97 -146h-141l-35 69h-6l-36 -69h-141l95 146h167z" />
    <glyph glyph-name="Ydieresis" unicode="&#x178;" horiz-adv-x="714" 
d="M231 750l102 -253l29 -75h3l27 76l98 252h228l-251 -518v-232h-214v232l-256 518h234zM337 856q0 -34 -18 -51.5t-59 -17.5q-39 0 -58 15.5t-19 53.5q0 71 77 71q41 0 59 -18t18 -53zM540 856q0 -34 -18 -51.5t-60 -17.5q-38 0 -57.5 15.5t-19.5 53.5q0 71 77 71
q42 0 60 -18t18 -53z" />
    <glyph glyph-name="Zacute" unicode="&#x179;" horiz-adv-x="618" 
d="M27 0v131l259 372l47 64l-1 2h-299l6 181h545v-146l-250 -358l-47 -63l1 -3h300l-3 -180h-558zM526 912l-144 -122h-153l57 122h240z" />
    <glyph glyph-name="zacute" unicode="&#x17a;" horiz-adv-x="536" 
d="M300 217l-49 -61l1 -3h256l-4 -153h-473v130l197 264l49 62l-1 2h-239l6 154h455v-130zM444 799l-124 -146h-143l50 146h217z" />
    <glyph glyph-name="Zdotaccent" unicode="&#x17b;" horiz-adv-x="618" 
d="M27 0v131l259 372l47 64l-1 2h-299l6 181h545v-146l-250 -358l-47 -63l1 -3h300l-3 -180h-558zM427 850q0 -33 -23.5 -50t-84.5 -17q-60 0 -84.5 15t-24.5 52q0 34 24.5 51t84.5 17q61 0 84.5 -17t23.5 -51z" />
    <glyph glyph-name="zdotaccent" unicode="&#x17c;" horiz-adv-x="536" 
d="M300 217l-49 -61l1 -3h256l-4 -153h-473v130l197 264l49 62l-1 2h-239l6 154h455v-130zM375 732q0 -37 -24.5 -55.5t-80.5 -18.5q-54 0 -79 16.5t-25 57.5q0 75 104 75q56 0 80.5 -19t24.5 -56z" />
    <glyph glyph-name="Zcaron" unicode="&#x17d;" horiz-adv-x="618" 
d="M27 0v131l259 372l47 64l-1 2h-299l6 181h545v-146l-250 -358l-47 -63l1 -3h300l-3 -180h-558zM216 790l-99 122h164l38 -49l39 49h163l-101 -122h-204z" />
    <glyph glyph-name="zcaron" unicode="&#x17e;" horiz-adv-x="536" 
d="M300 217l-49 -61l1 -3h256l-4 -153h-473v130l197 264l49 62l-1 2h-239l6 154h455v-130zM187 653l-94 146h140l35 -75h6l35 75h143l-97 -146h-168z" />
    <glyph glyph-name="longs" unicode="&#x17f;" horiz-adv-x="351" 
d="M4 601h56q0 49 14.5 88t49 65t93.5 40t148 14l10 -135q-37 0 -60 -3.5t-36.5 -12t-18.5 -22.5t-5 -35v-512q0 -68 -20.5 -115.5t-56.5 -77.5t-86.5 -44.5t-110.5 -17.5l-12 132q24 3 41.5 10t28.5 21t16 36t5 55v381h-63z" />
    <glyph glyph-name="uni018F" unicode="&#x18f;" horiz-adv-x="752" 
d="M33 365q0 22 1 45.5t3 45.5h457q-4 38 -15 63.5t-31 40.5t-51 21.5t-76 6.5q-59 0 -116.5 -7t-102.5 -21l-21 166q62 19 125 28t149 9q82 0 148.5 -20t113.5 -65.5t73 -120.5t26 -184q0 -194 -81 -290.5t-262 -96.5q-77 0 -139.5 18.5t-107 62.5t-69 116.5t-24.5 181.5z
M373 161q30 0 52 6.5t36.5 23t22.5 43.5t11 69h-241v-11q0 -37 6.5 -62t20.5 -40.5t37 -22t55 -6.5z" />
    <glyph glyph-name="florin" unicode="&#x192;" horiz-adv-x="438" 
d="M-36 -156l135 626h-62l30 141h61l6 31q7 31 25 59t48 49t71.5 33.5t94.5 12.5q27 0 53.5 -4t46.5 -9l-37 -120q-23 6 -49 6q-30 0 -43.5 -8.5t-16.5 -23.5l-5 -26h111l-30 -141h-112l-135 -626h-192z" />
    <glyph glyph-name="uni01B5" unicode="&#x1b5;" horiz-adv-x="619" 
d="M59 442h184l43 61l47 64l-1 2h-299l6 181h545v-146l-113 -162h103l-7 -115h-177l-56 -81l-47 -63l1 -3h300l-3 -180h-558v131l136 196h-110z" />
    <glyph glyph-name="uni01B6" unicode="&#x1b6;" horiz-adv-x="536" 
d="M411 366h74l-6 -105h-146l-82 -105l1 -3h256l-4 -153h-473v130l98 131h-72l6 105h144l70 90l-1 2h-239l6 154h455v-130z" />
    <glyph glyph-name="Aringacute" unicode="&#x1fa;" horiz-adv-x="748" 
d="M219 803q0 44 23.5 72t85.5 35l20 42h240l-94 -80q13 -14 18.5 -31.5t5.5 -37.5q0 -42 -17 -66l249 -737h-233l-33 129h-232l-33 -129h-221l242 729q-21 24 -21 74zM349 506l-54 -210h147l-53 209l-18 80h-3zM317 796q0 -15 9.5 -23t44.5 -8q30 0 40.5 7t10.5 24t-9.5 26
t-41.5 9q-35 0 -44.5 -9t-9.5 -26z" />
    <glyph glyph-name="aringacute" unicode="&#x1fb;" horiz-adv-x="585" 
d="M379 50q-30 -29 -70 -44.5t-89 -15.5q-90 0 -140.5 51t-50.5 154q0 42 15 77.5t43 61t68.5 40t91.5 14.5q31 0 56 -3.5t47 -9.5v22q0 34 -22 52t-79 18q-26 0 -47 -2t-40.5 -5.5t-38.5 -9.5t-41 -14l-15 146q93 40 218 40q72 0 121 -15.5t79 -47t43 -79t13 -110.5v-370
h-148zM497 920l-95 -112q30 -23 30 -66q0 -50 -32.5 -72.5t-108.5 -22.5q-72 0 -106 21t-34 74q0 38 22 62t78 31l29 85h217zM350 253q-11 3 -27 6t-39 3q-75 0 -75 -65q0 -33 17.5 -47.5t46.5 -14.5q31 0 54 15.5t23 40.5v62zM243 741q0 -13 9.5 -19.5t41.5 -6.5q28 0 39 6
t11 20q0 12 -10.5 19t-39.5 7q-31 0 -41 -6.5t-10 -19.5z" />
    <glyph glyph-name="AEacute" unicode="&#x1fc;" horiz-adv-x="1070" 
d="M726 573l4 -110h245v-160h-238l5 -128h301l-4 -175h-502l-5 131h-224l-57 -131h-247l395 750h628l3 -177h-304zM483 533l-104 -238h147l-8 231l-1 81l-3 1zM874 912l-144 -122h-153l57 122h240z" />
    <glyph glyph-name="aeacute" unicode="&#x1fd;" horiz-adv-x="899" 
d="M285 621q64 0 106.5 -13.5t68.5 -39.5q31 26 72 40t95 14q55 0 100.5 -17.5t78 -52.5t50.5 -89t18 -126q0 -21 -1.5 -44t-3.5 -42h-335q7 -56 41 -79t101 -23q82 0 161 28l21 -151q-38 -17 -92 -27t-114 -10q-85 0 -138 22t-86 57q-33 -38 -81 -58t-108 -20
q-104 0 -157 51t-53 154q0 42 15 77.5t43 61t68.5 40t91.5 14.5q32 0 56.5 -3.5t46.5 -9.5v22q0 34 -22 52t-79 18q-26 0 -47 -2t-40.5 -5.5t-38.5 -9.5t-41 -14l-15 146q96 39 218 39zM350 253q-11 3 -27 6t-39 3q-75 0 -75 -65q0 -33 17.5 -47.5t46.5 -14.5q32 0 54.5 16
t22.5 45v57zM698 372q-2 53 -23 75t-60 22q-22 0 -37 -5t-25 -16t-15.5 -29.5t-7.5 -46.5h168zM629 799l-124 -146h-143l50 146h217z" />
    <glyph glyph-name="Oslashacute" unicode="&#x1fe;" horiz-adv-x="752" 
d="M579 912l-144 -122h-153l57 122h240zM24 67l56 67q-47 90 -47 241q0 99 19.5 172t61.5 120.5t107 71t155 23.5q135 0 213 -53l48 56l96 -88l-58 -68q43 -89 43 -234q0 -101 -19.5 -174.5t-61 -121t-106.5 -70.5t-155 -23q-131 0 -209 50l-46 -55zM252 340q0 -16 1 -30
l213 242q-15 17 -37 23.5t-54 6.5q-35 0 -58.5 -8.5t-38 -31.5t-20.5 -63.5t-6 -103.5v-35zM499 432l-211 -239q15 -16 36.5 -22t51.5 -6q35 0 58.5 9t38 32.5t20.5 64.5t6 104v57z" />
    <glyph glyph-name="oslashacute" unicode="&#x1ff;" horiz-adv-x="630" 
d="M26 51l41 49q-41 72 -41 203q0 168 70 244t220 76q103 0 168 -36l36 43l79 -70l-39 -47q44 -75 44 -210q0 -84 -17 -144t-52 -98.5t-89.5 -56.5t-130.5 -18q-110 0 -174 38l-36 -43zM405 322q0 10 1 19l-160 -172q11 -19 28 -26t42 -7t42 7t27.5 26t15 51t4.5 83v19z
M226 277l155 167q-11 15 -26.5 20.5t-38.5 5.5q-25 0 -42.5 -7t-28 -25.5t-15 -51t-4.5 -83.5v-26zM498 799l-124 -146h-143l50 146h217z" />
    <glyph glyph-name="uni0218" unicode="&#x218;" horiz-adv-x="583" 
d="M562 230q0 -56 -20 -101.5t-57.5 -77t-91.5 -48.5t-122 -17q-66 0 -127 14.5t-112 40.5l26 173q51 -26 103.5 -40t107.5 -14q51 0 72 14.5t21 42.5q0 23 -24.5 37t-61 27t-79 28.5t-79 42t-61 67.5t-24.5 104q0 49 16.5 93t51 76.5t89 51.5t129.5 19q57 0 114.5 -10
t103.5 -28l-24 -169q-49 14 -95.5 21.5t-86.5 7.5q-30 0 -49 -4t-29.5 -10.5t-14.5 -16t-4 -20.5q0 -23 24.5 -37t60.5 -27t79 -28t79 -41t60.5 -67t24.5 -104zM284 -30q55 0 79 -17t24 -44q0 -18 -9.5 -34t-25.5 -30.5t-37 -27.5t-45 -24l-57 19l24 50q-53 13 -53 53
q0 23 22 39t78 16z" />
    <glyph glyph-name="uni0219" unicode="&#x219;" horiz-adv-x="500" 
d="M475 198q0 -47 -13.5 -85.5t-43 -66.5t-76 -43t-111.5 -15q-115 0 -194 38l19 152q19 -10 42 -17.5t46 -12t45.5 -7t40.5 -2.5q35 0 51 11.5t16 30.5t-20 29.5t-49.5 19.5t-64 20t-64 31.5t-49.5 54t-20 88.5q0 42 14.5 78.5t44.5 63t76 41.5t108 15q48 0 93.5 -9
t84.5 -25l-14 -150q-19 7 -41.5 12.5t-45 9.5t-43.5 5.5t-37 1.5q-56 0 -56 -35q0 -18 19.5 -28t48.5 -18.5t62.5 -19.5t62.5 -31t48.5 -52.5t19.5 -84.5zM251 -30q55 0 79 -17t24 -44q0 -18 -9.5 -34t-25.5 -30.5t-37 -27.5t-45 -24l-57 19l24 50q-53 13 -53 53q0 23 22 39
t78 16z" />
    <glyph glyph-name="uni021A" unicode="&#x21a;" horiz-adv-x="606" 
d="M408 569v-569h-211v569h-187l4 181h578l4 -181h-188zM300 -30q55 0 79 -17t24 -44q0 -18 -9.5 -34t-25.5 -30.5t-37 -27.5t-45 -24l-57 19l24 50q-53 13 -53 53q0 23 22 39t78 16z" />
    <glyph glyph-name="uni021B" unicode="&#x21b;" 
d="M266 473v-281q0 -29 15 -42.5t48 -13.5q11 0 25 2t22 5l10 -134q-17 -8 -48.5 -13.5t-67.5 -5.5q-101 0 -149 53.5t-48 143.5v286h-58v139h68l31 130l152 13v-143h127v-139h-127zM242 -30q55 0 79 -17t24 -44q0 -18 -9.5 -34t-25.5 -30.5t-37 -27.5t-45 -24l-57 19l24 50
q-53 13 -53 53q0 23 22 39t78 16z" />
    <glyph glyph-name="uni0237" unicode="&#x237;" horiz-adv-x="324" 
d="M262 13q0 -52 -15.5 -87t-42 -56t-61.5 -29.5t-74 -8.5q-51 0 -91 14l9 129q18 -5 34 -5q21 0 34.5 11t13.5 37v589l193 8v-602z" />
    <glyph glyph-name="uni0259" unicode="&#x259;" horiz-adv-x="591" 
d="M247 622q163 0 240.5 -83t77.5 -238q0 -73 -17 -131t-51.5 -98t-87 -61.5t-124.5 -21.5q-122 0 -191 70t-69 215q0 21 1.5 44t3.5 42h335q-6 56 -40 79t-102 23q-85 0 -161 -25l-21 148q38 17 92 27t114 10zM201 239q2 -53 22.5 -75t60.5 -22q22 0 37 4.5t25 16t15.5 30
t7.5 46.5h-168z" />
    <glyph glyph-name="uni02BB" unicode="&#x2bb;" horiz-adv-x="266" 
d="M135 491q-55 0 -80 29t-25 79q0 23 9 52.5t23.5 59.5t33 59t36.5 50l69 -16l-26 -120q23 -11 42.5 -35t19.5 -55q0 -44 -23.5 -73.5t-78.5 -29.5z" />
    <glyph glyph-name="uni02BC" unicode="&#x2bc;" horiz-adv-x="267" 
d="M131 777q55 0 80.5 -28.5t25.5 -79.5q0 -23 -9 -52.5t-23.5 -59.5t-33 -59t-37.5 -50l-68 16l25 120q-23 11 -42.5 35t-19.5 56q0 43 23 72.5t79 29.5z" />
    <glyph glyph-name="circumflex" unicode="&#x2c6;" 
d="M288 799l97 -146h-141l-35 69h-6l-36 -69h-141l95 146h167z" />
    <glyph glyph-name="caron" unicode="&#x2c7;" 
d="M122 653l-94 146h140l35 -75h6l35 75h143l-97 -146h-168z" />
    <glyph glyph-name="breve" unicode="&#x2d8;" 
d="M375 799q0 -75 -40 -115t-131 -40q-48 0 -81 10.5t-52.5 31t-28 49t-8.5 64.5h127q1 -35 12.5 -48.5t30.5 -13.5q17 0 29 12.5t12 49.5h130z" />
    <glyph glyph-name="dotaccent" unicode="&#x2d9;" 
d="M310 732q0 -37 -24.5 -55.5t-80.5 -18.5q-54 0 -79 16.5t-25 57.5q0 75 104 75q56 0 80.5 -19t24.5 -56z" />
    <glyph glyph-name="ring" unicode="&#x2da;" 
d="M66 742q0 44 31 69.5t109 25.5q75 0 108 -26.5t33 -68.5q0 -50 -32.5 -72.5t-108.5 -22.5q-72 0 -106 21t-34 74zM158 741q0 -13 9.5 -19.5t41.5 -6.5q28 0 39 6t11 20q0 12 -10.5 19t-39.5 7q-31 0 -41 -6.5t-10 -19.5z" />
    <glyph glyph-name="ogonek" unicode="&#x2db;" 
d="M274 -192q-69 0 -101.5 27t-32.5 69q0 49 31 77.5t84 43.5l76 -25q-47 -12 -47 -48q0 -15 10.5 -23.5t35.5 -8.5q14 0 23.5 2t19.5 7l15 -96q-23 -12 -50.5 -18.5t-63.5 -6.5z" />
    <glyph glyph-name="tilde" unicode="&#x2dc;" 
d="M28 661q1 31 9 57t22.5 45.5t35.5 30.5t47 11q27 0 45.5 -7t33.5 -15.5t28.5 -15.5t28.5 -7q14 0 20.5 10t10.5 24l86 -1q-2 -64 -32.5 -103t-81.5 -39q-26 0 -45 7t-34 15t-28.5 15t-28.5 7q-13 0 -20.5 -10t-9.5 -24h-87z" />
    <glyph glyph-name="hungarumlaut" unicode="&#x2dd;" 
d="M278 799l-108 -146h-122l39 146h191zM500 799l-124 -146h-139l68 146h195z" />
    <glyph glyph-name="uni0307" unicode="&#x307;" horiz-adv-x="1" 
d="M-57 732q0 -38 -24.5 -56.5t-79.5 -18.5q-54 0 -79.5 16.5t-25.5 58.5q0 37 25.5 56t79.5 19q55 0 79.5 -19t24.5 -56z" />
    <glyph glyph-name="uni0394" unicode="&#x394;" horiz-adv-x="735" 
d="M714 0h-695l279 753h138zM340 424l-90 -263h227l-86 263l-23 78h-3z" />
    <glyph glyph-name="uni03A9" unicode="&#x3a9;" horiz-adv-x="747" 
d="M374 761q77 0 139.5 -18.5t106.5 -57t68 -98t24 -141.5q0 -89 -35 -160.5t-105 -122.5v-3h141v-160h-316v234q20 17 37.5 36.5t30.5 43.5t20.5 54t7.5 69q0 83 -30.5 115t-88.5 32q-59 0 -89 -32t-30 -115q0 -39 7.5 -69t20.5 -54t30.5 -43t37.5 -37v-234h-316v160h137
l1 3q-138 99 -138 282q0 79 24 138.5t68.5 99t107 59t139.5 19.5z" />
    <glyph glyph-name="uni03BC" unicode="&#x3bc;" horiz-adv-x="633" 
d="M326 -9q-71 0 -108 55l-2 -1q4 -51 8 -100t10 -96l-184 -14v777h192v-386q0 -32 21.5 -51.5t57.5 -19.5q35 0 55 16.5t20 50.5v390h193v-607l-137 -11l-22 37q-20 -18 -46 -29t-58 -11z" />
    <glyph glyph-name="pi" unicode="&#x3c0;" horiz-adv-x="685" 
d="M396 453h-101v-453h-193v450q-20 -2 -34 -5.5t-25 -8.5l-40 144q24 15 69 23.5t104 8.5h475v-159h-62v-274q0 -26 11 -36.5t40 -10.5v-138q-73 0 -120 10t-74.5 32t-38.5 57.5t-11 85.5v274z" />
    <glyph glyph-name="Wgrave" unicode="&#x1e80;" horiz-adv-x="1052" 
d="M643 750l86 -464l14 -80h3l11 80l77 464h207l-174 -750h-249l-78 452l-12 81h-3l-13 -81l-78 -452h-249l-174 750h218l75 -467l12 -80h3l13 80l86 467h225zM463 791l-132 123h223l64 -123h-155z" />
    <glyph glyph-name="wgrave" unicode="&#x1e81;" horiz-adv-x="901" 
d="M554 612l63 -361l13 -80h3l10 80l53 361h188l-131 -612h-235l-49 320l-10 81h-3l-11 -81l-51 -320h-235l-141 612h193l69 -442h3l11 80l60 362h200zM402 653l-126 146h216l55 -146h-145z" />
    <glyph glyph-name="Wacute" unicode="&#x1e82;" horiz-adv-x="1052" 
d="M643 750l86 -464l14 -80h3l11 80l77 464h207l-174 -750h-249l-78 452l-12 81h-3l-13 -81l-78 -452h-249l-174 750h218l75 -467l12 -80h3l13 80l86 467h225zM743 912l-144 -122h-153l57 122h240z" />
    <glyph glyph-name="wacute" unicode="&#x1e83;" horiz-adv-x="901" 
d="M554 612l63 -361l13 -80h3l10 80l53 361h188l-131 -612h-235l-49 320l-10 81h-3l-11 -81l-51 -320h-235l-141 612h193l69 -442h3l11 80l60 362h200zM637 799l-124 -146h-143l50 146h217z" />
    <glyph glyph-name="Wdieresis" unicode="&#x1e84;" horiz-adv-x="1052" 
d="M643 750l86 -464l14 -80h3l11 80l77 464h207l-174 -750h-249l-78 452l-12 81h-3l-13 -81l-78 -452h-249l-174 750h218l75 -467l12 -80h3l13 80l86 467h225zM502 856q0 -34 -18 -51.5t-59 -17.5q-39 0 -58 15.5t-19 53.5q0 71 77 71q41 0 59 -18t18 -53zM705 856
q0 -34 -18 -51.5t-60 -17.5q-38 0 -57.5 15.5t-19.5 53.5q0 71 77 71q42 0 60 -18t18 -53z" />
    <glyph glyph-name="wdieresis" unicode="&#x1e85;" horiz-adv-x="901" 
d="M554 612l63 -361l13 -80h3l10 80l53 361h188l-131 -612h-235l-49 320l-10 81h-3l-11 -81l-51 -320h-235l-141 612h193l69 -442h3l11 80l60 362h200zM429 732q0 -36 -18 -54.5t-60 -18.5q-40 0 -59 16.5t-19 56.5q0 75 78 75q42 0 60 -19t18 -56zM625 732q0 -36 -18 -54.5
t-60 -18.5q-40 0 -59 16.5t-19 56.5q0 75 78 75q42 0 60 -19t18 -56z" />
    <glyph glyph-name="uni1E8A" unicode="&#x1e8a;" horiz-adv-x="721" 
d="M507 394l206 -394h-236l-82 178l-31 75h-3l-32 -75l-80 -178h-241l201 387l-198 363h247l104 -226h3l33 73l73 153h237zM473 850q0 -33 -23.5 -50t-84.5 -17q-60 0 -84.5 15t-24.5 52q0 34 24.5 51t84.5 17q61 0 84.5 -17t23.5 -51z" />
    <glyph glyph-name="uni1E8B" unicode="&#x1e8b;" horiz-adv-x="638" 
d="M343 141l-30 75h-3l-30 -76l-58 -140h-212l175 308l-172 304h223l87 -206h3l30 75l56 131h213l-163 -300l166 -312h-222zM430 732q0 -37 -24.5 -55.5t-80.5 -18.5q-54 0 -79 16.5t-25 57.5q0 75 104 75q56 0 80.5 -19t24.5 -56z" />
    <glyph glyph-name="uni1E9E" unicode="&#x1e9e;" horiz-adv-x="1153" 
d="M562 230q0 -56 -20 -101.5t-57.5 -77t-91.5 -48.5t-122 -17q-66 0 -127 14.5t-112 40.5l26 173q51 -26 103.5 -40t107.5 -14q51 0 72 14.5t21 42.5q0 23 -24.5 37t-61 27t-79 28.5t-79 42t-61 67.5t-24.5 104q0 49 16.5 93t51 76.5t89 51.5t129.5 19q57 0 114.5 -10
t103.5 -28l-24 -169q-49 14 -95.5 21.5t-86.5 7.5q-30 0 -49 -4t-29.5 -10.5t-14.5 -16t-4 -20.5q0 -23 24.5 -37t60.5 -27t79 -28t79 -41t60.5 -67t24.5 -104zM1132 230q0 -56 -20 -101.5t-57.5 -77t-91.5 -48.5t-122 -17q-66 0 -127 14.5t-112 40.5l26 173
q51 -26 103.5 -40t107.5 -14q51 0 72 14.5t21 42.5q0 23 -24.5 37t-61 27t-79 28.5t-79 42t-61 67.5t-24.5 104q0 49 16.5 93t51 76.5t89 51.5t129.5 19q57 0 114.5 -10t103.5 -28l-24 -169q-49 14 -95.5 21.5t-86.5 7.5q-30 0 -49 -4t-29.5 -10.5t-14.5 -16t-4 -20.5
q0 -23 24.5 -37t60.5 -27t79 -28t79 -41t60.5 -67t24.5 -104z" />
    <glyph glyph-name="Ygrave" unicode="&#x1ef2;" horiz-adv-x="714" 
d="M231 750l102 -253l29 -75h3l27 76l98 252h228l-251 -518v-232h-214v232l-256 518h234zM299 791l-132 123h223l64 -123h-155z" />
    <glyph glyph-name="ygrave" unicode="&#x1ef3;" horiz-adv-x="663" 
d="M177 -35q30 0 52 10t35 39l2 6l-260 592h218l108 -326l24 -77h3l17 79l77 324h204l-200 -592q-35 -103 -95.5 -147.5t-149.5 -44.5q-60 0 -110 19l14 130q17 -7 31 -9.5t30 -2.5zM284 653l-126 146h216l55 -146h-145z" />
    <glyph glyph-name="uni2007" unicode="&#x2007;" horiz-adv-x="636" 
 />
    <glyph glyph-name="uni2008" unicode="&#x2008;" horiz-adv-x="280" 
 />
    <glyph glyph-name="space.frac" unicode="&#x2009;" horiz-adv-x="49" 
 />
    <glyph glyph-name="uni200B" unicode="&#x200b;" horiz-adv-x="0" 
 />
    <glyph glyph-name="endash" unicode="&#x2013;" horiz-adv-x="506" 
d="M465 409v-133h-424v133h424z" />
    <glyph glyph-name="emdash" unicode="&#x2014;" horiz-adv-x="691" 
d="M650 409v-133h-609v133h609z" />
    <glyph glyph-name="quoteleft" unicode="&#x2018;" horiz-adv-x="266" 
d="M135 491q-55 0 -80 29t-25 79q0 23 9 52.5t23.5 59.5t33 59t36.5 50l69 -16l-26 -120q23 -11 42.5 -35t19.5 -55q0 -44 -23.5 -73.5t-78.5 -29.5z" />
    <glyph glyph-name="quoteright" unicode="&#x2019;" horiz-adv-x="267" 
d="M131 777q55 0 80.5 -28.5t25.5 -79.5q0 -23 -9 -52.5t-23.5 -59.5t-33 -59t-37.5 -50l-68 16l25 120q-23 11 -42.5 35t-19.5 56q0 43 23 72.5t79 29.5z" />
    <glyph glyph-name="quotesinglbase" unicode="&#x201a;" horiz-adv-x="267" 
d="M131 183q55 0 80.5 -28.5t25.5 -79.5q0 -23 -9 -52.5t-23.5 -59.5t-33 -59t-37.5 -50l-68 16l25 120q-23 11 -42.5 35t-19.5 56q0 43 23 72.5t79 29.5z" />
    <glyph glyph-name="quotedblleft" unicode="&#x201c;" horiz-adv-x="505" 
d="M135 491q-55 0 -80 29t-25 79q0 23 9 52.5t23.5 59.5t33 59t36.5 50l69 -16l-26 -120q23 -11 42.5 -35t19.5 -55q0 -44 -23.5 -73.5t-78.5 -29.5zM374 491q-55 0 -80.5 29t-25.5 80q0 23 9 52t23.5 59.5t33 59t36.5 50.5l69 -17l-25 -119q23 -11 42.5 -35t19.5 -56
q0 -45 -23.5 -74t-78.5 -29z" />
    <glyph glyph-name="quotedblright" unicode="&#x201d;" horiz-adv-x="505" 
d="M131 774q55 0 80.5 -28.5t25.5 -79.5q0 -23 -9 -52.5t-23.5 -59.5t-33 -59t-37.5 -50l-68 16l25 120q-23 11 -42.5 35t-19.5 56q0 43 23 72.5t79 29.5zM369 775q55 0 80.5 -28.5t25.5 -79.5q0 -23 -9 -52.5t-23.5 -59.5t-33 -59t-37.5 -50l-68 16l25 120q-23 11 -42.5 35
t-19.5 56q0 43 23 72.5t79 29.5z" />
    <glyph glyph-name="quotedblbase" unicode="&#x201e;" horiz-adv-x="505" 
d="M370 183q55 0 80.5 -28.5t25.5 -79.5q0 -23 -9 -52.5t-23.5 -59.5t-33 -59t-37.5 -50l-68 16l25 120q-23 11 -42.5 35t-19.5 56q0 43 23 72.5t79 29.5zM131 183q55 0 80.5 -28.5t25.5 -79.5q0 -23 -9 -52.5t-23.5 -59.5t-33 -59t-37.5 -50l-68 16l25 120q-23 11 -42.5 35
t-19.5 56q0 43 23 72.5t79 29.5z" />
    <glyph glyph-name="dagger" unicode="&#x2020;" horiz-adv-x="486" 
d="M163 608l-16 174h191l-14 -174l142 13v-172l-142 12l14 -609h-191l16 609l-143 -12v172z" />
    <glyph glyph-name="daggerdbl" unicode="&#x2021;" horiz-adv-x="486" 
d="M466 21l-142 13l14 -182h-191l16 182l-143 -13v172l145 -11l-2 279l-143 -12v172l143 -13l-16 174h191l-14 -174l142 13v-172l-142 12v-279l142 11v-172z" />
    <glyph glyph-name="bullet" unicode="&#x2022;" horiz-adv-x="418" 
d="M36 322q0 172 170 172q173 0 173 -172q0 -173 -173 -173q-170 0 -170 173z" />
    <glyph glyph-name="ellipsis" unicode="&#x2026;" horiz-adv-x="791" 
d="M758 87q0 -46 -25 -72.5t-82 -26.5t-82 22.5t-25 76.5q0 48 25 74t82 26t82 -26t25 -74zM505 87q0 -46 -25 -72.5t-82 -26.5t-82 22.5t-25 76.5q0 48 25 74t82 26t82 -26t25 -74zM247 87q0 -46 -25 -72.5t-82 -26.5t-82 22.5t-25 76.5q0 48 25 74t82 26t82 -26t25 -74z
" />
    <glyph glyph-name="perthousand" unicode="&#x2030;" horiz-adv-x="1101" 
d="M348 583q0 -88 -42 -132t-123 -44q-85 0 -123.5 45t-38.5 131q0 91 38.5 132.5t124.5 41.5q81 0 122.5 -40.5t41.5 -133.5zM221 583q0 37 -9 49t-28 12t-28 -12t-9 -49q0 -36 9.5 -48t27.5 -12q20 0 28.5 11.5t8.5 48.5zM636 620l-419 -586l-108 85l418 586zM735 164
q0 -87 -42 -131t-123 -44q-85 0 -123.5 44.5t-38.5 130.5q0 91 38.5 134t124.5 43q81 0 122.5 -41.5t41.5 -135.5zM608 164q0 35 -9 47t-28 12t-28 -12t-9 -47q0 -36 9 -47.5t28 -11.5t28 11.5t9 47.5zM1080 164q0 -87 -42 -131t-123 -44q-85 0 -123.5 44.5t-38.5 130.5
q0 91 38.5 134t124.5 43q81 0 122.5 -41.5t41.5 -135.5zM954 164q0 35 -9.5 47t-28.5 12t-28 -12t-9 -47q0 -36 9 -47.5t28 -11.5t28.5 11.5t9.5 47.5z" />
    <glyph glyph-name="guilsinglleft" unicode="&#x2039;" horiz-adv-x="388" 
d="M207 317l141 -91v-142l-326 227v13l326 227v-142z" />
    <glyph glyph-name="guilsinglright" unicode="&#x203a;" horiz-adv-x="388" 
d="M39 226l141 91l-141 92v142l327 -227v-13l-327 -227v142z" />
    <glyph glyph-name="fraction" unicode="&#x2044;" horiz-adv-x="318" 
d="M496 750l-494 -750h-133l493 750h134z" />
    <glyph glyph-name="uni2070" unicode="&#x2070;" horiz-adv-x="393" 
d="M374 681q0 -100 -41.5 -150t-135.5 -50t-135.5 50t-41.5 150q0 107 41.5 155.5t135.5 48.5t135.5 -48.5t41.5 -155.5zM245 682q0 32 -3 51.5t-9 30.5t-15 15t-21 4q-13 0 -22 -4t-15 -15t-9 -31t-3 -51q0 -32 3 -51.5t9 -30t15 -14.5t22 -4q12 0 21 4t15 14.5t9 30
t3 51.5z" />
    <glyph glyph-name="uni2074" unicode="&#x2074;" horiz-adv-x="393" 
d="M346 550v-64h-121v64h-203l-10 72l178 258h156v-230h37l-3 -100h-34zM237 768l-6 1l-31 -52l-45 -64l1 -3h73z" />
    <glyph glyph-name="uni2075" unicode="&#x2075;" horiz-adv-x="393" 
d="M367 623q0 -31 -9.5 -57t-30.5 -45t-54.5 -29.5t-81.5 -10.5q-39 0 -78 6t-73 21l19 95q32 -11 59 -17t63 -6q35 0 46 9t11 24q0 28 -57 28q-21 0 -44 -1.5t-42 -4.5l-49 42l22 203h273l4 -106h-175l-3 -36q11 1 22.5 1.5t25.5 0.5q72 0 112 -30t40 -87z" />
    <glyph glyph-name="uni2076" unicode="&#x2076;" horiz-adv-x="393" 
d="M374 625q0 -72 -45 -108t-126 -36q-88 0 -135.5 48t-47.5 148q0 97 53 153t157 56q34 0 62 -4t54 -13l-7 -99q-23 7 -43.5 9.5t-46.5 2.5q-44 0 -66 -12.5t-31 -36.5l2 -2q31 14 69 14q73 0 112 -30t39 -90zM245 625q0 14 -10 22.5t-34 8.5q-9 0 -24.5 -3t-22.5 -11
q1 -33 12 -47t39 -14q40 0 40 44z" />
    <glyph glyph-name="uni2077" unicode="&#x2077;" horiz-adv-x="393" 
d="M370 773l-157 -287h-151l128 212l43 66l-2 2h-212l7 114h344v-107z" />
    <glyph glyph-name="uni2078" unicode="&#x2078;" horiz-adv-x="393" 
d="M18 607q0 23 12 45.5t38 38.5q-15 14 -24 34t-9 49q0 52 38.5 82t123.5 30q86 0 124 -31t38 -81q0 -23 -9.5 -42t-25.5 -33q23 -14 37 -35.5t14 -55.5q0 -62 -43.5 -95t-134.5 -33q-94 0 -136.5 33.5t-42.5 93.5zM246 598q0 17 -23.5 26t-55.5 19q-10 -8 -16.5 -17
t-6.5 -19q0 -19 13.5 -26.5t42.5 -7.5q20 0 33 5.5t13 19.5zM157 769q0 -15 19 -22.5t47 -13.5q18 13 18 29q0 14 -9.5 22.5t-35.5 8.5q-39 0 -39 -24z" />
    <glyph glyph-name="uni2079" unicode="&#x2079;" horiz-adv-x="393" 
d="M372 697q0 -110 -50.5 -163t-152.5 -53q-44 0 -72.5 5.5t-54.5 14.5l19 98q24 -8 47 -13t51 -5q44 0 66 16t28 46l-2 2q-32 -21 -78 -21q-41 0 -70 9t-47.5 25.5t-27 39t-8.5 48.5q0 60 41 100t129 40q95 0 138.5 -49t43.5 -140zM241 732q0 31 -12 42.5t-41 11.5
q-23 0 -33 -8t-10 -27q0 -18 9 -27t37 -9q19 0 32 5.5t18 11.5z" />
    <glyph glyph-name="uni207A" unicode="&#x207a;" horiz-adv-x="394" 
d="M251 629v-102h-110v102h-102v111h102v102h110v-102h103v-111h-103z" />
    <glyph glyph-name="uni207B" unicode="&#x207b;" horiz-adv-x="394" 
d="M42 637v105h302v-105h-302z" />
    <glyph glyph-name="uni207C" unicode="&#x207c;" horiz-adv-x="394" 
d="M53 709v94h289v-94h-289zM53 570v94h289v-94h-289z" />
    <glyph glyph-name="uni207D" unicode="&#x207d;" horiz-adv-x="227" 
d="M230 901q-32 -49 -48 -108.5t-16 -125.5q0 -65 16 -124.5t48 -108.5l-84 -9q-51 45 -74 107.5t-23 134.5q0 73 23 135t74 107z" />
    <glyph glyph-name="uni207E" unicode="&#x207e;" horiz-adv-x="227" 
d="M81 909q50 -45 73 -107t23 -135q0 -72 -23 -134.5t-73 -107.5l-86 9q33 49 49 108.5t16 124.5q0 66 -15.5 125.5t-49.5 108.5z" />
    <glyph glyph-name="uni2080" unicode="&#x2080;" horiz-adv-x="393" 
d="M374 39q0 -100 -41.5 -150t-135.5 -50t-135.5 50t-41.5 150q0 107 41.5 155.5t135.5 48.5t135.5 -48.5t41.5 -155.5zM245 40q0 32 -3 51.5t-9 30.5t-15 15t-21 4q-13 0 -22 -4t-15 -15t-9 -31t-3 -51q0 -32 3 -51.5t9 -30t15 -14.5t22 -4q12 0 21 4t15 14.5t9 30t3 51.5z
" />
    <glyph glyph-name="uni2081" unicode="&#x2081;" horiz-adv-x="293" 
d="M246 -156h-131v252l-76 -40l-11 102l135 81h83v-395z" />
    <glyph glyph-name="uni2082" unicode="&#x2082;" horiz-adv-x="385" 
d="M355 117q0 -26 -10.5 -47.5t-29.5 -41t-46 -38t-60 -39.5v-3h144l-2 -104h-313v81q41 35 74 61.5t56.5 47.5t36.5 38t13 34q0 14 -11.5 23t-39.5 9q-29 0 -54 -9t-54 -25l-30 99q32 20 73 30.5t90 10.5q85 0 124 -36.5t39 -90.5z" />
    <glyph glyph-name="uni2083" unicode="&#x2083;" horiz-adv-x="385" 
d="M363 -38q0 -59 -43.5 -91t-138.5 -32q-43 0 -81 8.5t-65 24.5l27 94q28 -14 57 -21.5t61 -7.5q57 0 57 32q0 7 -3.5 13t-14 10.5t-30.5 7t-54 2.5v84q32 0 51.5 2t30 6t14 10t3.5 13q0 11 -11.5 18t-42.5 7q-35 0 -63 -7.5t-55 -24.5l-30 93q30 19 70.5 30t82.5 11
q82 0 126 -31.5t44 -85.5t-54 -80v-2q29 -11 45.5 -31t16.5 -52z" />
    <glyph glyph-name="uni2084" unicode="&#x2084;" horiz-adv-x="393" 
d="M346 -92v-64h-121v64h-203l-10 72l178 258h156v-230h37l-3 -100h-34zM237 126l-6 1l-31 -52l-45 -64l1 -3h73z" />
    <glyph glyph-name="uni2085" unicode="&#x2085;" horiz-adv-x="393" 
d="M367 -19q0 -31 -9.5 -57t-30.5 -45t-54.5 -29.5t-81.5 -10.5q-39 0 -78 6t-73 21l19 95q32 -11 59 -17t63 -6q35 0 46 9t11 24q0 28 -57 28q-21 0 -44 -1.5t-42 -4.5l-49 42l22 203h273l4 -106h-175l-3 -36q11 1 22.5 1.5t25.5 0.5q72 0 112 -30t40 -87z" />
    <glyph glyph-name="uni2086" unicode="&#x2086;" horiz-adv-x="393" 
d="M374 -17q0 -72 -45 -108t-126 -36q-88 0 -135.5 48t-47.5 148q0 97 53 153t157 56q34 0 62 -4t54 -13l-7 -99q-23 7 -43.5 9.5t-46.5 2.5q-44 0 -66 -12.5t-31 -36.5l2 -2q31 14 69 14q73 0 112 -30t39 -90zM245 -17q0 14 -10 22.5t-34 8.5q-9 0 -24.5 -3t-22.5 -11
q1 -33 12 -47t39 -14q40 0 40 44z" />
    <glyph glyph-name="uni2087" unicode="&#x2087;" horiz-adv-x="393" 
d="M370 131l-157 -287h-151l128 212l43 66l-2 2h-212l7 114h344v-107z" />
    <glyph glyph-name="uni2088" unicode="&#x2088;" horiz-adv-x="393" 
d="M18 -35q0 23 12 45.5t38 38.5q-15 14 -24 34t-9 49q0 52 38.5 82t123.5 30q86 0 124 -31t38 -81q0 -23 -9.5 -42t-25.5 -33q23 -14 37 -35.5t14 -55.5q0 -62 -43.5 -95t-134.5 -33q-94 0 -136.5 33.5t-42.5 93.5zM246 -44q0 17 -23.5 26t-55.5 19q-10 -8 -16.5 -17
t-6.5 -19q0 -19 13.5 -26.5t42.5 -7.5q20 0 33 5.5t13 19.5zM157 127q0 -15 19 -22.5t47 -13.5q18 13 18 29q0 14 -9.5 22.5t-35.5 8.5q-39 0 -39 -24z" />
    <glyph glyph-name="uni2089" unicode="&#x2089;" horiz-adv-x="393" 
d="M372 55q0 -110 -50.5 -163t-152.5 -53q-44 0 -72.5 5.5t-54.5 14.5l19 98q24 -8 47 -13t51 -5q44 0 66 16t28 46l-2 2q-32 -21 -78 -21q-41 0 -70 9t-47.5 25.5t-27 39t-8.5 48.5q0 60 41 100t129 40q95 0 138.5 -49t43.5 -140zM241 90q0 31 -12 42.5t-41 11.5
q-23 0 -33 -8t-10 -27q0 -18 9 -27t37 -9q19 0 32 5.5t18 11.5z" />
    <glyph glyph-name="uni208A" unicode="&#x208a;" horiz-adv-x="394" 
d="M251 -13v-102h-110v102h-102v111h102v102h110v-102h103v-111h-103z" />
    <glyph glyph-name="uni208B" unicode="&#x208b;" horiz-adv-x="394" 
d="M42 -5v105h302v-105h-302z" />
    <glyph glyph-name="uni208C" unicode="&#x208c;" horiz-adv-x="394" 
d="M53 67v94h289v-94h-289zM53 -72v94h289v-94h-289z" />
    <glyph glyph-name="uni208D" unicode="&#x208d;" horiz-adv-x="227" 
d="M230 259q-32 -49 -48 -108.5t-16 -125.5q0 -65 16 -124.5t48 -108.5l-84 -9q-51 45 -74 107.5t-23 134.5q0 73 23 135t74 107z" />
    <glyph glyph-name="uni208E" unicode="&#x208e;" horiz-adv-x="227" 
d="M81 267q50 -45 73 -107t23 -135q0 -72 -23 -134.5t-73 -107.5l-86 9q33 49 49 108.5t16 124.5q0 66 -15.5 125.5t-49.5 108.5z" />
    <glyph glyph-name="franc" unicode="&#x20a3;" horiz-adv-x="636" 
d="M81 212v538h507l3 -181h-300v-113h225l-2 -171h-223v-73h66v-133h-66v-79h-210v79h-57v133h57z" />
    <glyph glyph-name="lira" unicode="&#x20a4;" horiz-adv-x="636" 
d="M64 485h26q-6 24 -6 53q0 44 15.5 85t51.5 72.5t94 50t143 18.5q59 0 102 -8.5t77 -19.5l-23 -167q-28 9 -62.5 15t-70.5 6q-34 0 -57 -7t-37.5 -19t-21 -27.5t-6.5 -32.5v-10q0 -4 1 -9h245v-98h-217q3 -8 5.5 -17t4.5 -18h207v-96h-200q-8 -61 -55 -90l2 -3
q38 10 79 13.5t80 3.5q45 0 81 -3t74 -8q0 -1 -0.5 -14t-1.5 -32.5t-2 -41.5t-2 -41.5t-2 -33t-1 -14.5q-60 8 -119 11.5t-121 3.5q-35 0 -68 -0.5t-67 -2t-69.5 -3.5t-76.5 -6l-11 172q38 5 61.5 30.5t28.5 58.5h-66l-5 96h61q-2 9 -5 17.5t-6 17.5h-52z" />
    <glyph glyph-name="peseta" unicode="&#x20a7;" horiz-adv-x="636" 
d="M601 434q-5 -52 -24 -92t-53.5 -67.5t-86.5 -41.5t-123 -14h-63v-219h-195v434h-37v90h37v226h258q71 0 123 -13.5t87 -41.5t53.5 -70.5t23.5 -100.5h39v-90h-39zM250 524h150q-5 38 -24.5 51t-61.5 13h-64v-64zM314 374q38 0 58.5 11.5t27.5 48.5h-150v-60h64z" />
    <glyph glyph-name="Euro" unicode="&#x20ac;" horiz-adv-x="636" 
d="M487 255h-163q17 -58 55.5 -82t98.5 -24q29 0 59 7t56 17l14 -146q-36 -18 -80.5 -27.5t-104.5 -9.5q-265 0 -313 265h-81l1 95h70v36h-70l-1 98h81q12 61 39.5 110.5t68.5 84.5t95.5 54.5t120.5 19.5q55 0 97 -7t77 -20l-40 -160q-36 13 -86 13q-62 0 -99.5 -23
t-54.5 -72h218l-24 -98h-210v-36h199z" />
    <glyph glyph-name="trademark" unicode="&#x2122;" horiz-adv-x="710" 
d="M586 460v80l2 81l-3 1l-25 -78l-28 -84h-81l-29 81l-25 78l-2 -1l1 -158h-98v294h142l30 -88l24 -77h3l23 77l29 88h137v-294h-100zM201 658v-198h-116v198h-73v96h261v-96h-72z" />
    <glyph glyph-name="Omega" unicode="&#x2126;" horiz-adv-x="747" 
d="M374 761q77 0 139.5 -18.5t106.5 -57t68 -98t24 -141.5q0 -89 -35 -160.5t-105 -122.5v-3h141v-160h-316v234q20 17 37.5 36.5t30.5 43.5t20.5 54t7.5 69q0 83 -30.5 115t-88.5 32q-59 0 -89 -32t-30 -115q0 -39 7.5 -69t20.5 -54t30.5 -43t37.5 -37v-234h-316v160h137
l1 3q-138 99 -138 282q0 79 24 138.5t68.5 99t107 59t139.5 19.5z" />
    <glyph glyph-name="uni2150" unicode="&#x2150;" horiz-adv-x="1004" 
d="M246 356h-131v252l-76 -40l-11 102l135 81h83v-395zM789 750l-494 -750h-133l493 750h134zM981 287l-157 -287h-151l128 212l43 66l-2 2h-212l7 114h344v-107z" />
    <glyph glyph-name="uni2151" unicode="&#x2151;" horiz-adv-x="1004" 
d="M246 356h-131v252l-76 -40l-11 102l135 81h83v-395zM789 750l-494 -750h-133l493 750h134zM983 211q0 -110 -50.5 -163t-152.5 -53q-44 0 -72.5 5.5t-54.5 14.5l19 98q24 -8 47 -13t51 -5q44 0 66 16t28 46l-2 2q-32 -21 -78 -21q-41 0 -70 9t-47.5 25.5t-27 39
t-8.5 48.5q0 60 41 100t129 40q95 0 138.5 -49t43.5 -140zM852 246q0 31 -12 42.5t-41 11.5q-23 0 -33 -8t-10 -27q0 -18 9 -27t37 -9q19 0 32 5.5t18 11.5z" />
    <glyph glyph-name="uni2152" unicode="&#x2152;" horiz-adv-x="1297" 
d="M246 356h-131v252l-76 -40l-11 102l135 81h83v-395zM789 750l-494 -750h-133l493 750h134zM857 0h-131v252l-76 -40l-11 102l135 81h83v-395zM1278 195q0 -100 -41.5 -150t-135.5 -50t-135.5 50t-41.5 150q0 107 41.5 155.5t135.5 48.5t135.5 -48.5t41.5 -155.5z
M1149 196q0 32 -3 51.5t-9 30.5t-15 15t-21 4q-13 0 -22 -4t-15 -15t-9 -31t-3 -51q0 -32 3 -51.5t9 -30t15 -14.5t22 -4q12 0 21 4t15 14.5t9 30t3 51.5z" />
    <glyph glyph-name="onethird" unicode="&#x2153;" horiz-adv-x="996" 
d="M246 356h-131v252l-76 -40l-11 102l135 81h83v-395zM789 750l-494 -750h-133l493 750h134zM974 118q0 -59 -43.5 -91t-138.5 -32q-43 0 -81 8.5t-65 24.5l27 94q28 -14 57 -21.5t61 -7.5q57 0 57 32q0 7 -3.5 13t-14 10.5t-30.5 7t-54 2.5v84q32 0 51.5 2t30 6t14 10
t3.5 13q0 11 -11.5 18t-42.5 7q-35 0 -63 -7.5t-55 -24.5l-30 93q30 19 70.5 30t82.5 11q82 0 126 -31.5t44 -85.5t-54 -80v-2q29 -11 45.5 -31t16.5 -52z" />
    <glyph glyph-name="twothirds" unicode="&#x2154;" horiz-adv-x="1088" 
d="M355 629q0 -26 -10.5 -47.5t-29.5 -41t-46 -38t-60 -39.5v-3h144l-2 -104h-313v81q41 35 74 61.5t56.5 47.5t36.5 38t13 34q0 14 -11.5 23t-39.5 9q-29 0 -54 -9t-54 -25l-30 99q32 20 73 30.5t90 10.5q85 0 124 -36.5t39 -90.5zM881 750l-494 -750h-133l493 750h134z
M1066 118q0 -59 -43.5 -91t-138.5 -32q-43 0 -81 8.5t-65 24.5l27 94q28 -14 57 -21.5t61 -7.5q57 0 57 32q0 7 -3.5 13t-14 10.5t-30.5 7t-54 2.5v84q32 0 51.5 2t30 6t14 10t3.5 13q0 11 -11.5 18t-42.5 7q-35 0 -63 -7.5t-55 -24.5l-30 93q30 19 70.5 30t82.5 11
q82 0 126 -31.5t44 -85.5t-54 -80v-2q29 -11 45.5 -31t16.5 -52z" />
    <glyph glyph-name="uni2155" unicode="&#x2155;" horiz-adv-x="1004" 
d="M246 356h-131v252l-76 -40l-11 102l135 81h83v-395zM789 750l-494 -750h-133l493 750h134zM978 137q0 -31 -9.5 -57t-30.5 -45t-54.5 -29.5t-81.5 -10.5q-39 0 -78 6t-73 21l19 95q32 -11 59 -17t63 -6q35 0 46 9t11 24q0 28 -57 28q-21 0 -44 -1.5t-42 -4.5l-49 42
l22 203h273l4 -106h-175l-3 -36q11 1 22.5 1.5t25.5 0.5q72 0 112 -30t40 -87z" />
    <glyph glyph-name="uni2156" unicode="&#x2156;" horiz-adv-x="1096" 
d="M355 629q0 -26 -10.5 -47.5t-29.5 -41t-46 -38t-60 -39.5v-3h144l-2 -104h-313v81q41 35 74 61.5t56.5 47.5t36.5 38t13 34q0 14 -11.5 23t-39.5 9q-29 0 -54 -9t-54 -25l-30 99q32 20 73 30.5t90 10.5q85 0 124 -36.5t39 -90.5zM881 750l-494 -750h-133l493 750h134z
M1070 137q0 -31 -9.5 -57t-30.5 -45t-54.5 -29.5t-81.5 -10.5q-39 0 -78 6t-73 21l19 95q32 -11 59 -17t63 -6q35 0 46 9t11 24q0 28 -57 28q-21 0 -44 -1.5t-42 -4.5l-49 42l22 203h273l4 -106h-175l-3 -36q11 1 22.5 1.5t25.5 0.5q72 0 112 -30t40 -87z" />
    <glyph glyph-name="uni2157" unicode="&#x2157;" horiz-adv-x="1096" 
d="M363 474q0 -59 -43.5 -91t-138.5 -32q-43 0 -81 8.5t-65 24.5l27 94q28 -14 57 -21.5t61 -7.5q57 0 57 32q0 7 -3.5 13t-14 10.5t-30.5 7t-54 2.5v84q32 0 51.5 2t30 6t14 10t3.5 13q0 11 -11.5 18t-42.5 7q-35 0 -63 -7.5t-55 -24.5l-30 93q30 19 70.5 30t82.5 11
q82 0 126 -31.5t44 -85.5t-54 -80v-2q29 -11 45.5 -31t16.5 -52zM881 750l-494 -750h-133l493 750h134zM1070 137q0 -31 -9.5 -57t-30.5 -45t-54.5 -29.5t-81.5 -10.5q-39 0 -78 6t-73 21l19 95q32 -11 59 -17t63 -6q35 0 46 9t11 24q0 28 -57 28q-21 0 -44 -1.5t-42 -4.5
l-49 42l22 203h273l4 -106h-175l-3 -36q11 1 22.5 1.5t25.5 0.5q72 0 112 -30t40 -87z" />
    <glyph glyph-name="uni2158" unicode="&#x2158;" horiz-adv-x="1104" 
d="M346 420v-64h-121v64h-203l-10 72l178 258h156v-230h37l-3 -100h-34zM237 638l-6 1l-31 -52l-45 -64l1 -3h73zM889 750l-494 -750h-133l493 750h134zM1078 137q0 -31 -9.5 -57t-30.5 -45t-54.5 -29.5t-81.5 -10.5q-39 0 -78 6t-73 21l19 95q32 -11 59 -17t63 -6
q35 0 46 9t11 24q0 28 -57 28q-21 0 -44 -1.5t-42 -4.5l-49 42l22 203h273l4 -106h-175l-3 -36q11 1 22.5 1.5t25.5 0.5q72 0 112 -30t40 -87z" />
    <glyph glyph-name="uni2159" unicode="&#x2159;" horiz-adv-x="1004" 
d="M246 356h-131v252l-76 -40l-11 102l135 81h83v-395zM789 750l-494 -750h-133l493 750h134zM985 139q0 -72 -45 -108t-126 -36q-88 0 -135.5 48t-47.5 148q0 97 53 153t157 56q34 0 62 -4t54 -13l-7 -99q-23 7 -43.5 9.5t-46.5 2.5q-44 0 -66 -12.5t-31 -36.5l2 -2
q31 14 69 14q73 0 112 -30t39 -90zM856 139q0 14 -10 22.5t-34 8.5q-9 0 -24.5 -3t-22.5 -11q1 -33 12 -47t39 -14q40 0 40 44z" />
    <glyph glyph-name="uni215A" unicode="&#x215a;" horiz-adv-x="1104" 
d="M367 493q0 -31 -9.5 -57t-30.5 -45t-54.5 -29.5t-81.5 -10.5q-39 0 -78 6t-73 21l19 95q32 -11 59 -17t63 -6q35 0 46 9t11 24q0 28 -57 28q-21 0 -44 -1.5t-42 -4.5l-49 42l22 203h273l4 -106h-175l-3 -36q11 1 22.5 1.5t25.5 0.5q72 0 112 -30t40 -87zM889 750
l-494 -750h-133l493 750h134zM1085 139q0 -72 -45 -108t-126 -36q-88 0 -135.5 48t-47.5 148q0 97 53 153t157 56q34 0 62 -4t54 -13l-7 -99q-23 7 -43.5 9.5t-46.5 2.5q-44 0 -66 -12.5t-31 -36.5l2 -2q31 14 69 14q73 0 112 -30t39 -90zM956 139q0 14 -10 22.5t-34 8.5
q-9 0 -24.5 -3t-22.5 -11q1 -33 12 -47t39 -14q40 0 40 44z" />
    <glyph glyph-name="oneeighth" unicode="&#x215b;" horiz-adv-x="1004" 
d="M246 356h-131v252l-76 -40l-11 102l135 81h83v-395zM789 750l-494 -750h-133l493 750h134zM629 121q0 23 12 45.5t38 38.5q-15 14 -24 34t-9 49q0 52 38.5 82t123.5 30q86 0 124 -31t38 -81q0 -23 -9.5 -42t-25.5 -33q23 -14 37 -35.5t14 -55.5q0 -62 -43.5 -95
t-134.5 -33q-94 0 -136.5 33.5t-42.5 93.5zM857 112q0 17 -23.5 26t-55.5 19q-10 -8 -16.5 -17t-6.5 -19q0 -19 13.5 -26.5t42.5 -7.5q20 0 33 5.5t13 19.5zM768 283q0 -15 19 -22.5t47 -13.5q18 13 18 29q0 14 -9.5 22.5t-35.5 8.5q-39 0 -39 -24z" />
    <glyph glyph-name="threeeighths" unicode="&#x215c;" horiz-adv-x="1096" 
d="M363 474q0 -59 -43.5 -91t-138.5 -32q-43 0 -81 8.5t-65 24.5l27 94q28 -14 57 -21.5t61 -7.5q57 0 57 32q0 7 -3.5 13t-14 10.5t-30.5 7t-54 2.5v84q32 0 51.5 2t30 6t14 10t3.5 13q0 11 -11.5 18t-42.5 7q-35 0 -63 -7.5t-55 -24.5l-30 93q30 19 70.5 30t82.5 11
q82 0 126 -31.5t44 -85.5t-54 -80v-2q29 -11 45.5 -31t16.5 -52zM881 750l-494 -750h-133l493 750h134zM721 121q0 23 12 45.5t38 38.5q-15 14 -24 34t-9 49q0 52 38.5 82t123.5 30q86 0 124 -31t38 -81q0 -23 -9.5 -42t-25.5 -33q23 -14 37 -35.5t14 -55.5q0 -62 -43.5 -95
t-134.5 -33q-94 0 -136.5 33.5t-42.5 93.5zM949 112q0 17 -23.5 26t-55.5 19q-10 -8 -16.5 -17t-6.5 -19q0 -19 13.5 -26.5t42.5 -7.5q20 0 33 5.5t13 19.5zM860 283q0 -15 19 -22.5t47 -13.5q18 13 18 29q0 14 -9.5 22.5t-35.5 8.5q-39 0 -39 -24z" />
    <glyph glyph-name="fiveeighths" unicode="&#x215d;" horiz-adv-x="1104" 
d="M367 493q0 -31 -9.5 -57t-30.5 -45t-54.5 -29.5t-81.5 -10.5q-39 0 -78 6t-73 21l19 95q32 -11 59 -17t63 -6q35 0 46 9t11 24q0 28 -57 28q-21 0 -44 -1.5t-42 -4.5l-49 42l22 203h273l4 -106h-175l-3 -36q11 1 22.5 1.5t25.5 0.5q72 0 112 -30t40 -87zM889 750
l-494 -750h-133l493 750h134zM729 121q0 23 12 45.5t38 38.5q-15 14 -24 34t-9 49q0 52 38.5 82t123.5 30q86 0 124 -31t38 -81q0 -23 -9.5 -42t-25.5 -33q23 -14 37 -35.5t14 -55.5q0 -62 -43.5 -95t-134.5 -33q-94 0 -136.5 33.5t-42.5 93.5zM957 112q0 17 -23.5 26
t-55.5 19q-10 -8 -16.5 -17t-6.5 -19q0 -19 13.5 -26.5t42.5 -7.5q20 0 33 5.5t13 19.5zM868 283q0 -15 19 -22.5t47 -13.5q18 13 18 29q0 14 -9.5 22.5t-35.5 8.5q-39 0 -39 -24z" />
    <glyph glyph-name="seveneighths" unicode="&#x215e;" horiz-adv-x="1104" 
d="M370 643l-157 -287h-151l128 212l43 66l-2 2h-212l7 114h344v-107zM889 750l-494 -750h-133l493 750h134zM729 121q0 23 12 45.5t38 38.5q-15 14 -24 34t-9 49q0 52 38.5 82t123.5 30q86 0 124 -31t38 -81q0 -23 -9.5 -42t-25.5 -33q23 -14 37 -35.5t14 -55.5
q0 -62 -43.5 -95t-134.5 -33q-94 0 -136.5 33.5t-42.5 93.5zM957 112q0 17 -23.5 26t-55.5 19q-10 -8 -16.5 -17t-6.5 -19q0 -19 13.5 -26.5t42.5 -7.5q20 0 33 5.5t13 19.5zM868 283q0 -15 19 -22.5t47 -13.5q18 13 18 29q0 14 -9.5 22.5t-35.5 8.5q-39 0 -39 -24z" />
    <glyph glyph-name="uni215F" unicode="&#x215f;" horiz-adv-x="611" 
d="M246 356h-131v252l-76 -40l-11 102l135 81h83v-395zM789 750l-494 -750h-133l493 750h134z" />
    <glyph glyph-name="uni2189" unicode="&#x2189;" horiz-adv-x="975" 
d="M374 551q0 -100 -41.5 -150t-135.5 -50t-135.5 50t-41.5 150q0 107 41.5 155.5t135.5 48.5t135.5 -48.5t41.5 -155.5zM245 552q0 32 -3 51.5t-9 30.5t-15 15t-21 4q-13 0 -22 -4t-15 -15t-9 -31t-3 -51q0 -32 3 -51.5t9 -30t15 -14.5t22 -4q12 0 21 4t15 14.5t9 30
t3 51.5zM768 750l-494 -750h-133l493 750h134zM953 118q0 -59 -43.5 -91t-138.5 -32q-43 0 -81 8.5t-65 24.5l27 94q28 -14 57 -21.5t61 -7.5q57 0 57 32q0 7 -3.5 13t-14 10.5t-30.5 7t-54 2.5v84q32 0 51.5 2t30 6t14 10t3.5 13q0 11 -11.5 18t-42.5 7q-35 0 -63 -7.5
t-55 -24.5l-30 93q30 19 70.5 30t82.5 11q82 0 126 -31.5t44 -85.5t-54 -80v-2q29 -11 45.5 -31t16.5 -52z" />
    <glyph glyph-name="partialdiff" unicode="&#x2202;" horiz-adv-x="646" 
d="M309 539q62 0 114 -32l2 2q-14 46 -48.5 68.5t-94.5 22.5q-54 0 -96.5 -11t-85.5 -34l-45 129q28 18 55.5 31.5t58.5 22.5t67 14t80 5q50 0 103.5 -17.5t98 -59t73.5 -109.5t29 -169q0 -93 -21.5 -169.5t-64.5 -131t-108 -85t-153 -30.5q-126 0 -186.5 64t-60.5 183
q0 74 20 131t57 96t89.5 59t116.5 20zM414 326q0 29 -19 50t-59 21q-51 0 -81.5 -43.5t-30.5 -137.5q0 -42 21 -63t59 -21q51 0 80.5 51.5t29.5 142.5z" />
    <glyph glyph-name="Delta" unicode="&#x2206;" horiz-adv-x="735" 
d="M714 0h-695l279 753h138zM340 424l-90 -263h227l-86 263l-23 78h-3z" />
    <glyph glyph-name="product" unicode="&#x220f;" horiz-adv-x="757" 
d="M124 -164v775l-91 11l-4 128h700l-3 -127l-90 -11v-776h-181v762h-150v-762h-181z" />
    <glyph glyph-name="summation" unicode="&#x2211;" horiz-adv-x="693" 
d="M356 51l-54 -57l1 -3h360l-4 -155h-605v102l305 365l-305 333v114h591l4 -158h-333l-1 -2l55 -57l193 -211v-39z" />
    <glyph glyph-name="minus" unicode="&#x2212;" horiz-adv-x="605" 
d="M64 249v170h477v-170h-477z" />
    <glyph glyph-name="uni2219" unicode="&#x2219;" horiz-adv-x="605" 
d="M131 322q0 172 170 172q173 0 173 -172q0 -173 -173 -173q-170 0 -170 173z" />
    <glyph glyph-name="radical" unicode="&#x221a;" horiz-adv-x="634" 
d="M4 511h213l63 -222l21 -78h3l18 79l124 489h203l-227 -779h-229l-115 343h-74v168z" />
    <glyph glyph-name="infinity" unicode="&#x221e;" horiz-adv-x="780" 
d="M546 138q-51 0 -88 15t-66 43q-24 -26 -61 -42t-94 -16q-43 0 -80 13.5t-64.5 39.5t-43 64t-15.5 87q0 45 12.5 83t37 65t62 42t87.5 15q51 0 88 -15t66 -44q24 26 61.5 42.5t94.5 16.5q42 0 79 -13.5t64.5 -39.5t43.5 -64t16 -87q0 -45 -12.5 -83t-37.5 -65t-62.5 -42
t-87.5 -15zM536 394q-29 0 -45.5 -23t-30.5 -57q13 -14 30 -24t43 -10q28 0 42 17t14 44t-15.5 40t-37.5 13zM243 291q29 0 45.5 23t30.5 57q-13 14 -29.5 24t-42.5 10q-27 0 -41.5 -16.5t-14.5 -42.5q0 -29 15.5 -42t36.5 -13z" />
    <glyph glyph-name="integral" unicode="&#x222b;" horiz-adv-x="336" 
d="M264 39q0 -113 -61 -162t-193 -49l-4 120q32 0 48.5 18.5t16.5 65.5v569q0 100 61 149t194 49l4 -119q-32 0 -48 -18.5t-16 -60.5z" />
    <glyph glyph-name="approxequal" unicode="&#x2248;" horiz-adv-x="636" 
d="M428 338q-32 0 -61 6t-56 13.5t-52.5 14t-50.5 6.5q-64 0 -119 -29v144q28 14 57.5 21t61.5 7t60.5 -6.5t55.5 -14t52.5 -14t51.5 -6.5q33 0 62 7.5t57 21.5v-143q-28 -14 -57 -21t-62 -7zM428 124q-32 0 -61 6.5t-56 14t-52.5 14t-50.5 6.5q-64 0 -119 -29v143
q28 14 57.5 21.5t61.5 7.5t60.5 -6.5t55.5 -14t52.5 -14t51.5 -6.5q33 0 62 7t57 21v-143q-28 -14 -57 -21t-62 -7z" />
    <glyph glyph-name="notequal" unicode="&#x2260;" horiz-adv-x="636" 
d="M506 563l-29 -61h70v-143h-138l-34 -72h172v-143h-239l-57 -120l-121 57l30 63h-71v143h138l34 72h-172v143h240l56 118z" />
    <glyph glyph-name="lessequal" unicode="&#x2264;" horiz-adv-x="636" 
d="M306 441l-80 -13v-3l80 -13l248 -45v-174l-476 145v181l475 146v-177zM82 25v149h472v-149h-472z" />
    <glyph glyph-name="greaterequal" unicode="&#x2265;" horiz-adv-x="636" 
d="M79 367l247 45l81 13v3l-81 13l-247 47l1 177l474 -146v-181l-475 -145v174zM78 25v149h473v-149h-473z" />
    <glyph glyph-name="dotmath" unicode="&#x22c5;" horiz-adv-x="605" 
d="M409 346q0 -46 -25 -72.5t-82 -26.5t-82 22.5t-25 76.5q0 48 25 74t82 26t82 -26t25 -74z" />
    <glyph glyph-name="lozenge" unicode="&#x25ca;" horiz-adv-x="633" 
d="M316 694l298 -345l-298 -346l-297 346zM316 232l102 117l-102 119l-101 -118z" />
    <glyph glyph-name="orn001" unicode="&#xea01;" horiz-adv-x="704" 
d="M352 -14q-29 0 -58.5 18t-56 43t-48.5 50t-35 39q-23 24 -43.5 62.5t-36.5 85t-25 97.5t-9 101q0 60 16 112.5t53 90.5t96.5 60t146.5 22t146.5 -22t96.5 -60t53 -90.5t16 -112.5q0 -50 -9 -101t-25 -97.5t-36.5 -85t-43.5 -62.5q-14 -14 -35.5 -39t-48.5 -50t-56.5 -43
t-57.5 -18zM352 60q19 0 40 13t39.5 30.5t34.5 34.5t26 26q15 15 29 42t25.5 61t18.5 71.5t7 73.5t-9 60.5t-33 39t-66 20.5t-109 6q-69 0 -112.5 -6t-68 -20t-33 -38.5t-8.5 -61.5q0 -36 7 -73.5t18.5 -71.5t26 -61t29.5 -42q10 -9 26 -26t34.5 -34.5t38.5 -30.5t39 -13z
M460 176q-24 5 -49.5 7.5t-52.5 2.5t-54 -2.5t-53 -7.5q-19 21 -32.5 52t-17.5 65q77 -23 151 -23q78 0 153 23q-3 -34 -14 -64.5t-31 -52.5zM371 372q35 18 67.5 41t61.5 58q18 -14 27.5 -41t9.5 -59q0 -5 -0.5 -9t-0.5 -9q-26 -14 -61.5 -23.5t-71.5 -13.5zM306 316
q-35 4 -70 13.5t-62 23.5q0 5 -0.5 9t-0.5 9q0 32 9.5 59t28.5 41q29 -35 61 -58t67 -41z" />
    <glyph glyph-name="fi" unicode="&#xfb01;" horiz-adv-x="720" 
d="M276 0h-192v474h-69v138h68v24q0 33 13 62.5t39.5 52t67 36t96.5 13.5q28 0 52 -3t41 -8l-5 -121q-11 2 -22 3t-24 1q-37 0 -51 -10.5t-14 -29.5v-20h378v-612h-196v474h-182v-474zM662 732q0 -37 -24.5 -55.5t-79.5 -18.5q-54 0 -79.5 16.5t-25.5 57.5q0 37 25.5 56
t79.5 19q55 0 79.5 -19t24.5 -56z" />
    <glyph glyph-name="fl" unicode="&#xfb02;" horiz-adv-x="685" 
d="M434 0v670q-20 3 -38 5t-35 2q-51 0 -68 -14t-17 -39v-12h81v-138h-81v-474h-192v474h-69v138h68v19q0 34 13.5 64.5t45.5 54t86 37.5t135 14q35 0 66.5 -2.5t63 -6t64.5 -7t71 -4.5v-781h-194z" />
    <glyph glyph-name="uniFEFF" unicode="&#xfeff;" horiz-adv-x="0" 
 />
    <glyph glyph-name="afii57929" horiz-adv-x="267" 
d="M131 777q55 0 80.5 -28.5t25.5 -79.5q0 -23 -9 -52.5t-23.5 -59.5t-33 -59t-37.5 -50l-68 16l25 120q-23 11 -42.5 35t-19.5 56q0 43 23 72.5t79 29.5z" />
    <glyph glyph-name="i.latn_TRK" horiz-adv-x="324" 
d="M63 0v606l197 9v-615h-197zM266 732q0 -38 -24.5 -56.5t-79.5 -18.5q-54 0 -79.5 16.5t-25.5 58.5q0 37 25.5 56t79.5 19q55 0 79.5 -19t24.5 -56z" />
    <glyph glyph-name="Ldot.latn_CAT" horiz-adv-x="565" 
d="M536 406q0 -40 -22 -63t-73 -23q-50 0 -72 19t-22 67q0 42 22 64.5t72 22.5q51 0 73 -22.5t22 -64.5zM550 180l-4 -180h-490v750h211v-570h283z" />
    <glyph glyph-name="ldot.latn_CAT" horiz-adv-x="439" 
d="M461 409q0 -36 -20.5 -57.5t-65.5 -21.5q-46 0 -66 18t-20 61q0 39 20 59.5t66 20.5q45 0 65.5 -20.5t20.5 -59.5zM57 0v773l195 9v-782h-195z" />
    <glyph glyph-name="dollar.subs" horiz-adv-x="345" 
d="M258 300l-7 -72q32 -4 64 -14l-14 -98q-31 8 -53 11.5t-46 3.5q-34 0 -43 -5t-9 -12q0 -9 13.5 -13.5t33 -9t43 -11t43 -19.5t33 -34t13.5 -54q0 -47 -26.5 -78.5t-78.5 -42.5l-5 -61h-98l4 59q-26 3 -49.5 9t-44.5 17l15 102q32 -16 57.5 -23.5t57.5 -7.5q26 0 37.5 4.5
t11.5 13.5q0 8 -13 12.5t-33 9t-43 11.5t-43 20t-33 34t-13 55q0 22 6.5 42t21 36.5t37.5 28t56 16.5l7 70h98z" />
    <glyph glyph-name="comma.subs" horiz-adv-x="182" 
d="M87 -45q36 0 52 -17.5t16 -46.5q0 -16 -5.5 -34t-14.5 -36t-20.5 -34t-23.5 -28l-46 9l16 67q-14 7 -26.5 21t-12.5 34q0 29 15 47t50 18z" />
    <glyph glyph-name="period.subs" horiz-adv-x="182" 
d="M160 -104q0 -29 -15.5 -45t-53.5 -16q-37 0 -53 13t-16 48q0 30 16 46t53 16q38 0 53.5 -16t15.5 -46z" />
    <glyph glyph-name="cent.subs" horiz-adv-x="345" 
d="M316 118q-15 5 -33 7.5t-34 2.5q-54 0 -72.5 -19t-18.5 -65q0 -45 23 -66t65 -21q20 0 38.5 3.5t34.5 8.5l9 -89q-27 -15 -71 -21l-5 -68h-101l6 72q-66 14 -100 60.5t-34 120.5q0 77 36.5 126t119.5 59l7 72h102l-8 -74q23 -4 43 -11z" />
    <glyph glyph-name="dollar.sups" horiz-adv-x="345" 
d="M258 963l-7 -72q32 -4 64 -14l-14 -98q-31 8 -53 11.5t-46 3.5q-34 0 -43 -5t-9 -12q0 -9 13.5 -13.5t33 -9t43 -11t43 -19.5t33 -34t13.5 -54q0 -47 -26.5 -78.5t-78.5 -42.5l-5 -61h-98l4 58q-52 6 -94 27l15 102q32 -16 57.5 -23.5t57.5 -7.5q26 0 37.5 4.5t11.5 13.5
q0 8 -13 12.5t-33 9t-43 11.5t-43 20t-33 34t-13 55q0 22 6.5 42t21 36.5t37.5 28t56 16.5l7 70h98z" />
    <glyph glyph-name="comma.sups" horiz-adv-x="182" 
d="M87 617q36 0 52 -17t16 -46q0 -16 -5.5 -34.5t-14.5 -36.5t-20.5 -34t-23.5 -27l-46 8l16 68q-14 6 -26.5 20.5t-12.5 33.5q0 29 15 47t50 18z" />
    <glyph glyph-name="period.sups" horiz-adv-x="182" 
d="M160 559q0 -30 -15.5 -46t-53.5 -16q-37 0 -53 13.5t-16 48.5q0 30 16 45.5t53 15.5q38 0 53.5 -15.5t15.5 -45.5z" />
    <glyph glyph-name="cent.sups" horiz-adv-x="345" 
d="M317 781q-16 4 -33.5 7t-34.5 3q-53 0 -71.5 -19.5t-18.5 -65.5q0 -45 23 -65.5t65 -20.5q20 0 38 3.5t35 8.5l8 -90q-14 -8 -31 -13.5t-39 -7.5l-6 -67h-101l6 71q-66 14 -99.5 60t-33.5 121q0 77 36.5 126t118.5 60l8 72h101l-7 -74q12 -2 22.5 -5t19.5 -6z" />
    <glyph glyph-name="dollar.numr" horiz-adv-x="345" 
d="M258 814l-7 -72q17 -2 33 -6t31 -9l-14 -98q-31 8 -53 11.5t-46 3.5q-34 0 -43 -5t-9 -12q0 -9 13.5 -13.5t33 -8.5t43 -10.5t43 -19.5t33 -34t13.5 -54q0 -47 -26.5 -79t-78.5 -43l-5 -61h-98l4 58q-26 4 -49.5 10.5t-44.5 17.5l15 101q32 -15 57.5 -23t57.5 -8
q26 0 37.5 5t11.5 14q0 8 -13 12.5t-33 9t-43 11t-43 19.5t-33 34t-13 55q0 22 6.5 42t21 36.5t37.5 28.5t56 17l7 70h98z" />
    <glyph glyph-name="parenleft.numr" horiz-adv-x="227" 
d="M230 771q-32 -49 -48 -108.5t-16 -125.5q0 -65 16 -124.5t48 -108.5l-84 -9q-51 45 -74 107.5t-23 134.5q0 73 23 135t74 107z" />
    <glyph glyph-name="parenright.numr" horiz-adv-x="227" 
d="M81 779q50 -45 73 -107t23 -135q0 -72 -23 -134.5t-73 -107.5l-86 9q33 49 49 108.5t16 124.5q0 66 -15.5 125.5t-49.5 108.5z" />
    <glyph glyph-name="plus.numr" horiz-adv-x="394" 
d="M251 499v-102h-110v102h-102v111h102v102h110v-102h103v-111h-103z" />
    <glyph glyph-name="comma.numr" horiz-adv-x="182" 
d="M87 467q36 0 52 -17t16 -47q0 -15 -5.5 -33t-14.5 -36t-20.5 -34t-23.5 -28l-46 9l16 67q-14 7 -26.5 21t-12.5 34q0 29 15 46.5t50 17.5z" />
    <glyph glyph-name="period.numr" horiz-adv-x="182" 
d="M160 409q0 -29 -15.5 -45t-53.5 -16q-37 0 -53 13t-16 48q0 30 16 46t53 16q38 0 53.5 -16t15.5 -46z" />
    <glyph glyph-name="zero.numr" horiz-adv-x="393" 
d="M374 551q0 -100 -41.5 -150t-135.5 -50t-135.5 50t-41.5 150q0 107 41.5 155.5t135.5 48.5t135.5 -48.5t41.5 -155.5zM245 552q0 32 -3 51.5t-9 30.5t-15 15t-21 4q-13 0 -22 -4t-15 -15t-9 -31t-3 -51q0 -32 3 -51.5t9 -30t15 -14.5t22 -4q12 0 21 4t15 14.5t9 30
t3 51.5z" />
    <glyph glyph-name="one.numr" horiz-adv-x="293" 
d="M246 356h-131v252l-76 -40l-11 102l135 81h83v-395z" />
    <glyph glyph-name="two.numr" horiz-adv-x="385" 
d="M355 629q0 -26 -10.5 -47.5t-29.5 -41t-46 -38t-60 -39.5v-3h144l-2 -104h-313v81q41 35 74 61.5t56.5 47.5t36.5 38t13 34q0 14 -11.5 23t-39.5 9q-29 0 -54 -9t-54 -25l-30 99q32 20 73 30.5t90 10.5q85 0 124 -36.5t39 -90.5z" />
    <glyph glyph-name="three.numr" horiz-adv-x="385" 
d="M363 474q0 -59 -43.5 -91t-138.5 -32q-43 0 -81 8.5t-65 24.5l27 94q28 -14 57 -21.5t61 -7.5q57 0 57 32q0 7 -3.5 13t-14 10.5t-30.5 7t-54 2.5v84q32 0 51.5 2t30 6t14 10t3.5 13q0 11 -11.5 18t-42.5 7q-35 0 -63 -7.5t-55 -24.5l-30 93q30 19 70.5 30t82.5 11
q82 0 126 -31.5t44 -85.5t-54 -80v-2q29 -11 45.5 -31t16.5 -52z" />
    <glyph glyph-name="four.numr" horiz-adv-x="393" 
d="M346 420v-64h-121v64h-203l-10 72l178 258h156v-230h37l-3 -100h-34zM237 638l-6 1l-31 -52l-45 -64l1 -3h73z" />
    <glyph glyph-name="five.numr" horiz-adv-x="393" 
d="M367 493q0 -31 -9.5 -57t-30.5 -45t-54.5 -29.5t-81.5 -10.5q-39 0 -78 6t-73 21l19 95q32 -11 59 -17t63 -6q35 0 46 9t11 24q0 28 -57 28q-21 0 -44 -1.5t-42 -4.5l-49 42l22 203h273l4 -106h-175l-3 -36q11 1 22.5 1.5t25.5 0.5q72 0 112 -30t40 -87z" />
    <glyph glyph-name="six.numr" horiz-adv-x="393" 
d="M374 495q0 -72 -45 -108t-126 -36q-88 0 -135.5 48t-47.5 148q0 97 53 153t157 56q34 0 62 -4t54 -13l-7 -99q-23 7 -43.5 9.5t-46.5 2.5q-44 0 -66 -12.5t-31 -36.5l2 -2q31 14 69 14q73 0 112 -30t39 -90zM245 495q0 14 -10 22.5t-34 8.5q-9 0 -24.5 -3t-22.5 -11
q1 -33 12 -47t39 -14q40 0 40 44z" />
    <glyph glyph-name="seven.numr" horiz-adv-x="393" 
d="M370 643l-157 -287h-151l128 212l43 66l-2 2h-212l7 114h344v-107z" />
    <glyph glyph-name="eight.numr" horiz-adv-x="393" 
d="M18 477q0 23 12 45.5t38 38.5q-15 14 -24 34t-9 49q0 52 38.5 82t123.5 30q86 0 124 -31t38 -81q0 -23 -9.5 -42t-25.5 -33q23 -14 37 -35.5t14 -55.5q0 -62 -43.5 -95t-134.5 -33q-94 0 -136.5 33.5t-42.5 93.5zM246 468q0 17 -23.5 26t-55.5 19q-10 -8 -16.5 -17
t-6.5 -19q0 -19 13.5 -26.5t42.5 -7.5q20 0 33 5.5t13 19.5zM157 639q0 -15 19 -22.5t47 -13.5q18 13 18 29q0 14 -9.5 22.5t-35.5 8.5q-39 0 -39 -24z" />
    <glyph glyph-name="nine.numr" horiz-adv-x="393" 
d="M372 567q0 -110 -50.5 -163t-152.5 -53q-44 0 -72.5 5.5t-54.5 14.5l19 98q24 -8 47 -13t51 -5q44 0 66 16t28 46l-2 2q-32 -21 -78 -21q-41 0 -70 9t-47.5 25.5t-27 39t-8.5 48.5q0 60 41 100t129 40q95 0 138.5 -49t43.5 -140zM241 602q0 31 -12 42.5t-41 11.5
q-23 0 -33 -8t-10 -27q0 -18 9 -27t37 -9q19 0 32 5.5t18 11.5z" />
    <glyph glyph-name="equal.numr" horiz-adv-x="394" 
d="M53 579v94h289v-94h-289zM53 440v94h289v-94h-289z" />
    <glyph glyph-name="cent.numr" horiz-adv-x="345" 
d="M317 631q-16 5 -33.5 7.5t-34.5 2.5q-53 0 -71.5 -19t-18.5 -65q0 -45 23 -66t65 -21q20 0 38 3.5t35 8.5l8 -89q-27 -17 -70 -21l-6 -68h-101l6 72q-66 14 -99.5 60t-33.5 121q0 77 36.5 126t118.5 59l8 72h101l-7 -74q12 -2 22.5 -5t19.5 -6z" />
    <glyph glyph-name="minus.numr" horiz-adv-x="394" 
d="M42 507v105h302v-105h-302z" />
    <glyph glyph-name="dollar.dnom" horiz-adv-x="345" 
d="M258 458l-7 -72q17 -2 33 -6t31 -9l-14 -98q-31 8 -53 11.5t-46 3.5q-34 0 -43 -5t-9 -12q0 -9 13.5 -13.5t33 -8.5t43 -10.5t43 -19.5t33 -34t13.5 -54q0 -47 -26.5 -79t-78.5 -43l-5 -61h-98l4 58q-26 4 -49.5 10.5t-44.5 17.5l15 101q32 -15 57.5 -23t57.5 -8
q26 0 37.5 5t11.5 14q0 8 -13 12.5t-33 9t-43 11t-43 19.5t-33 34t-13 55q0 22 6.5 42t21 36.5t37.5 28.5t56 17l7 70h98z" />
    <glyph glyph-name="parenleft.dnom" horiz-adv-x="227" 
d="M230 415q-32 -49 -48 -108.5t-16 -125.5q0 -65 16 -124.5t48 -108.5l-84 -9q-51 45 -74 107.5t-23 134.5q0 73 23 135t74 107z" />
    <glyph glyph-name="parenright.dnom" horiz-adv-x="227" 
d="M81 423q50 -45 73 -107t23 -135q0 -72 -23 -134.5t-73 -107.5l-86 9q33 49 49 108.5t16 124.5q0 66 -15.5 125.5t-49.5 108.5z" />
    <glyph glyph-name="plus.dnom" horiz-adv-x="394" 
d="M251 143v-102h-110v102h-102v111h102v102h110v-102h103v-111h-103z" />
    <glyph glyph-name="comma.dnom" horiz-adv-x="182" 
d="M87 111q36 0 52 -17t16 -47q0 -15 -5.5 -33t-14.5 -36t-20.5 -34t-23.5 -28l-46 9l16 67q-14 7 -26.5 21t-12.5 34q0 29 15 46.5t50 17.5z" />
    <glyph glyph-name="period.dnom" horiz-adv-x="182" 
d="M160 53q0 -29 -15.5 -45t-53.5 -16q-37 0 -53 13t-16 48q0 30 16 46t53 16q38 0 53.5 -16t15.5 -46z" />
    <glyph glyph-name="zero.dnom" horiz-adv-x="393" 
d="M374 195q0 -100 -41.5 -150t-135.5 -50t-135.5 50t-41.5 150q0 107 41.5 155.5t135.5 48.5t135.5 -48.5t41.5 -155.5zM245 196q0 32 -3 51.5t-9 30.5t-15 15t-21 4q-13 0 -22 -4t-15 -15t-9 -31t-3 -51q0 -32 3 -51.5t9 -30t15 -14.5t22 -4q12 0 21 4t15 14.5t9 30
t3 51.5z" />
    <glyph glyph-name="one.dnom" horiz-adv-x="293" 
d="M246 0h-131v252l-76 -40l-11 102l135 81h83v-395z" />
    <glyph glyph-name="two.dnom" horiz-adv-x="385" 
d="M355 273q0 -26 -10.5 -47.5t-29.5 -41t-46 -38t-60 -39.5v-3h144l-2 -104h-313v81q41 35 74 61.5t56.5 47.5t36.5 38t13 34q0 14 -11.5 23t-39.5 9q-29 0 -54 -9t-54 -25l-30 99q32 20 73 30.5t90 10.5q85 0 124 -36.5t39 -90.5z" />
    <glyph glyph-name="three.dnom" horiz-adv-x="385" 
d="M363 118q0 -59 -43.5 -91t-138.5 -32q-43 0 -81 8.5t-65 24.5l27 94q28 -14 57 -21.5t61 -7.5q57 0 57 32q0 7 -3.5 13t-14 10.5t-30.5 7t-54 2.5v84q32 0 51.5 2t30 6t14 10t3.5 13q0 11 -11.5 18t-42.5 7q-35 0 -63 -7.5t-55 -24.5l-30 93q30 19 70.5 30t82.5 11
q82 0 126 -31.5t44 -85.5t-54 -80v-2q29 -11 45.5 -31t16.5 -52z" />
    <glyph glyph-name="four.dnom" horiz-adv-x="393" 
d="M346 64v-64h-121v64h-203l-10 72l178 258h156v-230h37l-3 -100h-34zM237 282l-6 1l-31 -52l-45 -64l1 -3h73z" />
    <glyph glyph-name="five.dnom" horiz-adv-x="393" 
d="M367 137q0 -31 -9.5 -57t-30.5 -45t-54.5 -29.5t-81.5 -10.5q-39 0 -78 6t-73 21l19 95q32 -11 59 -17t63 -6q35 0 46 9t11 24q0 28 -57 28q-21 0 -44 -1.5t-42 -4.5l-49 42l22 203h273l4 -106h-175l-3 -36q11 1 22.5 1.5t25.5 0.5q72 0 112 -30t40 -87z" />
    <glyph glyph-name="six.dnom" horiz-adv-x="393" 
d="M374 139q0 -72 -45 -108t-126 -36q-88 0 -135.5 48t-47.5 148q0 97 53 153t157 56q34 0 62 -4t54 -13l-7 -99q-23 7 -43.5 9.5t-46.5 2.5q-44 0 -66 -12.5t-31 -36.5l2 -2q31 14 69 14q73 0 112 -30t39 -90zM245 139q0 14 -10 22.5t-34 8.5q-9 0 -24.5 -3t-22.5 -11
q1 -33 12 -47t39 -14q40 0 40 44z" />
    <glyph glyph-name="seven.dnom" horiz-adv-x="393" 
d="M370 287l-157 -287h-151l128 212l43 66l-2 2h-212l7 114h344v-107z" />
    <glyph glyph-name="eight.dnom" horiz-adv-x="393" 
d="M18 121q0 23 12 45.5t38 38.5q-15 14 -24 34t-9 49q0 52 38.5 82t123.5 30q86 0 124 -31t38 -81q0 -23 -9.5 -42t-25.5 -33q23 -14 37 -35.5t14 -55.5q0 -62 -43.5 -95t-134.5 -33q-94 0 -136.5 33.5t-42.5 93.5zM246 112q0 17 -23.5 26t-55.5 19q-10 -8 -16.5 -17
t-6.5 -19q0 -19 13.5 -26.5t42.5 -7.5q20 0 33 5.5t13 19.5zM157 283q0 -15 19 -22.5t47 -13.5q18 13 18 29q0 14 -9.5 22.5t-35.5 8.5q-39 0 -39 -24z" />
    <glyph glyph-name="nine.dnom" horiz-adv-x="393" 
d="M372 211q0 -110 -50.5 -163t-152.5 -53q-44 0 -72.5 5.5t-54.5 14.5l19 98q24 -8 47 -13t51 -5q44 0 66 16t28 46l-2 2q-32 -21 -78 -21q-41 0 -70 9t-47.5 25.5t-27 39t-8.5 48.5q0 60 41 100t129 40q95 0 138.5 -49t43.5 -140zM241 246q0 31 -12 42.5t-41 11.5
q-23 0 -33 -8t-10 -27q0 -18 9 -27t37 -9q19 0 32 5.5t18 11.5z" />
    <glyph glyph-name="equal.dnom" horiz-adv-x="394" 
d="M53 223v94h289v-94h-289zM53 84v94h289v-94h-289z" />
    <glyph glyph-name="cent.dnom" horiz-adv-x="345" 
d="M317 275q-16 5 -33.5 7.5t-34.5 2.5q-53 0 -71.5 -19t-18.5 -65q0 -45 23 -66t65 -21q20 0 38 3.5t35 8.5l8 -89q-27 -17 -70 -21l-6 -68h-101l6 72q-66 14 -99.5 60t-33.5 121q0 77 36.5 126t118.5 59l8 72h101l-7 -74q12 -2 22.5 -5t19.5 -6z" />
    <glyph glyph-name="minus.dnom" horiz-adv-x="394" 
d="M42 151v105h302v-105h-302z" />
    <glyph glyph-name="numbersign.osf" horiz-adv-x="605" 
d="M105 272l18 102h-94v128h112l23 147h148l-23 -147h80l23 147h145l-23 -147h61v-128h-79l-16 -102h95l1 -129h-114l-23 -143h-144l22 143h-83l-22 -143h-147l22 143h-59v129h77zM254 272h80l17 102h-80z" />
    <glyph glyph-name="dollar.osf" horiz-adv-x="501" 
d="M477 198q0 -77 -38.5 -131t-123.5 -71l-9 -116h-148l8 112q-73 8 -127 34l19 152q19 -10 42 -17.5t46 -12t45.5 -7t40.5 -2.5q35 0 51 11.5t16 30.5t-20 29.5t-49.5 19.5t-64 20t-64 31.5t-49.5 54t-20 88.5q0 72 42.5 124.5t132.5 67.5l10 113h147l-10 -114
q55 -9 99 -27l-14 -150q-19 7 -41.5 12.5t-45 9.5t-43.5 5.5t-37 1.5q-56 0 -56 -35q0 -18 19.5 -28t48.5 -18.5t62.5 -19.5t62.5 -31t48.5 -52.5t19.5 -84.5z" />
    <glyph glyph-name="zero.osf" horiz-adv-x="612" 
d="M584 322q0 -168 -66.5 -250t-212.5 -82q-147 0 -211.5 82.5t-64.5 249.5q0 88 15.5 152t49.5 105t86.5 60.5t126.5 19.5q72 0 124.5 -19.5t86.5 -60.5t50 -105t16 -152zM389 323q0 55 -5 89t-15.5 53t-26 25.5t-35.5 6.5q-22 0 -38 -7t-26.5 -26t-15.5 -53t-5 -88
q0 -57 5 -91t15.5 -52.5t26.5 -24.5t38 -6q21 0 36 6.5t25.5 25t15.5 52.5t5 90z" />
    <glyph glyph-name="one.osf" horiz-adv-x="454" 
d="M378 0h-199v430l-116 -62l-19 153l214 128h120v-649z" />
    <glyph glyph-name="two.osf" horiz-adv-x="570" 
d="M537 456q0 -44 -16.5 -81t-47 -72.5t-74 -70t-97.5 -73.5v-3h233l-4 -156h-484v121q64 57 117 102.5t91 83.5t59.5 70t21.5 62q0 26 -20 42t-67 16q-45 0 -85.5 -14.5t-82.5 -39.5l-46 147q49 31 112 49.5t138 18.5q65 0 112.5 -15.5t78.5 -42.5t46 -64t15 -80z" />
    <glyph glyph-name="three.osf" horiz-adv-x="564" 
d="M531 182q0 -141 -111.5 -213.5t-315.5 -76.5l-17 150q73 2 122.5 13.5t79.5 29.5t42.5 42t12.5 50q0 32 -21.5 51t-76.5 20q-31 0 -62 -7l-9 127q48 5 78.5 11.5t48 15.5t24.5 21t7 28q0 23 -19.5 39t-73.5 16q-51 0 -92 -13t-81 -39l-42 148q42 29 102.5 47t125.5 18
q63 0 111 -14.5t80.5 -40t49 -60t16.5 -75.5q0 -45 -17 -80.5t-52 -59.5q90 -45 90 -148z" />
    <glyph glyph-name="four.osf" horiz-adv-x="609" 
d="M529 56v-157l-180 -9v166h-317l-16 122l289 481l224 -13v-441h63l-4 -149h-59zM365 410l5 81l-2 1l-162 -287h150z" />
    <glyph glyph-name="five.osf" horiz-adv-x="559" 
d="M533 187q0 -68 -27 -122.5t-81 -92.5t-135 -58.5t-189 -20.5l-18 156q68 0 116.5 9t80 25t46 38t14.5 48q0 28 -24 44t-78 16q-33 0 -67.5 -6t-63.5 -15l-64 74l30 368h420l7 -172h-271l-7 -99q19 3 38 5t40 2q108 0 170.5 -51t62.5 -148z" />
    <glyph glyph-name="six.osf" horiz-adv-x="597" 
d="M571 265q0 -72 -18.5 -123.5t-52.5 -85.5t-83 -50t-109 -16q-134 0 -208 81t-74 251q0 108 36.5 189t96 135t136 81.5t156.5 28.5l29 -158q-108 -1 -169.5 -41t-83.5 -100l2 -2q25 13 53 20.5t60 7.5q112 0 170.5 -55.5t58.5 -162.5zM380 264q0 37 -17.5 55.5t-58.5 18.5
q-19 0 -43 -8.5t-35 -23.5q0 -45 5 -74.5t15 -47t25.5 -24t37.5 -6.5q32 0 51.5 25t19.5 85z" />
    <glyph glyph-name="seven.osf" horiz-adv-x="569" 
d="M538 492l-249 -585h-218l263 566h-306l11 176h499v-157z" />
    <glyph glyph-name="eight.osf" horiz-adv-x="613" 
d="M26 195q0 40 21.5 78t63.5 65q-26 23 -42 56.5t-16 82.5q0 85 61 133t193 48q67 0 115 -13t78.5 -37t45 -57.5t14.5 -74.5q0 -42 -16.5 -74t-44.5 -56q38 -22 63 -57.5t25 -94.5q0 -101 -69 -153.5t-211 -52.5q-146 0 -213.5 53.5t-67.5 153.5zM392 184q0 17 -10.5 28.5
t-28.5 20.5t-42 16.5t-50 15.5q-19 -13 -32 -29.5t-13 -37.5q0 -35 23.5 -50.5t72.5 -15.5q36 0 58 11.5t22 40.5zM237 468q0 -29 32 -43t79 -26q17 12 27 26t10 33q0 29 -17.5 43.5t-62.5 14.5q-68 0 -68 -48z" />
    <glyph glyph-name="nine.osf" horiz-adv-x="592" 
d="M566 349q0 -123 -34 -209.5t-92.5 -140.5t-136.5 -79t-167 -25l-19 154q45 1 85 10t72 27t54.5 45.5t33.5 65.5l-2 2q-44 -26 -111 -26q-50 0 -91 14t-70 43t-45.5 72.5t-16.5 103.5q0 118 67 185.5t201 67.5t203 -78.5t69 -231.5zM371 369q0 37 -5 61t-15 38.5t-25 20
t-36 5.5q-35 0 -53 -19t-18 -64q0 -44 16.5 -62.5t58.5 -18.5q61 0 77 39z" />
    <glyph glyph-name="cent.osf" horiz-adv-x="495" 
d="M452 441q-22 6 -46 10.5t-47 4.5q-39 0 -64.5 -8t-40.5 -26t-21.5 -47.5t-6.5 -72.5q0 -83 34 -119.5t95 -36.5q28 0 53 5t47 13l13 -144q-38 -22 -101 -29l-8 -111h-148l9 118q-96 23 -145 99t-49 205q0 133 53.5 215t172.5 99l10 113h148l-10 -116q17 -3 33 -7t29 -9z
" />
    <glyph glyph-name="sterling.osf" horiz-adv-x="586" 
d="M38 386h41q-5 17 -8.5 33.5t-3.5 34.5q0 39 14 76.5t47.5 66t90 46t140.5 17.5q56 0 97.5 -7t77.5 -17l-23 -151q-29 8 -63.5 13t-69.5 5q-65 0 -89.5 -18t-24.5 -48q0 -14 2 -26.5t5 -24.5h223v-133h-193q1 -5 1 -13q0 -62 -45 -92l2 -3q37 9 77 12.5t76 3.5
q42 0 77.5 -3t69.5 -9l-9 -156q-58 7 -116.5 10t-118.5 3q-33 0 -64.5 -0.5t-63.5 -1.5t-66.5 -3t-74.5 -5l-6 154q38 4 57.5 27.5t19.5 51.5q0 6 -0.5 12t-1.5 12h-70z" />
    <glyph glyph-name="currency.osf" horiz-adv-x="605" 
d="M101 324q0 48 20 90l-71 73l97 99l75 -76q37 17 80 17q41 0 80 -17l76 77l97 -100l-72 -73q10 -20 15.5 -43t5.5 -47q0 -41 -16 -79l66 -67l-97 -100l-64 64q-42 -21 -91 -21q-50 0 -92 21l-64 -64l-96 100l66 67q-15 36 -15 79zM223 327q0 -32 23 -54.5t56 -22.5
t55.5 22.5t22.5 54.5t-22.5 54.5t-55.5 22.5t-56 -22.5t-23 -54.5z" />
    <glyph glyph-name="yen.osf" horiz-adv-x="605" 
d="M159 314l-159 335h209l93 -304h3l21 77l70 227h205l-155 -335h83v-87h-122v-34h122v-86h-122v-107h-208v107h-115v86h115v34h-115v87h75z" />
    <glyph glyph-name="franc.osf" horiz-adv-x="605" 
d="M83 184v465h481l4 -162h-293v-91h215l-2 -151h-213v-61h62v-117h-62v-67h-192v67h-53v117h53z" />
    <glyph glyph-name="lira.osf" horiz-adv-x="605" 
d="M46 418h26q-3 16 -3 35q0 40 14 77t48.5 66t91 46.5t142.5 17.5q56 0 98 -7t79 -18l-23 -151q-29 8 -64.5 13.5t-70.5 5.5q-67 0 -92 -18.5t-25 -48.5v-9q0 -4 1 -9h233v-83h-211l9 -31h202v-82h-196q-6 -49 -45 -74l2 -3q38 9 78 12.5t77 3.5q43 0 79.5 -3t71.5 -8
l-10 -157q-59 7 -118 10t-119 3q-34 0 -66 -0.5t-64 -1.5t-67 -3t-75 -5l-7 154q36 3 55.5 24.5t21.5 47.5h-58l-6 82h54l-10 31h-45z" />
    <glyph glyph-name="peseta.osf" horiz-adv-x="605" 
d="M277 442q0 -60 -6 -99t-21.5 -61.5t-42 -31.5t-66.5 -9h-16v-241h-104v649h119q38 0 64.5 -8.5t42.5 -32t23 -63.5t7 -103zM393 315v-211q0 -15 16 -15q3 0 5.5 0.5t5.5 1.5l1 -90q-5 -3 -16.5 -5.5t-22.5 -2.5q-38 0 -59.5 26.5t-21.5 83.5v212h-15v90h19l17 85l69 11
v-96h36v-90h-34zM593 123q0 -68 -24.5 -99.5t-74.5 -31.5q-15 0 -29.5 3t-25.5 9l2 96q10 -5 20 -7.5t23 -2.5q24 0 24 32q0 15 -11.5 25t-25.5 25t-25.5 39.5t-11.5 68.5q0 22 5.5 45t17.5 42t30 30.5t43 11.5q18 0 31.5 -4.5t21.5 -10.5l-5 -99q-18 9 -39 9q-11 0 -15 -7
t-4 -16q0 -17 11.5 -27t25 -25t25 -39t11.5 -67zM171 442q0 30 -1.5 47t-4.5 26t-9 11.5t-15 2.5h-16v-175h16q8 0 14 2t9.5 11t5 26.5t1.5 48.5z" />
    <glyph glyph-name="Euro.osf" horiz-adv-x="605" 
d="M533 481q-20 7 -45.5 11t-48.5 4q-61 0 -95.5 -16t-50.5 -51h223l-29 -89h-211v-33h201l-29 -85h-153q20 -40 55 -58.5t85 -18.5q35 0 63.5 6.5t55.5 17.5l6 -142q-31 -18 -75.5 -28.5t-104.5 -10.5q-134 0 -213.5 59.5t-103.5 174.5h-40v85h31v33h-31v89h41
q23 108 101.5 169t222.5 61q52 0 104 -9t87 -24z" />
    <glyph glyph-name="numbersign.lf" horiz-adv-x="626" 
d="M115 308l21 126h-109v140h129l27 176h154l-27 -176h67l27 176h150l-27 -176h72v-140h-92l-21 -126h112l1 -143h-133l-25 -165h-150l25 165h-68l-26 -165h-153l25 165h-67v143h88zM269 308h68l21 126h-68z" />
    <glyph glyph-name="dollar.lf" horiz-adv-x="586" 
d="M173 -70l10 63q-43 5 -82 15.5t-68 25.5q7 46 11.5 85t12.5 87q35 -18 74 -31.5t79 -21.5l24 142q-37 13 -73.5 31.5t-65.5 46t-47 66t-18 92.5q0 111 69.5 169.5t212.5 61.5l11 64l114 -10l-11 -62q27 -4 51 -9.5t42 -13.5l-10 -166q-26 7 -55 12t-58 9l-23 -129
q34 -12 67.5 -29.5t59.5 -44t42.5 -64t16.5 -90.5q0 -122 -65 -181.5t-206 -61.5l-11 -65zM401 203q0 19 -17.5 32t-46.5 24l-20 -114q46 3 65 18.5t19 39.5zM206 540q0 -17 16.5 -28.5t43.5 -21.5l17 101q-44 -2 -60.5 -16.5t-16.5 -34.5z" />
    <glyph glyph-name="zero.lf" horiz-adv-x="621" 
d="M595 371q0 -198 -69 -289.5t-217 -91.5q-75 0 -129 22.5t-88 69t-50 118.5t-16 171q0 105 16 179t50.5 120t88.5 67t130 21q74 0 128 -21t88.5 -67t51 -120t16.5 -179zM395 373q0 70 -5 112.5t-15.5 65t-26.5 29.5t-37 7q-23 0 -39 -7.5t-27 -30.5t-16 -65t-5 -111
q0 -72 5 -115t16 -65.5t27 -29t39 -6.5q22 0 37.5 7.5t26 30t15.5 65t5 113.5z" />
    <glyph glyph-name="one.lf" horiz-adv-x="469" 
d="M399 0h-209v513l-122 -67l-20 161l228 143h123v-750z" />
    <glyph glyph-name="two.lf" horiz-adv-x="603" 
d="M563 533q0 -48 -18.5 -91.5t-52.5 -86.5t-81.5 -87t-104.5 -92v-3h253l-4 -173h-507v128q64 66 120 120.5t96.5 101.5t64 87t23.5 76q0 33 -22 51.5t-71 18.5q-47 0 -89 -17t-84 -44l-48 160q50 35 114.5 56t145.5 21q67 0 117 -16.5t83 -46.5t49 -71.5t16 -91.5z" />
    <glyph glyph-name="three.lf" horiz-adv-x="603" 
d="M571 226q0 -109 -73 -172.5t-229 -63.5q-68 0 -126.5 15.5t-101.5 40.5l37 153q45 -22 89.5 -34t95.5 -12q54 0 81.5 20.5t27.5 58.5q0 18 -6.5 33t-25.5 26t-53.5 17t-89.5 6v140q53 0 86 5t51.5 15t25 24t6.5 32q0 27 -22.5 43.5t-76.5 16.5t-99.5 -16t-85.5 -45
l-46 154q46 34 110.5 55t134.5 21q131 0 202.5 -57.5t71.5 -157.5q0 -105 -94 -155v-2q53 -22 81.5 -61.5t28.5 -99.5z" />
    <glyph glyph-name="four.lf" horiz-adv-x="634" 
d="M548 132v-132h-188v132h-322l-17 123l285 495h242v-454h66l-4 -164h-62zM373 478l5 81l-2 1l-39 -72l-105 -192h135z" />
    <glyph glyph-name="five.lf" horiz-adv-x="589" 
d="M563 260q0 -62 -16.5 -112t-51.5 -85t-89.5 -54t-131.5 -19q-65 0 -126 13.5t-112 41.5l36 154q46 -22 87 -33.5t95 -11.5q32 0 52.5 5.5t32.5 17t17 28t5 38.5q0 42 -26 59.5t-80 17.5q-32 0 -69.5 -5.5t-67.5 -14.5l-70 75l31 375h440l7 -173h-286l-7 -104q39 6 83 6
q118 0 182.5 -55t64.5 -164z" />
    <glyph glyph-name="six.lf" horiz-adv-x="615" 
d="M593 266q0 -71 -19 -123t-54 -86t-86 -50.5t-114 -16.5q-71 0 -125.5 20t-92 64.5t-57 115t-19.5 171.5q0 191 86 295t255 104q52 0 95.5 -6.5t84.5 -21.5l-13 -167q-35 12 -69 17.5t-72 5.5q-80 0 -118 -31t-49 -93l2 -2q56 31 126 31q117 0 178 -56t61 -171zM394 269
q0 38 -18 57t-61 19q-9 0 -21 -2.5t-24 -7t-22 -10.5t-16 -14q0 -47 5 -77t15.5 -47.5t27 -24.5t39.5 -7q36 0 55.5 26t19.5 88z" />
    <glyph glyph-name="seven.lf" horiz-adv-x="615" 
d="M585 583l-258 -583h-229l290 567h-360l9 183h548v-167z" />
    <glyph glyph-name="eight.lf" horiz-adv-x="621" 
d="M26 226q0 46 22.5 90t67.5 75q-29 27 -46.5 66t-17.5 97q0 95 63 150.5t197 55.5q68 0 117 -14.5t80.5 -41.5t46 -65t14.5 -85q0 -48 -18.5 -86.5t-50.5 -66.5q41 -25 67.5 -66t26.5 -110q0 -235 -283 -235q-147 0 -216.5 61t-69.5 175zM399 211q0 21 -10.5 35.5
t-28.5 26t-41.5 20.5t-49.5 18q-21 -17 -34.5 -38.5t-13.5 -47.5q0 -46 23.5 -64t72.5 -18q37 0 59.5 14.5t22.5 53.5zM240 545q0 -18 8.5 -31.5t22.5 -23.5t33.5 -17.5t42.5 -14.5q21 16 32.5 34.5t11.5 44.5q0 35 -19 51.5t-62 16.5q-35 0 -52.5 -14t-17.5 -46z" />
    <glyph glyph-name="nine.lf" horiz-adv-x="618" 
d="M592 401q0 -216 -82 -313.5t-247 -97.5q-67 0 -112.5 9t-87.5 27l29 160q37 -14 73 -22t79 -8q74 0 107 33.5t41 104.5l-2 2q-51 -29 -128 -29q-59 0 -103 17t-73.5 47.5t-44.5 73.5t-15 95q0 60 16.5 108t51 81.5t86 52t122.5 18.5q139 0 214.5 -89t75.5 -270zM390 461
q0 39 -6.5 65t-18.5 41.5t-29 21.5t-38 6q-38 0 -58 -20t-20 -67q0 -45 18.5 -66t64.5 -21q32 0 54.5 10.5t32.5 29.5z" />
    <glyph glyph-name="cent.lf" horiz-adv-x="636" 
d="M505 441q-22 6 -46 10.5t-47 4.5q-39 0 -64.5 -8t-40.5 -26t-21.5 -47.5t-6.5 -72.5q0 -83 34 -119.5t95 -36.5q28 0 53 5t47 13l13 -144q-41 -23 -109 -30l-8 -110h-148l9 120q-92 26 -139 101t-47 201q0 131 52 212t166 101l10 114h148l-10 -115q41 -6 70 -17z" />
    <glyph glyph-name="sterling.lf" horiz-adv-x="617" 
d="M31 443h46q-8 22 -13 44t-5 46q0 45 16 86.5t52.5 74t97.5 51.5t151 19q60 0 105 -8.5t82 -19.5l-24 -170q-30 9 -66.5 15t-73.5 6q-71 0 -98.5 -21.5t-27.5 -56.5q0 -33 11 -66h240v-147h-205q1 -5 1 -9v-9q0 -74 -57 -111l2 -3q40 10 83 14t84 4q46 0 84 -3t76 -9
q0 -1 -1 -14t-1.5 -32.5t-1.5 -42t-2 -42t-2 -33t-2 -14.5q-125 15 -250 15q-37 0 -71 -0.5t-69 -2t-72.5 -3.5t-80.5 -6l-9 174q21 3 38 12t28.5 22.5t18 30t6.5 33.5q0 8 -0.5 14.5t-1.5 14.5h-80z" />
    <glyph glyph-name="currency.lf" horiz-adv-x="621" 
d="M105 365q0 25 5.5 48t15.5 44l-73 74l99 102l77 -78q39 17 82 17q42 0 81 -17l78 78l99 -102l-74 -75q21 -41 21 -91q0 -41 -16 -81l68 -68l-99 -102l-66 66q-42 -22 -92 -22t-94 22l-66 -67l-99 103l68 68q-15 37 -15 81zM229 368q0 -33 23.5 -56t57.5 -23t57.5 23
t23.5 56t-23.5 56.5t-57.5 23.5t-57.5 -23.5t-23.5 -56.5z" />
    <glyph glyph-name="yen.lf" horiz-adv-x="713" 
d="M199 376l-178 374h235l82 -293l20 -78h3l19 78l82 293h230l-173 -374h93v-99h-137v-37h137v-99h-137v-141h-231v141h-130v99h130v37h-130v99h85z" />
    <glyph glyph-name="franc.lf" horiz-adv-x="618" 
d="M67 212v538h515l3 -181h-309v-113h228l-2 -171h-226v-73h67v-133h-67v-79h-209v79h-58v133h58z" />
    <glyph glyph-name="lira.lf" horiz-adv-x="628" 
d="M41 485h26q-5 25 -5 48q0 45 16 86.5t52.5 74t97 51.5t150.5 19q61 0 105.5 -8.5t81.5 -19.5l-24 -170q-29 9 -65.5 15t-74.5 6q-35 0 -59 -6.5t-38.5 -18t-21 -27t-6.5 -33.5v-17h254v-98h-226l9 -35h217v-96h-210q-4 -29 -17.5 -51.5t-36.5 -36.5l2 -3q40 10 82.5 13.5
t83.5 3.5q46 0 84 -3t76 -9q0 -1 -0.5 -14t-1.5 -32.5t-2 -42t-2 -42t-2 -33t-1 -14.5q-126 15 -251 15q-36 0 -70.5 -0.5t-69.5 -2t-72 -3.5t-80 -6l-9 174q38 5 61.5 30t27.5 57h-65l-6 96h60q-2 9 -5 17.5t-6 17.5h-50z" />
    <glyph glyph-name="peseta.lf" horiz-adv-x="854" 
d="M397 505q0 -63 -10.5 -108.5t-34.5 -74.5t-61.5 -42.5t-91.5 -13.5h-21v-266h-139v750h160q52 0 89.5 -12.5t61.5 -41.5t35.5 -75.5t11.5 -115.5zM553 351v-222q0 -20 22 -20q10 0 15 1l3 -108q-6 -5 -21.5 -8t-31.5 -3q-54 0 -81.5 35.5t-27.5 100.5v224h-21v107h27
l20 95l96 12v-107h46v-107h-46zM835 142q0 -75 -32.5 -114.5t-100.5 -39.5q-21 0 -43 5t-37 15l4 119q14 -7 31 -11.5t36 -4.5q17 0 24.5 8t7.5 19q0 17 -17.5 26.5t-39 25t-39 43.5t-17.5 82q0 27 7.5 53.5t23.5 47.5t40.5 34t57.5 13q24 0 44 -6t33 -15l-8 -116
q-14 7 -30.5 10t-30.5 3t-19 -5t-5 -16q0 -17 17 -27t38 -25.5t38 -43.5t17 -80zM250 504q0 32 -2 51.5t-7.5 30.5t-15.5 15t-26 4h-21v-201h21q14 0 24 3t16 13.5t8.5 30.5t2.5 53z" />
    <glyph glyph-name="Euro.lf" horiz-adv-x="593" 
d="M455 255h-161q16 -62 55 -86t97 -24q28 0 55 6.5t52 16.5l14 -142q-34 -17 -76 -26.5t-96 -9.5q-128 0 -204 65t-99 200h-77l1 95h66v36h-66l-1 100h76q12 61 38.5 111t66 84.5t92 53.5t115.5 19q51 0 91 -7.5t72 -20.5l-35 -155q-37 14 -83 14q-63 0 -99 -23.5
t-53 -75.5h212l-21 -100h-205v-36h194z" />
    <glyph glyph-name="numbersign.tosf" horiz-adv-x="605" 
d="M105 272l18 102h-94v128h112l23 147h148l-23 -147h80l23 147h145l-23 -147h61v-128h-79l-16 -102h95l1 -129h-114l-23 -143h-144l22 143h-83l-22 -143h-147l22 143h-59v129h77zM254 272h80l17 102h-80z" />
    <glyph glyph-name="dollar.tosf" horiz-adv-x="605" 
d="M561 203q0 -39 -11 -74t-35.5 -62.5t-62.5 -46.5t-92 -27l-11 -118h-159l10 117q-42 5 -78 13.5t-71 23.5l25 160q24 -12 52.5 -20.5t57 -14t55.5 -8t48 -2.5q38 0 53 11t15 28q0 18 -23 26.5t-57.5 15.5t-75 17t-75 30.5t-57.5 55.5t-23 93q0 77 48 129t150 67l12 122
h159l-12 -121q35 -5 68 -12.5t65 -18.5l-17 -160q-47 17 -97.5 25t-96.5 8q-38 0 -53.5 -8t-15.5 -23q0 -18 22.5 -26t56.5 -15.5t73.5 -16.5t73.5 -28.5t56.5 -52.5t22.5 -87z" />
    <glyph glyph-name="zero.tosf" horiz-adv-x="605" 
d="M580 322q0 -168 -66.5 -250t-212.5 -82q-147 0 -211.5 82.5t-64.5 249.5q0 88 15.5 152t49.5 105t86.5 60.5t126.5 19.5q72 0 124.5 -19.5t86.5 -60.5t50 -105t16 -152zM385 323q0 55 -5 89t-15.5 53t-26 25.5t-35.5 6.5q-22 0 -38 -7t-26.5 -26t-16 -53t-5.5 -88
q0 -57 5.5 -91t16 -52.5t26.5 -24.5t38 -6q21 0 36 6.5t25.5 25t15.5 52.5t5 90z" />
    <glyph glyph-name="one.tosf" horiz-adv-x="605" 
d="M118 109h116v323l-131 -68l-18 152l227 133h120v-540h118v-109h-432v109z" />
    <glyph glyph-name="two.tosf" horiz-adv-x="605" 
d="M553 456q0 -44 -16.5 -81t-47 -72.5t-74 -70t-98.5 -73.5v-3h234l-4 -156h-484v121q63 57 116.5 102.5t91.5 83.5t59.5 70t21.5 62q0 26 -20.5 42t-66.5 16q-45 0 -85.5 -14.5t-82.5 -39.5l-46 147q49 31 112 49.5t138 18.5q65 0 112.5 -15.5t78.5 -42.5t46 -64t15 -80z
" />
    <glyph glyph-name="three.tosf" horiz-adv-x="605" 
d="M555 182q0 -141 -111.5 -213.5t-315.5 -76.5l-17 150q73 2 122 13.5t79 29.5t42.5 42t12.5 50q0 32 -21 51t-76 20q-31 0 -62 -7l-9 127q48 5 78.5 11.5t48 15.5t24.5 21t7 28q0 23 -19.5 39t-73.5 16q-51 0 -92.5 -13t-80.5 -39l-42 148q42 29 102.5 47t125.5 18
q63 0 111 -14.5t80.5 -40t49 -60t16.5 -75.5q0 -45 -17 -80.5t-52 -59.5q90 -45 90 -148z" />
    <glyph glyph-name="four.tosf" horiz-adv-x="605" 
d="M526 56v-157l-180 -9v166h-318l-15 122l289 481l224 -13v-441h63l-4 -149h-59zM361 409l5 81l-2 1l-39 -72l-122 -214h150z" />
    <glyph glyph-name="five.tosf" horiz-adv-x="605" 
d="M554 187q0 -68 -27.5 -122.5t-81.5 -92.5t-135 -58.5t-189 -20.5l-18 156q136 0 196.5 34t60.5 86q0 28 -23.5 44t-77.5 16q-34 0 -68.5 -6t-62.5 -15l-65 74l30 368h421l7 -172h-272l-7 -99q35 7 79 7q107 0 170 -51t63 -148z" />
    <glyph glyph-name="six.tosf" horiz-adv-x="605" 
d="M575 265q0 -72 -18.5 -123.5t-52.5 -85.5t-82.5 -50t-108.5 -16q-134 0 -208 81t-74 251q0 108 36.5 189t96 135t136 81.5t156.5 28.5l28 -158q-108 -1 -169 -41t-83 -100l2 -2q51 28 113 28q112 0 170 -55.5t58 -162.5zM385 264q0 37 -17.5 55.5t-59.5 18.5
q-19 0 -43 -8.5t-35 -23.5q0 -45 5 -74.5t15.5 -47t26 -24t37.5 -6.5q32 0 51.5 25t19.5 85z" />
    <glyph glyph-name="seven.tosf" horiz-adv-x="605" 
d="M557 492l-250 -585h-218l263 566h-306l11 176h500v-157z" />
    <glyph glyph-name="eight.tosf" horiz-adv-x="605" 
d="M22 195q0 40 21.5 78t63.5 65q-26 23 -42 56.5t-16 82.5q0 85 61 133t193 48q67 0 115 -13t78.5 -37t45 -57.5t14.5 -74.5q0 -42 -16.5 -74t-44.5 -56q38 -22 63 -57.5t25 -94.5q0 -101 -69.5 -153.5t-210.5 -52.5q-146 0 -213.5 53.5t-67.5 153.5zM388 184
q0 17 -10.5 28.5t-28.5 20.5t-42 16.5t-50 15.5q-20 -13 -32.5 -29.5t-12.5 -37.5q0 -35 23 -50.5t73 -15.5q35 0 57.5 11.5t22.5 40.5zM233 468q0 -29 32 -43t79 -26q17 12 27 26t10 33q0 29 -17.5 43.5t-62.5 14.5q-68 0 -68 -48z" />
    <glyph glyph-name="nine.tosf" horiz-adv-x="605" 
d="M568 349q0 -123 -34 -209.5t-92.5 -140.5t-136.5 -79t-167 -25l-19 154q45 1 85 10t72 27t54.5 45.5t33.5 65.5l-2 2q-44 -26 -110 -26q-50 0 -91 14t-70.5 43t-46 72.5t-16.5 103.5q0 118 67 185.5t201 67.5t203 -78.5t69 -231.5zM374 369q0 37 -5.5 61t-15.5 38.5
t-25 20t-36 5.5q-35 0 -53 -19t-18 -64q0 -44 16.5 -62.5t58.5 -18.5q62 0 78 39z" />
    <glyph glyph-name="cent.tosf" horiz-adv-x="605" 
d="M543 432q-29 8 -60.5 13.5t-59.5 5.5q-45 0 -75.5 -7.5t-49 -24.5t-26.5 -45t-8 -69q0 -42 12 -71t33 -46.5t50 -25.5t64 -8t66 6t57 15l14 -149q-23 -14 -55.5 -22.5t-74.5 -12.5l-10 -118h-156l11 125q-110 23 -166 100.5t-56 205.5q0 66 15 120t46.5 94t81 65.5
t118.5 33.5l11 122h156l-12 -125q23 -3 44.5 -8t39.5 -11z" />
    <glyph glyph-name="sterling.tosf" horiz-adv-x="605" 
d="M42 386h40q-5 17 -8.5 33t-3.5 34q0 40 14 77t48.5 66t91 46.5t142.5 17.5q56 0 98 -7t78 -18l-22 -151q-29 8 -64.5 13.5t-70.5 5.5q-67 0 -92 -18.5t-25 -48.5q0 -28 7 -50h227v-133h-197q0 -4 0.5 -7t0.5 -6q0 -62 -45 -92l2 -3q38 9 78 12.5t77 3.5q43 0 79 -3t71 -8
l-9 -157q-60 7 -118.5 10t-118.5 3q-68 0 -130.5 -2t-142.5 -8l-6 154q38 4 58 27.5t20 51.5q0 6 -0.5 12t-1.5 12h-71z" />
    <glyph glyph-name="currency.tosf" horiz-adv-x="605" 
d="M101 324q0 48 20 90l-71 73l97 99l75 -76q37 17 80 17q41 0 80 -17l76 77l97 -100l-72 -73q10 -20 15.5 -43t5.5 -47q0 -41 -16 -79l66 -67l-97 -100l-64 64q-42 -21 -91 -21q-50 0 -92 21l-64 -64l-96 100l66 67q-15 36 -15 79zM223 327q0 -32 23 -54.5t56 -22.5
t55.5 22.5t22.5 54.5t-22.5 54.5t-55.5 22.5t-56 -22.5t-23 -54.5z" />
    <glyph glyph-name="yen.tosf" horiz-adv-x="605" 
d="M159 314l-159 335h209l93 -304h3l21 77l70 227h205l-155 -335h83v-87h-122v-34h122v-86h-122v-107h-208v107h-115v86h115v34h-115v87h75z" />
    <glyph glyph-name="uni2007.tosf" horiz-adv-x="605" 
 />
    <glyph glyph-name="franc.tosf" horiz-adv-x="605" 
d="M83 184v465h481l4 -162h-293v-91h215l-2 -151h-213v-61h62v-117h-62v-67h-192v67h-53v117h53z" />
    <glyph glyph-name="lira.tosf" horiz-adv-x="605" 
d="M46 418h26q-3 16 -3 35q0 40 14 77t48.5 66t91 46.5t142.5 17.5q56 0 98 -7t79 -18l-23 -151q-29 8 -64.5 13.5t-70.5 5.5q-67 0 -92 -18.5t-25 -48.5v-9q0 -4 1 -9h233v-83h-211l9 -31h202v-82h-196q-6 -49 -45 -74l2 -3q38 9 78 12.5t77 3.5q43 0 79.5 -3t71.5 -8
l-10 -157q-59 7 -118 10t-119 3q-34 0 -66 -0.5t-64 -1.5t-67 -3t-75 -5l-7 154q36 3 55.5 24.5t21.5 47.5h-58l-6 82h54l-10 31h-45z" />
    <glyph glyph-name="peseta.tosf" horiz-adv-x="605" 
d="M552 375q-5 -43 -22.5 -77t-49.5 -57t-79.5 -35.5t-111.5 -12.5h-57v-193h-183v375h-30v80h30v194h240q130 0 192 -48t72 -146h40v-80h-41zM231 455h133q-5 26 -22.5 35.5t-53.5 9.5h-57v-45zM289 336q32 0 49.5 7t24.5 32h-132v-39h58z" />
    <glyph glyph-name="Euro.tosf" horiz-adv-x="605" 
d="M533 481q-20 7 -45.5 11t-48.5 4q-61 0 -95.5 -16t-50.5 -51h223l-29 -89h-211v-33h201l-29 -85h-153q20 -40 55 -58.5t85 -18.5q35 0 63.5 6.5t55.5 17.5l6 -142q-31 -18 -75.5 -28.5t-104.5 -10.5q-134 0 -213.5 59.5t-103.5 174.5h-40v85h31v33h-31v89h41
q23 108 101.5 169t222.5 61q52 0 104 -9t87 -24z" />
    <glyph glyph-name="f_i.sc" horiz-adv-x="864" 
d="M246 483v-99h237l-1 -155h-236v-229h-194v649h474l4 -166h-284zM609 649h198v-649h-198v649z" />
    <glyph glyph-name="f_l.sc" horiz-adv-x="1073" 
d="M246 483v-99h237l-1 -155h-236v-229h-194v649h474l4 -166h-284zM1058 164l-4 -164h-450v649h195v-485h259z" />
    <glyph glyph-name="exclam.sc" horiz-adv-x="287" 
d="M74 200l-28 449h193l-24 -449h-141zM242 69q0 -37 -22 -58.5t-73 -21.5q-50 0 -72.5 18t-22.5 62q0 39 22.5 60.5t72.5 21.5q51 0 73 -21.5t22 -60.5z" />
    <glyph glyph-name="ampersand.sc" horiz-adv-x="673" 
d="M605 -8q-72 26 -144 71q-45 -35 -100 -55.5t-123 -20.5q-60 0 -101.5 16.5t-67 43.5t-37 61.5t-11.5 69.5q0 31 9 57.5t24.5 49t36 41t43.5 34.5q-25 37 -38.5 70.5t-13.5 62.5q0 33 10 63.5t34.5 53t65 36t101.5 13.5q45 0 83.5 -10t67 -28.5t45 -44.5t16.5 -58
q0 -30 -13 -55t-35 -47t-49.5 -41t-55.5 -37q20 -19 42.5 -37.5t48.5 -36.5q13 22 22 45.5t16 46.5h153q-4 -34 -19.5 -78.5t-44.5 -90.5q24 -12 48.5 -22t49.5 -18zM268 142q31 0 62 13q-27 22 -52.5 45t-48.5 46q-21 -27 -21 -54q0 -50 60 -50zM248 492q0 -23 19 -54
q25 16 41 31t16 32q-1 17 -11.5 23.5t-23.5 6.5q-41 0 -41 -39z" />
    <glyph glyph-name="question.sc" horiz-adv-x="469" 
d="M447 483q0 -71 -39.5 -119.5t-108.5 -82.5l-6 -80h-140l-10 144q53 24 86.5 49.5t33.5 60.5q0 20 -16.5 32t-50.5 12q-72 0 -121 -41l-63 137q35 28 91.5 45t118.5 17q113 0 169 -47.5t56 -126.5zM316 69q0 -37 -21.5 -58.5t-72.5 -21.5t-73 18t-22 62q0 39 22 60.5
t73 21.5t72.5 -21.5t21.5 -60.5z" />
    <glyph glyph-name="grave.sc" 
d="M174 680l-128 126h212l57 -126h-141z" />
    <glyph glyph-name="a.sc" horiz-adv-x="689" 
d="M443 109h-209l-31 -109h-205l229 649h229l235 -649h-218zM318 408l-42 -149h126l-41 149l-19 79h-3z" />
    <glyph glyph-name="b.sc" horiz-adv-x="627" 
d="M608 192q0 -44 -15 -79.5t-46.5 -60.5t-80.5 -38.5t-117 -13.5h-297v649h297q119 0 177 -47t58 -123q0 -53 -23.5 -86t-62.5 -50v-2q55 -17 82.5 -54.5t27.5 -94.5zM414 206q0 29 -14 42t-52 13h-110v-112h113q36 0 49.5 12t13.5 45zM400 446q0 28 -13 38.5t-45 10.5
h-104v-102h106q31 0 43.5 12t12.5 41z" />
    <glyph glyph-name="c.sc" horiz-adv-x="537" 
d="M493 478q-26 8 -58.5 14t-70.5 6q-42 0 -68.5 -8.5t-42 -28.5t-21.5 -53t-6 -82q0 -51 6.5 -85.5t22.5 -55t43 -29t68 -8.5q36 0 68.5 7t60.5 18l19 -149q-37 -17 -83.5 -26.5t-91.5 -9.5q-158 0 -237.5 84t-79.5 255q0 79 19.5 141t60 105t103.5 65.5t149 22.5
q41 0 84 -7.5t75 -18.5z" />
    <glyph glyph-name="d.sc" horiz-adv-x="661" 
d="M638 326q0 -86 -20 -148t-59.5 -101.5t-98 -58t-134.5 -18.5h-274v649h272q167 0 240.5 -80t73.5 -243zM435 328q0 49 -5.5 79.5t-18.5 47.5t-35 23.5t-55 6.5h-75v-322h75q33 0 54.5 5.5t35 23t19 50t5.5 86.5z" />
    <glyph glyph-name="e.sc" horiz-adv-x="566" 
d="M543 159l-4 -159h-487v649h475l3 -162h-284v-85h234v-144h-234v-99h297z" />
    <glyph glyph-name="f.sc" horiz-adv-x="552" 
d="M246 483v-99h237l-1 -155h-236v-229h-194v649h474l4 -166h-284z" />
    <glyph glyph-name="g.sc" horiz-adv-x="605" 
d="M567 22q-39 -16 -96 -25t-111 -9q-92 0 -156.5 22.5t-105 65.5t-58.5 105.5t-18 142.5q0 81 19.5 144t61 106t106.5 65t155 22q51 0 102.5 -7.5t92.5 -21.5l-18 -159q-37 13 -81.5 19.5t-84.5 6.5q-46 0 -75 -8.5t-45 -28t-22 -53t-6 -82.5q0 -53 6 -87.5t20.5 -54
t39 -27t61.5 -7.5q21 0 42 3v196h171v-328z" />
    <glyph glyph-name="h.sc" horiz-adv-x="676" 
d="M430 0v245h-184v-245h-194v649h194v-239h184v239h194v-649h-194z" />
    <glyph glyph-name="i.sc" horiz-adv-x="312" 
d="M57 649h198v-649h-198v649z" />
    <glyph glyph-name="j.sc" horiz-adv-x="446" 
d="M401 243q0 -69 -17 -117t-49.5 -79t-79 -45t-105.5 -14q-81 0 -132 24l10 152q17 -8 40 -13t44 -5q28 0 45.5 5.5t28 17t14.5 30t4 44.5v406h197v-406z" />
    <glyph glyph-name="k.sc" horiz-adv-x="671" 
d="M435 0l-138 255h-51v-255h-194v649h193v-245h55l139 245h220l-186 -308l195 -341h-233z" />
    <glyph glyph-name="l.sc" horiz-adv-x="521" 
d="M506 164l-4 -164h-450v649h195v-485h259z" />
    <glyph glyph-name="m.sc" horiz-adv-x="851" 
d="M263 649l131 -316l30 -75h3l29 75l133 316h210v-649h-177v286l2 81l-3 1l-27 -77l-109 -291h-125l-108 283l-27 77l-2 -1l1 -81v-278h-172v649h211z" />
    <glyph glyph-name="n.sc" horiz-adv-x="681" 
d="M474 0l-204 291l-45 68l-2 -1l1 -81v-277h-172v649h159l199 -278l46 -66l2 1l-2 80l1 263h173v-649h-156z" />
    <glyph glyph-name="o.sc" horiz-adv-x="675" 
d="M652 324q0 -170 -74.5 -253t-240.5 -83q-164 0 -239.5 85t-75.5 251t74.5 250.5t240.5 84.5t240.5 -84.5t74.5 -250.5zM449 324q0 52 -5.5 85t-18 52.5t-34 27t-54.5 7.5q-32 0 -53 -7.5t-34 -27t-18.5 -52.5t-5.5 -85q0 -51 5.5 -84.5t18.5 -53t34.5 -27.5t53.5 -8
t53.5 8t34 27.5t18 53t5.5 84.5z" />
    <glyph glyph-name="p.sc" horiz-adv-x="616" 
d="M594 413q0 -52 -16 -94t-50 -71t-88.5 -45t-130.5 -16h-63v-187h-194v649h257q152 0 218.5 -59.5t66.5 -176.5zM394 414q0 49 -18 66t-67 17h-64v-165h64q24 0 40 3t26 12t14.5 25t4.5 42z" />
    <glyph glyph-name="q.sc" horiz-adv-x="679" 
d="M654 324q0 -119 -35.5 -195t-113.5 -111l109 -108l-223 -29l-75 108q-152 6 -222 90.5t-70 244.5q0 166 74.5 250.5t240.5 84.5t240.5 -84.5t74.5 -250.5zM451 324q0 52 -5.5 85t-18 52.5t-34 27t-54.5 7.5q-32 0 -53 -7.5t-34 -27t-18.5 -52.5t-5.5 -85q0 -51 5.5 -84.5
t18.5 -53t34.5 -27.5t53.5 -8t53.5 8t34 27.5t18 53t5.5 84.5z" />
    <glyph glyph-name="r.sc" horiz-adv-x="639" 
d="M593 436q0 -64 -26.5 -112t-74.5 -68l147 -256h-227l-99 218h-67v-218h-194v649h265q137 0 206.5 -52t69.5 -161zM390 428q0 41 -15.5 55.5t-57.5 14.5h-71v-144h70q41 0 57.5 14t16.5 60z" />
    <glyph glyph-name="s.sc" horiz-adv-x="537" 
d="M518 202q0 -49 -18.5 -88.5t-53.5 -67.5t-84.5 -43t-110.5 -15q-60 0 -116 12.5t-104 35.5l24 158q48 -23 96 -35.5t99 -12.5q45 0 63.5 11t18.5 32q0 18 -22 28.5t-55.5 21t-72 23.5t-72 36t-55.5 59t-22 92q0 43 14.5 81t46 67t81 46t119.5 17q51 0 105 -8.5t96 -24.5
l-22 -154q-47 12 -90 19t-80 7q-27 0 -43.5 -3t-26 -8.5t-12.5 -12.5t-3 -16q0 -19 22 -29.5t55.5 -20.5t72.5 -22.5t72.5 -35t55.5 -58t22 -91.5z" />
    <glyph glyph-name="t.sc" horiz-adv-x="555" 
d="M376 486v-486h-197v486h-170l4 163h529l4 -163h-170z" />
    <glyph glyph-name="u.sc" horiz-adv-x="664" 
d="M619 238q0 -124 -70.5 -187t-215.5 -63q-143 0 -215 63t-72 187v411h193v-409q0 -45 21.5 -66t72.5 -21q52 0 72 20t20 67v409h194v-411z" />
    <glyph glyph-name="v.sc" horiz-adv-x="665" 
d="M668 649l-229 -649h-213l-229 649h214l105 -384l20 -78h3l20 78l107 384h202z" />
    <glyph glyph-name="w.sc" horiz-adv-x="968" 
d="M593 649l79 -393l15 -79h3l11 80l65 392h191l-160 -649h-230l-69 374l-12 81h-3l-13 -81l-68 -374h-231l-160 649h203l63 -397l11 -80h3l14 79l79 398h209z" />
    <glyph glyph-name="x.sc" horiz-adv-x="666" 
d="M468 340l189 -340h-220l-67 139l-33 74h-3l-34 -74l-67 -139h-225l185 335l-182 314h231l58 -116l35 -73h3l34 72l60 117h222z" />
    <glyph glyph-name="y.sc" horiz-adv-x="660" 
d="M216 649l89 -215l29 -75h3l28 75l86 215h212l-231 -448v-201h-199v201l-236 448h219z" />
    <glyph glyph-name="z.sc" horiz-adv-x="574" 
d="M29 0v118l225 302l49 62l-1 2h-267l6 165h499v-133l-217 -288l-49 -61l1 -3h269l-2 -164h-513z" />
    <glyph glyph-name="exclamdown.sc" horiz-adv-x="302" 
d="M230 429l22 -520h-202l23 520h157zM45 580q0 41 24 65t79 24q54 0 78.5 -20.5t24.5 -68.5q0 -43 -24.5 -66.5t-78.5 -23.5q-55 0 -79 23.5t-24 66.5z" />
    <glyph glyph-name="dieresis.sc" 
d="M180 746q0 -32 -17.5 -47.5t-56.5 -15.5q-38 0 -56 14t-18 49q0 63 74 63q39 0 56.5 -16t17.5 -47zM380 746q0 -32 -17.5 -47.5t-56.5 -15.5q-38 0 -56 14t-18 49q0 63 74 63q39 0 56.5 -16t17.5 -47z" />
    <glyph glyph-name="macron.sc" 
d="M376 692h-341v99h341v-99z" />
    <glyph glyph-name="acute.sc" 
d="M425 806l-152 -126h-156l80 126h228z" />
    <glyph glyph-name="cedilla.sc" 
d="M170 17l126 2l-34 -207h-169z" />
    <glyph glyph-name="questiondown.sc" horiz-adv-x="503" 
d="M21 95q0 81 44 138t119 97l7 99h151l10 -167q-59 -30 -96 -61.5t-37 -74.5q0 -25 19 -40t57 -15q40 0 74 12.5t60 35.5l67 -150q-38 -31 -100 -50.5t-130 -19.5q-123 0 -184 53t-61 143zM165 580q0 42 24 65.5t79 23.5q54 0 78.5 -20.5t24.5 -68.5q0 -43 -24.5 -66.5
t-78.5 -23.5q-55 0 -79 23.5t-24 66.5z" />
    <glyph glyph-name="germandbls.sc" horiz-adv-x="1074" 
d="M518 202q0 -49 -18.5 -88.5t-53.5 -67.5t-84.5 -43t-110.5 -15q-60 0 -116 12.5t-104 35.5l24 158q48 -23 96 -35.5t99 -12.5q45 0 63.5 11t18.5 32q0 18 -22 28.5t-55.5 21t-72 23.5t-72 36t-55.5 59t-22 92q0 43 14.5 81t46 67t81 46t119.5 17q51 0 105 -8.5t96 -24.5
l-22 -154q-47 12 -90 19t-80 7q-27 0 -43.5 -3t-26 -8.5t-12.5 -12.5t-3 -16q0 -19 22 -29.5t55.5 -20.5t72.5 -22.5t72.5 -35t55.5 -58t22 -91.5zM1055 202q0 -49 -18.5 -88.5t-53.5 -67.5t-84.5 -43t-110.5 -15q-60 0 -116 12.5t-104 35.5l24 158q48 -23 96 -35.5
t99 -12.5q45 0 63.5 11t18.5 32q0 18 -22 28.5t-55.5 21t-72 23.5t-72 36t-55.5 59t-22 92q0 43 14.5 81t46 67t81 46t119.5 17q51 0 105 -8.5t96 -24.5l-22 -154q-47 12 -90 19t-80 7q-27 0 -43.5 -3t-26 -8.5t-12.5 -12.5t-3 -16q0 -19 22 -29.5t55.5 -20.5t72.5 -22.5
t72.5 -35t55.5 -58t22 -91.5z" />
    <glyph glyph-name="agrave.sc" horiz-adv-x="689" 
d="M443 109h-209l-31 -109h-205l229 649h229l235 -649h-218zM318 408l-42 -149h126l-41 149l-19 79h-3zM301 680l-128 126h212l57 -126h-141z" />
    <glyph glyph-name="aacute.sc" horiz-adv-x="689" 
d="M443 109h-209l-31 -109h-205l229 649h229l235 -649h-218zM318 408l-42 -149h126l-41 149l-19 79h-3zM558 806l-152 -126h-156l80 126h228z" />
    <glyph glyph-name="acircumflex.sc" horiz-adv-x="689" 
d="M443 109h-209l-31 -109h-205l229 649h229l235 -649h-218zM318 408l-42 -149h126l-41 149l-19 79h-3zM421 806l97 -126h-141l-37 60l-38 -60h-141l95 126h165z" />
    <glyph glyph-name="atilde.sc" horiz-adv-x="689" 
d="M443 109h-209l-31 -109h-205l229 649h229l235 -649h-218zM318 408l-42 -149h126l-41 149l-19 79h-3zM163 704q2 52 31.5 86.5t81.5 34.5q26 0 44.5 -6t33.5 -12.5t28 -12.5t28 -6q14 0 20.5 7.5t9.5 19.5h86q-1 -54 -31.5 -87.5t-81.5 -33.5q-26 0 -44.5 6t-33.5 12.5
t-27.5 12.5t-27.5 6q-13 0 -21 -8t-10 -20z" />
    <glyph glyph-name="adieresis.sc" horiz-adv-x="689" 
d="M443 109h-209l-31 -109h-205l229 649h229l235 -649h-218zM318 408l-42 -149h126l-41 149l-19 79h-3zM314 746q0 -32 -17.5 -47.5t-56.5 -15.5q-38 0 -56 14t-18 49q0 63 74 63q39 0 56.5 -16t17.5 -47zM514 746q0 -32 -17.5 -47.5t-56.5 -15.5q-38 0 -56 14t-18 49
q0 63 74 63q39 0 56.5 -16t17.5 -47z" />
    <glyph glyph-name="aring.sc" horiz-adv-x="689" 
d="M192 711q0 24 7.5 43t25 32.5t46 20.5t69.5 7q80 0 115 -28.5t35 -74.5q0 -49 -30 -73l231 -638h-218l-30 109h-209l-31 -109h-205l224 636q-30 25 -30 75zM318 408l-42 -149h126l-41 149l-19 79h-3zM289 711q0 -14 10.5 -21.5t43.5 -7.5q29 0 41 7t12 22q0 13 -10.5 21
t-42.5 8t-43 -7.5t-11 -21.5z" />
    <glyph glyph-name="ae.sc" horiz-adv-x="975" 
d="M664 488l3 -86h223v-144h-217l3 -99h276l-4 -159h-463l-4 109h-204l-52 -109h-231l367 649h576l4 -161h-277zM431 432l-83 -174h127l-6 166l-1 81l-3 1z" />
    <glyph glyph-name="ccedilla.sc" horiz-adv-x="537" 
d="M240 -2q-218 48 -218 329q0 79 19.5 141t60 105t103.5 65.5t149 22.5q41 0 84 -7.5t75 -18.5l-20 -157q-26 8 -58.5 14t-70.5 6q-42 0 -68.5 -8.5t-42 -28.5t-21.5 -53t-6 -82q0 -51 6.5 -85.5t22.5 -55t43 -29t68 -8.5q36 0 68.5 7t60.5 18l19 -149q-31 -14 -69.5 -23
t-76.5 -12l-29 -177h-169z" />
    <glyph glyph-name="egrave.sc" horiz-adv-x="566" 
d="M543 159l-4 -159h-487v649h475l3 -162h-284v-85h234v-144h-234v-99h297zM262 680l-128 126h212l57 -126h-141z" />
    <glyph glyph-name="eacute.sc" horiz-adv-x="566" 
d="M543 159l-4 -159h-487v649h475l3 -162h-284v-85h234v-144h-234v-99h297zM519 806l-152 -126h-156l80 126h228z" />
    <glyph glyph-name="ecircumflex.sc" horiz-adv-x="566" 
d="M543 159l-4 -159h-487v649h475l3 -162h-284v-85h234v-144h-234v-99h297zM381 806l97 -126h-141l-37 60l-38 -60h-141l95 126h165z" />
    <glyph glyph-name="edieresis.sc" horiz-adv-x="566" 
d="M543 159l-4 -159h-487v649h475l3 -162h-284v-85h234v-144h-234v-99h297zM275 746q0 -32 -17.5 -47.5t-56.5 -15.5q-38 0 -56 14t-18 49q0 63 74 63q39 0 56.5 -16t17.5 -47zM475 746q0 -32 -17.5 -47.5t-56.5 -15.5q-38 0 -56 14t-18 49q0 63 74 63q39 0 56.5 -16
t17.5 -47z" />
    <glyph glyph-name="igrave.sc" horiz-adv-x="312" 
d="M57 649h198v-649h-198v649zM116 680l-128 126h212l57 -126h-141z" />
    <glyph glyph-name="iacute.sc" horiz-adv-x="312" 
d="M57 649h198v-649h-198v649zM374 806l-152 -126h-156l80 126h228z" />
    <glyph glyph-name="icircumflex.sc" horiz-adv-x="312" 
d="M57 649h198v-649h-198v649zM236 806l97 -126h-141l-37 60l-38 -60h-141l95 126h165z" />
    <glyph glyph-name="idieresis.sc" horiz-adv-x="312" 
d="M57 649h198v-649h-198v649zM129 746q0 -32 -17.5 -47.5t-56.5 -15.5q-38 0 -56 14t-18 49q0 63 74 63q39 0 56.5 -16t17.5 -47zM329 746q0 -32 -17.5 -47.5t-56.5 -15.5q-38 0 -56 14t-18 49q0 63 74 63q39 0 56.5 -16t17.5 -47z" />
    <glyph glyph-name="eth.sc" horiz-adv-x="671" 
d="M648 326q0 -86 -20 -148t-59.5 -101.5t-98 -58t-134.5 -18.5h-274v272h-53v128h53v249h272q167 0 240.5 -80t73.5 -243zM445 328q0 49 -5.5 79.5t-18.5 47.5t-35 23.5t-55 6.5h-75v-85h81v-128h-81v-109h75q33 0 54.5 5.5t35 23t19 50t5.5 86.5z" />
    <glyph glyph-name="ntilde.sc" horiz-adv-x="681" 
d="M474 0l-204 291l-45 68l-2 -1l1 -81v-277h-172v649h159l199 -278l46 -66l2 1l-2 80l1 263h173v-649h-156zM158 704q2 52 31.5 86.5t81.5 34.5q26 0 44.5 -6t33.5 -12.5t28 -12.5t28 -6q14 0 20.5 7.5t9.5 19.5h86q-1 -54 -31.5 -87.5t-81.5 -33.5q-26 0 -44.5 6
t-33.5 12.5t-27.5 12.5t-27.5 6q-13 0 -21 -8t-10 -20z" />
    <glyph glyph-name="ograve.sc" horiz-adv-x="675" 
d="M652 324q0 -170 -74.5 -253t-240.5 -83q-164 0 -239.5 85t-75.5 251t74.5 250.5t240.5 84.5t240.5 -84.5t74.5 -250.5zM449 324q0 52 -5.5 85t-18 52.5t-34 27t-54.5 7.5q-32 0 -53 -7.5t-34 -27t-18.5 -52.5t-5.5 -85q0 -51 5.5 -84.5t18.5 -53t34.5 -27.5t53.5 -8
t53.5 8t34 27.5t18 53t5.5 84.5zM297 680l-128 126h212l57 -126h-141z" />
    <glyph glyph-name="oacute.sc" horiz-adv-x="675" 
d="M652 324q0 -170 -74.5 -253t-240.5 -83q-164 0 -239.5 85t-75.5 251t74.5 250.5t240.5 84.5t240.5 -84.5t74.5 -250.5zM449 324q0 52 -5.5 85t-18 52.5t-34 27t-54.5 7.5q-32 0 -53 -7.5t-34 -27t-18.5 -52.5t-5.5 -85q0 -51 5.5 -84.5t18.5 -53t34.5 -27.5t53.5 -8
t53.5 8t34 27.5t18 53t5.5 84.5zM555 806l-152 -126h-156l80 126h228z" />
    <glyph glyph-name="ocircumflex.sc" horiz-adv-x="675" 
d="M652 324q0 -170 -74.5 -253t-240.5 -83q-164 0 -239.5 85t-75.5 251t74.5 250.5t240.5 84.5t240.5 -84.5t74.5 -250.5zM449 324q0 52 -5.5 85t-18 52.5t-34 27t-54.5 7.5q-32 0 -53 -7.5t-34 -27t-18.5 -52.5t-5.5 -85q0 -51 5.5 -84.5t18.5 -53t34.5 -27.5t53.5 -8
t53.5 8t34 27.5t18 53t5.5 84.5zM417 806l97 -126h-141l-37 60l-38 -60h-141l95 126h165z" />
    <glyph glyph-name="otilde.sc" horiz-adv-x="675" 
d="M652 324q0 -170 -74.5 -253t-240.5 -83q-164 0 -239.5 85t-75.5 251t74.5 250.5t240.5 84.5t240.5 -84.5t74.5 -250.5zM449 324q0 52 -5.5 85t-18 52.5t-34 27t-54.5 7.5q-32 0 -53 -7.5t-34 -27t-18.5 -52.5t-5.5 -85q0 -51 5.5 -84.5t18.5 -53t34.5 -27.5t53.5 -8
t53.5 8t34 27.5t18 53t5.5 84.5zM159 704q2 52 31.5 86.5t81.5 34.5q26 0 44.5 -6t33.5 -12.5t28 -12.5t28 -6q14 0 20.5 7.5t9.5 19.5h86q-1 -54 -31.5 -87.5t-81.5 -33.5q-26 0 -44.5 6t-33.5 12.5t-27.5 12.5t-27.5 6q-13 0 -21 -8t-10 -20z" />
    <glyph glyph-name="odieresis.sc" horiz-adv-x="675" 
d="M652 324q0 -170 -74.5 -253t-240.5 -83q-164 0 -239.5 85t-75.5 251t74.5 250.5t240.5 84.5t240.5 -84.5t74.5 -250.5zM449 324q0 52 -5.5 85t-18 52.5t-34 27t-54.5 7.5q-32 0 -53 -7.5t-34 -27t-18.5 -52.5t-5.5 -85q0 -51 5.5 -84.5t18.5 -53t34.5 -27.5t53.5 -8
t53.5 8t34 27.5t18 53t5.5 84.5zM311 746q0 -32 -17.5 -47.5t-56.5 -15.5q-38 0 -56 14t-18 49q0 63 74 63q39 0 56.5 -16t17.5 -47zM511 746q0 -32 -17.5 -47.5t-56.5 -15.5q-38 0 -56 14t-18 49q0 63 74 63q39 0 56.5 -16t17.5 -47z" />
    <glyph glyph-name="oslash.sc" horiz-adv-x="675" 
d="M31 56l42 51q-50 79 -50 217q0 83 18 146t56 105t98 63t143 21q59 0 105.5 -11t82.5 -32l44 52l84 -77l-47 -56q46 -79 46 -211q0 -170 -74.5 -253t-240.5 -83q-113 0 -183 40l-39 -47zM226 287q0 -17 2 -31l191 214q-14 14 -33.5 20t-47.5 6q-32 0 -53.5 -7.5t-34.5 -27
t-18.5 -52.5t-5.5 -85v-37zM449 385l-188 -211q13 -13 32.5 -18t45.5 -5q31 0 52.5 8t34 27.5t18 53t5.5 84.5v61z" />
    <glyph glyph-name="ugrave.sc" horiz-adv-x="664" 
d="M619 238q0 -124 -70.5 -187t-215.5 -63q-143 0 -215 63t-72 187v411h193v-409q0 -45 21.5 -66t72.5 -21q52 0 72 20t20 67v409h194v-411zM294 680l-128 126h212l57 -126h-141z" />
    <glyph glyph-name="uacute.sc" horiz-adv-x="664" 
d="M619 238q0 -124 -70.5 -187t-215.5 -63q-143 0 -215 63t-72 187v411h193v-409q0 -45 21.5 -66t72.5 -21q52 0 72 20t20 67v409h194v-411zM551 806l-152 -126h-156l80 126h228z" />
    <glyph glyph-name="ucircumflex.sc" horiz-adv-x="664" 
d="M619 238q0 -124 -70.5 -187t-215.5 -63q-143 0 -215 63t-72 187v411h193v-409q0 -45 21.5 -66t72.5 -21q52 0 72 20t20 67v409h194v-411zM413 806l97 -126h-141l-37 60l-38 -60h-141l95 126h165z" />
    <glyph glyph-name="udieresis.sc" horiz-adv-x="664" 
d="M619 238q0 -124 -70.5 -187t-215.5 -63q-143 0 -215 63t-72 187v411h193v-409q0 -45 21.5 -66t72.5 -21q52 0 72 20t20 67v409h194v-411zM307 746q0 -32 -17.5 -47.5t-56.5 -15.5q-38 0 -56 14t-18 49q0 63 74 63q39 0 56.5 -16t17.5 -47zM507 746q0 -32 -17.5 -47.5
t-56.5 -15.5q-38 0 -56 14t-18 49q0 63 74 63q39 0 56.5 -16t17.5 -47z" />
    <glyph glyph-name="yacute.sc" horiz-adv-x="660" 
d="M216 649l89 -215l29 -75h3l28 75l86 215h212l-231 -448v-201h-199v201l-236 448h219zM553 806l-152 -126h-156l80 126h228z" />
    <glyph glyph-name="thorn.sc" horiz-adv-x="618" 
d="M594 324q0 -52 -16 -93.5t-50.5 -71t-90 -45.5t-133.5 -16h-58v-98h-194v649h194v-89h58q156 0 223 -59.5t67 -176.5zM394 325q0 49 -18.5 66t-71.5 17h-59v-165h59q25 0 42.5 3t28 12t15 25t4.5 42z" />
    <glyph glyph-name="ydieresis.sc" horiz-adv-x="660" 
d="M216 649l89 -215l29 -75h3l28 75l86 215h212l-231 -448v-201h-199v201l-236 448h219zM309 746q0 -32 -17.5 -47.5t-56.5 -15.5q-38 0 -56 14t-18 49q0 63 74 63q39 0 56.5 -16t17.5 -47zM509 746q0 -32 -17.5 -47.5t-56.5 -15.5q-38 0 -56 14t-18 49q0 63 74 63
q39 0 56.5 -16t17.5 -47z" />
    <glyph glyph-name="amacron.sc" horiz-adv-x="689" 
d="M443 109h-209l-31 -109h-205l229 649h229l235 -649h-218zM318 408l-42 -149h126l-41 149l-19 79h-3zM510 692h-341v99h341v-99z" />
    <glyph glyph-name="abreve.sc" horiz-adv-x="689" 
d="M443 109h-209l-31 -109h-205l229 649h229l235 -649h-218zM318 408l-42 -149h126l-41 149l-19 79h-3zM511 806q0 -64 -40 -97.5t-131 -33.5q-48 0 -80.5 9t-52 26t-28 41.5t-8.5 54.5h127q0 -28 11.5 -39t31.5 -11q17 0 28.5 10.5t11.5 39.5h130z" />
    <glyph glyph-name="aogonek.sc" horiz-adv-x="689" 
d="M443 109h-209l-31 -109h-205l229 649h229l235 -649h-19q-25 0 -41.5 -14.5t-16.5 -32.5q0 -16 10.5 -24.5t35.5 -8.5q13 0 23 2t20 7l15 -97q-23 -11 -50.5 -18t-63.5 -7q-68 0 -101.5 26.5t-33.5 65.5q0 37 19 61.5t49 39.5h-64zM318 408l-42 -149h126l-41 149l-19 79
h-3z" />
    <glyph glyph-name="cacute.sc" horiz-adv-x="537" 
d="M493 478q-26 8 -58.5 14t-70.5 6q-42 0 -68.5 -8.5t-42 -28.5t-21.5 -53t-6 -82q0 -51 6.5 -85.5t22.5 -55t43 -29t68 -8.5q36 0 68.5 7t60.5 18l19 -149q-37 -17 -83.5 -26.5t-91.5 -9.5q-158 0 -237.5 84t-79.5 255q0 79 19.5 141t60 105t103.5 65.5t149 22.5
q41 0 84 -7.5t75 -18.5zM545 806l-152 -126h-156l80 126h228z" />
    <glyph glyph-name="ccircumflex.sc" horiz-adv-x="537" 
d="M493 478q-26 8 -58.5 14t-70.5 6q-42 0 -68.5 -8.5t-42 -28.5t-21.5 -53t-6 -82q0 -51 6.5 -85.5t22.5 -55t43 -29t68 -8.5q36 0 68.5 7t60.5 18l19 -149q-37 -17 -83.5 -26.5t-91.5 -9.5q-158 0 -237.5 84t-79.5 255q0 79 19.5 141t60 105t103.5 65.5t149 22.5
q41 0 84 -7.5t75 -18.5zM407 806l97 -126h-141l-37 60l-38 -60h-141l95 126h165z" />
    <glyph glyph-name="cdotaccent.sc" horiz-adv-x="537" 
d="M493 478q-26 8 -58.5 14t-70.5 6q-42 0 -68.5 -8.5t-42 -28.5t-21.5 -53t-6 -82q0 -51 6.5 -85.5t22.5 -55t43 -29t68 -8.5q36 0 68.5 7t60.5 18l19 -149q-37 -17 -83.5 -26.5t-91.5 -9.5q-158 0 -237.5 84t-79.5 255q0 79 19.5 141t60 105t103.5 65.5t149 22.5
q41 0 84 -7.5t75 -18.5zM422 744q0 -32 -22.5 -48t-72.5 -16q-48 0 -71 14.5t-23 49.5q0 64 94 64q50 0 72.5 -16t22.5 -48z" />
    <glyph glyph-name="ccaron.sc" horiz-adv-x="537" 
d="M493 478q-26 8 -58.5 14t-70.5 6q-42 0 -68.5 -8.5t-42 -28.5t-21.5 -53t-6 -82q0 -51 6.5 -85.5t22.5 -55t43 -29t68 -8.5q36 0 68.5 7t60.5 18l19 -149q-37 -17 -83.5 -26.5t-91.5 -9.5q-158 0 -237.5 84t-79.5 255q0 79 19.5 141t60 105t103.5 65.5t149 22.5
q41 0 84 -7.5t75 -18.5zM243 680l-94 126h140l38 -65l38 65h143l-98 -126h-167z" />
    <glyph glyph-name="dcaron.sc" horiz-adv-x="661" 
d="M638 326q0 -86 -20 -148t-59.5 -101.5t-98 -58t-134.5 -18.5h-274v649h272q167 0 240.5 -80t73.5 -243zM435 328q0 49 -5.5 79.5t-18.5 47.5t-35 23.5t-55 6.5h-75v-322h75q33 0 54.5 5.5t35 23t19 50t5.5 86.5zM211 680l-94 126h140l38 -65l38 65h143l-98 -126h-167z
" />
    <glyph glyph-name="dcroat.sc" horiz-adv-x="671" 
d="M648 326q0 -86 -20 -148t-59.5 -101.5t-98 -58t-134.5 -18.5h-274v272h-53v128h53v249h272q167 0 240.5 -80t73.5 -243zM445 328q0 49 -5.5 79.5t-18.5 47.5t-35 23.5t-55 6.5h-75v-85h81v-128h-81v-109h75q33 0 54.5 5.5t35 23t19 50t5.5 86.5z" />
    <glyph glyph-name="emacron.sc" horiz-adv-x="566" 
d="M543 159l-4 -159h-487v649h475l3 -162h-284v-85h234v-144h-234v-99h297zM459 692h-341v99h341v-99z" />
    <glyph glyph-name="ebreve.sc" horiz-adv-x="566" 
d="M543 159l-4 -159h-487v649h475l3 -162h-284v-85h234v-144h-234v-99h297zM472 806q0 -64 -40 -97.5t-131 -33.5q-48 0 -80.5 9t-52 26t-28 41.5t-8.5 54.5h127q0 -28 11.5 -39t31.5 -11q17 0 28.5 10.5t11.5 39.5h130z" />
    <glyph glyph-name="edotaccent.sc" horiz-adv-x="566" 
d="M543 159l-4 -159h-487v649h475l3 -162h-284v-85h234v-144h-234v-99h297zM397 744q0 -32 -22.5 -48t-72.5 -16q-48 0 -71 14.5t-23 49.5q0 64 94 64q50 0 72.5 -16t22.5 -48z" />
    <glyph glyph-name="eogonek.sc" horiz-adv-x="566" 
d="M543 159l-4 -159h-37q-25 0 -41.5 -14.5t-16.5 -32.5q0 -16 10.5 -24.5t35.5 -8.5q13 0 23 2t20 7l15 -97q-23 -11 -50.5 -18t-63.5 -7q-68 0 -101.5 26.5t-33.5 65.5q0 37 19 61.5t49 39.5h-315v649h475l3 -162h-284v-85h234v-144h-234v-99h297z" />
    <glyph glyph-name="ecaron.sc" horiz-adv-x="566" 
d="M543 159l-4 -159h-487v649h475l3 -162h-284v-85h234v-144h-234v-99h297zM214 680l-94 126h140l38 -65l38 65h143l-98 -126h-167z" />
    <glyph glyph-name="gcircumflex.sc" horiz-adv-x="605" 
d="M567 22q-39 -16 -96 -25t-111 -9q-92 0 -156.5 22.5t-105 65.5t-58.5 105.5t-18 142.5q0 81 19.5 144t61 106t106.5 65t155 22q51 0 102.5 -7.5t92.5 -21.5l-18 -159q-37 13 -81.5 19.5t-84.5 6.5q-46 0 -75 -8.5t-45 -28t-22 -53t-6 -82.5q0 -53 6 -87.5t20.5 -54
t39 -27t61.5 -7.5q21 0 42 3v196h171v-328zM417 806l97 -126h-141l-37 60l-38 -60h-141l95 126h165z" />
    <glyph glyph-name="gbreve.sc" horiz-adv-x="605" 
d="M567 22q-39 -16 -96 -25t-111 -9q-92 0 -156.5 22.5t-105 65.5t-58.5 105.5t-18 142.5q0 81 19.5 144t61 106t106.5 65t155 22q51 0 102.5 -7.5t92.5 -21.5l-18 -159q-37 13 -81.5 19.5t-84.5 6.5q-46 0 -75 -8.5t-45 -28t-22 -53t-6 -82.5q0 -53 6 -87.5t20.5 -54
t39 -27t61.5 -7.5q21 0 42 3v196h171v-328zM508 806q0 -64 -40 -97.5t-131 -33.5q-48 0 -80.5 9t-52 26t-28 41.5t-8.5 54.5h127q0 -28 11.5 -39t31.5 -11q17 0 28.5 10.5t11.5 39.5h130z" />
    <glyph glyph-name="gdotaccent.sc" horiz-adv-x="605" 
d="M567 22q-39 -16 -96 -25t-111 -9q-92 0 -156.5 22.5t-105 65.5t-58.5 105.5t-18 142.5q0 81 19.5 144t61 106t106.5 65t155 22q51 0 102.5 -7.5t92.5 -21.5l-18 -159q-37 13 -81.5 19.5t-84.5 6.5q-46 0 -75 -8.5t-45 -28t-22 -53t-6 -82.5q0 -53 6 -87.5t20.5 -54
t39 -27t61.5 -7.5q21 0 42 3v196h171v-328zM433 744q0 -32 -22.5 -48t-72.5 -16q-48 0 -71 14.5t-23 49.5q0 64 94 64q50 0 72.5 -16t22.5 -48z" />
    <glyph glyph-name="uni0123.sc" horiz-adv-x="605" 
d="M567 22q-39 -16 -96 -25t-111 -9q-92 0 -156.5 22.5t-105 65.5t-58.5 105.5t-18 142.5q0 81 19.5 144t61 106t106.5 65t155 22q51 0 102.5 -7.5t92.5 -21.5l-18 -159q-37 13 -81.5 19.5t-84.5 6.5q-46 0 -75 -8.5t-45 -28t-22 -53t-6 -82.5q0 -53 6 -87.5t20.5 -54
t39 -27t61.5 -7.5q21 0 42 3v196h171v-328zM337 -30q55 0 79 -17t24 -44q0 -18 -9.5 -34t-25.5 -30.5t-37 -27.5t-45 -24l-57 19l24 50q-53 13 -53 53q0 23 22 39t78 16z" />
    <glyph glyph-name="hcircumflex.sc" horiz-adv-x="676" 
d="M430 0v245h-184v-245h-194v649h194v-239h184v239h194v-649h-194zM416 806l97 -126h-141l-37 60l-38 -60h-141l95 126h165z" />
    <glyph glyph-name="hbar.sc" horiz-adv-x="692" 
d="M438 0v245h-184v-245h-194v477h-34v103h34v69h194v-69h184v69h194v-69h34v-103h-34v-477h-194zM438 410v67h-184v-67h184z" />
    <glyph glyph-name="itilde.sc" horiz-adv-x="312" 
d="M57 649h198v-649h-198v649zM-22 704q2 52 31.5 86.5t81.5 34.5q26 0 44.5 -6t33.5 -12.5t28 -12.5t28 -6q14 0 20.5 7.5t9.5 19.5h86q-1 -54 -31.5 -87.5t-81.5 -33.5q-26 0 -44.5 6t-33.5 12.5t-27.5 12.5t-27.5 6q-13 0 -21 -8t-10 -20z" />
    <glyph glyph-name="imacron.sc" horiz-adv-x="312" 
d="M57 649h198v-649h-198v649zM325 692h-341v99h341v-99z" />
    <glyph glyph-name="ibreve.sc" horiz-adv-x="312" 
d="M57 649h198v-649h-198v649zM326 806q0 -64 -40 -97.5t-131 -33.5q-48 0 -80.5 9t-52 26t-28 41.5t-8.5 54.5h127q0 -28 11.5 -39t31.5 -11q17 0 28.5 10.5t11.5 39.5h130z" />
    <glyph glyph-name="iogonek.sc" horiz-adv-x="312" 
d="M57 649h198v-649h-14q-25 0 -41.5 -14.5t-16.5 -32.5q0 -16 10.5 -24.5t35.5 -8.5q13 0 23 2t20 7l15 -97q-23 -11 -50.5 -18t-63.5 -7q-68 0 -101.5 26.5t-33.5 65.5q0 37 19 61.5t49 39.5h-49v649z" />
    <glyph glyph-name="Idotaccent.sc" horiz-adv-x="312" 
d="M57 649h198v-649h-198v649zM251 744q0 -32 -22.5 -48t-72.5 -16q-48 0 -71 14.5t-23 49.5q0 64 94 64q50 0 72.5 -16t22.5 -48z" />
    <glyph glyph-name="dotlessi.sc" horiz-adv-x="312" 
d="M57 649h198v-649h-198v649z" />
    <glyph glyph-name="ij.sc" horiz-adv-x="758" 
d="M57 649h198v-649h-198v649zM713 243q0 -69 -17 -117t-49.5 -79t-79 -45t-105.5 -14q-81 0 -132 24l10 152q17 -8 40 -13t44 -5q28 0 45.5 5.5t28 17t14.5 30t4 44.5v406h197v-406z" />
    <glyph glyph-name="jcircumflex.sc" horiz-adv-x="446" 
d="M401 243q0 -69 -17 -117t-49.5 -79t-79 -45t-105.5 -14q-81 0 -132 24l10 152q17 -8 40 -13t44 -5q28 0 45.5 5.5t28 17t14.5 30t4 44.5v406h197v-406zM385 806l97 -126h-141l-37 60l-38 -60h-141l95 126h165z" />
    <glyph glyph-name="uni0137.sc" horiz-adv-x="671" 
d="M435 0l-138 255h-51v-255h-194v649h193v-245h55l139 245h220l-186 -308l195 -341h-233zM333 -30q55 0 79 -17t24 -44q0 -18 -9.5 -34t-25.5 -30.5t-37 -27.5t-45 -24l-57 19l24 50q-53 13 -53 53q0 23 22 39t78 16z" />
    <glyph glyph-name="kgreenlandic.sc" horiz-adv-x="671" 
d="M435 0l-138 255h-51v-255h-194v649h193v-245h55l139 245h220l-186 -308l195 -341h-233z" />
    <glyph glyph-name="lacute.sc" horiz-adv-x="521" 
d="M506 164l-4 -164h-450v649h195v-485h259zM412 806l-152 -126h-156l80 126h228z" />
    <glyph glyph-name="uni013C.sc" horiz-adv-x="521" 
d="M506 164l-4 -164h-450v649h195v-485h259zM264 -30q55 0 79 -17t24 -44q0 -18 -9.5 -34t-25.5 -30.5t-37 -27.5t-45 -24l-57 19l24 50q-53 13 -53 53q0 23 22 39t78 16z" />
    <glyph glyph-name="lcaron.sc" horiz-adv-x="521" 
d="M506 164l-4 -164h-450v649h195v-485h259zM389 656q42 0 60.5 -18t18.5 -50q0 -33 -27 -62.5t-63 -53.5l-44 20l20 52q-41 12 -41 55q0 23 17 40t59 17z" />
    <glyph glyph-name="ldot.sc" horiz-adv-x="521" 
d="M494 409q0 -36 -20.5 -57.5t-65.5 -21.5q-46 0 -66 18t-20 61q0 39 20 59.5t66 20.5q45 0 65.5 -20.5t20.5 -59.5zM506 164l-4 -164h-450v649h195v-485h259z" />
    <glyph glyph-name="lslash.sc" horiz-adv-x="554" 
d="M539 164l-4 -164h-450v239l-68 -25l-9 147l77 29v259h195v-193l164 62l11 -154l-175 -63v-137h259z" />
    <glyph glyph-name="nacute.sc" horiz-adv-x="681" 
d="M474 0l-204 291l-45 68l-2 -1l1 -81v-277h-172v649h159l199 -278l46 -66l2 1l-2 80l1 263h173v-649h-156zM554 806l-152 -126h-156l80 126h228z" />
    </font>
</defs>
</svg>
