<?xml version="1.0" standalone="no"?>
<!DOCTYPE svg PUBLIC "-//W3C//DTD SVG 1.1//EN" "http://www.w3.org/Graphics/SVG/1.1/DTD/svg11.dtd" >
<svg xmlns="http://www.w3.org/2000/svg" xmlns:xlink="http://www.w3.org/1999/xlink" version="1.1">
<metadata>
Created by FontForge 20170731 at Thu May 16 15:43:02 2019
 By Aleksey,,,
Copyright (c) 2007-2019 Monotype GmbH. All rights reserved
</metadata>
<defs>
<font id="ClanPro-BlackItalic" horiz-adv-x="605" >
  <font-face 
    font-family="Clan Pro Black"
    font-weight="900"
    font-style="italic"
    font-stretch="normal"
    units-per-em="1000"
    panose-1="2 0 5 3 5 0 0 9 0 4"
    ascent="787"
    descent="-213"
    x-height="611"
    cap-height="750"
    bbox="-181 -240 1261 952"
    underline-thickness="100"
    underline-position="-200"
    slope="-8"
    unicode-range="U+000D-FEFF"
  />
<missing-glyph horiz-adv-x="630" 
d="M-1 750h632v-750h-632v750zM522 109v532h-414v-532h414z" />
    <glyph glyph-name="IJ" unicode="IJ" horiz-adv-x="885" 
d="M120 750h215l-105 -750h-215zM819 286q-12 -85 -42 -142.5t-75.5 -92.5t-106.5 -50t-135 -15q-45 0 -81.5 7.5t-65.5 20.5l33 158q18 -10 45 -15t59 -5q70 0 107 29t48 102l66 467h213z" />
    <glyph glyph-name="ij" unicode="ij" horiz-adv-x="622" 
d="M6 0l85 605l195 9l-86 -614h-194zM214 807q51 0 73.5 -16t22.5 -46q0 -86 -117 -86q-49 0 -72 13t-23 45q0 44 28 67t88 23zM528 88q-10 -68 -37 -115.5t-67.5 -77.5t-92.5 -44.5t-113 -17.5l6 132q25 3 44 10t32 21t21 36t13 55l73 518l195 9zM527 807q51 0 73.5 -16
t22.5 -46q0 -86 -117 -86q-49 0 -72 13t-23 45q0 44 28 67t88 23z" />
    <glyph glyph-name="f_i" unicode="fi" horiz-adv-x="685" 
d="M55 601h58q7 49 27 88t58.5 65t99 40t149.5 14l-6 -136q-40 0 -65 -3t-39 -11.5t-20.5 -22t-9.5 -34.5h188q46 0 86.5 4t83.5 9l-86 -614h-194l65 468h-162l-65 -468h-194l65 468h-64zM591 807q51 0 73.5 -16t22.5 -46q0 -86 -117 -86q-49 0 -72 13t-23 45q0 44 28 67
t88 23z" />
    <glyph glyph-name="f_j" unicode="fj" horiz-adv-x="685" 
d="M591 88q-10 -68 -37 -115.5t-67.5 -77.5t-93 -44.5t-113.5 -17.5l5 132q26 3 45 10t32.5 21t21.5 36t13 55l51 368h-162l-63 -455h-194l63 455h-64l27 146h58q7 49 27 88t58.5 65t99 40t149.5 14l-7 -141q-39 0 -63.5 -3t-39 -10.5t-21 -20.5t-9.5 -32h184q39 0 85 4
t89 9zM590 807q51 0 73.5 -16t22.5 -46q0 -86 -117 -86q-49 0 -72 13t-23 45q0 44 28 67t88 23z" />
    <glyph glyph-name="f_l" unicode="fl" horiz-adv-x="664" 
d="M55 601h58q7 49 28 87t61.5 64t102 39.5t149.5 13.5q57 0 113 -5t103 -13l-110 -787h-194l95 676h-20q-39 0 -63.5 -4.5t-39.5 -13.5t-21.5 -23t-9.5 -34h99l-24 -133h-94l-65 -468h-194l65 468h-64z" />
    <glyph glyph-name=".notdef" horiz-adv-x="630" 
d="M-1 750h632v-750h-632v750zM522 109v532h-414v-532h414z" />
    <glyph glyph-name=".null" horiz-adv-x="0" 
 />
    <glyph glyph-name=".null" horiz-adv-x="0" 
 />
    <glyph glyph-name="nonmarkingreturn" unicode="&#xd;" horiz-adv-x="237" 
 />
    <glyph glyph-name="space" unicode=" " horiz-adv-x="237" 
 />
    <glyph glyph-name="exclam" unicode="!" horiz-adv-x="304" 
d="M57 226l45 524h209l-102 -524h-152zM128 164q49 0 70.5 -18.5t21.5 -51.5q0 -48 -28 -77t-89 -29q-48 0 -70.5 15.5t-22.5 50.5q0 51 29 80.5t89 29.5z" />
    <glyph glyph-name="quotedbl" unicode="&#x22;" horiz-adv-x="437" 
d="M476 765l-72 -288h-125l14 288h183zM258 765l-72 -288h-125l14 288h183z" />
    <glyph glyph-name="numbersign" unicode="#" horiz-adv-x="636" 
d="M121 308l36 129h-98l19 135h113l47 178h154l-47 -178h66l47 178h152l-47 -178h59l-19 -135h-74l-35 -129h91l-19 -135h-106l-45 -173h-151l45 173h-68l-46 -173h-154l46 173h-65l19 135h80zM275 308h68l35 129h-67z" />
    <glyph glyph-name="dollar" unicode="$" horiz-adv-x="636" 
d="M493 755q29 -5 55 -10.5t44 -13.5l-32 -160q-26 7 -57 13t-62 10l-45 -143q30 -12 60 -27.5t53 -38t37.5 -53t14.5 -72.5q0 -47 -14.5 -94.5t-49.5 -86.5t-95.5 -65t-151.5 -28l-27 -67l-104 10l19 64q-44 5 -83 15.5t-65 25.5q13 45 23 82t25 84q33 -19 71 -32t76 -20
l49 158q-33 13 -65 29t-57.5 39t-41 54t-15.5 74q0 120 84.5 188t237.5 72l21 64l114 -9zM281 140q50 1 77 15t27 46q0 24 -16 40t-48 30zM341 602q-28 -1 -47 -7t-30 -15t-16 -20.5t-5 -23.5q0 -18 17.5 -30t44.5 -23z" />
    <glyph glyph-name="percent" unicode="%" horiz-adv-x="756" 
d="M240 757q70 0 106.5 -29t36.5 -98q0 -111 -52 -166.5t-141 -55.5q-73 0 -107 33t-34 98q0 20 3 44q13 91 57.5 132.5t130.5 41.5zM225 651q-9 0 -18 -4t-15.5 -15t-10.5 -29.5t-4 -48.5q0 -23 7.5 -30.5t22.5 -7.5q9 0 17.5 4t15 14.5t11 30t4.5 49.5q0 22 -8 29.5
t-22 7.5zM673 623l-502 -590l-96 83l502 590zM569 341q71 0 107 -31.5t36 -100.5q0 -110 -52 -165t-141 -55q-73 0 -107 33t-34 98q0 20 3 44q13 91 57.5 134t130.5 43zM554 232q-9 0 -18 -4t-15.5 -15t-10.5 -30.5t-4 -49.5q0 -22 7.5 -29.5t21.5 -7.5q9 0 17.5 4
t15.5 14.5t11 29.5t4 49q0 23 -7.5 31t-21.5 8z" />
    <glyph glyph-name="ampersand" unicode="&#x26;" horiz-adv-x="736" 
d="M374 762q46 0 84 -10t65.5 -28t43 -44t15.5 -59q0 -38 -17.5 -70t-46 -60t-64 -52t-72.5 -47q20 -24 43 -48t50 -47q35 53 58 110h165q-11 -42 -36 -94t-65 -106q26 -15 51.5 -28t52.5 -23l-93 -165q-73 31 -145 82q-55 -39 -119.5 -63t-139.5 -24q-59 0 -99 15
t-65.5 39.5t-36.5 57t-11 68.5q0 43 13 79.5t35.5 67.5t51 56.5t60.5 46.5q-40 75 -40 137q0 42 15 80t47 66.5t81.5 45.5t118.5 17zM347 169q-59 55 -109 117q-20 -20 -31 -43t-11 -47q0 -52 61 -52q45 0 90 25zM351 627q-23 0 -40.5 -15.5t-17.5 -47.5q0 -23 14 -57
q34 21 56 42t22 45q0 17 -10 25t-24 8z" />
    <glyph glyph-name="quotesingle" unicode="'" horiz-adv-x="241" 
d="M269 765l-72 -288h-125l14 288h183z" />
    <glyph glyph-name="parenleft" unicode="(" horiz-adv-x="374" 
d="M429 774q-49 -63 -85 -135t-59.5 -148.5t-35 -155t-11.5 -153.5q0 -84 15.5 -162.5t49.5 -146.5l-144 -12q-54 67 -79.5 155.5t-25.5 188.5q0 85 15.5 166.5t45.5 155.5t74 140t100 119z" />
    <glyph glyph-name="parenright" unicode=")" horiz-adv-x="374" 
d="M205 786q54 -69 79.5 -156.5t25.5 -188.5q0 -83 -15.5 -164t-45.5 -156t-74 -141.5t-100 -118.5l-139 12q48 62 83.5 134.5t59 149t35 155.5t11.5 154q0 84 -15 162t-49 146z" />
    <glyph glyph-name="asterisk" unicode="*" horiz-adv-x="388" 
d="M299 780v-99l96 22l19 -84l-98 -44l41 -87l-74 -49l-64 75l-88 -77l-63 48l63 90l-85 43l45 85l91 -22l30 99h87z" />
    <glyph glyph-name="plus" unicode="+" 
d="M386 251v-162h-170v162h-162v166h162v163h170v-163h163v-166h-163z" />
    <glyph glyph-name="comma" unicode="," horiz-adv-x="275" 
d="M111 181q45 0 68.5 -23t23.5 -67q0 -31 -12.5 -63t-33.5 -63t-48.5 -59.5t-58.5 -51.5l-56 37q16 23 30.5 48t26.5 51q-27 2 -43 20t-16 50q0 55 32 88t87 33z" />
    <glyph glyph-name="hyphen" unicode="-" horiz-adv-x="381" 
d="M348 407l-19 -130h-301l19 130h301z" />
    <glyph glyph-name="period" unicode="." horiz-adv-x="280" 
d="M116 183q49 0 71.5 -19.5t22.5 -56.5q0 -55 -29.5 -87t-91.5 -32q-51 0 -74 17t-23 57q0 58 30.5 89.5t93.5 31.5z" />
    <glyph glyph-name="slash" unicode="/" horiz-adv-x="474" 
d="M544 780l-466 -899h-161l460 899h167z" />
    <glyph glyph-name="zero" unicode="0" horiz-adv-x="636" 
d="M605 371q-14 -99 -41 -171t-69 -118.5t-99 -69t-132 -22.5q-124 0 -181.5 61t-57.5 192q0 29 2.5 61t7.5 67q15 106 41 179.5t67.5 120t98.5 67.5t133 21q122 0 181 -59t59 -197q0 -29 -2.5 -62t-7.5 -70zM404 373q12 85 12 132q0 29 -4 47.5t-12.5 28.5t-20 13.5
t-26.5 3.5q-23 0 -40 -8t-31 -32t-25.5 -68.5t-21.5 -116.5q-12 -87 -12 -133q0 -30 4 -48t12.5 -28.5t20.5 -14t28 -3.5q22 0 39 7.5t30.5 31.5t24.5 69t22 119z" />
    <glyph glyph-name="one" unicode="1" horiz-adv-x="636" 
d="M120 132h97l48 341l3 21q2 9 5 19l-2 2q-8 -5 -18 -10t-18 -10l-95 -49v162l249 142h124l-87 -618h96l-18 -132h-402z" />
    <glyph glyph-name="two" unicode="2" horiz-adv-x="636" 
d="M374 759q120 0 178.5 -50.5t58.5 -135.5q0 -56 -23 -106t-65.5 -98.5t-102.5 -98.5t-133 -105v-3h264l-26 -162h-507l17 126q77 68 142.5 125.5t113.5 106.5t75.5 92t27.5 83q0 27 -19.5 42.5t-63.5 15.5q-46 0 -91 -17t-90 -45l-28 153q56 35 123.5 56t148.5 21z" />
    <glyph glyph-name="three" unicode="3" horiz-adv-x="636" 
d="M356 759q120 0 184 -47.5t64 -132.5q0 -65 -31.5 -113t-88.5 -77v-2q43 -19 66 -50.5t23 -79.5q0 -61 -22 -110.5t-65 -84t-106 -53.5t-144 -19q-68 0 -124.5 15.5t-96.5 40.5l58 146q42 -22 85.5 -34t93.5 -12q59 0 90.5 27.5t31.5 72.5q0 15 -7 28t-25.5 22.5
t-50.5 14.5t-81 5l19 137q54 0 89.5 6t55.5 17.5t28 28.5t8 39q0 26 -20.5 40t-69.5 14q-54 0 -102 -16t-92 -45l-26 145q51 35 118.5 56t137.5 21z" />
    <glyph glyph-name="four" unicode="4" horiz-adv-x="636" 
d="M518 133l-18 -133h-188l18 133h-322v121l354 496h243l-65 -460h66l-26 -157h-62zM399 521q3 21 9 40l-3 1l-10 -16q-5 -8 -12 -19l-139 -204l-12 -16q-6 -8 -12 -15l1 -2h137z" />
    <glyph glyph-name="five" unicode="5" horiz-adv-x="636" 
d="M585 581h-285l-23 -108q40 6 84 6q106 0 162.5 -44.5t56.5 -132.5q0 -20 -3 -42q-9 -62 -32 -112t-63 -85t-97.5 -54t-134.5 -19q-65 0 -124 13.5t-107 42.5l57 147q43 -23 82 -34.5t94 -11.5q66 0 93.5 29.5t27.5 84.5q0 34 -23.5 49t-72.5 15q-32 0 -70 -5.5t-70 -15.5
l-59 74l83 372h440z" />
    <glyph glyph-name="six" unicode="6" horiz-adv-x="636" 
d="M382 493q104 0 157.5 -44.5t53.5 -134.5q0 -29 -6.5 -64.5t-22 -71.5t-39.5 -70t-59.5 -60t-82 -42t-106.5 -16q-122 0 -186.5 60t-64.5 200q0 25 1.5 52.5t6.5 57.5q27 194 127.5 297t270.5 103q52 0 95 -6.5t81 -22.5l-35 -155q-33 11 -66 16.5t-72 5.5q-80 0 -122 -34
t-62 -100l1 -1q29 14 61.5 22t68.5 8zM322 350q-9 0 -21 -2.5t-24.5 -7t-23.5 -11.5t-18 -15q-6 -47 -6 -77q0 -51 16.5 -70.5t51.5 -19.5q26 0 44 14t29 36t16 47t5 48q0 31 -16.5 44.5t-52.5 13.5z" />
    <glyph glyph-name="seven" unicode="7" horiz-adv-x="636" 
d="M629 587l-341 -587h-230l350 537q10 16 23 32l-1 2h-363l34 178h551z" />
    <glyph glyph-name="eight" unicode="8" horiz-adv-x="636" 
d="M515 399q32 -21 52 -53t20 -84q0 -17 -3 -38q-17 -116 -95.5 -175t-221.5 -59q-132 0 -194 48t-62 141q0 59 26.5 116t90.5 96v2q-20 21 -32 50.5t-12 69.5q0 56 18 101.5t54 78t90.5 50t128.5 17.5q123 0 178 -45.5t55 -122.5q0 -61 -25.5 -109t-67.5 -82v-2zM270 313
q-29 -21 -45.5 -48.5t-16.5 -62.5t21.5 -49.5t64.5 -14.5q18 0 34.5 4t29 13.5t20.5 25t8 39.5q0 34 -28.5 52t-87.5 41zM354 615q-35 0 -58 -18.5t-23 -60.5q0 -32 27.5 -49t67.5 -30q27 20 42 44t15 57q0 57 -71 57z" />
    <glyph glyph-name="nine" unicode="9" horiz-adv-x="636" 
d="M365 759q120 0 184 -65t64 -199q0 -22 -1.5 -45t-5.5 -48q-15 -108 -47 -186t-80 -128.5t-113.5 -74t-147.5 -23.5q-67 0 -111 9t-84 27l51 153q34 -14 69 -21.5t79 -7.5q37 0 64.5 8.5t47.5 26.5t33.5 45.5t23.5 64.5l-2 2q-56 -28 -133 -28q-105 0 -155.5 50.5
t-50.5 135.5q0 69 21 125t61 96t99 61.5t134 21.5zM411 461q2 14 3 26.5t1 23.5q0 52 -20 71t-55 19q-42 0 -67.5 -27.5t-25.5 -92.5q0 -33 16.5 -48.5t54.5 -15.5q32 0 56 11t37 33z" />
    <glyph glyph-name="colon" unicode=":" horiz-adv-x="280" 
d="M171 572q49 0 71.5 -19.5t22.5 -56.5q0 -55 -29.5 -87t-92.5 -32q-50 0 -73 16.5t-23 55.5q0 59 30.5 91t93.5 32zM116 183q49 0 71.5 -19.5t22.5 -56.5q0 -55 -29.5 -87t-91.5 -32q-51 0 -74 17t-23 57q0 58 30.5 89.5t93.5 31.5z" />
    <glyph glyph-name="semicolon" unicode=";" horiz-adv-x="281" 
d="M172 572q49 0 71.5 -19.5t22.5 -56.5q0 -55 -29.5 -87t-92.5 -32q-50 0 -73 16.5t-23 55.5q0 59 30.5 91t93.5 32zM117 181q45 0 68.5 -23t23.5 -67q0 -31 -12.5 -63t-33.5 -63t-48.5 -59.5t-58.5 -51.5l-56 37q16 23 30.5 48t26.5 51q-27 2 -43 20t-16 50q0 55 32 88
t87 33z" />
    <glyph glyph-name="less" unicode="&#x3c;" 
d="M344 345q-9 -5 -18.5 -8.5t-18.5 -7.5v-2q9 -3 18 -7t19 -9l177 -86v-172l-439 230v92l439 232v-180z" />
    <glyph glyph-name="equal" unicode="=" 
d="M72 361v139h459v-139h-459zM72 147v140h459v-140h-459z" />
    <glyph glyph-name="greater" unicode="&#x3e;" 
d="M82 225l176 85q9 5 18.5 9t18.5 7v2q-9 4 -18.5 7.5t-18.5 8.5l-176 83v180l439 -232v-92l-439 -230v172z" />
    <glyph glyph-name="question" unicode="?" horiz-adv-x="506" 
d="M296 759q112 0 166.5 -44.5t54.5 -119.5q0 -47 -15 -86t-41 -72t-63 -60t-80 -48l-21 -102h-152l14 168q33 16 61 32t48.5 34t32 38t11.5 43q0 49 -68 49q-39 0 -75 -12.5t-65 -35.5l-48 145q43 32 107.5 51.5t132.5 19.5zM212 164q48 0 69.5 -18.5t21.5 -51.5
q0 -48 -28 -77t-88 -29q-48 0 -71 15.5t-23 50.5q0 52 29.5 81t89.5 29z" />
    <glyph glyph-name="at" unicode="@" horiz-adv-x="911" 
d="M488 601q56 0 86 -38l21 32l101 -7l-81 -273q-5 -14 -8 -29.5t-3 -29.5q0 -18 9 -30.5t33 -12.5q21 0 42 10.5t38.5 34t31 61t21.5 91.5q2 15 3 29.5t1 28.5q0 52 -15 95t-45.5 74.5t-77.5 49t-111 17.5q-98 0 -173 -34.5t-125.5 -94t-76.5 -138.5t-26 -167
q0 -65 18 -118t55 -91t93.5 -58.5t134.5 -20.5q54 0 101 8.5t87 23t73.5 32.5t60.5 37l29 -91q-29 -21 -67.5 -40.5t-85 -34.5t-100.5 -24.5t-113 -9.5q-93 0 -167 24t-125 71t-78.5 116.5t-27.5 159.5q0 106 35.5 205.5t103.5 176t166 123t224 46.5q81 0 145 -24t108 -67
t67 -103.5t23 -132.5q0 -17 -1.5 -33.5t-3.5 -33.5q-12 -86 -40.5 -146t-66 -97.5t-80.5 -54.5t-85 -17q-50 0 -81.5 17t-45.5 48q-28 -29 -67.5 -47t-90.5 -18q-55 0 -91.5 37.5t-36.5 112.5q0 68 24 132t63.5 113.5t91 79.5t106.5 30zM512 456q-8 20 -32 20
q-21 0 -42.5 -18.5t-39 -48.5t-28 -67t-10.5 -73q0 -20 7.5 -32t26.5 -12q23 0 45 24.5t33 68.5z" />
    <glyph glyph-name="A" unicode="A" horiz-adv-x="749" 
d="M451 136h-227l-54 -136h-222l353 750h252l148 -750h-235zM400 584q-3 -10 -6.5 -19t-7.5 -19l-101 -255h148l-28 252q-2 14 -2.5 23t-0.5 18h-2z" />
    <glyph glyph-name="B" unicode="B" horiz-adv-x="694" 
d="M433 750q120 0 177.5 -44.5t57.5 -120.5q0 -74 -35.5 -120t-87.5 -68v-2q101 -33 101 -140q0 -117 -80.5 -186t-238.5 -69h-322l105 750h323zM228 156h123q41 0 63.5 20.5t22.5 80.5q0 30 -15 43t-52 13h-120zM271 450h114q38 0 57.5 20t19.5 72q0 28 -14 38.5t-45 10.5
h-112z" />
    <glyph glyph-name="C" unicode="C" horiz-adv-x="592" 
d="M450 763q45 0 91 -8t78 -21l-42 -161q-27 9 -61.5 15t-75.5 6q-47 0 -78 -10.5t-51.5 -35.5t-32.5 -66.5t-21 -103.5q-9 -59 -9 -99q0 -71 30.5 -98t101.5 -27q40 0 75.5 7t67.5 20l-2 -155q-41 -18 -93 -29t-101 -11q-150 0 -224.5 70.5t-74.5 218.5q0 24 2 50t6 54
q13 93 44 164.5t82 120t122.5 74t165.5 25.5z" />
    <glyph glyph-name="D" unicode="D" horiz-adv-x="729" 
d="M405 750q157 0 230 -65t73 -204q0 -23 -2 -48.5t-6 -53.5q-14 -102 -46.5 -174t-82 -117.5t-117 -66.5t-151.5 -21h-298l105 750h295zM239 170h83q36 0 61.5 7.5t43.5 30t30 63.5t22 109q4 28 6 51t2 42q0 32 -6 52.5t-19 32.5t-33.5 16.5t-48.5 4.5h-83z" />
    <glyph glyph-name="E" unicode="E" horiz-adv-x="616" 
d="M562 165l-26 -165h-531l105 750h517l-20 -167h-310l-17 -125h256l-21 -150h-256l-20 -143h323z" />
    <glyph glyph-name="F" unicode="F" horiz-adv-x="591" 
d="M297 580l-20 -141h256l-24 -160h-254l-39 -279h-211l106 750h515l-21 -170h-308z" />
    <glyph glyph-name="G" unicode="G" horiz-adv-x="669" 
d="M579 23q-44 -17 -107 -27t-124 -10q-86 0 -147 18.5t-99.5 54.5t-56.5 89.5t-18 123.5q0 24 2 49.5t6 53.5q27 192 129.5 290t299.5 98q54 0 109 -8.5t98 -24.5l-42 -166q-38 15 -85.5 23t-90.5 8q-51 0 -85 -10t-56 -35t-35 -67t-22 -106q-9 -62 -9 -103q0 -35 7 -58.5
t21.5 -37t37 -19t54.5 -5.5q11 0 22.5 1t23.5 3l35 248h186z" />
    <glyph glyph-name="H" unicode="H" horiz-adv-x="735" 
d="M420 0l41 296h-204l-41 -296h-211l105 750h211l-40 -285h204l40 285h210l-105 -750h-210z" />
    <glyph glyph-name="I" unicode="I" horiz-adv-x="344" 
d="M120 750h215l-105 -750h-215z" />
    <glyph glyph-name="J" unicode="J" horiz-adv-x="541" 
d="M475 286q-12 -85 -42 -142.5t-75.5 -92.5t-106.5 -50t-135 -15q-45 0 -81.5 7.5t-65.5 20.5l33 158q18 -10 45 -15t59 -5q70 0 107 29t48 102l66 467h213z" />
    <glyph glyph-name="K" unicode="K" horiz-adv-x="731" 
d="M426 0l-113 306h-54l-43 -306h-211l105 750h210l-41 -288h57l196 288h238l-251 -354l158 -396h-251z" />
    <glyph glyph-name="L" unicode="L" horiz-adv-x="565" 
d="M524 170l-28 -170h-491l105 750h212l-82 -580h284z" />
    <glyph glyph-name="M" unicode="M" horiz-adv-x="927" 
d="M340 750l103 -421q2 -10 4.5 -20.5t4.5 -19.5h2q4 9 8.5 18t9.5 18l225 425h230l-105 -750h-192l50 361q2 10 4 20.5t5 20.5l-2 1l-209 -403h-137l-94 403h-2q-1 -10 -1.5 -20.5t-2.5 -20.5l-50 -362h-186l105 750h230z" />
    <glyph glyph-name="N" unicode="N" horiz-adv-x="741" 
d="M489 0l-239 429l-2 -1q-2 -10 -2 -20.5t-2 -20.5l-54 -387h-185l105 750h175l215 -404l1 1q0 10 1 20t3 20l51 363h185l-105 -750h-147z" />
    <glyph glyph-name="O" unicode="O" horiz-adv-x="752" 
d="M722 375q-14 -101 -44 -174.5t-78.5 -121t-116.5 -70.5t-159 -23q-153 0 -225 69t-72 213q0 25 1.5 51.5t6.5 55.5q14 99 44 172t78.5 121t117 71t158.5 23q154 0 225.5 -68t71.5 -210q0 -25 -2 -52.5t-6 -56.5zM501 375q5 35 7.5 62t2.5 49q0 65 -24.5 87t-77.5 22
q-35 0 -59.5 -9t-42 -33t-29.5 -67t-22 -111q-9 -66 -9 -109q0 -33 6 -55t18 -35t31 -18t45 -5q35 0 60 9.5t43 34t30 67.5t21 111z" />
    <glyph glyph-name="P" unicode="P" horiz-adv-x="671" 
d="M391 750q148 0 214 -51t66 -155q0 -74 -20.5 -132.5t-63 -99.5t-109.5 -62.5t-160 -21.5h-70l-32 -228h-211l105 750h281zM268 381h71q28 0 49.5 5.5t36 21.5t21.5 44t7 73q0 39 -19 52.5t-65 13.5h-71z" />
    <glyph glyph-name="Q" unicode="Q" horiz-adv-x="752" 
d="M433 762q154 0 225.5 -68t71.5 -210q0 -25 -2 -52.5t-6 -56.5q-21 -151 -77.5 -240t-157.5 -123l116 -107l-237 -57l-66 139q-141 5 -207 74t-66 207q0 25 1.5 51.5t6.5 55.5q14 99 44 172t78.5 121t117 71t158.5 23zM501 375q5 35 7.5 62t2.5 49q0 65 -24.5 87t-77.5 22
q-35 0 -59.5 -9t-42 -33t-29.5 -67t-22 -111q-9 -66 -9 -109q0 -33 6 -55t18 -35t31 -18t45 -5q35 0 60 9.5t43 34t30 67.5t21 111z" />
    <glyph glyph-name="R" unicode="R" horiz-adv-x="692" 
d="M398 750q136 0 204 -47t68 -148q0 -93 -40 -159.5t-105 -91.5l121 -304h-245l-74 263h-75l-36 -263h-211l105 750h288zM273 409h77q22 0 38.5 3.5t28.5 14t19.5 28.5t11.5 47q3 18 3 32q0 35 -17.5 46.5t-56.5 11.5h-78z" />
    <glyph glyph-name="S" unicode="S" horiz-adv-x="584" 
d="M377 763q56 0 112.5 -10t99.5 -28l-45 -162q-48 14 -93 22t-86 8q-63 0 -84.5 -18t-21.5 -45q0 -21 21.5 -34.5t53.5 -26t69.5 -26.5t69.5 -36.5t53.5 -56t21.5 -85.5q0 -64 -24.5 -115.5t-68.5 -88t-104.5 -56t-131.5 -19.5q-66 0 -125 14t-107 40l48 166
q48 -25 98.5 -39t105.5 -14q102 0 102 68q0 22 -21.5 36t-53.5 26.5t-69 27t-69 37t-53.5 56.5t-21.5 86q0 54 20 103.5t60.5 87t101.5 60t142 22.5z" />
    <glyph glyph-name="T" unicode="T" horiz-adv-x="606" 
d="M440 579l-81 -579h-212l81 579h-187l28 171h578l-19 -171h-188z" />
    <glyph glyph-name="U" unicode="U" horiz-adv-x="720" 
d="M660 268q-20 -140 -106 -211t-244 -71q-280 0 -280 224q0 14 1 28.5t3 29.5l68 482h210l-69 -488q-1 -8 -1.5 -15t-0.5 -14q0 -40 21.5 -58.5t70.5 -18.5q57 0 83 24.5t34 81.5l69 488h209z" />
    <glyph glyph-name="V" unicode="V" horiz-adv-x="722" 
d="M781 750l-353 -750h-234l-143 750h231l58 -500q2 -12 3 -22.5t1 -18.5h2q3 9 6.5 19t7.5 19l203 503h218z" />
    <glyph glyph-name="W" unicode="W" horiz-adv-x="1053" 
d="M699 750l23 -503q1 -11 1 -21v-20h2q2 9 4.5 18.5t6.5 20.5l153 505h208l-279 -750h-250l-17 493v41h-2q-5 -20 -11 -39l-152 -495h-251l-69 750h218l10 -506v-41h2q2 8 5 18.5t6 20.5l166 508h226z" />
    <glyph glyph-name="X" unicode="X" horiz-adv-x="722" 
d="M512 392l152 -392h-237l-68 214q-3 9 -6 19t-5 20h-2q-4 -9 -9 -18.5t-10 -17.5l-127 -217h-242l256 388l-148 362h248l61 -186l6 -20q3 -10 5 -19h2q4 8 9.5 17.5t10.5 17.5l117 190h239z" />
    <glyph glyph-name="Y" unicode="Y" horiz-adv-x="715" 
d="M287 750l75 -289q2 -10 4.5 -20t4.5 -20h2q3 9 8 18l10 18l154 293h229l-324 -517l-32 -233h-215l32 233l-184 517h236z" />
    <glyph glyph-name="Z" unicode="Z" horiz-adv-x="619" 
d="M-23 0l17 128l348 420q13 17 27 29l-1 2h-304l30 171h546l-20 -143l-337 -406q-8 -10 -14 -16.5t-13 -12.5l1 -2h304l-25 -170h-559z" />
    <glyph glyph-name="bracketleft" unicode="[" horiz-adv-x="368" 
d="M126 781h298l-17 -126h-123l-94 -665h123l-17 -123h-298z" />
    <glyph glyph-name="backslash" unicode="\" horiz-adv-x="373" 
d="M189 780l164 -899h-157l-166 899h159z" />
    <glyph glyph-name="bracketright" unicode="]" horiz-adv-x="368" 
d="M231 -133h-296l16 123h123l94 665h-123l17 126h297z" />
    <glyph glyph-name="asciicircum" unicode="^" horiz-adv-x="636" 
d="M338 630q-12 18 -20 35h-2q-8 -17 -20 -35l-101 -166h-153l211 340h131l207 -340h-151z" />
    <glyph glyph-name="underscore" unicode="_" horiz-adv-x="408" 
d="M346 -35l-16 -109h-393l15 109h394z" />
    <glyph glyph-name="grave" unicode="`" horiz-adv-x="409" 
d="M230 653l-106 146h218l33 -146h-145z" />
    <glyph glyph-name="a" unicode="a" horiz-adv-x="627" 
d="M388 621q31 0 54 -1.5t44 -4t43.5 -4t54.5 -1.5h28l-85 -610h-150l-10 50l-2 1q-37 -33 -80.5 -47.5t-88.5 -14.5q-188 0 -188 209q0 92 27 169.5t76.5 134t120 88t156.5 31.5zM266 140q38 0 66.5 30.5t36.5 81.5l30 213q-8 1 -16.5 1.5t-19.5 0.5q-27 0 -51.5 -9.5
t-44.5 -32t-34.5 -59t-21.5 -89.5q-6 -39 -6 -66q0 -41 14.5 -56t46.5 -15z" />
    <glyph glyph-name="b" unicode="b" horiz-adv-x="631" 
d="M424 621q92 0 137.5 -50t45.5 -162q0 -48 -9 -109q-12 -82 -39.5 -141t-68.5 -97t-95.5 -56t-118.5 -18q-79 0 -141.5 18.5t-123.5 54.5l100 714l196 8l-23 -162q-2 -10 -3.5 -21t-3.5 -19l1 -1q33 22 70.5 31.5t75.5 9.5zM348 466q-39 0 -67 -33t-36 -88l-27 -189
q30 -16 65 -16q24 0 43 7t33 25.5t24.5 50.5t17.5 83q4 26 5.5 46t1.5 36q0 47 -15 62.5t-45 15.5z" />
    <glyph glyph-name="c" unicode="c" horiz-adv-x="488" 
d="M338 621q50 0 89 -10t72 -29l-70 -135q-17 8 -36 11.5t-42 3.5q-27 0 -49 -7.5t-39 -25.5t-29 -49t-19 -79q-2 -17 -3.5 -32t-1.5 -29q0 -29 5.5 -48.5t16 -31t25.5 -16.5t34 -5q31 0 55.5 10.5t44.5 27.5l50 -113q-45 -41 -95 -58.5t-115 -17.5q-49 0 -89 13.5t-69 42.5
t-45 74.5t-16 109.5q0 38 6 83q23 158 105.5 234t214.5 76z" />
    <glyph glyph-name="d" unicode="d" horiz-adv-x="629" 
d="M331 621q24 0 46 -2t43 -6l22 162l195 8l-110 -783h-149l-12 49q-38 -32 -83 -46t-92 -14q-91 0 -136.5 50t-45.5 162q0 109 24.5 188.5t67.5 131t102 76t128 24.5zM266 140q38 0 66.5 30.5t36.5 81.5l29 208q-20 4 -53 4q-52 0 -85.5 -40t-46.5 -136q-6 -45 -6 -74
q0 -44 14.5 -59t44.5 -15z" />
    <glyph glyph-name="e" unicode="e" horiz-adv-x="540" 
d="M341 623q92 0 142.5 -41.5t50.5 -109.5q0 -52 -19 -92t-59.5 -70t-103 -50t-149.5 -32q1 -50 25 -68.5t72 -18.5q38 0 72.5 11t62.5 31l48 -115q-40 -33 -100 -56t-139 -23q-52 0 -94.5 14t-73 43.5t-47.5 75.5t-17 110q0 35 6 79q22 155 104 233.5t219 78.5zM322 479
q-42 0 -66.5 -28t-39.5 -97q42 7 70 17t45 22t24 26t7 29q0 31 -40 31z" />
    <glyph glyph-name="f" unicode="f" horiz-adv-x="396" 
d="M55 601h58q7 49 27 88t58.5 65t99 40t149.5 14l-9 -135q-37 0 -61 -3.5t-38.5 -12t-21.5 -22t-10 -34.5h120l-26 -133h-113l-65 -468h-194l65 468h-64z" />
    <glyph glyph-name="g" unicode="g" horiz-adv-x="622" 
d="M535 89q-10 -69 -40 -117.5t-74.5 -79.5t-100.5 -45t-117 -14q-48 0 -95.5 8.5t-86.5 24.5l35 140q72 -26 132 -26q63 0 103 23t52 84l-2 2q-29 -26 -64 -36.5t-74 -10.5q-40 0 -73 11t-57 35.5t-37 63.5t-13 95q0 81 22.5 149.5t66.5 118.5t108.5 78t149.5 28
q45 0 86 -5t84 -5h68zM277 192q32 0 58.5 25t34.5 78l25 176q-8 1 -18 1h-20q-31 0 -56 -15t-43 -42t-28 -65t-10 -85q0 -42 14 -57.5t43 -15.5z" />
    <glyph glyph-name="h" unicode="h" horiz-adv-x="634" 
d="M349 0l51 364q3 21 3 36q0 33 -13.5 46t-40.5 13q-40 0 -68 -31.5t-36 -86.5l-48 -341h-194l108 774l196 9l-23 -162q-2 -10 -3.5 -21t-3.5 -19l1 -1q64 43 148 43q87 0 130 -47.5t43 -139.5q0 -16 -1.5 -32.5t-3.5 -34.5l-51 -369h-194z" />
    <glyph glyph-name="i" unicode="i" horiz-adv-x="306" 
d="M6 0l85 605l195 9l-86 -614h-194zM214 807q51 0 73.5 -16t22.5 -46q0 -86 -117 -86q-49 0 -72 13t-23 45q0 44 28 67t88 23z" />
    <glyph glyph-name="j" unicode="j" horiz-adv-x="316" 
d="M222 88q-10 -68 -37 -115.5t-67.5 -77.5t-92.5 -44.5t-113 -17.5l6 132q25 3 44 10t32 21t21 36t13 55l73 518l195 9zM221 807q51 0 73.5 -16t22.5 -46q0 -86 -117 -86q-49 0 -72 13t-23 45q0 44 28 67t88 23z" />
    <glyph glyph-name="k" unicode="k" horiz-adv-x="651" 
d="M3 0l108 774l196 9l-27 -189q-2 -10 -3.5 -21t-3.5 -19l1 -1q45 35 93 52.5t96 17.5q77 0 113 -36t36 -102t-33.5 -131.5t-102.5 -115.5q20 -45 51.5 -69.5t82.5 -34.5l-42 -142q-63 0 -115.5 20t-91.5 57.5t-62.5 92t-27.5 124.5q33 12 60 29.5t46 36.5t29 39.5t10 38.5
q0 14 -7.5 22t-25.5 8q-21 0 -45 -13.5t-45.5 -42t-39 -72.5t-25.5 -105l-31 -227h-194z" />
    <glyph glyph-name="l" unicode="l" horiz-adv-x="301" 
d="M3 0l108 774l196 9l-110 -783h-194z" />
    <glyph glyph-name="m" unicode="m" horiz-adv-x="939" 
d="M377 358q3 22 3 39q0 32 -11.5 46t-35.5 14q-36 0 -60.5 -29.5t-31.5 -80.5l-48 -347h-194l85 606l152 9l8 -56h3q32 31 75 47.5t94 16.5q101 0 139 -80q35 38 83 59t105 21q81 0 120.5 -50t39.5 -143q0 -17 -1.5 -34.5t-3.5 -37.5l-50 -358h-194l50 358q3 22 3 40
q0 32 -11.5 45t-34.5 13q-38 0 -62 -33t-32 -93l-46 -330h-194z" />
    <glyph glyph-name="n" unicode="n" horiz-adv-x="630" 
d="M395 362q3 21 3 37q0 33 -13 46.5t-40 13.5q-39 0 -67.5 -31t-36.5 -85l-48 -343h-194l85 606l152 9l9 -56h3q33 31 76.5 47.5t97.5 16.5q87 0 130 -47.5t43 -139.5q0 -16 -1.5 -32.5t-3.5 -34.5l-51 -369h-194z" />
    <glyph glyph-name="o" unicode="o" horiz-adv-x="611" 
d="M322 469q-23 0 -40 -6.5t-29.5 -24.5t-22 -51t-16.5 -87q-4 -27 -6 -48.5t-2 -38.5q0 -49 16.5 -64t49.5 -15q23 0 40.5 6.5t30.5 25t22.5 52.5t17.5 88q4 26 5.5 46t1.5 36q0 50 -17 65.5t-51 15.5zM347 623q128 0 183.5 -58.5t55.5 -171.5q0 -21 -1.5 -44t-5.5 -49
q-11 -80 -35.5 -138.5t-65 -97t-97 -57.5t-132.5 -19q-128 0 -183.5 57.5t-55.5 170.5q0 22 1.5 45t5.5 49q11 79 35.5 138t65 98t97 58t132.5 19z" />
    <glyph glyph-name="p" unicode="p" horiz-adv-x="627" 
d="M420 623q92 0 137.5 -50t45.5 -163q0 -49 -9 -110q-12 -82 -35.5 -141t-57.5 -97t-78 -56t-95 -18q-40 0 -72.5 8.5t-60.5 23.5l-24 -176h-194l107 762l152 9l8 -54h3q36 33 81 47.5t92 14.5zM345 466q-40 0 -68 -33.5t-36 -87.5l-26 -183q14 -9 31 -14.5t37 -5.5
q24 0 42 7.5t31.5 26t23.5 50.5t17 80q4 25 5.5 45t1.5 36q0 47 -15 63t-44 16z" />
    <glyph glyph-name="q" unicode="q" horiz-adv-x="627" 
d="M388 621q33 0 56 -1.5t43.5 -3.5t43 -3.5t55.5 -1.5h26l-107 -767h-193l20 144q2 10 3.5 20t3.5 20l-2 2q-32 -23 -68.5 -32t-72.5 -9q-188 0 -188 209q0 92 27 169.5t76.5 134t120 88t156.5 31.5zM266 140q38 0 66.5 29t35.5 78l31 220q-8 1 -16.5 1.5t-18.5 0.5
q-27 0 -51.5 -10t-44.5 -32.5t-34.5 -59t-22.5 -90.5q-3 -20 -4 -35.5t-1 -28.5q0 -42 14 -57.5t46 -15.5z" />
    <glyph glyph-name="r" unicode="r" horiz-adv-x="465" 
d="M415 622q23 0 43.5 -5t33.5 -13l-54 -182q-13 8 -27 11.5t-33 3.5q-53 0 -94.5 -44t-53.5 -128l-37 -265h-194l85 605l152 9l4 -41q1 -11 2 -20.5t1 -19.5l2 -1q35 44 77 67t93 23z" />
    <glyph glyph-name="s" unicode="s" horiz-adv-x="481" 
d="M312 623q47 0 90 -10.5t75 -29.5l-72 -134q-25 11 -57 15.5t-65 4.5q-28 0 -42.5 -11.5t-14.5 -29.5q0 -17 16 -27.5t39.5 -19.5t51 -19.5t51 -28t39.5 -43.5t16 -66q0 -7 -0.5 -14t-1.5 -15q-6 -46 -23 -84t-47.5 -65t-76 -42t-108.5 -15q-60 0 -111 15.5t-89 41.5
l58 135q34 -23 73 -34t73 -11q33 0 49.5 13t16.5 35q0 18 -16 29.5t-39.5 21.5t-51.5 22t-51.5 30t-39.5 45t-16 69q0 48 18 88.5t52.5 70t86 46.5t117.5 17z" />
    <glyph glyph-name="t" unicode="t" horiz-adv-x="421" 
d="M40 601h79l45 143l155 16l-22 -159h137l-27 -144h-130l-33 -235q-1 -7 -1.5 -13t-0.5 -11q0 -27 12 -39t37 -12q13 0 30.5 4t31.5 11l-2 -139q-24 -13 -63 -21.5t-75 -8.5q-84 0 -126.5 42.5t-42.5 124.5q0 12 1 25.5t3 27.5l35 244h-70z" />
    <glyph glyph-name="u" unicode="u" horiz-adv-x="621" 
d="M561 222q-16 -115 -91 -174t-212 -59q-122 0 -180.5 47.5t-58.5 138.5q0 23 3 47l54 384l195 9l-55 -393q-1 -5 -1.5 -9.5t-0.5 -9.5q0 -29 16 -43t51 -14q39 0 59.5 18t26.5 58l54 387h194z" />
    <glyph glyph-name="v" unicode="v" horiz-adv-x="613" 
d="M586 632q11 -61 11 -132q0 -90 -21 -163t-55 -130t-75.5 -98t-82.5 -67.5t-76.5 -39t-57.5 -12.5q-13 0 -32.5 6t-41 19.5t-42.5 35.5t-38.5 54.5t-28 76.5t-10.5 101q0 21 1.5 43.5t5.5 46.5l33 233l195 8l-34 -241q-4 -29 -6 -52t-2 -43q0 -34 4.5 -55.5t11 -34
t13.5 -17.5t13 -5q13 0 35.5 21t44.5 64t38.5 109.5t16.5 158.5q0 21 -1 40t-3 33z" />
    <glyph glyph-name="w" unicode="w" horiz-adv-x="927" 
d="M900 632q6 -29 9 -64t3 -70q0 -87 -20 -158t-52 -127.5t-71.5 -98.5t-79 -69.5t-74 -41t-56.5 -13.5q-12 0 -30.5 7.5t-38.5 24.5t-39 44.5t-32 67.5h-1q-28 -37 -58 -64.5t-58 -45.5t-51.5 -26.5t-38.5 -8.5q-17 0 -47 14t-58.5 48t-49.5 90t-21 140q0 22 1.5 45.5
t5.5 49.5l33 230l195 8l-34 -239q-5 -30 -6.5 -54.5t-1.5 -44.5q0 -32 4 -52t9.5 -31t11.5 -15.5t11 -4.5q7 0 22 12t31 39t31 69.5t24 103.5l30 210h194l-33 -232q-5 -29 -6 -52t-1 -43q0 -32 4 -53t10 -33t12.5 -16.5t12.5 -4.5q10 0 31 18.5t42 59.5t36.5 107t15.5 161
q0 21 -1 40t-3 33z" />
    <glyph glyph-name="x" unicode="x" horiz-adv-x="639" 
d="M-45 0l226 321l-131 285l222 8l51 -152q3 -10 6.5 -20t5.5 -19h2q8 17 20 35l96 153h206l-216 -307l135 -304h-217l-58 162q-4 9 -7 19t-5 20h-2q-8 -17 -20 -35l-105 -166h-209z" />
    <glyph glyph-name="y" unicode="y" horiz-adv-x="615" 
d="M614 611q-30 -136 -79 -255.5t-116 -217.5t-151 -173.5t-182 -123.5l-64 140q85 46 149 114l-129 505l215 15l52 -287q2 -13 3.5 -22.5t2.5 -17.5h2q34 73 61 154.5t47 168.5h189z" />
    <glyph glyph-name="z" unicode="z" horiz-adv-x="536" 
d="M252 176q-7 -8 -13.5 -15t-13.5 -13l1 -2h253l-25 -146h-474l17 128l265 306q11 13 27 28l-1 2h-237l27 147h455l-17 -127z" />
    <glyph glyph-name="braceleft" unicode="{" horiz-adv-x="397" 
d="M301 438q-11 -76 -74 -112q44 -32 44 -91v-10q0 -5 -1 -10q-6 -41 -15 -73t-14 -67q-1 -5 -1 -15q0 -27 15.5 -45t51.5 -18h36l-19 -133h-26q-64 0 -109 10t-73 29.5t-40.5 47.5t-12.5 64q0 22 6 50t13.5 56.5t14 56t6.5 50.5q0 24 -13 40t-33 22l10 72q23 7 42 25.5
t24 47.5q5 37 4.5 81t5.5 85q6 44 24.5 78.5t52 58.5t85 37t123.5 13h26l-18 -133h-36q-42 0 -61 -20.5t-25.5 -52.5t-7 -70.5t-5.5 -73.5z" />
    <glyph glyph-name="bar" unicode="|" horiz-adv-x="296" 
d="M72 805h150v-983h-150v983z" />
    <glyph glyph-name="braceright" unicode="}" horiz-adv-x="397" 
d="M87 215q5 36 24 64.5t49 46.5q-44 30 -44 89q0 6 0.5 11.5t1.5 11.5q6 41 15 72.5t14 66.5q1 5 1 15q0 27 -16 45t-51 18h-36l18 133h26q64 0 109 -10.5t73.5 -30t41 -47.5t12.5 -64q0 -23 -6.5 -51t-14 -56.5t-13.5 -56.5t-6 -50q0 -23 12.5 -38.5t32.5 -21.5l-10 -72
q-24 -7 -42.5 -25.5t-22.5 -47.5q-5 -37 -5 -81t-5 -84q-6 -44 -24.5 -79t-52.5 -59t-85.5 -37t-123.5 -13h-25l18 133h36q42 0 60.5 20t25 51.5t7 70.5t6.5 76z" />
    <glyph glyph-name="asciitilde" unicode="~" horiz-adv-x="636" 
d="M57 574q6 210 157 210q30 0 57.5 -10t53 -21.5t48.5 -21.5t45 -10q23 0 36 15.5t15 32.5h108q-2 -106 -43.5 -157.5t-113.5 -51.5q-30 0 -57 10t-51.5 21.5t-47 21.5t-43.5 10q-23 0 -38 -14.5t-18 -34.5h-108z" />
    <glyph glyph-name="uni00A0" unicode="&#xa0;" horiz-adv-x="237" 
 />
    <glyph glyph-name="exclamdown" unicode="&#xa1;" horiz-adv-x="302" 
d="M240 429l-57 -561h-202l101 561h158zM190 656q48 0 70.5 -15.5t22.5 -50.5q0 -52 -29 -81t-89 -29q-50 0 -71.5 18.5t-21.5 53.5q0 48 29 76t89 28z" />
    <glyph glyph-name="cent" unicode="&#xa2;" horiz-adv-x="636" 
d="M512 729l-26 -117q21 -5 39.5 -12.5t35.5 -17.5l-70 -135q-17 8 -36 11.5t-42 3.5q-27 0 -49 -7.5t-39 -25.5t-29 -49t-19 -79q-2 -17 -3.5 -32t-1.5 -29q0 -29 5.5 -48.5t16 -31t25.5 -16.5t34 -5q31 0 55.5 10.5t44.5 27.5l50 -113q-61 -55 -137 -70l-26 -115h-148
l26 119q-66 18 -105 73t-39 157q0 88 19.5 156.5t54.5 117t83.5 77t106.5 37.5l26 113h148z" />
    <glyph glyph-name="sterling" unicode="&#xa3;" horiz-adv-x="636" 
d="M67 440h45q-3 17 -5.5 33.5t-2.5 34.5q0 48 18.5 94t59.5 82t105 58t156 22q59 0 101 -8.5t74 -20.5l-45 -163q-27 9 -61 15.5t-69 6.5q-42 0 -68 -8.5t-41 -23.5t-20.5 -35t-5.5 -43q0 -11 1 -22t3 -22h229l-19 -141h-195l-3 -23q-5 -38 -24 -67t-48 -47l1 -2
q39 9 80.5 12.5t80.5 3.5q45 0 80.5 -3t72.5 -8l-34 -173q-117 15 -238 15q-35 0 -68 -0.5t-67 -2t-70 -3.5t-78 -6l13 168q43 6 72 36.5t34 67.5q2 8 2 16t1 16h-79z" />
    <glyph glyph-name="currency" unicode="&#xa4;" horiz-adv-x="636" 
d="M346 565q42 0 79 -17l86 75l83 -97l-83 -73q11 -31 11 -63q0 -27 -7.5 -55t-22.5 -53l59 -67l-112 -98l-56 64q-22 -10 -45.5 -15.5t-48.5 -5.5q-50 0 -89 21l-73 -64l-84 97l77 68q-3 13 -5 26.5t-2 27.5q0 31 10 61t26 56l-62 73l111 97l65 -75q39 17 83 17zM328 445
q-18 0 -34.5 -7.5t-29 -20t-20 -29t-7.5 -34.5q0 -29 19.5 -49t49.5 -20q19 0 35.5 7.5t29.5 20t20.5 29t7.5 34.5q0 29 -19.5 49t-51.5 20z" />
    <glyph glyph-name="yen" unicode="&#xa5;" horiz-adv-x="636" 
d="M167 369l-104 381h229l26 -327q1 -10 1.5 -20.5t0.5 -20.5h2q3 9 6 19.5t7 19.5l120 329h225l-206 -381h85l-15 -106h-126l-4 -35h126l-15 -106h-126l-17 -122h-224l17 122h-120l15 106h120l4 35h-120l15 106h78z" />
    <glyph glyph-name="brokenbar" unicode="&#xa6;" horiz-adv-x="296" 
d="M72 805h150v-433h-150v433zM72 263h150v-426h-150v426z" />
    <glyph glyph-name="section" unicode="&#xa7;" horiz-adv-x="574" 
d="M364 775q50 0 106 -9.5t94 -28.5l-32 -134q-48 17 -89.5 24.5t-86.5 7.5q-33 0 -52.5 -12t-19.5 -32q0 -16 19 -28.5t48 -25.5t62 -28.5t62 -38t48 -54t19 -76.5q0 -49 -25 -97.5t-76 -80.5q21 -20 34 -44.5t13 -55.5v-10q0 -4 -1 -9q-14 -93 -86 -140.5t-197 -47.5
q-24 0 -51 2.5t-53.5 7t-51 12t-43.5 16.5l31 134q48 -17 90 -24.5t87 -7.5q34 0 53 11t19 31q0 17 -19 29.5t-48 25.5t-62.5 28.5t-62.5 38.5t-48 54.5t-19 77.5q0 48 25 96.5t77 81.5q-21 20 -34 45t-13 61q0 50 24.5 87.5t64.5 62.5t91 37.5t103 12.5zM254 388
q-31 -17 -36 -49q0 -32 26 -53t71 -44q17 10 26.5 24t9.5 32q0 27 -28.5 48t-68.5 42z" />
    <glyph glyph-name="dieresis" unicode="&#xa8;" horiz-adv-x="401" 
d="M167 806q36 0 52.5 -14.5t16.5 -43.5q0 -44 -23 -65.5t-67 -21.5q-35 0 -52.5 12t-17.5 41q0 92 91 92zM363 806q36 0 52.5 -14.5t16.5 -42.5q0 -88 -90 -88q-35 0 -52 11.5t-17 40.5q0 93 90 93z" />
    <glyph glyph-name="copyright" unicode="&#xa9;" horiz-adv-x="850" 
d="M482 768q74 0 136.5 -26t108 -71t71 -106.5t25.5 -132.5q0 -90 -37.5 -171t-100.5 -141.5t-144 -96.5t-168 -36q-74 0 -136.5 25.5t-107.5 70.5t-70.5 106.5t-25.5 132.5q0 90 37 171t99.5 142t143.5 97t169 36zM469 672q-67 0 -128.5 -27.5t-109 -74t-75.5 -107
t-28 -127.5q0 -54 19 -101t52.5 -82.5t81 -55.5t104.5 -20q67 0 129 27.5t109.5 74.5t76 108.5t28.5 130.5q0 53 -19 99.5t-53.5 81t-82 54t-104.5 19.5zM468 630q54 0 94.5 -16.5t66.5 -41.5q-8 -32 -15.5 -63.5t-15.5 -63.5q-20 11 -48.5 19t-54.5 8q-63 0 -95 -32
t-32 -80q0 -38 25 -58.5t78 -20.5q29 0 60 8t50 19v-123q-15 -12 -36 -24t-45.5 -21.5t-51.5 -15.5t-54 -6q-51 0 -91.5 17t-69.5 46t-44.5 69t-15.5 87q0 55 21.5 107.5t60.5 93.5t93 66.5t120 25.5z" />
    <glyph glyph-name="ordfeminine" unicode="&#xaa;" horiz-adv-x="534" 
d="M358 828q26 0 44 -1.5t34.5 -3.5t35 -3.5t44.5 -1.5h23l-69 -495h-126l-11 45l-2 1q-27 -30 -62 -42.5t-70 -12.5q-72 0 -111 41t-39 129q0 73 22 136t62 109.5t97 72.5t128 26zM261 441q26 0 46 25.5t26 67.5l23 167q-5 1 -10 1h-9q-40 0 -69 -34t-42 -119
q-3 -19 -4 -33.5t-1 -25.5q0 -29 9 -39t31 -10z" />
    <glyph glyph-name="guillemotleft" unicode="&#xab;" horiz-adv-x="668" 
d="M473 318l130 -93l-19 -139l-296 226l2 12l359 226l-20 -139zM197 318l130 -93l-19 -139l-296 226l2 12l359 226l-20 -139z" />
    <glyph glyph-name="logicalnot" unicode="&#xac;" horiz-adv-x="636" 
d="M85 259v155h465v-301h-156v146h-309z" />
    <glyph glyph-name="uni00AD" unicode="&#xad;" horiz-adv-x="381" 
d="M348 407l-19 -130h-301l19 130h301z" />
    <glyph glyph-name="registered" unicode="&#xae;" horiz-adv-x="435" 
d="M286 834q37 0 69 -13.5t55 -36.5t36 -54.5t13 -68.5q0 -45 -19.5 -86t-51.5 -72t-73 -49t-85 -18q-38 0 -69.5 13t-55 36t-36.5 54t-13 67q0 46 19 87.5t51 72.5t73.5 49.5t86.5 18.5zM279 783q-33 0 -64 -14t-55 -37t-38.5 -54t-14.5 -65q0 -27 10 -50t27 -40t41 -27
t52 -10q33 0 63.5 13.5t54 36.5t38 53.5t14.5 64.5q0 27 -9.5 50.5t-26.5 41t-40.5 27.5t-51.5 10zM278 741q47 0 66 -17t19 -43q0 -21 -11 -39.5t-28 -27.5l21 -78h-80l-12 67h-16l-9 -67h-77l29 205h98zM244 649h22q11 0 16 6t5 14q0 13 -17 13h-22z" />
    <glyph glyph-name="macron" unicode="&#xaf;" horiz-adv-x="403" 
d="M419 674h-343l16 109h343z" />
    <glyph glyph-name="degree" unicode="&#xb0;" horiz-adv-x="340" 
d="M67 671q4 30 19 57t37.5 47t51 31.5t59.5 11.5q28 0 51.5 -9.5t40.5 -27t26.5 -40.5t9.5 -50q0 -34 -14 -64.5t-37.5 -53.5t-54 -36.5t-63.5 -13.5q-28 0 -51.5 9.5t-40.5 26.5t-26.5 40t-9.5 50q0 5 0.5 10.5t1.5 11.5zM151 671q-1 -4 -1 -10q0 -24 14.5 -38.5
t40.5 -14.5q30 0 51.5 20.5t21.5 52.5q0 24 -15 38.5t-40 14.5q-28 0 -48 -18t-24 -45z" />
    <glyph glyph-name="plusminus" unicode="&#xb1;" horiz-adv-x="636" 
d="M401 328v-142h-170v142h-153v152h153v146h170v-146h154v-152h-154zM79 20v135h475v-135h-475z" />
    <glyph glyph-name="twosuperior" unicode="&#xb2;" horiz-adv-x="386" 
d="M270 885q75 0 109.5 -29.5t34.5 -73.5q0 -32 -13 -57.5t-36.5 -48t-56 -43.5t-71.5 -43v-3h148l-16 -101h-313l11 80q46 35 84 62.5t65 50t42 41t15 35.5q0 13 -10.5 21t-36.5 8q-28 0 -54.5 -9t-57.5 -25l-17 95q38 19 81 29.5t92 10.5z" />
    <glyph glyph-name="threesuperior" unicode="&#xb3;" horiz-adv-x="386" 
d="M259 885q76 0 115.5 -26.5t39.5 -73.5q0 -34 -17 -58t-49 -38v-2q24 -10 37.5 -26.5t13.5 -41.5q0 -65 -51 -101.5t-150 -36.5q-42 0 -79 8.5t-63 24.5l40 89q26 -13 54 -20.5t60 -7.5q64 0 64 40q0 16 -19 23t-79 7l12 83q33 0 53.5 2.5t31.5 7t14.5 11.5t3.5 15
q0 11 -11 18t-40 7q-35 0 -64 -7.5t-58 -24.5l-17 87q32 20 74 30.5t84 10.5z" />
    <glyph glyph-name="acute" unicode="&#xb4;" horiz-adv-x="409" 
d="M464 799l-145 -146h-145l72 146h218z" />
    <glyph glyph-name="mu" unicode="&#xb5;" horiz-adv-x="634" 
d="M246 -8q-23 0 -41.5 8t-32.5 28l-2 -1q-2 -47 -4.5 -91.5t-3.5 -86.5l-187 -14l109 776h194l-55 -393q-1 -5 -1.5 -9.5t-0.5 -8.5q0 -23 12.5 -37.5t41.5 -14.5q37 0 67.5 28t37.5 73l51 362h193l-85 -607l-138 -10l-18 56h-2q-25 -26 -59 -42t-76 -16z" />
    <glyph glyph-name="paragraph" unicode="&#xb6;" horiz-adv-x="724" 
d="M103 -164l87 614q-63 3 -102.5 34.5t-39.5 93.5q0 37 13.5 68.5t38 54.5t60 36t80.5 13h511l-29 -146h-74l-108 -768h-168l108 768h-102l-107 -768h-168z" />
    <glyph glyph-name="periodcentered" unicode="&#xb7;" horiz-adv-x="304" 
d="M164 444q49 0 71.5 -19.5t22.5 -56.5q0 -55 -29.5 -87t-92.5 -32q-50 0 -73 16.5t-23 55.5q0 59 30.5 91t93.5 32z" />
    <glyph glyph-name="cedilla" unicode="&#xb8;" horiz-adv-x="409" 
d="M122 18h126l-62 -206h-170z" />
    <glyph glyph-name="onesuperior" unicode="&#xb9;" horiz-adv-x="293" 
d="M264 486h-130l29 208q2 10 3.5 20t3.5 20l-2 2q-8 -5 -18 -10l-18 -9l-46 -22l3 105l147 81h83z" />
    <glyph glyph-name="ordmasculine" unicode="&#xba;" horiz-adv-x="507" 
d="M508 570q-10 -69 -30 -117.5t-52 -79t-76.5 -44.5t-102.5 -14q-99 0 -146.5 41t-47.5 138q0 34 6 76q9 69 29.5 117.5t52.5 79.5t76 45.5t102 14.5q100 0 147.5 -42.5t47.5 -139.5q0 -35 -6 -75zM228 570q-3 -23 -5 -40t-2 -31q0 -35 11 -46t34 -11q15 0 26.5 5
t19.5 18.5t14.5 38.5t12.5 66q6 46 6 72q0 35 -10.5 45.5t-33.5 10.5q-15 0 -26.5 -4.5t-20 -18.5t-14.5 -39t-12 -66z" />
    <glyph glyph-name="guillemotright" unicode="&#xbb;" horiz-adv-x="668" 
d="M301 225l156 93l-130 93l20 139l295 -226l-2 -12l-358 -226zM25 225l156 93l-130 93l20 139l295 -226l-2 -12l-358 -226z" />
    <glyph glyph-name="onequarter" unicode="&#xbc;" horiz-adv-x="1005" 
d="M246 356h-130l29 208q2 10 3.5 20t3.5 20l-2 2q-8 -5 -18 -10l-18 -9l-46 -22l3 105l147 81h83zM845 750l-600 -750h-133l598 750h135zM917 65l-9 -65h-121l9 65h-205v70l216 259h156l-33 -235h36l-15 -94h-34zM828 245q3 21 9 40l-3 1q-5 -8 -11 -16t-13 -17l-49 -63
q-12 -15 -26 -29l1 -2h77z" />
    <glyph glyph-name="onehalf" unicode="&#xbd;" horiz-adv-x="997" 
d="M246 356h-130l29 208q2 10 3.5 20t3.5 20l-2 2q-8 -5 -18 -10l-18 -9l-46 -22l3 105l147 81h83zM845 750l-600 -750h-133l598 750h135zM813 399q75 0 109.5 -29.5t34.5 -73.5q0 -32 -13 -57.5t-36.5 -48t-56 -43.5t-71.5 -43v-3h148l-16 -101h-313l11 80q46 35 84 62.5
t65 50t42 41t15 35.5q0 13 -10.5 21t-36.5 8q-28 0 -54.5 -9t-57.5 -25l-17 95q38 19 81 29.5t92 10.5z" />
    <glyph glyph-name="threequarters" unicode="&#xbe;" horiz-adv-x="1098" 
d="M241 755q76 0 115.5 -26.5t39.5 -73.5q0 -34 -17 -58t-49 -38v-2q24 -10 37.5 -26.5t13.5 -41.5q0 -65 -51 -101.5t-150 -36.5q-42 0 -79 8.5t-63 24.5l40 89q26 -13 54 -20.5t60 -7.5q64 0 64 40q0 16 -19 23t-79 7l12 83q33 0 53.5 2.5t31.5 7t14.5 11.5t3.5 15
q0 11 -11 18t-40 7q-35 0 -64 -7.5t-58 -24.5l-17 87q32 20 74 30.5t84 10.5zM938 750l-600 -750h-133l598 750h135zM1010 65l-9 -65h-121l9 65h-205v70l216 259h156l-33 -235h36l-15 -94h-34zM921 245q3 21 9 40l-3 1q-5 -8 -11 -16t-13 -17l-49 -63q-12 -15 -26 -29l1 -2
h77z" />
    <glyph glyph-name="questiondown" unicode="&#xbf;" horiz-adv-x="488" 
d="M197 -101q-112 0 -166 43.5t-54 118.5q0 46 14.5 86t40.5 73t62.5 60t80.5 49l21 103h152l-14 -169q-32 -16 -59.5 -32t-48 -34t-32.5 -38t-12 -43t17 -35.5t51 -12.5q39 0 75 12.5t65 35.5l47 -146q-43 -32 -107.5 -51.5t-132.5 -19.5zM307 670q48 0 70.5 -15.5
t22.5 -50.5q0 -51 -28.5 -80.5t-89.5 -29.5q-50 0 -71.5 18.5t-21.5 53.5q0 48 29 76t89 28z" />
    <glyph glyph-name="Agrave" unicode="&#xc0;" horiz-adv-x="749" 
d="M451 136h-227l-54 -136h-222l353 750h252l148 -750h-235zM400 584q-3 -10 -6.5 -19t-7.5 -19l-101 -255h148l-28 252q-2 14 -2.5 23t-0.5 18h-2zM365 790l-116 122h225l47 -122h-156z" />
    <glyph glyph-name="Aacute" unicode="&#xc1;" horiz-adv-x="749" 
d="M451 136h-227l-54 -136h-222l353 750h252l148 -750h-235zM400 584q-3 -10 -6.5 -19t-7.5 -19l-101 -255h148l-28 252q-2 14 -2.5 23t-0.5 18h-2zM659 912l-162 -122h-153l74 122h241z" />
    <glyph glyph-name="Acircumflex" unicode="&#xc2;" horiz-adv-x="749" 
d="M451 136h-227l-54 -136h-222l353 750h252l148 -750h-235zM400 584q-3 -10 -6.5 -19t-7.5 -19l-101 -255h148l-28 252q-2 14 -2.5 23t-0.5 18h-2zM553 913l84 -123h-166l-30 51l-45 -51h-163l114 123h206z" />
    <glyph glyph-name="Atilde" unicode="&#xc3;" horiz-adv-x="749" 
d="M451 136h-227l-54 -136h-222l353 750h252l148 -750h-235zM400 584q-3 -10 -6.5 -19t-7.5 -19l-101 -255h148l-28 252q-2 14 -2.5 23t-0.5 18h-2zM251 791q8 57 43.5 92t91.5 35q27 0 47.5 -5t37.5 -11.5t30.5 -11.5t25.5 -5q14 0 20 5t9 17h84q-10 -59 -45.5 -92.5
t-89.5 -33.5q-26 0 -46 5t-36 11t-29 11t-25 5q-11 0 -20 -6t-11 -16h-87z" />
    <glyph glyph-name="Adieresis" unicode="&#xc4;" horiz-adv-x="749" 
d="M451 136h-227l-54 -136h-222l353 750h252l148 -750h-235zM400 584q-3 -10 -6.5 -19t-7.5 -19l-101 -255h148l-28 252q-2 14 -2.5 23t-0.5 18h-2zM349 925q36 0 52 -14t16 -40q0 -83 -88 -83q-35 0 -51.5 11.5t-16.5 39.5q0 86 88 86zM552 925q36 0 52 -14t16 -40
q0 -83 -88 -83q-35 0 -52 11.5t-17 40.5q0 85 89 85z" />
    <glyph glyph-name="Aring" unicode="&#xc5;" horiz-adv-x="749" 
d="M445 911q75 0 106 -24t31 -65q0 -54 -27 -85l146 -737h-235l-15 136h-227l-54 -136h-222l344 730q-13 17 -13 47t8 55t27 42.5t51 27t80 9.5zM400 584q-3 -10 -6.5 -19t-7.5 -19l-101 -255h148l-28 252q-2 14 -2.5 23t-0.5 18h-2zM438 831q-38 0 -49 -10.5t-11 -32.5
q0 -11 10 -17t40 -6q34 0 45.5 9t11.5 31q0 13 -9.5 19.5t-37.5 6.5z" />
    <glyph glyph-name="AE" unicode="&#xc6;" horiz-adv-x="1071" 
d="M759 584l-13 -126h244l-21 -150h-238l-15 -142h301l-27 -166h-503l14 137h-221l-78 -137h-248l500 750h629l-20 -166h-304zM550 609q-4 -8 -9.5 -18t-10.5 -19l-162 -282h148l30 277q2 13 3 21.5t3 19.5z" />
    <glyph glyph-name="Ccedilla" unicode="&#xc7;" horiz-adv-x="592" 
d="M256 -9q-228 30 -228 284q0 24 2 50t6 54q13 93 44 164.5t82 120t122.5 74t165.5 25.5q45 0 91 -8t78 -21l-42 -161q-27 9 -61.5 15t-75.5 6q-47 0 -78 -10.5t-51.5 -35.5t-32.5 -66.5t-21 -103.5q-9 -59 -9 -99q0 -71 30.5 -98t101.5 -27q40 0 75.5 7t67.5 20l-2 -155
q-29 -13 -63.5 -22t-70.5 -14l-53 -178h-170z" />
    <glyph glyph-name="Egrave" unicode="&#xc8;" horiz-adv-x="616" 
d="M562 165l-26 -165h-531l105 750h517l-20 -167h-310l-17 -125h256l-21 -150h-256l-20 -143h323zM318 790l-116 122h225l47 -122h-156z" />
    <glyph glyph-name="Eacute" unicode="&#xc9;" horiz-adv-x="616" 
d="M562 165l-26 -165h-531l105 750h517l-20 -167h-310l-17 -125h256l-21 -150h-256l-20 -143h323zM605 912l-162 -122h-153l74 122h241z" />
    <glyph glyph-name="Ecircumflex" unicode="&#xca;" horiz-adv-x="616" 
d="M562 165l-26 -165h-531l105 750h517l-20 -167h-310l-17 -125h256l-21 -150h-256l-20 -143h323zM500 913l84 -123h-166l-30 51l-45 -51h-163l114 123h206z" />
    <glyph glyph-name="Edieresis" unicode="&#xcb;" horiz-adv-x="616" 
d="M562 165l-26 -165h-531l105 750h517l-20 -167h-310l-17 -125h256l-21 -150h-256l-20 -143h323zM298 925q36 0 52 -14t16 -40q0 -83 -88 -83q-35 0 -51.5 11.5t-16.5 39.5q0 86 88 86zM501 925q36 0 52 -14t16 -40q0 -83 -88 -83q-35 0 -52 11.5t-17 40.5q0 85 89 85z" />
    <glyph glyph-name="Igrave" unicode="&#xcc;" horiz-adv-x="344" 
d="M120 750h215l-105 -750h-215zM169 790l-116 122h225l47 -122h-156z" />
    <glyph glyph-name="Iacute" unicode="&#xcd;" horiz-adv-x="344" 
d="M120 750h215l-105 -750h-215zM461 912l-162 -122h-153l74 122h241z" />
    <glyph glyph-name="Icircumflex" unicode="&#xce;" horiz-adv-x="344" 
d="M120 750h215l-105 -750h-215zM353 913l84 -123h-166l-30 51l-45 -51h-163l114 123h206z" />
    <glyph glyph-name="Idieresis" unicode="&#xcf;" horiz-adv-x="344" 
d="M120 750h215l-105 -750h-215zM151 925q36 0 52 -14t16 -40q0 -83 -88 -83q-35 0 -51.5 11.5t-16.5 39.5q0 86 88 86zM354 925q36 0 52 -14t16 -40q0 -83 -88 -83q-35 0 -52 11.5t-17 40.5q0 85 89 85z" />
    <glyph glyph-name="Eth" unicode="&#xd0;" horiz-adv-x="741" 
d="M417 750q157 0 230 -65t73 -204q0 -23 -2 -48.5t-6 -53.5q-14 -102 -46.5 -174t-82 -117.5t-117 -66.5t-151.5 -21h-298l46 330h-52l16 116h52l43 304h295zM290 446h69l-16 -116h-69l-23 -160h83q36 0 61.5 7.5t43.5 30t30 63.5t22 109q4 28 6 51t2 42q0 32 -6 52.5
t-19 32.5t-33.5 16.5t-48.5 4.5h-83z" />
    <glyph glyph-name="Ntilde" unicode="&#xd1;" horiz-adv-x="741" 
d="M489 0l-239 429l-2 -1q-2 -10 -2 -20.5t-2 -20.5l-54 -387h-185l105 750h175l215 -404l1 1q0 10 1 20t3 20l51 363h185l-105 -750h-147zM242 791q8 57 43.5 92t91.5 35q27 0 47.5 -5t37.5 -11.5t30.5 -11.5t25.5 -5q14 0 20 5t9 17h84q-10 -59 -45.5 -92.5t-89.5 -33.5
q-26 0 -46 5t-36 11t-29 11t-25 5q-11 0 -20 -6t-11 -16h-87z" />
    <glyph glyph-name="Ograve" unicode="&#xd2;" horiz-adv-x="752" 
d="M722 375q-14 -101 -44 -174.5t-78.5 -121t-116.5 -70.5t-159 -23q-153 0 -225 69t-72 213q0 25 1.5 51.5t6.5 55.5q14 99 44 172t78.5 121t117 71t158.5 23q154 0 225.5 -68t71.5 -210q0 -25 -2 -52.5t-6 -56.5zM501 375q5 35 7.5 62t2.5 49q0 65 -24.5 87t-77.5 22
q-35 0 -59.5 -9t-42 -33t-29.5 -67t-22 -111q-9 -66 -9 -109q0 -33 6 -55t18 -35t31 -18t45 -5q35 0 60 9.5t43 34t30 67.5t21 111zM380 790l-116 122h225l47 -122h-156z" />
    <glyph glyph-name="Oacute" unicode="&#xd3;" horiz-adv-x="752" 
d="M722 375q-14 -101 -44 -174.5t-78.5 -121t-116.5 -70.5t-159 -23q-153 0 -225 69t-72 213q0 25 1.5 51.5t6.5 55.5q14 99 44 172t78.5 121t117 71t158.5 23q154 0 225.5 -68t71.5 -210q0 -25 -2 -52.5t-6 -56.5zM501 375q5 35 7.5 62t2.5 49q0 65 -24.5 87t-77.5 22
q-35 0 -59.5 -9t-42 -33t-29.5 -67t-22 -111q-9 -66 -9 -109q0 -33 6 -55t18 -35t31 -18t45 -5q35 0 60 9.5t43 34t30 67.5t21 111zM663 912l-162 -122h-153l74 122h241z" />
    <glyph glyph-name="Ocircumflex" unicode="&#xd4;" horiz-adv-x="752" 
d="M722 375q-14 -101 -44 -174.5t-78.5 -121t-116.5 -70.5t-159 -23q-153 0 -225 69t-72 213q0 25 1.5 51.5t6.5 55.5q14 99 44 172t78.5 121t117 71t158.5 23q154 0 225.5 -68t71.5 -210q0 -25 -2 -52.5t-6 -56.5zM501 375q5 35 7.5 62t2.5 49q0 65 -24.5 87t-77.5 22
q-35 0 -59.5 -9t-42 -33t-29.5 -67t-22 -111q-9 -66 -9 -109q0 -33 6 -55t18 -35t31 -18t45 -5q35 0 60 9.5t43 34t30 67.5t21 111zM559 913l84 -123h-166l-30 51l-45 -51h-163l114 123h206z" />
    <glyph glyph-name="Otilde" unicode="&#xd5;" horiz-adv-x="752" 
d="M722 375q-14 -101 -44 -174.5t-78.5 -121t-116.5 -70.5t-159 -23q-153 0 -225 69t-72 213q0 25 1.5 51.5t6.5 55.5q14 99 44 172t78.5 121t117 71t158.5 23q154 0 225.5 -68t71.5 -210q0 -25 -2 -52.5t-6 -56.5zM501 375q5 35 7.5 62t2.5 49q0 65 -24.5 87t-77.5 22
q-35 0 -59.5 -9t-42 -33t-29.5 -67t-22 -111q-9 -66 -9 -109q0 -33 6 -55t18 -35t31 -18t45 -5q35 0 60 9.5t43 34t30 67.5t21 111zM247 791q8 57 43.5 92t91.5 35q27 0 47.5 -5t37.5 -11.5t30.5 -11.5t25.5 -5q14 0 20 5t9 17h84q-10 -59 -45.5 -92.5t-89.5 -33.5
q-26 0 -46 5t-36 11t-29 11t-25 5q-11 0 -20 -6t-11 -16h-87z" />
    <glyph glyph-name="Odieresis" unicode="&#xd6;" horiz-adv-x="752" 
d="M722 375q-14 -101 -44 -174.5t-78.5 -121t-116.5 -70.5t-159 -23q-153 0 -225 69t-72 213q0 25 1.5 51.5t6.5 55.5q14 99 44 172t78.5 121t117 71t158.5 23q154 0 225.5 -68t71.5 -210q0 -25 -2 -52.5t-6 -56.5zM501 375q5 35 7.5 62t2.5 49q0 65 -24.5 87t-77.5 22
q-35 0 -59.5 -9t-42 -33t-29.5 -67t-22 -111q-9 -66 -9 -109q0 -33 6 -55t18 -35t31 -18t45 -5q35 0 60 9.5t43 34t30 67.5t21 111zM356 925q36 0 52 -14t16 -40q0 -83 -88 -83q-35 0 -51.5 11.5t-16.5 39.5q0 86 88 86zM559 925q36 0 52 -14t16 -40q0 -83 -88 -83
q-35 0 -52 11.5t-17 40.5q0 85 89 85z" />
    <glyph glyph-name="multiply" unicode="&#xd7;" 
d="M426 89l-125 125l-124 -126l-111 111l125 125l-128 128l111 112l128 -129l128 128l111 -110l-129 -129l125 -124z" />
    <glyph glyph-name="Oslash" unicode="&#xd8;" horiz-adv-x="753" 
d="M-17 65l65 67q-21 57 -21 135q0 25 1.5 52t6.5 56q14 99 44 172t78.5 120.5t117 71t158.5 23.5q135 0 206 -53l56 56l84 -87l-68 -68q20 -55 20 -127q0 -25 -2.5 -52t-6.5 -56q-15 -101 -45 -174.5t-78 -121t-116 -70.5t-159 -23q-132 0 -201 50l-54 -55zM248 308
l246 245q-11 19 -32.5 26t-53.5 7q-35 0 -59.5 -9t-42 -32t-29.5 -64.5t-21 -105.5zM509 437l-244 -245q12 -17 32.5 -23.5t51.5 -6.5q35 0 59.5 9t42 33t29.5 65.5t21 105.5z" />
    <glyph glyph-name="Ugrave" unicode="&#xd9;" horiz-adv-x="720" 
d="M660 268q-20 -140 -106 -211t-244 -71q-280 0 -280 224q0 14 1 28.5t3 29.5l68 482h210l-69 -488q-1 -8 -1.5 -15t-0.5 -14q0 -40 21.5 -58.5t70.5 -18.5q57 0 83 24.5t34 81.5l69 488h209zM360 790l-116 122h225l47 -122h-156z" />
    <glyph glyph-name="Uacute" unicode="&#xda;" horiz-adv-x="720" 
d="M660 268q-20 -140 -106 -211t-244 -71q-280 0 -280 224q0 14 1 28.5t3 29.5l68 482h210l-69 -488q-1 -8 -1.5 -15t-0.5 -14q0 -40 21.5 -58.5t70.5 -18.5q57 0 83 24.5t34 81.5l69 488h209zM648 912l-162 -122h-153l74 122h241z" />
    <glyph glyph-name="Ucircumflex" unicode="&#xdb;" horiz-adv-x="720" 
d="M660 268q-20 -140 -106 -211t-244 -71q-280 0 -280 224q0 14 1 28.5t3 29.5l68 482h210l-69 -488q-1 -8 -1.5 -15t-0.5 -14q0 -40 21.5 -58.5t70.5 -18.5q57 0 83 24.5t34 81.5l69 488h209zM543 913l84 -123h-166l-30 51l-45 -51h-163l114 123h206z" />
    <glyph glyph-name="Udieresis" unicode="&#xdc;" horiz-adv-x="720" 
d="M660 268q-20 -140 -106 -211t-244 -71q-280 0 -280 224q0 14 1 28.5t3 29.5l68 482h210l-69 -488q-1 -8 -1.5 -15t-0.5 -14q0 -40 21.5 -58.5t70.5 -18.5q57 0 83 24.5t34 81.5l69 488h209zM340 925q36 0 52 -14t16 -40q0 -83 -88 -83q-35 0 -51.5 11.5t-16.5 39.5
q0 86 88 86zM543 925q36 0 52 -14t16 -40q0 -83 -88 -83q-35 0 -52 11.5t-17 40.5q0 85 89 85z" />
    <glyph glyph-name="Yacute" unicode="&#xdd;" horiz-adv-x="715" 
d="M287 750l75 -289q2 -10 4.5 -20t4.5 -20h2q3 9 8 18l10 18l154 293h229l-324 -517l-32 -233h-215l32 233l-184 517h236zM648 912l-162 -122h-153l74 122h241z" />
    <glyph glyph-name="Thorn" unicode="&#xde;" horiz-adv-x="673" 
d="M371 642q150 0 217.5 -51t67.5 -154q0 -74 -20 -132.5t-63.5 -99.5t-111.5 -63t-164 -22h-65l-16 -120h-211l105 750h211l-15 -108h65zM253 273h66q28 0 47.5 4t33 15t21.5 31t13 53q3 22 3 39q0 39 -20 52.5t-69 13.5h-66z" />
    <glyph glyph-name="germandbls" unicode="&#xdf;" horiz-adv-x="672" 
d="M70 483q39 280 311 280q50 0 90 -12.5t67.5 -34t42 -51t14.5 -63.5q0 -35 -13.5 -61t-30 -46t-31 -34.5t-16.5 -27.5q0 -12 20 -25t44 -34t44 -52.5t20 -80.5q0 -57 -22 -103t-60 -79t-89 -51t-109 -18q-33 0 -68.5 6.5t-58.5 22.5l31 154q12 -9 35.5 -15.5t49.5 -6.5
q18 0 34 3t29 10.5t20.5 19.5t7.5 30q0 27 -22 47t-48 39.5t-48 42.5t-22 55q0 31 17.5 56t39 46.5t39 41t17.5 39.5q0 32 -49 32q-40 0 -60 -24.5t-29 -89.5l-58 -409q-10 -68 -36.5 -115.5t-67 -77.5t-93 -44.5t-113.5 -17.5l6 133q25 3 44 10t32 20.5t21 35.5t13 55z" />
    <glyph glyph-name="agrave" unicode="&#xe0;" horiz-adv-x="627" 
d="M388 621q31 0 54 -1.5t44 -4t43.5 -4t54.5 -1.5h28l-85 -610h-150l-10 50l-2 1q-37 -33 -80.5 -47.5t-88.5 -14.5q-188 0 -188 209q0 92 27 169.5t76.5 134t120 88t156.5 31.5zM266 140q38 0 66.5 30.5t36.5 81.5l30 213q-8 1 -16.5 1.5t-19.5 0.5q-27 0 -51.5 -9.5
t-44.5 -32t-34.5 -59t-21.5 -89.5q-6 -39 -6 -66q0 -41 14.5 -56t46.5 -15zM374 653l-106 146h218l33 -146h-145z" />
    <glyph glyph-name="aacute" unicode="&#xe1;" horiz-adv-x="627" 
d="M388 621q31 0 54 -1.5t44 -4t43.5 -4t54.5 -1.5h28l-85 -610h-150l-10 50l-2 1q-37 -33 -80.5 -47.5t-88.5 -14.5q-188 0 -188 209q0 92 27 169.5t76.5 134t120 88t156.5 31.5zM266 140q38 0 66.5 30.5t36.5 81.5l30 213q-8 1 -16.5 1.5t-19.5 0.5q-27 0 -51.5 -9.5
t-44.5 -32t-34.5 -59t-21.5 -89.5q-6 -39 -6 -66q0 -41 14.5 -56t46.5 -15zM609 799l-145 -146h-145l72 146h218z" />
    <glyph glyph-name="acircumflex" unicode="&#xe2;" horiz-adv-x="627" 
d="M388 621q31 0 54 -1.5t44 -4t43.5 -4t54.5 -1.5h28l-85 -610h-150l-10 50l-2 1q-37 -33 -80.5 -47.5t-88.5 -14.5q-188 0 -188 209q0 92 27 169.5t76.5 134t120 88t156.5 31.5zM266 140q38 0 66.5 30.5t36.5 81.5l30 213q-8 1 -16.5 1.5t-19.5 0.5q-27 0 -51.5 -9.5
t-44.5 -32t-34.5 -59t-21.5 -89.5q-6 -39 -6 -66q0 -41 14.5 -56t46.5 -15zM506 799l77 -146h-142l-13 32q-4 9 -7.5 18.5t-6.5 19.5h-2q-4 -7 -10.5 -16.5t-11.5 -17.5l-26 -36h-141l116 146h167z" />
    <glyph glyph-name="atilde" unicode="&#xe3;" horiz-adv-x="627" 
d="M388 621q31 0 54 -1.5t44 -4t43.5 -4t54.5 -1.5h28l-85 -610h-150l-10 50l-2 1q-37 -33 -80.5 -47.5t-88.5 -14.5q-188 0 -188 209q0 92 27 169.5t76.5 134t120 88t156.5 31.5zM266 140q38 0 66.5 30.5t36.5 81.5l30 213q-8 1 -16.5 1.5t-19.5 0.5q-27 0 -51.5 -9.5
t-44.5 -32t-34.5 -59t-21.5 -89.5q-6 -39 -6 -66q0 -41 14.5 -56t46.5 -15zM489 649q-26 0 -43.5 7t-30.5 15t-23 15t-21 7q-20 0 -27 -36h-105q11 66 46.5 106t90.5 40q26 0 43.5 -6.5t30.5 -15t22.5 -15t20.5 -6.5q21 0 28 35h105q-11 -66 -46.5 -106t-90.5 -40z" />
    <glyph glyph-name="adieresis" unicode="&#xe4;" horiz-adv-x="627" 
d="M388 621q31 0 54 -1.5t44 -4t43.5 -4t54.5 -1.5h28l-85 -610h-150l-10 50l-2 1q-37 -33 -80.5 -47.5t-88.5 -14.5q-188 0 -188 209q0 92 27 169.5t76.5 134t120 88t156.5 31.5zM266 140q38 0 66.5 30.5t36.5 81.5l30 213q-8 1 -16.5 1.5t-19.5 0.5q-27 0 -51.5 -9.5
t-44.5 -32t-34.5 -59t-21.5 -89.5q-6 -39 -6 -66q0 -41 14.5 -56t46.5 -15zM339 806q36 0 52.5 -14.5t16.5 -43.5q0 -44 -23 -65.5t-67 -21.5q-35 0 -52.5 12t-17.5 41q0 92 91 92zM535 806q36 0 52.5 -14.5t16.5 -42.5q0 -88 -90 -88q-35 0 -52 11.5t-17 40.5q0 93 90 93z
" />
    <glyph glyph-name="aring" unicode="&#xe5;" horiz-adv-x="627" 
d="M388 621q31 0 54 -1.5t44 -4t43.5 -4t54.5 -1.5h28l-85 -610h-150l-10 50l-2 1q-37 -33 -80.5 -47.5t-88.5 -14.5q-188 0 -188 209q0 92 27 169.5t76.5 134t120 88t156.5 31.5zM266 140q38 0 66.5 30.5t36.5 81.5l30 213q-8 1 -16.5 1.5t-19.5 0.5q-27 0 -51.5 -9.5
t-44.5 -32t-34.5 -59t-21.5 -89.5q-6 -39 -6 -66q0 -41 14.5 -56t46.5 -15zM431 836q69 0 99.5 -22t30.5 -58q0 -57 -39 -83t-118 -26q-65 0 -96.5 17t-31.5 59q0 26 8 47t26.5 35.5t48 22.5t72.5 8zM424 768q-35 0 -45 -9t-10 -24q0 -11 9.5 -16t38.5 -5t41.5 7.5
t12.5 23.5q0 11 -10 17t-37 6z" />
    <glyph glyph-name="ae" unicode="&#xe6;" horiz-adv-x="898" 
d="M700 623q91 0 142 -41.5t51 -110.5q0 -99 -81 -163t-250 -86q3 -47 26.5 -64t69.5 -17q38 0 72.5 11t62.5 31l49 -115q-40 -33 -100 -56t-139 -23q-72 0 -119.5 26.5t-69.5 86.5h-2q-42 -63 -100 -88t-121 -25q-91 0 -137.5 50.5t-46.5 156.5q0 102 29 181.5t79 133.5
t116.5 82t142.5 28q55 0 96 -9.5t73 -26.5q64 38 157 38zM266 140q38 0 66.5 30.5t36.5 81.5l31 222q-8 1 -16 1h-17q-58 0 -99.5 -46.5t-55.5 -149.5q-6 -42 -6 -69q0 -41 14 -55.5t46 -14.5zM682 479q-41 0 -66 -27t-41 -98q83 13 114.5 38t31.5 57q0 14 -9.5 22t-29.5 8z
" />
    <glyph glyph-name="ccedilla" unicode="&#xe7;" horiz-adv-x="488" 
d="M181 -8q-77 12 -123 68.5t-46 167.5q0 38 6 83q23 158 105.5 234t214.5 76q50 0 89 -10t72 -29l-70 -135q-17 8 -36 11.5t-42 3.5q-27 0 -49 -7.5t-39 -25.5t-29 -49t-19 -79q-2 -17 -3.5 -32t-1.5 -29q0 -29 5.5 -48.5t16 -31t25.5 -16.5t34 -5q31 0 55.5 10.5
t44.5 27.5l50 -113q-56 -52 -127 -67l-55 -185h-170z" />
    <glyph glyph-name="egrave" unicode="&#xe8;" horiz-adv-x="540" 
d="M341 623q92 0 142.5 -41.5t50.5 -109.5q0 -52 -19 -92t-59.5 -70t-103 -50t-149.5 -32q1 -50 25 -68.5t72 -18.5q38 0 72.5 11t62.5 31l48 -115q-40 -33 -100 -56t-139 -23q-52 0 -94.5 14t-73 43.5t-47.5 75.5t-17 110q0 35 6 79q22 155 104 233.5t219 78.5zM322 479
q-42 0 -66.5 -28t-39.5 -97q42 7 70 17t45 22t24 26t7 29q0 31 -40 31zM286 653l-106 146h218l33 -146h-145z" />
    <glyph glyph-name="eacute" unicode="&#xe9;" horiz-adv-x="540" 
d="M341 623q92 0 142.5 -41.5t50.5 -109.5q0 -52 -19 -92t-59.5 -70t-103 -50t-149.5 -32q1 -50 25 -68.5t72 -18.5q38 0 72.5 11t62.5 31l48 -115q-40 -33 -100 -56t-139 -23q-52 0 -94.5 14t-73 43.5t-47.5 75.5t-17 110q0 35 6 79q22 155 104 233.5t219 78.5zM322 479
q-42 0 -66.5 -28t-39.5 -97q42 7 70 17t45 22t24 26t7 29q0 31 -40 31zM542 799l-145 -146h-145l72 146h218z" />
    <glyph glyph-name="ecircumflex" unicode="&#xea;" horiz-adv-x="540" 
d="M341 623q92 0 142.5 -41.5t50.5 -109.5q0 -52 -19 -92t-59.5 -70t-103 -50t-149.5 -32q1 -50 25 -68.5t72 -18.5q38 0 72.5 11t62.5 31l48 -115q-40 -33 -100 -56t-139 -23q-52 0 -94.5 14t-73 43.5t-47.5 75.5t-17 110q0 35 6 79q22 155 104 233.5t219 78.5zM322 479
q-42 0 -66.5 -28t-39.5 -97q42 7 70 17t45 22t24 26t7 29q0 31 -40 31zM447 799l77 -146h-142l-13 32q-4 9 -7.5 18.5t-6.5 19.5h-2q-4 -7 -10.5 -16.5t-11.5 -17.5l-26 -36h-141l116 146h167z" />
    <glyph glyph-name="edieresis" unicode="&#xeb;" horiz-adv-x="540" 
d="M341 623q92 0 142.5 -41.5t50.5 -109.5q0 -52 -19 -92t-59.5 -70t-103 -50t-149.5 -32q1 -50 25 -68.5t72 -18.5q38 0 72.5 11t62.5 31l48 -115q-40 -33 -100 -56t-139 -23q-52 0 -94.5 14t-73 43.5t-47.5 75.5t-17 110q0 35 6 79q22 155 104 233.5t219 78.5zM322 479
q-42 0 -66.5 -28t-39.5 -97q42 7 70 17t45 22t24 26t7 29q0 31 -40 31zM260 806q36 0 52.5 -14.5t16.5 -43.5q0 -44 -23 -65.5t-67 -21.5q-35 0 -52.5 12t-17.5 41q0 92 91 92zM456 806q36 0 52.5 -14.5t16.5 -42.5q0 -88 -90 -88q-35 0 -52 11.5t-17 40.5q0 93 90 93z" />
    <glyph glyph-name="igrave" unicode="&#xec;" horiz-adv-x="306" 
d="M6 0l85 606l199 8l-86 -614h-198zM139 653l-106 146h218l33 -146h-145z" />
    <glyph glyph-name="iacute" unicode="&#xed;" horiz-adv-x="306" 
d="M6 0l85 606l199 8l-86 -614h-198zM404 799l-145 -146h-145l72 146h218z" />
    <glyph glyph-name="icircumflex" unicode="&#xee;" horiz-adv-x="306" 
d="M6 0l85 606l199 8l-86 -614h-198zM303 799l77 -146h-142l-13 32q-4 9 -7.5 18.5t-6.5 19.5h-2q-4 -7 -10.5 -16.5t-11.5 -17.5l-26 -36h-141l116 146h167z" />
    <glyph glyph-name="idieresis" unicode="&#xef;" horiz-adv-x="306" 
d="M6 0l85 606l199 8l-86 -614h-198zM119 806q36 0 52.5 -14.5t16.5 -43.5q0 -44 -23 -65.5t-67 -21.5q-35 0 -52.5 12t-17.5 41q0 92 91 92zM315 806q36 0 52.5 -14.5t16.5 -42.5q0 -88 -90 -88q-35 0 -52 11.5t-17 40.5q0 93 90 93z" />
    <glyph glyph-name="eth" unicode="&#xf0;" horiz-adv-x="629" 
d="M485 678q54 -61 87 -137.5t33 -157.5q0 -23 -3 -47q-13 -93 -39.5 -159t-67.5 -108t-98.5 -61t-132.5 -19q-55 0 -102 10.5t-81 36t-53.5 68.5t-19.5 107q0 81 20 142.5t57 103t88 63t113 21.5q26 0 49.5 -3.5t44.5 -11.5l2 1q-10 20 -22 39t-26 35l-90 -45l-56 70l78 41
q-17 13 -35.5 24.5t-38.5 21.5l148 82q19 -11 38 -23t37 -27l92 49l53 -78zM314 389q-51 0 -77.5 -37t-26.5 -133q0 -48 17.5 -64t50.5 -16q27 0 46 7t32 24t21.5 44.5t14.5 69.5q3 16 3 31q0 39 -20 56.5t-61 17.5z" />
    <glyph glyph-name="ntilde" unicode="&#xf1;" horiz-adv-x="630" 
d="M395 362q3 21 3 37q0 33 -13 46.5t-40 13.5q-39 0 -67.5 -31t-36.5 -85l-48 -343h-194l85 606l152 9l9 -56h3q33 31 76.5 47.5t97.5 16.5q87 0 130 -47.5t43 -139.5q0 -16 -1.5 -32.5t-3.5 -34.5l-51 -369h-194zM433 649q-26 0 -43.5 7t-30.5 15t-23 15t-21 7
q-20 0 -27 -36h-105q11 66 46.5 106t90.5 40q26 0 43.5 -6.5t30.5 -15t22.5 -15t20.5 -6.5q21 0 28 35h105q-11 -66 -46.5 -106t-90.5 -40z" />
    <glyph glyph-name="ograve" unicode="&#xf2;" horiz-adv-x="611" 
d="M322 469q-23 0 -40 -6.5t-29.5 -24.5t-22 -51t-16.5 -87q-4 -27 -6 -48.5t-2 -38.5q0 -49 16.5 -64t49.5 -15q23 0 40.5 6.5t30.5 25t22.5 52.5t17.5 88q4 26 5.5 46t1.5 36q0 50 -17 65.5t-51 15.5zM347 623q128 0 183.5 -58.5t55.5 -171.5q0 -21 -1.5 -44t-5.5 -49
q-11 -80 -35.5 -138.5t-65 -97t-97 -57.5t-132.5 -19q-128 0 -183.5 57.5t-55.5 170.5q0 22 1.5 45t5.5 49q11 79 35.5 138t65 98t97 58t132.5 19zM292 653l-106 146h218l33 -146h-145z" />
    <glyph glyph-name="oacute" unicode="&#xf3;" horiz-adv-x="611" 
d="M322 469q-23 0 -40 -6.5t-29.5 -24.5t-22 -51t-16.5 -87q-4 -27 -6 -48.5t-2 -38.5q0 -49 16.5 -64t49.5 -15q23 0 40.5 6.5t30.5 25t22.5 52.5t17.5 88q4 26 5.5 46t1.5 36q0 50 -17 65.5t-51 15.5zM347 623q128 0 183.5 -58.5t55.5 -171.5q0 -21 -1.5 -44t-5.5 -49
q-11 -80 -35.5 -138.5t-65 -97t-97 -57.5t-132.5 -19q-128 0 -183.5 57.5t-55.5 170.5q0 22 1.5 45t5.5 49q11 79 35.5 138t65 98t97 58t132.5 19zM550 799l-145 -146h-145l72 146h218z" />
    <glyph glyph-name="ocircumflex" unicode="&#xf4;" horiz-adv-x="611" 
d="M322 469q-23 0 -40 -6.5t-29.5 -24.5t-22 -51t-16.5 -87q-4 -27 -6 -48.5t-2 -38.5q0 -49 16.5 -64t49.5 -15q23 0 40.5 6.5t30.5 25t22.5 52.5t17.5 88q4 26 5.5 46t1.5 36q0 50 -17 65.5t-51 15.5zM347 623q128 0 183.5 -58.5t55.5 -171.5q0 -21 -1.5 -44t-5.5 -49
q-11 -80 -35.5 -138.5t-65 -97t-97 -57.5t-132.5 -19q-128 0 -183.5 57.5t-55.5 170.5q0 22 1.5 45t5.5 49q11 79 35.5 138t65 98t97 58t132.5 19zM457 799l77 -146h-142l-13 32q-4 9 -7.5 18.5t-6.5 19.5h-2q-4 -7 -10.5 -16.5t-11.5 -17.5l-26 -36h-141l116 146h167z" />
    <glyph glyph-name="otilde" unicode="&#xf5;" horiz-adv-x="611" 
d="M322 469q-23 0 -40 -6.5t-29.5 -24.5t-22 -51t-16.5 -87q-4 -27 -6 -48.5t-2 -38.5q0 -49 16.5 -64t49.5 -15q23 0 40.5 6.5t30.5 25t22.5 52.5t17.5 88q4 26 5.5 46t1.5 36q0 50 -17 65.5t-51 15.5zM347 623q128 0 183.5 -58.5t55.5 -171.5q0 -21 -1.5 -44t-5.5 -49
q-11 -80 -35.5 -138.5t-65 -97t-97 -57.5t-132.5 -19q-128 0 -183.5 57.5t-55.5 170.5q0 22 1.5 45t5.5 49q11 79 35.5 138t65 98t97 58t132.5 19zM423 649q-26 0 -43.5 7t-30.5 15t-23 15t-21 7q-20 0 -27 -36h-105q11 66 46.5 106t90.5 40q26 0 43.5 -6.5t30.5 -15
t22.5 -15t20.5 -6.5q21 0 28 35h105q-11 -66 -46.5 -106t-90.5 -40z" />
    <glyph glyph-name="odieresis" unicode="&#xf6;" horiz-adv-x="611" 
d="M322 469q-23 0 -40 -6.5t-29.5 -24.5t-22 -51t-16.5 -87q-4 -27 -6 -48.5t-2 -38.5q0 -49 16.5 -64t49.5 -15q23 0 40.5 6.5t30.5 25t22.5 52.5t17.5 88q4 26 5.5 46t1.5 36q0 50 -17 65.5t-51 15.5zM347 623q128 0 183.5 -58.5t55.5 -171.5q0 -21 -1.5 -44t-5.5 -49
q-11 -80 -35.5 -138.5t-65 -97t-97 -57.5t-132.5 -19q-128 0 -183.5 57.5t-55.5 170.5q0 22 1.5 45t5.5 49q11 79 35.5 138t65 98t97 58t132.5 19zM277 806q36 0 52.5 -14.5t16.5 -43.5q0 -44 -23 -65.5t-67 -21.5q-35 0 -52.5 12t-17.5 41q0 92 91 92zM473 806
q36 0 52.5 -14.5t16.5 -42.5q0 -88 -90 -88q-35 0 -52 11.5t-17 40.5q0 93 90 93z" />
    <glyph glyph-name="divide" unicode="&#xf7;" 
d="M419 536q0 -86 -117 -86q-58 0 -87 18.5t-29 69.5q0 42 29.5 63.5t86.5 21.5t87 -21.5t30 -65.5zM419 132q0 -85 -117 -85q-57 0 -86.5 17.5t-29.5 67.5q0 87 116 87q57 0 87 -21.5t30 -65.5zM52 251v166h499v-166h-499z" />
    <glyph glyph-name="oslash" unicode="&#xf8;" horiz-adv-x="611" 
d="M347 623q104 0 162 -41l45 45l69 -69l-54 -55q17 -48 17 -111q0 -21 -2 -44t-5 -48q-21 -159 -100 -235.5t-230 -76.5q-99 0 -156 36l-42 -43l-70 69l49 50q-20 46 -20 117q0 21 1.5 44.5t5.5 48.5q11 79 35.5 138t65 98t97 58t132.5 19zM322 469q-25 0 -42.5 -7.5
t-30 -29t-21.5 -59.5t-18 -99l173 163q-8 19 -23 25.5t-38 6.5zM213 165q7 -19 21.5 -25t37.5 -6t40.5 7t31 28t23.5 59t18 100z" />
    <glyph glyph-name="ugrave" unicode="&#xf9;" horiz-adv-x="621" 
d="M561 222q-16 -115 -91 -174t-212 -59q-122 0 -180.5 47.5t-58.5 138.5q0 23 3 47l54 384l195 9l-55 -393q-1 -5 -1.5 -9.5t-0.5 -9.5q0 -29 16 -43t51 -14q39 0 59.5 18t26.5 58l54 387h194zM297 653l-106 146h218l33 -146h-145z" />
    <glyph glyph-name="uacute" unicode="&#xfa;" horiz-adv-x="621" 
d="M561 222q-16 -115 -91 -174t-212 -59q-122 0 -180.5 47.5t-58.5 138.5q0 23 3 47l54 384l195 9l-55 -393q-1 -5 -1.5 -9.5t-0.5 -9.5q0 -29 16 -43t51 -14q39 0 59.5 18t26.5 58l54 387h194zM549 799l-145 -146h-145l72 146h218z" />
    <glyph glyph-name="ucircumflex" unicode="&#xfb;" horiz-adv-x="621" 
d="M561 222q-16 -115 -91 -174t-212 -59q-122 0 -180.5 47.5t-58.5 138.5q0 23 3 47l54 384l195 9l-55 -393q-1 -5 -1.5 -9.5t-0.5 -9.5q0 -29 16 -43t51 -14q39 0 59.5 18t26.5 58l54 387h194zM457 799l77 -146h-142l-13 32q-4 9 -7.5 18.5t-6.5 19.5h-2q-4 -7 -10.5 -16.5
t-11.5 -17.5l-26 -36h-141l116 146h167z" />
    <glyph glyph-name="udieresis" unicode="&#xfc;" horiz-adv-x="621" 
d="M561 222q-16 -115 -91 -174t-212 -59q-122 0 -180.5 47.5t-58.5 138.5q0 23 3 47l54 384l195 9l-55 -393q-1 -5 -1.5 -9.5t-0.5 -9.5q0 -29 16 -43t51 -14q39 0 59.5 18t26.5 58l54 387h194zM276 806q36 0 52.5 -14.5t16.5 -43.5q0 -44 -23 -65.5t-67 -21.5
q-35 0 -52.5 12t-17.5 41q0 92 91 92zM472 806q36 0 52.5 -14.5t16.5 -42.5q0 -88 -90 -88q-35 0 -52 11.5t-17 40.5q0 93 90 93z" />
    <glyph glyph-name="yacute" unicode="&#xfd;" horiz-adv-x="615" 
d="M614 611q-30 -136 -79 -255.5t-116 -217.5t-151 -173.5t-182 -123.5l-64 140q85 46 149 114l-129 505l215 15l52 -287q2 -13 3.5 -22.5t2.5 -17.5h2q34 73 61 154.5t47 168.5h189zM565 799l-145 -146h-145l72 146h218z" />
    <glyph glyph-name="thorn" unicode="&#xfe;" horiz-adv-x="631" 
d="M424 621q92 0 137.5 -49t45.5 -162q0 -49 -9 -110q-12 -82 -35.5 -140.5t-57.5 -96t-78 -55.5t-95 -18q-80 0 -132 33l-2 -1q-1 -10 -1.5 -19.5t-2.5 -20.5l-19 -138h-194l130 929l196 10l-23 -161q-2 -10 -3.5 -21t-3.5 -19l1 -1q33 21 70.5 30.5t75.5 9.5zM349 466
q-39 0 -67 -32.5t-36 -83.5l-27 -187q15 -9 32 -14.5t37 -5.5q24 0 42 7.5t31.5 26t23 50t16.5 79.5q3 24 5 44t2 36q0 47 -14.5 63.5t-44.5 16.5z" />
    <glyph glyph-name="ydieresis" unicode="&#xff;" horiz-adv-x="615" 
d="M614 611q-30 -136 -79 -255.5t-116 -217.5t-151 -173.5t-182 -123.5l-64 140q85 46 149 114l-129 505l215 15l52 -287q2 -13 3.5 -22.5t2.5 -17.5h2q34 73 61 154.5t47 168.5h189zM287 806q36 0 52.5 -14.5t16.5 -43.5q0 -44 -23 -65.5t-67 -21.5q-35 0 -52.5 12
t-17.5 41q0 92 91 92zM483 806q36 0 52.5 -14.5t16.5 -42.5q0 -88 -90 -88q-35 0 -52 11.5t-17 40.5q0 93 90 93z" />
    <glyph glyph-name="Amacron" unicode="&#x100;" horiz-adv-x="749" 
d="M451 136h-227l-54 -136h-222l353 750h252l148 -750h-235zM400 584q-3 -10 -6.5 -19t-7.5 -19l-101 -255h148l-28 252q-2 14 -2.5 23t-0.5 18h-2zM600 803h-343l13 90h343z" />
    <glyph glyph-name="amacron" unicode="&#x101;" horiz-adv-x="627" 
d="M388 621q31 0 54 -1.5t44 -4t43.5 -4t54.5 -1.5h28l-85 -610h-150l-10 50l-2 1q-37 -33 -80.5 -47.5t-88.5 -14.5q-188 0 -188 209q0 92 27 169.5t76.5 134t120 88t156.5 31.5zM266 140q38 0 66.5 30.5t36.5 81.5l30 213q-8 1 -16.5 1.5t-19.5 0.5q-27 0 -51.5 -9.5
t-44.5 -32t-34.5 -59t-21.5 -89.5q-6 -39 -6 -66q0 -41 14.5 -56t46.5 -15zM580 674h-343l16 109h343z" />
    <glyph glyph-name="Abreve" unicode="&#x102;" horiz-adv-x="749" 
d="M451 136h-227l-54 -136h-222l353 750h252l148 -750h-235zM400 584q-3 -10 -6.5 -19t-7.5 -19l-101 -255h148l-28 252q-2 14 -2.5 23t-0.5 18h-2zM630 913q-9 -63 -56.5 -96t-144.5 -33q-91 0 -128 27.5t-37 77.5q0 5 0.5 11t1.5 13h141q-1 -3 -1 -8q0 -17 10 -23t27 -6
t29.5 7t15.5 30h142z" />
    <glyph glyph-name="abreve" unicode="&#x103;" horiz-adv-x="627" 
d="M388 621q31 0 54 -1.5t44 -4t43.5 -4t54.5 -1.5h28l-85 -610h-150l-10 50l-2 1q-37 -33 -80.5 -47.5t-88.5 -14.5q-188 0 -188 209q0 92 27 169.5t76.5 134t120 88t156.5 31.5zM266 140q38 0 66.5 30.5t36.5 81.5l30 213q-8 1 -16.5 1.5t-19.5 0.5q-27 0 -51.5 -9.5
t-44.5 -32t-34.5 -59t-21.5 -89.5q-6 -39 -6 -66q0 -41 14.5 -56t46.5 -15zM602 799q-11 -75 -56.5 -114.5t-137.5 -39.5q-83 0 -117.5 30.5t-34.5 86.5q0 17 3 37h129q-1 -6 -1.5 -11t-0.5 -10q0 -24 9.5 -33t25.5 -9q17 0 31 12.5t19 50.5h131z" />
    <glyph glyph-name="Aogonek" unicode="&#x104;" horiz-adv-x="749" 
d="M451 136h-227l-54 -136h-222l353 750h252l148 -750h-23q-28 0 -47 -17t-19 -37q0 -14 9.5 -21t32.5 -7q13 0 23 2t21 7l2 -94q-25 -12 -53 -18.5t-64 -6.5q-63 0 -93.5 23t-30.5 60q0 38 19.5 65t54.5 44h-67zM400 584q-3 -10 -6.5 -19t-7.5 -19l-101 -255h148l-28 252
q-2 14 -2.5 23t-0.5 18h-2z" />
    <glyph glyph-name="aogonek" unicode="&#x105;" horiz-adv-x="627" 
d="M433 -192q-63 0 -92.5 23t-29.5 59q0 37 20 64.5t52 43.5l-18 53q-37 -33 -80.5 -47.5t-88.5 -14.5q-188 0 -188 209q0 92 27 169.5t76.5 134t120 88t156.5 31.5q31 0 54 -1.5t44 -4t43.5 -4t54.5 -1.5h28l-85 -610q-31 0 -47.5 -18t-16.5 -37q0 -27 41 -27q14 0 24 2
t21 7l1 -94q-25 -11 -53 -18t-64 -7zM266 140q38 0 66.5 30.5t36.5 81.5l30 213q-8 1 -16.5 1.5t-19.5 0.5q-27 0 -51.5 -9.5t-44.5 -32t-34.5 -59t-21.5 -89.5q-6 -39 -6 -66q0 -41 14.5 -56t46.5 -15z" />
    <glyph glyph-name="Cacute" unicode="&#x106;" horiz-adv-x="592" 
d="M450 763q45 0 91 -8t78 -21l-42 -161q-27 9 -61.5 15t-75.5 6q-47 0 -78 -10.5t-51.5 -35.5t-32.5 -66.5t-21 -103.5q-9 -59 -9 -99q0 -71 30.5 -98t101.5 -27q40 0 75.5 7t67.5 20l-2 -155q-41 -18 -93 -29t-101 -11q-150 0 -224.5 70.5t-74.5 218.5q0 24 2 50t6 54
q13 93 44 164.5t82 120t122.5 74t165.5 25.5zM646 912l-162 -122h-153l74 122h241z" />
    <glyph glyph-name="cacute" unicode="&#x107;" horiz-adv-x="488" 
d="M338 621q50 0 89 -10t72 -29l-70 -135q-17 8 -36 11.5t-42 3.5q-27 0 -49 -7.5t-39 -25.5t-29 -49t-19 -79q-2 -17 -3.5 -32t-1.5 -29q0 -29 5.5 -48.5t16 -31t25.5 -16.5t34 -5q31 0 55.5 10.5t44.5 27.5l50 -113q-45 -41 -95 -58.5t-115 -17.5q-49 0 -89 13.5t-69 42.5
t-45 74.5t-16 109.5q0 38 6 83q23 158 105.5 234t214.5 76zM536 799l-145 -146h-145l72 146h218z" />
    <glyph glyph-name="Ccircumflex" unicode="&#x108;" horiz-adv-x="592" 
d="M450 763q45 0 91 -8t78 -21l-42 -161q-27 9 -61.5 15t-75.5 6q-47 0 -78 -10.5t-51.5 -35.5t-32.5 -66.5t-21 -103.5q-9 -59 -9 -99q0 -71 30.5 -98t101.5 -27q40 0 75.5 7t67.5 20l-2 -155q-41 -18 -93 -29t-101 -11q-150 0 -224.5 70.5t-74.5 218.5q0 24 2 50t6 54
q13 93 44 164.5t82 120t122.5 74t165.5 25.5zM539 913l84 -123h-166l-30 51l-45 -51h-163l114 123h206z" />
    <glyph glyph-name="ccircumflex" unicode="&#x109;" horiz-adv-x="488" 
d="M338 621q50 0 89 -10t72 -29l-70 -135q-17 8 -36 11.5t-42 3.5q-27 0 -49 -7.5t-39 -25.5t-29 -49t-19 -79q-2 -17 -3.5 -32t-1.5 -29q0 -29 5.5 -48.5t16 -31t25.5 -16.5t34 -5q31 0 55.5 10.5t44.5 27.5l50 -113q-45 -41 -95 -58.5t-115 -17.5q-49 0 -89 13.5t-69 42.5
t-45 74.5t-16 109.5q0 38 6 83q23 158 105.5 234t214.5 76zM437 799l77 -146h-142l-13 32q-4 9 -7.5 18.5t-6.5 19.5h-2q-4 -7 -10.5 -16.5t-11.5 -17.5l-26 -36h-141l116 146h167z" />
    <glyph glyph-name="Cdotaccent" unicode="&#x10a;" horiz-adv-x="592" 
d="M450 763q45 0 91 -8t78 -21l-42 -161q-27 9 -61.5 15t-75.5 6q-47 0 -78 -10.5t-51.5 -35.5t-32.5 -66.5t-21 -103.5q-9 -59 -9 -99q0 -71 30.5 -98t101.5 -27q40 0 75.5 7t67.5 20l-2 -155q-41 -18 -93 -29t-101 -11q-150 0 -224.5 70.5t-74.5 218.5q0 24 2 50t6 54
q13 93 44 164.5t82 120t122.5 74t165.5 25.5zM438 917q56 0 78.5 -14t22.5 -41q0 -39 -26.5 -58.5t-92.5 -19.5q-54 0 -78 11.5t-24 40.5q0 40 27 60.5t93 20.5z" />
    <glyph glyph-name="cdotaccent" unicode="&#x10b;" horiz-adv-x="488" 
d="M338 621q50 0 89 -10t72 -29l-70 -135q-17 8 -36 11.5t-42 3.5q-27 0 -49 -7.5t-39 -25.5t-29 -49t-19 -79q-2 -17 -3.5 -32t-1.5 -29q0 -29 5.5 -48.5t16 -31t25.5 -16.5t34 -5q31 0 55.5 10.5t44.5 27.5l50 -113q-45 -41 -95 -58.5t-115 -17.5q-49 0 -89 13.5t-69 42.5
t-45 74.5t-16 109.5q0 38 6 83q23 158 105.5 234t214.5 76zM362 807q51 0 73.5 -16t22.5 -46q0 -86 -117 -86q-49 0 -72 13t-23 45q0 44 28 67t88 23z" />
    <glyph glyph-name="Ccaron" unicode="&#x10c;" horiz-adv-x="592" 
d="M450 763q45 0 91 -8t78 -21l-42 -161q-27 9 -61.5 15t-75.5 6q-47 0 -78 -10.5t-51.5 -35.5t-32.5 -66.5t-21 -103.5q-9 -59 -9 -99q0 -71 30.5 -98t101.5 -27q40 0 75.5 7t67.5 20l-2 -155q-41 -18 -93 -29t-101 -11q-150 0 -224.5 70.5t-74.5 218.5q0 24 2 50t6 54
q13 93 44 164.5t82 120t122.5 74t165.5 25.5zM336 790l-81 123h165l29 -54l47 54h163l-117 -123h-206z" />
    <glyph glyph-name="ccaron" unicode="&#x10d;" horiz-adv-x="488" 
d="M338 621q50 0 89 -10t72 -29l-70 -135q-17 8 -36 11.5t-42 3.5q-27 0 -49 -7.5t-39 -25.5t-29 -49t-19 -79q-2 -17 -3.5 -32t-1.5 -29q0 -29 5.5 -48.5t16 -31t25.5 -16.5t34 -5q31 0 55.5 10.5t44.5 27.5l50 -113q-45 -41 -95 -58.5t-115 -17.5q-49 0 -89 13.5t-69 42.5
t-45 74.5t-16 109.5q0 38 6 83q23 158 105.5 234t214.5 76zM249 653l-73 146h141l13 -37q4 -10 7.5 -20.5t5.5 -18.5h2q5 8 10.5 17t10.5 17l27 42h143l-118 -146h-169z" />
    <glyph glyph-name="Dcaron" unicode="&#x10e;" horiz-adv-x="729" 
d="M405 750q157 0 230 -65t73 -204q0 -23 -2 -48.5t-6 -53.5q-14 -102 -46.5 -174t-82 -117.5t-117 -66.5t-151.5 -21h-298l105 750h295zM239 170h83q36 0 61.5 7.5t43.5 30t30 63.5t22 109q4 28 6 51t2 42q0 32 -6 52.5t-19 32.5t-33.5 16.5t-48.5 4.5h-83zM264 790
l-81 123h165l29 -54l47 54h163l-117 -123h-206z" />
    <glyph glyph-name="dcaron" unicode="&#x10f;" horiz-adv-x="629" 
d="M331 621q24 0 46 -2t43 -6l22 162l195 8l-110 -783h-149l-12 49q-38 -32 -83 -46t-92 -14q-91 0 -136.5 50t-45.5 162q0 109 24.5 188.5t67.5 131t102 76t128 24.5zM266 140q38 0 66.5 30.5t36.5 81.5l29 208q-20 4 -53 4q-52 0 -85.5 -40t-46.5 -136q-6 -45 -6 -74
q0 -44 14.5 -59t44.5 -15zM757 812q35 0 52.5 -15.5t17.5 -41.5q0 -19 -8.5 -36t-23.5 -33t-34.5 -30t-41.5 -27l-42 20q10 13 19 25t17 24q-43 5 -43 44q0 29 20 49.5t67 20.5z" />
    <glyph glyph-name="Dcroat" unicode="&#x110;" horiz-adv-x="741" 
d="M417 750q157 0 230 -65t73 -204q0 -23 -2 -48.5t-6 -53.5q-14 -102 -46.5 -174t-82 -117.5t-117 -66.5t-151.5 -21h-298l46 330h-52l16 116h52l43 304h295zM290 446h69l-16 -116h-69l-23 -160h83q36 0 61.5 7.5t43.5 30t30 63.5t22 109q4 28 6 51t2 42q0 32 -6 52.5
t-19 32.5t-33.5 16.5t-48.5 4.5h-83z" />
    <glyph glyph-name="dcroat" unicode="&#x111;" horiz-adv-x="638" 
d="M331 621q24 0 46 -2t43 -6l4 28l-67 8l10 82h69l6 44l195 8l-8 -52h45l-13 -97h-45l-89 -634h-149l-12 49q-38 -32 -83 -46t-92 -14q-91 0 -136.5 50t-45.5 162q0 109 24.5 188.5t67.5 131t102 76t128 24.5zM266 140q38 0 66.5 30.5t36.5 81.5l29 208q-20 4 -53 4
q-52 0 -85.5 -40t-46.5 -136q-6 -45 -6 -74q0 -44 14.5 -59t44.5 -15z" />
    <glyph glyph-name="Emacron" unicode="&#x112;" horiz-adv-x="616" 
d="M562 165l-26 -165h-531l105 750h517l-20 -167h-310l-17 -125h256l-21 -150h-256l-20 -143h323zM545 803h-343l13 90h343z" />
    <glyph glyph-name="emacron" unicode="&#x113;" horiz-adv-x="540" 
d="M341 623q92 0 142.5 -41.5t50.5 -109.5q0 -52 -19 -92t-59.5 -70t-103 -50t-149.5 -32q1 -50 25 -68.5t72 -18.5q38 0 72.5 11t62.5 31l48 -115q-40 -33 -100 -56t-139 -23q-52 0 -94.5 14t-73 43.5t-47.5 75.5t-17 110q0 35 6 79q22 155 104 233.5t219 78.5zM322 479
q-42 0 -66.5 -28t-39.5 -97q42 7 70 17t45 22t24 26t7 29q0 31 -40 31zM518 674h-343l16 109h343z" />
    <glyph glyph-name="Ebreve" unicode="&#x114;" horiz-adv-x="616" 
d="M562 165l-26 -165h-531l105 750h517l-20 -167h-310l-17 -125h256l-21 -150h-256l-20 -143h323zM581 913q-9 -63 -56.5 -96t-144.5 -33q-91 0 -128 27.5t-37 77.5q0 5 0.5 11t1.5 13h141q-1 -3 -1 -8q0 -17 10 -23t27 -6t29.5 7t15.5 30h142z" />
    <glyph glyph-name="ebreve" unicode="&#x115;" horiz-adv-x="540" 
d="M341 623q92 0 142.5 -41.5t50.5 -109.5q0 -52 -19 -92t-59.5 -70t-103 -50t-149.5 -32q1 -50 25 -68.5t72 -18.5q38 0 72.5 11t62.5 31l48 -115q-40 -33 -100 -56t-139 -23q-52 0 -94.5 14t-73 43.5t-47.5 75.5t-17 110q0 35 6 79q22 155 104 233.5t219 78.5zM322 479
q-42 0 -66.5 -28t-39.5 -97q42 7 70 17t45 22t24 26t7 29q0 31 -40 31zM535 799q-11 -75 -56.5 -114.5t-137.5 -39.5q-83 0 -117.5 30.5t-34.5 86.5q0 17 3 37h129q-1 -6 -1.5 -11t-0.5 -10q0 -24 9.5 -33t25.5 -9q17 0 31 12.5t19 50.5h131z" />
    <glyph glyph-name="Edotaccent" unicode="&#x116;" horiz-adv-x="616" 
d="M562 165l-26 -165h-531l105 750h517l-20 -167h-310l-17 -125h256l-21 -150h-256l-20 -143h323zM399 917q56 0 78.5 -14t22.5 -41q0 -39 -26.5 -58.5t-92.5 -19.5q-54 0 -78 11.5t-24 40.5q0 40 27 60.5t93 20.5z" />
    <glyph glyph-name="edotaccent" unicode="&#x117;" horiz-adv-x="540" 
d="M341 623q92 0 142.5 -41.5t50.5 -109.5q0 -52 -19 -92t-59.5 -70t-103 -50t-149.5 -32q1 -50 25 -68.5t72 -18.5q38 0 72.5 11t62.5 31l48 -115q-40 -33 -100 -56t-139 -23q-52 0 -94.5 14t-73 43.5t-47.5 75.5t-17 110q0 35 6 79q22 155 104 233.5t219 78.5zM322 479
q-42 0 -66.5 -28t-39.5 -97q42 7 70 17t45 22t24 26t7 29q0 31 -40 31zM368 807q51 0 73.5 -16t22.5 -46q0 -86 -117 -86q-49 0 -72 13t-23 45q0 44 28 67t88 23z" />
    <glyph glyph-name="Eogonek" unicode="&#x118;" horiz-adv-x="616" 
d="M562 165l-26 -165h-33q-28 0 -47 -17t-19 -37q0 -14 9.5 -21t32.5 -7q13 0 23 2t21 7l2 -94q-25 -12 -53 -18.5t-64 -6.5q-63 0 -93.5 23t-30.5 60q0 72 74 109h-353l105 750h517l-20 -167h-310l-17 -125h256l-21 -150h-256l-20 -143h323z" />
    <glyph glyph-name="eogonek" unicode="&#x119;" horiz-adv-x="540" 
d="M256 -192q-63 0 -92.5 23t-29.5 59t17.5 61.5t50.5 42.5q-88 9 -139 67t-51 172q0 36 6 78q22 155 104 233.5t219 78.5q92 0 142.5 -41.5t50.5 -109.5q0 -52 -19 -92t-59.5 -70t-103 -50t-149.5 -32q1 -50 25 -68.5t72 -18.5q38 0 72.5 11t62.5 31l48 -115
q-29 -24 -62.5 -39.5t-79.5 -26.5q-27 -6 -41 -21.5t-14 -35.5q0 -27 41 -27q14 0 24 2t21 7l1 -94q-25 -11 -53 -18t-64 -7zM322 479q-42 0 -66.5 -28t-39.5 -97q42 7 70 17t45 22t24 26t7 29q0 31 -40 31z" />
    <glyph glyph-name="Ecaron" unicode="&#x11a;" horiz-adv-x="616" 
d="M562 165l-26 -165h-531l105 750h517l-20 -167h-310l-17 -125h256l-21 -150h-256l-20 -143h323zM262 790l-81 123h165l29 -54l47 54h163l-117 -123h-206z" />
    <glyph glyph-name="ecaron" unicode="&#x11b;" horiz-adv-x="540" 
d="M341 623q92 0 142.5 -41.5t50.5 -109.5q0 -52 -19 -92t-59.5 -70t-103 -50t-149.5 -32q1 -50 25 -68.5t72 -18.5q38 0 72.5 11t62.5 31l48 -115q-40 -33 -100 -56t-139 -23q-52 0 -94.5 14t-73 43.5t-47.5 75.5t-17 110q0 35 6 79q22 155 104 233.5t219 78.5zM322 479
q-42 0 -66.5 -28t-39.5 -97q42 7 70 17t45 22t24 26t7 29q0 31 -40 31zM259 653l-73 146h141l13 -37q4 -10 7.5 -20.5t5.5 -18.5h2q5 8 10.5 17t10.5 17l27 42h143l-118 -146h-169z" />
    <glyph glyph-name="Gcircumflex" unicode="&#x11c;" horiz-adv-x="669" 
d="M579 23q-44 -17 -107 -27t-124 -10q-86 0 -147 18.5t-99.5 54.5t-56.5 89.5t-18 123.5q0 24 2 49.5t6 53.5q27 192 129.5 290t299.5 98q54 0 109 -8.5t98 -24.5l-42 -166q-38 15 -85.5 23t-90.5 8q-51 0 -85 -10t-56 -35t-35 -67t-22 -106q-9 -62 -9 -103q0 -35 7 -58.5
t21.5 -37t37 -19t54.5 -5.5q11 0 22.5 1t23.5 3l35 248h186zM559 913l84 -123h-166l-30 51l-45 -51h-163l114 123h206z" />
    <glyph glyph-name="gcircumflex" unicode="&#x11d;" horiz-adv-x="622" 
d="M535 89q-10 -69 -40 -117.5t-74.5 -79.5t-100.5 -45t-117 -14q-48 0 -95.5 8.5t-86.5 24.5l35 140q72 -26 132 -26q63 0 103 23t52 84l-2 2q-29 -26 -64 -36.5t-74 -10.5q-40 0 -73 11t-57 35.5t-37 63.5t-13 95q0 81 22.5 149.5t66.5 118.5t108.5 78t149.5 28
q45 0 86 -5t84 -5h68zM277 192q32 0 58.5 25t34.5 78l25 176q-8 1 -18 1h-20q-31 0 -56 -15t-43 -42t-28 -65t-10 -85q0 -42 14 -57.5t43 -15.5zM495 799l77 -146h-142l-13 32q-4 9 -7.5 18.5t-6.5 19.5h-2q-4 -7 -10.5 -16.5t-11.5 -17.5l-26 -36h-141l116 146h167z" />
    <glyph glyph-name="Gbreve" unicode="&#x11e;" horiz-adv-x="669" 
d="M579 23q-44 -17 -107 -27t-124 -10q-86 0 -147 18.5t-99.5 54.5t-56.5 89.5t-18 123.5q0 24 2 49.5t6 53.5q27 192 129.5 290t299.5 98q54 0 109 -8.5t98 -24.5l-42 -166q-38 15 -85.5 23t-90.5 8q-51 0 -85 -10t-56 -35t-35 -67t-22 -106q-9 -62 -9 -103q0 -35 7 -58.5
t21.5 -37t37 -19t54.5 -5.5q11 0 22.5 1t23.5 3l35 248h186zM643 913q-9 -63 -56.5 -96t-144.5 -33q-91 0 -128 27.5t-37 77.5q0 5 0.5 11t1.5 13h141q-1 -3 -1 -8q0 -17 10 -23t27 -6t29.5 7t15.5 30h142z" />
    <glyph glyph-name="gbreve" unicode="&#x11f;" horiz-adv-x="622" 
d="M535 89q-10 -69 -40 -117.5t-74.5 -79.5t-100.5 -45t-117 -14q-48 0 -95.5 8.5t-86.5 24.5l35 140q72 -26 132 -26q63 0 103 23t52 84l-2 2q-29 -26 -64 -36.5t-74 -10.5q-40 0 -73 11t-57 35.5t-37 63.5t-13 95q0 81 22.5 149.5t66.5 118.5t108.5 78t149.5 28
q45 0 86 -5t84 -5h68zM277 192q32 0 58.5 25t34.5 78l25 176q-8 1 -18 1h-20q-31 0 -56 -15t-43 -42t-28 -65t-10 -85q0 -42 14 -57.5t43 -15.5zM590 799q-11 -75 -56.5 -114.5t-137.5 -39.5q-83 0 -117.5 30.5t-34.5 86.5q0 17 3 37h129q-1 -6 -1.5 -11t-0.5 -10
q0 -24 9.5 -33t25.5 -9q17 0 31 12.5t19 50.5h131z" />
    <glyph glyph-name="Gdotaccent" unicode="&#x120;" horiz-adv-x="669" 
d="M579 23q-44 -17 -107 -27t-124 -10q-86 0 -147 18.5t-99.5 54.5t-56.5 89.5t-18 123.5q0 24 2 49.5t6 53.5q27 192 129.5 290t299.5 98q54 0 109 -8.5t98 -24.5l-42 -166q-38 15 -85.5 23t-90.5 8q-51 0 -85 -10t-56 -35t-35 -67t-22 -106q-9 -62 -9 -103q0 -35 7 -58.5
t21.5 -37t37 -19t54.5 -5.5q11 0 22.5 1t23.5 3l35 248h186zM473 917q56 0 78.5 -14t22.5 -41q0 -39 -26.5 -58.5t-92.5 -19.5q-54 0 -78 11.5t-24 40.5q0 40 27 60.5t93 20.5z" />
    <glyph glyph-name="gdotaccent" unicode="&#x121;" horiz-adv-x="622" 
d="M535 89q-10 -69 -40 -117.5t-74.5 -79.5t-100.5 -45t-117 -14q-48 0 -95.5 8.5t-86.5 24.5l35 140q72 -26 132 -26q63 0 103 23t52 84l-2 2q-29 -26 -64 -36.5t-74 -10.5q-40 0 -73 11t-57 35.5t-37 63.5t-13 95q0 81 22.5 149.5t66.5 118.5t108.5 78t149.5 28
q45 0 86 -5t84 -5h68zM277 192q32 0 58.5 25t34.5 78l25 176q-8 1 -18 1h-20q-31 0 -56 -15t-43 -42t-28 -65t-10 -85q0 -42 14 -57.5t43 -15.5zM433 807q51 0 73.5 -16t22.5 -46q0 -86 -117 -86q-49 0 -72 13t-23 45q0 44 28 67t88 23z" />
    <glyph glyph-name="uni0122" unicode="&#x122;" horiz-adv-x="669" 
d="M579 23q-44 -17 -107 -27t-124 -10q-86 0 -147 18.5t-99.5 54.5t-56.5 89.5t-18 123.5q0 24 2 49.5t6 53.5q27 192 129.5 290t299.5 98q54 0 109 -8.5t98 -24.5l-42 -166q-38 15 -85.5 23t-90.5 8q-51 0 -85 -10t-56 -35t-35 -67t-22 -106q-9 -62 -9 -103q0 -35 7 -58.5
t21.5 -37t37 -19t54.5 -5.5q11 0 22.5 1t23.5 3l35 248h186zM347 -31q51 0 73.5 -14.5t22.5 -38.5q0 -18 -11.5 -35.5t-31 -33t-46 -30t-56.5 -26.5l-35 23q12 12 22.5 24.5t20.5 23.5h-4q-29 0 -46.5 11.5t-17.5 31.5q0 25 25 44.5t84 19.5z" />
    <glyph glyph-name="uni0123" unicode="&#x123;" horiz-adv-x="622" 
d="M535 89q-10 -69 -40 -117.5t-74.5 -79.5t-100.5 -45t-117 -14q-48 0 -95.5 8.5t-86.5 24.5l35 140q72 -26 132 -26q63 0 103 23t52 84l-2 2q-29 -26 -64 -36.5t-74 -10.5q-40 0 -73 11t-57 35.5t-37 63.5t-13 95q0 81 22.5 149.5t66.5 118.5t108.5 78t149.5 28
q45 0 86 -5t84 -5h68zM277 192q32 0 58.5 25t34.5 78l25 176q-8 1 -18 1h-20q-31 0 -56 -15t-43 -42t-28 -65t-10 -85q0 -42 14 -57.5t43 -15.5zM399 652q-35 0 -52.5 15.5t-17.5 41.5q0 36 31.5 68t75.5 58l42 -20q-11 -13 -19.5 -25t-16.5 -25q43 -5 43 -43
q0 -29 -20.5 -49.5t-65.5 -20.5z" />
    <glyph glyph-name="Hcircumflex" unicode="&#x124;" horiz-adv-x="735" 
d="M420 0l41 296h-204l-41 -296h-211l105 750h211l-40 -285h204l40 285h210l-105 -750h-210zM546 913l84 -123h-166l-30 51l-45 -51h-163l114 123h206z" />
    <glyph glyph-name="hcircumflex" unicode="&#x125;" horiz-adv-x="634" 
d="M349 0l51 364q3 21 3 36q0 33 -13.5 46t-40.5 13q-40 0 -68 -31.5t-36 -86.5l-48 -341h-194l108 774l196 9l-23 -162q-2 -10 -3.5 -21t-3.5 -19l1 -1q64 43 148 43q87 0 130 -47.5t43 -139.5q0 -16 -1.5 -32.5t-3.5 -34.5l-51 -369h-194zM342 933l84 -123h-166l-30 51
l-45 -51h-163l114 123h206z" />
    <glyph glyph-name="Hbar" unicode="&#x126;" horiz-adv-x="735" 
d="M420 0l41 296h-204l-41 -296h-211l77 550h-34l14 101h34l14 99h211l-14 -99h204l14 99h210l-14 -99h52l-14 -101h-52l-77 -550h-210zM485 465l12 85h-204l-12 -85h204z" />
    <glyph glyph-name="hbar" unicode="&#x127;" horiz-adv-x="637" 
d="M6 0l88 629h-51l14 98h51l6 47l196 9l-8 -56h68l-14 -98h-68l-3 -23q-2 -10 -3.5 -21t-3.5 -19l1 -1q64 43 148 43q87 0 130 -48t43 -140q0 -15 -1.5 -31.5t-3.5 -33.5l-49 -355h-194l49 350q3 19 3 35q0 33 -13.5 46.5t-40.5 13.5q-42 0 -69.5 -32.5t-35.5 -88.5
l-45 -324h-194z" />
    <glyph glyph-name="Itilde" unicode="&#x128;" horiz-adv-x="344" 
d="M120 750h215l-105 -750h-215zM52 791q8 57 43.5 92t91.5 35q27 0 47.5 -5t37.5 -11.5t30.5 -11.5t25.5 -5q14 0 20 5t9 17h84q-10 -59 -45.5 -92.5t-89.5 -33.5q-26 0 -46 5t-36 11t-29 11t-25 5q-11 0 -20 -6t-11 -16h-87z" />
    <glyph glyph-name="itilde" unicode="&#x129;" horiz-adv-x="306" 
d="M6 0l85 606l199 8l-86 -614h-198zM269 649q-26 0 -43.5 7t-30.5 15t-23 15t-21 7q-20 0 -27 -36h-105q11 66 46.5 106t90.5 40q26 0 43.5 -6.5t30.5 -15t22.5 -15t20.5 -6.5q21 0 28 35h105q-11 -66 -46.5 -106t-90.5 -40z" />
    <glyph glyph-name="Imacron" unicode="&#x12a;" horiz-adv-x="344" 
d="M120 750h215l-105 -750h-215zM406 803h-343l13 90h343z" />
    <glyph glyph-name="imacron" unicode="&#x12b;" horiz-adv-x="306" 
d="M6 0l85 606l199 8l-86 -614h-198zM368 674h-343l16 109h343z" />
    <glyph glyph-name="Ibreve" unicode="&#x12c;" horiz-adv-x="344" 
d="M120 750h215l-105 -750h-215zM433 913q-9 -63 -56.5 -96t-144.5 -33q-91 0 -128 27.5t-37 77.5q0 5 0.5 11t1.5 13h141q-1 -3 -1 -8q0 -17 10 -23t27 -6t29.5 7t15.5 30h142z" />
    <glyph glyph-name="ibreve" unicode="&#x12d;" horiz-adv-x="306" 
d="M6 0l85 606l199 8l-86 -614h-198zM387 799q-11 -75 -56.5 -114.5t-137.5 -39.5q-83 0 -117.5 30.5t-34.5 86.5q0 17 3 37h129q-1 -6 -1.5 -11t-0.5 -10q0 -24 9.5 -33t25.5 -9q17 0 31 12.5t19 50.5h131z" />
    <glyph glyph-name="Iogonek" unicode="&#x12e;" horiz-adv-x="344" 
d="M120 750h215l-105 -750h-18q-28 0 -47 -17t-19 -37q0 -14 9.5 -21t32.5 -7q13 0 23 2t21 7l2 -94q-25 -12 -53 -18.5t-64 -6.5q-63 0 -93.5 23t-30.5 60q0 38 19.5 65t49.5 44h-47z" />
    <glyph glyph-name="iogonek" unicode="&#x12f;" horiz-adv-x="306" 
d="M89 -192q-63 0 -92.5 23t-29.5 59q0 37 20 65t51 45h-32l85 605l195 9l-86 -614q-23 0 -38.5 -5t-25 -13t-13.5 -18t-4 -19q0 -27 41 -27q14 0 24 2t21 7l1 -94q-25 -11 -53 -18t-64 -7zM214 807q51 0 73.5 -16t22.5 -46q0 -86 -117 -86q-49 0 -72 13t-23 45q0 44 28 67
t88 23z" />
    <glyph glyph-name="Idotaccent" unicode="&#x130;" horiz-adv-x="344" 
d="M120 750h215l-105 -750h-215zM251 917q56 0 78.5 -14t22.5 -41q0 -39 -26.5 -58.5t-92.5 -19.5q-54 0 -78 11.5t-24 40.5q0 40 27 60.5t93 20.5z" />
    <glyph glyph-name="dotlessi" unicode="&#x131;" horiz-adv-x="306" 
d="M6 0l85 606l199 8l-86 -614h-198z" />
    <glyph glyph-name="Jcircumflex" unicode="&#x134;" horiz-adv-x="541" 
d="M475 286q-12 -85 -42 -142.5t-75.5 -92.5t-106.5 -50t-135 -15q-45 0 -81.5 7.5t-65.5 20.5l33 158q18 -10 45 -15t59 -5q70 0 107 29t48 102l66 467h213zM546 913l84 -123h-166l-30 51l-45 -51h-163l114 123h206z" />
    <glyph glyph-name="jcircumflex" unicode="&#x135;" horiz-adv-x="316" 
d="M222 88q-10 -68 -37 -115.5t-67.5 -77.5t-92.5 -44.5t-113 -17.5l6 132q25 3 44 10t32 21t21 36t13 55l73 518l195 9zM302 799l77 -146h-142l-13 32q-4 9 -7.5 18.5t-6.5 19.5h-2q-4 -7 -10.5 -16.5t-11.5 -17.5l-26 -36h-141l116 146h167z" />
    <glyph glyph-name="uni0136" unicode="&#x136;" horiz-adv-x="731" 
d="M426 0l-113 306h-54l-43 -306h-211l105 750h210l-41 -288h57l196 288h238l-251 -354l158 -396h-251zM307 -31q51 0 73.5 -14.5t22.5 -38.5q0 -18 -11.5 -35.5t-31 -33t-46 -30t-56.5 -26.5l-35 23q12 12 22.5 24.5t20.5 23.5h-4q-29 0 -46.5 11.5t-17.5 31.5
q0 25 25 44.5t84 19.5z" />
    <glyph glyph-name="uni0137" unicode="&#x137;" horiz-adv-x="651" 
d="M3 0l108 774l196 9l-27 -189q-2 -10 -3.5 -21t-3.5 -19l1 -1q45 35 93 52.5t96 17.5q77 0 113 -36t36 -102t-33.5 -131.5t-102.5 -115.5q20 -45 51.5 -69.5t82.5 -34.5l-42 -142q-63 0 -115.5 20t-91.5 57.5t-62.5 92t-27.5 124.5q33 12 60 29.5t46 36.5t29 39.5t10 38.5
q0 14 -7.5 22t-25.5 8q-21 0 -45 -13.5t-45.5 -42t-39 -72.5t-25.5 -105l-31 -227h-194zM295 -31q51 0 73.5 -14.5t22.5 -38.5q0 -18 -11.5 -35.5t-31 -33t-46 -30t-56.5 -26.5l-35 23q12 12 22.5 24.5t20.5 23.5h-4q-29 0 -46.5 11.5t-17.5 31.5q0 25 25 44.5t84 19.5z" />
    <glyph glyph-name="kgreenlandic" unicode="&#x138;" horiz-adv-x="616" 
d="M-1 0l85 606l195 9l-29 -211q-2 -11 -3.5 -23t-3.5 -18h1q28 16 59 47t58 66.5t47.5 71.5t28.5 63h182q-7 -32 -25.5 -71.5t-45.5 -80.5t-61 -80.5t-73 -70.5q26 -71 68.5 -117t96.5 -57l-44 -142q-59 2 -108.5 23.5t-88 60t-65 93.5t-38.5 124h-2q-1 -10 -2 -20.5
t-3 -20.5l-35 -252h-194z" />
    <glyph glyph-name="Lacute" unicode="&#x139;" horiz-adv-x="565" 
d="M524 170l-28 -170h-491l105 750h212l-82 -580h284zM477 912l-162 -122h-153l74 122h241z" />
    <glyph glyph-name="lacute" unicode="&#x13a;" horiz-adv-x="301" 
d="M3 0l108 774l196 9l-110 -783h-194zM438 927l-162 -122h-153l74 122h241z" />
    <glyph glyph-name="uni013B" unicode="&#x13b;" horiz-adv-x="565" 
d="M524 170l-28 -170h-491l105 750h212l-82 -580h284zM255 -31q51 0 73.5 -14.5t22.5 -38.5q0 -18 -11.5 -35.5t-31 -33t-46 -30t-56.5 -26.5l-35 23q12 12 22.5 24.5t20.5 23.5h-4q-29 0 -46.5 11.5t-17.5 31.5q0 25 25 44.5t84 19.5z" />
    <glyph glyph-name="uni013C" unicode="&#x13c;" horiz-adv-x="301" 
d="M3 0l108 774l196 9l-110 -783h-194zM92 -31q51 0 73.5 -14.5t22.5 -38.5q0 -18 -11.5 -35.5t-31 -33t-46 -30t-56.5 -26.5l-35 23q12 12 22.5 24.5t20.5 23.5h-4q-29 0 -46.5 11.5t-17.5 31.5q0 25 25 44.5t84 19.5z" />
    <glyph glyph-name="Lcaron" unicode="&#x13d;" horiz-adv-x="565" 
d="M524 170l-28 -170h-491l105 750h212l-82 -580h284zM479 760q35 0 52.5 -15.5t17.5 -41.5q0 -19 -8.5 -36t-23.5 -33t-34.5 -30t-41.5 -27l-42 20q10 13 19 25t17 24q-43 5 -43 44q0 29 20 49.5t67 20.5z" />
    <glyph glyph-name="lcaron" unicode="&#x13e;" horiz-adv-x="301" 
d="M3 0l108 774l196 9l-110 -783h-194zM424 812q35 0 52.5 -15.5t17.5 -41.5q0 -19 -8.5 -36t-23.5 -33t-34.5 -30t-41.5 -27l-42 20q10 13 19 25t17 24q-43 5 -43 44q0 29 20 49.5t67 20.5z" />
    <glyph glyph-name="Ldot" unicode="&#x13f;" horiz-adv-x="565" 
d="M524 170l-28 -170h-491l105 750h212l-82 -580h284zM462 496q44 0 63.5 -17t19.5 -50q0 -48 -26.5 -76t-80.5 -28q-44 0 -64.5 14.5t-20.5 48.5q0 53 26.5 80.5t82.5 27.5z" />
    <glyph glyph-name="ldot" unicode="&#x140;" horiz-adv-x="459" 
d="M5 0l108 774l196 9l-110 -783h-194zM396 488q40 0 58 -16t18 -46q0 -44 -23.5 -69.5t-74.5 -25.5q-40 0 -58.5 13t-18.5 45q0 48 24 73.5t75 25.5z" />
    <glyph glyph-name="Lslash" unicode="&#x141;" 
d="M564 170l-28 -170h-491l38 270l-68 -26l7 154l83 33l45 319h212l-35 -244l176 67l-6 -161l-193 -72l-24 -170h284z" />
    <glyph glyph-name="lslash" unicode="&#x142;" horiz-adv-x="378" 
d="M33 450l76 34l41 290l196 9l-32 -223l83 36l-21 -150l-83 -38l-57 -408h-194l46 330l-76 -34z" />
    <glyph glyph-name="Nacute" unicode="&#x143;" horiz-adv-x="741" 
d="M489 0l-239 429l-2 -1q-2 -10 -2 -20.5t-2 -20.5l-54 -387h-185l105 750h175l215 -404l1 1q0 10 1 20t3 20l51 363h185l-105 -750h-147zM657 912l-162 -122h-153l74 122h241z" />
    <glyph glyph-name="nacute" unicode="&#x144;" horiz-adv-x="630" 
d="M395 362q3 21 3 37q0 33 -13 46.5t-40 13.5q-39 0 -67.5 -31t-36.5 -85l-48 -343h-194l85 606l152 9l9 -56h3q33 31 76.5 47.5t97.5 16.5q87 0 130 -47.5t43 -139.5q0 -16 -1.5 -32.5t-3.5 -34.5l-51 -369h-194zM552 799l-145 -146h-145l72 146h218z" />
    <glyph glyph-name="uni0145" unicode="&#x145;" horiz-adv-x="741" 
d="M489 0l-239 429l-2 -1q-2 -10 -2 -20.5t-2 -20.5l-54 -387h-185l105 750h175l215 -404l1 1q0 10 1 20t3 20l51 363h185l-105 -750h-147zM328 -31q51 0 73.5 -14.5t22.5 -38.5q0 -18 -11.5 -35.5t-31 -33t-46 -30t-56.5 -26.5l-35 23q12 12 22.5 24.5t20.5 23.5h-4
q-29 0 -46.5 11.5t-17.5 31.5q0 25 25 44.5t84 19.5z" />
    <glyph glyph-name="uni0146" unicode="&#x146;" horiz-adv-x="630" 
d="M395 362q3 21 3 37q0 33 -13 46.5t-40 13.5q-39 0 -67.5 -31t-36.5 -85l-48 -343h-194l85 606l152 9l9 -56h3q33 31 76.5 47.5t97.5 16.5q87 0 130 -47.5t43 -139.5q0 -16 -1.5 -32.5t-3.5 -34.5l-51 -369h-194zM260 -31q51 0 73.5 -14.5t22.5 -38.5q0 -18 -11.5 -35.5
t-31 -33t-46 -30t-56.5 -26.5l-35 23q12 12 22.5 24.5t20.5 23.5h-4q-29 0 -46.5 11.5t-17.5 31.5q0 25 25 44.5t84 19.5z" />
    <glyph glyph-name="Ncaron" unicode="&#x147;" horiz-adv-x="741" 
d="M489 0l-239 429l-2 -1q-2 -10 -2 -20.5t-2 -20.5l-54 -387h-185l105 750h175l215 -404l1 1q0 10 1 20t3 20l51 363h185l-105 -750h-147zM319 790l-81 123h165l29 -54l47 54h163l-117 -123h-206z" />
    <glyph glyph-name="ncaron" unicode="&#x148;" horiz-adv-x="630" 
d="M395 362q3 21 3 37q0 33 -13 46.5t-40 13.5q-39 0 -67.5 -31t-36.5 -85l-48 -343h-194l85 606l152 9l9 -56h3q33 31 76.5 47.5t97.5 16.5q87 0 130 -47.5t43 -139.5q0 -16 -1.5 -32.5t-3.5 -34.5l-51 -369h-194zM268 653l-73 146h141l13 -37q4 -10 7.5 -20.5t5.5 -18.5h2
q5 8 10.5 17t10.5 17l27 42h143l-118 -146h-169z" />
    <glyph glyph-name="napostrophe" unicode="&#x149;" horiz-adv-x="630" 
d="M395 362q3 21 3 37q0 33 -13 46.5t-40 13.5q-39 0 -67.5 -31t-36.5 -85l-48 -343h-194l85 606l152 9l9 -56h3q33 31 76.5 47.5t97.5 16.5q87 0 130 -47.5t43 -139.5q0 -16 -1.5 -32.5t-3.5 -34.5l-51 -369h-194zM100 812q35 0 52.5 -15.5t17.5 -41.5q0 -19 -8.5 -36
t-23.5 -33t-34.5 -30t-41.5 -27l-42 20q10 13 19 25t17 24q-43 5 -43 44q0 29 20 49.5t67 20.5z" />
    <glyph glyph-name="Eng" unicode="&#x14a;" horiz-adv-x="741" 
d="M647 80q-18 -126 -79.5 -182.5t-158.5 -56.5q-34 0 -65.5 5.5t-51.5 15.5l25 120q12 -5 27.5 -8t29.5 -3q34 0 56 19.5t31 72.5l-211 366l-2 -1q-2 -10 -2 -20.5t-2 -20.5l-54 -387h-185l105 750h175l215 -400l1 1q0 10 1 20t3 20l51 359h185z" />
    <glyph glyph-name="eng" unicode="&#x14b;" horiz-adv-x="630" 
d="M255 -33q24 2 41 8t29 19.5t19.5 35.5t12.5 57l38 275q3 21 3 37q0 32 -13 45t-40 13q-40 0 -68 -30t-36 -84l-48 -343h-194l85 606l152 9l9 -56h3q33 31 76.5 47.5t97.5 16.5q87 0 130 -47.5t43 -139.5q0 -16 -1.5 -32.5t-3.5 -34.5l-39 -281q-9 -68 -35.5 -115
t-66 -76.5t-90.5 -43.5t-110 -17z" />
    <glyph glyph-name="Omacron" unicode="&#x14c;" horiz-adv-x="752" 
d="M722 375q-14 -101 -44 -174.5t-78.5 -121t-116.5 -70.5t-159 -23q-153 0 -225 69t-72 213q0 25 1.5 51.5t6.5 55.5q14 99 44 172t78.5 121t117 71t158.5 23q154 0 225.5 -68t71.5 -210q0 -25 -2 -52.5t-6 -56.5zM501 375q5 35 7.5 62t2.5 49q0 65 -24.5 87t-77.5 22
q-35 0 -59.5 -9t-42 -33t-29.5 -67t-22 -111q-9 -66 -9 -109q0 -33 6 -55t18 -35t31 -18t45 -5q35 0 60 9.5t43 34t30 67.5t21 111zM608 803h-343l13 90h343z" />
    <glyph glyph-name="omacron" unicode="&#x14d;" horiz-adv-x="611" 
d="M322 469q-23 0 -40 -6.5t-29.5 -24.5t-22 -51t-16.5 -87q-4 -27 -6 -48.5t-2 -38.5q0 -49 16.5 -64t49.5 -15q23 0 40.5 6.5t30.5 25t22.5 52.5t17.5 88q4 26 5.5 46t1.5 36q0 50 -17 65.5t-51 15.5zM347 623q128 0 183.5 -58.5t55.5 -171.5q0 -21 -1.5 -44t-5.5 -49
q-11 -80 -35.5 -138.5t-65 -97t-97 -57.5t-132.5 -19q-128 0 -183.5 57.5t-55.5 170.5q0 22 1.5 45t5.5 49q11 79 35.5 138t65 98t97 58t132.5 19zM528 674h-343l16 109h343z" />
    <glyph glyph-name="Obreve" unicode="&#x14e;" horiz-adv-x="752" 
d="M722 375q-14 -101 -44 -174.5t-78.5 -121t-116.5 -70.5t-159 -23q-153 0 -225 69t-72 213q0 25 1.5 51.5t6.5 55.5q14 99 44 172t78.5 121t117 71t158.5 23q154 0 225.5 -68t71.5 -210q0 -25 -2 -52.5t-6 -56.5zM501 375q5 35 7.5 62t2.5 49q0 65 -24.5 87t-77.5 22
q-35 0 -59.5 -9t-42 -33t-29.5 -67t-22 -111q-9 -66 -9 -109q0 -33 6 -55t18 -35t31 -18t45 -5q35 0 60 9.5t43 34t30 67.5t21 111zM638 913q-9 -63 -56.5 -96t-144.5 -33q-91 0 -128 27.5t-37 77.5q0 5 0.5 11t1.5 13h141q-1 -3 -1 -8q0 -17 10 -23t27 -6t29.5 7t15.5 30
h142z" />
    <glyph glyph-name="obreve" unicode="&#x14f;" horiz-adv-x="611" 
d="M322 469q-23 0 -40 -6.5t-29.5 -24.5t-22 -51t-16.5 -87q-4 -27 -6 -48.5t-2 -38.5q0 -49 16.5 -64t49.5 -15q23 0 40.5 6.5t30.5 25t22.5 52.5t17.5 88q4 26 5.5 46t1.5 36q0 50 -17 65.5t-51 15.5zM347 623q128 0 183.5 -58.5t55.5 -171.5q0 -21 -1.5 -44t-5.5 -49
q-11 -80 -35.5 -138.5t-65 -97t-97 -57.5t-132.5 -19q-128 0 -183.5 57.5t-55.5 170.5q0 22 1.5 45t5.5 49q11 79 35.5 138t65 98t97 58t132.5 19zM545 799q-11 -75 -56.5 -114.5t-137.5 -39.5q-83 0 -117.5 30.5t-34.5 86.5q0 17 3 37h129q-1 -6 -1.5 -11t-0.5 -10
q0 -24 9.5 -33t25.5 -9q17 0 31 12.5t19 50.5h131z" />
    <glyph glyph-name="Ohungarumlaut" unicode="&#x150;" horiz-adv-x="752" 
d="M722 375q-14 -101 -44 -174.5t-78.5 -121t-116.5 -70.5t-159 -23q-153 0 -225 69t-72 213q0 25 1.5 51.5t6.5 55.5q14 99 44 172t78.5 121t117 71t158.5 23q154 0 225.5 -68t71.5 -210q0 -25 -2 -52.5t-6 -56.5zM501 375q5 35 7.5 62t2.5 49q0 65 -24.5 87t-77.5 22
q-35 0 -59.5 -9t-42 -33t-29.5 -67t-22 -111q-9 -66 -9 -109q0 -33 6 -55t18 -35t31 -18t45 -5q35 0 60 9.5t43 34t30 67.5t21 111zM513 912l-106 -122h-122l37 122h191zM735 912l-132 -122h-138l75 122h195z" />
    <glyph glyph-name="ohungarumlaut" unicode="&#x151;" horiz-adv-x="611" 
d="M322 469q-23 0 -40 -6.5t-29.5 -24.5t-22 -51t-16.5 -87q-4 -27 -6 -48.5t-2 -38.5q0 -49 16.5 -64t49.5 -15q23 0 40.5 6.5t30.5 25t22.5 52.5t17.5 88q4 26 5.5 46t1.5 36q0 50 -17 65.5t-51 15.5zM347 623q128 0 183.5 -58.5t55.5 -171.5q0 -21 -1.5 -44t-5.5 -49
q-11 -80 -35.5 -138.5t-65 -97t-97 -57.5t-132.5 -19q-128 0 -183.5 57.5t-55.5 170.5q0 22 1.5 45t5.5 49q11 79 35.5 138t65 98t97 58t132.5 19zM439 799l-129 -146h-122l60 146h191zM662 799l-146 -146h-139l89 146h196z" />
    <glyph glyph-name="OE" unicode="&#x152;" horiz-adv-x="1055" 
d="M465 0l5 42l-2 1q-37 -30 -83.5 -43.5t-103.5 -13.5q-125 0 -189.5 68.5t-64.5 211.5q0 25 1.5 52.5t6.5 56.5q28 199 117 293t240 94q51 0 95 -13.5t75 -42.5h2l6 44h496l-21 -167h-309l-17 -125h256l-21 -150h-256l-20 -143h323l-26 -165h-510zM500 375q5 34 7.5 61
t2.5 49q0 32 -6 52.5t-18 32.5t-31 17t-45 5q-35 0 -60 -9t-43 -33t-30 -66.5t-21 -108.5t-9 -108q0 -33 6 -54.5t18 -34t31 -17.5t45 -5q35 0 60 9.5t42.5 34t29.5 67t21 108.5z" />
    <glyph glyph-name="oe" unicode="&#x153;" horiz-adv-x="910" 
d="M347 623q62 0 103.5 -17t66.5 -51q35 34 83 51t112 17q91 0 142 -41.5t51 -110.5q0 -99 -81 -163t-250 -86q3 -47 26.5 -64t69.5 -17q38 0 72.5 11t62.5 31l49 -115q-40 -33 -100 -56t-139 -23q-57 0 -99.5 17t-68.5 53q-71 -71 -198 -71q-128 0 -183.5 57.5t-55.5 170.5
q0 22 1.5 45t5.5 49q11 79 35.5 138t65 98t97 58t132.5 19zM322 467q-23 0 -40 -6.5t-30 -24.5t-22 -50.5t-16 -85.5q-4 -26 -6 -46.5t-2 -37.5q0 -25 4.5 -40.5t13 -24.5t21 -12t29.5 -3q23 0 40 6.5t29.5 25t22 51.5t17.5 87q4 25 5.5 45t1.5 36q0 49 -17 64.5t-51 15.5z
M694 478q-41 0 -66.5 -27t-40.5 -97q82 13 113.5 37t31.5 54q0 14 -9 23.5t-29 9.5z" />
    <glyph glyph-name="Racute" unicode="&#x154;" horiz-adv-x="692" 
d="M398 750q136 0 204 -47t68 -148q0 -93 -40 -159.5t-105 -91.5l121 -304h-245l-74 263h-75l-36 -263h-211l105 750h288zM273 409h77q22 0 38.5 3.5t28.5 14t19.5 28.5t11.5 47q3 18 3 32q0 35 -17.5 46.5t-56.5 11.5h-78zM602 912l-162 -122h-153l74 122h241z" />
    <glyph glyph-name="racute" unicode="&#x155;" horiz-adv-x="465" 
d="M415 622q23 0 43.5 -5t33.5 -13l-54 -182q-13 8 -27 11.5t-33 3.5q-53 0 -94.5 -44t-53.5 -128l-37 -265h-194l85 605l152 9l4 -41q1 -11 2 -20.5t1 -19.5l2 -1q35 44 77 67t93 23zM467 799l-145 -146h-145l72 146h218z" />
    <glyph glyph-name="uni0156" unicode="&#x156;" horiz-adv-x="692" 
d="M398 750q136 0 204 -47t68 -148q0 -93 -40 -159.5t-105 -91.5l121 -304h-245l-74 263h-75l-36 -263h-211l105 750h288zM273 409h77q22 0 38.5 3.5t28.5 14t19.5 28.5t11.5 47q3 18 3 32q0 35 -17.5 46.5t-56.5 11.5h-78zM286 -31q51 0 73.5 -14.5t22.5 -38.5
q0 -18 -11.5 -35.5t-31 -33t-46 -30t-56.5 -26.5l-35 23q12 12 22.5 24.5t20.5 23.5h-4q-29 0 -46.5 11.5t-17.5 31.5q0 25 25 44.5t84 19.5z" />
    <glyph glyph-name="uni0157" unicode="&#x157;" horiz-adv-x="465" 
d="M415 622q23 0 43.5 -5t33.5 -13l-54 -182q-13 8 -27 11.5t-33 3.5q-53 0 -94.5 -44t-53.5 -128l-37 -265h-194l85 605l152 9l4 -41q1 -11 2 -20.5t1 -19.5l2 -1q35 44 77 67t93 23zM97 -31q51 0 73.5 -14.5t22.5 -38.5q0 -18 -11.5 -35.5t-31 -33t-46 -30t-56.5 -26.5
l-35 23q12 12 22.5 24.5t20.5 23.5h-4q-29 0 -46.5 11.5t-17.5 31.5q0 25 25 44.5t84 19.5z" />
    <glyph glyph-name="Rcaron" unicode="&#x158;" horiz-adv-x="692" 
d="M398 750q136 0 204 -47t68 -148q0 -93 -40 -159.5t-105 -91.5l121 -304h-245l-74 263h-75l-36 -263h-211l105 750h288zM273 409h77q22 0 38.5 3.5t28.5 14t19.5 28.5t11.5 47q3 18 3 32q0 35 -17.5 46.5t-56.5 11.5h-78zM252 790l-81 123h165l29 -54l47 54h163l-117 -123
h-206z" />
    <glyph glyph-name="rcaron" unicode="&#x159;" horiz-adv-x="465" 
d="M419 622q23 0 43.5 -5t33.5 -13l-54 -182q-13 8 -27 11.5t-33 3.5q-53 0 -94.5 -44t-53.5 -128l-37 -265h-194l85 605l152 9l4 -41q1 -11 2 -20.5t1 -19.5l2 -1q35 44 77 67t93 23zM203 653l-73 146h141l13 -37q4 -10 7.5 -20.5t5.5 -18.5h2q5 8 10.5 17t10.5 17l27 42
h143l-118 -146h-169z" />
    <glyph glyph-name="Sacute" unicode="&#x15a;" horiz-adv-x="584" 
d="M377 763q56 0 112.5 -10t99.5 -28l-45 -162q-48 14 -93 22t-86 8q-63 0 -84.5 -18t-21.5 -45q0 -21 21.5 -34.5t53.5 -26t69.5 -26.5t69.5 -36.5t53.5 -56t21.5 -85.5q0 -64 -24.5 -115.5t-68.5 -88t-104.5 -56t-131.5 -19.5q-66 0 -125 14t-107 40l48 166
q48 -25 98.5 -39t105.5 -14q102 0 102 68q0 22 -21.5 36t-53.5 26.5t-69 27t-69 37t-53.5 56.5t-21.5 86q0 54 20 103.5t60.5 87t101.5 60t142 22.5zM598 912l-162 -122h-153l74 122h241z" />
    <glyph glyph-name="sacute" unicode="&#x15b;" horiz-adv-x="481" 
d="M312 623q47 0 90 -10.5t75 -29.5l-72 -134q-25 11 -57 15.5t-65 4.5q-28 0 -42.5 -11.5t-14.5 -29.5q0 -17 16 -27.5t39.5 -19.5t51 -19.5t51 -28t39.5 -43.5t16 -66q0 -7 -0.5 -14t-1.5 -15q-6 -46 -23 -84t-47.5 -65t-76 -42t-108.5 -15q-60 0 -111 15.5t-89 41.5
l58 135q34 -23 73 -34t73 -11q33 0 49.5 13t16.5 35q0 18 -16 29.5t-39.5 21.5t-51.5 22t-51.5 30t-39.5 45t-16 69q0 48 18 88.5t52.5 70t86 46.5t117.5 17zM497 799l-145 -146h-145l72 146h218z" />
    <glyph glyph-name="Scircumflex" unicode="&#x15c;" horiz-adv-x="584" 
d="M377 763q56 0 112.5 -10t99.5 -28l-45 -162q-48 14 -93 22t-86 8q-63 0 -84.5 -18t-21.5 -45q0 -21 21.5 -34.5t53.5 -26t69.5 -26.5t69.5 -36.5t53.5 -56t21.5 -85.5q0 -64 -24.5 -115.5t-68.5 -88t-104.5 -56t-131.5 -19.5q-66 0 -125 14t-107 40l48 166
q48 -25 98.5 -39t105.5 -14q102 0 102 68q0 22 -21.5 36t-53.5 26.5t-69 27t-69 37t-53.5 56.5t-21.5 86q0 54 20 103.5t60.5 87t101.5 60t142 22.5zM492 913l84 -123h-166l-30 51l-45 -51h-163l114 123h206z" />
    <glyph glyph-name="scircumflex" unicode="&#x15d;" horiz-adv-x="481" 
d="M312 623q47 0 90 -10.5t75 -29.5l-72 -134q-25 11 -57 15.5t-65 4.5q-28 0 -42.5 -11.5t-14.5 -29.5q0 -17 16 -27.5t39.5 -19.5t51 -19.5t51 -28t39.5 -43.5t16 -66q0 -7 -0.5 -14t-1.5 -15q-6 -46 -23 -84t-47.5 -65t-76 -42t-108.5 -15q-60 0 -111 15.5t-89 41.5
l58 135q34 -23 73 -34t73 -11q33 0 49.5 13t16.5 35q0 18 -16 29.5t-39.5 21.5t-51.5 22t-51.5 30t-39.5 45t-16 69q0 48 18 88.5t52.5 70t86 46.5t117.5 17zM402 799l77 -146h-142l-13 32q-4 9 -7.5 18.5t-6.5 19.5h-2q-4 -7 -10.5 -16.5t-11.5 -17.5l-26 -36h-141l116 146
h167z" />
    <glyph glyph-name="Scedilla" unicode="&#x15e;" horiz-adv-x="584" 
d="M162 -11q-50 5 -94 18t-81 33l48 166q48 -25 98.5 -39t105.5 -14q102 0 102 68q0 22 -21.5 36t-53.5 26.5t-69 27t-69 37t-53.5 56.5t-21.5 86q0 54 20 103.5t60.5 87t101.5 60t142 22.5q56 0 112.5 -10t99.5 -28l-45 -162q-48 14 -93 22t-86 8q-63 0 -84.5 -18
t-21.5 -45q0 -21 21.5 -34.5t53.5 -26t69.5 -26.5t69.5 -36.5t53.5 -56t21.5 -85.5q0 -55 -18.5 -101t-52.5 -81.5t-80.5 -58.5t-101.5 -32l-54 -180h-170z" />
    <glyph glyph-name="scedilla" unicode="&#x15f;" horiz-adv-x="481" 
d="M119 -6q-41 6 -75.5 19.5t-61.5 32.5l58 135q34 -23 73 -34t73 -11q33 0 49.5 13t16.5 35q0 18 -16 29.5t-39.5 21.5t-51.5 22t-51.5 30t-39.5 45t-16 69q0 48 18 88.5t52.5 70t86 46.5t117.5 17q47 0 90 -10.5t75 -29.5l-72 -134q-25 11 -57 15.5t-65 4.5
q-28 0 -42.5 -11.5t-14.5 -29.5q0 -17 16 -27.5t39.5 -19.5t51 -19.5t51 -28t39.5 -43.5t16 -66q0 -7 -0.5 -14t-1.5 -15q-11 -78 -54.5 -132t-132.5 -68l-55 -183h-170z" />
    <glyph glyph-name="Scaron" unicode="&#x160;" horiz-adv-x="584" 
d="M377 763q56 0 112.5 -10t99.5 -28l-45 -162q-48 14 -93 22t-86 8q-63 0 -84.5 -18t-21.5 -45q0 -21 21.5 -34.5t53.5 -26t69.5 -26.5t69.5 -36.5t53.5 -56t21.5 -85.5q0 -64 -24.5 -115.5t-68.5 -88t-104.5 -56t-131.5 -19.5q-66 0 -125 14t-107 40l48 166
q48 -25 98.5 -39t105.5 -14q102 0 102 68q0 22 -21.5 36t-53.5 26.5t-69 27t-69 37t-53.5 56.5t-21.5 86q0 54 20 103.5t60.5 87t101.5 60t142 22.5zM274 790l-81 123h165l29 -54l47 54h163l-117 -123h-206z" />
    <glyph glyph-name="scaron" unicode="&#x161;" horiz-adv-x="481" 
d="M312 623q47 0 90 -10.5t75 -29.5l-72 -134q-25 11 -57 15.5t-65 4.5q-28 0 -42.5 -11.5t-14.5 -29.5q0 -17 16 -27.5t39.5 -19.5t51 -19.5t51 -28t39.5 -43.5t16 -66q0 -7 -0.5 -14t-1.5 -15q-6 -46 -23 -84t-47.5 -65t-76 -42t-108.5 -15q-60 0 -111 15.5t-89 41.5
l58 135q34 -23 73 -34t73 -11q33 0 49.5 13t16.5 35q0 18 -16 29.5t-39.5 21.5t-51.5 22t-51.5 30t-39.5 45t-16 69q0 48 18 88.5t52.5 70t86 46.5t117.5 17zM217 653l-73 146h141l13 -37q4 -10 7.5 -20.5t5.5 -18.5h2q5 8 10.5 17t10.5 17l27 42h143l-118 -146h-169z" />
    <glyph glyph-name="uni0162" unicode="&#x162;" horiz-adv-x="606" 
d="M187 0h-40l81 579h-187l28 171h578l-19 -171h-188l-81 -579h-42l-56 -188h-170z" />
    <glyph glyph-name="uni0163" unicode="&#x163;" horiz-adv-x="421" 
d="M152 0q-108 27 -108 160q0 12 1 25.5t3 27.5l35 244h-70l27 144h79l45 143l155 16l-22 -159h137l-27 -144h-130l-33 -235q-1 -7 -1.5 -13t-0.5 -11q0 -27 12 -39t37 -12q13 0 30.5 4t31.5 11l-2 -139q-14 -7 -32 -13t-38 -10l-56 -188h-170z" />
    <glyph glyph-name="Tcaron" unicode="&#x164;" horiz-adv-x="606" 
d="M440 579l-81 -579h-212l81 579h-187l28 171h578l-19 -171h-188zM247 790l-81 123h165l29 -54l47 54h163l-117 -123h-206z" />
    <glyph glyph-name="tcaron" unicode="&#x165;" horiz-adv-x="421" 
d="M40 601h79l45 143l155 16l-22 -159h137l-27 -144h-130l-33 -235q-1 -7 -1.5 -13t-0.5 -11q0 -27 12 -39t37 -12q13 0 30.5 4t31.5 11l-2 -139q-24 -13 -63 -21.5t-75 -8.5q-84 0 -126.5 42.5t-42.5 124.5q0 12 1 25.5t3 27.5l35 244h-70zM474 812q35 0 52.5 -15.5
t17.5 -41.5q0 -19 -8.5 -36t-23.5 -33t-34.5 -30t-41.5 -27l-42 20q10 13 19 25t17 24q-43 5 -43 44q0 29 20 49.5t67 20.5z" />
    <glyph glyph-name="Tbar" unicode="&#x166;" horiz-adv-x="606" 
d="M440 579l-15 -103h118l-17 -126h-118l-49 -350h-212l49 350h-104l17 126h104l15 103h-187l28 171h578l-19 -171h-188z" />
    <glyph glyph-name="tbar" unicode="&#x167;" horiz-adv-x="421" 
d="M45 601h74l45 143l155 16l-22 -159h137l-25 -131h-130l-7 -48h128l-24 -128h-122l-10 -72q-1 -7 -1.5 -13t-0.5 -11q0 -27 12 -39t37 -12q13 0 30.5 4t31.5 11l-2 -139q-24 -13 -63 -21.5t-74 -8.5q-85 0 -127.5 42.5t-42.5 124.5q0 12 1 25.5t3 27.5l12 81h-63l24 128
h57l7 48h-65z" />
    <glyph glyph-name="Utilde" unicode="&#x168;" horiz-adv-x="720" 
d="M660 268q-20 -140 -106 -211t-244 -71q-280 0 -280 224q0 14 1 28.5t3 29.5l68 482h210l-69 -488q-1 -8 -1.5 -15t-0.5 -14q0 -40 21.5 -58.5t70.5 -18.5q57 0 83 24.5t34 81.5l69 488h209zM233 791q8 57 43.5 92t91.5 35q27 0 47.5 -5t37.5 -11.5t30.5 -11.5t25.5 -5
q14 0 20 5t9 17h84q-10 -59 -45.5 -92.5t-89.5 -33.5q-26 0 -46 5t-36 11t-29 11t-25 5q-11 0 -20 -6t-11 -16h-87z" />
    <glyph glyph-name="utilde" unicode="&#x169;" horiz-adv-x="621" 
d="M561 222q-16 -115 -91 -174t-212 -59q-122 0 -180.5 47.5t-58.5 138.5q0 23 3 47l54 384l195 9l-55 -393q-1 -5 -1.5 -9.5t-0.5 -9.5q0 -29 16 -43t51 -14q39 0 59.5 18t26.5 58l54 387h194zM426 649q-26 0 -43.5 7t-30.5 15t-23 15t-21 7q-20 0 -27 -36h-105
q11 66 46.5 106t90.5 40q26 0 43.5 -6.5t30.5 -15t22.5 -15t20.5 -6.5q21 0 28 35h105q-11 -66 -46.5 -106t-90.5 -40z" />
    <glyph glyph-name="Umacron" unicode="&#x16a;" horiz-adv-x="720" 
d="M660 268q-20 -140 -106 -211t-244 -71q-280 0 -280 224q0 14 1 28.5t3 29.5l68 482h210l-69 -488q-1 -8 -1.5 -15t-0.5 -14q0 -40 21.5 -58.5t70.5 -18.5q57 0 83 24.5t34 81.5l69 488h209zM592 803h-343l13 90h343z" />
    <glyph glyph-name="umacron" unicode="&#x16b;" horiz-adv-x="621" 
d="M561 222q-16 -115 -91 -174t-212 -59q-122 0 -180.5 47.5t-58.5 138.5q0 23 3 47l54 384l195 9l-55 -393q-1 -5 -1.5 -9.5t-0.5 -9.5q0 -29 16 -43t51 -14q39 0 59.5 18t26.5 58l54 387h194zM524 674h-343l16 109h343z" />
    <glyph glyph-name="Ubreve" unicode="&#x16c;" horiz-adv-x="720" 
d="M660 268q-20 -140 -106 -211t-244 -71q-280 0 -280 224q0 14 1 28.5t3 29.5l68 482h210l-69 -488q-1 -8 -1.5 -15t-0.5 -14q0 -40 21.5 -58.5t70.5 -18.5q57 0 83 24.5t34 81.5l69 488h209zM622 913q-9 -63 -56.5 -96t-144.5 -33q-91 0 -128 27.5t-37 77.5q0 5 0.5 11
t1.5 13h141q-1 -3 -1 -8q0 -17 10 -23t27 -6t29.5 7t15.5 30h142z" />
    <glyph glyph-name="ubreve" unicode="&#x16d;" horiz-adv-x="621" 
d="M561 222q-16 -115 -91 -174t-212 -59q-122 0 -180.5 47.5t-58.5 138.5q0 23 3 47l54 384l195 9l-55 -393q-1 -5 -1.5 -9.5t-0.5 -9.5q0 -29 16 -43t51 -14q39 0 59.5 18t26.5 58l54 387h194zM545 799q-11 -75 -56.5 -114.5t-137.5 -39.5q-83 0 -117.5 30.5t-34.5 86.5
q0 17 3 37h129q-1 -6 -1.5 -11t-0.5 -10q0 -24 9.5 -33t25.5 -9q17 0 31 12.5t19 50.5h131z" />
    <glyph glyph-name="Uring" unicode="&#x16e;" horiz-adv-x="720" 
d="M434 903q75 0 106 -24t31 -65q0 -39 -13 -64h170l-68 -482q-20 -140 -106 -211t-244 -71q-280 0 -280 224q0 14 1 28.5t3 29.5l68 482h167q-1 5 -1 9v10q0 30 8 55t27 42.5t51 27t80 9.5zM333 156q57 0 83 24.5t34 81.5l62 443q-38 -19 -109 -19q-33 0 -57 3.5t-41 12.5
l-62 -440q-1 -8 -1.5 -15t-0.5 -14q0 -40 21.5 -58.5t70.5 -18.5zM427 823q-38 0 -49 -10.5t-11 -32.5q0 -11 10 -17t40 -6q34 0 45.5 9t11.5 31q0 13 -9.5 19.5t-37.5 6.5z" />
    <glyph glyph-name="uring" unicode="&#x16f;" horiz-adv-x="621" 
d="M561 222q-16 -115 -91 -174t-212 -59q-122 0 -180.5 47.5t-58.5 138.5q0 23 3 47l54 384l195 9l-55 -393q-1 -5 -1.5 -9.5t-0.5 -9.5q0 -29 16 -43t51 -14q39 0 59.5 18t26.5 58l54 387h194zM380 836q69 0 99.5 -22t30.5 -58q0 -57 -39 -83t-118 -26q-65 0 -96.5 17
t-31.5 59q0 26 8 47t26.5 35.5t48 22.5t72.5 8zM373 768q-35 0 -45 -9t-10 -24q0 -11 9.5 -16t38.5 -5t41.5 7.5t12.5 23.5q0 11 -10 17t-37 6z" />
    <glyph glyph-name="Uhungarumlaut" unicode="&#x170;" horiz-adv-x="720" 
d="M660 268q-20 -140 -106 -211t-244 -71q-280 0 -280 224q0 14 1 28.5t3 29.5l68 482h210l-69 -488q-1 -8 -1.5 -15t-0.5 -14q0 -40 21.5 -58.5t70.5 -18.5q57 0 83 24.5t34 81.5l69 488h209zM494 912l-106 -122h-122l37 122h191zM716 912l-132 -122h-138l75 122h195z" />
    <glyph glyph-name="uhungarumlaut" unicode="&#x171;" horiz-adv-x="621" 
d="M561 222q-16 -115 -91 -174t-212 -59q-122 0 -180.5 47.5t-58.5 138.5q0 23 3 47l54 384l195 9l-55 -393q-1 -5 -1.5 -9.5t-0.5 -9.5q0 -29 16 -43t51 -14q39 0 59.5 18t26.5 58l54 387h194zM441 799l-129 -146h-122l60 146h191zM664 799l-146 -146h-139l89 146h196z" />
    <glyph glyph-name="Uogonek" unicode="&#x172;" horiz-adv-x="720" 
d="M347 -192q-63 0 -92.5 23t-29.5 59q0 32 15 57t40 42q-127 5 -188.5 60.5t-61.5 159.5q0 14 1 28.5t3 30.5l68 482h210l-69 -488q-1 -8 -1.5 -15t-0.5 -14q0 -40 21.5 -58.5t70.5 -18.5q57 0 83 24.5t34 81.5l69 488h209l-68 -482q-30 -221 -230 -269q-19 -5 -36 -17
t-17 -37q0 -27 41 -27q14 0 24 2t21 7l1 -94q-25 -11 -53 -18t-64 -7z" />
    <glyph glyph-name="uogonek" unicode="&#x173;" horiz-adv-x="621" 
d="M266 -192q-63 0 -92.5 23t-29.5 59q0 35 16.5 60.5t45.5 43.5q-96 8 -142 54.5t-46 126.5q0 11 1 23t3 24l54 384l195 9l-55 -393q-1 -5 -1.5 -9.5t-0.5 -9.5q0 -29 16 -43t51 -14q39 0 59.5 18t26.5 58l54 387h194l-54 -387q-26 -189 -212 -224q-20 -4 -36.5 -16.5
t-16.5 -36.5q0 -27 41 -27q14 0 24 2t21 7l1 -94q-25 -11 -53 -18t-64 -7z" />
    <glyph glyph-name="Wcircumflex" unicode="&#x174;" horiz-adv-x="1053" 
d="M699 750l23 -503q1 -11 1 -21v-20h2q2 9 4.5 18.5t6.5 20.5l153 505h208l-279 -750h-250l-17 493v41h-2q-5 -20 -11 -39l-152 -495h-251l-69 750h218l10 -506v-41h2q2 8 5 18.5t6 20.5l166 508h226zM709 913l84 -123h-166l-30 51l-45 -51h-163l114 123h206z" />
    <glyph glyph-name="wcircumflex" unicode="&#x175;" horiz-adv-x="927" 
d="M594 799l77 -146h-142l-13 32q-4 9 -7.5 18.5t-6.5 19.5h-2q-4 -7 -10.5 -16.5t-11.5 -17.5l-26 -36h-141l116 146h167zM900 632q6 -29 9 -64t3 -70q0 -87 -20 -158t-52 -127.5t-71.5 -98.5t-79 -69.5t-74 -41t-56.5 -13.5q-12 0 -30.5 7.5t-38.5 24.5t-39 44.5t-32 67.5
h-1q-28 -37 -58 -64.5t-58 -45.5t-51.5 -26.5t-38.5 -8.5q-17 0 -47 14t-58.5 48t-49.5 90t-21 140q0 22 1.5 45.5t5.5 49.5l33 230l195 8l-34 -239q-5 -30 -6.5 -54.5t-1.5 -44.5q0 -32 4 -52t9.5 -31t11.5 -15.5t11 -4.5q7 0 22 12t31 39t31 69.5t24 103.5l30 210h194
l-33 -232q-5 -29 -6 -52t-1 -43q0 -32 4 -53t10 -33t12.5 -16.5t12.5 -4.5q10 0 31 18.5t42 59.5t36.5 107t15.5 161q0 21 -1 40t-3 33z" />
    <glyph glyph-name="Ycircumflex" unicode="&#x176;" horiz-adv-x="715" 
d="M287 750l75 -289q2 -10 4.5 -20t4.5 -20h2q3 9 8 18l10 18l154 293h229l-324 -517l-32 -233h-215l32 233l-184 517h236zM539 913l84 -123h-166l-30 51l-45 -51h-163l114 123h206z" />
    <glyph glyph-name="ycircumflex" unicode="&#x177;" horiz-adv-x="615" 
d="M614 611q-30 -136 -79 -255.5t-116 -217.5t-151 -173.5t-182 -123.5l-64 140q85 46 149 114l-129 505l215 15l52 -287q2 -13 3.5 -22.5t2.5 -17.5h2q34 73 61 154.5t47 168.5h189zM454 799l77 -146h-142l-13 32q-4 9 -7.5 18.5t-6.5 19.5h-2q-4 -7 -10.5 -16.5
t-11.5 -17.5l-26 -36h-141l116 146h167z" />
    <glyph glyph-name="Ydieresis" unicode="&#x178;" horiz-adv-x="715" 
d="M287 750l75 -289q2 -10 4.5 -20t4.5 -20h2q3 9 8 18l10 18l154 293h229l-324 -517l-32 -233h-215l32 233l-184 517h236zM341 925q36 0 52 -14t16 -40q0 -83 -88 -83q-35 0 -51.5 11.5t-16.5 39.5q0 86 88 86zM544 925q36 0 52 -14t16 -40q0 -83 -88 -83q-35 0 -52 11.5
t-17 40.5q0 85 89 85z" />
    <glyph glyph-name="Zacute" unicode="&#x179;" horiz-adv-x="619" 
d="M-23 0l17 128l348 420q13 17 27 29l-1 2h-304l30 171h546l-20 -143l-337 -406q-8 -10 -14 -16.5t-13 -12.5l1 -2h304l-25 -170h-559zM590 912l-162 -122h-153l74 122h241z" />
    <glyph glyph-name="zacute" unicode="&#x17a;" horiz-adv-x="536" 
d="M252 176q-7 -8 -13.5 -15t-13.5 -13l1 -2h253l-25 -146h-474l17 128l265 306q11 13 27 28l-1 2h-237l27 147h455l-17 -127zM507 799l-145 -146h-145l72 146h218z" />
    <glyph glyph-name="Zdotaccent" unicode="&#x17b;" horiz-adv-x="619" 
d="M-23 0l17 128l348 420q13 17 27 29l-1 2h-304l30 171h546l-20 -143l-337 -406q-8 -10 -14 -16.5t-13 -12.5l1 -2h304l-25 -170h-559zM397 917q56 0 78.5 -14t22.5 -41q0 -39 -26.5 -58.5t-92.5 -19.5q-54 0 -78 11.5t-24 40.5q0 40 27 60.5t93 20.5z" />
    <glyph glyph-name="zdotaccent" unicode="&#x17c;" horiz-adv-x="536" 
d="M252 176q-7 -8 -13.5 -15t-13.5 -13l1 -2h253l-25 -146h-474l17 128l265 306q11 13 27 28l-1 2h-237l27 147h455l-17 -127zM333 807q51 0 73.5 -16t22.5 -46q0 -86 -117 -86q-49 0 -72 13t-23 45q0 44 28 67t88 23z" />
    <glyph glyph-name="Zcaron" unicode="&#x17d;" horiz-adv-x="619" 
d="M-23 0l17 128l348 420q13 17 27 29l-1 2h-304l30 171h546l-20 -143l-337 -406q-8 -10 -14 -16.5t-13 -12.5l1 -2h304l-25 -170h-559zM270 790l-81 123h165l29 -54l47 54h163l-117 -123h-206z" />
    <glyph glyph-name="zcaron" unicode="&#x17e;" horiz-adv-x="536" 
d="M252 176q-7 -8 -13.5 -15t-13.5 -13l1 -2h253l-25 -146h-474l17 128l265 306q11 13 27 28l-1 2h-237l27 147h455l-17 -127zM223 653l-73 146h141l13 -37q4 -10 7.5 -20.5t5.5 -18.5h2q5 8 10.5 17t10.5 17l27 42h143l-118 -146h-169z" />
    <glyph glyph-name="longs" unicode="&#x17f;" horiz-adv-x="351" 
d="M55 601h57q7 49 27 88t58.5 65t99.5 40t150 14l-9 -135q-37 0 -61 -3.5t-38.5 -12t-21.5 -22.5t-10 -35l-72 -512q-10 -68 -37 -115.5t-67.5 -77.5t-92.5 -44.5t-113 -17.5l6 132q25 3 43.5 10t31.5 21t21.5 36t13.5 55l53 381h-64z" />
    <glyph glyph-name="uni018F" unicode="&#x18f;" horiz-adv-x="750" 
d="M27 261q0 90 24 189h456v18q0 38 -8.5 62.5t-26.5 38.5t-47 19.5t-70 5.5q-58 0 -115 -7.5t-108 -21.5l1 156q33 11 64.5 18.5t65 12.5t70 7.5t79.5 2.5q152 0 233.5 -68t81.5 -220q0 -23 -2 -47.5t-6 -51.5q-14 -98 -43 -170.5t-77 -121.5t-117 -73t-161 -24
q-155 0 -224.5 68t-69.5 207zM345 153q30 0 52.5 7t40 25t30 49.5t21.5 80.5h-242q-2 -16 -3 -29.5t-1 -25.5q0 -60 24 -83.5t78 -23.5z" />
    <glyph glyph-name="florin" unicode="&#x192;" horiz-adv-x="439" 
d="M-107 -156l221 628h-62l50 138h61l11 32q10 31 32.5 59t55.5 49t76 33.5t96 12.5q28 0 54 -4t44 -10l-52 -117q-23 6 -48 6q-30 0 -45 -8.5t-20 -24.5l-9 -28h111l-50 -138h-111l-223 -628h-192z" />
    <glyph glyph-name="uni01B5" unicode="&#x1b5;" horiz-adv-x="619" 
d="M-23 0l17 128l165 199h-110l22 115h183l88 106q13 17 27 29l-1 2h-304l30 171h546l-20 -143l-137 -165h103l-23 -115h-176l-104 -126q-8 -10 -14 -16.5t-13 -12.5l1 -2h304l-25 -170h-559z" />
    <glyph glyph-name="uni01B6" unicode="&#x1b6;" horiz-adv-x="536" 
d="M415 366h71l-21 -105h-140l-73 -85q-7 -8 -13.5 -15t-13.5 -13l1 -2h253l-25 -146h-474l17 128l115 133h-69l21 105h139l59 68q11 13 27 28l-1 2h-237l27 147h455l-17 -127z" />
    <glyph glyph-name="Aringacute" unicode="&#x1fa;" horiz-adv-x="749" 
d="M673 952l-114 -86q21 -21 21 -56q0 -49 -23 -80l144 -730h-235l-15 136h-227l-54 -136h-222l339 721q-10 17 -10 44q0 53 26 88t95 43l34 56h241zM400 584q-3 -10 -6.5 -19t-7.5 -19l-101 -255h148l-28 252q-2 14 -2.5 23t-0.5 18h-2zM436 819q-38 0 -49 -10.5t-11 -32.5
q0 -11 10 -17t40 -6q34 0 45.5 9t11.5 31q0 13 -9.5 19.5t-37.5 6.5z" />
    <glyph glyph-name="aringacute" unicode="&#x1fb;" horiz-adv-x="627" 
d="M666 915l-111 -112q22 -19 22 -51q0 -57 -39 -83t-118 -26q-65 0 -96.5 17t-31.5 59q0 45 25.5 74t88.5 37l42 85h218zM440 764q-35 0 -45 -9t-10 -24q0 -11 9.5 -16t38.5 -5t41.5 7.5t12.5 23.5q0 11 -10 17t-37 6zM388 621q31 0 54 -1.5t44 -4t43.5 -4t54.5 -1.5h28
l-85 -610h-150l-10 50l-2 1q-37 -33 -80.5 -47.5t-88.5 -14.5q-188 0 -188 209q0 92 27 169.5t76.5 134t120 88t156.5 31.5zM266 140q38 0 66.5 30.5t36.5 81.5l30 213q-8 1 -16.5 1.5t-19.5 0.5q-27 0 -51.5 -9.5t-44.5 -32t-34.5 -59t-21.5 -89.5q-6 -39 -6 -66
q0 -41 14.5 -56t46.5 -15z" />
    <glyph glyph-name="AEacute" unicode="&#x1fc;" horiz-adv-x="1071" 
d="M759 584l-13 -126h244l-21 -150h-238l-15 -142h301l-27 -166h-503l14 137h-221l-78 -137h-248l500 750h629l-20 -166h-304zM550 609q-4 -8 -9.5 -18t-10.5 -19l-162 -282h148l30 277q2 13 3 21.5t3 19.5zM953 912l-162 -122h-153l74 122h241z" />
    <glyph glyph-name="aeacute" unicode="&#x1fd;" horiz-adv-x="898" 
d="M700 623q91 0 142 -41.5t51 -110.5q0 -99 -81 -163t-250 -86q3 -47 26.5 -64t69.5 -17q38 0 72.5 11t62.5 31l49 -115q-40 -33 -100 -56t-139 -23q-72 0 -119.5 26.5t-69.5 86.5h-2q-42 -63 -100 -88t-121 -25q-91 0 -137.5 50.5t-46.5 156.5q0 102 29 181.5t79 133.5
t116.5 82t142.5 28q55 0 96 -9.5t73 -26.5q64 38 157 38zM266 140q38 0 66.5 30.5t36.5 81.5l31 222q-8 1 -16 1h-17q-58 0 -99.5 -46.5t-55.5 -149.5q-6 -42 -6 -69q0 -41 14 -55.5t46 -14.5zM682 479q-41 0 -66 -27t-41 -98q83 13 114.5 38t31.5 57q0 14 -9.5 22t-29.5 8z
M691 799l-145 -146h-145l72 146h218z" />
    <glyph glyph-name="Oslashacute" unicode="&#x1fe;" horiz-adv-x="753" 
d="M658 912l-162 -122h-153l74 122h241zM-17 65l65 67q-21 57 -21 135q0 25 1.5 52t6.5 56q14 99 44 172t78.5 120.5t117 71t158.5 23.5q135 0 206 -53l56 56l84 -87l-68 -68q20 -55 20 -127q0 -25 -2.5 -52t-6.5 -56q-15 -101 -45 -174.5t-78 -121t-116 -70.5t-159 -23
q-132 0 -201 50l-54 -55zM248 308l246 245q-11 19 -32.5 26t-53.5 7q-35 0 -59.5 -9t-42 -32t-29.5 -64.5t-21 -105.5zM509 437l-244 -245q12 -17 32.5 -23.5t51.5 -6.5q35 0 59.5 9t42 33t29.5 65.5t21 105.5z" />
    <glyph glyph-name="oslashacute" unicode="&#x1ff;" horiz-adv-x="611" 
d="M557 799l-145 -146h-145l72 146h218zM347 623q104 0 162 -41l45 45l69 -69l-54 -55q17 -48 17 -111q0 -21 -2 -44t-5 -48q-21 -159 -100 -235.5t-230 -76.5q-99 0 -156 36l-42 -43l-70 69l49 50q-20 46 -20 117q0 21 1.5 44.5t5.5 48.5q11 79 35.5 138t65 98t97 58
t132.5 19zM322 469q-25 0 -42.5 -7.5t-30 -29t-21.5 -59.5t-18 -99l173 163q-8 19 -23 25.5t-38 6.5zM213 165q7 -19 21.5 -25t37.5 -6t40.5 7t31 28t23.5 59t18 100z" />
    <glyph glyph-name="uni0218" unicode="&#x218;" horiz-adv-x="584" 
d="M377 763q56 0 112.5 -10t99.5 -28l-45 -162q-48 14 -93 22t-86 8q-63 0 -84.5 -18t-21.5 -45q0 -21 21.5 -34.5t53.5 -26t69.5 -26.5t69.5 -36.5t53.5 -56t21.5 -85.5q0 -64 -24.5 -115.5t-68.5 -88t-104.5 -56t-131.5 -19.5q-66 0 -125 14t-107 40l48 166
q48 -25 98.5 -39t105.5 -14q102 0 102 68q0 22 -21.5 36t-53.5 26.5t-69 27t-69 37t-53.5 56.5t-21.5 86q0 54 20 103.5t60.5 87t101.5 60t142 22.5zM226 -31q51 0 73.5 -14.5t22.5 -38.5q0 -18 -11.5 -35.5t-31 -33t-46 -30t-56.5 -26.5l-35 23q12 12 22.5 24.5t20.5 23.5
h-4q-29 0 -46.5 11.5t-17.5 31.5q0 25 25 44.5t84 19.5z" />
    <glyph glyph-name="uni0219" unicode="&#x219;" horiz-adv-x="481" 
d="M312 623q47 0 90 -10.5t75 -29.5l-72 -134q-25 11 -57 15.5t-65 4.5q-28 0 -42.5 -11.5t-14.5 -29.5q0 -17 16 -27.5t39.5 -19.5t51 -19.5t51 -28t39.5 -43.5t16 -66q0 -7 -0.5 -14t-1.5 -15q-6 -46 -23 -84t-47.5 -65t-76 -42t-108.5 -15q-60 0 -111 15.5t-89 41.5
l58 135q34 -23 73 -34t73 -11q33 0 49.5 13t16.5 35q0 18 -16 29.5t-39.5 21.5t-51.5 22t-51.5 30t-39.5 45t-16 69q0 48 18 88.5t52.5 70t86 46.5t117.5 17zM196 -31q51 0 73.5 -14.5t22.5 -38.5q0 -18 -11.5 -35.5t-31 -33t-46 -30t-56.5 -26.5l-35 23q12 12 22.5 24.5
t20.5 23.5h-4q-29 0 -46.5 11.5t-17.5 31.5q0 25 25 44.5t84 19.5z" />
    <glyph glyph-name="uni021A" unicode="&#x21a;" horiz-adv-x="606" 
d="M440 579l-81 -579h-212l81 579h-187l28 171h578l-19 -171h-188zM245 -31q51 0 73.5 -14.5t22.5 -38.5q0 -18 -11.5 -35.5t-31 -33t-46 -30t-56.5 -26.5l-35 23q12 12 22.5 24.5t20.5 23.5h-4q-29 0 -46.5 11.5t-17.5 31.5q0 25 25 44.5t84 19.5z" />
    <glyph glyph-name="uni021B" unicode="&#x21b;" horiz-adv-x="421" 
d="M40 601h79l45 143l155 16l-22 -159h137l-27 -144h-130l-33 -235q-1 -7 -1.5 -13t-0.5 -11q0 -27 12 -39t37 -12q13 0 30.5 4t31.5 11l-2 -139q-24 -13 -63 -21.5t-75 -8.5q-84 0 -126.5 42.5t-42.5 124.5q0 12 1 25.5t3 27.5l35 244h-70zM190 -31q51 0 73.5 -14.5
t22.5 -38.5q0 -18 -11.5 -35.5t-31 -33t-46 -30t-56.5 -26.5l-35 23q12 12 22.5 24.5t20.5 23.5h-4q-29 0 -46.5 11.5t-17.5 31.5q0 25 25 44.5t84 19.5z" />
    <glyph glyph-name="uni0237" unicode="&#x237;" horiz-adv-x="316" 
d="M222 88q-10 -68 -37 -115.5t-67.5 -77.5t-92.5 -44.5t-113 -17.5l6 132q25 3 44 10t32 21t21 36t13 55l73 518l195 9z" />
    <glyph glyph-name="uni0259" unicode="&#x259;" horiz-adv-x="540" 
d="M196 -11q-93 0 -142.5 42t-49.5 111q0 51 18.5 93t58 74t102.5 54.5t152 34.5q-5 42 -29 57t-69 15q-38 0 -72 -11t-62 -31l-49 115q40 33 100 56.5t139 23.5q52 0 95 -14t73.5 -43.5t47.5 -75.5t17 -110q0 -37 -6 -79q-22 -156 -104.5 -234t-219.5 -78zM216 132
q42 0 68.5 31t41.5 109q-44 -8 -73.5 -20t-46.5 -26t-24 -30t-7 -31q0 -33 41 -33z" />
    <glyph glyph-name="uni02BB" unicode="&#x2bb;" horiz-adv-x="267" 
d="M154 494q-92 0 -92 89q0 31 12.5 64t33.5 64t48.5 59t58.5 51l55 -37q-32 -45 -57 -100q27 -3 43 -20.5t16 -48.5q0 -54 -31.5 -87.5t-86.5 -33.5z" />
    <glyph glyph-name="uni02BC" unicode="&#x2bc;" horiz-adv-x="267" 
d="M191 779q45 0 68.5 -23t23.5 -67q0 -31 -12.5 -63t-33.5 -63t-48.5 -59.5t-58.5 -51.5l-56 37q16 23 30.5 48t26.5 51q-27 2 -43 19.5t-16 48.5q0 56 31 89.5t88 33.5z" />
    <glyph glyph-name="circumflex" unicode="&#x2c6;" horiz-adv-x="403" 
d="M347 799l77 -146h-142l-13 32q-4 9 -7.5 18.5t-6.5 19.5h-2q-4 -7 -10.5 -16.5t-11.5 -17.5l-26 -36h-141l116 146h167z" />
    <glyph glyph-name="caron" unicode="&#x2c7;" horiz-adv-x="403" 
d="M159 653l-73 146h141l13 -37q4 -10 7.5 -20.5t5.5 -18.5h2q5 8 10.5 17t10.5 17l27 42h143l-118 -146h-169z" />
    <glyph glyph-name="breve" unicode="&#x2d8;" horiz-adv-x="403" 
d="M435 799q-11 -75 -56.5 -114.5t-137.5 -39.5q-83 0 -117.5 30.5t-34.5 86.5q0 17 3 37h129q-1 -6 -1.5 -11t-0.5 -10q0 -24 9.5 -33t25.5 -9q17 0 31 12.5t19 50.5h131z" />
    <glyph glyph-name="dotaccent" unicode="&#x2d9;" horiz-adv-x="409" 
d="M268 807q51 0 73.5 -16t22.5 -46q0 -86 -117 -86q-49 0 -72 13t-23 45q0 44 28 67t88 23z" />
    <glyph glyph-name="ring" unicode="&#x2da;" horiz-adv-x="403" 
d="M270 836q69 0 99.5 -22t30.5 -58q0 -57 -39 -83t-118 -26q-65 0 -96.5 17t-31.5 59q0 26 8 47t26.5 35.5t48 22.5t72.5 8zM263 768q-35 0 -45 -9t-10 -24q0 -11 9.5 -16t38.5 -5t41.5 7.5t12.5 23.5q0 11 -10 17t-37 6z" />
    <glyph glyph-name="ogonek" unicode="&#x2db;" horiz-adv-x="409" 
d="M197 -192q-63 0 -92.5 23t-29.5 59q0 54 38.5 86.5t95.5 48.5l73 -25q-28 -7 -41.5 -21.5t-13.5 -33.5q0 -27 41 -27q14 0 24 2t21 7l1 -94q-25 -11 -53 -18t-64 -7z" />
    <glyph glyph-name="tilde" unicode="&#x2dc;" horiz-adv-x="409" 
d="M320 649q-26 0 -43.5 7t-30.5 15t-23 15t-21 7q-20 0 -27 -36h-105q11 66 46.5 106t90.5 40q26 0 43.5 -6.5t30.5 -15t22.5 -15t20.5 -6.5q21 0 28 35h105q-11 -66 -46.5 -106t-90.5 -40z" />
    <glyph glyph-name="hungarumlaut" unicode="&#x2dd;" horiz-adv-x="403" 
d="M337 799l-129 -146h-122l60 146h191zM560 799l-146 -146h-139l89 146h196z" />
    <glyph glyph-name="uni0394" unicode="&#x394;" horiz-adv-x="735" 
d="M664 0h-695l384 753h138zM386 507q-3 -8 -7 -17t-9 -20l-150 -318h229l-55 315q-2 12 -3.5 21.5t-2.5 18.5h-2z" />
    <glyph glyph-name="uni03A9" unicode="&#x3a9;" horiz-adv-x="748" 
d="M430 761q69 0 124.5 -15t94.5 -45.5t60 -78t21 -112.5q0 -110 -49 -203t-147 -153v-3h151l-21 -151h-317l30 216q23 15 46 38t41.5 56t30 77.5t11.5 103.5t-25 82t-74 23q-29 0 -52 -8t-40.5 -26.5t-29 -49t-17.5 -76.5q-2 -17 -3.5 -33.5t-1.5 -30.5q0 -62 19.5 -97.5
t48.5 -58.5l-30 -216h-317l21 151h149l1 3q-57 42 -84.5 100t-27.5 131q0 14 1 29t3 31q11 79 43.5 138.5t82.5 99t115 59t142 19.5z" />
    <glyph glyph-name="uni03BC" unicode="&#x3bc;" horiz-adv-x="634" 
d="M246 -8q-23 0 -41.5 8t-32.5 28l-2 -1q-2 -47 -4.5 -91.5t-3.5 -86.5l-187 -14l109 776h194l-55 -393q-1 -5 -1.5 -9.5t-0.5 -8.5q0 -23 12.5 -37.5t41.5 -14.5q37 0 67.5 28t37.5 73l51 362h193l-85 -607l-138 -10l-18 56h-2q-25 -26 -59 -42t-76 -16z" />
    <glyph glyph-name="pi" unicode="&#x3c0;" horiz-adv-x="685" 
d="M410 456h-101l-64 -456h-193l63 453q-21 -2 -35 -5.5t-26 -9.5l-20 141q26 15 72 23.5t105 8.5h476l-21 -155h-62l-39 -278q-1 -5 -1.5 -9t-0.5 -8q0 -18 10.5 -25t35.5 -7l-19 -135q-63 0 -105.5 7.5t-69 23.5t-37.5 41t-11 61q0 11 1 24t3 27z" />
    <glyph glyph-name="Wgrave" unicode="&#x1e80;" horiz-adv-x="1053" 
d="M699 750l23 -503q1 -11 1 -21v-20h2q2 9 4.5 18.5t6.5 20.5l153 505h208l-279 -750h-250l-17 493v41h-2q-5 -20 -11 -39l-152 -495h-251l-69 750h218l10 -506v-41h2q2 8 5 18.5t6 20.5l166 508h226zM525 790l-116 122h225l47 -122h-156z" />
    <glyph glyph-name="wgrave" unicode="&#x1e81;" horiz-adv-x="927" 
d="M436 653l-106 146h218l33 -146h-145zM900 632q6 -29 9 -64t3 -70q0 -87 -20 -158t-52 -127.5t-71.5 -98.5t-79 -69.5t-74 -41t-56.5 -13.5q-12 0 -30.5 7.5t-38.5 24.5t-39 44.5t-32 67.5h-1q-28 -37 -58 -64.5t-58 -45.5t-51.5 -26.5t-38.5 -8.5q-17 0 -47 14t-58.5 48
t-49.5 90t-21 140q0 22 1.5 45.5t5.5 49.5l33 230l195 8l-34 -239q-5 -30 -6.5 -54.5t-1.5 -44.5q0 -32 4 -52t9.5 -31t11.5 -15.5t11 -4.5q7 0 22 12t31 39t31 69.5t24 103.5l30 210h194l-33 -232q-5 -29 -6 -52t-1 -43q0 -32 4 -53t10 -33t12.5 -16.5t12.5 -4.5
q10 0 31 18.5t42 59.5t36.5 107t15.5 161q0 21 -1 40t-3 33z" />
    <glyph glyph-name="Wacute" unicode="&#x1e82;" horiz-adv-x="1053" 
d="M699 750l23 -503q1 -11 1 -21v-20h2q2 9 4.5 18.5t6.5 20.5l153 505h208l-279 -750h-250l-17 493v41h-2q-5 -20 -11 -39l-152 -495h-251l-69 750h218l10 -506v-41h2q2 8 5 18.5t6 20.5l166 508h226zM822 912l-162 -122h-153l74 122h241z" />
    <glyph glyph-name="wacute" unicode="&#x1e83;" horiz-adv-x="927" 
d="M705 799l-145 -146h-145l72 146h218zM900 632q6 -29 9 -64t3 -70q0 -87 -20 -158t-52 -127.5t-71.5 -98.5t-79 -69.5t-74 -41t-56.5 -13.5q-12 0 -30.5 7.5t-38.5 24.5t-39 44.5t-32 67.5h-1q-28 -37 -58 -64.5t-58 -45.5t-51.5 -26.5t-38.5 -8.5q-17 0 -47 14t-58.5 48
t-49.5 90t-21 140q0 22 1.5 45.5t5.5 49.5l33 230l195 8l-34 -239q-5 -30 -6.5 -54.5t-1.5 -44.5q0 -32 4 -52t9.5 -31t11.5 -15.5t11 -4.5q7 0 22 12t31 39t31 69.5t24 103.5l30 210h194l-33 -232q-5 -29 -6 -52t-1 -43q0 -32 4 -53t10 -33t12.5 -16.5t12.5 -4.5
q10 0 31 18.5t42 59.5t36.5 107t15.5 161q0 21 -1 40t-3 33z" />
    <glyph glyph-name="Wdieresis" unicode="&#x1e84;" horiz-adv-x="1053" 
d="M699 750l23 -503q1 -11 1 -21v-20h2q2 9 4.5 18.5t6.5 20.5l153 505h208l-279 -750h-250l-17 493v41h-2q-5 -20 -11 -39l-152 -495h-251l-69 750h218l10 -506v-41h2q2 8 5 18.5t6 20.5l166 508h226zM505 925q36 0 52 -14t16 -40q0 -83 -88 -83q-35 0 -51.5 11.5
t-16.5 39.5q0 86 88 86zM708 925q36 0 52 -14t16 -40q0 -83 -88 -83q-35 0 -52 11.5t-17 40.5q0 85 89 85z" />
    <glyph glyph-name="wdieresis" unicode="&#x1e85;" horiz-adv-x="927" 
d="M429 806q36 0 52.5 -14.5t16.5 -43.5q0 -44 -23 -65.5t-67 -21.5q-35 0 -52.5 12t-17.5 41q0 92 91 92zM625 806q36 0 52.5 -14.5t16.5 -42.5q0 -88 -90 -88q-35 0 -52 11.5t-17 40.5q0 93 90 93zM900 632q6 -29 9 -64t3 -70q0 -87 -20 -158t-52 -127.5t-71.5 -98.5
t-79 -69.5t-74 -41t-56.5 -13.5q-12 0 -30.5 7.5t-38.5 24.5t-39 44.5t-32 67.5h-1q-28 -37 -58 -64.5t-58 -45.5t-51.5 -26.5t-38.5 -8.5q-17 0 -47 14t-58.5 48t-49.5 90t-21 140q0 22 1.5 45.5t5.5 49.5l33 230l195 8l-34 -239q-5 -30 -6.5 -54.5t-1.5 -44.5q0 -32 4 -52
t9.5 -31t11.5 -15.5t11 -4.5q7 0 22 12t31 39t31 69.5t24 103.5l30 210h194l-33 -232q-5 -29 -6 -52t-1 -43q0 -32 4 -53t10 -33t12.5 -16.5t12.5 -4.5q10 0 31 18.5t42 59.5t36.5 107t15.5 161q0 21 -1 40t-3 33z" />
    <glyph glyph-name="uni1E8A" unicode="&#x1e8a;" horiz-adv-x="722" 
d="M512 392l152 -392h-237l-68 214q-3 9 -6 19t-5 20h-2q-4 -9 -9 -18.5t-10 -17.5l-127 -217h-242l256 388l-148 362h248l61 -186l6 -20q3 -10 5 -19h2q4 8 9.5 17.5t10.5 17.5l117 190h239zM439 917q56 0 78.5 -14t22.5 -41q0 -39 -26.5 -58.5t-92.5 -19.5q-54 0 -78 11.5
t-24 40.5q0 40 27 60.5t93 20.5z" />
    <glyph glyph-name="uni1E8B" unicode="&#x1e8b;" horiz-adv-x="639" 
d="M-45 0l226 321l-131 285l222 8l51 -152q3 -10 6.5 -20t5.5 -19h2q8 17 20 35l96 153h206l-216 -307l135 -304h-217l-58 162q-4 9 -7 19t-5 20h-2q-8 -17 -20 -35l-105 -166h-209zM382 807q51 0 73.5 -16t22.5 -46q0 -86 -117 -86q-49 0 -72 13t-23 45q0 44 28 67t88 23z
" />
    <glyph glyph-name="uni1E9E" unicode="&#x1e9e;" horiz-adv-x="1156" 
d="M377 763q56 0 112.5 -10t99.5 -28l-45 -162q-48 14 -93 22t-86 8q-63 0 -84.5 -18t-21.5 -45q0 -21 21.5 -34.5t53.5 -26t69.5 -26.5t69.5 -36.5t53.5 -56t21.5 -85.5q0 -64 -24.5 -115.5t-68.5 -88t-104.5 -56t-131.5 -19.5q-66 0 -125 14t-107 40l48 166
q48 -25 98.5 -39t105.5 -14q102 0 102 68q0 22 -21.5 36t-53.5 26.5t-69 27t-69 37t-53.5 56.5t-21.5 86q0 54 20 103.5t60.5 87t101.5 60t142 22.5zM949 763q56 0 112.5 -10t99.5 -28l-45 -162q-48 14 -93 22t-86 8q-63 0 -84.5 -18t-21.5 -45q0 -21 21.5 -34.5t53.5 -26
t69.5 -26.5t69.5 -36.5t53.5 -56t21.5 -85.5q0 -64 -24.5 -115.5t-68.5 -88t-104.5 -56t-131.5 -19.5q-66 0 -125 14t-107 40l48 166q48 -25 98.5 -39t105.5 -14q102 0 102 68q0 22 -21.5 36t-53.5 26.5t-69 27t-69 37t-53.5 56.5t-21.5 86q0 54 20 103.5t60.5 87t101.5 60
t142 22.5z" />
    <glyph glyph-name="Ygrave" unicode="&#x1ef2;" horiz-adv-x="715" 
d="M287 750l75 -289q2 -10 4.5 -20t4.5 -20h2q3 9 8 18l10 18l154 293h229l-324 -517l-32 -233h-215l32 233l-184 517h236zM361 790l-116 122h225l47 -122h-156z" />
    <glyph glyph-name="ygrave" unicode="&#x1ef3;" horiz-adv-x="615" 
d="M614 611q-30 -136 -79 -255.5t-116 -217.5t-151 -173.5t-182 -123.5l-64 140q85 46 149 114l-129 505l215 15l52 -287q2 -13 3.5 -22.5t2.5 -17.5h2q34 73 61 154.5t47 168.5h189zM302 653l-106 146h218l33 -146h-145z" />
    <glyph glyph-name="uni2007" unicode="&#x2007;" horiz-adv-x="636" 
 />
    <glyph glyph-name="uni2008" unicode="&#x2008;" horiz-adv-x="280" 
 />
    <glyph glyph-name="space.frac" unicode="&#x2009;" horiz-adv-x="47" 
 />
    <glyph glyph-name="uni200B" unicode="&#x200b;" horiz-adv-x="0" 
 />
    <glyph glyph-name="endash" unicode="&#x2013;" horiz-adv-x="506" 
d="M472 407l-19 -130h-424l19 130h424z" />
    <glyph glyph-name="emdash" unicode="&#x2014;" horiz-adv-x="691" 
d="M658 407l-19 -130h-610l19 130h610z" />
    <glyph glyph-name="quoteleft" unicode="&#x2018;" horiz-adv-x="267" 
d="M154 494q-92 0 -92 89q0 31 12.5 64t33.5 64t48.5 59t58.5 51l55 -37q-32 -45 -57 -100q27 -3 43 -20.5t16 -48.5q0 -54 -31.5 -87.5t-86.5 -33.5z" />
    <glyph glyph-name="quoteright" unicode="&#x2019;" horiz-adv-x="267" 
d="M191 779q45 0 68.5 -23t23.5 -67q0 -31 -12.5 -63t-33.5 -63t-48.5 -59.5t-58.5 -51.5l-56 37q16 23 30.5 48t26.5 51q-27 2 -43 19.5t-16 48.5q0 56 31 89.5t88 33.5z" />
    <glyph glyph-name="quotesinglbase" unicode="&#x201a;" horiz-adv-x="267" 
d="M107 181q45 0 68.5 -23t23.5 -67q0 -31 -12.5 -63t-33.5 -63t-48.5 -59.5t-58.5 -51.5l-56 37q16 23 30.5 48t26.5 51q-27 2 -43 20t-16 50q0 55 32 88t87 33z" />
    <glyph glyph-name="quotedblleft" unicode="&#x201c;" horiz-adv-x="506" 
d="M154 494q-92 0 -92 89q0 31 12.5 64t33.5 64t48.5 59t58.5 51l55 -37q-32 -45 -57 -100q27 -3 43 -20.5t16 -48.5q0 -54 -31.5 -87.5t-86.5 -33.5zM394 494q-92 0 -92 89q0 31 12.5 64t33.5 64t48.5 59t58.5 51l55 -37q-32 -45 -57 -100q27 -3 43 -20.5t16 -48.5
q0 -54 -31.5 -87.5t-86.5 -33.5z" />
    <glyph glyph-name="quotedblright" unicode="&#x201d;" horiz-adv-x="506" 
d="M191 776q91 0 91 -88q0 -32 -12 -64.5t-33 -63.5t-48.5 -59.5t-58.5 -51.5l-56 37q16 23 30.5 48t26.5 51q-28 2 -43.5 20t-15.5 50q0 55 32 88t87 33zM430 776q91 0 91 -88q0 -32 -12 -64.5t-33 -63.5t-48.5 -59.5t-58.5 -51.5l-56 37q16 23 30.5 48t26.5 51
q-28 2 -43.5 20t-15.5 50q0 55 32 88t87 33z" />
    <glyph glyph-name="quotedblbase" unicode="&#x201e;" horiz-adv-x="506" 
d="M346 181q45 0 68.5 -23t23.5 -67q0 -31 -12.5 -63t-33.5 -63t-48.5 -59.5t-58.5 -51.5l-56 37q16 23 30.5 48t26.5 51q-27 2 -43 20t-16 50q0 55 32 88t87 33zM107 181q45 0 68.5 -23t23.5 -67q0 -31 -12.5 -63t-33.5 -63t-48.5 -59.5t-58.5 -51.5l-56 37q16 23 30.5 48
t26.5 51q-27 2 -43 20t-16 50q0 55 32 88t87 33z" />
    <glyph glyph-name="dagger" unicode="&#x2020;" horiz-adv-x="486" 
d="M198 608l8 175h193l-39 -175l143 12l-23 -163l-140 12l-72 -616h-193l103 616l-144 -12l23 163z" />
    <glyph glyph-name="daggerdbl" unicode="&#x2021;" horiz-adv-x="486" 
d="M419 22l-139 14l-12 -184h-193l43 184l-145 -14l23 163l143 -11l39 295l-144 -12l23 163l141 -12l8 175h193l-39 -175l143 12l-23 -163l-140 12l-41 -295l143 11z" />
    <glyph glyph-name="bullet" unicode="&#x2022;" horiz-adv-x="418" 
d="M31 322q24 170 194 170q153 0 153 -131q0 -107 -54 -159t-147 -52q-149 0 -149 130q0 19 3 42z" />
    <glyph glyph-name="ellipsis" unicode="&#x2026;" horiz-adv-x="792" 
d="M629 183q49 0 71.5 -19.5t22.5 -56.5q0 -55 -29.5 -87t-91.5 -32q-51 0 -74 17t-23 57q0 58 30.5 89.5t93.5 31.5zM375 183q49 0 71.5 -19.5t22.5 -56.5q0 -55 -29.5 -87t-91.5 -32q-51 0 -74 17t-23 57q0 58 30.5 89.5t93.5 31.5zM116 183q49 0 71.5 -19.5t22.5 -56.5
q0 -55 -29.5 -87t-91.5 -32q-51 0 -74 17t-23 57q0 58 30.5 89.5t93.5 31.5z" />
    <glyph glyph-name="perthousand" unicode="&#x2030;" horiz-adv-x="1102" 
d="M240 757q70 0 106.5 -29t36.5 -98q0 -111 -52 -166.5t-141 -55.5q-73 0 -107 33t-34 98q0 20 3 44q13 91 57.5 132.5t130.5 41.5zM225 651q-9 0 -17.5 -4t-15.5 -15t-11 -29.5t-4 -48.5q0 -22 7.5 -30t21.5 -8q9 0 18 4t16 14.5t11 30t4 49.5q0 22 -8 29.5t-22 7.5z
M674 623l-502 -590l-97 83l502 590zM569 341q71 0 107 -31.5t36 -100.5q0 -110 -52 -165t-141 -55q-73 0 -107 33t-34 98q0 20 3 44q13 91 57.5 134t130.5 43zM555 232q-10 0 -19 -4t-16 -15t-11 -30t-4 -49q0 -23 8 -30.5t23 -7.5q9 0 17.5 4t15 14.5t11 29.5t4.5 49
q0 23 -7.5 31t-21.5 8zM914 341q71 0 107.5 -31.5t36.5 -101.5q0 -109 -53 -164t-141 -55q-73 0 -106.5 33t-33.5 98q0 20 3 44q13 91 57 134t130 43zM900 232q-9 0 -18 -4t-16 -15t-11 -30.5t-4 -49.5q0 -22 8 -29.5t22 -7.5q9 0 17.5 4t15.5 14.5t11 29.5t4 49
q0 23 -7.5 31t-21.5 8z" />
    <glyph glyph-name="guilsinglleft" unicode="&#x2039;" horiz-adv-x="388" 
d="M200 318l130 -93l-19 -139l-296 226l2 12l359 226l-20 -139z" />
    <glyph glyph-name="guilsinglright" unicode="&#x203a;" horiz-adv-x="388" 
d="M20 225l156 93l-130 93l20 139l295 -226l-2 -12l-358 -226z" />
    <glyph glyph-name="fraction" unicode="&#x2044;" horiz-adv-x="318" 
d="M552 750l-600 -750h-133l598 750h135z" />
    <glyph glyph-name="uni2070" unicode="&#x2070;" horiz-adv-x="394" 
d="M271 885q79 0 116.5 -35t37.5 -110q0 -14 -1.5 -28.5t-3.5 -30.5q-14 -100 -63.5 -150t-142.5 -50q-81 0 -117.5 36t-36.5 109q0 13 1 26.5t3 28.5q15 106 64 155t143 49zM257 786q-13 0 -23 -4t-18 -15.5t-14 -31.5t-10 -53q-2 -16 -3 -28.5t-1 -22.5q0 -32 10 -42
t30 -10q12 0 21.5 4t17.5 15t13.5 31t10.5 53q2 16 3 28t1 23q0 32 -10 42.5t-28 10.5z" />
    <glyph glyph-name="uni2074" unicode="&#x2074;" horiz-adv-x="394" 
d="M374 551l-9 -65h-121l9 65h-205v70l216 259h156l-33 -235h36l-15 -94h-34zM285 731q3 21 9 40l-3 1q-5 -8 -11 -16t-13 -17l-49 -63q-12 -15 -26 -29l1 -2h77z" />
    <glyph glyph-name="uni2075" unicode="&#x2075;" horiz-adv-x="394" 
d="M404 779h-176l-9 -43q22 3 49 3q66 0 101.5 -25t35.5 -73q0 -35 -12 -64t-36.5 -50.5t-61.5 -33.5t-87 -12q-39 0 -77 6t-70 21l32 93q32 -13 57.5 -19t60.5 -6q36 0 50 11t14 31q0 14 -12 22t-40 8q-23 0 -47 -2t-44 -5l-42 37l51 202h274z" />
    <glyph glyph-name="uni2076" unicode="&#x2076;" horiz-adv-x="394" 
d="M397 773q-22 7 -42 10t-47 3q-45 0 -69.5 -14t-35.5 -40l1 -1q34 14 74 14q134 0 134 -98q0 -42 -14 -73t-39.5 -51.5t-60.5 -31t-77 -10.5q-78 0 -119.5 37t-41.5 114q0 58 17 105t48.5 80t77 51t102.5 18q66 0 113 -17zM244 661q-9 0 -26 -3.5t-24 -11.5
q-1 -7 -1.5 -13t-0.5 -12q0 -25 10 -35.5t33 -10.5q20 0 34 14t14 44q0 14 -8.5 21t-30.5 7z" />
    <glyph glyph-name="uni2077" unicode="&#x2077;" horiz-adv-x="394" 
d="M429 775l-197 -289h-151l188 253q6 8 12 15t13 15l-1 2h-216l22 109h345z" />
    <glyph glyph-name="uni2078" unicode="&#x2078;" horiz-adv-x="394" 
d="M214 480q-85 0 -124 27t-39 77q0 28 13.5 57t51.5 49v2q-24 21 -24 63q0 60 43.5 95.5t135.5 35.5q79 0 113 -26t34 -68q0 -30 -13 -53.5t-36 -39.5v-2q19 -11 31 -28.5t12 -45.5q0 -69 -52 -106t-146 -37zM208 643q-14 -9 -22 -19.5t-8 -23.5q0 -29 51 -29q20 0 35.5 6
t15.5 21q0 19 -19.5 27.5t-52.5 17.5zM258 797q-20 0 -32 -7t-12 -21q0 -17 16 -24t45 -13q11 8 17 16.5t6 21.5t-9 20t-31 7z" />
    <glyph glyph-name="uni2079" unicode="&#x2079;" horiz-adv-x="394" 
d="M265 886q81 0 119 -36.5t38 -106.5q0 -22 -3 -46q-16 -111 -73 -163.5t-160 -52.5q-45 0 -72 5.5t-52 14.5l32 92q23 -9 45 -13.5t50 -4.5q43 0 68.5 16t36.5 54l-2 2q-34 -22 -82 -22q-74 0 -106 28t-32 73q0 33 12.5 62.5t36.5 51t60 34t84 12.5zM249 790
q-27 0 -39 -12.5t-12 -38.5q0 -15 9 -22t33 -7q19 0 33 6t20 15q1 6 1.5 10.5t0.5 9.5q0 22 -11.5 30.5t-34.5 8.5z" />
    <glyph glyph-name="uni207A" unicode="&#x207a;" horiz-adv-x="394" 
d="M297 630v-102h-111v102h-102v109h102v103h111v-103h102v-109h-102z" />
    <glyph glyph-name="uni207B" unicode="&#x207b;" horiz-adv-x="394" 
d="M87 638v103h302v-103h-302z" />
    <glyph glyph-name="uni207C" unicode="&#x207c;" horiz-adv-x="394" 
d="M98 712v90h289v-90h-289zM98 574v90h289v-90h-289z" />
    <glyph glyph-name="uni207D" unicode="&#x207d;" horiz-adv-x="227" 
d="M307 901q-50 -61 -77 -140t-27 -162q0 -46 9 -87.5t29 -77.5l-86 -9q-35 35 -51.5 81.5t-16.5 100.5q0 89 35 169t101 133z" />
    <glyph glyph-name="uni207E" unicode="&#x207e;" horiz-adv-x="227" 
d="M159 909q34 -35 50 -81t16 -100q0 -88 -34 -168.5t-100 -134.5l-85 9q50 62 76.5 141t26.5 162q0 45 -9 87t-29 77z" />
    <glyph glyph-name="uni2080" unicode="&#x2080;" horiz-adv-x="394" 
d="M182 243q79 0 116.5 -35t37.5 -110q0 -14 -1.5 -28.5t-3.5 -30.5q-14 -100 -63.5 -150t-142.5 -50q-81 0 -117.5 36t-36.5 109q0 13 1 26.5t3 28.5q15 106 64 155t143 49zM168 144q-13 0 -23 -4t-18 -15.5t-14 -31.5t-10 -53q-2 -16 -3 -28.5t-1 -22.5q0 -32 10 -42
t30 -10q12 0 21.5 4t17.5 15t13.5 31t10.5 53q2 16 3 28t1 23q0 32 -10 42.5t-28 10.5z" />
    <glyph glyph-name="uni2081" unicode="&#x2081;" horiz-adv-x="293" 
d="M175 -156h-130l29 208q2 10 3.5 20t3.5 20l-2 2q-8 -5 -18 -10l-18 -9l-46 -22l3 105l147 81h83z" />
    <glyph glyph-name="uni2082" unicode="&#x2082;" horiz-adv-x="386" 
d="M181 243q75 0 109.5 -29.5t34.5 -73.5q0 -32 -13 -57.5t-36.5 -48t-56 -43.5t-71.5 -43v-3h148l-16 -101h-313l11 80q46 35 84 62.5t65 50t42 41t15 35.5q0 13 -10.5 21t-36.5 8q-28 0 -54.5 -9t-57.5 -25l-17 95q38 19 81 29.5t92 10.5z" />
    <glyph glyph-name="uni2083" unicode="&#x2083;" horiz-adv-x="386" 
d="M170 243q76 0 115.5 -26.5t39.5 -73.5q0 -34 -17 -58t-49 -38v-2q24 -10 37.5 -26.5t13.5 -41.5q0 -65 -51 -101.5t-150 -36.5q-42 0 -79 8.5t-63 24.5l40 89q26 -13 54 -20.5t60 -7.5q64 0 64 40q0 16 -19 23t-79 7l12 83q33 0 53.5 2.5t31.5 7t14.5 11.5t3.5 15
q0 11 -11 18t-40 7q-35 0 -64 -7.5t-58 -24.5l-17 87q32 20 74 30.5t84 10.5z" />
    <glyph glyph-name="uni2084" unicode="&#x2084;" horiz-adv-x="394" 
d="M285 -91l-9 -65h-121l9 65h-205v70l216 259h156l-33 -235h36l-15 -94h-34zM196 89q3 21 9 40l-3 1q-5 -8 -11 -16t-13 -17l-49 -63q-12 -15 -26 -29l1 -2h77z" />
    <glyph glyph-name="uni2085" unicode="&#x2085;" horiz-adv-x="394" 
d="M315 137h-176l-9 -43q22 3 49 3q66 0 101.5 -25t35.5 -73q0 -35 -12 -64t-36.5 -50.5t-61.5 -33.5t-87 -12q-39 0 -77 6t-70 21l32 93q32 -13 57.5 -19t60.5 -6q36 0 50 11t14 31q0 14 -12 22t-40 8q-23 0 -47 -2t-44 -5l-42 37l51 202h274z" />
    <glyph glyph-name="uni2086" unicode="&#x2086;" horiz-adv-x="394" 
d="M308 131q-22 7 -42 10t-47 3q-45 0 -69.5 -14t-35.5 -40l1 -1q34 14 74 14q134 0 134 -98q0 -42 -14 -73t-39.5 -51.5t-60.5 -31t-77 -10.5q-78 0 -119.5 37t-41.5 114q0 58 17 105t48.5 80t77 51t102.5 18q66 0 113 -17zM155 19q-9 0 -26 -3.5t-24 -11.5q-1 -7 -1.5 -13
t-0.5 -12q0 -25 10 -35.5t33 -10.5q20 0 34 14t14 44q0 14 -8.5 21t-30.5 7z" />
    <glyph glyph-name="uni2087" unicode="&#x2087;" horiz-adv-x="394" 
d="M340 133l-197 -289h-151l188 253q6 8 12 15t13 15l-1 2h-216l22 109h345z" />
    <glyph glyph-name="uni2088" unicode="&#x2088;" horiz-adv-x="394" 
d="M125 -162q-85 0 -124 27t-39 77q0 28 13.5 57t51.5 49v2q-24 21 -24 63q0 60 43.5 95.5t135.5 35.5q79 0 113 -26t34 -68q0 -30 -13 -53.5t-36 -39.5v-2q19 -11 31 -28.5t12 -45.5q0 -69 -52 -106t-146 -37zM119 1q-14 -9 -22 -19.5t-8 -23.5q0 -29 51 -29q20 0 35.5 6
t15.5 21q0 19 -19.5 27.5t-52.5 17.5zM169 155q-20 0 -32 -7t-12 -21q0 -17 16 -24t45 -13q11 8 17 16.5t6 21.5t-9 20t-31 7z" />
    <glyph glyph-name="uni2089" unicode="&#x2089;" horiz-adv-x="394" 
d="M176 244q81 0 119 -36.5t38 -106.5q0 -22 -3 -46q-16 -111 -73 -163.5t-160 -52.5q-45 0 -72 5.5t-52 14.5l32 92q23 -9 45 -13.5t50 -4.5q43 0 68.5 16t36.5 54l-2 2q-34 -22 -82 -22q-74 0 -106 28t-32 73q0 33 12.5 62.5t36.5 51t60 34t84 12.5zM160 148
q-27 0 -39 -12.5t-12 -38.5q0 -15 9 -22t33 -7q19 0 33 6t20 15q1 6 1.5 10.5t0.5 9.5q0 22 -11.5 30.5t-34.5 8.5z" />
    <glyph glyph-name="uni208A" unicode="&#x208a;" horiz-adv-x="394" 
d="M208 -12v-102h-111v102h-102v109h102v103h111v-103h102v-109h-102z" />
    <glyph glyph-name="uni208B" unicode="&#x208b;" horiz-adv-x="394" 
d="M-2 -4v103h302v-103h-302z" />
    <glyph glyph-name="uni208C" unicode="&#x208c;" horiz-adv-x="394" 
d="M9 70v90h289v-90h-289zM9 -68v90h289v-90h-289z" />
    <glyph glyph-name="uni208D" unicode="&#x208d;" horiz-adv-x="227" 
d="M218 259q-50 -61 -77 -140t-27 -162q0 -46 9 -87.5t29 -77.5l-86 -9q-35 35 -51.5 81.5t-16.5 100.5q0 89 35 169t101 133z" />
    <glyph glyph-name="uni208E" unicode="&#x208e;" horiz-adv-x="227" 
d="M70 267q34 -35 50 -81t16 -100q0 -88 -34 -168.5t-100 -134.5l-85 9q50 62 76.5 141t26.5 162q0 45 -9 87t-29 77z" />
    <glyph glyph-name="franc" unicode="&#x20a3;" horiz-adv-x="636" 
d="M60 210l76 540h514l-20 -171h-308l-17 -121h232l-24 -161h-231l-12 -87h71l-18 -126h-71l-11 -84h-210l11 84h-61l18 126h61z" />
    <glyph glyph-name="lira" unicode="&#x20a4;" horiz-adv-x="636" 
d="M82 484h27q-1 7 -1.5 14t-0.5 15q0 48 19.5 93t60.5 80t105 56.5t153 21.5q60 0 101.5 -8.5t73.5 -20.5l-45 -163q-27 9 -61 15.5t-70 6.5q-39 0 -64.5 -9t-41.5 -24.5t-22.5 -35.5t-6.5 -41h245l-14 -96h-217q1 -9 2.5 -17.5t2.5 -18.5h207l-13 -95h-199
q-17 -62 -70 -95l1 -2q39 9 81 12.5t81 3.5q45 0 80.5 -3t73.5 -8l-35 -173q-117 15 -238 15q-35 0 -68 -0.5t-66.5 -2t-70 -3.5t-77.5 -6l12 168q39 5 67.5 32.5t36.5 61.5h-66l8 95h61q-2 9 -3.5 18t-3.5 18h-52z" />
    <glyph glyph-name="peseta" unicode="&#x20a7;" horiz-adv-x="636" 
d="M613 437q-13 -52 -37.5 -92t-63 -67.5t-92 -41.5t-125.5 -14h-62l-31 -222h-196l61 437h-37l12 88h37l32 225h258q135 0 196 -49t61 -152q0 -6 -0.5 -14t-0.5 -10h39l-12 -88h-39zM274 525h149q0 38 -17 52t-59 14h-63zM316 373q38 0 60.5 12t34.5 52h-149l-9 -64h63z
" />
    <glyph glyph-name="Euro" unicode="&#x20ac;" horiz-adv-x="636" 
d="M473 256h-164q8 -61 44 -86t96 -25q29 0 59.5 7.5t58.5 18.5l-7 -143q-38 -19 -84 -28.5t-106 -9.5q-132 0 -202 65.5t-75 200.5h-80l15 93h70q1 10 2 19.5t3 18.5h-70l12 96h81q21 61 55.5 111t80.5 85t103 54.5t123 19.5q56 0 97 -7t73 -21l-61 -156q-37 14 -85 14
q-63 0 -103.5 -24.5t-64.5 -75.5h218l-36 -96h-210q-2 -8 -3 -18l-2 -20h198z" />
    <glyph glyph-name="trademark" unicode="&#x2122;" horiz-adv-x="711" 
d="M604 462l18 125q2 10 3.5 19t5.5 22l-2 1l-80 -167h-83l-34 164h-2q-1 -9 -1.5 -20t-2.5 -21l-17 -123h-96l42 293h142l24 -130q5 -21 6 -40h2q4 9 7.5 18.5t8.5 18.5l60 133h138l-42 -293h-97zM244 661l-28 -199h-117l28 199h-73l14 94h261l-14 -94h-71z" />
    <glyph glyph-name="Omega" unicode="&#x2126;" horiz-adv-x="748" 
d="M430 761q69 0 124.5 -15t94.5 -45.5t60 -78t21 -112.5q0 -110 -49 -203t-147 -153v-3h151l-21 -151h-317l30 216q23 15 46 38t41.5 56t30 77.5t11.5 103.5t-25 82t-74 23q-29 0 -52 -8t-40.5 -26.5t-29 -49t-17.5 -76.5q-2 -17 -3.5 -33.5t-1.5 -30.5q0 -62 19.5 -97.5
t48.5 -58.5l-30 -216h-317l21 151h149l1 3q-57 42 -84.5 100t-27.5 131q0 14 1 29t3 31q11 79 43.5 138.5t82.5 99t115 59t142 19.5z" />
    <glyph glyph-name="uni2150" unicode="&#x2150;" horiz-adv-x="1005" 
d="M246 356h-130l29 208q2 10 3.5 20t3.5 20l-2 2q-8 -5 -18 -10l-18 -9l-46 -22l3 105l147 81h83zM845 750l-600 -750h-133l598 750h135zM972 289l-197 -289h-151l188 253q6 8 12 15t13 15l-1 2h-216l22 109h345z" />
    <glyph glyph-name="uni2151" unicode="&#x2151;" horiz-adv-x="1005" 
d="M246 356h-130l29 208q2 10 3.5 20t3.5 20l-2 2q-8 -5 -18 -10l-18 -9l-46 -22l3 105l147 81h83zM845 750l-600 -750h-133l598 750h135zM808 400q81 0 119 -36.5t38 -106.5q0 -22 -3 -46q-16 -111 -73 -163.5t-160 -52.5q-45 0 -72 5.5t-52 14.5l32 92q23 -9 45 -13.5
t50 -4.5q43 0 68.5 16t36.5 54l-2 2q-34 -22 -82 -22q-74 0 -106 28t-32 73q0 33 12.5 62.5t36.5 51t60 34t84 12.5zM792 304q-27 0 -39 -12.5t-12 -38.5q0 -15 9 -22t33 -7q19 0 33 6t20 15q1 6 1.5 10.5t0.5 9.5q0 22 -11.5 30.5t-34.5 8.5z" />
    <glyph glyph-name="uni2152" unicode="&#x2152;" horiz-adv-x="1298" 
d="M246 356h-130l29 208q2 10 3.5 20t3.5 20l-2 2q-8 -5 -18 -10l-18 -9l-46 -22l3 105l147 81h83zM845 750l-600 -750h-133l598 750h135zM807 0h-130l29 208q2 10 3.5 20t3.5 20l-2 2q-8 -5 -18 -10l-18 -9l-46 -22l3 105l147 81h83zM1107 399q79 0 116.5 -35t37.5 -110
q0 -14 -1.5 -28.5t-3.5 -30.5q-14 -100 -63.5 -150t-142.5 -50q-81 0 -117.5 36t-36.5 109q0 13 1 26.5t3 28.5q15 106 64 155t143 49zM1093 300q-13 0 -23 -4t-18 -15.5t-14 -31.5t-10 -53q-2 -16 -3 -28.5t-1 -22.5q0 -32 10 -42t30 -10q12 0 21.5 4t17.5 15t13.5 31
t10.5 53q2 16 3 28t1 23q0 32 -10 42.5t-28 10.5z" />
    <glyph glyph-name="onethird" unicode="&#x2153;" horiz-adv-x="997" 
d="M246 356h-130l29 208q2 10 3.5 20t3.5 20l-2 2q-8 -5 -18 -10l-18 -9l-46 -22l3 105l147 81h83zM845 750l-600 -750h-133l598 750h135zM802 399q76 0 115.5 -26.5t39.5 -73.5q0 -34 -17 -58t-49 -38v-2q24 -10 37.5 -26.5t13.5 -41.5q0 -65 -51 -101.5t-150 -36.5
q-42 0 -79 8.5t-63 24.5l40 89q26 -13 54 -20.5t60 -7.5q64 0 64 40q0 16 -19 23t-79 7l12 83q33 0 53.5 2.5t31.5 7t14.5 11.5t3.5 15q0 11 -11 18t-40 7q-35 0 -64 -7.5t-58 -24.5l-17 87q32 20 74 30.5t84 10.5z" />
    <glyph glyph-name="twothirds" unicode="&#x2154;" horiz-adv-x="1090" 
d="M252 755q75 0 109.5 -29.5t34.5 -73.5q0 -32 -13 -57.5t-36.5 -48t-56 -43.5t-71.5 -43v-3h148l-16 -101h-313l11 80q46 35 84 62.5t65 50t42 41t15 35.5q0 13 -10.5 21t-36.5 8q-28 0 -54.5 -9t-57.5 -25l-17 95q38 19 81 29.5t92 10.5zM938 750l-600 -750h-133l598 750
h135zM895 399q76 0 115.5 -26.5t39.5 -73.5q0 -34 -17 -58t-49 -38v-2q24 -10 37.5 -26.5t13.5 -41.5q0 -65 -51 -101.5t-150 -36.5q-42 0 -79 8.5t-63 24.5l40 89q26 -13 54 -20.5t60 -7.5q64 0 64 40q0 16 -19 23t-79 7l12 83q33 0 53.5 2.5t31.5 7t14.5 11.5t3.5 15
q0 11 -11 18t-40 7q-35 0 -64 -7.5t-58 -24.5l-17 87q32 20 74 30.5t84 10.5z" />
    <glyph glyph-name="uni2155" unicode="&#x2155;" horiz-adv-x="1005" 
d="M246 356h-130l29 208q2 10 3.5 20t3.5 20l-2 2q-8 -5 -18 -10l-18 -9l-46 -22l3 105l147 81h83zM845 750l-600 -750h-133l598 750h135zM947 293h-176l-9 -43q22 3 49 3q66 0 101.5 -25t35.5 -73q0 -35 -12 -64t-36.5 -50.5t-61.5 -33.5t-87 -12q-39 0 -77 6t-70 21l32 93
q32 -13 57.5 -19t60.5 -6q36 0 50 11t14 31q0 14 -12 22t-40 8q-23 0 -47 -2t-44 -5l-42 37l51 202h274z" />
    <glyph glyph-name="uni2156" unicode="&#x2156;" horiz-adv-x="1098" 
d="M252 755q75 0 109.5 -29.5t34.5 -73.5q0 -32 -13 -57.5t-36.5 -48t-56 -43.5t-71.5 -43v-3h148l-16 -101h-313l11 80q46 35 84 62.5t65 50t42 41t15 35.5q0 13 -10.5 21t-36.5 8q-28 0 -54.5 -9t-57.5 -25l-17 95q38 19 81 29.5t92 10.5zM938 750l-600 -750h-133l598 750
h135zM1040 293h-176l-9 -43q22 3 49 3q66 0 101.5 -25t35.5 -73q0 -35 -12 -64t-36.5 -50.5t-61.5 -33.5t-87 -12q-39 0 -77 6t-70 21l32 93q32 -13 57.5 -19t60.5 -6q36 0 50 11t14 31q0 14 -12 22t-40 8q-23 0 -47 -2t-44 -5l-42 37l51 202h274z" />
    <glyph glyph-name="uni2157" unicode="&#x2157;" horiz-adv-x="1098" 
d="M241 755q76 0 115.5 -26.5t39.5 -73.5q0 -34 -17 -58t-49 -38v-2q24 -10 37.5 -26.5t13.5 -41.5q0 -65 -51 -101.5t-150 -36.5q-42 0 -79 8.5t-63 24.5l40 89q26 -13 54 -20.5t60 -7.5q64 0 64 40q0 16 -19 23t-79 7l12 83q33 0 53.5 2.5t31.5 7t14.5 11.5t3.5 15
q0 11 -11 18t-40 7q-35 0 -64 -7.5t-58 -24.5l-17 87q32 20 74 30.5t84 10.5zM938 750l-600 -750h-133l598 750h135zM1040 293h-176l-9 -43q22 3 49 3q66 0 101.5 -25t35.5 -73q0 -35 -12 -64t-36.5 -50.5t-61.5 -33.5t-87 -12q-39 0 -77 6t-70 21l32 93q32 -13 57.5 -19
t60.5 -6q36 0 50 11t14 31q0 14 -12 22t-40 8q-23 0 -47 -2t-44 -5l-42 37l51 202h274z" />
    <glyph glyph-name="uni2158" unicode="&#x2158;" horiz-adv-x="1106" 
d="M356 421l-9 -65h-121l9 65h-205v70l216 259h156l-33 -235h36l-15 -94h-34zM267 601q3 21 9 40l-3 1q-5 -8 -11 -16t-13 -17l-49 -63q-12 -15 -26 -29l1 -2h77zM946 750l-600 -750h-133l598 750h135zM1048 293h-176l-9 -43q22 3 49 3q66 0 101.5 -25t35.5 -73
q0 -35 -12 -64t-36.5 -50.5t-61.5 -33.5t-87 -12q-39 0 -77 6t-70 21l32 93q32 -13 57.5 -19t60.5 -6q36 0 50 11t14 31q0 14 -12 22t-40 8q-23 0 -47 -2t-44 -5l-42 37l51 202h274z" />
    <glyph glyph-name="uni2159" unicode="&#x2159;" horiz-adv-x="1005" 
d="M246 356h-130l29 208q2 10 3.5 20t3.5 20l-2 2q-8 -5 -18 -10l-18 -9l-46 -22l3 105l147 81h83zM845 750l-600 -750h-133l598 750h135zM940 287q-22 7 -42 10t-47 3q-45 0 -69.5 -14t-35.5 -40l1 -1q34 14 74 14q134 0 134 -98q0 -42 -14 -73t-39.5 -51.5t-60.5 -31
t-77 -10.5q-78 0 -119.5 37t-41.5 114q0 58 17 105t48.5 80t77 51t102.5 18q66 0 113 -17zM787 175q-9 0 -26 -3.5t-24 -11.5q-1 -7 -1.5 -13t-0.5 -12q0 -25 10 -35.5t33 -10.5q20 0 34 14t14 44q0 14 -8.5 21t-30.5 7z" />
    <glyph glyph-name="uni215A" unicode="&#x215a;" horiz-adv-x="1106" 
d="M386 649h-176l-9 -43q22 3 49 3q66 0 101.5 -25t35.5 -73q0 -35 -12 -64t-36.5 -50.5t-61.5 -33.5t-87 -12q-39 0 -77 6t-70 21l32 93q32 -13 57.5 -19t60.5 -6q36 0 50 11t14 31q0 14 -12 22t-40 8q-23 0 -47 -2t-44 -5l-42 37l51 202h274zM946 750l-600 -750h-133
l598 750h135zM1041 287q-22 7 -42 10t-47 3q-45 0 -69.5 -14t-35.5 -40l1 -1q34 14 74 14q134 0 134 -98q0 -42 -14 -73t-39.5 -51.5t-60.5 -31t-77 -10.5q-78 0 -119.5 37t-41.5 114q0 58 17 105t48.5 80t77 51t102.5 18q66 0 113 -17zM888 175q-9 0 -26 -3.5t-24 -11.5
q-1 -7 -1.5 -13t-0.5 -12q0 -25 10 -35.5t33 -10.5q20 0 34 14t14 44q0 14 -8.5 21t-30.5 7z" />
    <glyph glyph-name="oneeighth" unicode="&#x215b;" horiz-adv-x="1005" 
d="M246 356h-130l29 208q2 10 3.5 20t3.5 20l-2 2q-8 -5 -18 -10l-18 -9l-46 -22l3 105l147 81h83zM845 750l-600 -750h-133l598 750h135zM757 -6q-85 0 -124 27t-39 77q0 28 13.5 57t51.5 49v2q-24 21 -24 63q0 60 43.5 95.5t135.5 35.5q79 0 113 -26t34 -68
q0 -30 -13 -53.5t-36 -39.5v-2q19 -11 31 -28.5t12 -45.5q0 -69 -52 -106t-146 -37zM751 157q-14 -9 -22 -19.5t-8 -23.5q0 -29 51 -29q20 0 35.5 6t15.5 21q0 19 -19.5 27.5t-52.5 17.5zM801 311q-20 0 -32 -7t-12 -21q0 -17 16 -24t45 -13q11 8 17 16.5t6 21.5t-9 20
t-31 7z" />
    <glyph glyph-name="threeeighths" unicode="&#x215c;" horiz-adv-x="1098" 
d="M241 755q76 0 115.5 -26.5t39.5 -73.5q0 -34 -17 -58t-49 -38v-2q24 -10 37.5 -26.5t13.5 -41.5q0 -65 -51 -101.5t-150 -36.5q-42 0 -79 8.5t-63 24.5l40 89q26 -13 54 -20.5t60 -7.5q64 0 64 40q0 16 -19 23t-79 7l12 83q33 0 53.5 2.5t31.5 7t14.5 11.5t3.5 15
q0 11 -11 18t-40 7q-35 0 -64 -7.5t-58 -24.5l-17 87q32 20 74 30.5t84 10.5zM938 750l-600 -750h-133l598 750h135zM850 -6q-85 0 -124 27t-39 77q0 28 13.5 57t51.5 49v2q-24 21 -24 63q0 60 43.5 95.5t135.5 35.5q79 0 113 -26t34 -68q0 -30 -13 -53.5t-36 -39.5v-2
q19 -11 31 -28.5t12 -45.5q0 -69 -52 -106t-146 -37zM844 157q-14 -9 -22 -19.5t-8 -23.5q0 -29 51 -29q20 0 35.5 6t15.5 21q0 19 -19.5 27.5t-52.5 17.5zM894 311q-20 0 -32 -7t-12 -21q0 -17 16 -24t45 -13q11 8 17 16.5t6 21.5t-9 20t-31 7z" />
    <glyph glyph-name="fiveeighths" unicode="&#x215d;" horiz-adv-x="1106" 
d="M386 649h-176l-9 -43q22 3 49 3q66 0 101.5 -25t35.5 -73q0 -35 -12 -64t-36.5 -50.5t-61.5 -33.5t-87 -12q-39 0 -77 6t-70 21l32 93q32 -13 57.5 -19t60.5 -6q36 0 50 11t14 31q0 14 -12 22t-40 8q-23 0 -47 -2t-44 -5l-42 37l51 202h274zM946 750l-600 -750h-133
l598 750h135zM858 -6q-85 0 -124 27t-39 77q0 28 13.5 57t51.5 49v2q-24 21 -24 63q0 60 43.5 95.5t135.5 35.5q79 0 113 -26t34 -68q0 -30 -13 -53.5t-36 -39.5v-2q19 -11 31 -28.5t12 -45.5q0 -69 -52 -106t-146 -37zM852 157q-14 -9 -22 -19.5t-8 -23.5q0 -29 51 -29
q20 0 35.5 6t15.5 21q0 19 -19.5 27.5t-52.5 17.5zM902 311q-20 0 -32 -7t-12 -21q0 -17 16 -24t45 -13q11 8 17 16.5t6 21.5t-9 20t-31 7z" />
    <glyph glyph-name="seveneighths" unicode="&#x215e;" horiz-adv-x="1106" 
d="M411 645l-197 -289h-151l188 253q6 8 12 15t13 15l-1 2h-216l22 109h345zM946 750l-600 -750h-133l598 750h135zM858 -6q-85 0 -124 27t-39 77q0 28 13.5 57t51.5 49v2q-24 21 -24 63q0 60 43.5 95.5t135.5 35.5q79 0 113 -26t34 -68q0 -30 -13 -53.5t-36 -39.5v-2
q19 -11 31 -28.5t12 -45.5q0 -69 -52 -106t-146 -37zM852 157q-14 -9 -22 -19.5t-8 -23.5q0 -29 51 -29q20 0 35.5 6t15.5 21q0 19 -19.5 27.5t-52.5 17.5zM902 311q-20 0 -32 -7t-12 -21q0 -17 16 -24t45 -13q11 8 17 16.5t6 21.5t-9 20t-31 7z" />
    <glyph glyph-name="uni215F" unicode="&#x215f;" horiz-adv-x="611" 
d="M246 356h-130l29 208q2 10 3.5 20t3.5 20l-2 2q-8 -5 -18 -10l-18 -9l-46 -22l3 105l147 81h83zM845 750l-600 -750h-133l598 750h135z" />
    <glyph glyph-name="uni2189" unicode="&#x2189;" horiz-adv-x="1015" 
d="M253 755q79 0 116.5 -35t37.5 -110q0 -14 -1.5 -28.5t-3.5 -30.5q-14 -100 -63.5 -150t-142.5 -50q-81 0 -117.5 36t-36.5 109q0 13 1 26.5t3 28.5q15 106 64 155t143 49zM239 656q-13 0 -23 -4t-18 -15.5t-14 -31.5t-10 -53q-2 -16 -3 -28.5t-1 -22.5q0 -32 10 -42
t30 -10q12 0 21.5 4t17.5 15t13.5 31t10.5 53q2 16 3 28t1 23q0 32 -10 42.5t-28 10.5zM863 750l-600 -750h-133l598 750h135zM820 399q76 0 115.5 -26.5t39.5 -73.5q0 -34 -17 -58t-49 -38v-2q24 -10 37.5 -26.5t13.5 -41.5q0 -65 -51 -101.5t-150 -36.5q-42 0 -79 8.5
t-63 24.5l40 89q26 -13 54 -20.5t60 -7.5q64 0 64 40q0 16 -19 23t-79 7l12 83q33 0 53.5 2.5t31.5 7t14.5 11.5t3.5 15q0 11 -11 18t-40 7q-35 0 -64 -7.5t-58 -24.5l-17 87q32 20 74 30.5t84 10.5z" />
    <glyph glyph-name="partialdiff" unicode="&#x2202;" horiz-adv-x="644" 
d="M327 540q67 0 116 -32l2 1q-5 48 -35.5 72.5t-91.5 24.5q-54 0 -99.5 -12.5t-91.5 -35.5l-28 128q30 18 59.5 31.5t62 23t69 14.5t81.5 5t91 -14.5t83.5 -47.5t61.5 -86.5t24 -132.5q0 -37 -6 -77q-13 -92 -44 -168.5t-80.5 -131.5t-118 -85.5t-156.5 -30.5
q-112 0 -167 50.5t-55 144.5q0 12 1 25t3 27q22 153 106.5 230t212.5 77zM408 328q1 5 1 7v4q0 26 -16.5 44t-51.5 18q-51 0 -87.5 -44.5t-50.5 -140.5q-1 -5 -1.5 -10t-0.5 -10q0 -34 18 -50.5t51 -16.5q51 0 87.5 53.5t50.5 145.5z" />
    <glyph glyph-name="Delta" unicode="&#x2206;" horiz-adv-x="735" 
d="M664 0h-695l384 753h138zM386 507q-3 -8 -7 -17t-9 -20l-150 -318h229l-55 315q-2 12 -3.5 21.5t-2.5 18.5h-2z" />
    <glyph glyph-name="product" unicode="&#x220f;" horiz-adv-x="757" 
d="M124 -164v775l-91 11l-4 128h700l-3 -127l-90 -11v-776h-181v762h-150v-762h-181z" />
    <glyph glyph-name="summation" unicode="&#x2211;" horiz-adv-x="693" 
d="M356 51l-54 -57l1 -3h360l-4 -155h-605v102l305 365l-305 333v114h591l4 -158h-333l-1 -2l55 -57l193 -211v-39z" />
    <glyph glyph-name="minus" unicode="&#x2212;" 
d="M49 251l23 166h477l-23 -166h-477z" />
    <glyph glyph-name="uni2219" unicode="&#x2219;" 
d="M130 322q24 170 194 170q153 0 153 -131q0 -107 -54 -159t-147 -52q-149 0 -149 130q0 19 3 42z" />
    <glyph glyph-name="radical" unicode="&#x221a;" horiz-adv-x="634" 
d="M25 511h214l37 -259q2 -14 3 -23.5t2 -17.5h2q3 9 6.5 19t7.5 19l208 531h204l-336 -780h-231l-67 346h-73z" />
    <glyph glyph-name="infinity" unicode="&#x221e;" horiz-adv-x="780" 
d="M546 138q-51 0 -88 15t-66 43q-24 -26 -61 -42t-94 -16q-43 0 -80 13.5t-64.5 39.5t-43 64t-15.5 87q0 45 12.5 83t37 65t62 42t87.5 15q51 0 88 -15t66 -44q24 26 61.5 42.5t94.5 16.5q42 0 79 -13.5t64.5 -39.5t43.5 -64t16 -87q0 -45 -12.5 -83t-37.5 -65t-62.5 -42
t-87.5 -15zM536 394q-29 0 -45.5 -23t-30.5 -57q13 -14 30 -24t43 -10q28 0 42 17t14 44t-15.5 40t-37.5 13zM243 291q29 0 45.5 23t30.5 57q-13 14 -29.5 24t-42.5 10q-27 0 -41.5 -16.5t-14.5 -42.5q0 -29 15.5 -42t36.5 -13z" />
    <glyph glyph-name="integral" unicode="&#x222b;" horiz-adv-x="336" 
d="M264 39q0 -113 -61 -162t-193 -49l-4 120q32 0 48.5 18.5t16.5 65.5v569q0 100 61 149t194 49l4 -119q-32 0 -48 -18.5t-16 -60.5z" />
    <glyph glyph-name="approxequal" unicode="&#x2248;" horiz-adv-x="636" 
d="M427 338q-32 0 -61 6.5t-56 14.5t-52.5 14.5t-50.5 6.5q-64 0 -119 -29v140q28 14 57.5 21.5t61.5 7.5t60.5 -6.5t55.5 -14.5t52.5 -14.5t51.5 -6.5q34 0 63 7.5t56 21.5v-140q-28 -14 -56.5 -21.5t-62.5 -7.5zM427 126q-32 0 -61 6.5t-56 14.5t-52.5 14.5t-50.5 6.5
q-64 0 -119 -29v140q28 14 57.5 21.5t61.5 7.5t60.5 -6.5t55.5 -14.5t52.5 -14.5t51.5 -6.5q34 0 63 7.5t56 21.5v-140q-28 -14 -56.5 -21.5t-62.5 -7.5z" />
    <glyph glyph-name="notequal" unicode="&#x2260;" horiz-adv-x="636" 
d="M506 562l-30 -62h70v-139h-136l-35 -74h171v-140h-238l-58 -121l-121 56l31 65h-72v140h138l35 74h-173v139h239l57 119z" />
    <glyph glyph-name="lessequal" unicode="&#x2264;" horiz-adv-x="636" 
d="M259 432q-11 -2 -20.5 -3.5t-19.5 -3.5v-2q10 -2 19.5 -3t20.5 -3l294 -55v-169l-476 145v178l476 147v-173zM81 26v146h472v-146h-472z" />
    <glyph glyph-name="greaterequal" unicode="&#x2265;" horiz-adv-x="636" 
d="M77 362l293 55q11 2 20 3.5t20 2.5v2q-10 2 -19.5 3.5t-20.5 3.5l-293 58v173l476 -147v-178l-476 -145v169zM77 26v146h473v-146h-473z" />
    <glyph glyph-name="dotmath" unicode="&#x22c5;" 
d="M317 444q49 0 71.5 -19.5t22.5 -56.5q0 -55 -29.5 -87t-92.5 -32q-50 0 -73 16.5t-23 55.5q0 59 30.5 91t93.5 32z" />
    <glyph glyph-name="lozenge" unicode="&#x25ca;" horiz-adv-x="633" 
d="M316 694l298 -345l-298 -346l-297 346zM316 232l102 117l-102 119l-101 -118z" />
    <glyph glyph-name="orn001" unicode="&#xea01;" horiz-adv-x="704" 
d="M362 -14q-29 0 -58.5 18t-56.5 43t-48.5 50t-34.5 39q-23 24 -43.5 62.5t-36.5 85t-25 97.5t-9 101q0 60 16 112.5t53 90.5t96 60t146 22q86 0 145.5 -21.5t96.5 -59.5t53.5 -89.5t16.5 -111.5q0 -50 -8.5 -101.5t-24 -98.5t-36 -86t-44.5 -63q-14 -14 -36 -39t-48.5 -50
t-56 -43t-57.5 -18zM362 59q19 0 39.5 13.5t39.5 30.5t34.5 35t25.5 27q15 14 29.5 41t26 61t18.5 72.5t7 74.5t-9 60t-33.5 38.5t-67 20.5t-108.5 6q-69 0 -112 -5.5t-67 -19.5t-32.5 -37.5t-8.5 -58.5q0 -37 6.5 -76t17.5 -73.5t25 -61.5t30 -42q10 -9 26 -27t35 -35.5
t39.5 -30.5t38.5 -13zM470 177q-24 5 -50 7.5t-53 2.5t-54 -2.5t-53 -7.5q-19 21 -32.5 52t-16.5 64q75 -23 151 -23q78 0 153 23q-4 -34 -14.5 -64t-30.5 -52zM316 317q-35 4 -70 13.5t-63 23.5q-1 5 -1 8v9q0 32 9.5 59t29.5 40q28 -34 60.5 -57t67.5 -40zM381 373
q35 17 67.5 40t61.5 57q17 -12 26.5 -38.5t9.5 -57.5v-10q0 -5 -1 -10q-26 -14 -61 -23.5t-72 -13.5z" />
    <glyph glyph-name="fi" unicode="&#xfb01;" horiz-adv-x="685" 
d="M55 601h58q7 49 27 88t58.5 65t99 40t149.5 14l-6 -136q-40 0 -65 -3t-39 -11.5t-20.5 -22t-9.5 -34.5h188q46 0 86.5 4t83.5 9l-86 -614h-194l65 468h-162l-65 -468h-194l65 468h-64zM591 807q51 0 73.5 -16t22.5 -46q0 -86 -117 -86q-49 0 -72 13t-23 45q0 44 28 67
t88 23z" />
    <glyph glyph-name="fl" unicode="&#xfb02;" horiz-adv-x="664" 
d="M55 601h58q7 49 28 87t61.5 64t102 39.5t149.5 13.5q57 0 113 -5t103 -13l-110 -787h-194l95 676h-20q-39 0 -63.5 -4.5t-39.5 -13.5t-21.5 -23t-9.5 -34h99l-24 -133h-94l-65 -468h-194l65 468h-64z" />
    <glyph glyph-name="uniFEFF" unicode="&#xfeff;" horiz-adv-x="0" 
 />
    <glyph glyph-name="afii57929" horiz-adv-x="267" 
d="M191 779q45 0 68.5 -23t23.5 -67q0 -31 -12.5 -63t-33.5 -63t-48.5 -59.5t-58.5 -51.5l-56 37q16 23 30.5 48t26.5 51q-27 2 -43 19.5t-16 48.5q0 56 31 89.5t88 33.5z" />
    <glyph glyph-name="product.alt001" horiz-adv-x="758" 
d="M51 -163l109 777l-90 11l13 125h702l-21 -125l-91 -10l-109 -778h-182l107 764h-149l-107 -764h-182z" />
    <glyph glyph-name="summation.alt001" horiz-adv-x="693" 
d="M279 16q-8 -8 -15 -14t-14 -11v-3h361l-24 -151h-607l14 100l358 366l-260 336l16 111h593l-19 -154h-335l-1 -2q12 -12 25 -30l188 -242l-6 -38z" />
    <glyph glyph-name="infinity.alt001" horiz-adv-x="781" 
d="M260 546q51 0 86 -15t60 -44q28 26 67.5 42.5t96.5 16.5q38 0 70.5 -11t56.5 -32.5t37.5 -53t13.5 -71.5q0 -52 -16.5 -95.5t-46.5 -75t-73 -49.5t-96 -18q-51 0 -86 15t-60 44q-28 -26 -67.5 -42.5t-96.5 -16.5q-38 0 -70.5 11t-56 32t-37 52t-13.5 71q0 52 15.5 96
t45.5 76t73 50t97 18zM234 289q29 0 48.5 23.5t39.5 57.5q-11 16 -26.5 26.5t-41.5 10.5q-29 0 -47.5 -20t-18.5 -52q0 -24 13 -35t33 -11zM542 397q-30 0 -49 -24t-39 -59q11 -15 27 -25t42 -10q29 0 46.5 21t17.5 53q0 23 -13 33.5t-32 10.5z" />
    <glyph glyph-name="integral.alt001" horiz-adv-x="336" 
d="M220 39q-8 -56 -28.5 -96t-55.5 -65.5t-84.5 -37t-115.5 -11.5l13 117q32 0 50.5 19.5t25.5 67.5l80 568q14 100 82 149t201 49l-12 -116q-32 -1 -51 -19.5t-25 -62.5z" />
    <glyph glyph-name="lozenge.alt001" horiz-adv-x="634" 
d="M363 693l249 -345l-346 -345l-249 345zM298 230l121 119l-88 120l-119 -120z" />
    <glyph glyph-name="i.latn_TRK" horiz-adv-x="306" 
d="M6 0l85 606l199 8l-86 -614h-198zM218 807q51 0 73.5 -16t22.5 -46q0 -86 -117 -86q-49 0 -72 13t-23 45q0 44 28 67t88 23z" />
    <glyph glyph-name="Ldot.latn_CAT" horiz-adv-x="565" 
d="M524 170l-28 -170h-491l105 750h212l-82 -580h284zM462 496q44 0 63.5 -17t19.5 -50q0 -48 -26.5 -76t-80.5 -28q-44 0 -64.5 14.5t-20.5 48.5q0 53 26.5 80.5t82.5 27.5z" />
    <glyph glyph-name="ldot.latn_CAT" horiz-adv-x="459" 
d="M5 0l108 774l196 9l-110 -783h-194zM396 488q40 0 58 -16t18 -46q0 -44 -23.5 -69.5t-74.5 -25.5q-40 0 -58.5 13t-18.5 45q0 48 24 73.5t75 25.5z" />
    <glyph glyph-name="dollar.subs" horiz-adv-x="345" 
d="M252 302l-18 -72q33 -5 63 -15l-27 -92q-29 7 -50.5 11.5t-45.5 4.5q-35 0 -46 -7.5t-11 -18.5q0 -8 12 -12.5t29.5 -8.5t38.5 -9.5t38.5 -16t29.5 -28t12 -45.5q0 -53 -33 -90.5t-90 -48.5l-14 -62h-99l13 60q-25 3 -47.5 9t-42.5 17l29 95q29 -16 53.5 -23.5t56.5 -7.5
q26 0 39 6t15 17q0 9 -12 14t-30 9.5t-38.5 10.5t-38.5 17t-30 28.5t-12 45.5q0 24 8 47.5t25 42.5t43.5 33t63.5 19l17 70h99z" />
    <glyph glyph-name="comma.subs" horiz-adv-x="182" 
d="M31 -46q32 0 46.5 -14.5t14.5 -37.5q0 -15 -7.5 -34.5t-19.5 -39t-27 -37.5t-30 -31l-44 11q9 14 18.5 31.5t17.5 33.5q-22 2 -32.5 15t-10.5 31q0 13 4 25.5t13 23t23 17t34 6.5z" />
    <glyph glyph-name="period.subs" horiz-adv-x="182" 
d="M36 -43q32 0 46.5 -12.5t14.5 -35.5q0 -73 -78 -73q-32 0 -47.5 9.5t-15.5 33.5q0 38 19 58t61 20z" />
    <glyph glyph-name="cent.subs" horiz-adv-x="345" 
d="M284 121q-14 4 -31.5 7t-33.5 3q-58 0 -82 -24.5t-24 -82.5q0 -35 20.5 -51.5t57.5 -16.5q20 0 39 4t36 9l-3 -88q-30 -17 -74 -21l-15 -69h-102l16 73q-110 24 -110 142q0 91 46 151.5t138 72.5l18 72h102l-19 -74q12 -2 22.5 -5t19.5 -6z" />
    <glyph glyph-name="dollar.sups" horiz-adv-x="345" 
d="M341 944l-18 -72q33 -5 63 -15l-27 -92q-29 7 -50.5 11.5t-45.5 4.5q-35 0 -46 -7.5t-11 -18.5q0 -8 12 -12.5t29.5 -8.5t38.5 -9.5t38.5 -16t29.5 -28t12 -45.5q0 -53 -33 -90.5t-90 -48.5l-14 -62h-99l13 60q-25 3 -47.5 9t-42.5 17l29 95q29 -16 53.5 -23.5t56.5 -7.5
q26 0 39 6t15 17q0 9 -12 14t-30 9.5t-38.5 10.5t-38.5 17t-30 28.5t-12 45.5q0 24 8 47.5t25 42.5t43.5 33t63.5 19l17 70h99z" />
    <glyph glyph-name="comma.sups" horiz-adv-x="182" 
d="M120 596q32 0 46.5 -14.5t14.5 -37.5q0 -15 -7.5 -34.5t-19.5 -39t-27 -37.5t-30 -31l-44 11q9 14 18.5 31.5t17.5 33.5q-22 2 -32.5 15t-10.5 31q0 13 4 25.5t13 23t23 17t34 6.5z" />
    <glyph glyph-name="period.sups" horiz-adv-x="182" 
d="M125 599q32 0 46.5 -12.5t14.5 -35.5q0 -73 -78 -73q-32 0 -47.5 9.5t-15.5 33.5q0 38 19 58t61 20z" />
    <glyph glyph-name="cent.sups" horiz-adv-x="345" 
d="M373 763q-14 4 -31.5 7t-33.5 3q-58 0 -82 -24.5t-24 -82.5q0 -35 20.5 -51.5t57.5 -16.5q20 0 39 4t36 9l-3 -88q-30 -17 -74 -21l-15 -69h-102l16 73q-110 24 -110 142q0 91 46 151.5t138 72.5l18 72h102l-19 -74q12 -2 22.5 -5t19.5 -6z" />
    <glyph glyph-name="dollar.numr" horiz-adv-x="345" 
d="M323 814l-18 -72q33 -5 63 -15l-27 -92q-29 7 -50.5 11.5t-45.5 4.5q-35 0 -46 -7.5t-11 -18.5q0 -8 12 -12.5t29.5 -8.5t38.5 -9.5t38.5 -16t29.5 -28t12 -45.5q0 -53 -33 -90.5t-90 -48.5l-14 -62h-99l13 60q-25 3 -47.5 9t-42.5 17l29 95q29 -16 53.5 -23.5t56.5 -7.5
q26 0 39 6t15 17q0 9 -12 14t-30 9.5t-38.5 10.5t-38.5 17t-30 28.5t-12 45.5q0 24 8 47.5t25 42.5t43.5 33t63.5 19l17 70h99z" />
    <glyph glyph-name="parenleft.numr" horiz-adv-x="227" 
d="M289 771q-50 -61 -77 -140t-27 -162q0 -46 9 -87.5t29 -77.5l-86 -9q-35 35 -51.5 81.5t-16.5 100.5q0 89 35 169t101 133z" />
    <glyph glyph-name="parenright.numr" horiz-adv-x="227" 
d="M141 779q34 -35 50 -81t16 -100q0 -88 -34 -168.5t-100 -134.5l-85 9q50 62 76.5 141t26.5 162q0 45 -9 87t-29 77z" />
    <glyph glyph-name="plus.numr" horiz-adv-x="394" 
d="M279 500v-102h-111v102h-102v109h102v103h111v-103h102v-109h-102z" />
    <glyph glyph-name="comma.numr" horiz-adv-x="182" 
d="M102 466q32 0 46.5 -14.5t14.5 -37.5q0 -15 -7.5 -34.5t-19.5 -39t-27 -37.5t-30 -31l-44 11q9 14 18.5 31.5t17.5 33.5q-22 2 -32.5 15t-10.5 31q0 13 4 25.5t13 23t23 17t34 6.5z" />
    <glyph glyph-name="period.numr" horiz-adv-x="182" 
d="M107 469q32 0 46.5 -12.5t14.5 -35.5q0 -73 -78 -73q-32 0 -47.5 9.5t-15.5 33.5q0 38 19 58t61 20z" />
    <glyph glyph-name="zero.numr" horiz-adv-x="394" 
d="M253 755q79 0 116.5 -35t37.5 -110q0 -14 -1.5 -28.5t-3.5 -30.5q-14 -100 -63.5 -150t-142.5 -50q-81 0 -117.5 36t-36.5 109q0 13 1 26.5t3 28.5q15 106 64 155t143 49zM239 656q-13 0 -23 -4t-18 -15.5t-14 -31.5t-10 -53q-2 -16 -3 -28.5t-1 -22.5q0 -32 10 -42
t30 -10q12 0 21.5 4t17.5 15t13.5 31t10.5 53q2 16 3 28t1 23q0 32 -10 42.5t-28 10.5z" />
    <glyph glyph-name="one.numr" horiz-adv-x="293" 
d="M246 356h-130l29 208q2 10 3.5 20t3.5 20l-2 2q-8 -5 -18 -10l-18 -9l-46 -22l3 105l147 81h83z" />
    <glyph glyph-name="two.numr" horiz-adv-x="386" 
d="M252 755q75 0 109.5 -29.5t34.5 -73.5q0 -32 -13 -57.5t-36.5 -48t-56 -43.5t-71.5 -43v-3h148l-16 -101h-313l11 80q46 35 84 62.5t65 50t42 41t15 35.5q0 13 -10.5 21t-36.5 8q-28 0 -54.5 -9t-57.5 -25l-17 95q38 19 81 29.5t92 10.5z" />
    <glyph glyph-name="three.numr" horiz-adv-x="386" 
d="M241 755q76 0 115.5 -26.5t39.5 -73.5q0 -34 -17 -58t-49 -38v-2q24 -10 37.5 -26.5t13.5 -41.5q0 -65 -51 -101.5t-150 -36.5q-42 0 -79 8.5t-63 24.5l40 89q26 -13 54 -20.5t60 -7.5q64 0 64 40q0 16 -19 23t-79 7l12 83q33 0 53.5 2.5t31.5 7t14.5 11.5t3.5 15
q0 11 -11 18t-40 7q-35 0 -64 -7.5t-58 -24.5l-17 87q32 20 74 30.5t84 10.5z" />
    <glyph glyph-name="four.numr" horiz-adv-x="394" 
d="M356 421l-9 -65h-121l9 65h-205v70l216 259h156l-33 -235h36l-15 -94h-34zM267 601q3 21 9 40l-3 1q-5 -8 -11 -16t-13 -17l-49 -63q-12 -15 -26 -29l1 -2h77z" />
    <glyph glyph-name="five.numr" horiz-adv-x="394" 
d="M386 649h-176l-9 -43q22 3 49 3q66 0 101.5 -25t35.5 -73q0 -35 -12 -64t-36.5 -50.5t-61.5 -33.5t-87 -12q-39 0 -77 6t-70 21l32 93q32 -13 57.5 -19t60.5 -6q36 0 50 11t14 31q0 14 -12 22t-40 8q-23 0 -47 -2t-44 -5l-42 37l51 202h274z" />
    <glyph glyph-name="six.numr" horiz-adv-x="394" 
d="M379 643q-22 7 -42 10t-47 3q-45 0 -69.5 -14t-35.5 -40l1 -1q34 14 74 14q134 0 134 -98q0 -42 -14 -73t-39.5 -51.5t-60.5 -31t-77 -10.5q-78 0 -119.5 37t-41.5 114q0 58 17 105t48.5 80t77 51t102.5 18q66 0 113 -17zM226 531q-9 0 -26 -3.5t-24 -11.5
q-1 -7 -1.5 -13t-0.5 -12q0 -25 10 -35.5t33 -10.5q20 0 34 14t14 44q0 14 -8.5 21t-30.5 7z" />
    <glyph glyph-name="seven.numr" horiz-adv-x="394" 
d="M411 645l-197 -289h-151l188 253q6 8 12 15t13 15l-1 2h-216l22 109h345z" />
    <glyph glyph-name="eight.numr" horiz-adv-x="394" 
d="M196 350q-85 0 -124 27t-39 77q0 28 13.5 57t51.5 49v2q-24 21 -24 63q0 60 43.5 95.5t135.5 35.5q79 0 113 -26t34 -68q0 -30 -13 -53.5t-36 -39.5v-2q19 -11 31 -28.5t12 -45.5q0 -69 -52 -106t-146 -37zM190 513q-14 -9 -22 -19.5t-8 -23.5q0 -29 51 -29q20 0 35.5 6
t15.5 21q0 19 -19.5 27.5t-52.5 17.5zM240 667q-20 0 -32 -7t-12 -21q0 -17 16 -24t45 -13q11 8 17 16.5t6 21.5t-9 20t-31 7z" />
    <glyph glyph-name="nine.numr" horiz-adv-x="394" 
d="M247 756q81 0 119 -36.5t38 -106.5q0 -22 -3 -46q-16 -111 -73 -163.5t-160 -52.5q-45 0 -72 5.5t-52 14.5l32 92q23 -9 45 -13.5t50 -4.5q43 0 68.5 16t36.5 54l-2 2q-34 -22 -82 -22q-74 0 -106 28t-32 73q0 33 12.5 62.5t36.5 51t60 34t84 12.5zM231 660
q-27 0 -39 -12.5t-12 -38.5q0 -15 9 -22t33 -7q19 0 33 6t20 15q1 6 1.5 10.5t0.5 9.5q0 22 -11.5 30.5t-34.5 8.5z" />
    <glyph glyph-name="equal.numr" horiz-adv-x="394" 
d="M80 582v90h289v-90h-289zM80 444v90h289v-90h-289z" />
    <glyph glyph-name="cent.numr" horiz-adv-x="345" 
d="M355 633q-14 4 -31.5 7t-33.5 3q-58 0 -82 -24.5t-24 -82.5q0 -35 20.5 -51.5t57.5 -16.5q20 0 39 4t36 9l-3 -88q-30 -17 -74 -21l-15 -69h-102l16 73q-110 24 -110 142q0 91 46 151.5t138 72.5l18 72h102l-19 -74q12 -2 22.5 -5t19.5 -6z" />
    <glyph glyph-name="minus.numr" horiz-adv-x="394" 
d="M69 508v103h302v-103h-302z" />
    <glyph glyph-name="dollar.dnom" horiz-adv-x="345" 
d="M273 458l-18 -72q33 -5 63 -15l-27 -92q-29 7 -50.5 11.5t-45.5 4.5q-35 0 -46 -7.5t-11 -18.5q0 -8 12 -12.5t29.5 -8.5t38.5 -9.5t38.5 -16t29.5 -28t12 -45.5q0 -53 -33 -90.5t-90 -48.5l-14 -62h-99l13 60q-25 3 -47.5 9t-42.5 17l29 95q29 -16 53.5 -23.5t56.5 -7.5
q26 0 39 6t15 17q0 9 -12 14t-30 9.5t-38.5 10.5t-38.5 17t-30 28.5t-12 45.5q0 24 8 47.5t25 42.5t43.5 33t63.5 19l17 70h99z" />
    <glyph glyph-name="parenleft.dnom" horiz-adv-x="227" 
d="M239 415q-50 -61 -77 -140t-27 -162q0 -46 9 -87.5t29 -77.5l-86 -9q-35 35 -51.5 81.5t-16.5 100.5q0 89 35 169t101 133z" />
    <glyph glyph-name="parenright.dnom" horiz-adv-x="227" 
d="M91 423q34 -35 50 -81t16 -100q0 -88 -34 -168.5t-100 -134.5l-85 9q50 62 76.5 141t26.5 162q0 45 -9 87t-29 77z" />
    <glyph glyph-name="plus.dnom" horiz-adv-x="394" 
d="M229 144v-102h-111v102h-102v109h102v103h111v-103h102v-109h-102z" />
    <glyph glyph-name="comma.dnom" horiz-adv-x="182" 
d="M52 110q32 0 46.5 -14.5t14.5 -37.5q0 -15 -7.5 -34.5t-19.5 -39t-27 -37.5t-30 -31l-44 11q9 14 18.5 31.5t17.5 33.5q-22 2 -32.5 15t-10.5 31q0 13 4 25.5t13 23t23 17t34 6.5z" />
    <glyph glyph-name="period.dnom" horiz-adv-x="182" 
d="M57 113q32 0 46.5 -12.5t14.5 -35.5q0 -73 -78 -73q-32 0 -47.5 9.5t-15.5 33.5q0 38 19 58t61 20z" />
    <glyph glyph-name="zero.dnom" horiz-adv-x="394" 
d="M203 399q79 0 116.5 -35t37.5 -110q0 -14 -1.5 -28.5t-3.5 -30.5q-14 -100 -63.5 -150t-142.5 -50q-81 0 -117.5 36t-36.5 109q0 13 1 26.5t3 28.5q15 106 64 155t143 49zM189 300q-13 0 -23 -4t-18 -15.5t-14 -31.5t-10 -53q-2 -16 -3 -28.5t-1 -22.5q0 -32 10 -42
t30 -10q12 0 21.5 4t17.5 15t13.5 31t10.5 53q2 16 3 28t1 23q0 32 -10 42.5t-28 10.5z" />
    <glyph glyph-name="one.dnom" horiz-adv-x="293" 
d="M196 0h-130l29 208q2 10 3.5 20t3.5 20l-2 2q-8 -5 -18 -10l-18 -9l-46 -22l3 105l147 81h83z" />
    <glyph glyph-name="two.dnom" horiz-adv-x="386" 
d="M202 399q75 0 109.5 -29.5t34.5 -73.5q0 -32 -13 -57.5t-36.5 -48t-56 -43.5t-71.5 -43v-3h148l-16 -101h-313l11 80q46 35 84 62.5t65 50t42 41t15 35.5q0 13 -10.5 21t-36.5 8q-28 0 -54.5 -9t-57.5 -25l-17 95q38 19 81 29.5t92 10.5z" />
    <glyph glyph-name="three.dnom" horiz-adv-x="386" 
d="M191 399q76 0 115.5 -26.5t39.5 -73.5q0 -34 -17 -58t-49 -38v-2q24 -10 37.5 -26.5t13.5 -41.5q0 -65 -51 -101.5t-150 -36.5q-42 0 -79 8.5t-63 24.5l40 89q26 -13 54 -20.5t60 -7.5q64 0 64 40q0 16 -19 23t-79 7l12 83q33 0 53.5 2.5t31.5 7t14.5 11.5t3.5 15
q0 11 -11 18t-40 7q-35 0 -64 -7.5t-58 -24.5l-17 87q32 20 74 30.5t84 10.5z" />
    <glyph glyph-name="four.dnom" horiz-adv-x="394" 
d="M306 65l-9 -65h-121l9 65h-205v70l216 259h156l-33 -235h36l-15 -94h-34zM217 245q3 21 9 40l-3 1q-5 -8 -11 -16t-13 -17l-49 -63q-12 -15 -26 -29l1 -2h77z" />
    <glyph glyph-name="five.dnom" horiz-adv-x="394" 
d="M336 293h-176l-9 -43q22 3 49 3q66 0 101.5 -25t35.5 -73q0 -35 -12 -64t-36.5 -50.5t-61.5 -33.5t-87 -12q-39 0 -77 6t-70 21l32 93q32 -13 57.5 -19t60.5 -6q36 0 50 11t14 31q0 14 -12 22t-40 8q-23 0 -47 -2t-44 -5l-42 37l51 202h274z" />
    <glyph glyph-name="six.dnom" horiz-adv-x="394" 
d="M329 287q-22 7 -42 10t-47 3q-45 0 -69.5 -14t-35.5 -40l1 -1q34 14 74 14q134 0 134 -98q0 -42 -14 -73t-39.5 -51.5t-60.5 -31t-77 -10.5q-78 0 -119.5 37t-41.5 114q0 58 17 105t48.5 80t77 51t102.5 18q66 0 113 -17zM176 175q-9 0 -26 -3.5t-24 -11.5
q-1 -7 -1.5 -13t-0.5 -12q0 -25 10 -35.5t33 -10.5q20 0 34 14t14 44q0 14 -8.5 21t-30.5 7z" />
    <glyph glyph-name="seven.dnom" horiz-adv-x="394" 
d="M361 289l-197 -289h-151l188 253q6 8 12 15t13 15l-1 2h-216l22 109h345z" />
    <glyph glyph-name="eight.dnom" horiz-adv-x="394" 
d="M146 -6q-85 0 -124 27t-39 77q0 28 13.5 57t51.5 49v2q-24 21 -24 63q0 60 43.5 95.5t135.5 35.5q79 0 113 -26t34 -68q0 -30 -13 -53.5t-36 -39.5v-2q19 -11 31 -28.5t12 -45.5q0 -69 -52 -106t-146 -37zM140 157q-14 -9 -22 -19.5t-8 -23.5q0 -29 51 -29q20 0 35.5 6
t15.5 21q0 19 -19.5 27.5t-52.5 17.5zM190 311q-20 0 -32 -7t-12 -21q0 -17 16 -24t45 -13q11 8 17 16.5t6 21.5t-9 20t-31 7z" />
    <glyph glyph-name="nine.dnom" horiz-adv-x="394" 
d="M197 400q81 0 119 -36.5t38 -106.5q0 -22 -3 -46q-16 -111 -73 -163.5t-160 -52.5q-45 0 -72 5.5t-52 14.5l32 92q23 -9 45 -13.5t50 -4.5q43 0 68.5 16t36.5 54l-2 2q-34 -22 -82 -22q-74 0 -106 28t-32 73q0 33 12.5 62.5t36.5 51t60 34t84 12.5zM181 304
q-27 0 -39 -12.5t-12 -38.5q0 -15 9 -22t33 -7q19 0 33 6t20 15q1 6 1.5 10.5t0.5 9.5q0 22 -11.5 30.5t-34.5 8.5z" />
    <glyph glyph-name="equal.dnom" horiz-adv-x="394" 
d="M30 226v90h289v-90h-289zM30 88v90h289v-90h-289z" />
    <glyph glyph-name="cent.dnom" horiz-adv-x="345" 
d="M305 277q-14 4 -31.5 7t-33.5 3q-58 0 -82 -24.5t-24 -82.5q0 -35 20.5 -51.5t57.5 -16.5q20 0 39 4t36 9l-3 -88q-30 -17 -74 -21l-15 -69h-102l16 73q-110 24 -110 142q0 91 46 151.5t138 72.5l18 72h102l-19 -74q12 -2 22.5 -5t19.5 -6z" />
    <glyph glyph-name="minus.dnom" horiz-adv-x="394" 
d="M19 152v103h302v-103h-302z" />
    <glyph glyph-name="numbersign.osf" 
d="M92 271l32 105h-94l17 121h111l46 152h149l-45 -152h80l45 152h146l-45 -152h61l-17 -121h-78l-31 -105h95l-17 -119h-112l-45 -152h-145l44 152h-81l-45 -152h-149l44 152h-59l17 119h76zM242 271h80l32 105h-80z" />
    <glyph glyph-name="dollar.osf" horiz-adv-x="495" 
d="M415 729l-27 -114q50 -10 89 -32l-72 -134q-25 11 -57 15.5t-65 4.5q-28 0 -42.5 -11.5t-14.5 -29.5q0 -17 16 -27.5t39.5 -19.5t51 -19.5t51 -28t39.5 -43.5t16 -66q0 -43 -11.5 -80.5t-33.5 -67t-55.5 -50t-76.5 -29.5l-26 -119h-148l26 117q-39 7 -72.5 20t-59.5 31
l58 135q34 -23 73 -34t73 -11q33 0 49.5 13t16.5 35q0 18 -16 29.5t-39.5 21.5t-51.5 22t-51.5 30t-39.5 45t-16 69q0 40 13 76t38.5 64.5t63.5 48t87 27.5l26 112h149z" />
    <glyph glyph-name="zero.osf" horiz-adv-x="613" 
d="M349 658q122 0 180 -56t58 -179q0 -23 -2 -48.5t-6 -53.5q-24 -168 -102 -249.5t-224 -81.5q-124 0 -180.5 58t-56.5 175q0 23 2 47t6 51q12 89 37 152.5t64 104.5t94.5 60.5t129.5 19.5zM328 507q-21 0 -38.5 -7t-31 -27.5t-23.5 -56.5t-18 -93q-4 -29 -6 -52t-2 -41
q0 -27 4.5 -44.5t13 -27.5t21 -13.5t28.5 -3.5q21 0 37 6.5t29 26t23.5 55.5t18.5 94q4 29 6 51.5t2 40.5q0 55 -16.5 73.5t-47.5 18.5z" />
    <glyph glyph-name="one.osf" horiz-adv-x="455" 
d="M328 0h-199l53 384q2 9 3.5 19.5t4.5 20.5l-2 2q-8 -5 -18 -10t-18 -10l-89 -44l4 158l232 128h120z" />
    <glyph glyph-name="two.osf" horiz-adv-x="570" 
d="M327 657q59 0 102 -12.5t70.5 -35t41 -53t13.5 -66.5q0 -51 -20 -93.5t-56.5 -82t-89 -78t-117.5 -80.5v-3h235l-24 -153h-485l16 118q74 59 135.5 106.5t105.5 87t68.5 73t24.5 64.5q0 23 -18 37.5t-60 14.5q-45 0 -87.5 -14.5t-88.5 -39.5l-26 142q54 31 119.5 49.5
t140.5 18.5z" />
    <glyph glyph-name="three.osf" horiz-adv-x="564" 
d="M295 659q58 0 101.5 -12.5t73 -34t44.5 -51.5t15 -66q0 -53 -24.5 -96t-68.5 -69v-2q72 -37 72 -119q0 -6 -0.5 -13t-1.5 -15q-20 -141 -141 -212.5t-327 -76.5l4 146q78 2 131 15t85 34t46 48t14 56q0 27 -20 42.5t-68 15.5q-29 0 -62 -6l8 123q50 6 82.5 13.5t52 18
t27.5 25t8 34.5q0 21 -18.5 34.5t-67.5 13.5q-51 0 -93.5 -13t-86.5 -39l-22 141q46 29 109 47t128 18z" />
    <glyph glyph-name="four.osf" horiz-adv-x="610" 
d="M487 56l-22 -157l-182 -9l23 166h-316v119l356 483l224 -13l-63 -447h63l-25 -142h-58zM378 449q3 21 9 40l-3 1q-8 -15 -22 -35l-158 -224l-12 -16q-6 -8 -12 -15l1 -2h152z" />
    <glyph glyph-name="five.osf" horiz-adv-x="560" 
d="M519 485h-272l-22 -107q35 7 81 7q97 0 152 -42t55 -122q0 -16 -3 -34q-20 -137 -140 -215.5t-335 -79.5l4 153q142 1 208 39.5t66 96.5q0 25 -20 39.5t-69 14.5q-36 0 -72 -5.5t-66 -16.5l-54 69l82 367h421z" />
    <glyph glyph-name="six.osf" horiz-adv-x="597" 
d="M514 601q-108 -2 -175 -42.5t-96 -102.5l1 -1q26 13 55 20t61 7q99 0 150 -43.5t51 -128.5q0 -21 -3 -45q-10 -71 -36 -123t-65 -86t-90 -50t-111 -16q-116 0 -178.5 60t-62.5 187q0 128 44 225t114.5 161.5t158.5 97.5t176 34zM279 147q33 0 56 27t32 90q1 5 1 9v9
q0 29 -16 43.5t-51 14.5q-19 0 -44 -9t-37 -24q-6 -45 -6 -76q0 -50 16.5 -67t48.5 -17z" />
    <glyph glyph-name="seven.osf" horiz-adv-x="570" 
d="M558 494l-333 -588h-219l324 537q5 8 10.5 16t11.5 16l-1 2h-306l35 171h500z" />
    <glyph glyph-name="eight.osf" horiz-adv-x="614" 
d="M350 657q121 0 175 -41t54 -109q0 -52 -21.5 -92t-61.5 -68v-2q32 -18 51.5 -47.5t19.5 -74.5q0 -115 -82 -175t-229 -60q-133 0 -194.5 43.5t-61.5 125.5q0 50 25 98t85 81v2q-20 18 -31.5 44t-11.5 61q0 99 69 156.5t214 57.5zM281 129q35 0 60.5 12.5t25.5 42.5
q0 28 -29 46t-89 36q-26 -15 -41 -35.5t-15 -47.5q0 -29 21.5 -41.5t66.5 -12.5zM327 518q-35 0 -54.5 -12.5t-19.5 -37.5q0 -16 7 -26.5t20 -18t31.5 -13.5t41.5 -12q47 28 47 72q0 23 -16.5 35.5t-56.5 12.5z" />
    <glyph glyph-name="nine.osf" horiz-adv-x="592" 
d="M336 658q117 0 176 -59t59 -174q0 -35 -6 -77q-17 -123 -63 -209t-112 -140t-148 -79t-171 -25l2 151q91 1 162 38t103 115l-2 2q-45 -27 -113 -27q-88 0 -141 44t-53 137q0 69 20.5 125t60 95.5t96.5 61t130 21.5zM310 503q-38 0 -61.5 -27.5t-23.5 -94.5
q0 -32 14.5 -45t49.5 -13q62 0 83 45q2 16 3 29.5t1 24.5q0 48 -17 64.5t-49 16.5z" />
    <glyph glyph-name="cent.osf" horiz-adv-x="495" 
d="M463 729l-28 -121q32 -8 64 -26l-70 -135q-17 8 -36 11.5t-42 3.5q-27 0 -49 -7.5t-39 -25.5t-29 -49t-19 -79q-2 -17 -3.5 -32t-1.5 -29q0 -29 5.5 -48.5t16 -31t25.5 -16.5t34 -5q31 0 55.5 10.5t44.5 27.5l50 -113q-56 -52 -124 -66l-25 -120h-149l26 117
q-72 14 -114.5 70.5t-42.5 162.5q0 91 20.5 160.5t57 118.5t87.5 76.5t112 34.5l26 111h148z" />
    <glyph glyph-name="sterling.osf" horiz-adv-x="587" 
d="M41 384h42q-2 11 -3.5 22.5t-1.5 23.5q0 43 17 84t55 73.5t100 52.5t152 20q56 0 96.5 -7t74.5 -18l-42 -144q-28 8 -62 13.5t-69 5.5q-40 0 -64.5 -7.5t-38 -20t-18.5 -30.5t-5 -39q0 -8 0.5 -15t1.5 -14h222l-17 -124h-193q0 -38 -18 -69.5t-47 -49.5l1 -2q39 8 81 11
t79 3q42 0 77.5 -2.5t67.5 -8.5l-29 -149q-58 7 -116 10t-118 3q-34 0 -65.5 -0.5t-63.5 -1.5t-67 -3t-75 -5l15 151q26 3 43.5 14t28 27t15 35t4.5 37h-70z" />
    <glyph glyph-name="currency.osf" 
d="M325 526q44 0 78 -17l87 75l83 -97l-83 -73q11 -30 11 -62q0 -28 -8 -55.5t-21 -51.5l58 -67l-112 -98l-55 63q-44 -21 -94 -21q-25 0 -47 5.5t-41 15.5l-73 -63l-85 97l77 67q-4 12 -5.5 25t-1.5 26q0 33 9.5 63t26.5 57l-61 72l111 97l64 -75q40 17 82 17zM309 406
q-18 0 -34.5 -7.5t-29 -20t-20 -29t-7.5 -34.5q0 -29 18.5 -48t49.5 -19q18 0 34.5 7t29 19.5t20 29t7.5 35.5q0 28 -19 47.5t-49 19.5z" />
    <glyph glyph-name="yen.osf" 
d="M153 313l-112 336h210l43 -264q2 -9 3.5 -19.5t2.5 -20.5h2q3 9 6.5 19t8.5 19l119 266h207l-205 -336h85l-11 -85h-123l-5 -35h123l-12 -84h-123l-15 -109h-208l15 109h-116l12 84h116l5 35h-116l11 85h77z" />
    <glyph glyph-name="franc.osf" 
d="M58 183l66 466h482l-19 -155h-295l-14 -99h217l-22 -146h-216l-9 -66h64l-16 -115h-64l-9 -68h-190l9 68h-53l16 115h53z" />
    <glyph glyph-name="lira.osf" 
d="M407 660q57 0 98 -7t76 -18l-42 -143q-29 8 -63.5 13.5t-70.5 5.5q-38 0 -62.5 -7t-39 -19.5t-20.5 -29.5t-6 -36h233l-11 -83h-213q1 -8 2 -16.5t1 -16.5h205l-12 -83h-200q-13 -52 -58 -79l1 -2q41 8 83.5 11.5t80.5 3.5q43 0 79 -3t69 -9l-29 -149q-59 7 -118 10
t-119 3q-34 0 -65.5 -0.5t-64 -1.5t-68 -3t-75.5 -5l14 151q36 4 59 25.5t28 47.5h-58l6 83h54q-1 8 -2 16.5t-3 16.5h-45l3 83h28q0 43 15 86.5t52.5 77.5t100 55.5t157.5 21.5z" />
    <glyph glyph-name="peseta.osf" 
d="M181 649q60 0 87.5 -23.5t27.5 -92.5q0 -19 -1.5 -41.5t-5.5 -48.5q-9 -60 -20 -99t-29.5 -61.5t-46 -31.5t-68.5 -9h-15l-34 -242h-105l91 649h119zM389 317l-28 -201q-3 -17 -3 -20q0 -13 13 -13q7 0 10 2l-10 -83q-5 -3 -17 -6t-23 -3q-32 0 -50 18.5t-18 59.5v15
q0 8 2 16l30 215h-15l12 87h20l28 86l73 11l-14 -97h37l-16 -87h-31zM536 408q17 0 30.5 -4t22.5 -10l-20 -93q-17 9 -37 9q-11 0 -17.5 -9t-6.5 -24q0 -14 8.5 -24t18.5 -23.5t18.5 -34t8.5 -55.5q0 -75 -35 -111.5t-83 -36.5q-35 0 -55 14l16 89q17 -10 40 -10q29 0 29 37
q0 14 -8.5 23.5t-19 23t-19 35.5t-8.5 61q0 27 8.5 53t24 46t37 32t47.5 12zM153 543l-29 -202h13q9 0 15 2.5t11 13t9.5 30.5t9.5 55q4 26 5.5 43.5t1.5 28.5q0 20 -5.5 24.5t-16.5 4.5h-14z" />
    <glyph glyph-name="Euro.osf" 
d="M430 659q52 0 102.5 -9t83.5 -25l-64 -141q-20 7 -44.5 11t-47.5 4q-65 0 -102.5 -16t-58.5 -53h227l-41 -88h-210q-2 -9 -3 -18l-2 -18h200l-41 -86h-157q12 -42 44.5 -60t88.5 -18q35 0 64 6.5t58 17.5l-14 -139q-33 -18 -78.5 -28.5t-105.5 -10.5q-134 0 -205.5 59
t-79.5 173h-41l13 86h31l2 18q1 9 3 18h-31l12 88h42q38 107 125 168t230 61z" />
    <glyph glyph-name="numbersign.lf" horiz-adv-x="626" 
d="M105 304l41 134h-108l18 131h127l55 181h154l-54 -181h67l54 181h151l-54 -181h72l-18 -131h-90l-41 -134h112l-18 -133h-131l-50 -171h-151l50 171h-68l-51 -171h-154l51 171h-69l18 133h87zM260 304h68l41 134h-68z" />
    <glyph glyph-name="dollar.lf" horiz-adv-x="587" 
d="M499 817l-19 -62q28 -5 53.5 -10.5t42.5 -13.5l-32 -158q-26 6 -55.5 11.5t-59.5 10.5l-46 -147q30 -12 58.5 -27.5t51.5 -37.5t37 -52.5t14 -71.5q0 -68 -22 -117.5t-62 -83t-96 -51t-124 -20.5l-27 -66l-102 8l19 65q-42 5 -79 15.5t-64 24.5l47 163q32 -17 68.5 -29.5
t73.5 -19.5l49 159q-32 13 -62.5 29t-55.5 38.5t-40 53.5t-15 73q0 121 82.5 188.5t231.5 72.5l21 64zM270 140q48 1 74 15t26 46q0 24 -15 39.5t-45 31.5zM332 602q-54 -1 -74.5 -22t-20.5 -45q0 -19 17 -31.5t43 -23.5z" />
    <glyph glyph-name="zero.lf" horiz-adv-x="621" 
d="M367 759q123 0 182 -59.5t59 -197.5q0 -29 -2.5 -61.5t-7.5 -69.5q-14 -99 -41 -171t-69 -118.5t-99 -69t-132 -22.5q-124 0 -181.5 61t-57.5 192q0 29 2.5 61t7.5 67q15 106 41 179.5t67 120t98 67.5t133 21zM345 598q-22 0 -39.5 -8t-31.5 -32t-25.5 -68.5
t-21.5 -116.5q-12 -86 -12 -132q0 -30 4.5 -48.5t13 -29t20.5 -14t28 -3.5q21 0 38 8t31 32t25 68.5t22 118.5q6 42 8.5 74t2.5 56q0 30 -4 48.5t-12 29t-20 14t-27 3.5z" />
    <glyph glyph-name="one.lf" horiz-adv-x="469" 
d="M349 0h-209l65 465q2 10 3.5 20t3.5 20l-2 2q-8 -6 -16.5 -11t-18.5 -10l-93 -48v169l249 143h123z" />
    <glyph glyph-name="two.lf" horiz-adv-x="604" 
d="M354 759q61 0 105.5 -13.5t73.5 -38.5t43.5 -59t14.5 -76q0 -55 -22.5 -104t-63.5 -96.5t-99 -96.5t-130 -103v-3h257l-27 -169h-508l17 126q78 69 143.5 127t113.5 107.5t75 92t27 80.5q0 27 -19.5 42.5t-62.5 15.5q-47 0 -91.5 -17t-90.5 -45l-27 153q55 35 122.5 56
t148.5 21z" />
    <glyph glyph-name="three.lf" horiz-adv-x="604" 
d="M336 759q121 0 185 -47.5t64 -132.5q0 -65 -31.5 -113t-88.5 -77v-2q43 -19 66 -50.5t23 -79.5q0 -61 -22 -110.5t-65 -84t-106 -53.5t-144 -19q-68 0 -124.5 15.5t-96.5 40.5l58 146q42 -22 85 -34t94 -12q58 0 90 27t32 77q0 16 -7 28.5t-25.5 20.5t-50.5 12.5t-81 4.5
l19 137q56 0 91.5 6.5t55 18t26.5 28.5t7 38q0 26 -20.5 40t-68.5 14q-54 0 -102 -16t-92 -45l-26 145q51 35 118.5 56t136.5 21z" />
    <glyph glyph-name="four.lf" horiz-adv-x="634" 
d="M517 133l-18 -133h-189l18 133h-322v121l354 496h244l-65 -460h66l-26 -157h-62zM397 520q3 21 9 40l-3 1q-5 -8 -11 -17.5t-11 -17.5l-138 -203q-6 -9 -12 -16t-12 -15l1 -2h137z" />
    <glyph glyph-name="five.lf" horiz-adv-x="589" 
d="M557 581h-284l-23 -108q40 6 84 6q105 0 161.5 -44.5t56.5 -132.5q0 -20 -3 -42q-9 -62 -32 -112t-63 -85t-97.5 -54t-134.5 -19q-65 0 -123.5 13.5t-106.5 42.5l57 147q43 -23 82 -34.5t93 -11.5q66 0 94 29.5t28 83.5q0 35 -23.5 50t-72.5 15q-32 0 -70 -5.5t-70 -15.5
l-60 71l83 375h441z" />
    <glyph glyph-name="six.lf" horiz-adv-x="616" 
d="M424 760q51 0 94 -6.5t82 -22.5l-35 -155q-34 11 -66.5 16.5t-70.5 5.5q-80 0 -123 -33t-63 -102l1 -1q29 14 61.5 22.5t68.5 8.5q104 0 158 -44.5t54 -134.5q0 -11 -1 -23t-3 -25q-10 -71 -36.5 -123t-66.5 -86t-93 -50.5t-117 -16.5q-121 0 -185.5 60t-64.5 200
q0 25 1.5 52.5t6.5 57.5q27 193 127.5 296.5t270.5 103.5zM314 350q-9 0 -21 -2.5t-24.5 -7t-23.5 -11t-18 -15.5q-6 -45 -6 -76q0 -51 16.5 -70t51.5 -19q36 0 59.5 27.5t32.5 92.5q1 6 1.5 11.5t0.5 10.5q0 29 -16.5 44t-52.5 15z" />
    <glyph glyph-name="seven.lf" horiz-adv-x="616" 
d="M617 587l-339 -587h-230l350 540q10 16 23 32l-1 2h-363l35 176h548z" />
    <glyph glyph-name="eight.lf" horiz-adv-x="622" 
d="M368 760q122 0 177.5 -45.5t55.5 -122.5q0 -62 -25.5 -110t-69.5 -81v-2q32 -20 53 -52.5t21 -84.5q0 -17 -3 -38q-17 -116 -96 -175t-221 -59q-132 0 -194 48t-62 141q0 60 27 116.5t91 95.5v2q-21 20 -33 49t-12 71q0 56 18 101.5t54 78t90.5 50t128.5 17.5zM263 312
q-29 -21 -45.5 -48t-16.5 -62t21 -49.5t64 -14.5q18 0 34.5 4t29.5 13.5t20.5 25t7.5 39.5q0 19 -9.5 32.5t-25 24t-36.5 18.5t-44 17zM346 615q-35 0 -57.5 -18.5t-22.5 -60.5q0 -32 27.5 -49t67.5 -30q27 20 42 44t15 57q0 57 -72 57z" />
    <glyph glyph-name="nine.lf" horiz-adv-x="618" 
d="M358 759q120 0 184 -65t64 -199q0 -22 -1.5 -45t-5.5 -48q-15 -108 -47 -186t-80 -128.5t-113.5 -74t-147.5 -23.5q-34 0 -61 2t-50.5 6.5t-43.5 11.5t-40 16l50 153q35 -14 69.5 -22t77.5 -8q37 0 65 9t48 27t34 45.5t24 64.5l-2 2q-29 -15 -62 -21.5t-71 -6.5
q-106 0 -156.5 50t-50.5 135q0 11 1 23t3 24q8 59 31.5 107t62.5 81.5t93 51.5t125 18zM332 601q-41 0 -66.5 -28t-25.5 -92q0 -33 16.5 -49t54.5 -16q32 0 56 11.5t36 33.5q2 15 3 28t1 24q0 51 -20 69.5t-55 18.5z" />
    <glyph glyph-name="cent.lf" horiz-adv-x="502" 
d="M468 729l-28 -122q16 -5 30.5 -11t28.5 -14l-70 -135q-17 8 -36 11.5t-42 3.5q-27 0 -49 -7.5t-39 -25.5t-29 -49t-19 -79q-2 -17 -3.5 -32t-1.5 -29q0 -29 5.5 -48.5t16 -31t25.5 -16.5t34 -5q31 0 55.5 10.5t44.5 27.5l50 -113q-55 -50 -120 -66l-26 -120h-148l25 116
q-73 14 -116.5 70.5t-43.5 163.5q0 92 20.5 162t58 118.5t89 76t113.5 34.5l26 110h149z" />
    <glyph glyph-name="sterling.lf" horiz-adv-x="617" 
d="M43 442h46q-7 27 -7 59q0 49 18 96.5t59.5 84.5t108.5 59.5t165 22.5q61 0 104.5 -8.5t78.5 -20.5l-46 -157q-29 9 -64 15t-73 6q-42 0 -69 -8.5t-42.5 -24t-21.5 -36t-6 -44.5q0 -25 4 -44h238l-19 -135h-205q-5 -54 -21.5 -91.5t-55.5 -62.5l1 -2q41 9 84.5 13t84.5 4
q46 0 83.5 -3t74.5 -9l-32 -164q-123 15 -249 15q-36 0 -70.5 -0.5t-69.5 -2t-73 -3.5t-81 -6l15 170q30 4 50 18t33 33.5t18.5 43t5.5 47.5h-78z" />
    <glyph glyph-name="currency.lf" horiz-adv-x="622" 
d="M106 365q3 25 12 48t22 44l-63 74l114 100l65 -77q42 17 85 17q42 0 78 -17l89 77l86 -100l-85 -75q11 -30 11 -63q0 -58 -31 -109l60 -69l-114 -100l-57 65q-44 -21 -95 -21q-49 0 -90 22l-75 -66l-86 100l78 69q-6 22 -6 48v16q0 9 2 17zM231 367q-1 -4 -1 -11
q0 -29 19.5 -49t50.5 -20q19 0 36 7.5t29.5 20t20 29.5t7.5 36q0 29 -19.5 49t-50.5 20q-34 0 -60.5 -23.5t-31.5 -58.5z" />
    <glyph glyph-name="yen.lf" horiz-adv-x="714" 
d="M201 375l-126 375h237l45 -329q2 -11 2.5 -21t1.5 -20h2q3 9 6.5 19t7.5 19l139 332h232l-227 -375h94l-14 -98h-137l-5 -38h137l-14 -97h-137l-19 -142h-233l19 142h-129l14 97h129l5 38h-129l14 98h85z" />
    <glyph glyph-name="franc.lf" horiz-adv-x="619" 
d="M46 210l76 540h516l-21 -169h-309l-18 -126h227l-24 -158h-225l-12 -87h66l-18 -130h-66l-11 -80h-210l11 80h-58l18 130h58z" />
    <glyph glyph-name="lira.lf" horiz-adv-x="628" 
d="M59 484h28q-1 4 -1 13q0 50 18 98t59.5 85.5t108 60.5t163.5 23q61 0 104.5 -8.5t78.5 -20.5l-45 -155q-29 9 -64.5 15t-72.5 6q-44 0 -71 -9.5t-42 -25t-20.5 -37t-5.5 -45.5h252l-14 -96h-225q1 -9 2 -17t2 -19h216l-13 -95h-209q-8 -32 -27.5 -59.5t-47.5 -44.5l1 -2
q42 9 87 13t87 4q46 0 83.5 -3t74.5 -9l-33 -164q-123 15 -249 15q-36 0 -70.5 -0.5t-69.5 -2t-73 -3.5t-81 -6l16 170q40 5 67 30.5t35 61.5h-65l7 95h60q-1 9 -2.5 18t-3.5 18h-51z" />
    <glyph glyph-name="peseta.lf" horiz-adv-x="855" 
d="M254 750q88 0 129.5 -36.5t41.5 -127.5q0 -35 -6 -80q-9 -63 -26.5 -108.5t-45 -74t-67.5 -42t-94 -13.5h-20l-37 -268h-140l105 750h160zM554 358l-33 -231q-1 -5 -1 -8v-5q0 -16 19 -16q11 0 19 4l-11 -101q-8 -4 -25 -7t-37 -3q-90 0 -90 94v16q0 8 2 16l34 241h-22
l14 100h28l34 96l98 11l-15 -107h49l-14 -100h-49zM757 463q45 0 74 -18l-24 -111q-12 6 -27.5 9.5t-29.5 3.5q-28 0 -28 -34q0 -15 12.5 -26t28 -25.5t28 -36.5t12.5 -59q0 -84 -40 -130t-111 -46q-52 0 -82 18l23 106q14 -8 30 -11.5t30 -3.5q15 0 24 9.5t9 27.5t-13 29
t-28 24.5t-28 34.5t-13 60q0 36 10 68.5t29.5 57t48 39t65.5 14.5zM214 616l-31 -221h21q15 0 25 3t17.5 14t13 33t10.5 60q3 23 5 40.5t2 28.5q0 27 -9.5 34.5t-31.5 7.5h-22z" />
    <glyph glyph-name="Euro.lf" horiz-adv-x="593" 
d="M440 256h-161q8 -66 43 -92t93 -26q28 0 56 7t54 18l-5 -137q-73 -35 -177 -35q-129 0 -195.5 64.5t-71.5 200.5h-76l14 94h67q1 9 2 18.5t3 18.5h-67l14 98h76q21 62 54 111.5t77.5 84.5t99.5 54t118 19q51 0 90.5 -6.5t70.5 -20.5l-57 -145q-18 7 -37.5 10.5t-43.5 3.5
q-63 0 -103.5 -27t-63.5 -84h213l-36 -98h-204q-2 -9 -3 -18.5t-2 -18.5h193z" />
    <glyph glyph-name="numbersign.tosf" 
d="M92 271l32 105h-94l18 125h113l43 148h149l-44 -148h80l44 148h146l-44 -148h61l-18 -125h-79l-31 -105h96l-18 -126h-114l-42 -145h-145l42 145h-81l-43 -145h-149l43 145h-59l18 126h76zM242 271h80l32 105h-80z" />
    <glyph glyph-name="dollar.tosf" 
d="M530 430q-45 17 -94.5 25t-94.5 8q-40 0 -57 -9.5t-17 -27.5q0 -16 20.5 -24t51 -15t66 -15.5t66 -25t51 -44t20.5 -72.5q0 -100 -62 -160t-170 -76l-28 -120h-160l27 118q-42 5 -77 13.5t-67 24.5l47 157q22 -12 49 -21t55 -15t54.5 -8.5t47.5 -2.5q38 0 56 13t18 32
q0 16 -20.5 24.5t-51.5 15.5t-67.5 16t-67.5 26.5t-51.5 46.5t-20.5 76q0 89 56.5 149t169.5 77l30 122h160l-30 -121q35 -5 67.5 -12.5t62.5 -18.5z" />
    <glyph glyph-name="zero.tosf" 
d="M345 658q123 0 180.5 -55.5t57.5 -178.5q0 -23 -2 -48.5t-6 -54.5q-24 -168 -102 -249.5t-224 -81.5q-124 0 -181 57.5t-57 175.5q0 23 2 47.5t6 50.5q12 89 37 152.5t64.5 104.5t95 60.5t129.5 19.5zM324 507q-21 0 -38.5 -7t-31 -27.5t-23.5 -56.5t-18 -93
q-4 -29 -6 -52.5t-2 -41.5q0 -28 4.5 -45t13 -26.5t21 -13t28.5 -3.5q21 0 37 6.5t29 26t23.5 55t18.5 94.5q4 29 6 52t2 42q0 28 -4.5 45.5t-12.5 27.5t-20 13.5t-27 3.5z" />
    <glyph glyph-name="one.tosf" 
d="M83 107h116l39 277q2 10 3.5 20t3.5 20l-2 2q-8 -5 -18 -10.5t-18 -9.5l-105 -51l5 160l246 133h121l-76 -541h117l-15 -107h-432z" />
    <glyph glyph-name="two.tosf" 
d="M343 657q59 0 102 -12.5t70.5 -35t41 -53.5t13.5 -68q0 -51 -20 -94t-57.5 -82.5t-91.5 -78.5t-122 -82v-3h242l-23 -148h-485l16 118q75 60 136.5 107.5t105.5 87.5t68 73.5t24 65.5q0 23 -18.5 36t-59.5 13q-45 0 -87.5 -14.5t-88.5 -39.5l-27 142q54 31 120 49.5
t141 18.5z" />
    <glyph glyph-name="three.tosf" 
d="M320 659q58 0 101.5 -12.5t72.5 -34t44 -51.5t15 -66q0 -53 -24.5 -96t-68.5 -69v-2q72 -37 72 -119q0 -53 -23 -108.5t-77.5 -101.5t-144.5 -75.5t-225 -31.5l4 146q78 2 131 15t85 34t46 48t14 56q0 27 -20 42.5t-68 15.5q-29 0 -62 -6l8 123q51 6 84 14t52.5 19
t27 25.5t7.5 33.5q0 20 -18.5 33.5t-67.5 13.5q-51 0 -94 -13t-87 -39l-22 141q48 30 111.5 47.5t126.5 17.5z" />
    <glyph glyph-name="four.tosf" 
d="M504 198h63l-25 -142h-58l-22 -157l-182 -9l23 166h-316v119l356 483l224 -13zM375 449q3 21 9 40l-3 1q-5 -8 -11 -17.5t-11 -17.5l-158 -224l-12 -16q-6 -8 -12 -15l1 -2h152z" />
    <glyph glyph-name="five.tosf" 
d="M539 485h-271l-22 -107q19 3 38.5 5t40.5 2q98 0 153 -42t55 -122q0 -16 -3 -34q-20 -137 -140 -215.5t-335 -79.5l4 153q141 1 208 39t67 95q0 25 -22 38.5t-71 13.5q-34 0 -69.5 -5.5t-64.5 -16.5l-55 73l82 367h421z" />
    <glyph glyph-name="six.tosf" 
d="M365 482q99 0 150 -43.5t51 -128.5q0 -21 -3 -45q-10 -71 -36 -123t-65 -86t-90 -50t-111 -16q-116 0 -179 60t-63 187q0 128 44 225t114.5 161.5t158.5 97.5t176 34l7 -154q-55 -1 -99 -12.5t-78.5 -31.5t-58.5 -47t-38 -58l1 -1q27 14 56.5 22.5t62.5 8.5zM306 340
q-19 0 -44 -9t-38 -25q-6 -45 -6 -75q0 -50 16 -67t49 -17q34 0 56.5 26.5t31.5 90.5q1 5 1 9v10q0 28 -15.5 42.5t-50.5 14.5z" />
    <glyph glyph-name="seven.tosf" 
d="M576 494l-332 -588h-219l322 536q5 8 10.5 16t11.5 16l-1 2h-306l36 172h500z" />
    <glyph glyph-name="eight.tosf" 
d="M345 657q122 0 176 -40.5t54 -109.5q0 -52 -21.5 -92t-61.5 -68v-2q32 -18 51.5 -47.5t19.5 -74.5q0 -115 -81.5 -175t-230.5 -60q-132 0 -194 43.5t-62 125.5q0 50 25 98t86 81v2q-20 18 -31.5 44t-11.5 61q0 99 69 156.5t213 57.5zM245 266q-26 -15 -41 -35.5
t-15 -47.5q0 -29 21 -41.5t66 -12.5q35 0 61 12.5t26 42.5q0 18 -8 29.5t-23 20.5t-37 16.5t-50 15.5zM323 518q-35 0 -55 -12.5t-20 -37.5q0 -31 26.5 -44t74.5 -26q22 14 34.5 31.5t12.5 40.5t-16.5 35.5t-56.5 12.5z" />
    <glyph glyph-name="nine.tosf" 
d="M338 657q235 0 235 -232q0 -35 -6 -77q-17 -123 -63 -209t-112 -140t-148 -79t-171 -25l2 151q45 1 86.5 10.5t76.5 29t62 48.5t43 68l-2 2q-47 -25 -114 -25q-44 0 -80.5 11t-62 33.5t-39.5 56t-14 79.5q0 69 21 124t61 93.5t96.5 59.5t128.5 21zM312 500
q-38 0 -61.5 -26.5t-23.5 -92.5q0 -32 14.5 -45.5t49.5 -13.5q62 0 83 46q2 17 3.5 30.5t1.5 24.5q0 45 -17 61t-50 16z" />
    <glyph glyph-name="cent.tosf" 
d="M535 739l-29 -126q23 -3 43.5 -8t37.5 -11l-33 -159q-27 8 -58 13.5t-59 5.5q-45 0 -76.5 -7.5t-52.5 -25t-33 -46t-18 -70.5q-3 -18 -3 -34q0 -33 10.5 -56.5t29 -37.5t44.5 -20.5t57 -6.5q34 0 65.5 6t60.5 16l-7 -146q-51 -28 -135 -35l-27 -119h-156l28 126
q-92 20 -138 80t-46 158q0 79 19.5 144.5t58.5 115t97 80.5t135 40l29 123h156z" />
    <glyph glyph-name="sterling.tosf" 
d="M45 385h41q-5 25 -5 45q0 42 17 83.5t55.5 74t101 52.5t153.5 20q57 0 98 -7t76 -18l-43 -144q-28 8 -63 13.5t-70 5.5q-40 0 -65 -7t-39 -19.5t-19 -30t-5 -38.5q0 -15 3 -30h226l-18 -125h-197q0 -38 -18.5 -69.5t-48.5 -49.5l1 -2q41 8 83.5 11.5t80.5 3.5q43 0 79 -3
t69 -9l-30 -149q-58 7 -117 10t-119 3q-34 0 -66 -0.5t-64.5 -1.5t-67.5 -3t-76 -5l15 151q51 7 71.5 38.5t20.5 74.5h-71z" />
    <glyph glyph-name="currency.tosf" 
d="M325 526q44 0 78 -17l87 75l83 -97l-83 -73q11 -30 11 -62q0 -28 -8 -55.5t-21 -51.5l58 -67l-112 -98l-55 63q-44 -21 -94 -21q-25 0 -47 5.5t-41 15.5l-73 -63l-85 97l77 67q-4 12 -5.5 25t-1.5 26q0 33 9.5 63t26.5 57l-61 72l111 97l64 -75q40 17 82 17zM309 406
q-18 0 -34 -7.5t-29 -20t-20.5 -29t-7.5 -34.5q0 -29 19 -48t49 -19q18 0 34.5 7.5t29 20t20 29t7.5 34.5q0 28 -19 47.5t-49 19.5z" />
    <glyph glyph-name="yen.tosf" 
d="M153 313l-112 336h210l43 -264q2 -10 3.5 -20t2.5 -20h2q3 9 6.5 19t8.5 19l119 266h207l-205 -336h85l-11 -85h-123l-5 -35h123l-12 -84h-123l-15 -109h-208l15 109h-116l12 84h116l5 35h-116l11 85h77z" />
    <glyph glyph-name="uni2007.tosf" 
 />
    <glyph glyph-name="franc.tosf" 
d="M58 183l66 466h482l-19 -155h-295l-14 -99h217l-22 -146h-216l-9 -66h64l-16 -115h-64l-9 -68h-190l9 68h-53l16 115h53z" />
    <glyph glyph-name="lira.tosf" 
d="M54 419h28q0 43 15 86.5t52.5 77.5t100 55.5t157.5 21.5q57 0 98 -7t76 -18l-42 -143q-29 8 -63.5 13.5t-70.5 5.5q-38 0 -62.5 -7.5t-39 -20t-20.5 -29.5t-6 -35h233l-11 -84h-213q1 -7 1.5 -15t0.5 -16h206l-12 -84h-201q-13 -53 -58 -79l1 -2q41 8 84 11.5t81 3.5
q43 0 79 -3t69 -9l-29 -149q-59 7 -118 10t-119 3q-34 0 -65.5 -0.5t-64 -1.5t-68 -3t-75.5 -5l14 151q36 4 59 25.5t28 47.5h-58l6 84h54q-1 8 -1.5 15.5t-2.5 15.5h-46z" />
    <glyph glyph-name="peseta.tosf" 
d="M330 649q126 0 181.5 -43.5t55.5 -133.5v-12h41l-12 -85h-41q-23 -86 -91.5 -132.5t-197.5 -46.5h-57l-27 -196h-183l52 375h-31l12 85h31l27 189h240zM254 513l-8 -53h132q-1 31 -16.5 42t-51.5 11h-56zM283 325q34 0 53 9t30 41h-132l-7 -50h56z" />
    <glyph glyph-name="Euro.tosf" 
d="M552 484q-20 7 -44.5 11t-47.5 4q-62 0 -100.5 -16.5t-59.5 -52.5h226l-42 -89h-210q-2 -8 -2.5 -17t-1.5 -18h201l-42 -87h-153q14 -41 47 -59t82 -18q35 0 64 6.5t58 18.5l-14 -140q-33 -18 -78.5 -28.5t-105.5 -10.5q-134 0 -205.5 58.5t-79.5 172.5h-41l13 87h31
q1 9 1.5 18t2.5 17h-31l13 89h42q38 107 125 168t230 61q52 0 102.5 -9t83.5 -25z" />
    <glyph glyph-name="f_i.sc" horiz-adv-x="865" 
d="M265 492l-15 -105h238l-23 -148h-236l-33 -239h-194l91 649h475l-19 -157h-284zM650 649h199l-91 -649h-199z" />
    <glyph glyph-name="f_l.sc" horiz-adv-x="1073" 
d="M265 492l-15 -105h238l-23 -148h-236l-33 -239h-194l91 649h475l-19 -157h-284zM1030 156l-25 -156h-451l91 649h195l-70 -493h260z" />
    <glyph glyph-name="exclam.sc" horiz-adv-x="287" 
d="M51 199l36 450h194l-88 -450h-142zM116 148q45 0 65 -16.5t20 -47.5q0 -43 -26 -69t-81 -26q-44 0 -65 14t-21 46q0 48 26.5 73.5t81.5 25.5z" />
    <glyph glyph-name="ampersand.sc" horiz-adv-x="673" 
d="M634 355q-8 -34 -30.5 -79t-57.5 -91q43 -26 93 -42l-86 -151q-33 13 -67 30.5t-67 40.5q-49 -34 -107 -55t-126 -21q-54 0 -90.5 13.5t-59.5 35.5t-33 51t-10 60q0 38 11.5 69t31 57t45 47t53.5 39q-17 31 -26.5 60t-9.5 55q0 37 13.5 70.5t42 59t73.5 40.5t108 15
q42 0 77 -9t60 -25t39 -39t14 -51q0 -33 -15.5 -61t-41 -51.5t-57 -44.5t-64.5 -40q17 -20 38 -39t44 -37q17 23 29.5 46.5t21.5 46.5h154zM235 129q36 0 74 19q-26 23 -49.5 47t-44.5 49q-15 -16 -24.5 -34.5t-9.5 -38.5q0 -22 14.5 -32t39.5 -10zM314 534
q-21 0 -34.5 -12.5t-13.5 -38.5q0 -21 12 -46q29 17 47 34t18 37q0 14 -9 20t-20 6z" />
    <glyph glyph-name="question.sc" horiz-adv-x="469" 
d="M264 657q103 0 153.5 -40t50.5 -107q0 -40 -13.5 -73.5t-37.5 -62t-56.5 -51t-71.5 -40.5l-18 -83h-140l9 144q58 25 97 53t39 66q0 40 -60 40q-72 0 -127 -43l-44 134q19 14 44 25.5t53.5 20t59.5 13t62 4.5zM192 148q45 0 65 -16.5t20 -47.5q0 -43 -26 -69t-81 -26
q-45 0 -65.5 14t-20.5 46q0 47 26 73t82 26z" />
    <glyph glyph-name="grave.sc" horiz-adv-x="409" 
d="M219 681l-110 126h213l39 -126h-142z" />
    <glyph glyph-name="a.sc" horiz-adv-x="689" 
d="M407 113h-206l-47 -113h-207l321 649h230l144 -649h-219zM357 485q-3 -9 -6.5 -18t-8.5 -20l-81 -191h127l-25 188q-2 11 -2.5 20.5t-1.5 20.5h-2z" />
    <glyph glyph-name="b.sc" horiz-adv-x="627" 
d="M390 649q109 0 161.5 -39.5t52.5 -105.5q0 -63 -31 -102.5t-78 -58.5v-2q92 -29 92 -121q0 -101 -72 -160.5t-216 -59.5h-297l91 649h297zM208 144h113q37 0 54.5 15.5t17.5 62.5q0 22 -12.5 32t-44.5 10h-111zM243 391h105q33 0 49 16t16 56q0 22 -12 30.5t-38 8.5h-104
z" />
    <glyph glyph-name="c.sc" horiz-adv-x="538" 
d="M396 661q41 0 83 -7.5t73 -18.5l-40 -151q-26 9 -58 15t-70 6q-42 0 -70 -9t-46 -30t-29 -55t-18 -85q-6 -45 -6 -77q0 -31 6.5 -51.5t20.5 -33t37 -18t56 -5.5q35 0 69 7t65 19l-1 -142q-39 -17 -87.5 -27t-93.5 -10q-276 0 -276 259q0 36 6 80q11 79 39.5 141t75 105
t112.5 65.5t152 22.5z" />
    <glyph glyph-name="d.sc" horiz-adv-x="661" 
d="M365 649q144 0 210 -58.5t66 -178.5q0 -20 -2 -41.5t-5 -44.5q-12 -86 -41 -148t-74 -101.5t-106 -58t-137 -18.5h-274l91 649h272zM217 156h75q33 0 55.5 6t38 24.5t26 52t18.5 89.5q6 43 6 74q0 54 -22.5 72t-72.5 18h-76z" />
    <glyph glyph-name="e.sc" horiz-adv-x="566" 
d="M514 152l-25 -152h-487l91 649h475l-19 -153h-284l-14 -98h235l-19 -137h-235l-15 -109h297z" />
    <glyph glyph-name="f.sc" horiz-adv-x="552" 
d="M265 492l-15 -105h238l-23 -148h-236l-33 -239h-194l91 649h475l-19 -157h-284z" />
    <glyph glyph-name="g.sc" 
d="M407 661q50 0 101 -7.5t90 -21.5l-39 -155q-36 12 -79.5 19t-83.5 7q-47 0 -77 -8.5t-49.5 -29.5t-30 -55t-17.5 -85q-3 -24 -5 -43.5t-2 -36.5q0 -59 25 -80t83 -21q22 0 42 3l29 203h173l-46 -327q-42 -17 -100 -26t-113 -9q-80 0 -136 16.5t-92 49t-52.5 79.5
t-16.5 108q0 39 6 83q12 82 40 144.5t75.5 105.5t115.5 65t159 22z" />
    <glyph glyph-name="h.sc" horiz-adv-x="676" 
d="M379 0l34 249h-183l-34 -249h-194l91 649h194l-35 -244h183l35 244h195l-91 -649h-195z" />
    <glyph glyph-name="i.sc" horiz-adv-x="313" 
d="M98 649h199l-91 -649h-199z" />
    <glyph glyph-name="j.sc" horiz-adv-x="447" 
d="M385 242q-10 -68 -34 -116.5t-60.5 -79t-85 -44.5t-107.5 -14q-81 0 -129 24l31 147q15 -8 37 -13t43 -5q28 0 46.5 5.5t30.5 17t18.5 30.5t10.5 46l58 409h198z" />
    <glyph glyph-name="k.sc" horiz-adv-x="672" 
d="M385 0l-103 259h-50l-36 -259h-194l91 649h194l-35 -246h52l176 246h221l-230 -307l148 -342h-234z" />
    <glyph glyph-name="l.sc" horiz-adv-x="521" 
d="M478 156l-25 -156h-451l91 649h195l-70 -493h260z" />
    <glyph glyph-name="m.sc" horiz-adv-x="852" 
d="M305 649l96 -353q6 -20 9 -40h2q5 8 9.5 17.5t9.5 18.5l199 357h211l-91 -649h-178l46 331q2 10 4 20.5t5 20.5l-2 1l-189 -373h-126l-84 364h-2q-1 -10 -1.5 -20.5t-2.5 -20.5l-45 -323h-173l91 649h212z" />
    <glyph glyph-name="n.sc" horiz-adv-x="682" 
d="M424 0l-201 355l-2 -1q0 -22 -3 -41l-44 -313h-172l91 649h160l199 -342l2 1q0 20 3 40l42 301h172l-91 -649h-156z" />
    <glyph glyph-name="o.sc" horiz-adv-x="675" 
d="M380 659q144 0 209.5 -61.5t65.5 -186.5q0 -20 -2 -42t-5 -45q-24 -170 -110 -253t-252 -83q-143 0 -209 63t-66 188q0 40 6 85q12 84 39 146.5t71 104.5t107 63t146 21zM359 506q-32 0 -54 -8t-38 -28.5t-26.5 -55.5t-18.5 -90q-4 -25 -5.5 -46t-1.5 -38
q0 -58 21.5 -78.5t70.5 -20.5q31 0 53.5 8t38.5 29t26 56.5t18 89.5q4 27 6 48.5t2 39.5q0 55 -21.5 74.5t-70.5 19.5z" />
    <glyph glyph-name="p.sc" horiz-adv-x="617" 
d="M350 649q135 0 196 -46t61 -138q0 -63 -18.5 -114t-57.5 -87t-100 -55.5t-146 -19.5h-63l-26 -189h-194l91 649h257zM242 330h63q23 0 39.5 3t28 12t18.5 25.5t11 44.5q3 18 3 32q0 33 -17 44.5t-59 11.5h-63z" />
    <glyph glyph-name="q.sc" horiz-adv-x="679" 
d="M382 659q144 0 209.5 -61.5t65.5 -186.5q0 -20 -2 -42t-5 -45q-17 -120 -63 -195.5t-128 -110.5l92 -109l-228 -28l-59 108q-130 5 -190.5 68t-60.5 182q0 40 6 85q12 84 39 146.5t71 104.5t107 63t146 21zM361 506q-32 0 -54 -8t-38 -28.5t-26.5 -55.5t-18.5 -90
q-4 -25 -5.5 -46t-1.5 -38q0 -58 21.5 -78.5t70.5 -20.5q31 0 53.5 8t38.5 29t26 56.5t18 89.5q4 27 6 48.5t2 39.5q0 55 -21.5 74.5t-70.5 19.5z" />
    <glyph glyph-name="r.sc" horiz-adv-x="639" 
d="M358 649q250 0 250 -173q0 -39 -9.5 -74t-26.5 -63.5t-41 -49t-53 -31.5l112 -258h-228l-69 220h-67l-30 -220h-194l91 649h265zM245 351h70q21 0 37 4t27.5 15.5t17 32t5.5 53.5q0 29 -14.5 39.5t-49.5 10.5h-71z" />
    <glyph glyph-name="s.sc" horiz-adv-x="538" 
d="M337 660q50 0 103 -8.5t92 -25.5l-41 -145q-45 13 -87.5 20t-79.5 7q-54 0 -72.5 -14.5t-18.5 -35.5q0 -17 19.5 -27.5t49 -20.5t64 -22t64 -31.5t49 -49.5t19.5 -76q0 -55 -22.5 -100t-62 -76.5t-94.5 -49t-120 -17.5q-60 0 -114.5 12.5t-97.5 35.5l44 151
q44 -23 90.5 -35.5t97.5 -12.5q89 0 89 52q0 17 -19.5 27.5t-49 20.5t-64 22.5t-64 32.5t-49 50t-19.5 76q0 49 17.5 92.5t53.5 76.5t91.5 52t131.5 19z" />
    <glyph glyph-name="t.sc" horiz-adv-x="556" 
d="M396 495l-69 -495h-198l69 495h-170l25 154h530l-18 -154h-169z" />
    <glyph glyph-name="u.sc" horiz-adv-x="665" 
d="M602 239q-17 -125 -96.5 -188t-223.5 -63q-130 0 -194 50.5t-64 150.5q0 12 1 24t3 26l58 410h195l-58 -414q-1 -7 -1.5 -13t-0.5 -11q0 -35 19 -51t64 -16q51 0 74 21.5t30 69.5l58 414h194z" />
    <glyph glyph-name="v.sc" horiz-adv-x="666" 
d="M710 649l-320 -649h-214l-138 649h215l56 -422q2 -10 3 -21t1 -20h2q3 9 6.5 19t7.5 19l178 425h203z" />
    <glyph glyph-name="w.sc" horiz-adv-x="969" 
d="M635 649l27 -431q1 -10 1 -21v-20h2q2 8 5 18.5t6 20.5l131 433h193l-251 -649h-232l-18 413q-1 10 -1 20v21h-2q-5 -20 -11 -39l-132 -415h-232l-69 649h212v-436q0 -10 -0.5 -20t-0.5 -20l2 -1q2 9 5.5 19t6.5 20l148 438h210z" />
    <glyph glyph-name="x.sc" horiz-adv-x="666" 
d="M466 339l142 -339h-221l-61 172q-3 9 -6.5 19t-5.5 20h-2q-8 -17 -20 -35l-108 -176h-226l232 336l-138 313h232l53 -149q7 -21 12 -39h2q5 8 10.5 17.5t10.5 17.5l100 153h224z" />
    <glyph glyph-name="y.sc" horiz-adv-x="661" 
d="M258 649l68 -250q6 -23 9 -40h2q4 9 7.5 16.5t10.5 19.5l137 254h213l-294 -447l-28 -202h-200l28 202l-173 447h220z" />
    <glyph glyph-name="z.sc" horiz-adv-x="574" 
d="M-21 0l16 116l303 347q11 13 27 28l-1 2h-270l27 156h500l-19 -131l-292 -332q-8 -9 -13.5 -15t-12.5 -13v-2h271l-23 -156h-513z" />
    <glyph glyph-name="exclamdown.sc" horiz-adv-x="302" 
d="M240 430l-51 -521h-203l96 521h158zM192 669q48 0 70.5 -16t22.5 -51q0 -52 -29 -80.5t-89 -28.5q-49 0 -71 18t-22 52q0 48 29 77t89 29z" />
    <glyph glyph-name="dieresis.sc" horiz-adv-x="409" 
d="M169 811q68 0 68 -52q0 -73 -85 -73q-34 0 -50.5 10.5t-16.5 36.5q0 38 20.5 58t63.5 20zM369 811q68 0 68 -52q0 -73 -85 -73q-33 0 -49.5 10.5t-16.5 36.5q0 38 20.5 58t62.5 20z" />
    <glyph glyph-name="macron.sc" horiz-adv-x="409" 
d="M425 698h-343l13 97h343z" />
    <glyph glyph-name="acute.sc" horiz-adv-x="374" 
d="M468 807l-170 -126h-157l98 126h229z" />
    <glyph glyph-name="cedilla.sc" horiz-adv-x="409" 
d="M122 18h126l-62 -206h-170z" />
    <glyph glyph-name="questiondown.sc" horiz-adv-x="503" 
d="M208 -68q-113 0 -168 41.5t-55 113.5q0 44 14.5 81t40.5 68.5t62 57t80 45.5l20 93h152l-12 -157q-32 -15 -59.5 -29.5t-48 -31t-32.5 -34.5t-12 -39q0 -47 70 -47q39 0 75 12.5t65 33.5l48 -141q-21 -15 -48.5 -27.5t-58.5 -21t-65 -13.5t-68 -5zM311 663q48 0 70.5 -16
t22.5 -51q0 -52 -29 -80.5t-89 -28.5q-49 0 -71 18t-22 52q0 48 29 77t89 29z" />
    <glyph glyph-name="germandbls.sc" horiz-adv-x="1076" 
d="M337 660q50 0 103 -8.5t92 -25.5l-41 -145q-45 13 -87.5 20t-79.5 7q-54 0 -72.5 -14.5t-18.5 -35.5q0 -17 19.5 -27.5t49 -20.5t64 -22t64 -31.5t49 -49.5t19.5 -76q0 -55 -22.5 -100t-62 -76.5t-94.5 -49t-120 -17.5q-60 0 -114.5 12.5t-97.5 35.5l44 151
q44 -23 90.5 -35.5t97.5 -12.5q89 0 89 52q0 17 -19.5 27.5t-49 20.5t-64 22.5t-64 32.5t-49 50t-19.5 76q0 49 17.5 92.5t53.5 76.5t91.5 52t131.5 19zM875 660q50 0 103 -8.5t92 -25.5l-41 -145q-45 13 -87.5 20t-79.5 7q-54 0 -72.5 -14.5t-18.5 -35.5q0 -17 19.5 -27.5
t49 -20.5t64 -22t64 -31.5t49 -49.5t19.5 -76q0 -55 -22.5 -100t-62 -76.5t-94.5 -49t-120 -17.5q-60 0 -114.5 12.5t-97.5 35.5l44 151q44 -23 90.5 -35.5t97.5 -12.5q89 0 89 52q0 17 -19.5 27.5t-49 20.5t-64 22.5t-64 32.5t-49 50t-19.5 76q0 49 17.5 92.5t53.5 76.5
t91.5 52t131.5 19z" />
    <glyph glyph-name="agrave.sc" horiz-adv-x="689" 
d="M407 113h-206l-47 -113h-207l321 649h230l144 -649h-219zM357 485q-3 -9 -6.5 -18t-8.5 -20l-81 -191h127l-25 188q-2 11 -2.5 20.5t-1.5 20.5h-2zM341 681l-110 126h213l39 -126h-142z" />
    <glyph glyph-name="aacute.sc" horiz-adv-x="689" 
d="M407 113h-206l-47 -113h-207l321 649h230l144 -649h-219zM357 485q-3 -9 -6.5 -18t-8.5 -20l-81 -191h127l-25 188q-2 11 -2.5 20.5t-1.5 20.5h-2zM633 807l-170 -126h-157l98 126h229z" />
    <glyph glyph-name="acircumflex.sc" horiz-adv-x="689" 
d="M407 113h-206l-47 -113h-207l321 649h230l144 -649h-219zM357 485q-3 -9 -6.5 -18t-8.5 -20l-81 -191h127l-25 188q-2 11 -2.5 20.5t-1.5 20.5h-2zM485 807l79 -126h-142l-11 25q-5 9 -8.5 18.5t-7.5 18.5h-2q-5 -8 -10.5 -16t-11.5 -16l-23 -30h-141l112 126h166z" />
    </font>
</defs>
</svg>
