<?xml version="1.0" standalone="no"?>
<!DOCTYPE svg PUBLIC "-//W3C//DTD SVG 1.1//EN" "http://www.w3.org/Graphics/SVG/1.1/DTD/svg11.dtd" >
<svg xmlns="http://www.w3.org/2000/svg" xmlns:xlink="http://www.w3.org/1999/xlink" version="1.1">
<metadata>
Created by FontForge 20170731 at Thu May 16 15:43:03 2019
 By Aleksey,,,
Copyright (c) 2007-2019 Monotype GmbH. All rights reserved
</metadata>
<defs>
<font id="ClanPro-Bold" horiz-adv-x="405" >
  <font-face 
    font-family="Clan Pro"
    font-weight="700"
    font-stretch="normal"
    units-per-em="1000"
    panose-1="2 0 8 3 4 0 0 2 0 4"
    ascent="787"
    descent="-213"
    x-height="606"
    cap-height="750"
    bbox="-289 -238 1236 952"
    underline-thickness="70"
    underline-position="-170"
    unicode-range="U+000D-FEFF"
  />
<missing-glyph horiz-adv-x="629" 
d="M62 750h505v-750h-505v750zM473 94v562h-317v-562h317z" />
    <glyph glyph-name="IJ" unicode="IJ" horiz-adv-x="886" 
d="M82 750h172v-750h-172v750zM815 275q0 -79 -20.5 -134t-59 -89.5t-94 -50t-124.5 -15.5q-47 0 -83.5 8.5t-65.5 23.5l9 142q20 -12 49 -19t65 -7q75 0 113.5 34t38.5 110v472h172v-475z" />
    <glyph glyph-name="ij" unicode="ij" horiz-adv-x="638" 
d="M80 0v602l159 7v-609h-159zM248 737q0 -33 -21 -49.5t-67 -16.5q-45 0 -67 14.5t-22 51.5q0 67 89 67q46 0 67 -17t21 -50zM558 5q0 -49 -14 -81.5t-37.5 -52t-55 -28t-67.5 -8.5q-22 0 -43.5 4t-38.5 10l7 109q19 -6 37 -6q25 0 41 13.5t16 43.5v593l155 7v-604z
M566 738q0 -34 -21 -50.5t-67 -16.5q-45 0 -66.5 15t-21.5 52q0 67 88 67q46 0 67 -17.5t21 -49.5z" />
    <glyph glyph-name="f_i" unicode="fi" horiz-adv-x="711" 
d="M253 0h-155v491h-76v115h76v26q0 34 12 64.5t37.5 53t65 35.5t93.5 13q26 0 49 -2.5t39 -7.5l-4 -102q-25 5 -51 5q-48 0 -67 -17t-19 -46v-22h376v-606h-158v491h-218v-491zM640 738q0 -34 -21 -50.5t-68 -16.5q-45 0 -66.5 15t-21.5 52q0 67 88 67q47 0 68 -17.5
t21 -49.5z" />
    <glyph glyph-name="f_j" unicode="fj" horiz-adv-x="711" 
d="M98 0v491h-76v115h76v26q0 34 12 64.5t37.5 53t65 35.5t93.5 13q26 0 49 -2.5t39 -7.5l-4 -102q-25 5 -51 5q-48 0 -67 -17t-19 -46v-22h375v-601q0 -49 -14 -81.5t-37.5 -52t-55 -28t-67.5 -8.5q-22 0 -43.5 4t-38.5 10l7 109q18 -6 37 -6q25 0 41 13.5t16 43.5v482
h-220v-491h-155zM640 738q0 -34 -21 -50.5t-68 -16.5q-45 0 -66.5 15t-21.5 52q0 67 88 67q47 0 68 -17.5t21 -49.5z" />
    <glyph glyph-name="f_l" unicode="fl" horiz-adv-x="678" 
d="M447 0v689q-22 3 -42.5 5t-40.5 2q-32 0 -53.5 -5t-34.5 -14.5t-18 -23t-5 -30.5v-17h98v-115h-98v-491h-155v491h-76v115h76v23q0 35 13 66t44 54.5t82 37.5t128 14q33 0 62 -2.5t57 -5.5t57 -6.5t63 -4.5v-782h-157z" />
    <glyph glyph-name=".notdef" horiz-adv-x="629" 
d="M62 750h505v-750h-505v750zM473 94v562h-317v-562h317z" />
    <glyph glyph-name=".null" horiz-adv-x="0" 
 />
    <glyph glyph-name=".null" horiz-adv-x="0" 
 />
    <glyph glyph-name="nonmarkingreturn" unicode="&#xd;" horiz-adv-x="266" 
 />
    <glyph glyph-name="space" unicode=" " horiz-adv-x="266" 
 />
    <glyph glyph-name="exclam" unicode="!" horiz-adv-x="303" 
d="M91 218l-24 532h168l-23 -532h-121zM241 66q0 -36 -20 -57t-67 -21q-45 0 -66 18t-21 60q0 38 21 58.5t66 20.5q47 0 67 -20.5t20 -58.5z" />
    <glyph glyph-name="quotedbl" unicode="&#x22;" horiz-adv-x="430" 
d="M399 766l-27 -273h-100l-22 273h149zM196 766l-27 -273h-100l-22 273h149z" />
    <glyph glyph-name="numbersign" unicode="#" horiz-adv-x="641" 
d="M149 303l19 140h-113v118h127l24 189h124l-24 -189h85l24 189h121l-24 -189h77v-118h-90l-20 -140h110v-120h-123l-24 -183h-121l23 183h-86l-23 -183h-124l24 183h-81v120h95zM272 303h86l20 140h-86z" />
    <glyph glyph-name="dollar" unicode="$" horiz-adv-x="641" 
d="M222 -73l9 64q-47 5 -89 16.5t-72 28.5q6 38 9.5 71t10.5 74q36 -20 77 -33.5t83 -21.5l27 186q-38 14 -75 32t-66.5 44.5t-48 63.5t-18.5 89q0 106 68 162t204 59l9 64l93 -7l-10 -63q32 -5 61.5 -12t49.5 -15l-9 -139q-29 8 -60 14t-63 10l-25 -166q36 -12 71 -29.5
t62.5 -43.5t44.5 -63.5t17 -89.5q0 -120 -63.5 -177t-201.5 -59l-10 -67zM454 200q0 29 -26 47.5t-66 34.5l-25 -162q63 2 90 22.5t27 57.5zM211 548q0 -27 25.5 -42.5t63.5 -29.5l20 143q-60 -2 -84.5 -22t-24.5 -49z" />
    <glyph glyph-name="percent" unicode="%" horiz-adv-x="738" 
d="M342 585q0 -176 -156 -176q-81 0 -118 44t-37 132q0 91 37 132.5t119 41.5q77 0 116 -40t39 -134zM239 585q0 47 -13 62.5t-39 15.5q-27 0 -39.5 -15.5t-12.5 -62.5t12.5 -62.5t39.5 -15.5q26 0 39 15.5t13 62.5zM611 644l-408 -617l-88 71l408 617zM707 165
q0 -175 -156 -175q-81 0 -118 43.5t-37 131.5q0 91 36.5 134t119.5 43q77 0 116 -41.5t39 -135.5zM604 165q0 46 -13 61.5t-39 15.5q-27 0 -39.5 -15.5t-12.5 -61.5q0 -47 12.5 -62t39.5 -15t39.5 15t12.5 62z" />
    <glyph glyph-name="ampersand" unicode="&#x26;" horiz-adv-x="719" 
d="M656 -9q-38 17 -78.5 40t-80.5 51q-48 -42 -107.5 -69t-134.5 -27q-62 0 -105 18t-70 47.5t-39 67.5t-12 78q0 37 10.5 69t28.5 59t42 49.5t50 42.5q-29 45 -45.5 86.5t-16.5 75.5q0 37 11 70.5t36.5 58.5t67 39.5t101.5 14.5q46 0 84 -11t65.5 -31t43 -48t15.5 -63
t-15 -64.5t-39.5 -55t-55.5 -48.5t-63 -45q29 -31 62 -62t71 -61q17 31 29.5 63.5t20.5 63.5h133q-5 -41 -23.5 -95t-51.5 -109q30 -19 60 -35t61 -29zM280 131q30 0 57 9.5t51 26.5q-81 69 -148 145q-23 -23 -36.5 -47.5t-13.5 -53.5q0 -40 24 -60t66 -20zM243 579
q0 -17 8.5 -39t23.5 -47q39 25 65 49t26 53q0 25 -16 37t-40 12q-30 0 -48.5 -16.5t-18.5 -48.5z" />
    <glyph glyph-name="quotesingle" unicode="'" horiz-adv-x="228" 
d="M188 766l-27 -273h-100l-22 273h149z" />
    <glyph glyph-name="parenleft" unicode="(" horiz-adv-x="357" 
d="M355 779q-66 -97 -97 -213t-31 -240q0 -125 32 -240.5t95 -211.5l-116 -10q-78 86 -119 205.5t-41 256.5q0 140 40 256.5t120 206.5z" />
    <glyph glyph-name="parenright" unicode=")" horiz-adv-x="357" 
d="M120 789q79 -90 119.5 -206.5t40.5 -256.5q0 -137 -41 -256.5t-119 -205.5l-117 10q64 96 95.5 211.5t31.5 240.5q0 124 -31 240t-96 213z" />
    <glyph glyph-name="asterisk" unicode="*" horiz-adv-x="377" 
d="M226 783l11 -103l98 25l26 -74l-98 -42l58 -89l-55 -44l-75 80l-77 -81l-58 42l57 92l-97 42l27 74l99 -25l12 103h72z" />
    <glyph glyph-name="plus" unicode="+" horiz-adv-x="602" 
d="M368 265v-169h-137v169h-169v142h169v169h137v-169h171v-142h-171z" />
    <glyph glyph-name="comma" unicode="," horiz-adv-x="265" 
d="M131 158q46 0 67.5 -25t21.5 -69q0 -20 -8 -47t-21 -56t-29.5 -57t-32.5 -49l-56 14l26 121q-20 9 -37 30t-17 49q0 38 19.5 63.5t66.5 25.5z" />
    <glyph glyph-name="hyphen" unicode="-" horiz-adv-x="390" 
d="M338 398v-112h-286v112h286z" />
    <glyph glyph-name="period" unicode="." horiz-adv-x="269" 
d="M224 75q0 -41 -20.5 -64t-68.5 -23t-69 19.5t-21 67.5q0 42 21 64t69 22t68.5 -22t20.5 -64z" />
    <glyph glyph-name="slash" unicode="/" horiz-adv-x="461" 
d="M466 784l-342 -905h-130l338 905h134z" />
    <glyph glyph-name="zero" unicode="0" horiz-adv-x="641" 
d="M599 372q0 -101 -16.5 -173t-50.5 -118.5t-87 -68.5t-126 -22q-74 0 -126 22t-86 68.5t-49.5 118.5t-15.5 173q0 106 15.5 179.5t49.5 119.5t87 67t127 21q73 0 125.5 -21t86.5 -67t50 -119.5t16 -179.5zM438 374q0 77 -7 124t-21.5 73t-36.5 35t-52 9q-31 0 -53.5 -9.5
t-37 -35.5t-21.5 -73t-7 -123q0 -79 7 -127t21.5 -74t37 -34.5t53.5 -8.5q30 0 52 9t36.5 35.5t21.5 74.5t7 125z" />
    <glyph glyph-name="one" unicode="1" horiz-adv-x="641" 
d="M163 118h111v433l-137 -79l-17 136l223 142h99v-632h109v-118h-388v118z" />
    <glyph glyph-name="two" unicode="2" horiz-adv-x="641" 
d="M577 539q0 -51 -21.5 -98.5t-59.5 -95t-91 -96t-117 -101.5v-3h288l-3 -145h-498v108q67 67 127.5 124.5t106 108t72 95.5t26.5 87q0 39 -27.5 64t-90.5 25q-50 0 -94.5 -18.5t-86.5 -47.5l-39 134q47 35 110 57t140 22q64 0 112.5 -16t81 -45t48.5 -69.5t16 -89.5z" />
    <glyph glyph-name="three" unicode="3" horiz-adv-x="641" 
d="M586 225q0 -54 -17.5 -97t-53 -73.5t-90.5 -47t-130 -16.5q-72 0 -129 16t-99 40l32 130q44 -24 90.5 -36.5t100.5 -12.5q69 0 102.5 27.5t33.5 75.5q0 23 -9 41.5t-31.5 31t-61 19.5t-97.5 7v117q57 0 93.5 6t57.5 18t29.5 29.5t8.5 39.5q0 37 -29.5 57t-91.5 20
q-57 0 -103.5 -17t-87.5 -48l-38 129q44 34 106.5 56t132.5 22q126 0 195 -55t69 -152q0 -57 -26.5 -96.5t-76.5 -62.5v-2q58 -21 89 -61.5t31 -104.5z" />
    <glyph glyph-name="four" unicode="4" horiz-adv-x="641" 
d="M534 142v-142h-152v142h-331l-14 104l301 504h196v-470h77l-4 -138h-73zM394 518l4 81l-2 1l-183 -320h175z" />
    <glyph glyph-name="five" unicode="5" horiz-adv-x="641" 
d="M583 259q0 -63 -16 -112.5t-50 -84t-86.5 -53t-125.5 -18.5q-66 0 -124.5 13.5t-106.5 42.5l29 130q46 -23 88 -36t98 -13q74 0 103 29t29 88q0 53 -31.5 75.5t-97.5 22.5q-39 0 -79.5 -7t-72.5 -19l-57 62l30 371h429l5 -145h-304l-11 -139q53 11 108 11
q118 0 180.5 -54.5t62.5 -163.5z" />
    <glyph glyph-name="six" unicode="6" horiz-adv-x="641" 
d="M594 263q0 -140 -69 -206t-196 -66q-69 0 -122 19.5t-89 63.5t-54.5 113.5t-18.5 170.5q0 198 83.5 299.5t247.5 101.5q50 0 91.5 -6t82.5 -22l-11 -140q-36 13 -69.5 18.5t-73.5 5.5q-92 0 -136 -41t-55 -126l2 -2q32 20 70 31t80 11q237 0 237 -225zM434 266
q0 50 -25.5 74t-82.5 24q-14 0 -30.5 -3.5t-32.5 -9.5t-29.5 -15t-22.5 -19q1 -54 7.5 -90.5t21 -58t36 -30.5t52.5 -9q52 0 79 32.5t27 104.5z" />
    <glyph glyph-name="seven" unicode="7" horiz-adv-x="641" 
d="M594 610l-281 -610h-185l304 593h-383l7 156h538v-139z" />
    <glyph glyph-name="eight" unicode="8" horiz-adv-x="641" 
d="M44 220q0 51 26.5 96.5t76.5 75.5q-34 26 -55 65.5t-21 101.5q0 92 60 146t191 54q130 0 189.5 -53.5t59.5 -147.5q0 -51 -21.5 -91t-59.5 -69q22 -12 42 -28t34 -37.5t22.5 -49.5t8.5 -64q0 -228 -275 -228q-144 0 -211 58.5t-67 170.5zM439 207q0 25 -12 43t-33.5 31.5
t-51 24.5t-65.5 23q-32 -20 -54 -47t-22 -63q0 -54 29.5 -77t95.5 -23q51 0 82 20t31 68zM223 551q0 -24 11 -40.5t30 -28.5t44 -21t53 -17q32 20 48.5 44.5t16.5 56.5q0 42 -25 63t-80 21q-98 0 -98 -78z" />
    <glyph glyph-name="nine" unicode="9" horiz-adv-x="641" 
d="M592 405q0 -110 -20 -188.5t-59.5 -128.5t-99 -73.5t-138.5 -23.5q-62 0 -105 8.5t-85 26.5l23 134q37 -15 72.5 -22.5t78.5 -7.5q87 0 127 44.5t48 140.5l-2 2q-31 -20 -68 -29.5t-82 -9.5q-60 0 -105 16.5t-74.5 46.5t-44 72.5t-14.5 94.5q0 58 16 104.5t49 79t83 50
t118 17.5q134 0 208 -88t74 -266zM430 457q0 46 -9 77.5t-25 51t-38.5 27.5t-50.5 8q-53 0 -80 -25.5t-27 -81.5q0 -53 26.5 -80t86.5 -27q39 0 69.5 12.5t47.5 37.5z" />
    <glyph glyph-name="colon" unicode=":" horiz-adv-x="269" 
d="M224 484q0 -41 -20.5 -64t-68.5 -23t-69 19.5t-21 67.5q0 42 21 64t69 22t68.5 -22t20.5 -64zM224 75q0 -41 -20.5 -64t-68.5 -23t-69 19.5t-21 67.5q0 42 21 64t69 22t68.5 -22t20.5 -64z" />
    <glyph glyph-name="semicolon" unicode=";" horiz-adv-x="271" 
d="M226 484q0 -41 -20.5 -64t-68.5 -23t-69 19.5t-21 67.5q0 42 21 64t69 22t68.5 -22t20.5 -64zM135 158q46 0 67.5 -25t21.5 -69q0 -20 -8 -47t-21 -56t-29.5 -57t-32.5 -49l-56 14l26 121q-20 9 -37 30t-17 49q0 38 19.5 63.5t66.5 25.5z" />
    <glyph glyph-name="less" unicode="&#x3c;" horiz-adv-x="602" 
d="M345 365l-73 -32v-3l73 -33l171 -82v-148l-430 225v78l429 229l1 -154z" />
    <glyph glyph-name="equal" unicode="=" horiz-adv-x="602" 
d="M74 369v120h453v-120h-453zM74 165v120h453v-120h-453z" />
    <glyph glyph-name="greater" unicode="&#x3e;" horiz-adv-x="602" 
d="M86 215l172 81l74 33v3l-74 32l-172 81v154l430 -229v-78l-430 -225v148z" />
    <glyph glyph-name="question" unicode="?" horiz-adv-x="508" 
d="M479 570q0 -83 -45.5 -140.5t-124.5 -99.5l-6 -111h-122l-8 169q66 35 106.5 71t40.5 85q0 35 -25 53.5t-71 18.5q-45 0 -82.5 -14.5t-66.5 -40.5l-56 125q38 32 98.5 53t128.5 21q117 0 175 -51.5t58 -138.5zM329 66q0 -36 -20.5 -57t-66.5 -21t-66.5 18t-20.5 60
q0 38 20.5 58.5t66.5 20.5t66.5 -20.5t20.5 -58.5z" />
    <glyph glyph-name="at" unicode="@" horiz-adv-x="892" 
d="M451 591q58 0 92 -40l16 34l83 -6l-44 -269q-3 -18 -3 -37q0 -28 11.5 -48.5t45.5 -20.5q24 0 44.5 11.5t35.5 36t24 63.5t9 94q0 65 -18 120.5t-54.5 96t-91 63.5t-127.5 23q-87 0 -152 -28.5t-108 -78.5t-64 -117t-21 -143q0 -80 20.5 -148.5t63 -118t108 -77.5
t154.5 -28q58 0 105.5 10t85 25t65 32.5t45.5 32.5l34 -79q-26 -21 -60 -40.5t-76 -34t-92.5 -23.5t-107.5 -9q-102 0 -183 31t-137 89.5t-86 143.5t-30 194q0 91 28.5 174t84 145t137 99t187.5 37q87 0 157.5 -29t119.5 -81t75.5 -124t26.5 -157q0 -83 -18.5 -141
t-48.5 -95t-68.5 -54t-79.5 -17q-93 0 -127 70q-24 -31 -60 -50.5t-85 -19.5q-30 0 -56.5 11.5t-46 35.5t-30.5 59.5t-11 83.5q0 59 17.5 113t48 95.5t72 66t90.5 24.5zM504 459q-12 24 -45 24q-24 0 -44 -16.5t-35 -43t-23 -61t-8 -70.5q0 -37 13.5 -57.5t40.5 -20.5
q29 0 50.5 27.5t28.5 72.5z" />
    <glyph glyph-name="A" unicode="A" horiz-adv-x="734" 
d="M498 146h-272l-42 -146h-178l259 750h201l262 -750h-188zM342 544l-75 -257h191l-72 257l-20 79h-3z" />
    <glyph glyph-name="B" unicode="B" horiz-adv-x="691" 
d="M648 218q0 -51 -15.5 -91t-48 -68.5t-83 -43.5t-121.5 -15h-309v750h305q123 0 184 -51t61 -141q0 -63 -27.5 -102.5t-72.5 -58.5v-2q127 -35 127 -177zM479 231q0 48 -23 68.5t-78 20.5h-145v-182h149q51 0 74 19.5t23 73.5zM460 528q0 45 -21 62.5t-69 17.5h-136v-163
h140q45 0 65.5 19t20.5 64z" />
    <glyph glyph-name="C" unicode="C" horiz-adv-x="597" 
d="M548 587q-29 11 -67 18t-80 7q-51 0 -85.5 -11.5t-56 -38.5t-30.5 -71.5t-9 -111.5q0 -71 9.5 -117.5t31 -75t57 -40t86.5 -11.5q42 0 78 7.5t68 21.5l17 -137q-37 -18 -87 -29.5t-100 -11.5q-171 0 -254 96t-83 298q0 187 84 285t264 98q22 0 46 -2.5t47 -6.5t44 -10
t37 -12z" />
    <glyph glyph-name="D" unicode="D" horiz-adv-x="732" 
d="M689 378q0 -102 -21 -173.5t-63 -117t-105 -66.5t-146 -21h-283v750h281q89 0 153 -21.5t105 -67t60 -116t19 -167.5zM512 379q0 67 -8.5 109.5t-28 67t-50 34t-75.5 9.5h-110v-449h111q43 0 73.5 9t50 33.5t28.5 69.5t9 117z" />
    <glyph glyph-name="E" unicode="E" horiz-adv-x="619" 
d="M585 147l-4 -147h-510v750h495l3 -149h-329v-149h277v-134h-277v-171h345z" />
    <glyph glyph-name="F" unicode="F" horiz-adv-x="592" 
d="M240 598v-162h274l-2 -144h-272v-292h-168v750h494l3 -152h-329z" />
    <glyph glyph-name="G" unicode="G" horiz-adv-x="675" 
d="M624 28q-42 -20 -102.5 -31t-122.5 -11q-96 0 -163.5 24.5t-110.5 73t-62.5 121.5t-19.5 169q0 196 86 292.5t276 96.5q54 0 109 -9t98 -25l-16 -146q-40 15 -87.5 23.5t-94.5 8.5q-56 0 -93 -11.5t-59.5 -39t-32 -73.5t-9.5 -115q0 -70 9 -116t29.5 -73.5t54 -38.5
t82.5 -11q46 0 80 10v256h149v-375z" />
    <glyph glyph-name="H" unicode="H" horiz-adv-x="742" 
d="M502 0v307h-262v-307h-169v750h169v-291h262v291h168v-750h-168z" />
    <glyph glyph-name="I" unicode="I" horiz-adv-x="336" 
d="M82 750h172v-750h-172v750z" />
    <glyph glyph-name="J" unicode="J" horiz-adv-x="550" 
d="M479 275q0 -79 -20.5 -134t-59 -89.5t-94 -50t-124.5 -15.5q-47 0 -83.5 8.5t-65.5 23.5l9 142q20 -12 49 -19t65 -7q75 0 113.5 34t38.5 110v472h172v-475z" />
    <glyph glyph-name="K" unicode="K" horiz-adv-x="720" 
d="M504 0l-185 316h-79v-316h-169v750h169v-297h81l181 297h193l-224 -356l236 -394h-203z" />
    <glyph glyph-name="L" unicode="L" horiz-adv-x="568" 
d="M550 152l-4 -152h-475v750h170v-598h309z" />
    <glyph glyph-name="M" unicode="M" horiz-adv-x="922" 
d="M257 750l174 -438l28 -75h3l28 75l175 438h186v-750h-154v382l2 81l-3 1l-28 -76l-154 -388h-112l-153 387l-28 76l-2 -1l1 -81v-381h-149v750h186z" />
    <glyph glyph-name="N" unicode="N" horiz-adv-x="747" 
d="M558 0l-291 409l-45 67l-2 -1l1 -81v-394h-150v750h144l267 -387l45 -67l2 1l-2 80v373h149v-750h-118z" />
    <glyph glyph-name="O" unicode="O" horiz-adv-x="748" 
d="M704 375q0 -102 -18.5 -175.5t-58.5 -121t-102.5 -70t-150.5 -22.5q-173 0 -252 94.5t-79 294.5q0 100 19 173t59 120.5t102.5 70.5t150.5 23t150.5 -23t102.5 -70.5t58.5 -120.5t18.5 -173zM528 375q0 71 -8 117t-26 72.5t-47.5 36.5t-72.5 10t-72.5 -10t-47.5 -36.5
t-26 -72.5t-8 -117t8 -117t26.5 -73t48 -37.5t72.5 -10.5q42 0 71.5 10.5t47.5 37.5t26 73t8 117z" />
    <glyph glyph-name="P" unicode="P" horiz-adv-x="664" 
d="M633 493q0 -59 -16.5 -105.5t-51.5 -78.5t-91 -48.5t-134 -16.5h-100v-244h-169v750h269q156 0 224.5 -63t68.5 -194zM459 494q0 34 -6.5 56t-20.5 35t-36.5 18.5t-55.5 5.5h-100v-230h100q31 0 53.5 4.5t37 17.5t21.5 35.5t7 57.5z" />
    <glyph glyph-name="Q" unicode="Q" horiz-adv-x="748" 
d="M704 375q0 -160 -46 -250t-150 -120l140 -109l-190 -48l-105 138q-162 6 -236 100.5t-74 288.5q0 100 19 173t59 120.5t102.5 70.5t150.5 23t150.5 -23t102.5 -70.5t58.5 -120.5t18.5 -173zM528 375q0 71 -8 117t-26 72.5t-47.5 36.5t-72.5 10t-72.5 -10t-47.5 -36.5
t-26 -72.5t-8 -117t8 -117t26.5 -73t48 -37.5t72.5 -10.5q42 0 71.5 10.5t47.5 37.5t26 73t8 117z" />
    <glyph glyph-name="R" unicode="R" horiz-adv-x="680" 
d="M625 517q0 -79 -32.5 -132t-93.5 -72l175 -313h-197l-131 280h-106v-280h-169v750h275q140 0 209.5 -56t69.5 -177zM449 510q0 57 -23 78.5t-79 21.5h-107v-204h104q56 0 80.5 21.5t24.5 82.5z" />
    <glyph glyph-name="S" unicode="S" horiz-adv-x="578" 
d="M549 225q0 -112 -73 -175.5t-205 -63.5q-66 0 -124.5 15t-107.5 41l22 145q50 -26 101 -40.5t107 -14.5q62 0 90 21.5t28 60.5q0 29 -25.5 47t-64 32.5t-83 30t-83 41.5t-64 65.5t-25.5 102.5q0 48 16 89.5t49 73t84.5 49.5t122.5 18q55 0 110.5 -10.5t99.5 -28.5
l-21 -142q-47 15 -92.5 23.5t-88.5 8.5q-35 0 -57.5 -5.5t-36 -15.5t-19 -23t-5.5 -28q0 -29 25.5 -46.5t64 -31.5t83 -29t83 -40.5t64 -66t25.5 -103.5z" />
    <glyph glyph-name="T" unicode="T" horiz-adv-x="597" 
d="M383 598v-598h-170v598h-201l4 152h565l4 -152h-202z" />
    <glyph glyph-name="U" unicode="U" horiz-adv-x="726" 
d="M665 268q0 -282 -301 -282q-149 0 -226 69.5t-77 212.5v482h168v-480q0 -69 32 -100t103 -31t102.5 31t31.5 100v480h167v-482z" />
    <glyph glyph-name="V" unicode="V" horiz-adv-x="710" 
d="M704 750l-255 -750h-188l-255 750h186l145 -507l21 -78h3l20 78l148 507h175z" />
    <glyph glyph-name="W" unicode="W" horiz-adv-x="1036" 
d="M613 750l106 -504l15 -79h3l13 80l94 503h167l-177 -750h-202l-99 502l-14 80h-3l-14 -81l-98 -501h-202l-177 750h175l94 -508l13 -80h3l14 79l106 509h183z" />
    <glyph glyph-name="X" unicode="X" horiz-adv-x="712" 
d="M475 392l218 -392h-191l-109 214l-34 73h-3l-35 -74l-107 -213h-195l213 388l-208 362h200l97 -187l36 -72h3l35 72l97 187h192z" />
    <glyph glyph-name="Y" unicode="Y" horiz-adv-x="698" 
d="M196 750l126 -284l31 -74h3l30 75l121 283h185l-255 -511v-239h-172v239l-259 511h190z" />
    <glyph glyph-name="Z" unicode="Z" horiz-adv-x="618" 
d="M35 0v110l291 422l46 64l-1 2h-328l5 152h528v-123l-284 -410l-46 -63l1 -3h332l-3 -151h-541z" />
    <glyph glyph-name="bracketleft" unicode="[" horiz-adv-x="352" 
d="M78 785h271v-109h-131v-701h131v-106h-271v916z" />
    <glyph glyph-name="backslash" unicode="\" horiz-adv-x="377" 
d="M113 784l294 -905h-126l-295 905h127z" />
    <glyph glyph-name="bracketright" unicode="]" horiz-adv-x="352" 
d="M274 -131h-271v106h131v701h-131v109h271v-916z" />
    <glyph glyph-name="asciicircum" unicode="^" horiz-adv-x="641" 
d="M321 690l-145 -226h-124l216 340h107l213 -340h-122z" />
    <glyph glyph-name="underscore" unicode="_" horiz-adv-x="416" 
d="M403 -38v-94h-388v94h388z" />
    <glyph glyph-name="grave" unicode="`" 
d="M198 656l-120 145h177l60 -145h-117z" />
    <glyph glyph-name="a" unicode="a" horiz-adv-x="581" 
d="M394 58l-3 1q-28 -33 -70 -51t-94 -18q-86 0 -137 49.5t-51 151.5q0 42 14.5 77t42 59.5t67.5 38.5t92 14q34 0 63 -4.5t53 -12.5v35q0 46 -26 67.5t-89 21.5q-50 0 -87.5 -8t-79.5 -25l-13 124q46 20 97.5 30t110.5 10q67 0 113 -14.5t74.5 -44.5t41 -76t12.5 -108v-375
h-119zM371 260q-11 5 -33 9t-53 4q-101 0 -101 -80q0 -45 24 -62.5t62 -17.5q20 0 38 5.5t32 15.5t22.5 22.5t8.5 27.5v76z" />
    <glyph glyph-name="b" unicode="b" horiz-adv-x="635" 
d="M600 305q0 -83 -17 -143t-48.5 -98.5t-77.5 -57t-104 -18.5q-51 0 -92 17t-69 45l-20 -50h-105v779l155 7v-141l-2 -80l3 -2q31 28 69 41t80 13q52 0 94.5 -17.5t72 -55t45.5 -97t16 -142.5zM440 302q0 57 -7.5 92t-21.5 54.5t-35 26t-49 6.5q-34 0 -61 -13.5t-44 -37.5
v-265q14 -22 40.5 -37t65.5 -15q26 0 47 7.5t35.5 28t22 57.5t7.5 96z" />
    <glyph glyph-name="c" unicode="c" horiz-adv-x="493" 
d="M449 458q-23 8 -50 13.5t-53 5.5q-42 0 -71 -9.5t-46.5 -30t-25 -54t-7.5 -81.5q0 -98 38 -139.5t109 -41.5q61 0 110 23l11 -121q-27 -17 -66.5 -26t-88.5 -9q-135 0 -204.5 77t-69.5 237q0 75 16 133.5t49.5 98.5t86 61t125.5 21q38 0 77.5 -7.5t68.5 -18.5z" />
    <glyph glyph-name="d" unicode="d" horiz-adv-x="633" 
d="M447 0l-15 52l-3 1q-27 -32 -67 -48.5t-95 -16.5q-118 0 -175 77t-57 241q0 150 57 231t173 81q87 0 148 -55l2 2l-2 80v133l155 8v-786h-121zM413 433q-14 20 -40.5 33t-61.5 13q-32 0 -54 -9t-36 -30t-20 -55.5t-6 -85.5q0 -53 5.5 -88.5t19 -57t35.5 -30.5t55 -9
q43 0 67.5 16t35.5 35v268z" />
    <glyph glyph-name="e" unicode="e" horiz-adv-x="586" 
d="M337 -11q-157 0 -229.5 81.5t-72.5 240.5q0 145 65 225.5t202 80.5q116 0 183 -69t67 -213q0 -17 -1 -37t-3 -36h-353q6 -76 44.5 -107.5t116.5 -31.5q84 0 162 30l17 -125q-38 -17 -89 -28t-109 -11zM410 365q-2 67 -30 95t-77 28q-56 0 -81 -28.5t-30 -94.5h218z" />
    <glyph glyph-name="f" unicode="f" 
d="M98 0v491h-76v115h76v26q0 34 12 64.5t37.5 53t65 35.5t93.5 13q26 0 52 -3.5t46 -9.5l-9 -100q-27 6 -58 6q-46 0 -65 -17t-19 -46v-22h129v-115h-129v-491h-155z" />
    <glyph glyph-name="g" unicode="g" horiz-adv-x="587" 
d="M286 244q-40 0 -76 6q-21 -11 -21 -29q0 -25 40 -28l144 -8q106 -6 151 -45t45 -109q0 -45 -15.5 -81.5t-49.5 -62t-86.5 -39t-126.5 -13.5q-65 0 -111.5 12t-76.5 33.5t-44 50.5t-14 64q0 27 12 52.5t35 45.5q-20 14 -33 36t-13 53q0 30 17.5 58t55.5 46
q-30 22 -48 56.5t-18 86.5q0 41 12.5 75.5t40.5 59.5t72 39t107 14q39 0 79 -7t72 -26l103 33l32 -74l-64 -50q9 -27 9 -64q0 -88 -53.5 -136.5t-176.5 -48.5zM202 64q-25 -23 -25 -49q0 -32 25.5 -47.5t85.5 -15.5q43 0 70.5 4t43.5 11.5t22 17.5t6 23q0 21 -16.5 31.5
t-67.5 14.5zM287 500q-45 0 -63 -17.5t-18 -57.5q0 -44 21 -59t56 -15q49 0 66.5 16.5t17.5 58.5t-18.5 58t-61.5 16z" />
    <glyph glyph-name="h" unicode="h" horiz-adv-x="633" 
d="M422 0v386q0 94 -97 94q-34 0 -61.5 -13t-41.5 -33v-434h-155v778l155 8v-138l-2 -80l3 -2q34 29 73.5 40.5t77.5 11.5q97 0 150 -61t53 -171v-386h-155z" />
    <glyph glyph-name="i" unicode="i" horiz-adv-x="319" 
d="M80 0v602l159 7v-609h-159zM248 737q0 -33 -21 -49.5t-67 -16.5q-45 0 -67 14.5t-22 51.5q0 67 89 67q46 0 67 -17t21 -50z" />
    <glyph glyph-name="j" unicode="j" horiz-adv-x="319" 
d="M239 5q0 -49 -14 -81.5t-37.5 -52t-55 -28t-67.5 -8.5q-22 0 -43.5 4t-38.5 10l7 109q19 -6 37 -6q25 0 41 13.5t16 43.5v593l155 7v-604zM247 738q0 -34 -21 -50.5t-67 -16.5q-45 0 -66.5 15t-21.5 52q0 67 88 67q46 0 67 -17.5t21 -49.5z" />
    <glyph glyph-name="k" unicode="k" horiz-adv-x="617" 
d="M222 387h79l126 219h172l-165 -275l171 -331h-175l-129 261h-79v-261h-155v779l155 7v-399z" />
    <glyph glyph-name="l" unicode="l" horiz-adv-x="305" 
d="M74 0v779l157 7v-786h-157z" />
    <glyph glyph-name="m" unicode="m" horiz-adv-x="943" 
d="M732 0v387q0 48 -24 70.5t-67 22.5q-39 0 -64 -21.5t-25 -66.5v-392h-155v392q0 47 -23.5 67.5t-64.5 20.5q-28 0 -52.5 -12.5t-38.5 -33.5v-434h-156v602l112 8l25 -57q32 30 72 47t82 17q113 0 160 -81q31 42 74.5 61.5t95.5 19.5q45 0 82.5 -14t64.5 -42.5t42 -71
t15 -99.5v-390h-155z" />
    <glyph glyph-name="n" unicode="n" horiz-adv-x="629" 
d="M418 0v386q0 51 -25 72.5t-73 21.5q-29 0 -57.5 -12t-44.5 -34v-434h-156v603l112 7l23 -52q34 29 76.5 44.5t90.5 15.5q97 0 153 -59t56 -173v-386h-155z" />
    <glyph glyph-name="o" unicode="o" horiz-adv-x="624" 
d="M590 301q0 -84 -16 -143.5t-50 -97.5t-86.5 -56t-124.5 -18t-124.5 18t-86.5 56t-50.5 97.5t-16.5 143.5q0 166 67 241t211 75q72 0 124.5 -18t86.5 -56.5t50 -98.5t16 -143zM196 301q0 -56 6.5 -92.5t20.5 -57.5t36 -29.5t54 -8.5t54 8.5t36 30t20 57.5t6 92
q0 55 -6 91.5t-20 58t-36 30t-54 8.5t-54.5 -8.5t-36.5 -30t-20 -58t-6 -91.5z" />
    <glyph glyph-name="p" unicode="p" horiz-adv-x="630" 
d="M596 304q0 -80 -17 -139t-47.5 -98t-74 -58t-96.5 -19q-41 0 -76.5 10t-64.5 39l-3 -1l2 -81v-111h-157v756l109 7l30 -53q32 29 74 45t90 16q56 0 99 -16.5t72.5 -53t44.5 -96.5t15 -147zM435 305q0 52 -6.5 86t-20 53.5t-35 27t-50.5 7.5q-34 0 -60.5 -13t-43.5 -36
v-260q14 -22 39 -37t62 -15q26 0 47 7.5t36 28t23.5 57t8.5 94.5z" />
    <glyph glyph-name="q" unicode="q" horiz-adv-x="631" 
d="M412 -155v107l2 81l-2 1q-55 -43 -140 -43q-53 0 -96.5 18t-75 55.5t-48.5 96t-17 140.5q0 156 60 236t181 80q109 0 173 -66l18 55l100 -1v-759zM412 432q-12 20 -39 33t-63 13q-32 0 -54 -7.5t-35.5 -27.5t-19 -54.5t-5.5 -87.5q0 -51 6.5 -85.5t20.5 -55.5t36 -30
t53 -9q42 0 68 16t32 36v259z" />
    <glyph glyph-name="r" unicode="r" horiz-adv-x="458" 
d="M62 0v602l124 6l14 -101h3q29 55 71.5 82t94.5 27q20 0 37 -2.5t29 -6.5l-10 -153q-14 5 -31 7.5t-35 2.5q-61 0 -101 -42t-40 -118v-304h-156z" />
    <glyph glyph-name="s" unicode="s" horiz-adv-x="497" 
d="M465 190q0 -45 -13 -82.5t-41 -64t-72 -41t-105 -14.5q-55 0 -103.5 10.5t-86.5 31.5l16 128q38 -22 86 -32.5t87 -10.5q47 0 67.5 17t20.5 44q0 24 -21 37.5t-52 24t-67.5 22t-67.5 31.5t-52 52.5t-21 85.5q0 41 14 75.5t42.5 59t71.5 38.5t102 14q46 0 90 -8.5
t82 -24.5l-13 -127q-38 16 -83 23.5t-79 7.5q-38 0 -58.5 -14t-20.5 -37t20.5 -35.5t51.5 -22.5t66.5 -21t66.5 -30.5t51.5 -52t20.5 -84.5z" />
    <glyph glyph-name="t" unicode="t" horiz-adv-x="403" 
d="M245 490v-310q0 -35 18 -51t54 -16q12 0 26 2t22 5l9 -113q-16 -7 -44 -12t-60 -5q-91 0 -135.5 49t-44.5 136v315h-68v116h75l26 137l122 11v-148h135v-116h-135z" />
    <glyph glyph-name="u" unicode="u" horiz-adv-x="622" 
d="M566 214q0 -111 -62.5 -168t-192.5 -57t-192.5 58t-62.5 167v392h155v-389q0 -91 100 -91t100 91v389h155v-392z" />
    <glyph glyph-name="v" unicode="v" horiz-adv-x="652" 
d="M636 606l-220 -606h-180l-220 606h170l116 -388l22 -78h3l21 78l118 388h170z" />
    <glyph glyph-name="w" unicode="w" horiz-adv-x="890" 
d="M529 606l81 -397l15 -79h3l12 80l68 396h152l-136 -606h-190l-68 362l-13 81h-3l-14 -81l-71 -362h-190l-145 606h156l73 -395l14 -80h3l13 80l78 395h162z" />
    <glyph glyph-name="x" unicode="x" horiz-adv-x="624" 
d="M342 161l-34 73h-3l-34 -74l-78 -160h-171l181 306l-178 300h180l76 -153l34 -73h3l33 73l75 153h172l-170 -296l175 -310h-180z" />
    <glyph glyph-name="y" unicode="y" horiz-adv-x="653" 
d="M181 -52q32 0 55 11.5t38 46.5l3 8l-261 592h177l132 -370l26 -76h3l19 78l99 368h165l-207 -598q-32 -94 -87.5 -135t-133.5 -41q-28 0 -54 4.5t-49 14.5l12 110q32 -13 63 -13z" />
    <glyph glyph-name="z" unicode="z" horiz-adv-x="538" 
d="M269 194l-48 -62l1 -3h278l-4 -129h-454v109l222 303l48 63l-1 2h-261l5 129h436v-108z" />
    <glyph glyph-name="braceleft" unicode="{" horiz-adv-x="386" 
d="M276 438q0 -36 -15 -64t-42 -45q27 -17 42 -45t15 -64q0 -23 -2 -43t-4 -39t-4 -37.5t-2 -39.5q0 -33 20.5 -56t65.5 -23h33v-116h-26q-64 0 -108.5 12t-72 34.5t-39.5 55t-12 73.5q0 47 7.5 92.5t7.5 88.5q0 30 -17.5 49.5t-44.5 25.5v64q27 6 44.5 25.5t17.5 49.5
q0 43 -7.5 88.5t-7.5 92.5q0 41 12 73.5t39.5 55t72 34.5t108.5 12h26v-116h-33q-45 0 -65.5 -23t-20.5 -56q0 -21 2 -40t4 -37.5t4 -38.5t2 -43z" />
    <glyph glyph-name="bar" unicode="|" horiz-adv-x="290" 
d="M85 807h120v-985h-120v985z" />
    <glyph glyph-name="braceright" unicode="}" horiz-adv-x="386" 
d="M111 220q0 73 56 109q-27 17 -41.5 45t-14.5 64q0 23 1.5 43t4 38.5t4 37.5t1.5 40q0 33 -20.5 56t-65.5 23h-33v116h26q64 0 108.5 -12t72 -34.5t39.5 -55t12 -73.5q0 -47 -7.5 -92.5t-7.5 -88.5q0 -30 17.5 -49.5t45.5 -25.5v-64q-28 -6 -45.5 -25.5t-17.5 -49.5
q0 -43 7.5 -88.5t7.5 -92.5q0 -41 -12 -73.5t-39.5 -55t-72 -34.5t-108.5 -12h-26v116h33q45 0 65.5 23t20.5 56q0 21 -1.5 39.5t-4 37.5t-4 39t-1.5 43z" />
    <glyph glyph-name="asciitilde" unicode="~" horiz-adv-x="641" 
d="M72 589q9 191 146 191q29 0 56 -10t52 -22.5t48.5 -22.5t46.5 -10q26 0 40 15.5t19 35.5h89q-5 -96 -42.5 -143t-103.5 -47q-30 0 -56.5 10t-51 22.5t-47.5 22.5t-45 10q-26 0 -41.5 -15t-21.5 -36z" />
    <glyph glyph-name="uni00A0" unicode="&#xa0;" horiz-adv-x="266" 
 />
    <glyph glyph-name="exclamdown" unicode="&#xa1;" horiz-adv-x="302" 
d="M215 439l18 -572h-164l19 572h127zM62 582q0 36 20.5 56.5t66.5 20.5q45 0 66 -17.5t21 -59.5q0 -38 -21 -58.5t-66 -20.5q-46 0 -66.5 20.5t-20.5 58.5z" />
    <glyph glyph-name="cent" unicode="&#xa2;" horiz-adv-x="641" 
d="M504 458q-23 8 -50 13.5t-53 5.5q-42 0 -71 -9.5t-46.5 -30t-25 -54t-7.5 -81.5q0 -98 38 -139.5t109 -41.5q61 0 110 23l11 -121q-43 -27 -118 -33l-7 -118h-120l9 125q-96 20 -144.5 95.5t-48.5 209.5q0 136 52 215t168 95l9 118h120l-9 -119q23 -4 44.5 -9t38.5 -12z
" />
    <glyph glyph-name="sterling" unicode="&#xa3;" horiz-adv-x="641" 
d="M65 432h48q-9 26 -15.5 52.5t-6.5 56.5q0 44 15 84t49 71t89.5 49t136.5 18q58 0 102.5 -9t79.5 -23l-19 -139q-29 11 -66.5 18t-77.5 7q-78 0 -110.5 -27.5t-32.5 -69.5q0 -23 4.5 -44.5t11.5 -43.5h242v-122h-212q3 -21 3 -43q0 -45 -18 -78t-50 -53l2 -3
q42 11 88 15.5t94 4.5t90 -3.5t84 -8.5q0 -1 -0.5 -12t-1.5 -27t-1.5 -34.5t-1.5 -34.5t-2 -27.5t-1 -12.5q-63 7 -121 10.5t-120 3.5q-35 0 -68.5 -0.5t-67 -2t-69.5 -3.5t-76 -6l-8 144q44 9 69 43.5t25 76.5q0 14 -1 26.5t-3 24.5h-76z" />
    <glyph glyph-name="currency" unicode="&#xa4;" horiz-adv-x="641" 
d="M127 362q0 52 23 93l-68 71l78 84l73 -74q20 10 41.5 15.5t44.5 5.5t45.5 -5.5t42.5 -15.5l73 74l79 -84l-70 -72q11 -20 17 -43.5t6 -48.5q0 -44 -19 -85l65 -67l-79 -84l-64 65q-44 -25 -96 -25q-51 0 -95 25l-64 -65l-79 84l65 67q-19 40 -19 85zM226 364
q0 -38 27 -63.5t66 -25.5t66 25.5t27 63.5q0 37 -27 63t-66 26t-66 -26t-27 -63z" />
    <glyph glyph-name="yen" unicode="&#xa5;" horiz-adv-x="641" 
d="M194 359l-175 391h184l95 -321l22 -78h3l21 78l95 321h181l-170 -391h90v-92h-128v-39h128v-93h-128v-135h-179v135h-125v93h125v39h-125v92h86z" />
    <glyph glyph-name="brokenbar" unicode="&#xa6;" horiz-adv-x="290" 
d="M85 807h120v-434h-120v434zM85 266h120v-431h-120v431z" />
    <glyph glyph-name="section" unicode="&#xa7;" horiz-adv-x="569" 
d="M45 329q0 42 20 82t63 67q-29 23 -48 52.5t-19 68.5q0 88 62 134t180 46q24 0 51 -2.5t53.5 -8t50.5 -13t44 -17.5l-11 -117q-48 19 -91 27.5t-88 8.5t-67.5 -13.5t-22.5 -37.5q0 -22 23.5 -38t58.5 -31.5t75.5 -33.5t75.5 -44.5t58.5 -63.5t23.5 -90q0 -42 -20.5 -82.5
t-63.5 -67.5q30 -23 49 -52.5t19 -67.5q0 -88 -62 -134t-180 -46q-24 0 -51 2.5t-53 8t-50.5 13t-43.5 17.5l11 117q47 -19 90 -27.5t88 -8.5q90 0 90 52q0 22 -23.5 37.5t-58.5 31t-75.5 33.5t-75.5 44.5t-58.5 63.5t-23.5 90zM387 289q0 19 -11 34.5t-29.5 29t-42.5 26.5
t-50 26l-10 5q-49 -22 -49 -65q0 -19 11 -35t29.5 -29.5t42.5 -26.5t50 -26l10 -5q49 23 49 66z" />
    <glyph glyph-name="dieresis" unicode="&#xa8;" 
d="M178 738q0 -32 -15.5 -48.5t-50.5 -16.5q-33 0 -49 15t-16 50q0 66 65 66q35 0 50.5 -17t15.5 -49zM360 738q0 -32 -15 -48.5t-50 -16.5q-33 0 -49.5 15t-16.5 50q0 66 66 66q35 0 50 -17t15 -49z" />
    <glyph glyph-name="copyright" unicode="&#xa9;" horiz-adv-x="871" 
d="M44 378q0 81 31 152t84 124.5t124.5 84t152.5 30.5t152 -30.5t124.5 -84t84 -124.5t30.5 -152t-30.5 -152t-84 -124.5t-124.5 -84t-152 -30.5t-152.5 30.5t-124.5 84t-84 124.5t-31 152zM122 378q0 -64 24.5 -120.5t66.5 -99t99.5 -67.5t123.5 -25t123 24.5t100 67
t67.5 99t24.5 121.5q0 63 -24.5 119t-67.5 98t-100 66.5t-123 24.5t-123.5 -24.5t-99.5 -66.5t-66.5 -98t-24.5 -119zM594 467q-23 12 -54 20t-59 8q-69 0 -104.5 -33t-35.5 -84q0 -55 37 -87t106 -32q33 0 64 9t51 20l14 -105q-14 -12 -32.5 -23.5t-41 -21t-47.5 -15
t-51 -5.5q-56 0 -103 20t-81 55t-53 82.5t-19 101.5q0 50 17.5 96t51 81t81 56t107.5 21q52 0 93.5 -16t69.5 -39z" />
    <glyph glyph-name="ordfeminine" unicode="&#xaa;" horiz-adv-x="444" 
d="M290 378l-3 1q-40 -49 -114 -49q-65 0 -103 39.5t-38 120.5q0 67 43 109t118 42q45 0 78 -12v23q0 29 -18 43.5t-65 14.5q-34 0 -60 -5.5t-58 -18.5l-10 108q35 14 74 22t82 8q52 0 87.5 -11.5t57.5 -35t31.5 -60t9.5 -86.5v-294h-102zM271 539q-8 3 -21 5.5t-32 2.5
q-62 0 -62 -55q0 -30 14.5 -42t38.5 -12q25 0 43.5 13.5t18.5 33.5v54z" />
    <glyph glyph-name="guillemotleft" unicode="&#xab;" horiz-adv-x="651" 
d="M428 320l160 -101v-120l-313 216v11l313 216v-120zM175 320l160 -101v-120l-313 216v11l313 216v-120z" />
    <glyph glyph-name="logicalnot" unicode="&#xac;" horiz-adv-x="641" 
d="M96 271v134h449v-283h-126v149h-323z" />
    <glyph glyph-name="uni00AD" unicode="&#xad;" horiz-adv-x="390" 
d="M338 398v-112h-286v112h286z" />
    <glyph glyph-name="registered" unicode="&#xae;" horiz-adv-x="440" 
d="M29 640q0 40 15 76t41.5 62t61.5 41.5t75 15.5q39 0 73.5 -15.5t60.5 -41.5t41 -62t15 -76q0 -39 -15 -74t-41 -61.5t-60.5 -41.5t-73.5 -15q-40 0 -75 15t-61.5 41.5t-41.5 61.5t-15 74zM72 641q0 -30 11.5 -57.5t32 -47.5t47.5 -32t58 -12t58 12t47 32t32 47.5t12 57.5
q0 31 -12 58t-32 47t-47 32t-58 12t-58 -12t-47.5 -32t-32 -47t-11.5 -58zM317 678q0 -18 -8 -33t-25 -23l36 -79h-67l-27 70h-28v-70h-64v204h95q48 0 68 -19t20 -50zM256 675q0 20 -26 20h-32v-41h34q12 1 18 7t6 14z" />
    <glyph glyph-name="macron" unicode="&#xaf;" 
d="M364 684h-320v96h320v-96z" />
    <glyph glyph-name="degree" unicode="&#xb0;" horiz-adv-x="344" 
d="M32 675q0 30 11 55.5t30 45t44.5 30.5t54.5 11t54.5 -11t44.5 -30t30 -45t11 -56q0 -29 -11 -55t-30 -45.5t-44.5 -30.5t-54.5 -11t-54.5 11t-44.5 30.5t-30 45.5t-11 55zM102 675q0 -29 20 -48.5t50 -19.5t50.5 19.5t20.5 48.5q0 30 -20.5 49.5t-50.5 19.5
q-31 0 -50.5 -20t-19.5 -49z" />
    <glyph glyph-name="plusminus" unicode="&#xb1;" horiz-adv-x="641" 
d="M388 332v-148h-137v148h-163v132h163v154h137v-154h164v-132h-164zM88 34v116h463v-116h-463z" />
    <glyph glyph-name="twosuperior" unicode="&#xb2;" horiz-adv-x="373" 
d="M341 767q0 -27 -11.5 -50.5t-32.5 -45.5t-50.5 -43.5t-65.5 -45.5v-3h159l-2 -89h-298v70q40 35 74.5 63t59.5 51.5t39 43.5t14 40q0 17 -14 28.5t-47 11.5q-29 0 -54.5 -9t-52.5 -25l-25 84q30 20 68 30.5t85 10.5q79 0 116.5 -34t37.5 -88z" />
    <glyph glyph-name="threesuperior" unicode="&#xb3;" horiz-adv-x="373" 
d="M350 608q0 -58 -41 -90.5t-131 -32.5q-42 0 -78 9t-62 24l23 81q26 -14 55 -21.5t61 -7.5q68 0 68 44q0 10 -4 17.5t-16 13t-33.5 8.5t-55.5 3v73q33 0 53 2.5t31.5 8t15.5 13t4 16.5q0 15 -14.5 24t-47.5 9q-35 0 -62.5 -8t-53.5 -25l-25 79q28 19 65.5 30t79.5 11
q77 0 118.5 -29.5t41.5 -82.5q0 -30 -15 -50t-42 -31v-3q31 -11 48 -31.5t17 -53.5z" />
    <glyph glyph-name="acute" unicode="&#xb4;" 
d="M379 801l-120 -145h-117l59 145h178z" />
    <glyph glyph-name="mu" unicode="&#xb5;" horiz-adv-x="628" 
d="M325 -9q-41 0 -73.5 16.5t-53.5 49.5l-2 -1q3 -54 7 -105t9 -100l-150 -12v767h156v-389q0 -42 28 -65.5t74 -23.5q44 0 71 20t27 62v396h154v-602l-110 -9l-19 43q-22 -22 -51.5 -34.5t-66.5 -12.5z" />
    <glyph glyph-name="paragraph" unicode="&#xb6;" horiz-adv-x="700" 
d="M182 -160v623q-68 3 -111.5 40t-43.5 109q0 60 42 99t119 39h476l-7 -126h-74v-784h-136v784h-130v-784h-135z" />
    <glyph glyph-name="periodcentered" unicode="&#xb7;" horiz-adv-x="296" 
d="M237 346q0 -41 -20.5 -64t-68.5 -23t-69 19.5t-21 67.5q0 42 21 64t69 22t68.5 -22t20.5 -64z" />
    <glyph glyph-name="cedilla" unicode="&#xb8;" 
d="M177 13l103 1l-36 -203h-138z" />
    <glyph glyph-name="onesuperior" unicode="&#xb9;" horiz-adv-x="285" 
d="M230 490h-108v270l-79 -44l-9 88l128 81h68v-395z" />
    <glyph glyph-name="ordmasculine" unicode="&#xba;" horiz-adv-x="487" 
d="M451 577q0 -67 -12 -113.5t-37.5 -76t-64.5 -43t-93 -13.5t-93 13.5t-64.5 43t-38 76t-12.5 113.5q0 133 50.5 190.5t157.5 57.5q54 0 93.5 -13.5t64.5 -43.5t37 -77t12 -114zM172 577q0 -42 4 -68.5t12.5 -41.5t22 -20.5t33.5 -5.5q19 0 33 5.5t22.5 20.5t12.5 41.5
t4 68.5t-4 69t-12.5 42t-22.5 20.5t-33 5.5q-20 0 -33.5 -5.5t-22 -20.5t-12.5 -42t-4 -69z" />
    <glyph glyph-name="guillemotright" unicode="&#xbb;" horiz-adv-x="651" 
d="M309 219l159 101l-159 102v120l312 -216v-11l-312 -216v120zM56 219l159 101l-159 102v120l312 -216v-11l-312 -216v120z" />
    <glyph glyph-name="onequarter" unicode="&#xbc;" horiz-adv-x="975" 
d="M230 356h-108v270l-79 -44l-9 88l128 81h68v-395zM763 750l-498 -750h-109l497 750h110zM921 70v-70h-101v70h-202l-9 61l182 263h130v-238h41l-3 -86h-38zM826 220l5 80h-3l-51 -77l-45 -64l1 -3h91z" />
    <glyph glyph-name="onehalf" unicode="&#xbd;" horiz-adv-x="964" 
d="M230 356h-108v270l-79 -44l-9 88l128 81h68v-395zM763 750l-498 -750h-109l497 750h110zM932 277q0 -27 -11.5 -50.5t-32.5 -45.5t-50.5 -43.5t-65.5 -45.5v-3h159l-2 -89h-298v70q40 35 74.5 63t59.5 51.5t39 43.5t14 40q0 17 -14 28.5t-47 11.5q-29 0 -54.5 -9
t-52.5 -25l-25 84q30 20 68 30.5t85 10.5q79 0 116.5 -34t37.5 -88z" />
    <glyph glyph-name="threequarters" unicode="&#xbe;" horiz-adv-x="1063" 
d="M350 474q0 -58 -41 -90.5t-131 -32.5q-42 0 -78 9t-62 24l23 81q26 -14 55 -21.5t61 -7.5q68 0 68 44q0 10 -4 17.5t-16 13t-33.5 8.5t-55.5 3v73q33 0 53 2.5t31.5 8t15.5 13t4 16.5q0 15 -14.5 24t-47.5 9q-35 0 -62.5 -8t-53.5 -25l-25 79q28 19 65.5 30t79.5 11
q77 0 118.5 -29.5t41.5 -82.5q0 -30 -15 -50t-42 -31v-3q31 -11 48 -31.5t17 -53.5zM851 750l-498 -750h-109l497 750h110zM1009 70v-70h-101v70h-202l-9 61l182 263h130v-238h41l-3 -86h-38zM914 220l5 80h-3l-51 -77l-45 -64l1 -3h91z" />
    <glyph glyph-name="questiondown" unicode="&#xbf;" horiz-adv-x="489" 
d="M27 89q0 83 45 140t125 99l6 112h122l8 -169q-65 -35 -105.5 -71.5t-40.5 -85.5q0 -35 24.5 -53t70.5 -18q45 0 83 14.5t67 40.5l55 -125q-38 -32 -98 -53t-129 -21q-117 0 -175 51t-58 139zM177 593q0 36 21 57t66 21q46 0 67 -18t21 -60q0 -38 -21 -58.5t-67 -20.5
q-45 0 -66 20.5t-21 58.5z" />
    <glyph glyph-name="Agrave" unicode="&#xc0;" horiz-adv-x="734" 
d="M498 146h-272l-42 -146h-178l259 750h201l262 -750h-188zM342 544l-75 -257h191l-72 257l-20 79h-3zM318 794l-128 120h184l70 -120h-126z" />
    <glyph glyph-name="Aacute" unicode="&#xc1;" horiz-adv-x="734" 
d="M498 146h-272l-42 -146h-178l259 750h201l262 -750h-188zM342 544l-75 -257h191l-72 257l-20 79h-3zM549 913l-139 -121h-124l65 121h198z" />
    <glyph glyph-name="Acircumflex" unicode="&#xc2;" horiz-adv-x="734" 
d="M498 146h-272l-42 -146h-178l259 750h201l262 -750h-188zM342 544l-75 -257h191l-72 257l-20 79h-3zM446 913l107 -121h-136l-53 57l-52 -57h-134l103 121h165z" />
    <glyph glyph-name="Atilde" unicode="&#xc3;" horiz-adv-x="734" 
d="M498 146h-272l-42 -146h-178l259 750h201l262 -750h-188zM342 544l-75 -257h191l-72 257l-20 79h-3zM193 796q2 54 29 87t75 33q25 0 45.5 -6.5t38 -14t31.5 -14t27 -6.5q14 0 21 6.5t10 23.5l68 -1q-2 -55 -30.5 -87.5t-74.5 -32.5q-25 0 -44.5 6.5t-36 14t-30 14
t-26.5 6.5q-12 0 -21 -8t-11 -22z" />
    <glyph glyph-name="Adieresis" unicode="&#xc4;" horiz-adv-x="734" 
d="M498 146h-272l-42 -146h-178l259 750h201l262 -750h-188zM342 544l-75 -257h191l-72 257l-20 79h-3zM330 853q0 -30 -15 -45.5t-49 -15.5q-33 0 -49.5 14t-16.5 47q0 63 66 63q34 0 49 -16t15 -47zM529 853q0 -61 -65 -61q-33 0 -49 14t-16 47q0 63 65 63t65 -63z" />
    <glyph glyph-name="Aring" unicode="&#xc5;" horiz-adv-x="734" 
d="M233 803q0 46 28 73.5t100 27.5q71 0 101.5 -28t30.5 -72q0 -46 -22 -69l257 -735h-188l-42 146h-272l-42 -146h-178l252 730q-25 24 -25 73zM342 544l-75 -257h191l-72 257l-20 79h-3zM313 798q0 -16 10 -24.5t42 -8.5q28 0 39 8t11 25t-10.5 26.5t-39.5 9.5
q-32 0 -42 -9.5t-10 -26.5z" />
    <glyph glyph-name="AE" unicode="&#xc6;" horiz-adv-x="1064" 
d="M687 601l9 -149h266v-134h-257l10 -171h315l-4 -147h-472l-9 148h-258l-69 -148h-199l404 750h592l3 -149h-331zM483 563l-131 -277h185l-15 269l-3 81l-3 1z" />
    <glyph glyph-name="Ccedilla" unicode="&#xc7;" horiz-adv-x="597" 
d="M321 -11q-141 16 -209.5 111.5t-68.5 279.5q0 187 84 285t264 98q22 0 46 -2.5t47 -6.5t44 -10t37 -12l-17 -145q-29 11 -67 18t-80 7q-51 0 -85.5 -11.5t-56 -38.5t-30.5 -71.5t-9 -111.5q0 -71 9.5 -117.5t31 -75t57 -40t86.5 -11.5q42 0 78 7.5t68 21.5l17 -137
q-28 -14 -64.5 -23.5t-74.5 -14.5l-31 -178h-138z" />
    <glyph glyph-name="Egrave" unicode="&#xc8;" horiz-adv-x="619" 
d="M585 147l-4 -147h-510v750h495l3 -149h-329v-149h277v-134h-277v-171h345zM281 794l-128 120h184l70 -120h-126z" />
    <glyph glyph-name="Eacute" unicode="&#xc9;" horiz-adv-x="619" 
d="M585 147l-4 -147h-510v750h495l3 -149h-329v-149h277v-134h-277v-171h345zM511 913l-139 -121h-124l65 121h198z" />
    <glyph glyph-name="Ecircumflex" unicode="&#xca;" horiz-adv-x="619" 
d="M585 147l-4 -147h-510v750h495l3 -149h-329v-149h277v-134h-277v-171h345zM408 913l107 -121h-136l-53 57l-52 -57h-134l103 121h165z" />
    <glyph glyph-name="Edieresis" unicode="&#xcb;" horiz-adv-x="619" 
d="M585 147l-4 -147h-510v750h495l3 -149h-329v-149h277v-134h-277v-171h345zM293 853q0 -30 -15 -45.5t-49 -15.5q-33 0 -49.5 14t-16.5 47q0 63 66 63q34 0 49 -16t15 -47zM492 853q0 -61 -65 -61q-33 0 -49 14t-16 47q0 63 65 63t65 -63z" />
    <glyph glyph-name="Igrave" unicode="&#xcc;" horiz-adv-x="336" 
d="M82 750h172v-750h-172v750zM122 794l-128 120h184l70 -120h-126z" />
    <glyph glyph-name="Iacute" unicode="&#xcd;" horiz-adv-x="336" 
d="M82 750h172v-750h-172v750zM353 913l-139 -121h-124l65 121h198z" />
    <glyph glyph-name="Icircumflex" unicode="&#xce;" horiz-adv-x="336" 
d="M82 750h172v-750h-172v750zM250 913l107 -121h-136l-53 57l-52 -57h-134l103 121h165z" />
    <glyph glyph-name="Idieresis" unicode="&#xcf;" horiz-adv-x="336" 
d="M82 750h172v-750h-172v750zM134 853q0 -30 -15 -45.5t-49 -15.5q-33 0 -49.5 14t-16.5 47q0 63 66 63q34 0 49 -16t15 -47zM333 853q0 -61 -65 -61q-33 0 -49 14t-16 47q0 63 65 63t65 -63z" />
    <glyph glyph-name="Eth" unicode="&#xd0;" horiz-adv-x="742" 
d="M699 378q0 -102 -21 -173.5t-63 -117t-105 -66.5t-146 -21h-283v339h-59v100h59v311h281q89 0 153 -21.5t105 -67t60 -116t19 -167.5zM522 379q0 67 -8.5 109.5t-28 67t-50 34t-75.5 9.5h-110v-160h83v-100h-83v-189h111q43 0 73.5 9t50 33.5t28.5 69.5t9 117z" />
    <glyph glyph-name="Ntilde" unicode="&#xd1;" horiz-adv-x="747" 
d="M558 0l-291 409l-45 67l-2 -1l1 -81v-394h-150v750h144l267 -387l45 -67l2 1l-2 80v373h149v-750h-118zM205 796q2 54 29 87t75 33q25 0 45.5 -6.5t38 -14t31.5 -14t27 -6.5q14 0 21 6.5t10 23.5l68 -1q-2 -55 -30.5 -87.5t-74.5 -32.5q-25 0 -44.5 6.5t-36 14t-30 14
t-26.5 6.5q-12 0 -21 -8t-11 -22z" />
    <glyph glyph-name="Ograve" unicode="&#xd2;" horiz-adv-x="748" 
d="M704 375q0 -102 -18.5 -175.5t-58.5 -121t-102.5 -70t-150.5 -22.5q-173 0 -252 94.5t-79 294.5q0 100 19 173t59 120.5t102.5 70.5t150.5 23t150.5 -23t102.5 -70.5t58.5 -120.5t18.5 -173zM528 375q0 71 -8 117t-26 72.5t-47.5 36.5t-72.5 10t-72.5 -10t-47.5 -36.5
t-26 -72.5t-8 -117t8 -117t26.5 -73t48 -37.5t72.5 -10.5q42 0 71.5 10.5t47.5 37.5t26 73t8 117zM340 794l-128 120h184l70 -120h-126z" />
    <glyph glyph-name="Oacute" unicode="&#xd3;" horiz-adv-x="748" 
d="M704 375q0 -102 -18.5 -175.5t-58.5 -121t-102.5 -70t-150.5 -22.5q-173 0 -252 94.5t-79 294.5q0 100 19 173t59 120.5t102.5 70.5t150.5 23t150.5 -23t102.5 -70.5t58.5 -120.5t18.5 -173zM528 375q0 71 -8 117t-26 72.5t-47.5 36.5t-72.5 10t-72.5 -10t-47.5 -36.5
t-26 -72.5t-8 -117t8 -117t26.5 -73t48 -37.5t72.5 -10.5q42 0 71.5 10.5t47.5 37.5t26 73t8 117zM559 913l-139 -121h-124l65 121h198z" />
    <glyph glyph-name="Ocircumflex" unicode="&#xd4;" horiz-adv-x="748" 
d="M704 375q0 -102 -18.5 -175.5t-58.5 -121t-102.5 -70t-150.5 -22.5q-173 0 -252 94.5t-79 294.5q0 100 19 173t59 120.5t102.5 70.5t150.5 23t150.5 -23t102.5 -70.5t58.5 -120.5t18.5 -173zM528 375q0 71 -8 117t-26 72.5t-47.5 36.5t-72.5 10t-72.5 -10t-47.5 -36.5
t-26 -72.5t-8 -117t8 -117t26.5 -73t48 -37.5t72.5 -10.5q42 0 71.5 10.5t47.5 37.5t26 73t8 117zM456 913l107 -121h-136l-53 57l-52 -57h-134l103 121h165z" />
    <glyph glyph-name="Otilde" unicode="&#xd5;" horiz-adv-x="748" 
d="M704 375q0 -102 -18.5 -175.5t-58.5 -121t-102.5 -70t-150.5 -22.5q-173 0 -252 94.5t-79 294.5q0 100 19 173t59 120.5t102.5 70.5t150.5 23t150.5 -23t102.5 -70.5t58.5 -120.5t18.5 -173zM528 375q0 71 -8 117t-26 72.5t-47.5 36.5t-72.5 10t-72.5 -10t-47.5 -36.5
t-26 -72.5t-8 -117t8 -117t26.5 -73t48 -37.5t72.5 -10.5q42 0 71.5 10.5t47.5 37.5t26 73t8 117zM204 796q2 54 29 87t75 33q25 0 45.5 -6.5t38 -14t31.5 -14t27 -6.5q14 0 21 6.5t10 23.5l68 -1q-2 -55 -30.5 -87.5t-74.5 -32.5q-25 0 -44.5 6.5t-36 14t-30 14t-26.5 6.5
q-12 0 -21 -8t-11 -22z" />
    <glyph glyph-name="Odieresis" unicode="&#xd6;" horiz-adv-x="748" 
d="M704 375q0 -102 -18.5 -175.5t-58.5 -121t-102.5 -70t-150.5 -22.5q-173 0 -252 94.5t-79 294.5q0 100 19 173t59 120.5t102.5 70.5t150.5 23t150.5 -23t102.5 -70.5t58.5 -120.5t18.5 -173zM528 375q0 71 -8 117t-26 72.5t-47.5 36.5t-72.5 10t-72.5 -10t-47.5 -36.5
t-26 -72.5t-8 -117t8 -117t26.5 -73t48 -37.5t72.5 -10.5q42 0 71.5 10.5t47.5 37.5t26 73t8 117zM341 853q0 -30 -15 -45.5t-49 -15.5q-33 0 -49.5 14t-16.5 47q0 63 66 63q34 0 49 -16t15 -47zM540 853q0 -61 -65 -61q-33 0 -49 14t-16 47q0 63 65 63t65 -63z" />
    <glyph glyph-name="multiply" unicode="&#xd7;" horiz-adv-x="602" 
d="M434 101l-133 131l-133 -131l-90 95l134 131l-136 133l90 97l136 -134l135 133l89 -95l-136 -134l134 -130z" />
    <glyph glyph-name="Oslash" unicode="&#xd8;" horiz-adv-x="748" 
d="M33 55l57 71q-47 91 -47 249q0 100 18.5 173t58.5 120.5t103 70.5t151 23q141 0 218 -61l53 63l78 -75l-62 -75q43 -89 43 -239q0 -102 -18.5 -175.5t-58.5 -121t-102.5 -70t-150.5 -22.5q-137 0 -213 57l-48 -60zM220 375q0 -32 1.5 -59t3.5 -50l264 304q-18 23 -46 32
t-70 9t-71.5 -10t-47.5 -36.5t-26 -72.5t-8 -117zM527 375q0 29 -1 53.5t-2 45.5l-262 -300q19 -21 46.5 -29t65.5 -8q43 0 72 10.5t47 37.5t26 73t8 117z" />
    <glyph glyph-name="Ugrave" unicode="&#xd9;" horiz-adv-x="726" 
d="M665 268q0 -282 -301 -282q-149 0 -226 69.5t-77 212.5v482h168v-480q0 -69 32 -100t103 -31t102.5 31t31.5 100v480h167v-482zM318 794l-128 120h184l70 -120h-126z" />
    <glyph glyph-name="Uacute" unicode="&#xda;" horiz-adv-x="726" 
d="M665 268q0 -282 -301 -282q-149 0 -226 69.5t-77 212.5v482h168v-480q0 -69 32 -100t103 -31t102.5 31t31.5 100v480h167v-482zM549 913l-139 -121h-124l65 121h198z" />
    <glyph glyph-name="Ucircumflex" unicode="&#xdb;" horiz-adv-x="726" 
d="M665 268q0 -282 -301 -282q-149 0 -226 69.5t-77 212.5v482h168v-480q0 -69 32 -100t103 -31t102.5 31t31.5 100v480h167v-482zM445 913l107 -121h-136l-53 57l-52 -57h-134l103 121h165z" />
    <glyph glyph-name="Udieresis" unicode="&#xdc;" horiz-adv-x="726" 
d="M665 268q0 -282 -301 -282q-149 0 -226 69.5t-77 212.5v482h168v-480q0 -69 32 -100t103 -31t102.5 31t31.5 100v480h167v-482zM330 853q0 -30 -15 -45.5t-49 -15.5q-33 0 -49.5 14t-16.5 47q0 63 66 63q34 0 49 -16t15 -47zM529 853q0 -61 -65 -61q-33 0 -49 14t-16 47
q0 63 65 63t65 -63z" />
    <glyph glyph-name="Yacute" unicode="&#xdd;" horiz-adv-x="698" 
d="M196 750l126 -284l31 -74h3l30 75l121 283h185l-255 -511v-239h-172v239l-259 511h190zM537 913l-139 -121h-124l65 121h198z" />
    <glyph glyph-name="Thorn" unicode="&#xde;" horiz-adv-x="665" 
d="M633 378q0 -60 -16.5 -106t-53 -78t-94.5 -48.5t-140 -16.5h-89v-129h-169v750h169v-115h89q82 0 139.5 -15.5t94 -47.5t53.5 -80t17 -114zM459 379q0 33 -6.5 55.5t-22 35.5t-40.5 18.5t-61 5.5h-89v-230h89q35 0 59.5 4.5t40.5 17.5t23 35.5t7 57.5z" />
    <glyph glyph-name="germandbls" unicode="&#xdf;" horiz-adv-x="657" 
d="M67 489q0 274 257 274q49 0 88.5 -13.5t67.5 -36.5t43.5 -54t15.5 -67q0 -32 -14.5 -56.5t-31.5 -43.5t-31.5 -33.5t-14.5 -27.5q0 -10 13.5 -19.5t33.5 -22t43.5 -28t43.5 -38t33.5 -52t13.5 -69.5q0 -49 -17 -88t-48 -66.5t-75 -42t-97 -14.5q-35 0 -74.5 7.5
t-66.5 24.5l9 131q17 -11 46 -18.5t59 -7.5q45 0 75.5 16t30.5 54q0 23 -14 41t-35 34t-46 30t-46 30t-35 35t-14 43q0 27 17 50t38 44t38 41t17 41t-18.5 34t-51.5 13q-51 0 -74.5 -30t-23.5 -101v-503h-155v489z" />
    <glyph glyph-name="agrave" unicode="&#xe0;" horiz-adv-x="581" 
d="M394 58l-3 1q-28 -33 -70 -51t-94 -18q-86 0 -137 49.5t-51 151.5q0 42 14.5 77t42 59.5t67.5 38.5t92 14q34 0 63 -4.5t53 -12.5v35q0 46 -26 67.5t-89 21.5q-50 0 -87.5 -8t-79.5 -25l-13 124q46 20 97.5 30t110.5 10q67 0 113 -14.5t74.5 -44.5t41 -76t12.5 -108v-375
h-119zM371 260q-11 5 -33 9t-53 4q-101 0 -101 -80q0 -45 24 -62.5t62 -17.5q20 0 38 5.5t32 15.5t22.5 22.5t8.5 27.5v76zM245 656l-120 145h177l60 -145h-117z" />
    <glyph glyph-name="aacute" unicode="&#xe1;" horiz-adv-x="581" 
d="M394 58l-3 1q-28 -33 -70 -51t-94 -18q-86 0 -137 49.5t-51 151.5q0 42 14.5 77t42 59.5t67.5 38.5t92 14q34 0 63 -4.5t53 -12.5v35q0 46 -26 67.5t-89 21.5q-50 0 -87.5 -8t-79.5 -25l-13 124q46 20 97.5 30t110.5 10q67 0 113 -14.5t74.5 -44.5t41 -76t12.5 -108v-375
h-119zM371 260q-11 5 -33 9t-53 4q-101 0 -101 -80q0 -45 24 -62.5t62 -17.5q20 0 38 5.5t32 15.5t22.5 22.5t8.5 27.5v76zM443 801l-120 -145h-117l59 145h178z" />
    <glyph glyph-name="acircumflex" unicode="&#xe2;" horiz-adv-x="581" 
d="M394 58l-3 1q-28 -33 -70 -51t-94 -18q-86 0 -137 49.5t-51 151.5q0 42 14.5 77t42 59.5t67.5 38.5t92 14q34 0 63 -4.5t53 -12.5v35q0 46 -26 67.5t-89 21.5q-50 0 -87.5 -8t-79.5 -25l-13 124q46 20 97.5 30t110.5 10q67 0 113 -14.5t74.5 -44.5t41 -76t12.5 -108v-375
h-119zM371 260q-11 5 -33 9t-53 4q-101 0 -101 -80q0 -45 24 -62.5t62 -17.5q20 0 38 5.5t32 15.5t22.5 22.5t8.5 27.5v76zM354 801l100 -145h-115l-52 82l-51 -82h-115l98 145h135z" />
    <glyph glyph-name="atilde" unicode="&#xe3;" horiz-adv-x="581" 
d="M394 58l-3 1q-28 -33 -70 -51t-94 -18q-86 0 -137 49.5t-51 151.5q0 42 14.5 77t42 59.5t67.5 38.5t92 14q34 0 63 -4.5t53 -12.5v35q0 46 -26 67.5t-89 21.5q-50 0 -87.5 -8t-79.5 -25l-13 124q46 20 97.5 30t110.5 10q67 0 113 -14.5t74.5 -44.5t41 -76t12.5 -108v-375
h-119zM371 260q-11 5 -33 9t-53 4q-101 0 -101 -80q0 -45 24 -62.5t62 -17.5q20 0 38 5.5t32 15.5t22.5 22.5t8.5 27.5v76zM120 669q2 58 29.5 96t73.5 38q25 0 43.5 -8t33.5 -18t28 -18t29 -8q14 0 22 11t13 30l71 -1q-2 -60 -30.5 -96.5t-73.5 -36.5q-25 0 -43 8t-33 18
t-28.5 18t-28.5 8q-14 0 -22.5 -12.5t-12.5 -29.5z" />
    <glyph glyph-name="adieresis" unicode="&#xe4;" horiz-adv-x="581" 
d="M394 58l-3 1q-28 -33 -70 -51t-94 -18q-86 0 -137 49.5t-51 151.5q0 42 14.5 77t42 59.5t67.5 38.5t92 14q34 0 63 -4.5t53 -12.5v35q0 46 -26 67.5t-89 21.5q-50 0 -87.5 -8t-79.5 -25l-13 124q46 20 97.5 30t110.5 10q67 0 113 -14.5t74.5 -44.5t41 -76t12.5 -108v-375
h-119zM371 260q-11 5 -33 9t-53 4q-101 0 -101 -80q0 -45 24 -62.5t62 -17.5q20 0 38 5.5t32 15.5t22.5 22.5t8.5 27.5v76zM266 738q0 -32 -15.5 -48.5t-50.5 -16.5q-33 0 -49 15t-16 50q0 66 65 66q35 0 50.5 -17t15.5 -49zM448 738q0 -32 -15 -48.5t-50 -16.5
q-33 0 -49.5 15t-16.5 50q0 66 66 66q35 0 50 -17t15 -49z" />
    <glyph glyph-name="aring" unicode="&#xe5;" horiz-adv-x="581" 
d="M394 58l-3 1q-28 -33 -70 -51t-94 -18q-86 0 -137 49.5t-51 151.5q0 42 14.5 77t42 59.5t67.5 38.5t92 14q34 0 63 -4.5t53 -12.5v35q0 46 -26 67.5t-89 21.5q-50 0 -87.5 -8t-79.5 -25l-13 124q46 20 97.5 30t110.5 10q67 0 113 -14.5t74.5 -44.5t41 -76t12.5 -108v-375
h-119zM371 260q-11 5 -33 9t-53 4q-101 0 -101 -80q0 -45 24 -62.5t62 -17.5q20 0 38 5.5t32 15.5t22.5 22.5t8.5 27.5v76zM164 743q0 42 28.5 66t96.5 24q66 0 96 -25t30 -65q0 -46 -30 -68t-96 -22q-63 0 -94 20.5t-31 69.5zM239 742q0 -14 10.5 -22.5t41.5 -8.5
q27 0 39 8t12 23q0 14 -11 22.5t-40 8.5q-30 0 -41 -8.5t-11 -22.5z" />
    <glyph glyph-name="ae" unicode="&#xe6;" horiz-adv-x="909" 
d="M284 616q68 0 110.5 -16t66.5 -48q32 31 74.5 48t99.5 17q53 0 97.5 -17t76 -52t49 -88t17.5 -125q0 -17 -1 -37t-3 -36h-353q6 -76 44.5 -107.5t116.5 -31.5q43 0 83.5 8.5t78.5 23.5l17 -127q-38 -17 -89 -28t-109 -11q-86 0 -139.5 24t-85.5 64q-32 -42 -81 -65
t-112 -23q-98 0 -150.5 49t-52.5 152q0 42 14.5 76.5t42 59.5t67.5 38.5t92 13.5q35 0 63 -4.5t53 -11.5v35q0 46 -26 67.5t-89 21.5q-50 0 -87.5 -8t-79.5 -25l-13 124q47 19 98 29t110 10zM371 259q-11 5 -33 9t-53 4q-101 0 -101 -80q0 -45 24 -62.5t62 -17.5q43 0 72 22
t29 58v67zM733 365q-2 67 -30.5 95t-76.5 28q-56 0 -81 -28.5t-30 -94.5h218z" />
    <glyph glyph-name="ccedilla" unicode="&#xe7;" horiz-adv-x="493" 
d="M249 -7q-106 16 -160 92t-54 217q0 75 16 133.5t49.5 98.5t86 61t125.5 21q38 0 77.5 -7.5t68.5 -18.5l-9 -132q-23 8 -50 13.5t-53 5.5q-42 0 -71 -9.5t-46.5 -30t-25 -54t-7.5 -81.5q0 -98 38 -139.5t109 -41.5q61 0 110 23l11 -121q-41 -26 -109 -32l-32 -180h-138z
" />
    <glyph glyph-name="egrave" unicode="&#xe8;" horiz-adv-x="586" 
d="M337 -11q-157 0 -229.5 81.5t-72.5 240.5q0 145 65 225.5t202 80.5q116 0 183 -69t67 -213q0 -17 -1 -37t-3 -36h-353q6 -76 44.5 -107.5t116.5 -31.5q84 0 162 30l17 -125q-38 -17 -89 -28t-109 -11zM410 365q-2 67 -30 95t-77 28q-56 0 -81 -28.5t-30 -94.5h218z
M260 656l-120 145h177l60 -145h-117z" />
    <glyph glyph-name="eacute" unicode="&#xe9;" horiz-adv-x="586" 
d="M337 -11q-157 0 -229.5 81.5t-72.5 240.5q0 145 65 225.5t202 80.5q116 0 183 -69t67 -213q0 -17 -1 -37t-3 -36h-353q6 -76 44.5 -107.5t116.5 -31.5q84 0 162 30l17 -125q-38 -17 -89 -28t-109 -11zM410 365q-2 67 -30 95t-77 28q-56 0 -81 -28.5t-30 -94.5h218z
M458 801l-120 -145h-117l59 145h178z" />
    <glyph glyph-name="ecircumflex" unicode="&#xea;" horiz-adv-x="586" 
d="M337 -11q-157 0 -229.5 81.5t-72.5 240.5q0 145 65 225.5t202 80.5q116 0 183 -69t67 -213q0 -17 -1 -37t-3 -36h-353q6 -76 44.5 -107.5t116.5 -31.5q84 0 162 30l17 -125q-38 -17 -89 -28t-109 -11zM410 365q-2 67 -30 95t-77 28q-56 0 -81 -28.5t-30 -94.5h218z
M369 801l100 -145h-115l-52 82l-51 -82h-115l98 145h135z" />
    <glyph glyph-name="edieresis" unicode="&#xeb;" horiz-adv-x="586" 
d="M337 -11q-157 0 -229.5 81.5t-72.5 240.5q0 145 65 225.5t202 80.5q116 0 183 -69t67 -213q0 -17 -1 -37t-3 -36h-353q6 -76 44.5 -107.5t116.5 -31.5q84 0 162 30l17 -125q-38 -17 -89 -28t-109 -11zM410 365q-2 67 -30 95t-77 28q-56 0 -81 -28.5t-30 -94.5h218z
M268 738q0 -32 -15.5 -48.5t-50.5 -16.5q-33 0 -49 15t-16 50q0 66 65 66q35 0 50.5 -17t15.5 -49zM450 738q0 -32 -15 -48.5t-50 -16.5q-33 0 -49.5 15t-16.5 50q0 66 66 66q35 0 50 -17t15 -49z" />
    <glyph glyph-name="igrave" unicode="&#xec;" horiz-adv-x="319" 
d="M80 0v602l159 7v-609h-159zM121 656l-120 145h177l60 -145h-117z" />
    <glyph glyph-name="iacute" unicode="&#xed;" horiz-adv-x="319" 
d="M80 0v602l159 7v-609h-159zM319 801l-120 -145h-117l59 145h178z" />
    <glyph glyph-name="icircumflex" unicode="&#xee;" horiz-adv-x="319" 
d="M80 0v602l159 7v-609h-159zM230 801l100 -145h-115l-52 82l-51 -82h-115l98 145h135z" />
    <glyph glyph-name="idieresis" unicode="&#xef;" horiz-adv-x="319" 
d="M80 0v602l159 7v-609h-159zM140 738q0 -32 -15.5 -48.5t-50.5 -16.5q-33 0 -49 15t-16 50q0 66 65 66q35 0 50.5 -17t15.5 -49zM322 738q0 -32 -15 -48.5t-50 -16.5q-33 0 -49.5 15t-16.5 50q0 66 66 66q35 0 50 -17t15 -49z" />
    <glyph glyph-name="eth" unicode="&#xf0;" horiz-adv-x="625" 
d="M420 687q36 -35 67 -76.5t54 -86.5t36 -93t13 -96q0 -93 -17.5 -159t-52 -107.5t-86.5 -60.5t-120 -19q-62 0 -113.5 14t-88 47.5t-57 90t-20.5 141.5q0 133 59.5 199.5t177.5 66.5q72 0 124 -26l2 2q-37 55 -85 99l-89 -54l-54 60l75 47q-21 14 -42.5 26.5t-43.5 24.5
l108 71q45 -23 86 -54l85 53l52 -67zM196 276q0 -48 7.5 -78.5t21.5 -48.5t35.5 -24.5t48.5 -6.5q61 0 90.5 42t29.5 140q0 64 -30 91t-89 27q-63 0 -88.5 -31.5t-25.5 -110.5z" />
    <glyph glyph-name="ntilde" unicode="&#xf1;" horiz-adv-x="629" 
d="M418 0v386q0 51 -25 72.5t-73 21.5q-29 0 -57.5 -12t-44.5 -34v-434h-156v603l112 7l23 -52q34 29 76.5 44.5t90.5 15.5q97 0 153 -59t56 -173v-386h-155zM153 669q2 58 29.5 96t73.5 38q25 0 43.5 -8t33.5 -18t28 -18t29 -8q14 0 22 11t13 30l71 -1q-2 -60 -30.5 -96.5
t-73.5 -36.5q-25 0 -43 8t-33 18t-28.5 18t-28.5 8q-14 0 -22.5 -12.5t-12.5 -29.5z" />
    <glyph glyph-name="ograve" unicode="&#xf2;" horiz-adv-x="624" 
d="M590 301q0 -84 -16 -143.5t-50 -97.5t-86.5 -56t-124.5 -18t-124.5 18t-86.5 56t-50.5 97.5t-16.5 143.5q0 166 67 241t211 75q72 0 124.5 -18t86.5 -56.5t50 -98.5t16 -143zM196 301q0 -56 6.5 -92.5t20.5 -57.5t36 -29.5t54 -8.5t54 8.5t36 30t20 57.5t6 92
q0 55 -6 91.5t-20 58t-36 30t-54 8.5t-54.5 -8.5t-36.5 -30t-20 -58t-6 -91.5zM271 656l-120 145h177l60 -145h-117z" />
    <glyph glyph-name="oacute" unicode="&#xf3;" horiz-adv-x="624" 
d="M590 301q0 -84 -16 -143.5t-50 -97.5t-86.5 -56t-124.5 -18t-124.5 18t-86.5 56t-50.5 97.5t-16.5 143.5q0 166 67 241t211 75q72 0 124.5 -18t86.5 -56.5t50 -98.5t16 -143zM196 301q0 -56 6.5 -92.5t20.5 -57.5t36 -29.5t54 -8.5t54 8.5t36 30t20 57.5t6 92
q0 55 -6 91.5t-20 58t-36 30t-54 8.5t-54.5 -8.5t-36.5 -30t-20 -58t-6 -91.5zM469 801l-120 -145h-117l59 145h178z" />
    <glyph glyph-name="ocircumflex" unicode="&#xf4;" horiz-adv-x="624" 
d="M590 301q0 -84 -16 -143.5t-50 -97.5t-86.5 -56t-124.5 -18t-124.5 18t-86.5 56t-50.5 97.5t-16.5 143.5q0 166 67 241t211 75q72 0 124.5 -18t86.5 -56.5t50 -98.5t16 -143zM196 301q0 -56 6.5 -92.5t20.5 -57.5t36 -29.5t54 -8.5t54 8.5t36 30t20 57.5t6 92
q0 55 -6 91.5t-20 58t-36 30t-54 8.5t-54.5 -8.5t-36.5 -30t-20 -58t-6 -91.5zM379 801l100 -145h-115l-52 82l-51 -82h-115l98 145h135z" />
    <glyph glyph-name="otilde" unicode="&#xf5;" horiz-adv-x="624" 
d="M590 301q0 -84 -16 -143.5t-50 -97.5t-86.5 -56t-124.5 -18t-124.5 18t-86.5 56t-50.5 97.5t-16.5 143.5q0 166 67 241t211 75q72 0 124.5 -18t86.5 -56.5t50 -98.5t16 -143zM196 301q0 -56 6.5 -92.5t20.5 -57.5t36 -29.5t54 -8.5t54 8.5t36 30t20 57.5t6 92
q0 55 -6 91.5t-20 58t-36 30t-54 8.5t-54.5 -8.5t-36.5 -30t-20 -58t-6 -91.5zM145 669q2 58 29.5 96t73.5 38q25 0 43.5 -8t33.5 -18t28 -18t29 -8q14 0 22 11t13 30l71 -1q-2 -60 -30.5 -96.5t-73.5 -36.5q-25 0 -43 8t-33 18t-28.5 18t-28.5 8q-14 0 -22.5 -12.5
t-12.5 -29.5z" />
    <glyph glyph-name="odieresis" unicode="&#xf6;" horiz-adv-x="624" 
d="M590 301q0 -84 -16 -143.5t-50 -97.5t-86.5 -56t-124.5 -18t-124.5 18t-86.5 56t-50.5 97.5t-16.5 143.5q0 166 67 241t211 75q72 0 124.5 -18t86.5 -56.5t50 -98.5t16 -143zM196 301q0 -56 6.5 -92.5t20.5 -57.5t36 -29.5t54 -8.5t54 8.5t36 30t20 57.5t6 92
q0 55 -6 91.5t-20 58t-36 30t-54 8.5t-54.5 -8.5t-36.5 -30t-20 -58t-6 -91.5zM287 738q0 -32 -15.5 -48.5t-50.5 -16.5q-33 0 -49 15t-16 50q0 66 65 66q35 0 50.5 -17t15.5 -49zM469 738q0 -32 -15 -48.5t-50 -16.5q-33 0 -49.5 15t-16.5 50q0 66 66 66q35 0 50 -17
t15 -49z" />
    <glyph glyph-name="divide" unicode="&#xf7;" horiz-adv-x="602" 
d="M397 526q0 -76 -96 -76q-47 0 -71.5 16t-24.5 60q0 38 24.5 57.5t71.5 19.5q96 0 96 -77zM397 145q0 -75 -96 -75q-47 0 -71.5 15.5t-24.5 59.5q0 38 24.5 57.5t71.5 19.5q96 0 96 -77zM58 264v143h486v-143h-486z" />
    <glyph glyph-name="oslash" unicode="&#xf8;" horiz-adv-x="624" 
d="M31 46l43 53q-20 37 -29.5 87t-9.5 115q0 166 67 241t211 75q107 0 169 -40l37 45l65 -59l-40 -50q45 -73 45 -212q0 -84 -16 -143.5t-49.5 -97.5t-86 -56t-124.5 -18q-116 0 -180 45l-37 -45zM429 301q0 23 -1 42t-1 36l-207 -225q14 -23 37 -32t56 -9q32 0 54 8.5
t36 30t20 57.5t6 92zM195 301q0 -18 0.5 -33t0.5 -29l202 218q-14 17 -35 24.5t-50 7.5q-32 0 -54.5 -8.5t-36.5 -30t-20.5 -58t-6.5 -91.5z" />
    <glyph glyph-name="ugrave" unicode="&#xf9;" horiz-adv-x="622" 
d="M567 214q0 -111 -62.5 -168t-192.5 -57t-192.5 58t-62.5 167v392h155v-389q0 -91 100 -91t100 91v389h155v-392zM271 656l-120 145h177l60 -145h-117z" />
    <glyph glyph-name="uacute" unicode="&#xfa;" horiz-adv-x="622" 
d="M567 214q0 -111 -62.5 -168t-192.5 -57t-192.5 58t-62.5 167v392h155v-389q0 -91 100 -91t100 91v389h155v-392zM468 801l-120 -145h-117l59 145h178z" />
    <glyph glyph-name="ucircumflex" unicode="&#xfb;" horiz-adv-x="622" 
d="M567 214q0 -111 -62.5 -168t-192.5 -57t-192.5 58t-62.5 167v392h155v-389q0 -91 100 -91t100 91v389h155v-392zM379 801l100 -145h-115l-52 82l-51 -82h-115l98 145h135z" />
    <glyph glyph-name="udieresis" unicode="&#xfc;" horiz-adv-x="622" 
d="M567 214q0 -111 -62.5 -168t-192.5 -57t-192.5 58t-62.5 167v392h155v-389q0 -91 100 -91t100 91v389h155v-392zM286 738q0 -32 -15.5 -48.5t-50.5 -16.5q-33 0 -49 15t-16 50q0 66 65 66q35 0 50.5 -17t15.5 -49zM468 738q0 -32 -15 -48.5t-50 -16.5q-33 0 -49.5 15
t-16.5 50q0 66 66 66q35 0 50 -17t15 -49z" />
    <glyph glyph-name="yacute" unicode="&#xfd;" horiz-adv-x="653" 
d="M181 -52q32 0 55 11.5t38 46.5l3 8l-261 592h177l132 -370l26 -76h3l19 78l99 368h165l-207 -598q-32 -94 -87.5 -135t-133.5 -41q-28 0 -54 4.5t-49 14.5l12 110q32 -13 63 -13zM486 801l-120 -145h-117l59 145h178z" />
    <glyph glyph-name="thorn" unicode="&#xfe;" horiz-adv-x="635" 
d="M600 304q0 -80 -16.5 -139t-47 -98t-73.5 -58t-97 -19q-40 0 -76 10t-66 36l-3 -1l2 -81v-108h-156v932l156 8v-145l-2 -80l3 -2q30 27 69.5 42.5t85.5 15.5q52 0 93 -16.5t69.5 -53t43.5 -96.5t15 -147zM438 305q0 52 -6.5 86t-20 53.5t-34 27t-49.5 7.5
q-35 0 -61.5 -13t-43.5 -36v-260q14 -22 39 -37t62 -15q26 0 47 7.5t36 28t23 57t8 94.5z" />
    <glyph glyph-name="ydieresis" unicode="&#xff;" horiz-adv-x="653" 
d="M181 -52q32 0 55 11.5t38 46.5l3 8l-261 592h177l132 -370l26 -76h3l19 78l99 368h165l-207 -598q-32 -94 -87.5 -135t-133.5 -41q-28 0 -54 4.5t-49 14.5l12 110q32 -13 63 -13zM302 738q0 -32 -15.5 -48.5t-50.5 -16.5q-33 0 -49 15t-16 50q0 66 65 66q35 0 50.5 -17
t15.5 -49zM484 738q0 -32 -15 -48.5t-50 -16.5q-33 0 -49.5 15t-16.5 50q0 66 66 66q35 0 50 -17t15 -49z" />
    <glyph glyph-name="Amacron" unicode="&#x100;" horiz-adv-x="734" 
d="M498 146h-272l-42 -146h-178l259 750h201l262 -750h-188zM342 544l-75 -257h191l-72 257l-20 79h-3zM527 804h-320v78h320v-78z" />
    <glyph glyph-name="amacron" unicode="&#x101;" horiz-adv-x="581" 
d="M394 58l-3 1q-28 -33 -70 -51t-94 -18q-86 0 -137 49.5t-51 151.5q0 42 14.5 77t42 59.5t67.5 38.5t92 14q34 0 63 -4.5t53 -12.5v35q0 46 -26 67.5t-89 21.5q-50 0 -87.5 -8t-79.5 -25l-13 124q46 20 97.5 30t110.5 10q67 0 113 -14.5t74.5 -44.5t41 -76t12.5 -108v-375
h-119zM371 260q-11 5 -33 9t-53 4q-101 0 -101 -80q0 -45 24 -62.5t62 -17.5q20 0 38 5.5t32 15.5t22.5 22.5t8.5 27.5v76zM447 684h-320v96h320v-96z" />
    <glyph glyph-name="Abreve" unicode="&#x102;" horiz-adv-x="734" 
d="M498 146h-272l-42 -146h-178l259 750h201l262 -750h-188zM342 544l-75 -257h191l-72 257l-20 79h-3zM536 913q0 -61 -40.5 -94t-131.5 -33q-93 0 -132 33.5t-39 93.5h114q0 -26 16.5 -36.5t41.5 -10.5q24 0 40 10.5t16 36.5h115z" />
    <glyph glyph-name="abreve" unicode="&#x103;" horiz-adv-x="581" 
d="M394 58l-3 1q-28 -33 -70 -51t-94 -18q-86 0 -137 49.5t-51 151.5q0 42 14.5 77t42 59.5t67.5 38.5t92 14q34 0 63 -4.5t53 -12.5v35q0 46 -26 67.5t-89 21.5q-50 0 -87.5 -8t-79.5 -25l-13 124q46 20 97.5 30t110.5 10q67 0 113 -14.5t74.5 -44.5t41 -76t12.5 -108v-375
h-119zM371 260q-11 5 -33 9t-53 4q-101 0 -101 -80q0 -45 24 -62.5t62 -17.5q20 0 38 5.5t32 15.5t22.5 22.5t8.5 27.5v76zM445 801q0 -74 -37.5 -113.5t-122.5 -39.5q-88 0 -123.5 40.5t-35.5 112.5h104q1 -41 16 -57.5t39 -16.5q23 0 38.5 16t15.5 58h106z" />
    <glyph glyph-name="Aogonek" unicode="&#x104;" horiz-adv-x="734" 
d="M498 146h-272l-42 -146h-178l259 750h201l262 -750h-20q-27 0 -44.5 -17.5t-17.5 -37.5q0 -18 12 -28.5t40 -10.5q27 0 48 10l13 -81q-22 -11 -47.5 -17.5t-58.5 -6.5q-63 0 -94 26t-31 68q0 32 13.5 55.5t38.5 39.5h-40zM342 544l-75 -257h191l-72 257l-20 79h-3z" />
    <glyph glyph-name="aogonek" unicode="&#x105;" horiz-adv-x="581" 
d="M394 57l-3 1q-28 -33 -70 -51t-94 -18q-86 0 -137 49.5t-51 151.5q0 42 14.5 77t42 59.5t67.5 38.5t92 14q34 0 63 -4.5t53 -12.5v35q0 46 -26 67.5t-89 21.5q-50 0 -87.5 -8t-79.5 -25l-13 124q46 20 97.5 30t110.5 10q67 0 113 -14.5t74.5 -44.5t41 -76t12.5 -108v-375
h-1q-27 -8 -40 -23t-13 -35q0 -17 11.5 -26.5t38.5 -9.5q29 0 50 11l12 -81q-22 -11 -47.5 -18t-58.5 -7q-64 0 -93.5 26.5t-29.5 65.5q0 32 15 56t42 41h-5zM371 259q-11 5 -33 9t-53 4q-101 0 -101 -80q0 -45 24 -62.5t62 -17.5q20 0 38 5.5t32 15.5t22.5 22.5t8.5 27.5
v76z" />
    <glyph glyph-name="Cacute" unicode="&#x106;" horiz-adv-x="597" 
d="M548 587q-29 11 -67 18t-80 7q-51 0 -85.5 -11.5t-56 -38.5t-30.5 -71.5t-9 -111.5q0 -71 9.5 -117.5t31 -75t57 -40t86.5 -11.5q42 0 78 7.5t68 21.5l17 -137q-37 -18 -87 -29.5t-100 -11.5q-171 0 -254 96t-83 298q0 187 84 285t264 98q22 0 46 -2.5t47 -6.5t44 -10
t37 -12zM547 913l-139 -121h-124l65 121h198z" />
    <glyph glyph-name="cacute" unicode="&#x107;" horiz-adv-x="493" 
d="M449 458q-23 8 -50 13.5t-53 5.5q-42 0 -71 -9.5t-46.5 -30t-25 -54t-7.5 -81.5q0 -98 38 -139.5t109 -41.5q61 0 110 23l11 -121q-27 -17 -66.5 -26t-88.5 -9q-135 0 -204.5 77t-69.5 237q0 75 16 133.5t49.5 98.5t86 61t125.5 21q38 0 77.5 -7.5t68.5 -18.5zM452 801
l-120 -145h-117l59 145h178z" />
    <glyph glyph-name="Ccircumflex" unicode="&#x108;" horiz-adv-x="597" 
d="M548 587q-29 11 -67 18t-80 7q-51 0 -85.5 -11.5t-56 -38.5t-30.5 -71.5t-9 -111.5q0 -71 9.5 -117.5t31 -75t57 -40t86.5 -11.5q42 0 78 7.5t68 21.5l17 -137q-37 -18 -87 -29.5t-100 -11.5q-171 0 -254 96t-83 298q0 187 84 285t264 98q22 0 46 -2.5t47 -6.5t44 -10
t37 -12zM444 913l107 -121h-136l-53 57l-52 -57h-134l103 121h165z" />
    <glyph glyph-name="ccircumflex" unicode="&#x109;" horiz-adv-x="493" 
d="M449 458q-23 8 -50 13.5t-53 5.5q-42 0 -71 -9.5t-46.5 -30t-25 -54t-7.5 -81.5q0 -98 38 -139.5t109 -41.5q61 0 110 23l11 -121q-27 -17 -66.5 -26t-88.5 -9q-135 0 -204.5 77t-69.5 237q0 75 16 133.5t49.5 98.5t86 61t125.5 21q38 0 77.5 -7.5t68.5 -18.5zM359 801
l100 -145h-115l-52 82l-51 -82h-115l98 145h135z" />
    <glyph glyph-name="Cdotaccent" unicode="&#x10a;" horiz-adv-x="597" 
d="M548 587q-29 11 -67 18t-80 7q-51 0 -85.5 -11.5t-56 -38.5t-30.5 -71.5t-9 -111.5q0 -71 9.5 -117.5t31 -75t57 -40t86.5 -11.5q42 0 78 7.5t68 21.5l17 -137q-37 -18 -87 -29.5t-100 -11.5q-171 0 -254 96t-83 298q0 187 84 285t264 98q22 0 46 -2.5t47 -6.5t44 -10
t37 -12zM453 849q0 -30 -20 -45t-71 -15q-50 0 -71 13.5t-21 46.5q0 30 20.5 45.5t71.5 15.5t71 -15.5t20 -45.5z" />
    <glyph glyph-name="cdotaccent" unicode="&#x10b;" horiz-adv-x="493" 
d="M449 458q-23 8 -50 13.5t-53 5.5q-42 0 -71 -9.5t-46.5 -30t-25 -54t-7.5 -81.5q0 -98 38 -139.5t109 -41.5q61 0 110 23l11 -121q-27 -17 -66.5 -26t-88.5 -9q-135 0 -204.5 77t-69.5 237q0 75 16 133.5t49.5 98.5t86 61t125.5 21q38 0 77.5 -7.5t68.5 -18.5zM384 738
q0 -34 -21 -50.5t-67 -16.5q-45 0 -66.5 15t-21.5 52q0 67 88 67q46 0 67 -17.5t21 -49.5z" />
    <glyph glyph-name="Ccaron" unicode="&#x10c;" horiz-adv-x="597" 
d="M548 587q-29 11 -67 18t-80 7q-51 0 -85.5 -11.5t-56 -38.5t-30.5 -71.5t-9 -111.5q0 -71 9.5 -117.5t31 -75t57 -40t86.5 -11.5q42 0 78 7.5t68 21.5l17 -137q-37 -18 -87 -29.5t-100 -11.5q-171 0 -254 96t-83 298q0 187 84 285t264 98q22 0 46 -2.5t47 -6.5t44 -10
t37 -12zM278 792l-104 121h135l52 -60l53 60h135l-106 -121h-165z" />
    <glyph glyph-name="ccaron" unicode="&#x10d;" horiz-adv-x="493" 
d="M449 458q-23 8 -50 13.5t-53 5.5q-42 0 -71 -9.5t-46.5 -30t-25 -54t-7.5 -81.5q0 -98 38 -139.5t109 -41.5q61 0 110 23l11 -121q-27 -17 -66.5 -26t-88.5 -9q-135 0 -204.5 77t-69.5 237q0 75 16 133.5t49.5 98.5t86 61t125.5 21q38 0 77.5 -7.5t68.5 -18.5zM225 656
l-97 145h115l51 -86l50 86h117l-99 -145h-137z" />
    <glyph glyph-name="Dcaron" unicode="&#x10e;" horiz-adv-x="732" 
d="M689 378q0 -102 -21 -173.5t-63 -117t-105 -66.5t-146 -21h-283v750h281q89 0 153 -21.5t105 -67t60 -116t19 -167.5zM512 379q0 67 -8.5 109.5t-28 67t-50 34t-75.5 9.5h-110v-449h111q43 0 73.5 9t50 33.5t28.5 69.5t9 117zM241 792l-104 121h135l52 -60l53 60h135
l-106 -121h-165z" />
    <glyph glyph-name="dcaron" unicode="&#x10f;" horiz-adv-x="633" 
d="M447 0l-15 52l-3 1q-27 -32 -67 -48.5t-95 -16.5q-118 0 -175 77t-57 241q0 150 57 231t173 81q87 0 148 -55l2 2l-2 80v133l155 8v-786h-121zM413 433q-14 20 -40.5 33t-61.5 13q-32 0 -54 -9t-36 -30t-20 -55.5t-6 -85.5q0 -53 5.5 -88.5t19 -57t35.5 -30.5t55 -9
q43 0 67.5 16t35.5 35v268zM667 759q37 0 53 -17t16 -46q0 -28 -25.5 -58t-57.5 -56l-36 17l21 58q-37 12 -37 50q0 21 15 36.5t51 15.5z" />
    <glyph glyph-name="Dcroat" unicode="&#x110;" horiz-adv-x="742" 
d="M699 378q0 -102 -21 -173.5t-63 -117t-105 -66.5t-146 -21h-283v339h-59v100h59v311h281q89 0 153 -21.5t105 -67t60 -116t19 -167.5zM522 379q0 67 -8.5 109.5t-28 67t-50 34t-75.5 9.5h-110v-160h83v-100h-83v-189h111q43 0 73.5 9t50 33.5t28.5 69.5t9 117z" />
    <glyph glyph-name="dcroat" unicode="&#x111;" horiz-adv-x="641" 
d="M447 0l-15 52l-3 1q-27 -32 -67 -48.5t-95 -16.5q-118 0 -175 77t-57 241q0 150 57 231t173 81q87 0 146 -54l2 1v73h-74v85h74v55l155 8v-63h55v-85h-55v-638h-121zM413 433q-14 20 -40.5 33t-61.5 13q-32 0 -54 -9t-36 -30t-20 -55.5t-6 -85.5q0 -53 5.5 -88.5t19 -57
t35.5 -30.5t55 -9q43 0 67.5 16t35.5 35v268z" />
    <glyph glyph-name="Emacron" unicode="&#x112;" horiz-adv-x="619" 
d="M585 147l-4 -147h-510v750h495l3 -149h-329v-149h277v-134h-277v-171h345zM489 804h-320v78h320v-78z" />
    <glyph glyph-name="emacron" unicode="&#x113;" horiz-adv-x="586" 
d="M337 -11q-157 0 -229.5 81.5t-72.5 240.5q0 145 65 225.5t202 80.5q116 0 183 -69t67 -213q0 -17 -1 -37t-3 -36h-353q6 -76 44.5 -107.5t116.5 -31.5q84 0 162 30l17 -125q-38 -17 -89 -28t-109 -11zM410 365q-2 67 -30 95t-77 28q-56 0 -81 -28.5t-30 -94.5h218z
M461 684h-320v96h320v-96z" />
    <glyph glyph-name="Ebreve" unicode="&#x114;" horiz-adv-x="619" 
d="M585 147l-4 -147h-510v750h495l3 -149h-329v-149h277v-134h-277v-171h345zM499 913q0 -61 -40.5 -94t-131.5 -33q-93 0 -132 33.5t-39 93.5h114q0 -26 16.5 -36.5t41.5 -10.5q24 0 40 10.5t16 36.5h115z" />
    <glyph glyph-name="ebreve" unicode="&#x115;" horiz-adv-x="586" 
d="M337 -11q-157 0 -229.5 81.5t-72.5 240.5q0 145 65 225.5t202 80.5q116 0 183 -69t67 -213q0 -17 -1 -37t-3 -36h-353q6 -76 44.5 -107.5t116.5 -31.5q84 0 162 30l17 -125q-38 -17 -89 -28t-109 -11zM410 365q-2 67 -30 95t-77 28q-56 0 -81 -28.5t-30 -94.5h218z
M460 801q0 -74 -37.5 -113.5t-122.5 -39.5q-88 0 -123.5 40.5t-35.5 112.5h104q1 -41 16 -57.5t39 -16.5q23 0 38.5 16t15.5 58h106z" />
    <glyph glyph-name="Edotaccent" unicode="&#x116;" horiz-adv-x="619" 
d="M585 147l-4 -147h-510v750h495l3 -149h-329v-149h277v-134h-277v-171h345zM418 849q0 -30 -20 -45t-71 -15q-50 0 -71 13.5t-21 46.5q0 30 20.5 45.5t71.5 15.5t71 -15.5t20 -45.5z" />
    <glyph glyph-name="edotaccent" unicode="&#x117;" horiz-adv-x="586" 
d="M337 -11q-157 0 -229.5 81.5t-72.5 240.5q0 145 65 225.5t202 80.5q116 0 183 -69t67 -213q0 -17 -1 -37t-3 -36h-353q6 -76 44.5 -107.5t116.5 -31.5q84 0 162 30l17 -125q-38 -17 -89 -28t-109 -11zM410 365q-2 67 -30 95t-77 28q-56 0 -81 -28.5t-30 -94.5h218z
M390 738q0 -34 -21 -50.5t-67 -16.5q-45 0 -66.5 15t-21.5 52q0 67 88 67q46 0 67 -17.5t21 -49.5z" />
    <glyph glyph-name="Eogonek" unicode="&#x118;" horiz-adv-x="619" 
d="M585 147l-4 -147h-37q-27 0 -44.5 -17.5t-17.5 -37.5q0 -18 12 -28.5t40 -10.5q27 0 48 10l13 -81q-22 -11 -47.5 -17.5t-58.5 -6.5q-63 0 -94 26t-31 68q0 32 13.5 55.5t38.5 39.5h-345v750h495l3 -149h-329v-149h277v-134h-277v-171h345z" />
    <glyph glyph-name="eogonek" unicode="&#x119;" horiz-adv-x="586" 
d="M345 -197q-64 0 -93.5 26.5t-29.5 65.5q0 63 59 100q-128 12 -187 91.5t-59 224.5t65 225.5t202 80.5q116 0 183 -69t67 -213q0 -17 -1 -37t-3 -36h-353q6 -76 44.5 -107.5t116.5 -31.5q84 0 162 30l17 -125q-58 -27 -143 -36q-27 -8 -40 -23t-13 -35q0 -17 11.5 -26.5
t38.5 -9.5q29 0 50 11l12 -81q-22 -11 -47.5 -18t-58.5 -7zM410 365q-2 67 -30 95t-77 28q-56 0 -81 -28.5t-30 -94.5h218z" />
    <glyph glyph-name="Ecaron" unicode="&#x11a;" horiz-adv-x="619" 
d="M585 147l-4 -147h-510v750h495l3 -149h-329v-149h277v-134h-277v-171h345zM243 792l-104 121h135l52 -60l53 60h135l-106 -121h-165z" />
    <glyph glyph-name="ecaron" unicode="&#x11b;" horiz-adv-x="586" 
d="M337 -11q-157 0 -229.5 81.5t-72.5 240.5q0 145 65 225.5t202 80.5q116 0 183 -69t67 -213q0 -17 -1 -37t-3 -36h-353q6 -76 44.5 -107.5t116.5 -31.5q84 0 162 30l17 -125q-38 -17 -89 -28t-109 -11zM410 365q-2 67 -30 95t-77 28q-56 0 -81 -28.5t-30 -94.5h218z
M234 656l-97 145h115l51 -86l50 86h117l-99 -145h-137z" />
    <glyph glyph-name="Gcircumflex" unicode="&#x11c;" horiz-adv-x="675" 
d="M624 28q-42 -20 -102.5 -31t-122.5 -11q-96 0 -163.5 24.5t-110.5 73t-62.5 121.5t-19.5 169q0 196 86 292.5t276 96.5q54 0 109 -9t98 -25l-16 -146q-40 15 -87.5 23.5t-94.5 8.5q-56 0 -93 -11.5t-59.5 -39t-32 -73.5t-9.5 -115q0 -70 9 -116t29.5 -73.5t54 -38.5
t82.5 -11q46 0 80 10v256h149v-375zM464 913l107 -121h-136l-53 57l-52 -57h-134l103 121h165z" />
    <glyph glyph-name="gcircumflex" unicode="&#x11d;" horiz-adv-x="587" 
d="M286 244q-40 0 -76 6q-21 -11 -21 -29q0 -25 40 -28l144 -8q106 -6 151 -45t45 -109q0 -45 -15.5 -81.5t-49.5 -62t-86.5 -39t-126.5 -13.5q-65 0 -111.5 12t-76.5 33.5t-44 50.5t-14 64q0 27 12 52.5t35 45.5q-20 14 -33 36t-13 53q0 30 17.5 58t55.5 46
q-30 22 -48 56.5t-18 86.5q0 41 12.5 75.5t40.5 59.5t72 39t107 14q39 0 79 -7t72 -26l103 33l32 -74l-64 -50q9 -27 9 -64q0 -88 -53.5 -136.5t-176.5 -48.5zM202 64q-25 -23 -25 -49q0 -32 25.5 -47.5t85.5 -15.5q43 0 70.5 4t43.5 11.5t22 17.5t6 23q0 21 -16.5 31.5
t-67.5 14.5zM287 500q-45 0 -63 -17.5t-18 -57.5q0 -44 21 -59t56 -15q49 0 66.5 16.5t17.5 58.5t-18.5 58t-61.5 16zM367 801l100 -145h-115l-52 82l-51 -82h-115l98 145h135z" />
    <glyph glyph-name="Gbreve" unicode="&#x11e;" horiz-adv-x="675" 
d="M624 28q-42 -20 -102.5 -31t-122.5 -11q-96 0 -163.5 24.5t-110.5 73t-62.5 121.5t-19.5 169q0 196 86 292.5t276 96.5q54 0 109 -9t98 -25l-16 -146q-40 15 -87.5 23.5t-94.5 8.5q-56 0 -93 -11.5t-59.5 -39t-32 -73.5t-9.5 -115q0 -70 9 -116t29.5 -73.5t54 -38.5
t82.5 -11q46 0 80 10v256h149v-375zM555 913q0 -61 -40.5 -94t-131.5 -33q-93 0 -132 33.5t-39 93.5h114q0 -26 16.5 -36.5t41.5 -10.5q24 0 40 10.5t16 36.5h115z" />
    <glyph glyph-name="gbreve" unicode="&#x11f;" horiz-adv-x="587" 
d="M286 244q-40 0 -76 6q-21 -11 -21 -29q0 -25 40 -28l144 -8q106 -6 151 -45t45 -109q0 -45 -15.5 -81.5t-49.5 -62t-86.5 -39t-126.5 -13.5q-65 0 -111.5 12t-76.5 33.5t-44 50.5t-14 64q0 27 12 52.5t35 45.5q-20 14 -33 36t-13 53q0 30 17.5 58t55.5 46
q-30 22 -48 56.5t-18 86.5q0 41 12.5 75.5t40.5 59.5t72 39t107 14q39 0 79 -7t72 -26l103 33l32 -74l-64 -50q9 -27 9 -64q0 -88 -53.5 -136.5t-176.5 -48.5zM202 64q-25 -23 -25 -49q0 -32 25.5 -47.5t85.5 -15.5q43 0 70.5 4t43.5 11.5t22 17.5t6 23q0 21 -16.5 31.5
t-67.5 14.5zM287 500q-45 0 -63 -17.5t-18 -57.5q0 -44 21 -59t56 -15q49 0 66.5 16.5t17.5 58.5t-18.5 58t-61.5 16zM460 801q0 -74 -37.5 -113.5t-122.5 -39.5q-88 0 -123.5 40.5t-35.5 112.5h104q1 -41 16 -57.5t39 -16.5q23 0 38.5 16t15.5 58h106z" />
    <glyph glyph-name="Gdotaccent" unicode="&#x120;" horiz-adv-x="675" 
d="M624 28q-42 -20 -102.5 -31t-122.5 -11q-96 0 -163.5 24.5t-110.5 73t-62.5 121.5t-19.5 169q0 196 86 292.5t276 96.5q54 0 109 -9t98 -25l-16 -146q-40 15 -87.5 23.5t-94.5 8.5q-56 0 -93 -11.5t-59.5 -39t-32 -73.5t-9.5 -115q0 -70 9 -116t29.5 -73.5t54 -38.5
t82.5 -11q46 0 80 10v256h149v-375zM484 849q0 -30 -20 -45t-71 -15q-50 0 -71 13.5t-21 46.5q0 30 20.5 45.5t71.5 15.5t71 -15.5t20 -45.5z" />
    <glyph glyph-name="gdotaccent" unicode="&#x121;" horiz-adv-x="587" 
d="M286 244q-40 0 -76 6q-21 -11 -21 -29q0 -25 40 -28l144 -8q106 -6 151 -45t45 -109q0 -45 -15.5 -81.5t-49.5 -62t-86.5 -39t-126.5 -13.5q-65 0 -111.5 12t-76.5 33.5t-44 50.5t-14 64q0 27 12 52.5t35 45.5q-20 14 -33 36t-13 53q0 30 17.5 58t55.5 46
q-30 22 -48 56.5t-18 86.5q0 41 12.5 75.5t40.5 59.5t72 39t107 14q39 0 79 -7t72 -26l103 33l32 -74l-64 -50q9 -27 9 -64q0 -88 -53.5 -136.5t-176.5 -48.5zM202 64q-25 -23 -25 -49q0 -32 25.5 -47.5t85.5 -15.5q43 0 70.5 4t43.5 11.5t22 17.5t6 23q0 21 -16.5 31.5
t-67.5 14.5zM287 500q-45 0 -63 -17.5t-18 -57.5q0 -44 21 -59t56 -15q49 0 66.5 16.5t17.5 58.5t-18.5 58t-61.5 16zM389 738q0 -34 -21 -50.5t-67 -16.5q-45 0 -66.5 15t-21.5 52q0 67 88 67q46 0 67 -17.5t21 -49.5z" />
    <glyph glyph-name="uni0122" unicode="&#x122;" horiz-adv-x="675" 
d="M624 28q-42 -20 -102.5 -31t-122.5 -11q-96 0 -163.5 24.5t-110.5 73t-62.5 121.5t-19.5 169q0 196 86 292.5t276 96.5q54 0 109 -9t98 -25l-16 -146q-40 15 -87.5 23.5t-94.5 8.5q-56 0 -93 -11.5t-59.5 -39t-32 -73.5t-9.5 -115q0 -70 9 -116t29.5 -73.5t54 -38.5
t82.5 -11q46 0 80 10v256h149v-375zM400 -34q47 0 67 -15.5t20 -44.5q0 -14 -8.5 -28t-23 -28.5t-33 -28.5t-38.5 -26l-47 16l26 58q-47 10 -47 48q0 20 18 34.5t66 14.5z" />
    <glyph glyph-name="uni0123" unicode="&#x123;" horiz-adv-x="587" 
d="M286 244q-40 0 -76 6q-21 -11 -21 -29q0 -25 40 -28l144 -8q106 -6 151 -45t45 -109q0 -45 -15.5 -81.5t-49.5 -62t-86.5 -39t-126.5 -13.5q-65 0 -111.5 12t-76.5 33.5t-44 50.5t-14 64q0 27 12 52.5t35 45.5q-20 14 -33 36t-13 53q0 30 17.5 58t55.5 46
q-30 22 -48 56.5t-18 86.5q0 41 12.5 75.5t40.5 59.5t72 39t107 14q39 0 79 -7t72 -26l103 33l32 -74l-64 -50q9 -27 9 -64q0 -88 -53.5 -136.5t-176.5 -48.5zM202 64q-25 -23 -25 -49q0 -32 25.5 -47.5t85.5 -15.5q43 0 70.5 4t43.5 11.5t22 17.5t6 23q0 21 -16.5 31.5
t-67.5 14.5zM287 500q-45 0 -63 -17.5t-18 -57.5q0 -44 21 -59t56 -15q49 0 66.5 16.5t17.5 58.5t-18.5 58t-61.5 16zM302 668q-36 0 -52 16.5t-16 45.5q0 28 25 58.5t57 56.5l37 -18l-22 -58q37 -12 37 -50q0 -21 -14.5 -36t-51.5 -15z" />
    <glyph glyph-name="Hcircumflex" unicode="&#x124;" horiz-adv-x="742" 
d="M502 0v307h-262v-307h-169v750h169v-291h262v291h168v-750h-168zM454 913l107 -121h-136l-53 57l-52 -57h-134l103 121h165z" />
    <glyph glyph-name="hcircumflex" unicode="&#x125;" horiz-adv-x="633" 
d="M422 0v386q0 94 -97 94q-34 0 -61.5 -13t-41.5 -33v-434h-155v778l155 8v-138l-2 -80l3 -2q34 29 73.5 40.5t77.5 11.5q97 0 150 -61t53 -171v-386h-155zM228 934l107 -121h-136l-53 57l-52 -57h-134l103 121h165z" />
    <glyph glyph-name="Hbar" unicode="&#x126;" horiz-adv-x="752" 
d="M507 0v307h-262v-307h-169v551h-43v88h43v111h169v-111h262v111h168v-111h58v-88h-58v-551h-168zM507 459v92h-262v-92h262z" />
    <glyph glyph-name="hbar" unicode="&#x127;" horiz-adv-x="636" 
d="M425 0v386q0 94 -97 94q-34 0 -61.5 -13t-41.5 -33v-434h-155v638h-63v85h63v55l155 8v-63h66v-85h-66v-70l3 -1q32 28 71.5 39.5t77.5 11.5q97 0 150 -61t53 -171v-386h-155z" />
    <glyph glyph-name="Itilde" unicode="&#x128;" horiz-adv-x="336" 
d="M82 750h172v-750h-172v750zM-2 796q2 54 29 87t75 33q25 0 45.5 -6.5t38 -14t31.5 -14t27 -6.5q14 0 21 6.5t10 23.5l68 -1q-2 -55 -30.5 -87.5t-74.5 -32.5q-25 0 -44.5 6.5t-36 14t-30 14t-26.5 6.5q-12 0 -21 -8t-11 -22z" />
    <glyph glyph-name="itilde" unicode="&#x129;" horiz-adv-x="319" 
d="M80 0v602l159 7v-609h-159zM-7 669q2 58 29.5 96t73.5 38q25 0 43.5 -8t33.5 -18t28 -18t29 -8q14 0 22 11t13 30l71 -1q-2 -60 -30.5 -96.5t-73.5 -36.5q-25 0 -43 8t-33 18t-28.5 18t-28.5 8q-14 0 -22.5 -12.5t-12.5 -29.5z" />
    <glyph glyph-name="Imacron" unicode="&#x12a;" horiz-adv-x="336" 
d="M82 750h172v-750h-172v750zM329 804h-320v78h320v-78z" />
    <glyph glyph-name="imacron" unicode="&#x12b;" horiz-adv-x="319" 
d="M80 0v602l159 7v-609h-159zM323 684h-320v96h320v-96z" />
    <glyph glyph-name="Ibreve" unicode="&#x12c;" horiz-adv-x="336" 
d="M82 750h172v-750h-172v750zM340 913q0 -61 -40.5 -94t-131.5 -33q-93 0 -132 33.5t-39 93.5h114q0 -26 16.5 -36.5t41.5 -10.5q24 0 40 10.5t16 36.5h115z" />
    <glyph glyph-name="ibreve" unicode="&#x12d;" horiz-adv-x="319" 
d="M80 0v602l159 7v-609h-159zM321 801q0 -74 -37.5 -113.5t-122.5 -39.5q-88 0 -123.5 40.5t-35.5 112.5h104q1 -41 16 -57.5t39 -16.5q23 0 38.5 16t15.5 58h106z" />
    <glyph glyph-name="Iogonek" unicode="&#x12e;" horiz-adv-x="336" 
d="M82 750h172v-750h-14q-27 0 -44.5 -17.5t-17.5 -37.5q0 -18 12 -28.5t40 -10.5q27 0 48 10l13 -81q-22 -11 -47.5 -17.5t-58.5 -6.5q-63 0 -94 26t-31 68q0 32 13.5 55.5t38.5 39.5h-30v750z" />
    <glyph glyph-name="iogonek" unicode="&#x12f;" horiz-adv-x="319" 
d="M203 -189q-64 0 -93.5 26.5t-29.5 65.5q0 32 15 56t42 41h-29v602l159 7v-609h-17q-27 -8 -40 -23t-13 -35q0 -17 11.5 -26.5t38.5 -9.5q29 0 50 11l12 -81q-22 -11 -47.5 -18t-58.5 -7zM276 737q0 -33 -21 -49.5t-67 -16.5q-45 0 -67 14.5t-22 51.5q0 67 89 67
q46 0 67 -17t21 -50z" />
    <glyph glyph-name="Idotaccent" unicode="&#x130;" horiz-adv-x="336" 
d="M82 750h172v-750h-172v750zM260 849q0 -30 -20 -45t-71 -15q-50 0 -71 13.5t-21 46.5q0 30 20.5 45.5t71.5 15.5t71 -15.5t20 -45.5z" />
    <glyph glyph-name="dotlessi" unicode="&#x131;" horiz-adv-x="319" 
d="M80 0v602l159 7v-609h-159z" />
    <glyph glyph-name="Jcircumflex" unicode="&#x134;" horiz-adv-x="550" 
d="M479 275q0 -79 -20.5 -134t-59 -89.5t-94 -50t-124.5 -15.5q-47 0 -83.5 8.5t-65.5 23.5l9 142q20 -12 49 -19t65 -7q75 0 113.5 34t38.5 110v472h172v-475zM470 913l107 -121h-136l-53 57l-52 -57h-134l103 121h165z" />
    <glyph glyph-name="jcircumflex" unicode="&#x135;" horiz-adv-x="319" 
d="M239 5q0 -49 -14 -81.5t-37.5 -52t-55 -28t-67.5 -8.5q-22 0 -43.5 4t-38.5 10l7 109q19 -6 37 -6q25 0 41 13.5t16 43.5v593l155 7v-604zM220 801l100 -145h-115l-52 82l-51 -82h-115l98 145h135z" />
    <glyph glyph-name="uni0136" unicode="&#x136;" horiz-adv-x="720" 
d="M504 0l-185 316h-79v-316h-169v750h169v-297h81l181 297h193l-224 -356l236 -394h-203zM360 -34q47 0 67 -15.5t20 -44.5q0 -14 -8.5 -28t-23 -28.5t-33 -28.5t-38.5 -26l-47 16l26 58q-47 10 -47 48q0 20 18 34.5t66 14.5z" />
    <glyph glyph-name="uni0137" unicode="&#x137;" horiz-adv-x="617" 
d="M222 387h79l126 219h172l-165 -275l171 -331h-175l-129 261h-79v-261h-155v779l155 7v-399zM313 -34q47 0 67 -15.5t20 -44.5q0 -14 -8.5 -28t-23 -28.5t-33 -28.5t-38.5 -26l-47 16l26 58q-47 10 -47 48q0 20 18 34.5t66 14.5z" />
    <glyph glyph-name="kgreenlandic" unicode="&#x138;" horiz-adv-x="617" 
d="M222 387h79l126 219h172l-165 -275l171 -331h-175l-129 261h-79v-261h-155v603l155 7v-223z" />
    <glyph glyph-name="Lacute" unicode="&#x139;" horiz-adv-x="568" 
d="M550 152l-4 -152h-475v750h170v-598h309zM408 913l-139 -121h-124l65 121h198z" />
    <glyph glyph-name="lacute" unicode="&#x13a;" horiz-adv-x="305" 
d="M74 0v779l157 7v-786h-157zM340 922l-139 -121h-124l65 121h198z" />
    <glyph glyph-name="uni013B" unicode="&#x13b;" horiz-adv-x="568" 
d="M550 152l-4 -152h-475v750h170v-598h309zM296 -34q47 0 67 -15.5t20 -44.5q0 -14 -8.5 -28t-23 -28.5t-33 -28.5t-38.5 -26l-47 16l26 58q-47 10 -47 48q0 20 18 34.5t66 14.5z" />
    <glyph glyph-name="uni013C" unicode="&#x13c;" horiz-adv-x="305" 
d="M74 0v779l157 7v-786h-157zM152 -34q47 0 67 -15.5t20 -44.5q0 -14 -8.5 -28t-23 -28.5t-33 -28.5t-38.5 -26l-47 16l26 58q-47 10 -47 48q0 20 18 34.5t66 14.5z" />
    <glyph glyph-name="Lcaron" unicode="&#x13d;" horiz-adv-x="568" 
d="M550 152l-4 -152h-475v750h170v-598h309zM414 759q37 0 53 -17t16 -46q0 -28 -25.5 -58t-57.5 -56l-36 17l21 58q-37 12 -37 50q0 21 15 36.5t51 15.5z" />
    <glyph glyph-name="lcaron" unicode="&#x13e;" horiz-adv-x="306" 
d="M75 0v779l157 7v-786h-157zM339 759q37 0 53 -17t16 -46q0 -28 -25.5 -58t-57.5 -56l-36 17l21 58q-37 12 -37 50q0 21 15 36.5t51 15.5z" />
    <glyph glyph-name="Ldot" unicode="&#x13f;" horiz-adv-x="568" 
d="M517 407q0 -36 -19 -57t-62 -21q-44 0 -63 18t-19 60q0 38 19 57.5t63 19.5q43 0 62 -19.5t19 -57.5zM550 152l-4 -152h-475v750h170v-598h309z" />
    <glyph glyph-name="ldot" unicode="&#x140;" horiz-adv-x="414" 
d="M437 407q0 -34 -18 -53.5t-58 -19.5q-41 0 -59 16.5t-18 56.5q0 35 18 53.5t59 18.5q40 0 58 -18.5t18 -53.5zM74 0v779l157 7v-786h-157z" />
    <glyph glyph-name="Lslash" unicode="&#x141;" horiz-adv-x="603" 
d="M585 152l-4 -152h-475v278l-69 -29l-12 133l81 35v333h170v-268l182 77l14 -139l-196 -79v-189h309z" />
    <glyph glyph-name="lslash" unicode="&#x142;" horiz-adv-x="373" 
d="M29 449l77 37v293l157 7v-235l83 41v-129l-83 -43v-420h-157v354l-76 -38z" />
    <glyph glyph-name="Nacute" unicode="&#x143;" horiz-adv-x="747" 
d="M558 0l-291 409l-45 67l-2 -1l1 -81v-394h-150v750h144l267 -387l45 -67l2 1l-2 80v373h149v-750h-118zM561 913l-139 -121h-124l65 121h198z" />
    <glyph glyph-name="nacute" unicode="&#x144;" horiz-adv-x="629" 
d="M418 0v386q0 51 -25 72.5t-73 21.5q-29 0 -57.5 -12t-44.5 -34v-434h-156v603l112 7l23 -52q34 29 76.5 44.5t90.5 15.5q97 0 153 -59t56 -173v-386h-155zM473 801l-120 -145h-117l59 145h178z" />
    <glyph glyph-name="uni0145" unicode="&#x145;" horiz-adv-x="747" 
d="M558 0l-291 409l-45 67l-2 -1l1 -81v-394h-150v750h144l267 -387l45 -67l2 1l-2 80v373h149v-750h-118zM372 -34q47 0 67 -15.5t20 -44.5q0 -14 -8.5 -28t-23 -28.5t-33 -28.5t-38.5 -26l-47 16l26 58q-47 10 -47 48q0 20 18 34.5t66 14.5z" />
    <glyph glyph-name="uni0146" unicode="&#x146;" horiz-adv-x="629" 
d="M418 0v386q0 51 -25 72.5t-73 21.5q-29 0 -57.5 -12t-44.5 -34v-434h-156v603l112 7l23 -52q34 29 76.5 44.5t90.5 15.5q97 0 153 -59t56 -173v-386h-155zM314 -34q47 0 67 -15.5t20 -44.5q0 -14 -8.5 -28t-23 -28.5t-33 -28.5t-38.5 -26l-47 16l26 58q-47 10 -47 48
q0 20 18 34.5t66 14.5z" />
    <glyph glyph-name="Ncaron" unicode="&#x147;" horiz-adv-x="747" 
d="M558 0l-291 409l-45 67l-2 -1l1 -81v-394h-150v750h144l267 -387l45 -67l2 1l-2 80v373h149v-750h-118zM297 792l-104 121h135l52 -60l53 60h135l-106 -121h-165z" />
    <glyph glyph-name="ncaron" unicode="&#x148;" horiz-adv-x="629" 
d="M418 0v386q0 51 -25 72.5t-73 21.5q-29 0 -57.5 -12t-44.5 -34v-434h-156v603l112 7l23 -52q34 29 76.5 44.5t90.5 15.5q97 0 153 -59t56 -173v-386h-155zM244 656l-97 145h115l51 -86l50 86h117l-99 -145h-137z" />
    <glyph glyph-name="napostrophe" unicode="&#x149;" horiz-adv-x="657" 
d="M445 0v386q0 51 -25 72.5t-73 21.5q-29 0 -57.5 -12t-44.5 -34v-434h-156v603l112 7l23 -52q34 29 76.5 44.5t90.5 15.5q97 0 153 -59t56 -173v-386h-155zM63 803q37 0 53 -17t16 -46q0 -28 -25.5 -58t-57.5 -56l-36 17l21 58q-37 12 -37 50q0 21 15 36.5t51 15.5z" />
    <glyph glyph-name="Eng" unicode="&#x14a;" horiz-adv-x="747" 
d="M676 77q0 -59 -13 -101.5t-37 -70t-58.5 -40.5t-76.5 -13q-32 0 -59 7t-47 19l8 103q13 -9 30.5 -14.5t33.5 -5.5q29 0 45.5 14t22.5 51l-260 396l-43 69l-2 -1l1 -81v-409h-150v750h144l312 -489l2 1l-2 80v408h149v-673z" />
    <glyph glyph-name="eng" unicode="&#x14b;" horiz-adv-x="629" 
d="M418 386q0 51 -25 72.5t-73 21.5q-29 0 -57.5 -12t-45.5 -34v-434h-155v603l111 7l24 -52q34 29 76.5 44.5t90.5 15.5q97 0 153 -59t56 -173v-340q0 -90 -44.5 -134.5t-124.5 -44.5q-59 0 -97 22l8 109q9 -8 22.5 -11.5t26.5 -3.5q24 0 39 12.5t15 39.5v351z" />
    <glyph glyph-name="Omacron" unicode="&#x14c;" horiz-adv-x="748" 
d="M704 375q0 -102 -18.5 -175.5t-58.5 -121t-102.5 -70t-150.5 -22.5q-173 0 -252 94.5t-79 294.5q0 100 19 173t59 120.5t102.5 70.5t150.5 23t150.5 -23t102.5 -70.5t58.5 -120.5t18.5 -173zM528 375q0 71 -8 117t-26 72.5t-47.5 36.5t-72.5 10t-72.5 -10t-47.5 -36.5
t-26 -72.5t-8 -117t8 -117t26.5 -73t48 -37.5t72.5 -10.5q42 0 71.5 10.5t47.5 37.5t26 73t8 117zM537 804h-320v78h320v-78z" />
    <glyph glyph-name="omacron" unicode="&#x14d;" horiz-adv-x="624" 
d="M590 301q0 -84 -16 -143.5t-50 -97.5t-86.5 -56t-124.5 -18t-124.5 18t-86.5 56t-50.5 97.5t-16.5 143.5q0 166 67 241t211 75q72 0 124.5 -18t86.5 -56.5t50 -98.5t16 -143zM196 301q0 -56 6.5 -92.5t20.5 -57.5t36 -29.5t54 -8.5t54 8.5t36 30t20 57.5t6 92
q0 55 -6 91.5t-20 58t-36 30t-54 8.5t-54.5 -8.5t-36.5 -30t-20 -58t-6 -91.5zM472 684h-320v96h320v-96z" />
    <glyph glyph-name="Obreve" unicode="&#x14e;" horiz-adv-x="748" 
d="M704 375q0 -102 -18.5 -175.5t-58.5 -121t-102.5 -70t-150.5 -22.5q-173 0 -252 94.5t-79 294.5q0 100 19 173t59 120.5t102.5 70.5t150.5 23t150.5 -23t102.5 -70.5t58.5 -120.5t18.5 -173zM528 375q0 71 -8 117t-26 72.5t-47.5 36.5t-72.5 10t-72.5 -10t-47.5 -36.5
t-26 -72.5t-8 -117t8 -117t26.5 -73t48 -37.5t72.5 -10.5q42 0 71.5 10.5t47.5 37.5t26 73t8 117zM547 913q0 -61 -40.5 -94t-131.5 -33q-93 0 -132 33.5t-39 93.5h114q0 -26 16.5 -36.5t41.5 -10.5q24 0 40 10.5t16 36.5h115z" />
    <glyph glyph-name="obreve" unicode="&#x14f;" horiz-adv-x="624" 
d="M590 301q0 -84 -16 -143.5t-50 -97.5t-86.5 -56t-124.5 -18t-124.5 18t-86.5 56t-50.5 97.5t-16.5 143.5q0 166 67 241t211 75q72 0 124.5 -18t86.5 -56.5t50 -98.5t16 -143zM196 301q0 -56 6.5 -92.5t20.5 -57.5t36 -29.5t54 -8.5t54 8.5t36 30t20 57.5t6 92
q0 55 -6 91.5t-20 58t-36 30t-54 8.5t-54.5 -8.5t-36.5 -30t-20 -58t-6 -91.5zM471 801q0 -74 -37.5 -113.5t-122.5 -39.5q-88 0 -123.5 40.5t-35.5 112.5h104q1 -41 16 -57.5t39 -16.5q23 0 38.5 16t15.5 58h106z" />
    <glyph glyph-name="Ohungarumlaut" unicode="&#x150;" horiz-adv-x="748" 
d="M704 375q0 -102 -18.5 -175.5t-58.5 -121t-102.5 -70t-150.5 -22.5q-173 0 -252 94.5t-79 294.5q0 100 19 173t59 120.5t102.5 70.5t150.5 23t150.5 -23t102.5 -70.5t58.5 -120.5t18.5 -173zM528 375q0 71 -8 117t-26 72.5t-47.5 36.5t-72.5 10t-72.5 -10t-47.5 -36.5
t-26 -72.5t-8 -117t8 -117t26.5 -73t48 -37.5t72.5 -10.5q42 0 71.5 10.5t47.5 37.5t26 73t8 117zM431 913l-93 -121h-100l36 121h157zM631 913l-117 -121h-112l69 121h160z" />
    <glyph glyph-name="ohungarumlaut" unicode="&#x151;" horiz-adv-x="624" 
d="M590 301q0 -84 -16 -143.5t-50 -97.5t-86.5 -56t-124.5 -18t-124.5 18t-86.5 56t-50.5 97.5t-16.5 143.5q0 166 67 241t211 75q72 0 124.5 -18t86.5 -56.5t50 -98.5t16 -143zM196 301q0 -56 6.5 -92.5t20.5 -57.5t36 -29.5t54 -8.5t54 8.5t36 30t20 57.5t6 92
q0 55 -6 91.5t-20 58t-36 30t-54 8.5t-54.5 -8.5t-36.5 -30t-20 -58t-6 -91.5zM381 801l-108 -145h-100l50 145h158zM579 801l-121 -145h-113l74 145h160z" />
    <glyph glyph-name="OE" unicode="&#x152;" horiz-adv-x="1070" 
d="M540 0v59l-2 1q-34 -38 -83 -56t-113 -18q-150 0 -224.5 94t-74.5 295t73.5 294t227.5 93q59 0 109 -16t85 -51l2 1v54h478l3 -149h-329v-149h276v-134h-276v-171h344l-3 -147h-493zM526 375q0 71 -7.5 117t-25.5 72.5t-47 36.5t-72 10t-72.5 -10t-47.5 -36.5t-26 -72.5
t-8 -117t8 -117t26.5 -73t48 -37.5t72.5 -10.5q42 0 71 10.5t47 37.5t25.5 73t7.5 117z" />
    <glyph glyph-name="oe" unicode="&#x153;" horiz-adv-x="982" 
d="M738 -11q-82 0 -135.5 21t-86.5 64q-30 -45 -81.5 -66.5t-130.5 -21.5q-136 0 -201 74t-65 241q0 166 66 241t200 75q78 0 128 -20.5t80 -60.5q29 39 75.5 60t115.5 21q56 0 101 -17t77 -52t49.5 -88t17.5 -125q0 -17 -1 -37t-3 -36h-352q5 -76 43.5 -107.5t116.5 -31.5
q43 0 83.5 8.5t78.5 23.5l17 -127q-38 -17 -88.5 -28t-104.5 -11zM198 301q0 -56 6.5 -92.5t20.5 -57.5t36.5 -29.5t54.5 -8.5t54 8.5t35.5 30t19.5 57.5t6 92q0 55 -6 91.5t-19.5 58t-35.5 30t-54 8.5t-54.5 -8.5t-36.5 -30t-20.5 -58t-6.5 -91.5zM806 365q-2 67 -30.5 95
t-76.5 28q-56 0 -80.5 -28.5t-29.5 -94.5h217z" />
    <glyph glyph-name="Racute" unicode="&#x154;" horiz-adv-x="680" 
d="M625 517q0 -79 -32.5 -132t-93.5 -72l175 -313h-197l-131 280h-106v-280h-169v750h275q140 0 209.5 -56t69.5 -177zM449 510q0 57 -23 78.5t-79 21.5h-107v-204h104q56 0 80.5 21.5t24.5 82.5zM498 913l-139 -121h-124l65 121h198z" />
    <glyph glyph-name="racute" unicode="&#x155;" horiz-adv-x="458" 
d="M62 0v602l124 6l14 -101h3q29 55 71.5 82t94.5 27q20 0 37 -2.5t29 -6.5l-10 -153q-14 5 -31 7.5t-35 2.5q-61 0 -101 -42t-40 -118v-304h-156zM383 801l-120 -145h-117l59 145h178z" />
    <glyph glyph-name="uni0156" unicode="&#x156;" horiz-adv-x="680" 
d="M625 517q0 -79 -32.5 -132t-93.5 -72l175 -313h-197l-131 280h-106v-280h-169v750h275q140 0 209.5 -56t69.5 -177zM449 510q0 57 -23 78.5t-79 21.5h-107v-204h104q56 0 80.5 21.5t24.5 82.5zM338 -34q47 0 67 -15.5t20 -44.5q0 -14 -8.5 -28t-23 -28.5t-33 -28.5
t-38.5 -26l-47 16l26 58q-47 10 -47 48q0 20 18 34.5t66 14.5z" />
    <glyph glyph-name="uni0157" unicode="&#x157;" horiz-adv-x="458" 
d="M62 0v602l124 6l14 -101h3q29 55 71.5 82t94.5 27q20 0 37 -2.5t29 -6.5l-10 -153q-14 5 -31 7.5t-35 2.5q-61 0 -101 -42t-40 -118v-304h-156zM138 -34q47 0 67 -15.5t20 -44.5q0 -14 -8.5 -28t-23 -28.5t-33 -28.5t-38.5 -26l-47 16l26 58q-47 10 -47 48q0 20 18 34.5
t66 14.5z" />
    <glyph glyph-name="Rcaron" unicode="&#x158;" horiz-adv-x="680" 
d="M625 517q0 -79 -32.5 -132t-93.5 -72l175 -313h-197l-131 280h-106v-280h-169v750h275q140 0 209.5 -56t69.5 -177zM449 510q0 57 -23 78.5t-79 21.5h-107v-204h104q56 0 80.5 21.5t24.5 82.5zM228 792l-104 121h135l52 -60l53 60h135l-106 -121h-165z" />
    <glyph glyph-name="rcaron" unicode="&#x159;" horiz-adv-x="458" 
d="M62 0v602l124 6l14 -101h3q29 55 71.5 82t94.5 27q20 0 37 -2.5t29 -6.5l-10 -153q-14 5 -31 7.5t-35 2.5q-61 0 -101 -42t-40 -118v-304h-156zM174 656l-97 145h115l51 -86l50 86h117l-99 -145h-137z" />
    <glyph glyph-name="Sacute" unicode="&#x15a;" horiz-adv-x="578" 
d="M549 225q0 -112 -73 -175.5t-205 -63.5q-66 0 -124.5 15t-107.5 41l22 145q50 -26 101 -40.5t107 -14.5q62 0 90 21.5t28 60.5q0 29 -25.5 47t-64 32.5t-83 30t-83 41.5t-64 65.5t-25.5 102.5q0 48 16 89.5t49 73t84.5 49.5t122.5 18q55 0 110.5 -10.5t99.5 -28.5
l-21 -142q-47 15 -92.5 23.5t-88.5 8.5q-35 0 -57.5 -5.5t-36 -15.5t-19 -23t-5.5 -28q0 -29 25.5 -46.5t64 -31.5t83 -29t83 -40.5t64 -66t25.5 -103.5zM490 913l-139 -121h-124l65 121h198z" />
    <glyph glyph-name="sacute" unicode="&#x15b;" horiz-adv-x="497" 
d="M465 190q0 -45 -13 -82.5t-41 -64t-72 -41t-105 -14.5q-55 0 -103.5 10.5t-86.5 31.5l16 128q38 -22 86 -32.5t87 -10.5q47 0 67.5 17t20.5 44q0 24 -21 37.5t-52 24t-67.5 22t-67.5 31.5t-52 52.5t-21 85.5q0 41 14 75.5t42.5 59t71.5 38.5t102 14q46 0 90 -8.5
t82 -24.5l-13 -127q-38 16 -83 23.5t-79 7.5q-38 0 -58.5 -14t-20.5 -37t20.5 -35.5t51.5 -22.5t66.5 -21t66.5 -30.5t51.5 -52t20.5 -84.5zM415 801l-120 -145h-117l59 145h178z" />
    <glyph glyph-name="Scircumflex" unicode="&#x15c;" horiz-adv-x="578" 
d="M549 225q0 -112 -73 -175.5t-205 -63.5q-66 0 -124.5 15t-107.5 41l22 145q50 -26 101 -40.5t107 -14.5q62 0 90 21.5t28 60.5q0 29 -25.5 47t-64 32.5t-83 30t-83 41.5t-64 65.5t-25.5 102.5q0 48 16 89.5t49 73t84.5 49.5t122.5 18q55 0 110.5 -10.5t99.5 -28.5
l-21 -142q-47 15 -92.5 23.5t-88.5 8.5q-35 0 -57.5 -5.5t-36 -15.5t-19 -23t-5.5 -28q0 -29 25.5 -46.5t64 -31.5t83 -29t83 -40.5t64 -66t25.5 -103.5zM391 913l107 -121h-136l-53 57l-52 -57h-134l103 121h165z" />
    <glyph glyph-name="scircumflex" unicode="&#x15d;" horiz-adv-x="497" 
d="M465 190q0 -45 -13 -82.5t-41 -64t-72 -41t-105 -14.5q-55 0 -103.5 10.5t-86.5 31.5l16 128q38 -22 86 -32.5t87 -10.5q47 0 67.5 17t20.5 44q0 24 -21 37.5t-52 24t-67.5 22t-67.5 31.5t-52 52.5t-21 85.5q0 41 14 75.5t42.5 59t71.5 38.5t102 14q46 0 90 -8.5
t82 -24.5l-13 -127q-38 16 -83 23.5t-79 7.5q-38 0 -58.5 -14t-20.5 -37t20.5 -35.5t51.5 -22.5t66.5 -21t66.5 -30.5t51.5 -52t20.5 -84.5zM326 801l100 -145h-115l-52 82l-51 -82h-115l98 145h135z" />
    <glyph glyph-name="Scedilla" unicode="&#x15e;" horiz-adv-x="578" 
d="M227 -12q-53 5 -100 18.5t-88 35.5l22 145q50 -26 101 -40.5t107 -14.5q62 0 90 21.5t28 60.5q0 29 -25.5 47t-64 32.5t-83 30t-83 41.5t-64 65.5t-25.5 102.5q0 48 16 89.5t49 73t84.5 49.5t122.5 18q55 0 110.5 -10.5t99.5 -28.5l-21 -142q-47 15 -92.5 23.5t-88.5 8.5
q-35 0 -57.5 -5.5t-36 -15.5t-19 -23t-5.5 -28q0 -29 25.5 -46.5t64 -31.5t83 -29t83 -40.5t64 -66t25.5 -103.5q0 -97 -56 -158.5t-158 -75.5l-32 -180h-138z" />
    <glyph glyph-name="scedilla" unicode="&#x15f;" horiz-adv-x="497" 
d="M189 -10q-83 6 -145 40l16 128q38 -22 86 -32.5t87 -10.5q47 0 67.5 17t20.5 44q0 24 -21 37.5t-52 24t-67.5 22t-67.5 31.5t-52 52.5t-21 85.5q0 41 14 75.5t42.5 59t71.5 38.5t102 14q46 0 90 -8.5t82 -24.5l-13 -127q-38 16 -83 23.5t-79 7.5q-38 0 -58.5 -14
t-20.5 -37t20.5 -35.5t51.5 -22.5t66.5 -21t66.5 -30.5t51.5 -52t20.5 -84.5q0 -79 -39.5 -131t-129.5 -66l-32 -182h-138z" />
    <glyph glyph-name="Scaron" unicode="&#x160;" horiz-adv-x="578" 
d="M549 225q0 -112 -73 -175.5t-205 -63.5q-66 0 -124.5 15t-107.5 41l22 145q50 -26 101 -40.5t107 -14.5q62 0 90 21.5t28 60.5q0 29 -25.5 47t-64 32.5t-83 30t-83 41.5t-64 65.5t-25.5 102.5q0 48 16 89.5t49 73t84.5 49.5t122.5 18q55 0 110.5 -10.5t99.5 -28.5
l-21 -142q-47 15 -92.5 23.5t-88.5 8.5q-35 0 -57.5 -5.5t-36 -15.5t-19 -23t-5.5 -28q0 -29 25.5 -46.5t64 -31.5t83 -29t83 -40.5t64 -66t25.5 -103.5zM230 792l-104 121h135l52 -60l53 60h135l-106 -121h-165z" />
    <glyph glyph-name="scaron" unicode="&#x161;" horiz-adv-x="497" 
d="M465 190q0 -45 -13 -82.5t-41 -64t-72 -41t-105 -14.5q-55 0 -103.5 10.5t-86.5 31.5l16 128q38 -22 86 -32.5t87 -10.5q47 0 67.5 17t20.5 44q0 24 -21 37.5t-52 24t-67.5 22t-67.5 31.5t-52 52.5t-21 85.5q0 41 14 75.5t42.5 59t71.5 38.5t102 14q46 0 90 -8.5
t82 -24.5l-13 -127q-38 16 -83 23.5t-79 7.5q-38 0 -58.5 -14t-20.5 -37t20.5 -35.5t51.5 -22.5t66.5 -21t66.5 -30.5t51.5 -52t20.5 -84.5zM191 656l-97 145h115l51 -86l50 86h117l-99 -145h-137z" />
    <glyph glyph-name="uni0162" unicode="&#x162;" horiz-adv-x="597" 
d="M244 0h-31v598h-201l4 152h565l4 -152h-202v-598h-34l-33 -189h-138z" />
    <glyph glyph-name="uni0163" unicode="&#x163;" horiz-adv-x="403" 
d="M220 -5q-66 12 -98 59t-32 121v315h-68v116h75l26 137l122 11v-148h135v-116h-135v-310q0 -35 18 -51t54 -16q12 0 26 2t22 5l9 -113q-18 -8 -48 -12l-32 -184h-138z" />
    <glyph glyph-name="Tcaron" unicode="&#x164;" horiz-adv-x="597" 
d="M383 598v-598h-170v598h-201l4 152h565l4 -152h-202zM216 792l-104 121h135l52 -60l53 60h135l-106 -121h-165z" />
    <glyph glyph-name="tcaron" unicode="&#x165;" horiz-adv-x="403" 
d="M245 490v-310q0 -35 18 -51t54 -16q12 0 26 2t22 5l9 -113q-16 -7 -44 -12t-60 -5q-91 0 -135.5 49t-44.5 136v315h-68v116h75l26 137l122 11v-148h135v-116h-135zM368 803q37 0 53 -17t16 -46q0 -28 -25.5 -58t-57.5 -56l-36 17l21 58q-37 12 -37 50q0 21 15 36.5
t51 15.5z" />
    <glyph glyph-name="Tbar" unicode="&#x166;" horiz-adv-x="597" 
d="M383 598v-118h127v-107h-127v-373h-170v373h-126v107h126v118h-201l4 152h565l4 -152h-202z" />
    <glyph glyph-name="tbar" unicode="&#x167;" horiz-adv-x="403" 
d="M245 490v-63h135v-111h-135v-136q0 -35 18 -51t54 -16q12 0 26 2t22 5l9 -113q-16 -7 -44 -12t-60 -5q-91 0 -135.5 49t-44.5 136v141h-67v111h67v63h-68v116h75l26 137l122 11v-148h135v-116h-135z" />
    <glyph glyph-name="Utilde" unicode="&#x168;" horiz-adv-x="726" 
d="M665 268q0 -282 -301 -282q-149 0 -226 69.5t-77 212.5v482h168v-480q0 -69 32 -100t103 -31t102.5 31t31.5 100v480h167v-482zM193 796q2 54 29 87t75 33q25 0 45.5 -6.5t38 -14t31.5 -14t27 -6.5q14 0 21 6.5t10 23.5l68 -1q-2 -55 -30.5 -87.5t-74.5 -32.5
q-25 0 -44.5 6.5t-36 14t-30 14t-26.5 6.5q-12 0 -21 -8t-11 -22z" />
    <glyph glyph-name="utilde" unicode="&#x169;" horiz-adv-x="622" 
d="M566 214q0 -111 -62.5 -168t-192.5 -57t-192.5 58t-62.5 167v392h155v-389q0 -91 100 -91t100 91v389h155v-392zM144 669q2 58 29.5 96t73.5 38q25 0 43.5 -8t33.5 -18t28 -18t29 -8q14 0 22 11t13 30l71 -1q-2 -60 -30.5 -96.5t-73.5 -36.5q-25 0 -43 8t-33 18t-28.5 18
t-28.5 8q-14 0 -22.5 -12.5t-12.5 -29.5z" />
    <glyph glyph-name="Umacron" unicode="&#x16a;" horiz-adv-x="726" 
d="M665 268q0 -282 -301 -282q-149 0 -226 69.5t-77 212.5v482h168v-480q0 -69 32 -100t103 -31t102.5 31t31.5 100v480h167v-482zM526 804h-320v78h320v-78z" />
    <glyph glyph-name="umacron" unicode="&#x16b;" horiz-adv-x="622" 
d="M566 214q0 -111 -62.5 -168t-192.5 -57t-192.5 58t-62.5 167v392h155v-389q0 -91 100 -91t100 91v389h155v-392zM471 684h-320v96h320v-96z" />
    <glyph glyph-name="Ubreve" unicode="&#x16c;" horiz-adv-x="726" 
d="M665 268q0 -282 -301 -282q-149 0 -226 69.5t-77 212.5v482h168v-480q0 -69 32 -100t103 -31t102.5 31t31.5 100v480h167v-482zM536 913q0 -61 -40.5 -94t-131.5 -33q-93 0 -132 33.5t-39 93.5h114q0 -26 16.5 -36.5t41.5 -10.5q24 0 40 10.5t16 36.5h115z" />
    <glyph glyph-name="ubreve" unicode="&#x16d;" horiz-adv-x="622" 
d="M566 214q0 -111 -62.5 -168t-192.5 -57t-192.5 58t-62.5 167v392h155v-389q0 -91 100 -91t100 91v389h155v-392zM470 801q0 -74 -37.5 -113.5t-122.5 -39.5q-88 0 -123.5 40.5t-35.5 112.5h104q1 -41 16 -57.5t39 -16.5q23 0 38.5 16t15.5 58h106z" />
    <glyph glyph-name="Uring" unicode="&#x16e;" horiz-adv-x="726" 
d="M665 268q0 -282 -301 -282q-149 0 -226 69.5t-77 212.5v482h168v-480q0 -69 32 -100t103 -31t102.5 31t31.5 100v480h167v-482zM234 798q0 46 28 73.5t100 27.5q71 0 101.5 -28t30.5 -72q0 -52 -30 -76.5t-102 -24.5q-67 0 -97.5 22.5t-30.5 77.5zM314 793
q0 -16 10 -24.5t42 -8.5q28 0 39 8t11 25t-10.5 26.5t-39.5 9.5q-32 0 -42 -9.5t-10 -26.5z" />
    <glyph glyph-name="uring" unicode="&#x16f;" horiz-adv-x="622" 
d="M566 214q0 -111 -62.5 -168t-192.5 -57t-192.5 58t-62.5 167v392h155v-389q0 -91 100 -91t100 91v389h155v-392zM190 743q0 42 28.5 66t96.5 24q66 0 96 -25t30 -65q0 -46 -30 -68t-96 -22q-63 0 -94 20.5t-31 69.5zM265 742q0 -14 10.5 -22.5t41.5 -8.5q27 0 39 8t12 23
q0 14 -11 22.5t-40 8.5q-30 0 -41 -8.5t-11 -22.5z" />
    <glyph glyph-name="Uhungarumlaut" unicode="&#x170;" horiz-adv-x="726" 
d="M665 268q0 -282 -301 -282q-149 0 -226 69.5t-77 212.5v482h168v-480q0 -69 32 -100t103 -31t102.5 31t31.5 100v480h167v-482zM417 913l-93 -121h-100l36 121h157zM617 913l-117 -121h-112l69 121h160z" />
    <glyph glyph-name="uhungarumlaut" unicode="&#x171;" horiz-adv-x="622" 
d="M567 214q0 -111 -62.5 -168t-192.5 -57t-192.5 58t-62.5 167v392h155v-389q0 -91 100 -91t100 91v389h155v-392zM374 801l-108 -145h-100l50 145h158zM572 801l-121 -145h-113l74 145h160z" />
    <glyph glyph-name="Uogonek" unicode="&#x172;" horiz-adv-x="726" 
d="M433 -189q-64 0 -93.5 26.5t-29.5 65.5q0 26 10 47t29 38q-143 2 -215.5 71.5t-72.5 208.5v482h168v-480q0 -69 32 -100t103 -31t102.5 31t31.5 100v480h167v-482q0 -227 -195 -271q-43 -18 -43 -55q0 -17 11.5 -26.5t38.5 -9.5q29 0 50 11l12 -81q-22 -11 -47.5 -18
t-58.5 -7z" />
    <glyph glyph-name="uogonek" unicode="&#x173;" horiz-adv-x="622" 
d="M360 -189q-64 0 -93.5 26.5t-29.5 65.5q0 53 44 89q-114 6 -169 63t-55 159v392h155v-389q0 -91 100 -91t100 91v389h155v-392q0 -91 -42 -145.5t-128 -71.5q-43 -18 -43 -55q0 -17 11.5 -26.5t38.5 -9.5q29 0 50 11l12 -81q-22 -11 -47.5 -18t-58.5 -7z" />
    <glyph glyph-name="Wcircumflex" unicode="&#x174;" horiz-adv-x="1036" 
d="M613 750l106 -504l15 -79h3l13 80l94 503h167l-177 -750h-202l-99 502l-14 80h-3l-14 -81l-98 -501h-202l-177 750h175l94 -508l13 -80h3l14 79l106 509h183zM598 913l107 -121h-136l-53 57l-52 -57h-134l103 121h165z" />
    <glyph glyph-name="wcircumflex" unicode="&#x175;" horiz-adv-x="890" 
d="M529 606l81 -397l15 -79h3l12 80l68 396h152l-136 -606h-190l-68 362l-13 81h-3l-14 -81l-71 -362h-190l-145 606h156l73 -395l14 -80h3l13 80l78 395h162zM510 801l100 -145h-115l-52 82l-51 -82h-115l98 145h135z" />
    <glyph glyph-name="Ycircumflex" unicode="&#x176;" horiz-adv-x="698" 
d="M196 750l126 -284l31 -74h3l30 75l121 283h185l-255 -511v-239h-172v239l-259 511h190zM433 913l107 -121h-136l-53 57l-52 -57h-134l103 121h165z" />
    <glyph glyph-name="ycircumflex" unicode="&#x177;" horiz-adv-x="653" 
d="M181 -52q32 0 55 11.5t38 46.5l3 8l-261 592h177l132 -370l26 -76h3l19 78l99 368h165l-207 -598q-32 -94 -87.5 -135t-133.5 -41q-28 0 -54 4.5t-49 14.5l12 110q32 -13 63 -13zM403 801l100 -145h-115l-52 82l-51 -82h-115l98 145h135z" />
    <glyph glyph-name="Ydieresis" unicode="&#x178;" horiz-adv-x="698" 
d="M196 750l126 -284l31 -74h3l30 75l121 283h185l-255 -511v-239h-172v239l-259 511h190zM318 853q0 -30 -15 -45.5t-49 -15.5q-33 0 -49.5 14t-16.5 47q0 63 66 63q34 0 49 -16t15 -47zM517 853q0 -61 -65 -61q-33 0 -49 14t-16 47q0 63 65 63t65 -63z" />
    <glyph glyph-name="Zacute" unicode="&#x179;" horiz-adv-x="618" 
d="M35 0v110l291 422l46 64l-1 2h-328l5 152h528v-123l-284 -410l-46 -63l1 -3h332l-3 -151h-541zM503 913l-139 -121h-124l65 121h198z" />
    <glyph glyph-name="zacute" unicode="&#x17a;" horiz-adv-x="538" 
d="M269 194l-48 -62l1 -3h278l-4 -129h-454v109l222 303l48 63l-1 2h-261l5 129h436v-108zM429 801l-120 -145h-117l59 145h178z" />
    <glyph glyph-name="Zdotaccent" unicode="&#x17b;" horiz-adv-x="618" 
d="M35 0v110l291 422l46 64l-1 2h-328l5 152h528v-123l-284 -410l-46 -63l1 -3h332l-3 -151h-541zM410 849q0 -30 -20 -45t-71 -15q-50 0 -71 13.5t-21 46.5q0 30 20.5 45.5t71.5 15.5t71 -15.5t20 -45.5z" />
    <glyph glyph-name="zdotaccent" unicode="&#x17c;" horiz-adv-x="538" 
d="M269 194l-48 -62l1 -3h278l-4 -129h-454v109l222 303l48 63l-1 2h-261l5 129h436v-108zM361 738q0 -34 -21 -50.5t-67 -16.5q-45 0 -66.5 15t-21.5 52q0 67 88 67q46 0 67 -17.5t21 -49.5z" />
    <glyph glyph-name="Zcaron" unicode="&#x17d;" horiz-adv-x="618" 
d="M35 0v110l291 422l46 64l-1 2h-328l5 152h528v-123l-284 -410l-46 -63l1 -3h332l-3 -151h-541zM234 792l-104 121h135l52 -60l53 60h135l-106 -121h-165z" />
    <glyph glyph-name="zcaron" unicode="&#x17e;" horiz-adv-x="538" 
d="M269 194l-48 -62l1 -3h278l-4 -129h-454v109l222 303l48 63l-1 2h-261l5 129h436v-108zM205 656l-97 145h115l51 -86l50 86h117l-99 -145h-137z" />
    <glyph glyph-name="longs" unicode="&#x17f;" horiz-adv-x="335" 
d="M6 597h66q0 53 14 92.5t47 65.5t87.5 39t135.5 13l8 -112q-37 0 -62.5 -4t-41 -15t-22.5 -30.5t-7 -49.5v-506q0 -66 -18 -112.5t-51 -76t-80 -44.5t-104 -19l-11 109q28 4 48.5 12.5t33 24.5t18.5 41.5t6 63.5v399h-71z" />
    <glyph glyph-name="uni018F" unicode="&#x18f;" horiz-adv-x="748" 
d="M43 362q0 19 1 41.5t3 41.5h476q-4 49 -16.5 82.5t-35.5 53t-58.5 28t-86.5 8.5q-60 0 -116.5 -9t-99.5 -23l-18 138q55 20 117 30t143 10q82 0 147 -20.5t110 -66.5t69 -120.5t24 -182.5q0 -99 -18.5 -171.5t-58.5 -120.5t-103 -71.5t-151 -23.5q-77 0 -137.5 19
t-103 62.5t-65 115.5t-22.5 179zM372 134q38 0 65.5 9t45.5 30t28 55t13 84h-304v-1q0 -51 9 -85t27.5 -54.5t47 -29t68.5 -8.5z" />
    <glyph glyph-name="florin" unicode="&#x192;" horiz-adv-x="427" 
d="M-24 -154l138 641h-62l25 118h62l6 34q6 31 22.5 59t44.5 49t66 33t86 12q26 0 50.5 -4t42.5 -9l-30 -101q-12 3 -25.5 5t-26.5 2q-35 0 -52 -11.5t-22 -33.5l-7 -35h123l-24 -118h-124l-139 -641h-154z" />
    <glyph glyph-name="uni01B5" unicode="&#x1b5;" horiz-adv-x="618" 
d="M72 435h187l67 97l46 64l-1 2h-328l5 152h528v-123l-133 -192h122l-6 -96h-183l-84 -122l-46 -63l1 -3h332l-3 -151h-541v110l158 229h-127z" />
    <glyph glyph-name="uni01B6" unicode="&#x1b6;" horiz-adv-x="538" 
d="M386 355h89l-5 -88h-148l-53 -73l-48 -62l1 -3h278l-4 -129h-454v109l116 158h-85l5 88h144l42 57l48 63l-1 2h-261l5 129h436v-108z" />
    <glyph glyph-name="Aringacute" unicode="&#x1fa;" horiz-adv-x="734" 
d="M233 803q0 42 23 68.5t83 31.5l26 49h198l-94 -82q24 -26 24 -66q0 -46 -22 -69l257 -735h-188l-42 146h-272l-42 -146h-178l252 730q-25 24 -25 73zM342 544l-75 -257h191l-72 257l-20 79h-3zM313 798q0 -16 10 -24.5t42 -8.5q28 0 39 8t11 25t-10.5 26.5t-39.5 9.5
q-32 0 -42 -9.5t-10 -26.5z" />
    <glyph glyph-name="aringacute" unicode="&#x1fb;" horiz-adv-x="581" 
d="M394 58l-3 1q-28 -33 -70 -51t-94 -18q-86 0 -137 49.5t-51 151.5q0 42 14.5 77t42 59.5t67.5 38.5t92 14q34 0 63 -4.5t53 -12.5v35q0 46 -26 67.5t-89 21.5q-50 0 -87.5 -8t-79.5 -25l-13 124q46 20 97.5 30t110.5 10q67 0 113 -14.5t74.5 -44.5t41 -76t12.5 -108v-375
h-119zM480 922l-95 -115q30 -24 30 -64q0 -46 -30 -68t-96 -22q-63 0 -94 20.5t-31 69.5q0 38 23.5 61t77.5 28l37 90h178zM371 260q-11 5 -33 9t-53 4q-101 0 -101 -80q0 -45 24 -62.5t62 -17.5q20 0 38 5.5t32 15.5t22.5 22.5t8.5 27.5v76zM239 742q0 -14 10.5 -22.5
t41.5 -8.5q27 0 39 8t12 23q0 14 -11 22.5t-40 8.5q-30 0 -41 -8.5t-11 -22.5z" />
    <glyph glyph-name="AEacute" unicode="&#x1fc;" horiz-adv-x="1064" 
d="M687 601l9 -149h266v-134h-257l10 -171h315l-4 -147h-472l-9 148h-258l-69 -148h-199l404 750h592l3 -149h-331zM483 563l-131 -277h185l-15 269l-3 81l-3 1zM856 913l-139 -121h-124l65 121h198z" />
    <glyph glyph-name="aeacute" unicode="&#x1fd;" horiz-adv-x="909" 
d="M284 616q68 0 110.5 -16t66.5 -48q32 31 74.5 48t99.5 17q53 0 97.5 -17t76 -52t49 -88t17.5 -125q0 -17 -1 -37t-3 -36h-353q6 -76 44.5 -107.5t116.5 -31.5q43 0 83.5 8.5t78.5 23.5l17 -127q-38 -17 -89 -28t-109 -11q-86 0 -139.5 24t-85.5 64q-32 -42 -81 -65
t-112 -23q-98 0 -150.5 49t-52.5 152q0 42 14.5 76.5t42 59.5t67.5 38.5t92 13.5q35 0 63 -4.5t53 -11.5v35q0 46 -26 67.5t-89 21.5q-50 0 -87.5 -8t-79.5 -25l-13 124q47 19 98 29t110 10zM371 259q-11 5 -33 9t-53 4q-101 0 -101 -80q0 -45 24 -62.5t62 -17.5q43 0 72 22
t29 58v67zM733 365q-2 67 -30.5 95t-76.5 28q-56 0 -81 -28.5t-30 -94.5h218zM616 801l-120 -145h-117l59 145h178z" />
    <glyph glyph-name="Oslashacute" unicode="&#x1fe;" horiz-adv-x="748" 
d="M560 913l-139 -121h-124l65 121h198zM33 55l57 71q-47 91 -47 249q0 100 18.5 173t58.5 120.5t103 70.5t151 23q141 0 218 -61l53 63l78 -75l-62 -75q43 -89 43 -239q0 -102 -18.5 -175.5t-58.5 -121t-102.5 -70t-150.5 -22.5q-137 0 -213 57l-48 -60zM220 375
q0 -32 1.5 -59t3.5 -50l264 304q-18 23 -46 32t-70 9t-71.5 -10t-47.5 -36.5t-26 -72.5t-8 -117zM527 375q0 29 -1 53.5t-2 45.5l-262 -300q19 -21 46.5 -29t65.5 -8q43 0 72 10.5t47 37.5t26 73t8 117z" />
    <glyph glyph-name="oslashacute" unicode="&#x1ff;" horiz-adv-x="624" 
d="M31 46l43 53q-20 37 -29.5 87t-9.5 115q0 166 67 241t211 75q107 0 169 -40l37 45l65 -59l-40 -50q45 -73 45 -212q0 -84 -16 -143.5t-49.5 -97.5t-86 -56t-124.5 -18q-116 0 -180 45l-37 -45zM429 301q0 23 -1 42t-1 36l-207 -225q14 -23 37 -32t56 -9q32 0 54 8.5
t36 30t20 57.5t6 92zM195 301q0 -18 0.5 -33t0.5 -29l202 218q-14 17 -35 24.5t-50 7.5q-32 0 -54.5 -8.5t-36.5 -30t-20.5 -58t-6.5 -91.5zM478 801l-120 -145h-117l59 145h178z" />
    <glyph glyph-name="uni0218" unicode="&#x218;" horiz-adv-x="578" 
d="M549 225q0 -112 -73 -175.5t-205 -63.5q-66 0 -124.5 15t-107.5 41l22 145q50 -26 101 -40.5t107 -14.5q62 0 90 21.5t28 60.5q0 29 -25.5 47t-64 32.5t-83 30t-83 41.5t-64 65.5t-25.5 102.5q0 48 16 89.5t49 73t84.5 49.5t122.5 18q55 0 110.5 -10.5t99.5 -28.5
l-21 -142q-47 15 -92.5 23.5t-88.5 8.5q-35 0 -57.5 -5.5t-36 -15.5t-19 -23t-5.5 -28q0 -29 25.5 -46.5t64 -31.5t83 -29t83 -40.5t64 -66t25.5 -103.5zM284 -34q47 0 67 -15.5t20 -44.5q0 -14 -8.5 -28t-23 -28.5t-33 -28.5t-38.5 -26l-47 16l26 58q-47 10 -47 48
q0 20 18 34.5t66 14.5z" />
    <glyph glyph-name="uni0219" unicode="&#x219;" horiz-adv-x="497" 
d="M465 190q0 -45 -13 -82.5t-41 -64t-72 -41t-105 -14.5q-55 0 -103.5 10.5t-86.5 31.5l16 128q38 -22 86 -32.5t87 -10.5q47 0 67.5 17t20.5 44q0 24 -21 37.5t-52 24t-67.5 22t-67.5 31.5t-52 52.5t-21 85.5q0 41 14 75.5t42.5 59t71.5 38.5t102 14q46 0 90 -8.5
t82 -24.5l-13 -127q-38 16 -83 23.5t-79 7.5q-38 0 -58.5 -14t-20.5 -37t20.5 -35.5t51.5 -22.5t66.5 -21t66.5 -30.5t51.5 -52t20.5 -84.5zM252 -34q47 0 67 -15.5t20 -44.5q0 -14 -8.5 -28t-23 -28.5t-33 -28.5t-38.5 -26l-47 16l26 58q-47 10 -47 48q0 20 18 34.5
t66 14.5z" />
    <glyph glyph-name="uni021A" unicode="&#x21a;" horiz-adv-x="597" 
d="M383 598v-598h-170v598h-201l4 152h565l4 -152h-202zM296 -34q47 0 67 -15.5t20 -44.5q0 -14 -8.5 -28t-23 -28.5t-33 -28.5t-38.5 -26l-47 16l26 58q-47 10 -47 48q0 20 18 34.5t66 14.5z" />
    <glyph glyph-name="uni021B" unicode="&#x21b;" horiz-adv-x="403" 
d="M245 490v-310q0 -35 18 -51t54 -16q12 0 26 2t22 5l9 -113q-16 -7 -44 -12t-60 -5q-91 0 -135.5 49t-44.5 136v315h-68v116h75l26 137l122 11v-148h135v-116h-135zM239 -34q47 0 67 -15.5t20 -44.5q0 -14 -8.5 -28t-23 -28.5t-33 -28.5t-38.5 -26l-47 16l26 58
q-47 10 -47 48q0 20 18 34.5t66 14.5z" />
    <glyph glyph-name="uni0237" unicode="&#x237;" horiz-adv-x="319" 
d="M239 5q0 -49 -14 -81.5t-37.5 -52t-55 -28t-67.5 -8.5q-22 0 -43.5 4t-38.5 10l7 109q19 -6 37 -6q25 0 41 13.5t16 43.5v593l155 7v-604z" />
    <glyph glyph-name="uni0259" unicode="&#x259;" horiz-adv-x="586" 
d="M249 617q157 0 229.5 -81.5t72.5 -240.5q0 -145 -65.5 -225.5t-201.5 -80.5q-116 0 -183 69t-67 213q0 17 1 37t3 36h353q-6 76 -44.5 107.5t-116.5 31.5q-84 0 -162 -30l-17 125q38 17 89 28t109 11zM176 241q2 -67 30 -95t77 -28q56 0 81 28.5t30 94.5h-218z" />
    <glyph glyph-name="uni02BB" unicode="&#x2bb;" horiz-adv-x="254" 
d="M129 518q-47 0 -68 25.5t-21 68.5q0 20 8 47.5t21 56.5t29 56.5t32 48.5l56 -14l-25 -120q20 -10 36.5 -31t16.5 -48q0 -39 -19.5 -64.5t-65.5 -25.5z" />
    <glyph glyph-name="uni02BC" unicode="&#x2bc;" horiz-adv-x="254" 
d="M125 782q46 0 67.5 -25t21.5 -69q0 -20 -8 -47t-21 -56t-29.5 -57t-32.5 -49l-56 14l26 121q-20 9 -37 30t-17 49q0 38 19.5 63.5t66.5 25.5z" />
    <glyph glyph-name="circumflex" unicode="&#x2c6;" 
d="M270 801l100 -145h-115l-52 82l-51 -82h-115l98 145h135z" />
    <glyph glyph-name="caron" unicode="&#x2c7;" 
d="M135 656l-97 145h115l51 -86l50 86h117l-99 -145h-137z" />
    <glyph glyph-name="breve" unicode="&#x2d8;" 
d="M362 801q0 -74 -37.5 -113.5t-122.5 -39.5q-88 0 -123.5 40.5t-35.5 112.5h104q1 -41 16 -57.5t39 -16.5q23 0 38.5 16t15.5 58h106z" />
    <glyph glyph-name="dotaccent" unicode="&#x2d9;" 
d="M291 738q0 -34 -21 -50.5t-67 -16.5q-45 0 -66.5 15t-21.5 52q0 67 88 67q46 0 67 -17.5t21 -49.5z" />
    <glyph glyph-name="ring" unicode="&#x2da;" 
d="M79 743q0 42 28.5 66t96.5 24q66 0 96 -25t30 -65q0 -46 -30 -68t-96 -22q-63 0 -94 20.5t-31 69.5zM154 742q0 -14 10.5 -22.5t41.5 -8.5q27 0 39 8t12 23q0 14 -11 22.5t-40 8.5q-30 0 -41 -8.5t-11 -22.5z" />
    <glyph glyph-name="ogonek" unicode="&#x2db;" 
d="M264 -189q-64 0 -93.5 26.5t-29.5 65.5q0 45 29 74.5t79 44.5l62 -22q-27 -8 -40 -23t-13 -35q0 -17 11.5 -26.5t38.5 -9.5q29 0 50 11l12 -81q-22 -11 -47.5 -18t-58.5 -7z" />
    <glyph glyph-name="tilde" unicode="&#x2dc;" 
d="M38 669q2 58 29.5 96t73.5 38q25 0 43.5 -8t33.5 -18t28 -18t29 -8q14 0 22 11t13 30l71 -1q-2 -60 -30.5 -96.5t-73.5 -36.5q-25 0 -43 8t-33 18t-28.5 18t-28.5 8q-14 0 -22.5 -12.5t-12.5 -29.5z" />
    <glyph glyph-name="hungarumlaut" unicode="&#x2dd;" 
d="M275 801l-108 -145h-100l50 145h158zM473 801l-121 -145h-113l74 145h160z" />
    <glyph glyph-name="uni0307" unicode="&#x307;" horiz-adv-x="1" 
d="M-70 737q0 -33 -21 -49.5t-67 -16.5q-45 0 -67 14.5t-22 51.5q0 67 89 67q46 0 67 -17t21 -50z" />
    <glyph glyph-name="uni0394" unicode="&#x394;" horiz-adv-x="742" 
d="M713 0h-685l287 753h111zM343 478l-124 -342h298l-120 342l-25 77h-3z" />
    <glyph glyph-name="uni03A9" unicode="&#x3a9;" horiz-adv-x="745" 
d="M373 761q75 0 135.5 -19t102.5 -58t64.5 -99.5t22.5 -143.5q0 -94 -38 -171t-114 -132v-3h155v-135h-299v195q26 21 48 45t38 53t25 64t9 77q0 98 -37 138t-112 40q-76 0 -112.5 -40t-36.5 -138q0 -42 9 -77t25 -63.5t38 -53t48 -45.5v-195h-299v135h154l1 3
q-77 54 -114.5 130t-37.5 173q0 81 22.5 141t64.5 100t102.5 59.5t135.5 19.5z" />
    <glyph glyph-name="uni03BC" unicode="&#x3bc;" horiz-adv-x="628" 
d="M325 -9q-41 0 -73.5 16.5t-53.5 49.5l-2 -1q3 -54 7 -105t9 -100l-150 -12v767h156v-389q0 -42 28 -65.5t74 -23.5q44 0 71 20t27 62v396h154v-602l-110 -9l-19 43q-22 -22 -51.5 -34.5t-66.5 -12.5z" />
    <glyph glyph-name="pi" unicode="&#x3c0;" horiz-adv-x="681" 
d="M413 473h-141v-473h-155v471q-25 -2 -41.5 -6t-29.5 -12l-35 121q23 15 65 23.5t101 8.5h465v-133h-74v-304q0 -33 12.5 -45.5t46.5 -12.5v-116q-64 0 -105.5 9.5t-65.5 30t-33.5 53.5t-9.5 81v304z" />
    <glyph glyph-name="Wgrave" unicode="&#x1e80;" horiz-adv-x="1036" 
d="M613 750l106 -504l15 -79h3l13 80l94 503h167l-177 -750h-202l-99 502l-14 80h-3l-14 -81l-98 -501h-202l-177 750h175l94 -508l13 -80h3l14 79l106 509h183zM467 794l-128 120h184l70 -120h-126z" />
    <glyph glyph-name="wgrave" unicode="&#x1e81;" horiz-adv-x="890" 
d="M529 606l81 -397l15 -79h3l12 80l68 396h152l-136 -606h-190l-68 362l-13 81h-3l-14 -81l-71 -362h-190l-145 606h156l73 -395l14 -80h3l13 80l78 395h162zM406 656l-120 145h177l60 -145h-117z" />
    <glyph glyph-name="Wacute" unicode="&#x1e82;" horiz-adv-x="1036" 
d="M613 750l106 -504l15 -79h3l13 80l94 503h167l-177 -750h-202l-99 502l-14 80h-3l-14 -81l-98 -501h-202l-177 750h175l94 -508l13 -80h3l14 79l106 509h183zM715 913l-139 -121h-124l65 121h198z" />
    <glyph glyph-name="wacute" unicode="&#x1e83;" horiz-adv-x="890" 
d="M529 606l81 -397l15 -79h3l12 80l68 396h152l-136 -606h-190l-68 362l-13 81h-3l-14 -81l-71 -362h-190l-145 606h156l73 -395l14 -80h3l13 80l78 395h162zM616 801l-120 -145h-117l59 145h178z" />
    <glyph glyph-name="Wdieresis" unicode="&#x1e84;" horiz-adv-x="1036" 
d="M613 750l106 -504l15 -79h3l13 80l94 503h167l-177 -750h-202l-99 502l-14 80h-3l-14 -81l-98 -501h-202l-177 750h175l94 -508l13 -80h3l14 79l106 509h183zM483 853q0 -30 -15 -45.5t-49 -15.5q-33 0 -49.5 14t-16.5 47q0 63 66 63q34 0 49 -16t15 -47zM682 853
q0 -61 -65 -61q-33 0 -49 14t-16 47q0 63 65 63t65 -63z" />
    <glyph glyph-name="wdieresis" unicode="&#x1e85;" horiz-adv-x="890" 
d="M529 606l81 -397l15 -79h3l12 80l68 396h152l-136 -606h-190l-68 362l-13 81h-3l-14 -81l-71 -362h-190l-145 606h156l73 -395l14 -80h3l13 80l78 395h162zM417 738q0 -32 -15.5 -48.5t-50.5 -16.5q-33 0 -49 15t-16 50q0 66 65 66q35 0 50.5 -17t15.5 -49zM599 738
q0 -32 -15 -48.5t-50 -16.5q-33 0 -49.5 15t-16.5 50q0 66 66 66q35 0 50 -17t15 -49z" />
    <glyph glyph-name="uni1E8A" unicode="&#x1e8a;" horiz-adv-x="712" 
d="M475 392l218 -392h-191l-109 214l-34 73h-3l-35 -74l-107 -213h-195l213 388l-208 362h200l97 -187l36 -72h3l35 72l97 187h192zM451 849q0 -30 -20 -45t-71 -15q-50 0 -71 13.5t-21 46.5q0 30 20.5 45.5t71.5 15.5t71 -15.5t20 -45.5z" />
    <glyph glyph-name="uni1E8B" unicode="&#x1e8b;" horiz-adv-x="624" 
d="M342 161l-34 73h-3l-34 -74l-78 -160h-171l181 306l-178 300h180l76 -153l34 -73h3l33 73l75 153h172l-170 -296l175 -310h-180zM404 738q0 -34 -21 -50.5t-67 -16.5q-45 0 -66.5 15t-21.5 52q0 67 88 67q46 0 67 -17.5t21 -49.5z" />
    <glyph glyph-name="uni1E9E" unicode="&#x1e9e;" horiz-adv-x="1143" 
d="M549 225q0 -112 -73 -175.5t-205 -63.5q-66 0 -124.5 15t-107.5 41l22 145q50 -26 101 -40.5t107 -14.5q62 0 90 21.5t28 60.5q0 29 -25.5 47t-64 32.5t-83 30t-83 41.5t-64 65.5t-25.5 102.5q0 48 16 89.5t49 73t84.5 49.5t122.5 18q55 0 110.5 -10.5t99.5 -28.5
l-21 -142q-47 15 -92.5 23.5t-88.5 8.5q-35 0 -57.5 -5.5t-36 -15.5t-19 -23t-5.5 -28q0 -29 25.5 -46.5t64 -31.5t83 -29t83 -40.5t64 -66t25.5 -103.5zM1114 225q0 -112 -73 -175.5t-205 -63.5q-66 0 -124.5 15t-107.5 41l22 145q50 -26 101 -40.5t107 -14.5q62 0 90 21.5
t28 60.5q0 29 -25.5 47t-64 32.5t-83 30t-83 41.5t-64 65.5t-25.5 102.5q0 48 16 89.5t49 73t84.5 49.5t122.5 18q55 0 110.5 -10.5t99.5 -28.5l-21 -142q-47 15 -92.5 23.5t-88.5 8.5q-35 0 -57.5 -5.5t-36 -15.5t-19 -23t-5.5 -28q0 -29 25.5 -46.5t64 -31.5t83 -29
t83 -40.5t64 -66t25.5 -103.5z" />
    <glyph glyph-name="Ygrave" unicode="&#x1ef2;" horiz-adv-x="698" 
d="M196 750l126 -284l31 -74h3l30 75l121 283h185l-255 -511v-239h-172v239l-259 511h190zM306 794l-128 120h184l70 -120h-126z" />
    <glyph glyph-name="ygrave" unicode="&#x1ef3;" horiz-adv-x="653" 
d="M181 -52q32 0 55 11.5t38 46.5l3 8l-261 592h177l132 -370l26 -76h3l19 78l99 368h165l-207 -598q-32 -94 -87.5 -135t-133.5 -41q-28 0 -54 4.5t-49 14.5l12 110q32 -13 63 -13zM291 656l-120 145h177l60 -145h-117z" />
    <glyph glyph-name="uni2007" unicode="&#x2007;" horiz-adv-x="641" 
 />
    <glyph glyph-name="uni2008" unicode="&#x2008;" horiz-adv-x="269" 
 />
    <glyph glyph-name="space.frac" unicode="&#x2009;" horiz-adv-x="53" 
 />
    <glyph glyph-name="uni200B" unicode="&#x200b;" horiz-adv-x="0" 
 />
    <glyph glyph-name="endash" unicode="&#x2013;" horiz-adv-x="516" 
d="M464 398v-112h-412v112h412z" />
    <glyph glyph-name="emdash" unicode="&#x2014;" horiz-adv-x="697" 
d="M646 398v-112h-594v112h594z" />
    <glyph glyph-name="quoteleft" unicode="&#x2018;" horiz-adv-x="254" 
d="M129 518q-47 0 -68 25.5t-21 68.5q0 20 8 47.5t21 56.5t29 56.5t32 48.5l56 -14l-25 -120q20 -10 36.5 -31t16.5 -48q0 -39 -19.5 -64.5t-65.5 -25.5z" />
    <glyph glyph-name="quoteright" unicode="&#x2019;" horiz-adv-x="254" 
d="M125 782q46 0 67.5 -25t21.5 -69q0 -20 -8 -47t-21 -56t-29.5 -57t-32.5 -49l-56 14l26 121q-20 9 -37 30t-17 49q0 38 19.5 63.5t66.5 25.5z" />
    <glyph glyph-name="quotesinglbase" unicode="&#x201a;" horiz-adv-x="254" 
d="M125 158q46 0 67.5 -25t21.5 -69q0 -20 -8 -47t-21 -56t-29.5 -57t-32.5 -49l-56 14l26 121q-20 9 -37 30t-17 49q0 38 19.5 63.5t66.5 25.5z" />
    <glyph glyph-name="quotedblleft" unicode="&#x201c;" horiz-adv-x="471" 
d="M129 518q-47 0 -68 25.5t-21 68.5q0 20 8 47.5t21 56.5t29 56.5t32 48.5l56 -14l-25 -120q20 -10 36.5 -31t16.5 -48q0 -39 -19.5 -64.5t-65.5 -25.5zM346 519q-47 0 -68 25t-21 69q0 20 8 47t21 56t29.5 56.5t32.5 48.5l56 -13l-26 -121q20 -9 37 -30.5t17 -48.5
q0 -38 -19.5 -63.5t-66.5 -25.5z" />
    <glyph glyph-name="quotedblright" unicode="&#x201d;" horiz-adv-x="471" 
d="M125 780q46 0 67.5 -25t21.5 -69q0 -20 -8 -47t-21 -56t-29.5 -57t-32.5 -49l-56 14l26 121q-20 9 -37 30t-17 49q0 38 19.5 63.5t66.5 25.5zM343 780q46 0 67.5 -25t21.5 -69q0 -20 -8 -47t-21 -56t-29.5 -57t-32.5 -49l-56 14l26 121q-20 9 -37 30t-17 49
q0 38 19.5 63.5t66.5 25.5z" />
    <glyph glyph-name="quotedblbase" unicode="&#x201e;" horiz-adv-x="471" 
d="M343 158q46 0 67.5 -25t21.5 -69q0 -20 -8 -47t-21 -56t-29.5 -57t-32.5 -49l-56 14l26 121q-20 9 -37 30t-17 49q0 38 19.5 63.5t66.5 25.5zM125 158q46 0 67.5 -25t21.5 -69q0 -20 -8 -47t-21 -56t-29.5 -57t-32.5 -49l-56 14l26 121q-20 9 -37 30t-17 49
q0 38 19.5 63.5t66.5 25.5z" />
    <glyph glyph-name="dagger" unicode="&#x2020;" horiz-adv-x="492" 
d="M181 604l-13 182h154l-12 -182l152 11v-146l-152 11l12 -627h-154l13 627l-151 -11v146z" />
    <glyph glyph-name="daggerdbl" unicode="&#x2021;" horiz-adv-x="492" 
d="M462 31l-152 11l12 -189h-154l13 189l-151 -11v145l152 -10l-1 314l-151 -10v145l151 -11l-13 182h154l-12 -182l152 11v-145l-152 10v-314l152 10v-145z" />
    <glyph glyph-name="bullet" unicode="&#x2022;" horiz-adv-x="414" 
d="M48 322q0 160 156 160q159 0 159 -160q0 -161 -159 -161q-156 0 -156 161z" />
    <glyph glyph-name="ellipsis" unicode="&#x2026;" horiz-adv-x="739" 
d="M693 75q0 -41 -20.5 -64t-68.5 -23t-69 19.5t-21 67.5q0 42 21 64t69 22t68.5 -22t20.5 -64zM462 75q0 -41 -20.5 -64t-68.5 -23t-69 19.5t-21 67.5q0 42 21 64t69 22t68.5 -22t20.5 -64zM224 75q0 -41 -20.5 -64t-68.5 -23t-69 19.5t-21 67.5q0 42 21 64t69 22t68.5 -22
t20.5 -64z" />
    <glyph glyph-name="perthousand" unicode="&#x2030;" horiz-adv-x="1073" 
d="M342 585q0 -176 -156 -176q-81 0 -118 44t-37 132q0 91 36.5 132.5t119.5 41.5q77 0 116 -40t39 -134zM239 585q0 47 -13 62.5t-39 15.5q-27 0 -40 -15.5t-13 -62.5t13 -62.5t40 -15.5q26 0 39 15.5t13 62.5zM612 644l-407 -617l-90 71l408 617zM707 165
q0 -175 -156 -175q-81 0 -118 43.5t-37 131.5q0 91 36.5 134t119.5 43q77 0 116 -41.5t39 -135.5zM605 165q0 46 -13.5 61.5t-39.5 15.5q-27 0 -40 -15.5t-13 -61.5q0 -47 13 -62t40 -15t40 15t13 62zM1042 165q0 -175 -157 -175q-81 0 -117.5 43.5t-36.5 131.5
q0 91 36.5 134t118.5 43q78 0 117 -41.5t39 -135.5zM939 165q0 46 -13 61.5t-40 15.5q-26 0 -39 -15.5t-13 -61.5q0 -47 13 -62t39 -15q27 0 40 15t13 62z" />
    <glyph glyph-name="guilsinglleft" unicode="&#x2039;" horiz-adv-x="394" 
d="M184 320l160 -101v-120l-313 216v11l313 216v-120z" />
    <glyph glyph-name="guilsinglright" unicode="&#x203a;" horiz-adv-x="394" 
d="M51 219l159 101l-159 102v120l312 -216v-11l-312 -216v120z" />
    <glyph glyph-name="fraction" unicode="&#x2044;" horiz-adv-x="306" 
d="M478 750l-498 -750h-109l497 750h110z" />
    <glyph glyph-name="uni2070" unicode="&#x2070;" horiz-adv-x="384" 
d="M360 686q0 -103 -39.5 -152t-128.5 -49q-90 0 -129 49t-39 152q0 108 39 155.5t129 47.5q89 0 128.5 -47.5t39.5 -155.5zM253 686q0 36 -4 58t-11.5 35t-19 17.5t-26.5 4.5q-16 0 -27.5 -4.5t-19 -17.5t-11 -35t-3.5 -58q0 -35 3.5 -57.5t11 -35t19 -17t27.5 -4.5
q15 0 26.5 4.5t19 17t11.5 35t4 57.5z" />
    <glyph glyph-name="uni2074" unicode="&#x2074;" horiz-adv-x="384" 
d="M330 560v-70h-101v70h-202l-9 61l182 263h130v-238h41l-3 -86h-38zM235 710l5 80h-3l-51 -77l-45 -64l1 -3h91z" />
    <glyph glyph-name="uni2075" unicode="&#x2075;" horiz-adv-x="384" 
d="M353 627q0 -65 -38 -103.5t-127 -38.5q-38 0 -74.5 6.5t-68.5 21.5l17 82q30 -12 56.5 -18t61.5 -6q38 0 52.5 12t14.5 35q0 40 -66 40q-23 0 -47 -2.5t-42 -7.5l-41 36l20 200h258l3 -91h-177l-5 -55q14 2 28 3t30 1q69 0 107 -29t38 -86z" />
    <glyph glyph-name="uni2076" unicode="&#x2076;" horiz-adv-x="384" 
d="M359 628q0 -72 -42 -107.5t-119 -35.5q-83 0 -127.5 46.5t-44.5 147.5q0 100 50.5 155.5t148.5 55.5q61 0 108 -17l-6 -85q-22 7 -42 9.5t-46 2.5q-49 0 -73.5 -17.5t-32.5 -52.5l2 -2q34 19 80 19q71 0 107.5 -29.5t36.5 -89.5zM252 628q0 21 -12.5 31.5t-42.5 10.5
q-14 0 -32.5 -5t-26.5 -15q0 -43 14 -61t47 -18q53 0 53 57z" />
    <glyph glyph-name="uni2077" unicode="&#x2077;" horiz-adv-x="384" 
d="M357 793l-161 -303h-126l131 227l42 67l-2 2h-215l5 98h326v-91z" />
    <glyph glyph-name="uni2078" unicode="&#x2078;" horiz-adv-x="384" 
d="M23 608q0 26 14 48.5t41 39.5q-17 14 -27.5 34.5t-10.5 50.5q0 51 36 80t116 29q81 0 116.5 -30t35.5 -79q0 -26 -11 -46t-29 -34q24 -13 40 -35t16 -58q0 -60 -41 -91.5t-127 -31.5q-88 0 -128.5 31.5t-40.5 91.5zM253 601q0 12 -7.5 19.5t-20 13.5t-28.5 11t-34 11
q-15 -9 -25 -21.5t-10 -27.5q0 -23 16 -32.5t51 -9.5q26 0 42 8t16 28zM142 776q0 -20 22.5 -29t54.5 -17q13 9 20 18.5t7 22.5q0 19 -12.5 29t-41.5 10q-50 0 -50 -34z" />
    <glyph glyph-name="uni2079" unicode="&#x2079;" horiz-adv-x="384" 
d="M356 702q0 -112 -47 -164.5t-143 -52.5q-41 0 -66.5 5t-50.5 14l16 85q23 -9 44.5 -13.5t48.5 -4.5q48 0 71.5 21t28.5 65l-2 2q-32 -25 -83 -25q-79 0 -113 33.5t-34 87.5q0 58 38.5 96.5t120.5 38.5q89 0 130 -48t41 -140zM248 733q0 41 -15.5 56t-49.5 15
q-54 0 -54 -45q0 -23 12.5 -35t45.5 -12q21 0 37.5 6t23.5 15z" />
    <glyph glyph-name="uni207A" unicode="&#x207a;" horiz-adv-x="384" 
d="M236 642v-105h-89v105h-106v94h106v106h89v-106h107v-94h-107z" />
    <glyph glyph-name="uni207B" unicode="&#x207b;" horiz-adv-x="384" 
d="M45 649v90h291v-90h-291z" />
    <glyph glyph-name="uni207C" unicode="&#x207c;" horiz-adv-x="384" 
d="M51 717v79h283v-79h-283zM51 586v79h283v-79h-283z" />
    <glyph glyph-name="uni207D" unicode="&#x207d;" horiz-adv-x="220" 
d="M218 907q-67 -101 -67 -236q0 -66 17 -125.5t50 -109.5l-71 -7q-48 45 -71 107.5t-23 134.5q0 74 23 135.5t71 107.5z" />
    <glyph glyph-name="uni207E" unicode="&#x207e;" horiz-adv-x="220" 
d="M74 914q48 -46 70 -107.5t22 -135.5q0 -72 -22.5 -134.5t-69.5 -107.5l-73 7q33 50 50 109.5t17 125.5q0 67 -16.5 126.5t-50.5 109.5z" />
    <glyph glyph-name="uni2080" unicode="&#x2080;" horiz-adv-x="384" 
d="M360 43q0 -103 -39.5 -152t-128.5 -49q-90 0 -129 49t-39 152q0 108 39 155.5t129 47.5q89 0 128.5 -47.5t39.5 -155.5zM253 43q0 36 -4 58t-11.5 35t-19 17.5t-26.5 4.5q-16 0 -27.5 -4.5t-19 -17.5t-11 -35t-3.5 -58q0 -35 3.5 -57.5t11 -35t19 -17t27.5 -4.5
q15 0 26.5 4.5t19 17t11.5 35t4 57.5z" />
    <glyph glyph-name="uni2081" unicode="&#x2081;" horiz-adv-x="285" 
d="M230 -153h-108v270l-79 -44l-9 88l128 81h68v-395z" />
    <glyph glyph-name="uni2082" unicode="&#x2082;" horiz-adv-x="373" 
d="M341 124q0 -27 -11.5 -50.5t-32.5 -45.5t-50.5 -43.5t-65.5 -45.5v-3h159l-2 -89h-298v70q40 35 74.5 63t59.5 51.5t39 43.5t14 40q0 17 -14 28.5t-47 11.5q-29 0 -54.5 -9t-52.5 -25l-25 84q30 20 68 30.5t85 10.5q79 0 116.5 -34t37.5 -88z" />
    <glyph glyph-name="uni2083" unicode="&#x2083;" horiz-adv-x="373" 
d="M350 -35q0 -58 -41 -90.5t-131 -32.5q-42 0 -78 9t-62 24l23 81q26 -14 55 -21.5t61 -7.5q68 0 68 44q0 10 -4 17.5t-16 13t-33.5 8.5t-55.5 3v73q33 0 53 2.5t31.5 8t15.5 13t4 16.5q0 15 -14.5 24t-47.5 9q-35 0 -62.5 -8t-53.5 -25l-25 79q28 19 65.5 30t79.5 11
q77 0 118.5 -29.5t41.5 -82.5q0 -30 -15 -50t-42 -31v-3q31 -11 48 -31.5t17 -53.5z" />
    <glyph glyph-name="uni2084" unicode="&#x2084;" horiz-adv-x="384" 
d="M330 -83v-70h-101v70h-202l-9 61l182 263h130v-238h41l-3 -86h-38zM235 67l5 80h-3l-51 -77l-45 -64l1 -3h91z" />
    <glyph glyph-name="uni2085" unicode="&#x2085;" horiz-adv-x="384" 
d="M353 -16q0 -65 -38 -103.5t-127 -38.5q-38 0 -74.5 6.5t-68.5 21.5l17 82q30 -12 56.5 -18t61.5 -6q38 0 52.5 12t14.5 35q0 40 -66 40q-23 0 -47 -2.5t-42 -7.5l-41 36l20 200h258l3 -91h-177l-5 -55q14 2 28 3t30 1q69 0 107 -29t38 -86z" />
    <glyph glyph-name="uni2086" unicode="&#x2086;" horiz-adv-x="384" 
d="M359 -15q0 -72 -42 -107.5t-119 -35.5q-83 0 -127.5 46.5t-44.5 147.5q0 100 50.5 155.5t148.5 55.5q61 0 108 -17l-6 -85q-22 7 -42 9.5t-46 2.5q-49 0 -73.5 -17.5t-32.5 -52.5l2 -2q34 19 80 19q71 0 107.5 -29.5t36.5 -89.5zM252 -15q0 21 -12.5 31.5t-42.5 10.5
q-14 0 -32.5 -5t-26.5 -15q0 -43 14 -61t47 -18q53 0 53 57z" />
    <glyph glyph-name="uni2087" unicode="&#x2087;" horiz-adv-x="384" 
d="M357 150l-161 -303h-126l131 227l42 67l-2 2h-215l5 98h326v-91z" />
    <glyph glyph-name="uni2088" unicode="&#x2088;" horiz-adv-x="384" 
d="M23 -35q0 26 14 48.5t41 39.5q-17 14 -27.5 34.5t-10.5 50.5q0 51 36 80t116 29q81 0 116.5 -30t35.5 -79q0 -26 -11 -46t-29 -34q24 -13 40 -35t16 -58q0 -60 -41 -91.5t-127 -31.5q-88 0 -128.5 31.5t-40.5 91.5zM253 -42q0 12 -7.5 19.5t-20 13.5t-28.5 11t-34 11
q-15 -9 -25 -21.5t-10 -27.5q0 -23 16 -32.5t51 -9.5q26 0 42 8t16 28zM142 133q0 -20 22.5 -29t54.5 -17q13 9 20 18.5t7 22.5q0 19 -12.5 29t-41.5 10q-50 0 -50 -34z" />
    <glyph glyph-name="uni2089" unicode="&#x2089;" horiz-adv-x="384" 
d="M356 59q0 -112 -47 -164.5t-143 -52.5q-41 0 -66.5 5t-50.5 14l16 85q23 -9 44.5 -13.5t48.5 -4.5q48 0 71.5 21t28.5 65l-2 2q-32 -25 -83 -25q-79 0 -113 33.5t-34 87.5q0 58 38.5 96.5t120.5 38.5q89 0 130 -48t41 -140zM248 90q0 41 -15.5 56t-49.5 15q-54 0 -54 -45
q0 -23 12.5 -35t45.5 -12q21 0 37.5 6t23.5 15z" />
    <glyph glyph-name="uni208A" unicode="&#x208a;" horiz-adv-x="384" 
d="M236 -1v-105h-89v105h-106v94h106v106h89v-106h107v-94h-107z" />
    <glyph glyph-name="uni208B" unicode="&#x208b;" horiz-adv-x="384" 
d="M45 6v90h291v-90h-291z" />
    <glyph glyph-name="uni208C" unicode="&#x208c;" horiz-adv-x="384" 
d="M51 74v79h283v-79h-283zM51 -57v79h283v-79h-283z" />
    <glyph glyph-name="uni208D" unicode="&#x208d;" horiz-adv-x="220" 
d="M218 264q-67 -101 -67 -236q0 -66 17 -125.5t50 -109.5l-71 -7q-48 45 -71 107.5t-23 134.5q0 74 23 135.5t71 107.5z" />
    <glyph glyph-name="uni208E" unicode="&#x208e;" horiz-adv-x="220" 
d="M74 271q48 -46 70 -107.5t22 -135.5q0 -72 -22.5 -134.5t-69.5 -107.5l-73 7q33 50 50 109.5t17 125.5q0 67 -16.5 126.5t-50.5 109.5z" />
    <glyph glyph-name="franc" unicode="&#x20a3;" horiz-adv-x="641" 
d="M93 201v549h490l3 -152h-324v-152h247l-1 -143h-246v-102h75v-112h-75v-89h-169v89h-68v112h68z" />
    <glyph glyph-name="lira" unicode="&#x20a4;" horiz-adv-x="641" 
d="M72 477h29q-8 32 -8 64q0 44 15 84t49 71t89.5 49t136.5 18q58 0 102.5 -9t79.5 -23l-19 -139q-29 11 -67 18t-78 7q-39 0 -66 -8t-44 -22.5t-24.5 -33t-7.5 -39.5q0 -19 3 -37h262v-85h-238l12 -43h226v-84h-217q-1 -45 -18.5 -77t-49.5 -52l2 -3q42 11 88 15.5t94 4.5
t90 -3.5t85 -8.5q-1 -2 -2 -24.5t-2 -49.5t-2 -49.5t-2 -24.5q-63 7 -121 10.5t-120 3.5q-36 0 -69 -0.5t-67 -2t-69.5 -3.5t-76.5 -6l-8 144q45 9 69.5 43.5t24.5 76.5v6h-69l-4 84h62q-3 11 -6.5 21.5t-6.5 21.5h-51z" />
    <glyph glyph-name="peseta" unicode="&#x20a7;" horiz-adv-x="641" 
d="M586 452q-9 -104 -72 -158t-198 -54h-90v-240h-157v452h-46v78h46v220h247q134 0 198 -53t72 -167h47v-78h-47zM225 530h200q-6 48 -31.5 66t-78.5 18h-90v-84zM316 370q24 0 43 3.5t32 12.5t21.5 25t11.5 41h-199v-82h91z" />
    <glyph glyph-name="Euro" unicode="&#x20ac;" horiz-adv-x="641" 
d="M487 266h-201q17 -78 62.5 -110t120.5 -32q35 0 69.5 9t65.5 23l12 -124q-37 -20 -84 -31t-107 -11q-136 0 -212.5 68t-97.5 208h-83v81h76q-1 8 -1 16v29h-75v85h83q11 63 37 114.5t66.5 87.5t94.5 55.5t121 19.5q55 0 99 -8t78 -22l-32 -134q-26 9 -51 13.5t-57 4.5
q-149 0 -183 -131h254l-20 -84h-245v-46h229z" />
    <glyph glyph-name="trademark" unicode="&#x2122;" horiz-adv-x="692" 
d="M578 471v102l2 81l-3 1l-26 -77l-39 -107h-66l-40 105l-27 77l-2 -1l1 -81v-100h-79v288h116l39 -106l26 -76h3l25 76l39 106h112v-288h-81zM191 678v-207h-94v207h-77v81h248v-81h-77z" />
    <glyph glyph-name="Omega" unicode="&#x2126;" horiz-adv-x="745" 
d="M373 761q75 0 135.5 -19t102.5 -58t64.5 -99.5t22.5 -143.5q0 -94 -38 -171t-114 -132v-3h155v-135h-299v195q26 21 48 45t38 53t25 64t9 77q0 98 -37 138t-112 40q-76 0 -112.5 -40t-36.5 -138q0 -42 9 -77t25 -63.5t38 -53t48 -45.5v-195h-299v135h154l1 3
q-77 54 -114.5 130t-37.5 173q0 81 22.5 141t64.5 100t102.5 59.5t135.5 19.5z" />
    <glyph glyph-name="uni2150" unicode="&#x2150;" horiz-adv-x="975" 
d="M230 356h-108v270l-79 -44l-9 88l128 81h68v-395zM763 750l-498 -750h-109l497 750h110zM948 303l-161 -303h-126l131 227l42 67l-2 2h-215l5 98h326v-91z" />
    <glyph glyph-name="uni2151" unicode="&#x2151;" horiz-adv-x="975" 
d="M230 356h-108v270l-79 -44l-9 88l128 81h68v-395zM763 750l-498 -750h-109l497 750h110zM947 212q0 -112 -47 -164.5t-143 -52.5q-41 0 -66.5 5t-50.5 14l16 85q23 -9 44.5 -13.5t48.5 -4.5q48 0 71.5 21t28.5 65l-2 2q-32 -25 -83 -25q-79 0 -113 33.5t-34 87.5
q0 58 38.5 96.5t120.5 38.5q89 0 130 -48t41 -140zM839 243q0 41 -15.5 56t-49.5 15q-54 0 -54 -45q0 -23 12.5 -35t45.5 -12q21 0 37.5 6t23.5 15z" />
    <glyph glyph-name="uni2152" unicode="&#x2152;" horiz-adv-x="1260" 
d="M230 356h-108v270l-79 -44l-9 88l128 81h68v-395zM763 750l-498 -750h-109l497 750h110zM821 0h-108v270l-79 -44l-9 88l128 81h68v-395zM1236 196q0 -103 -39.5 -152t-128.5 -49q-90 0 -129 49t-39 152q0 108 39 155.5t129 47.5q89 0 128.5 -47.5t39.5 -155.5zM1129 196
q0 36 -4 58t-11.5 35t-19 17.5t-26.5 4.5q-16 0 -27.5 -4.5t-19 -17.5t-11 -35t-3.5 -58q0 -35 3.5 -57.5t11 -35t19 -17t27.5 -4.5q15 0 26.5 4.5t19 17t11.5 35t4 57.5z" />
    <glyph glyph-name="onethird" unicode="&#x2153;" horiz-adv-x="964" 
d="M230 356h-108v270l-79 -44l-9 88l128 81h68v-395zM763 750l-498 -750h-109l497 750h110zM941 118q0 -58 -41 -90.5t-131 -32.5q-42 0 -78 9t-62 24l23 81q26 -14 55 -21.5t61 -7.5q68 0 68 44q0 10 -4 17.5t-16 13t-33.5 8.5t-55.5 3v73q33 0 53 2.5t31.5 8t15.5 13
t4 16.5q0 15 -14.5 24t-47.5 9q-35 0 -62.5 -8t-53.5 -25l-25 79q28 19 65.5 30t79.5 11q77 0 118.5 -29.5t41.5 -82.5q0 -30 -15 -50t-42 -31v-3q31 -11 48 -31.5t17 -53.5z" />
    <glyph glyph-name="twothirds" unicode="&#x2154;" horiz-adv-x="1052" 
d="M341 633q0 -27 -11.5 -50.5t-32.5 -45.5t-50.5 -43.5t-65.5 -45.5v-3h159l-2 -89h-298v70q40 35 74.5 63t59.5 51.5t39 43.5t14 40q0 17 -14 28.5t-47 11.5q-29 0 -54.5 -9t-52.5 -25l-25 84q30 20 68 30.5t85 10.5q79 0 116.5 -34t37.5 -88zM851 750l-498 -750h-109
l497 750h110zM1029 118q0 -58 -41 -90.5t-131 -32.5q-42 0 -78 9t-62 24l23 81q26 -14 55 -21.5t61 -7.5q68 0 68 44q0 10 -4 17.5t-16 13t-33.5 8.5t-55.5 3v73q33 0 53 2.5t31.5 8t15.5 13t4 16.5q0 15 -14.5 24t-47.5 9q-35 0 -62.5 -8t-53.5 -25l-25 79q28 19 65.5 30
t79.5 11q77 0 118.5 -29.5t41.5 -82.5q0 -30 -15 -50t-42 -31v-3q31 -11 48 -31.5t17 -53.5z" />
    <glyph glyph-name="uni2155" unicode="&#x2155;" horiz-adv-x="975" 
d="M230 356h-108v270l-79 -44l-9 88l128 81h68v-395zM763 750l-498 -750h-109l497 750h110zM944 137q0 -65 -38 -103.5t-127 -38.5q-38 0 -74.5 6.5t-68.5 21.5l17 82q30 -12 56.5 -18t61.5 -6q38 0 52.5 12t14.5 35q0 40 -66 40q-23 0 -47 -2.5t-42 -7.5l-41 36l20 200h258
l3 -91h-177l-5 -55q14 2 28 3t30 1q69 0 107 -29t38 -86z" />
    <glyph glyph-name="uni2156" unicode="&#x2156;" horiz-adv-x="1063" 
d="M341 633q0 -27 -11.5 -50.5t-32.5 -45.5t-50.5 -43.5t-65.5 -45.5v-3h159l-2 -89h-298v70q40 35 74.5 63t59.5 51.5t39 43.5t14 40q0 17 -14 28.5t-47 11.5q-29 0 -54.5 -9t-52.5 -25l-25 84q30 20 68 30.5t85 10.5q79 0 116.5 -34t37.5 -88zM851 750l-498 -750h-109
l497 750h110zM1032 137q0 -65 -38 -103.5t-127 -38.5q-38 0 -74.5 6.5t-68.5 21.5l17 82q30 -12 56.5 -18t61.5 -6q38 0 52.5 12t14.5 35q0 40 -66 40q-23 0 -47 -2.5t-42 -7.5l-41 36l20 200h258l3 -91h-177l-5 -55q14 2 28 3t30 1q69 0 107 -29t38 -86z" />
    <glyph glyph-name="uni2157" unicode="&#x2157;" horiz-adv-x="1063" 
d="M350 474q0 -58 -41 -90.5t-131 -32.5q-42 0 -78 9t-62 24l23 81q26 -14 55 -21.5t61 -7.5q68 0 68 44q0 10 -4 17.5t-16 13t-33.5 8.5t-55.5 3v73q33 0 53 2.5t31.5 8t15.5 13t4 16.5q0 15 -14.5 24t-47.5 9q-35 0 -62.5 -8t-53.5 -25l-25 79q28 19 65.5 30t79.5 11
q77 0 118.5 -29.5t41.5 -82.5q0 -30 -15 -50t-42 -31v-3q31 -11 48 -31.5t17 -53.5zM851 750l-498 -750h-109l497 750h110zM1032 137q0 -65 -38 -103.5t-127 -38.5q-38 0 -74.5 6.5t-68.5 21.5l17 82q30 -12 56.5 -18t61.5 -6q38 0 52.5 12t14.5 35q0 40 -66 40
q-23 0 -47 -2.5t-42 -7.5l-41 36l20 200h258l3 -91h-177l-5 -55q14 2 28 3t30 1q69 0 107 -29t38 -86z" />
    <glyph glyph-name="uni2158" unicode="&#x2158;" horiz-adv-x="1074" 
d="M330 426v-70h-101v70h-202l-9 61l182 263h130v-238h41l-3 -86h-38zM235 576l5 80h-3l-51 -77l-45 -64l1 -3h91zM862 750l-498 -750h-109l497 750h110zM1043 137q0 -65 -38 -103.5t-127 -38.5q-38 0 -74.5 6.5t-68.5 21.5l17 82q30 -12 56.5 -18t61.5 -6q38 0 52.5 12
t14.5 35q0 40 -66 40q-23 0 -47 -2.5t-42 -7.5l-41 36l20 200h258l3 -91h-177l-5 -55q14 2 28 3t30 1q69 0 107 -29t38 -86z" />
    <glyph glyph-name="uni2159" unicode="&#x2159;" horiz-adv-x="975" 
d="M230 356h-108v270l-79 -44l-9 88l128 81h68v-395zM763 750l-498 -750h-109l497 750h110zM950 138q0 -72 -42 -107.5t-119 -35.5q-83 0 -127.5 46.5t-44.5 147.5q0 100 50.5 155.5t148.5 55.5q61 0 108 -17l-6 -85q-22 7 -42 9.5t-46 2.5q-49 0 -73.5 -17.5t-32.5 -52.5
l2 -2q34 19 80 19q71 0 107.5 -29.5t36.5 -89.5zM843 138q0 21 -12.5 31.5t-42.5 10.5q-14 0 -32.5 -5t-26.5 -15q0 -43 14 -61t47 -18q53 0 53 57z" />
    <glyph glyph-name="uni215A" unicode="&#x215a;" horiz-adv-x="1074" 
d="M353 493q0 -65 -38 -103.5t-127 -38.5q-38 0 -74.5 6.5t-68.5 21.5l17 82q30 -12 56.5 -18t61.5 -6q38 0 52.5 12t14.5 35q0 40 -66 40q-23 0 -47 -2.5t-42 -7.5l-41 36l20 200h258l3 -91h-177l-5 -55q14 2 28 3t30 1q69 0 107 -29t38 -86zM862 750l-498 -750h-109
l497 750h110zM1049 138q0 -72 -42 -107.5t-119 -35.5q-83 0 -127.5 46.5t-44.5 147.5q0 100 50.5 155.5t148.5 55.5q61 0 108 -17l-6 -85q-22 7 -42 9.5t-46 2.5q-49 0 -73.5 -17.5t-32.5 -52.5l2 -2q34 19 80 19q71 0 107.5 -29.5t36.5 -89.5zM942 138q0 21 -12.5 31.5
t-42.5 10.5q-14 0 -32.5 -5t-26.5 -15q0 -43 14 -61t47 -18q53 0 53 57z" />
    <glyph glyph-name="oneeighth" unicode="&#x215b;" horiz-adv-x="975" 
d="M230 356h-108v270l-79 -44l-9 88l128 81h68v-395zM763 750l-498 -750h-109l497 750h110zM614 118q0 26 14 48.5t41 39.5q-17 14 -27.5 34.5t-10.5 50.5q0 51 36 80t116 29q81 0 116.5 -30t35.5 -79q0 -26 -11 -46t-29 -34q24 -13 40 -35t16 -58q0 -60 -41 -91.5
t-127 -31.5q-88 0 -128.5 31.5t-40.5 91.5zM844 111q0 12 -7.5 19.5t-20 13.5t-28.5 11t-34 11q-15 -9 -25 -21.5t-10 -27.5q0 -23 16 -32.5t51 -9.5q26 0 42 8t16 28zM733 286q0 -20 22.5 -29t54.5 -17q13 9 20 18.5t7 22.5q0 19 -12.5 29t-41.5 10q-50 0 -50 -34z" />
    <glyph glyph-name="threeeighths" unicode="&#x215c;" horiz-adv-x="1063" 
d="M350 474q0 -58 -41 -90.5t-131 -32.5q-42 0 -78 9t-62 24l23 81q26 -14 55 -21.5t61 -7.5q68 0 68 44q0 10 -4 17.5t-16 13t-33.5 8.5t-55.5 3v73q33 0 53 2.5t31.5 8t15.5 13t4 16.5q0 15 -14.5 24t-47.5 9q-35 0 -62.5 -8t-53.5 -25l-25 79q28 19 65.5 30t79.5 11
q77 0 118.5 -29.5t41.5 -82.5q0 -30 -15 -50t-42 -31v-3q31 -11 48 -31.5t17 -53.5zM851 750l-498 -750h-109l497 750h110zM702 118q0 26 14 48.5t41 39.5q-17 14 -27.5 34.5t-10.5 50.5q0 51 36 80t116 29q81 0 116.5 -30t35.5 -79q0 -26 -11 -46t-29 -34q24 -13 40 -35
t16 -58q0 -60 -41 -91.5t-127 -31.5q-88 0 -128.5 31.5t-40.5 91.5zM932 111q0 12 -7.5 19.5t-20 13.5t-28.5 11t-34 11q-15 -9 -25 -21.5t-10 -27.5q0 -23 16 -32.5t51 -9.5q26 0 42 8t16 28zM821 286q0 -20 22.5 -29t54.5 -17q13 9 20 18.5t7 22.5q0 19 -12.5 29t-41.5 10
q-50 0 -50 -34z" />
    <glyph glyph-name="fiveeighths" unicode="&#x215d;" horiz-adv-x="1074" 
d="M353 493q0 -65 -38 -103.5t-127 -38.5q-38 0 -74.5 6.5t-68.5 21.5l17 82q30 -12 56.5 -18t61.5 -6q38 0 52.5 12t14.5 35q0 40 -66 40q-23 0 -47 -2.5t-42 -7.5l-41 36l20 200h258l3 -91h-177l-5 -55q14 2 28 3t30 1q69 0 107 -29t38 -86zM862 750l-498 -750h-109
l497 750h110zM713 118q0 26 14 48.5t41 39.5q-17 14 -27.5 34.5t-10.5 50.5q0 51 36 80t116 29q81 0 116.5 -30t35.5 -79q0 -26 -11 -46t-29 -34q24 -13 40 -35t16 -58q0 -60 -41 -91.5t-127 -31.5q-88 0 -128.5 31.5t-40.5 91.5zM943 111q0 12 -7.5 19.5t-20 13.5t-28.5 11
t-34 11q-15 -9 -25 -21.5t-10 -27.5q0 -23 16 -32.5t51 -9.5q26 0 42 8t16 28zM832 286q0 -20 22.5 -29t54.5 -17q13 9 20 18.5t7 22.5q0 19 -12.5 29t-41.5 10q-50 0 -50 -34z" />
    <glyph glyph-name="seveneighths" unicode="&#x215e;" horiz-adv-x="1074" 
d="M357 659l-161 -303h-126l131 227l42 67l-2 2h-215l5 98h326v-91zM862 750l-498 -750h-109l497 750h110zM713 118q0 26 14 48.5t41 39.5q-17 14 -27.5 34.5t-10.5 50.5q0 51 36 80t116 29q81 0 116.5 -30t35.5 -79q0 -26 -11 -46t-29 -34q24 -13 40 -35t16 -58
q0 -60 -41 -91.5t-127 -31.5q-88 0 -128.5 31.5t-40.5 91.5zM943 111q0 12 -7.5 19.5t-20 13.5t-28.5 11t-34 11q-15 -9 -25 -21.5t-10 -27.5q0 -23 16 -32.5t51 -9.5q26 0 42 8t16 28zM832 286q0 -20 22.5 -29t54.5 -17q13 9 20 18.5t7 22.5q0 19 -12.5 29t-41.5 10
q-50 0 -50 -34z" />
    <glyph glyph-name="uni215F" unicode="&#x215f;" horiz-adv-x="591" 
d="M230 356h-108v270l-79 -44l-9 88l128 81h68v-395zM763 750l-498 -750h-109l497 750h110z" />
    <glyph glyph-name="uni2189" unicode="&#x2189;" horiz-adv-x="956" 
d="M360 552q0 -103 -39.5 -152t-128.5 -49q-90 0 -129 49t-39 152q0 108 39 155.5t129 47.5q89 0 128.5 -47.5t39.5 -155.5zM253 552q0 36 -4 58t-11.5 35t-19 17.5t-26.5 4.5q-16 0 -27.5 -4.5t-19 -17.5t-11 -35t-3.5 -58q0 -35 3.5 -57.5t11 -35t19 -17t27.5 -4.5
q15 0 26.5 4.5t19 17t11.5 35t4 57.5zM755 750l-498 -750h-109l497 750h110zM933 118q0 -58 -41 -90.5t-131 -32.5q-42 0 -78 9t-62 24l23 81q26 -14 55 -21.5t61 -7.5q68 0 68 44q0 10 -4 17.5t-16 13t-33.5 8.5t-55.5 3v73q33 0 53 2.5t31.5 8t15.5 13t4 16.5
q0 15 -14.5 24t-47.5 9q-35 0 -62.5 -8t-53.5 -25l-25 79q28 19 65.5 30t79.5 11q77 0 118.5 -29.5t41.5 -82.5q0 -30 -15 -50t-42 -31v-3q31 -11 48 -31.5t17 -53.5z" />
    <glyph glyph-name="partialdiff" unicode="&#x2202;" horiz-adv-x="640" 
d="M315 546q38 0 71.5 -11t61.5 -31l2 2q-14 61 -53.5 90.5t-109.5 29.5q-57 0 -99.5 -13t-83.5 -39l-39 108q25 18 51.5 31.5t56 23.5t64.5 15t77 5q52 0 104 -18t94 -59.5t68 -108.5t26 -165q0 -92 -21 -169t-63 -133t-104.5 -87t-145.5 -31q-121 0 -179 63.5t-58 181.5
q0 75 19.5 133.5t56 99t88.5 61.5t116 21zM440 342q0 16 -6.5 31.5t-19 27.5t-32 19t-44.5 7q-66 0 -105 -51.5t-39 -158.5q0 -54 26 -81t76 -27q34 0 61 17.5t45.5 48.5t28 73.5t9.5 93.5z" />
    <glyph glyph-name="Delta" unicode="&#x2206;" horiz-adv-x="742" 
d="M713 0h-685l287 753h111zM343 478l-124 -342h298l-120 342l-25 77h-3z" />
    <glyph glyph-name="product" unicode="&#x220f;" horiz-adv-x="753" 
d="M135 -159v792l-90 9l-3 108h670l-2 -107l-90 -10v-792h-146v781h-192v-781h-147z" />
    <glyph glyph-name="summation" unicode="&#x2211;" horiz-adv-x="697" 
d="M321 31l-53 -58l1 -3h391l-4 -129h-587v86l305 378l-305 349v96h572l3 -132h-365l-1 -2l54 -58l207 -237v-33z" />
    <glyph glyph-name="minus" unicode="&#x2212;" horiz-adv-x="602" 
d="M70 264v143h462v-143h-462z" />
    <glyph glyph-name="uni2219" unicode="&#x2219;" horiz-adv-x="602" 
d="M143 322q0 160 156 160q159 0 159 -160q0 -161 -159 -161q-156 0 -156 161z" />
    <glyph glyph-name="radical" unicode="&#x221a;" horiz-adv-x="615" 
d="M5 506h190l79 -259l22 -78h3l18 78l142 537h164l-230 -784h-184l-125 365h-78z" />
    <glyph glyph-name="infinity" unicode="&#x221e;" horiz-adv-x="765" 
d="M540 148q-52 0 -90 18t-67 50q-24 -29 -60.5 -48.5t-95.5 -19.5q-39 0 -73.5 13t-60 38t-40 62t-14.5 84q0 43 11.5 79t35 62.5t58 41t80.5 14.5q53 0 91 -18t67 -52q24 30 60.5 50t95.5 20q39 0 73.5 -13t60 -38t40 -62t14.5 -84q0 -44 -12 -80t-35 -62t-58 -40.5
t-81 -14.5zM232 276q18 0 32 7.5t24.5 21t19.5 30.5t18 37q-17 22 -38 36t-53 14q-33 0 -51 -21t-18 -53q0 -35 19.5 -53.5t46.5 -18.5zM533 413q-18 0 -32 -8t-24.5 -21t-19.5 -31t-18 -37q17 -21 38.5 -34.5t53.5 -13.5q33 0 50.5 21.5t17.5 53.5q0 35 -19.5 52.5
t-46.5 17.5z" />
    <glyph glyph-name="integral" unicode="&#x222b;" horiz-adv-x="329" 
d="M243 38q0 -108 -56.5 -156.5t-177.5 -48.5l-4 101q42 1 61.5 23t19.5 76v571q0 97 56.5 146t177.5 49l3 -101q-38 0 -58.5 -22.5t-20.5 -72.5z" />
    <glyph glyph-name="approxequal" unicode="&#x2248;" horiz-adv-x="641" 
d="M430 345q-31 0 -60 7t-56 15.5t-53 15.5t-51 7q-32 0 -60.5 -8t-55.5 -22v121q26 14 55 22t61 8q31 0 59.5 -7t55.5 -16t53 -16t52 -7q33 0 61.5 8.5t55.5 22.5v-121q-26 -14 -55 -22t-62 -8zM430 143q-31 0 -60 7t-56 15.5t-53 15.5t-51 7q-62 0 -116 -30v121
q26 14 55 22t61 8q31 0 59.5 -7t55.5 -15.5t53 -15.5t52 -7q33 0 61.5 8t55.5 22v-120q-26 -15 -55 -23t-62 -8z" />
    <glyph glyph-name="notequal" unicode="&#x2260;" horiz-adv-x="641" 
d="M494 561l-35 -72h88v-120h-146l-40 -84h186v-120h-244l-59 -123l-98 49l35 74h-87v120h145l41 84h-186v120h244l58 120z" />
    <glyph glyph-name="lessequal" unicode="&#x2264;" horiz-adv-x="641" 
d="M279 434l-79 -17v-3l79 -17l270 -64v-146l-462 154v152l461 156v-149zM90 34v125h459v-125h-459z" />
    <glyph glyph-name="greaterequal" unicode="&#x2265;" horiz-adv-x="641" 
d="M87 333l270 64l80 17v3l-80 17l-270 66l1 149l461 -156v-152l-462 -154v146zM87 34v125h458v-125h-458z" />
    <glyph glyph-name="dotmath" unicode="&#x22c5;" horiz-adv-x="602" 
d="M390 346q0 -41 -20.5 -64t-68.5 -23t-69 19.5t-21 67.5q0 42 21 64t69 22t68.5 -22t20.5 -64z" />
    <glyph glyph-name="lozenge" unicode="&#x25ca;" horiz-adv-x="626" 
d="M312 681l290 -339l-290 -338l-289 338zM312 195l128 148l-128 149l-128 -149z" />
    <glyph glyph-name="orn001" unicode="&#xea01;" horiz-adv-x="709" 
d="M354 -14q-29 0 -57 19t-52.5 44.5t-45 51.5t-33.5 40q-23 24 -44.5 62t-38.5 84t-27.5 97t-10.5 102q0 59 16 110t52.5 89t95.5 59.5t145 21.5t145.5 -21.5t96 -59.5t52.5 -89t16 -110q0 -51 -10.5 -102t-27.5 -97t-39 -84t-44 -62q-14 -14 -34.5 -40t-45 -51.5
t-53 -44.5t-56.5 -19zM355 51q19 0 39.5 14.5t39 34t34 39t25.5 29.5q16 15 33 43t30.5 63t22 74.5t8.5 78.5q0 33 -10 55.5t-36 36t-71 19.5t-114 6q-71 0 -116.5 -5.5t-71.5 -19t-35.5 -36t-9.5 -56.5q0 -39 8.5 -78.5t22 -74.5t30 -63t32.5 -44q11 -10 26.5 -29t34 -38.5
t38.5 -34t40 -14.5zM459 186q-23 5 -48.5 7.5t-51.5 2.5t-52.5 -2.5t-51.5 -7.5q-18 20 -31 48.5t-18 60.5q36 -12 73 -17.5t75 -5.5q78 0 150 23q-4 -32 -14.5 -60.5t-30.5 -48.5zM373 374q35 17 69 39t63 55q17 -12 25 -38t8 -55v-13q-27 -14 -64 -23.5t-72 -13.5z
M311 325q-35 4 -71 13.5t-64 23.5q-1 4 -1 8v8q0 29 9 53.5t25 36.5q28 -33 62 -55t69 -39z" />
    <glyph glyph-name="fi" unicode="&#xfb01;" horiz-adv-x="711" 
d="M253 0h-155v491h-76v115h76v26q0 34 12 64.5t37.5 53t65 35.5t93.5 13q26 0 49 -2.5t39 -7.5l-4 -102q-25 5 -51 5q-48 0 -67 -17t-19 -46v-22h376v-606h-158v491h-218v-491zM640 738q0 -34 -21 -50.5t-68 -16.5q-45 0 -66.5 15t-21.5 52q0 67 88 67q47 0 68 -17.5
t21 -49.5z" />
    <glyph glyph-name="fl" unicode="&#xfb02;" horiz-adv-x="678" 
d="M447 0v689q-22 3 -42.5 5t-40.5 2q-32 0 -53.5 -5t-34.5 -14.5t-18 -23t-5 -30.5v-17h98v-115h-98v-491h-155v491h-76v115h76v23q0 35 13 66t44 54.5t82 37.5t128 14q33 0 62 -2.5t57 -5.5t57 -6.5t63 -4.5v-782h-157z" />
    <glyph glyph-name="uniFEFF" unicode="&#xfeff;" horiz-adv-x="0" 
 />
    <glyph glyph-name="afii57929" horiz-adv-x="254" 
d="M125 782q46 0 67.5 -25t21.5 -69q0 -20 -8 -47t-21 -56t-29.5 -57t-32.5 -49l-56 14l26 121q-20 9 -37 30t-17 49q0 38 19.5 63.5t66.5 25.5z" />
    <glyph glyph-name="i.latn_TRK" horiz-adv-x="319" 
d="M80 0v602l159 7v-609h-159zM248 737q0 -33 -21 -49.5t-67 -16.5q-45 0 -67 14.5t-22 51.5q0 67 89 67q46 0 67 -17t21 -50z" />
    <glyph glyph-name="Ldot.latn_CAT" horiz-adv-x="568" 
d="M517 407q0 -36 -19 -57t-62 -21q-44 0 -63 18t-19 60q0 38 19 57.5t63 19.5q43 0 62 -19.5t19 -57.5zM550 152l-4 -152h-475v750h170v-598h309z" />
    <glyph glyph-name="ldot.latn_CAT" horiz-adv-x="414" 
d="M437 407q0 -34 -18 -53.5t-58 -19.5q-41 0 -59 16.5t-18 56.5q0 35 18 53.5t59 18.5q40 0 58 -18.5t18 -53.5zM74 0v779l157 7v-786h-157z" />
    <glyph glyph-name="dollar.subs" horiz-adv-x="335" 
d="M244 305l-7 -73q19 -3 36 -7.5t34 -9.5l-13 -84q-29 8 -51 12t-46 4q-37 0 -48.5 -7.5t-11.5 -18.5q0 -12 13.5 -18t34 -11.5t44 -12t44 -19t34 -33t13.5 -53.5q0 -47 -27 -78t-79 -40l-4 -66h-82l4 64q-53 6 -95 27l13 87q29 -16 54.5 -23.5t57.5 -7.5q59 0 59 30
q0 11 -13.5 17.5t-33.5 12t-44 12.5t-44 19.5t-33.5 33t-13.5 53.5q0 21 6.5 40.5t20.5 35t36 26.5t53 15l7 73h82z" />
    <glyph glyph-name="comma.subs" horiz-adv-x="173" 
d="M83 -56q59 0 59 -62q0 -12 -5 -28t-13.5 -32.5t-19 -32.5t-20.5 -27l-38 7l16 69q-13 5 -24 18t-11 30q0 26 13 42t43 16z" />
    <glyph glyph-name="period.subs" horiz-adv-x="173" 
d="M146 -108q0 -26 -13.5 -40t-45.5 -14t-46 12t-14 42q0 27 14 41t46 14t45.5 -14t13.5 -41z" />
    <glyph glyph-name="cent.subs" horiz-adv-x="335" 
d="M305 133q-33 11 -70 11q-56 0 -76 -22t-20 -75q0 -54 24.5 -77t69.5 -23q20 0 39 4t36 10l7 -77q-29 -18 -73 -22l-5 -72h-84l5 75q-65 12 -98 58t-33 124q0 79 35 127.5t115 57.5l7 73h84l-7 -75q14 -2 26.5 -5.5t23.5 -7.5z" />
    <glyph glyph-name="dollar.sups" horiz-adv-x="335" 
d="M244 948l-7 -72q19 -3 36 -7.5t34 -9.5l-13 -84q-29 8 -51 12t-46 4q-37 0 -48.5 -8t-11.5 -19q0 -12 13.5 -18t34 -11.5t44 -12t44 -19t34 -33t13.5 -53.5q0 -47 -27 -78t-79 -41l-4 -65h-82l4 64q-53 6 -95 27l13 87q29 -15 54.5 -22.5t57.5 -7.5q59 0 59 29
q0 11 -13.5 17.5t-33.5 12t-44 12.5t-44 19.5t-33.5 33t-13.5 53.5q0 21 6.5 40.5t20.5 35.5t36 27t53 15l7 72h82z" />
    <glyph glyph-name="comma.sups" horiz-adv-x="173" 
d="M83 587q59 0 59 -61q0 -12 -5 -28.5t-13.5 -33t-19 -32t-20.5 -27.5l-38 8l16 68q-13 6 -24 19t-11 30q0 26 13 41.5t43 15.5z" />
    <glyph glyph-name="period.sups" horiz-adv-x="173" 
d="M146 535q0 -26 -13.5 -40t-45.5 -14t-46 12t-14 42q0 27 14 41t46 14t45.5 -14t13.5 -41z" />
    <glyph glyph-name="cent.sups" horiz-adv-x="335" 
d="M305 777q-16 5 -34.5 8t-35.5 3q-56 0 -76 -22t-20 -75q0 -54 24.5 -77.5t69.5 -23.5q20 0 39 4t36 10l7 -77q-28 -17 -73 -23l-5 -71h-84l5 74q-131 26 -131 184q0 79 35 127.5t115 57.5l7 73h84l-7 -75q14 -2 26.5 -5.5t23.5 -7.5z" />
    <glyph glyph-name="dollar.numr" horiz-adv-x="335" 
d="M244 815l-7 -73q19 -3 36 -7.5t34 -9.5l-13 -84q-29 8 -51 12t-46 4q-37 0 -48.5 -7.5t-11.5 -18.5q0 -12 13.5 -18t34 -11.5t44 -12t44 -19t34 -33t13.5 -53.5q0 -47 -27 -78t-79 -41l-4 -65h-82l4 64q-53 5 -95 27l13 87q29 -16 54.5 -23.5t57.5 -7.5q59 0 59 30
q0 12 -13.5 18t-33.5 11.5t-44 12.5t-44 19.5t-33.5 33t-13.5 53.5q0 21 6.5 40.5t20.5 35t36 26.5t53 15l7 73h82z" />
    <glyph glyph-name="parenleft.numr" horiz-adv-x="220" 
d="M218 773q-67 -101 -67 -236q0 -66 17 -125.5t50 -109.5l-71 -7q-48 45 -71 107.5t-23 134.5q0 74 23 135.5t71 107.5z" />
    <glyph glyph-name="parenright.numr" horiz-adv-x="220" 
d="M74 780q48 -46 70 -107.5t22 -135.5q0 -72 -22.5 -134.5t-69.5 -107.5l-73 7q33 50 50 109.5t17 125.5q0 67 -16.5 126.5t-50.5 109.5z" />
    <glyph glyph-name="plus.numr" horiz-adv-x="384" 
d="M236 508v-105h-89v105h-106v94h106v106h89v-106h107v-94h-107z" />
    <glyph glyph-name="comma.numr" horiz-adv-x="173" 
d="M83 453q59 0 59 -61q0 -12 -5 -28t-13.5 -32.5t-19 -32.5t-20.5 -27l-38 7l16 68q-13 6 -24 19t-11 30q0 26 13 41.5t43 15.5z" />
    <glyph glyph-name="period.numr" horiz-adv-x="173" 
d="M146 401q0 -26 -13.5 -40t-45.5 -14t-46 12t-14 42q0 27 14 41t46 14t45.5 -14t13.5 -41z" />
    <glyph glyph-name="zero.numr" horiz-adv-x="384" 
d="M360 552q0 -103 -39.5 -152t-128.5 -49q-90 0 -129 49t-39 152q0 108 39 155.5t129 47.5q89 0 128.5 -47.5t39.5 -155.5zM253 552q0 36 -4 58t-11.5 35t-19 17.5t-26.5 4.5q-16 0 -27.5 -4.5t-19 -17.5t-11 -35t-3.5 -58q0 -35 3.5 -57.5t11 -35t19 -17t27.5 -4.5
q15 0 26.5 4.5t19 17t11.5 35t4 57.5z" />
    <glyph glyph-name="one.numr" horiz-adv-x="285" 
d="M230 356h-108v270l-79 -44l-9 88l128 81h68v-395z" />
    <glyph glyph-name="two.numr" horiz-adv-x="373" 
d="M341 633q0 -27 -11.5 -50.5t-32.5 -45.5t-50.5 -43.5t-65.5 -45.5v-3h159l-2 -89h-298v70q40 35 74.5 63t59.5 51.5t39 43.5t14 40q0 17 -14 28.5t-47 11.5q-29 0 -54.5 -9t-52.5 -25l-25 84q30 20 68 30.5t85 10.5q79 0 116.5 -34t37.5 -88z" />
    <glyph glyph-name="three.numr" horiz-adv-x="373" 
d="M350 474q0 -58 -41 -90.5t-131 -32.5q-42 0 -78 9t-62 24l23 81q26 -14 55 -21.5t61 -7.5q68 0 68 44q0 10 -4 17.5t-16 13t-33.5 8.5t-55.5 3v73q33 0 53 2.5t31.5 8t15.5 13t4 16.5q0 15 -14.5 24t-47.5 9q-35 0 -62.5 -8t-53.5 -25l-25 79q28 19 65.5 30t79.5 11
q77 0 118.5 -29.5t41.5 -82.5q0 -30 -15 -50t-42 -31v-3q31 -11 48 -31.5t17 -53.5z" />
    <glyph glyph-name="four.numr" horiz-adv-x="384" 
d="M330 426v-70h-101v70h-202l-9 61l182 263h130v-238h41l-3 -86h-38zM235 576l5 80h-3l-51 -77l-45 -64l1 -3h91z" />
    <glyph glyph-name="five.numr" horiz-adv-x="384" 
d="M353 493q0 -65 -38 -103.5t-127 -38.5q-38 0 -74.5 6.5t-68.5 21.5l17 82q30 -12 56.5 -18t61.5 -6q38 0 52.5 12t14.5 35q0 40 -66 40q-23 0 -47 -2.5t-42 -7.5l-41 36l20 200h258l3 -91h-177l-5 -55q14 2 28 3t30 1q69 0 107 -29t38 -86z" />
    <glyph glyph-name="six.numr" horiz-adv-x="384" 
d="M359 494q0 -72 -42 -107.5t-119 -35.5q-83 0 -127.5 46.5t-44.5 147.5q0 100 50.5 155.5t148.5 55.5q61 0 108 -17l-6 -85q-22 7 -42 9.5t-46 2.5q-49 0 -73.5 -17.5t-32.5 -52.5l2 -2q34 19 80 19q71 0 107.5 -29.5t36.5 -89.5zM252 494q0 21 -12.5 31.5t-42.5 10.5
q-14 0 -32.5 -5t-26.5 -15q0 -43 14 -61t47 -18q53 0 53 57z" />
    <glyph glyph-name="seven.numr" horiz-adv-x="384" 
d="M357 659l-161 -303h-126l131 227l42 67l-2 2h-215l5 98h326v-91z" />
    <glyph glyph-name="eight.numr" horiz-adv-x="384" 
d="M23 474q0 26 14 48.5t41 39.5q-17 14 -27.5 34.5t-10.5 50.5q0 51 36 80t116 29q81 0 116.5 -30t35.5 -79q0 -26 -11 -46t-29 -34q24 -13 40 -35t16 -58q0 -60 -41 -91.5t-127 -31.5q-88 0 -128.5 31.5t-40.5 91.5zM253 467q0 12 -7.5 19.5t-20 13.5t-28.5 11t-34 11
q-15 -9 -25 -21.5t-10 -27.5q0 -23 16 -32.5t51 -9.5q26 0 42 8t16 28zM142 642q0 -20 22.5 -29t54.5 -17q13 9 20 18.5t7 22.5q0 19 -12.5 29t-41.5 10q-50 0 -50 -34z" />
    <glyph glyph-name="nine.numr" horiz-adv-x="384" 
d="M356 568q0 -112 -47 -164.5t-143 -52.5q-41 0 -66.5 5t-50.5 14l16 85q23 -9 44.5 -13.5t48.5 -4.5q48 0 71.5 21t28.5 65l-2 2q-32 -25 -83 -25q-79 0 -113 33.5t-34 87.5q0 58 38.5 96.5t120.5 38.5q89 0 130 -48t41 -140zM248 599q0 41 -15.5 56t-49.5 15
q-54 0 -54 -45q0 -23 12.5 -35t45.5 -12q21 0 37.5 6t23.5 15z" />
    <glyph glyph-name="equal.numr" horiz-adv-x="384" 
d="M51 583v79h283v-79h-283zM51 452v79h283v-79h-283z" />
    <glyph glyph-name="cent.numr" horiz-adv-x="335" 
d="M305 643q-15 5 -34 8t-36 3q-56 0 -76 -22t-20 -75q0 -54 24.5 -77t69.5 -23q20 0 39 4t36 10l8 -77q-28 -17 -74 -23l-5 -71h-84l5 74q-131 26 -131 183q0 79 35 127.5t115 57.5l7 73h85l-7 -75q14 -2 26 -5.5t23 -7.5z" />
    <glyph glyph-name="minus.numr" horiz-adv-x="384" 
d="M45 515v90h291v-90h-291z" />
    <glyph glyph-name="dollar.dnom" horiz-adv-x="335" 
d="M244 459l-7 -73q19 -3 36 -7.5t34 -9.5l-13 -84q-29 8 -51 12t-46 4q-37 0 -48.5 -7.5t-11.5 -18.5q0 -12 13.5 -18t34 -11.5t44 -12t44 -19t34 -33t13.5 -53.5q0 -47 -27 -78t-79 -41l-4 -65h-82l4 64q-53 5 -95 27l13 87q29 -16 54.5 -23.5t57.5 -7.5q59 0 59 30
q0 12 -13.5 18t-33.5 11.5t-44 12.5t-44 19.5t-33.5 33t-13.5 53.5q0 21 6.5 40.5t20.5 35t36 26.5t53 15l7 73h82z" />
    <glyph glyph-name="parenleft.dnom" horiz-adv-x="220" 
d="M218 417q-67 -101 -67 -236q0 -66 17 -125.5t50 -109.5l-71 -7q-48 45 -71 107.5t-23 134.5q0 74 23 135.5t71 107.5z" />
    <glyph glyph-name="parenright.dnom" horiz-adv-x="220" 
d="M74 424q48 -46 70 -107.5t22 -135.5q0 -72 -22.5 -134.5t-69.5 -107.5l-73 7q33 50 50 109.5t17 125.5q0 67 -16.5 126.5t-50.5 109.5z" />
    <glyph glyph-name="plus.dnom" horiz-adv-x="384" 
d="M236 152v-105h-89v105h-106v94h106v106h89v-106h107v-94h-107z" />
    <glyph glyph-name="comma.dnom" horiz-adv-x="173" 
d="M83 97q59 0 59 -61q0 -12 -5 -28t-13.5 -32.5t-19 -32.5t-20.5 -27l-38 7l16 68q-13 6 -24 19t-11 30q0 26 13 41.5t43 15.5z" />
    <glyph glyph-name="period.dnom" horiz-adv-x="173" 
d="M146 45q0 -26 -13.5 -40t-45.5 -14t-46 12t-14 42q0 27 14 41t46 14t45.5 -14t13.5 -41z" />
    <glyph glyph-name="zero.dnom" horiz-adv-x="384" 
d="M360 196q0 -103 -39.5 -152t-128.5 -49q-90 0 -129 49t-39 152q0 108 39 155.5t129 47.5q89 0 128.5 -47.5t39.5 -155.5zM253 196q0 36 -4 58t-11.5 35t-19 17.5t-26.5 4.5q-16 0 -27.5 -4.5t-19 -17.5t-11 -35t-3.5 -58q0 -35 3.5 -57.5t11 -35t19 -17t27.5 -4.5
q15 0 26.5 4.5t19 17t11.5 35t4 57.5z" />
    <glyph glyph-name="one.dnom" horiz-adv-x="285" 
d="M230 0h-108v270l-79 -44l-9 88l128 81h68v-395z" />
    <glyph glyph-name="two.dnom" horiz-adv-x="373" 
d="M341 277q0 -27 -11.5 -50.5t-32.5 -45.5t-50.5 -43.5t-65.5 -45.5v-3h159l-2 -89h-298v70q40 35 74.5 63t59.5 51.5t39 43.5t14 40q0 17 -14 28.5t-47 11.5q-29 0 -54.5 -9t-52.5 -25l-25 84q30 20 68 30.5t85 10.5q79 0 116.5 -34t37.5 -88z" />
    <glyph glyph-name="three.dnom" horiz-adv-x="373" 
d="M350 118q0 -58 -41 -90.5t-131 -32.5q-42 0 -78 9t-62 24l23 81q26 -14 55 -21.5t61 -7.5q68 0 68 44q0 10 -4 17.5t-16 13t-33.5 8.5t-55.5 3v73q33 0 53 2.5t31.5 8t15.5 13t4 16.5q0 15 -14.5 24t-47.5 9q-35 0 -62.5 -8t-53.5 -25l-25 79q28 19 65.5 30t79.5 11
q77 0 118.5 -29.5t41.5 -82.5q0 -30 -15 -50t-42 -31v-3q31 -11 48 -31.5t17 -53.5z" />
    <glyph glyph-name="four.dnom" horiz-adv-x="384" 
d="M330 70v-70h-101v70h-202l-9 61l182 263h130v-238h41l-3 -86h-38zM235 220l5 80h-3l-51 -77l-45 -64l1 -3h91z" />
    <glyph glyph-name="five.dnom" horiz-adv-x="384" 
d="M353 137q0 -65 -38 -103.5t-127 -38.5q-38 0 -74.5 6.5t-68.5 21.5l17 82q30 -12 56.5 -18t61.5 -6q38 0 52.5 12t14.5 35q0 40 -66 40q-23 0 -47 -2.5t-42 -7.5l-41 36l20 200h258l3 -91h-177l-5 -55q14 2 28 3t30 1q69 0 107 -29t38 -86z" />
    <glyph glyph-name="six.dnom" horiz-adv-x="384" 
d="M359 138q0 -72 -42 -107.5t-119 -35.5q-83 0 -127.5 46.5t-44.5 147.5q0 100 50.5 155.5t148.5 55.5q61 0 108 -17l-6 -85q-22 7 -42 9.5t-46 2.5q-49 0 -73.5 -17.5t-32.5 -52.5l2 -2q34 19 80 19q71 0 107.5 -29.5t36.5 -89.5zM252 138q0 21 -12.5 31.5t-42.5 10.5
q-14 0 -32.5 -5t-26.5 -15q0 -43 14 -61t47 -18q53 0 53 57z" />
    <glyph glyph-name="seven.dnom" horiz-adv-x="384" 
d="M357 303l-161 -303h-126l131 227l42 67l-2 2h-215l5 98h326v-91z" />
    <glyph glyph-name="eight.dnom" horiz-adv-x="384" 
d="M23 118q0 26 14 48.5t41 39.5q-17 14 -27.5 34.5t-10.5 50.5q0 51 36 80t116 29q81 0 116.5 -30t35.5 -79q0 -26 -11 -46t-29 -34q24 -13 40 -35t16 -58q0 -60 -41 -91.5t-127 -31.5q-88 0 -128.5 31.5t-40.5 91.5zM253 111q0 12 -7.5 19.5t-20 13.5t-28.5 11t-34 11
q-15 -9 -25 -21.5t-10 -27.5q0 -23 16 -32.5t51 -9.5q26 0 42 8t16 28zM142 286q0 -20 22.5 -29t54.5 -17q13 9 20 18.5t7 22.5q0 19 -12.5 29t-41.5 10q-50 0 -50 -34z" />
    <glyph glyph-name="nine.dnom" horiz-adv-x="384" 
d="M356 212q0 -112 -47 -164.5t-143 -52.5q-41 0 -66.5 5t-50.5 14l16 85q23 -9 44.5 -13.5t48.5 -4.5q48 0 71.5 21t28.5 65l-2 2q-32 -25 -83 -25q-79 0 -113 33.5t-34 87.5q0 58 38.5 96.5t120.5 38.5q89 0 130 -48t41 -140zM248 243q0 41 -15.5 56t-49.5 15
q-54 0 -54 -45q0 -23 12.5 -35t45.5 -12q21 0 37.5 6t23.5 15z" />
    <glyph glyph-name="equal.dnom" horiz-adv-x="384" 
d="M51 227v79h283v-79h-283zM51 96v79h283v-79h-283z" />
    <glyph glyph-name="cent.dnom" horiz-adv-x="335" 
d="M305 287q-15 5 -34 8t-36 3q-56 0 -76 -22t-20 -75q0 -54 24.5 -77t69.5 -23q20 0 39 4t36 10l8 -77q-28 -17 -74 -23l-5 -71h-84l5 74q-131 26 -131 183q0 79 35 127.5t115 57.5l7 73h85l-7 -75q14 -2 26 -5.5t23 -7.5z" />
    <glyph glyph-name="minus.dnom" horiz-adv-x="384" 
d="M45 159v90h291v-90h-291z" />
    <glyph glyph-name="numbersign.osf" horiz-adv-x="602" 
d="M121 267l19 116h-105v108h121l23 158h121l-24 -158h99l24 158h118l-24 -158h73v-108h-88l-19 -116h107l1 -110h-123l-24 -157h-117l23 157h-100l-24 -157h-120l23 157h-70v110h86zM241 267h101l19 116h-100z" />
    <glyph glyph-name="dollar.osf" horiz-adv-x="497" 
d="M466 190q0 -77 -39 -129.5t-124 -66.5l-8 -122h-121l8 119q-80 8 -137 39l16 128q38 -22 86 -32.5t87 -10.5q47 0 67.5 17t20.5 44q0 24 -21 37.5t-52 24t-67.5 22t-67.5 31.5t-52 52.5t-21 85.5q0 72 43 121.5t134 61.5l9 118h120l-9 -119q28 -5 54.5 -11.5t50.5 -16.5
l-13 -127q-38 16 -83 23.5t-79 7.5q-38 0 -58.5 -14t-20.5 -37t20.5 -35.5t51.5 -22.5t66.5 -21t66.5 -30.5t51.5 -52t20.5 -84.5z" />
    <glyph glyph-name="zero.osf" horiz-adv-x="617" 
d="M579 319q0 -168 -64.5 -248.5t-206.5 -80.5q-143 0 -206 80.5t-63 248.5q0 88 15.5 151t48 103.5t83.5 59.5t123 19q71 0 122 -19t84 -59.5t48.5 -103.5t15.5 -151zM422 320q0 60 -7 98t-21 60t-35.5 30t-49.5 8q-29 0 -51 -8.5t-36 -30t-21 -59.5t-7 -98q0 -62 7 -100
t21 -59.5t36 -29t51 -7.5t50 8t35 29.5t21 59.5t7 99z" />
    <glyph glyph-name="one.osf" horiz-adv-x="459" 
d="M364 0h-159v457l-128 -72l-16 128l208 130h95v-643z" />
    <glyph glyph-name="two.osf" horiz-adv-x="577" 
d="M531 456q0 -46 -19 -85.5t-53.5 -78t-83.5 -76.5t-109 -81v-3h265l-3 -132h-474v102q66 57 123.5 104.5t100 88.5t67 77t24.5 70q0 33 -25.5 53t-85.5 20q-47 0 -89.5 -15.5t-83.5 -41.5l-39 124q47 31 107.5 50t132.5 19q62 0 108 -14.5t76.5 -40.5t45.5 -61.5t15 -78.5
z" />
    <glyph glyph-name="three.osf" horiz-adv-x="570" 
d="M526 176q0 -137 -108.5 -209t-306.5 -76l-13 126q77 2 130 15t86 34t47.5 48t14.5 58q0 40 -28 62.5t-91 23.5q-16 0 -32 -2t-33 -4l-7 106q52 6 86.5 13.5t54 18.5t27.5 25.5t8 33.5q0 29 -24.5 48.5t-87.5 19.5q-54 0 -96.5 -13t-81.5 -41l-35 124q40 29 99.5 47.5
t123.5 18.5q60 0 106 -14t76.5 -38t46 -57.5t15.5 -72.5q0 -47 -18.5 -83t-58.5 -59v-2q51 -20 75.5 -58.5t24.5 -92.5z" />
    <glyph glyph-name="four.osf" horiz-adv-x="611" 
d="M517 60v-162l-145 -8v170h-335l-13 102l314 490l179 -11v-455h73l-4 -126h-69zM386 437l4 81l-2 1l-161 -265l-43 -65l1 -3h193z" />
    <glyph glyph-name="five.osf" horiz-adv-x="562" 
d="M527 184q0 -67 -26.5 -121t-79 -92t-131 -58.5t-182.5 -21.5l-15 132q72 1 125 12t87 30t50.5 45.5t16.5 57.5q0 38 -29.5 59t-94.5 21q-39 0 -77 -7.5t-67 -19.5l-53 62l30 360h408l6 -145h-290l-9 -130q46 12 101 12q109 0 169.5 -50.5t60.5 -145.5z" />
    <glyph glyph-name="six.osf" horiz-adv-x="595" 
d="M560 261q0 -140 -67.5 -205t-186.5 -65q-64 0 -114.5 19t-85 59.5t-53 103.5t-18.5 150q0 106 34.5 186t91.5 133.5t132 81t156 28.5l23 -132q-61 -1 -109 -15t-82.5 -38t-56.5 -57t-31 -72l2 -2q29 19 64 29.5t75 10.5q226 0 226 -215zM406 260q0 48 -24 71t-78 23
q-14 0 -29 -3t-30 -9t-28 -14t-22 -18q1 -53 8 -88t20.5 -55.5t34 -29t48.5 -8.5q48 0 74 31t26 100z" />
    <glyph glyph-name="seven.osf" horiz-adv-x="574" 
d="M535 511l-269 -607h-175l277 590h-333l9 149h491v-132z" />
    <glyph glyph-name="eight.osf" horiz-adv-x="609" 
d="M35 188q0 43 24 82.5t70 65.5q-30 23 -48.5 56t-18.5 84q0 81 58 128t185 47t184.5 -47.5t57.5 -128.5q0 -43 -19 -77t-51 -57q42 -21 69.5 -57t27.5 -96q0 -199 -269 -199q-141 0 -205.5 51t-64.5 148zM417 180q0 20 -11 34t-30 24t-44 18t-53 16l-22 6q-29 -14 -49 -36
t-20 -51q0 -42 28 -61.5t93 -19.5q49 0 78.5 16t29.5 54zM210 469q0 -19 11 -32t30 -23t44.5 -17t53.5 -14q27 16 42 34t15 43q0 35 -23 53.5t-80 18.5q-50 0 -71.5 -16.5t-21.5 -46.5z" />
    <glyph glyph-name="nine.osf" horiz-adv-x="588" 
d="M553 343q0 -120 -32 -205t-88.5 -139t-132 -79.5t-162.5 -26.5l-16 130q52 1 97 13.5t80 36t59 59t33 83.5l-2 2q-53 -38 -133 -38q-50 0 -90.5 14t-69.5 42t-45 71t-16 102q0 114 63.5 179t191.5 65q129 0 196 -77t67 -232zM397 363q0 42 -7 71t-20.5 46.5t-34 25
t-48.5 7.5q-48 0 -72 -24t-24 -78q0 -51 23.5 -75.5t77.5 -24.5q38 0 65 13t40 39z" />
    <glyph glyph-name="cent.osf" horiz-adv-x="497" 
d="M449 458q-23 8 -50 13.5t-53 5.5q-42 0 -71 -9.5t-46.5 -30t-25 -54t-7.5 -81.5q0 -98 38 -139.5t109 -41.5q61 0 110 23l11 -121q-42 -25 -112 -33l-8 -118h-120l8 124q-97 20 -147 95t-50 211q0 137 53.5 217t171.5 94l9 117h120l-10 -120q23 -3 42.5 -8.5t36.5 -11.5z
" />
    <glyph glyph-name="sterling.osf" horiz-adv-x="572" 
d="M44 377h42q-7 20 -11 40t-4 42q0 39 13.5 75t45 63.5t84 44.5t130.5 17q54 0 95.5 -7.5t76.5 -19.5l-19 -126q-28 9 -64 15.5t-74 6.5q-73 0 -101.5 -23t-28.5 -60q0 -18 3 -34.5t8 -33.5h228v-112h-202q1 -8 1.5 -16.5t0.5 -17.5q0 -74 -52 -108l2 -3q39 9 81 12.5
t85 3.5q45 0 84 -3t77 -8l-8 -131q-116 12 -229 12q-33 0 -64 -0.5t-62.5 -1.5t-65 -3t-71.5 -5l-5 129q39 7 59.5 35t20.5 62q0 22 -3 43h-68z" />
    <glyph glyph-name="currency.osf" horiz-adv-x="602" 
d="M109 326q0 51 23 92l-67 70l78 84l71 -73q20 10 41.5 15.5t44.5 5.5t44.5 -5.5t41.5 -15.5l72 73l79 -84l-69 -70q23 -43 23 -92q0 -23 -5 -43.5t-13 -39.5l64 -67l-79 -83l-63 64q-44 -25 -95 -25q-50 0 -94 25l-63 -65l-79 84l63 65q-18 39 -18 85zM210 328
q0 -37 26 -62t64 -25t64 25t26 62q0 36 -26 61t-64 25t-64 -25t-26 -61z" />
    <glyph glyph-name="yen.osf" horiz-adv-x="602" 
d="M182 306l-172 343h169l94 -245l27 -76h3l26 76l93 245h166l-168 -343h88v-74h-123v-40h123v-75h-123v-117h-167v117h-119v75h119v40h-119v74h83z" />
    <glyph glyph-name="franc.osf" horiz-adv-x="602" 
d="M96 176v473h463l3 -136h-312v-125h234l-1 -128h-233v-84h70v-100h-70v-76h-154v76h-64v100h64z" />
    <glyph glyph-name="lira.osf" horiz-adv-x="602" 
d="M52 411h29q-3 11 -4 22.5t-1 23.5q0 39 13.5 75.5t45.5 64.5t86 45t134 17q54 0 97.5 -7.5t79.5 -20.5l-19 -126q-29 10 -67 16t-77 6q-75 0 -105 -23t-30 -61v-16q0 -8 2 -16h250v-72h-230q3 -9 5.5 -18.5t4.5 -19.5h220v-71h-212q0 -74 -53 -107l1 -2q41 8 84 11.5
t89 3.5q45 0 86 -3t80 -8l-8 -131q-60 6 -117.5 9t-117.5 3q-34 0 -65.5 -0.5t-64 -1.5t-66.5 -3t-73 -5l-5 129q41 7 61 35t20 61v9h-61l-5 71h55q-2 10 -5 19t-6 19h-44z" />
    <glyph glyph-name="peseta.osf" horiz-adv-x="602" 
d="M274 448q0 -59 -6 -97t-21 -60.5t-40.5 -31.5t-63.5 -9h-28v-250h-87v649h113q37 0 62 -8.5t41 -31t23 -61.5t7 -100zM381 326v-229q0 -12 6 -17t14 -5q4 0 12 2l2 -76q-5 -4 -15.5 -6t-20.5 -2q-35 0 -54.5 24.5t-19.5 78.5v230h-18v77h22l13 87l58 10v-97h40v-77h-39z
M583 119q0 -66 -23 -96.5t-70 -30.5q-32 0 -54 14l2 82q19 -12 44 -12q17 0 23.5 10t6.5 32q0 21 -12.5 32.5t-28 26.5t-28 39t-12.5 69q0 22 5.5 44t16.5 39.5t28.5 28t40.5 10.5q32 0 52 -15l-5 -84q-17 10 -40 10q-14 0 -20 -9t-6 -23q0 -21 12.5 -33t27.5 -26.5
t27.5 -38.5t12.5 -69zM187 448q0 33 -2 52.5t-7.5 30t-14 13.5t-20.5 3h-28v-201h28q12 0 20 3t13.5 13.5t8 31t2.5 54.5z" />
    <glyph glyph-name="Euro.osf" horiz-adv-x="602" 
d="M534 503q-24 9 -53 14t-58 5q-75 0 -115 -23t-56 -74h256l-25 -77h-242v-46h227l-25 -73h-189q18 -57 60 -83t106 -26q38 0 70 8t62 22l5 -120q-31 -20 -76 -31.5t-104 -11.5q-131 0 -208 61t-98 181h-44v73h36v46h-36v77h45q21 112 96 173t215 61q51 0 102 -9t87 -26z
" />
    <glyph glyph-name="numbersign.lf" horiz-adv-x="632" 
d="M138 303l23 140h-123v118h140l28 189h124l-29 -189h85l28 189h122l-29 -189h87v-118h-103l-22 -140h125v-120h-143l-27 -183h-121l28 183h-87l-27 -183h-124l27 183h-83v120h101zM262 303h85l23 140h-85z" />
    <glyph glyph-name="dollar.lf" horiz-adv-x="592" 
d="M194 -73l9 64q-47 5 -89 16.5t-72 28.5q5 38 9 71t11 74q36 -20 77 -34t83 -21l27 186q-38 14 -75.5 32t-67 44.5t-48 63.5t-18.5 89q0 106 68 162.5t205 58.5l9 64l93 -7l-10 -63q32 -5 61.5 -12t49.5 -15l-10 -139q-28 8 -59 14t-63 10l-25 -166q36 -12 71 -29.5
t62.5 -43.5t44.5 -63.5t17 -89.5q0 -119 -63.5 -176.5t-201.5 -59.5l-10 -67zM426 200q0 29 -26 47.5t-66 34.5l-25 -162q63 2 90 22.5t27 57.5zM183 548q0 -27 25.5 -42.5t63.5 -29.5l20 143q-60 -2 -84.5 -22t-24.5 -49z" />
    <glyph glyph-name="zero.lf" horiz-adv-x="626" 
d="M591 372q0 -101 -16.5 -173t-50.5 -118.5t-86.5 -68.5t-125.5 -22q-74 0 -126.5 22t-86 68.5t-49 118.5t-15.5 173q0 106 15.5 179.5t49.5 119.5t86.5 67t126.5 21q73 0 125.5 -21t86.5 -67t50 -119.5t16 -179.5zM430 374q0 77 -7 124t-21.5 73t-36.5 35t-52 9
t-52.5 -9.5t-37 -35.5t-21.5 -73t-7 -123q0 -79 7 -127t21.5 -74t37 -34.5t52.5 -8.5t52 9t36.5 35.5t21.5 74.5t7 125z" />
    <glyph glyph-name="one.lf" horiz-adv-x="471" 
d="M380 0h-168v469l2 80l-2 2l-68 -42l-67 -40l-17 136l221 145h99v-750z" />
    <glyph glyph-name="two.lf" horiz-adv-x="614" 
d="M560 539q0 -51 -21.5 -98.5t-59.5 -95t-91 -96t-117 -101.5v-3h289l-4 -145h-498v108q67 67 127.5 124.5t106.5 108t72.5 95.5t26.5 87q0 39 -28 64t-91 25q-49 0 -93.5 -18.5t-86.5 -47.5l-40 134q48 35 110.5 57t140.5 22q64 0 112.5 -16t80.5 -45t48 -69.5t16 -89.5z
" />
    <glyph glyph-name="three.lf" horiz-adv-x="614" 
d="M570 225q0 -54 -17.5 -97t-53 -73.5t-90.5 -47t-130 -16.5q-71 0 -128 16t-99 40l31 130q45 -24 91 -36.5t100 -12.5q69 0 103 27.5t34 75.5q0 23 -9 41.5t-31.5 31t-61 19.5t-98.5 7v117q57 0 93.5 6t57.5 18t29.5 29.5t8.5 39.5q0 37 -29.5 57t-91.5 20q-57 0 -103 -17
t-87 -48l-39 129q44 34 106.5 56t133.5 22q125 0 194 -55t69 -152q0 -57 -26.5 -96.5t-75.5 -62.5v-2q57 -21 88 -61.5t31 -104.5z" />
    <glyph glyph-name="four.lf" horiz-adv-x="638" 
d="M531 142v-142h-151v142h-331l-14 104l300 504h196v-470h77l-4 -138h-73zM392 520l4 81l-2 1l-40 -71l-143 -251h174z" />
    <glyph glyph-name="five.lf" horiz-adv-x="595" 
d="M560 259q0 -63 -16 -112.5t-50 -84t-87 -53t-126 -18.5q-66 0 -124 13.5t-107 42.5l30 130q45 -23 87 -36t98 -13q74 0 103.5 29t29.5 88q0 53 -32 75.5t-98 22.5q-38 0 -78.5 -7t-72.5 -19l-58 62l31 371h428l6 -145h-305l-11 -139q53 11 108 11q118 0 181 -54.5
t63 -163.5z" />
    <glyph glyph-name="six.lf" horiz-adv-x="617" 
d="M584 263q0 -140 -69.5 -206t-196.5 -66q-69 0 -121.5 19.5t-88.5 63.5t-54.5 113.5t-18.5 170.5q0 198 83 299.5t247 101.5q50 0 92 -6t83 -22l-12 -140q-35 13 -69 18.5t-74 5.5q-91 0 -135.5 -41t-54.5 -127l2 -2q32 20 69.5 31.5t80.5 11.5q237 0 237 -225zM423 266
q0 50 -25 74t-82 24q-14 0 -30.5 -3.5t-32.5 -9.5t-29.5 -15t-22.5 -19q0 -54 7 -90.5t21 -58t36 -30.5t52 -9q52 0 79 32.5t27 104.5z" />
    <glyph glyph-name="seven.lf" horiz-adv-x="619" 
d="M581 610l-279 -610h-184l304 597h-383l8 153h534v-140z" />
    <glyph glyph-name="eight.lf" horiz-adv-x="622" 
d="M35 220q0 51 26.5 97t76.5 76q-34 26 -55 65.5t-21 100.5q0 92 60 146t190 54t189.5 -53.5t59.5 -147.5q0 -51 -21 -91.5t-59 -69.5q45 -23 75.5 -64.5t30.5 -113.5q0 -228 -275 -228q-143 0 -210 58.5t-67 170.5zM429 207q0 27 -13.5 45.5t-36 32t-52 24t-60.5 21.5
q-32 -20 -53.5 -47.5t-21.5 -63.5q0 -54 29.5 -77t95.5 -23q51 0 81.5 20t30.5 68zM213 551q0 -24 11 -40.5t30 -28.5t44 -21t53 -17q32 20 49 44.5t17 56.5q0 42 -25 63t-81 21q-98 0 -98 -78z" />
    <glyph glyph-name="nine.lf" horiz-adv-x="618" 
d="M583 405q0 -110 -20 -188.5t-59.5 -128.5t-99 -73.5t-138.5 -23.5q-62 0 -105 8.5t-85 26.5l23 134q37 -15 72.5 -22.5t78.5 -7.5q86 0 126.5 44t48.5 141l-2 2q-31 -20 -68 -29.5t-82 -9.5q-60 0 -105 16.5t-74.5 46.5t-44 72.5t-14.5 94.5q0 58 16 104.5t49 79t83 50
t118 17.5q134 0 208 -88t74 -266zM421 457q0 46 -9 77.5t-25 51t-38.5 27.5t-50.5 8q-53 0 -80 -25.5t-27 -81.5q0 -53 26.5 -80t86.5 -27q39 0 69.5 12.5t47.5 37.5z" />
    <glyph glyph-name="cent.lf" horiz-adv-x="641" 
d="M504 458q-23 8 -50 13.5t-53 5.5q-42 0 -71 -9.5t-46.5 -30t-25 -54t-7.5 -81.5q0 -98 38 -139.5t109 -41.5q61 0 110 23l11 -121q-43 -27 -118 -33l-7 -118h-120l9 125q-96 20 -144.5 95.5t-48.5 209.5q0 136 52 215t168 95l9 118h120l-9 -119q23 -4 44.5 -9t38.5 -12z
" />
    <glyph glyph-name="sterling.lf" horiz-adv-x="625" 
d="M46 433h48q-8 25 -14 50t-6 54q0 44 15 85t50 72.5t92.5 50t142.5 18.5q59 0 105 -9t83 -23l-20 -142q-31 11 -70 18.5t-80 7.5q-80 0 -113 -27.5t-33 -69.5q0 -23 4 -43.5t11 -41.5h250v-124h-220q3 -20 3 -42q0 -44 -17 -76.5t-48 -52.5l2 -3q43 11 89.5 15t95.5 4
t92.5 -3t85.5 -9q0 -2 -1 -24.5t-2 -49.5t-2.5 -50t-2.5 -25q-64 7 -124.5 10.5t-124.5 3.5q-36 0 -70.5 -0.5t-69 -2t-71.5 -3.5t-79 -6l-7 146q22 4 39.5 15.5t29.5 27t18 35t6 39.5q0 14 -1 26.5t-3 24.5h-76z" />
    <glyph glyph-name="currency.lf" horiz-adv-x="606" 
d="M107 364q0 52 23 95l-69 71l81 86l73 -75q39 21 88 21q23 0 45 -5.5t42 -15.5l75 76l80 -86l-70 -73q11 -21 17 -44.5t6 -49.5q0 -44 -19 -85l66 -68l-81 -86l-65 66q-43 -26 -96 -26q-52 0 -97 25l-65 -66l-81 87l66 67q-19 41 -19 86zM208 366q0 -19 7.5 -35.5
t20 -28.5t29.5 -19t37 -7q19 0 36.5 7t30 19t20 28.5t7.5 35.5t-7.5 35.5t-20 29t-30 19.5t-36.5 7q-20 0 -37 -7t-29.5 -19.5t-20 -29t-7.5 -35.5z" />
    <glyph glyph-name="yen.lf" horiz-adv-x="717" 
d="M228 364l-192 386h190l109 -314l25 -77h3l24 77l107 314h186l-187 -386h97v-85h-136v-42h136v-85h-136v-152h-186v152h-132v85h132v42h-132v85h92z" />
    <glyph glyph-name="franc.lf" horiz-adv-x="618" 
d="M82 201v549h494l3 -152h-329v-152h247l-1 -143h-246v-102h76v-112h-76v-89h-168v89h-69v112h69z" />
    <glyph glyph-name="lira.lf" horiz-adv-x="641" 
d="M55 476h28q-7 27 -7 61q0 44 15 85t50 72.5t92.5 50t142.5 18.5q59 0 105 -9t82 -23l-19 -142q-31 11 -70 18.5t-80 7.5q-40 0 -68 -8t-45 -22t-25 -32.5t-8 -39.5q0 -19 3 -37h269v-84h-245q3 -11 6 -21.5t5 -21.5h234v-84h-224q-2 -87 -66 -127l2 -3q43 11 90 15t96 4
t92.5 -3t85.5 -9q0 -2 -1 -24.5t-2.5 -49.5t-2.5 -50t-2 -25q-64 7 -124.5 10.5t-125.5 3.5q-36 0 -70 -0.5t-68.5 -2t-71.5 -3.5t-79 -6l-7 146q22 4 39.5 15.5t29.5 27t18 35t6 39.5v7h-68l-5 84h62q-3 11 -6.5 21.5t-6.5 21.5h-50z" />
    <glyph glyph-name="peseta.lf" horiz-adv-x="833" 
d="M389 513q0 -63 -10.5 -107t-33 -72.5t-58 -41.5t-86.5 -13h-36v-279h-114v750h150q49 0 85 -12t58.5 -39.5t33.5 -73t11 -112.5zM531 368v-249q0 -28 26 -28q8 0 17 3l2 -93q-6 -4 -19.5 -7t-27.5 -3q-49 0 -74 32.5t-25 94.5v250h-24v91h29l17 98l79 10v-108h51v-91h-51
zM807 137q0 -149 -123 -149q-20 0 -41 5.5t-35 15.5l4 102q29 -18 65 -18q21 0 30 11t9 30q0 16 -8.5 26t-21.5 19t-28 19.5t-28 26t-21.5 39t-8.5 59.5q0 27 7.5 52.5t22 45t37 31.5t52.5 12q23 0 41.5 -5.5t31.5 -14.5l-7 -99q-28 14 -59 14q-32 0 -32 -34
q0 -15 8.5 -24.5t21 -18.5t27 -19t27 -26t21 -40t8.5 -60zM269 512q0 36 -3 58t-10.5 35t-21 17.5t-33.5 4.5h-37v-231h37q18 0 31 4t21.5 16.5t12 35t3.5 60.5z" />
    <glyph glyph-name="Euro.lf" horiz-adv-x="620" 
d="M462 266h-198q16 -80 61.5 -112.5t118.5 -32.5q34 0 67 8.5t63 22.5l11 -120q-35 -20 -80.5 -30.5t-100.5 -10.5q-133 0 -207.5 67t-94.5 208h-81l1 82h72v45h-72l-1 86h80q11 64 36.5 115t65 87t91.5 55t117 19q52 0 94.5 -8.5t74.5 -22.5l-29 -130q-24 10 -49 14.5
t-56 4.5q-76 0 -119.5 -32.5t-60.5 -101.5h248l-18 -86h-241v-45h225z" />
    <glyph glyph-name="numbersign.tosf" horiz-adv-x="602" 
d="M121 267l19 116h-105v108h121l23 158h121l-24 -158h99l24 158h118l-24 -158h73v-108h-88l-19 -116h107l1 -110h-123l-24 -157h-117l23 157h-100l-24 -157h-120l23 157h-70v110h86zM241 267h101l19 116h-100z" />
    <glyph glyph-name="dollar.tosf" horiz-adv-x="602" 
d="M546 194q0 -39 -11 -73t-35 -60.5t-61.5 -44t-90.5 -24.5l-10 -125h-129l10 124q-89 7 -158 42l22 135q22 -13 49 -22t54 -15t53.5 -9t49.5 -3q51 0 72 17t21 42q0 23 -24 34.5t-60 20.5t-77.5 19.5t-77.5 30.5t-60 53.5t-24 89.5q0 75 48.5 125t148.5 62l11 125h129
l-11 -125q70 -9 136 -32l-15 -134q-45 17 -93 25.5t-93 8.5q-48 0 -70.5 -13t-22.5 -35t23.5 -33.5t59 -20t77 -18t77 -29t59 -52t23.5 -86.5z" />
    <glyph glyph-name="zero.tosf" horiz-adv-x="602" 
d="M571 319q0 -168 -64.5 -248.5t-206.5 -80.5q-143 0 -206 80.5t-63 248.5q0 88 15.5 151t48 103.5t83.5 59.5t123 19q71 0 122 -19t84 -59.5t48.5 -103.5t15.5 -151zM414 320q0 60 -7 98t-21 60t-35.5 30t-49.5 8q-29 0 -51 -8.5t-36 -30t-21 -59.5t-7 -98q0 -62 7 -100
t21 -59.5t36 -29t51 -7.5t50 8t35 29.5t21 59.5t7 99z" />
    <glyph glyph-name="one.tosf" horiz-adv-x="602" 
d="M115 93h138v368l-156 -84l-15 128l235 138h96v-550h133v-93h-431v93z" />
    <glyph glyph-name="two.tosf" horiz-adv-x="602" 
d="M543 456q0 -46 -19 -85.5t-53.5 -78t-83.5 -76.5t-109 -81v-3h265l-3 -132h-474v102q66 57 123.5 104.5t100 88.5t67 77t24.5 70q0 33 -25.5 53t-85.5 20q-47 0 -89.5 -15.5t-83.5 -41.5l-39 124q47 31 107.5 50t132.5 19q62 0 108 -14.5t76.5 -40.5t45.5 -61.5t15 -78.5
z" />
    <glyph glyph-name="three.tosf" horiz-adv-x="602" 
d="M546 176q0 -68 -28 -120.5t-81 -88t-130 -55t-176 -21.5l-14 126q77 2 130 15t86 34t47.5 48t14.5 58q0 40 -27.5 62.5t-91.5 23.5q-16 0 -32 -2l-32 -4l-8 106q53 6 87 13.5t54 18.5t27.5 25.5t7.5 33.5q0 29 -24 48.5t-88 19.5q-54 0 -96 -13t-82 -41l-35 124
q40 29 99.5 47.5t124.5 18.5q60 0 106 -14t76.5 -38t46 -57.5t15.5 -72.5q0 -47 -18.5 -83t-58.5 -59v-2q51 -20 75.5 -58.5t24.5 -92.5z" />
    <glyph glyph-name="four.tosf" horiz-adv-x="602" 
d="M512 60v-162l-145 -8v170h-336l-13 102l314 490l180 -11v-455h72l-3 -126h-69zM380 435l4 81l-2 1l-160 -263l-43 -65l1 -3h192z" />
    <glyph glyph-name="five.tosf" horiz-adv-x="602" 
d="M546 184q0 -135 -105 -213t-314 -80l-15 132q72 1 124.5 12t86.5 30t50.5 45.5t16.5 57.5q0 38 -29.5 59t-94.5 21q-39 0 -76.5 -7.5t-66.5 -19.5l-54 62l30 360h409l6 -145h-291l-9 -130q48 12 101 12q109 0 170 -50.5t61 -145.5z" />
    <glyph glyph-name="six.tosf" horiz-adv-x="602" 
d="M565 261q0 -140 -67.5 -205t-187.5 -65q-64 0 -114.5 19t-85 59.5t-52.5 103.5t-18 150q0 106 34.5 186t91.5 133.5t132 81t156 28.5l22 -132q-61 -1 -108.5 -15t-82 -38t-56.5 -57t-31 -72l2 -2q29 19 64 29.5t75 10.5q226 0 226 -215zM411 260q0 48 -24 71t-78 23
q-14 0 -29.5 -3t-30.5 -9t-27.5 -14t-21.5 -18q1 -53 8 -88t20.5 -55.5t34 -29t48.5 -8.5q48 0 74 31t26 100z" />
    <glyph glyph-name="seven.tosf" horiz-adv-x="602" 
d="M551 511l-269 -607h-176l278 590h-334l9 149h492v-132z" />
    <glyph glyph-name="eight.tosf" horiz-adv-x="602" 
d="M32 188q0 43 24.5 82.5t69.5 65.5q-29 23 -48 56t-19 84q0 81 58 128t185 47t184.5 -47.5t57.5 -128.5q0 -43 -19 -77t-51 -57q42 -21 69.5 -57t27.5 -96q0 -199 -269 -199q-141 0 -205.5 51t-64.5 148zM414 180q0 20 -11 33.5t-29.5 24t-43.5 18t-52 15.5l-23 7
q-29 -14 -49.5 -36t-20.5 -51q0 -42 28.5 -61.5t92.5 -19.5q49 0 78.5 16t29.5 54zM207 469q0 -19 11 -32t30 -23t44.5 -17t53.5 -14q27 16 42 34t15 43q0 35 -23 53.5t-80 18.5q-50 0 -71.5 -16.5t-21.5 -46.5z" />
    <glyph glyph-name="nine.tosf" horiz-adv-x="602" 
d="M557 343q0 -120 -32 -205t-88.5 -139t-132 -79.5t-162.5 -26.5l-16 130q52 1 97 13.5t80 36t59 59t33 83.5l-2 2q-53 -38 -133 -38q-50 0 -90.5 14t-69.5 42t-45 71t-16 102q0 114 63.5 179t191.5 65q129 0 196 -77t67 -232zM400 363q0 42 -6.5 71t-20 46.5t-34 25
t-48.5 7.5q-48 0 -72.5 -24t-24.5 -78q0 -51 23.5 -75.5t78.5 -24.5q38 0 65 13t39 39z" />
    <glyph glyph-name="cent.tosf" horiz-adv-x="602" 
d="M535 450q-29 10 -63 16t-66 6q-49 0 -82.5 -9t-54.5 -29t-30 -52t-9 -78q0 -49 12.5 -82.5t35.5 -54.5t55.5 -30.5t72.5 -9.5q37 0 70.5 7t62.5 20l12 -126q-25 -15 -59.5 -25t-79.5 -14l-10 -123h-126l10 128q-112 20 -169 97.5t-57 211.5q0 66 15 120t46.5 93.5t80 64
t116.5 31.5l11 126h127l-12 -128q57 -8 100 -23z" />
    <glyph glyph-name="sterling.tosf" horiz-adv-x="602" 
d="M47 377h43q-7 20 -11 39t-4 41q0 39 13.5 75.5t45.5 64.5t86 45t134 17q55 0 98 -7.5t79 -20.5l-19 -126q-29 10 -67 16t-76 6q-76 0 -106 -23t-30 -61q0 -17 3 -33t8 -33h236v-111h-208q1 -8 1.5 -17t0.5 -18q0 -76 -54 -108l1 -2q41 8 84.5 11.5t88.5 3.5q46 0 86.5 -3
t79.5 -8l-8 -131q-60 6 -117.5 9t-117.5 3q-34 0 -65.5 -0.5t-63.5 -1.5t-66.5 -3t-73.5 -5l-5 129q41 7 61.5 35t20.5 61q0 12 -1 23t-3 22h-68z" />
    <glyph glyph-name="currency.tosf" horiz-adv-x="602" 
d="M109 326q0 51 23 92l-67 70l78 84l71 -73q20 10 41.5 15.5t44.5 5.5t44.5 -5.5t41.5 -15.5l72 73l79 -84l-69 -70q23 -43 23 -92q0 -23 -5 -43.5t-13 -39.5l64 -67l-79 -83l-63 64q-44 -25 -95 -25q-50 0 -94 25l-63 -65l-79 84l63 65q-18 39 -18 85zM210 328
q0 -37 26 -62t64 -25t64 25t26 62q0 36 -26 61t-64 25t-64 -25t-26 -61z" />
    <glyph glyph-name="yen.tosf" horiz-adv-x="602" 
d="M182 306l-172 343h169l94 -245l27 -76h3l26 76l93 245h166l-168 -343h88v-74h-123v-40h123v-75h-123v-117h-167v117h-119v75h119v40h-119v74h83z" />
    <glyph glyph-name="uni2007.tosf" horiz-adv-x="602" 
 />
    <glyph glyph-name="franc.tosf" horiz-adv-x="602" 
d="M96 176v473h463l3 -136h-312v-125h234l-1 -128h-233v-84h70v-100h-70v-76h-154v76h-64v100h64z" />
    <glyph glyph-name="lira.tosf" horiz-adv-x="602" 
d="M52 411h29q-3 11 -4 22.5t-1 23.5q0 39 13.5 75.5t45.5 64.5t86 45t134 17q54 0 97.5 -7.5t79.5 -20.5l-19 -126q-29 10 -67 16t-77 6q-75 0 -105 -23t-30 -61v-16q0 -8 2 -16h250v-72h-230q3 -9 5.5 -18.5t4.5 -19.5h220v-71h-212q0 -74 -53 -107l1 -2q41 8 84 11.5
t89 3.5q45 0 86 -3t80 -8l-8 -131q-60 6 -117.5 9t-117.5 3q-34 0 -65.5 -0.5t-64 -1.5t-66.5 -3t-73 -5l-5 129q41 7 61 35t20 61v9h-61l-5 71h55q-2 10 -5 19t-6 19h-44z" />
    <glyph glyph-name="peseta.tosf" horiz-adv-x="602" 
d="M541 390q-9 -87 -67.5 -133.5t-181.5 -46.5h-83v-210h-147v390h-41v69h41v190h230q123 0 182.5 -46.5t67.5 -143.5h47v-69h-48zM208 459h181q-6 37 -28.5 51t-69.5 14h-83v-65zM292 330q43 0 66.5 11t29.5 49h-180v-60h84z" />
    <glyph glyph-name="Euro.tosf" horiz-adv-x="602" 
d="M534 503q-24 9 -53 14t-58 5q-75 0 -115 -23t-56 -74h256l-25 -77h-242v-46h227l-25 -73h-189q18 -57 60 -83t106 -26q38 0 70 8t62 22l5 -120q-31 -20 -76 -31.5t-104 -11.5q-131 0 -208 61t-98 181h-44v73h36v46h-36v77h45q21 112 96 173t215 61q51 0 102 -9t87 -26z
" />
    <glyph glyph-name="f_i.sc" horiz-adv-x="860" 
d="M222 510v-131h259l-1 -132h-258v-247h-156v649h456l3 -139h-303zM626 649h161v-649h-161v649z" />
    <glyph glyph-name="f_l.sc" horiz-adv-x="1078" 
d="M222 510v-131h259l-1 -132h-258v-247h-156v649h456l3 -139h-303zM1059 138l-3 -138h-437v649h157v-511h283z" />
    <glyph glyph-name="exclam.sc" horiz-adv-x="289" 
d="M88 192l-22 457h156l-21 -457h-113zM227 59q0 -32 -18.5 -51t-61.5 -19q-42 0 -60.5 16t-18.5 54q0 35 18.5 53.5t60.5 18.5q43 0 61.5 -18.5t18.5 -53.5z" />
    <glyph glyph-name="ampersand.sc" horiz-adv-x="666" 
d="M608 -8q-35 14 -71.5 34t-73.5 44q-43 -37 -97.5 -59.5t-121.5 -22.5q-57 0 -96.5 16t-63.5 41.5t-35 58.5t-11 68q0 33 9.5 60t25.5 50t37 42t44 36q-25 38 -39 73.5t-14 65.5q0 33 10 62t32.5 50.5t60 34.5t91.5 13q42 0 77.5 -9.5t61.5 -27.5t40.5 -42.5t14.5 -54.5
t-13.5 -55.5t-36 -48t-51 -42t-57.5 -38.5q25 -26 54.5 -51t62.5 -50q16 26 27.5 54t17.5 55h124q-4 -35 -20.5 -81.5t-46.5 -94.5q27 -15 54 -28t55 -24zM267 118q48 0 92 27q-35 29 -68 59t-62 62q-18 -19 -29 -39t-11 -43q0 -33 20.5 -49.5t57.5 -16.5zM236 498
q0 -30 26 -71q35 20 57.5 40t22.5 44q0 22 -14.5 31t-35.5 9q-26 0 -41 -13.5t-15 -39.5z" />
    <glyph glyph-name="question.sc" horiz-adv-x="477" 
d="M446 489q0 -72 -42 -121.5t-114 -84.5l-6 -90h-113l-8 144q60 29 96.5 58t36.5 71q0 59 -86 59q-79 0 -136 -48l-52 115q35 29 90.5 47.5t118.5 18.5q108 0 161.5 -45.5t53.5 -123.5zM307 59q0 -32 -18.5 -51t-60.5 -19t-61 16t-19 54q0 35 19 53.5t61 18.5t60.5 -18.5
t18.5 -53.5z" />
    <glyph glyph-name="grave.sc" 
d="M183 686l-124 127h174l66 -127h-116z" />
    <glyph glyph-name="a.sc" horiz-adv-x="678" 
d="M458 124h-247l-39 -124h-167l240 649h184l244 -649h-177zM312 447l-62 -197h169l-60 196l-21 79h-3z" />
    <glyph glyph-name="b.sc" horiz-adv-x="625" 
d="M596 190q0 -88 -57.5 -139t-186.5 -51h-286v649h281q113 0 168 -45t55 -122q0 -55 -24 -88.5t-64 -50.5v-2q57 -15 85.5 -53.5t28.5 -97.5zM439 201q0 38 -20.5 56t-68.5 18h-134v-149h138q45 0 65 16t20 59zM421 454q0 36 -18.5 51t-60.5 15h-126v-134h130q40 0 57.5 16
t17.5 52z" />
    <glyph glyph-name="c.sc" horiz-adv-x="545" 
d="M495 500q-27 11 -61.5 17t-74.5 6q-47 0 -78 -10t-50.5 -32.5t-27.5 -60.5t-8 -93q0 -59 8.5 -98t28 -62.5t51 -33.5t78.5 -10q39 0 73 7.5t63 19.5l17 -125q-36 -17 -82 -27t-92 -10q-309 0 -309 340q0 160 76.5 246.5t243.5 86.5q42 0 85.5 -8.5t75.5 -19.5z" />
    <glyph glyph-name="d.sc" horiz-adv-x="664" 
d="M633 326q0 -86 -19.5 -148t-58 -101.5t-96 -58t-132.5 -18.5h-261v649h259q163 0 235.5 -79t72.5 -244zM469 328q0 55 -7.5 90.5t-25 56t-45 28.5t-67.5 8h-102v-374h102q39 0 67 7.5t45 28.5t25 58t8 97z" />
    <glyph glyph-name="e.sc" horiz-adv-x="570" 
d="M539 134l-3 -134h-470v649h457l3 -136h-304v-120h255v-121h-255v-138h317z" />
    <glyph glyph-name="f.sc" horiz-adv-x="553" 
d="M222 510v-131h259l-1 -132h-258v-247h-156v649h456l3 -139h-303z" />
    <glyph glyph-name="g.sc" horiz-adv-x="610" 
d="M563 24q-38 -17 -93.5 -26.5t-110.5 -9.5q-89 0 -151 21.5t-101.5 64t-57.5 105.5t-18 145q0 166 78.5 251.5t252.5 85.5q50 0 101 -8.5t90 -22.5l-15 -133q-37 13 -80.5 20.5t-86.5 7.5q-51 0 -84.5 -9.5t-53.5 -33t-28.5 -61.5t-8.5 -95q0 -59 8 -97.5t26.5 -61.5
t48.5 -32.5t75 -9.5q20 0 37.5 1.5t33.5 6.5v215h138v-324z" />
    <glyph glyph-name="h.sc" horiz-adv-x="682" 
d="M460 0v261h-238v-261h-156v649h156v-250h238v250h156v-649h-156z" />
    <glyph glyph-name="i.sc" horiz-adv-x="307" 
d="M73 649h161v-649h-161v649z" />
    <glyph glyph-name="j.sc" horiz-adv-x="451" 
d="M393 233q0 -131 -62 -188t-171 -57q-83 0 -134 28l8 129q20 -11 45.5 -17.5t49.5 -6.5q60 0 83 26t23 86v416h158v-416z" />
    <glyph glyph-name="k.sc" horiz-adv-x="663" 
d="M461 0l-167 269h-72v-269h-156v649h155v-254h77l163 254h180l-205 -308l216 -341h-191z" />
    <glyph glyph-name="l.sc" horiz-adv-x="525" 
d="M506 138l-3 -138h-437v649h157v-511h283z" />
    <glyph glyph-name="m.sc" horiz-adv-x="848" 
d="M237 649l155 -363l30 -75h3l30 74l157 364h170v-649h-143v335l2 81l-3 1l-29 -76l-136 -341h-102l-136 333l-29 76l-2 -1l1 -81v-327h-139v649h171z" />
    <glyph glyph-name="n.sc" horiz-adv-x="688" 
d="M497 0l-246 350l-45 67l-2 -1l1 -81v-335h-139v649h131l239 -334l46 -66l2 1l-2 80v319h140v-649h-125z" />
    <glyph glyph-name="o.sc" horiz-adv-x="671" 
d="M640 324q0 -172 -71 -254t-233 -82q-161 0 -233 83t-72 253q0 169 71.5 252t233.5 83q161 0 232.5 -83t71.5 -252zM475 324q0 59 -7 97.5t-23 61t-43 31.5t-66 9t-66 -9t-43.5 -31.5t-24 -61t-7.5 -97.5q0 -58 7.5 -96.5t24 -61t43.5 -32t66 -9.5t65.5 9.5t43 32t23.5 61
t7 96.5z" />
    <glyph glyph-name="p.sc" horiz-adv-x="611" 
d="M581 423q0 -51 -15 -92t-47 -69t-83 -43t-123 -15h-91v-204h-156v649h247q142 0 205 -56.5t63 -169.5zM420 424q0 56 -24 76.5t-83 20.5h-91v-194h91q28 0 48.5 4t33.5 14.5t19 29.5t6 49z" />
    <glyph glyph-name="q.sc" horiz-adv-x="679" 
d="M644 324q0 -129 -38.5 -206.5t-125.5 -108.5l120 -106l-181 -25l-99 110q-150 5 -217.5 88.5t-67.5 247.5q0 169 71.5 252t233.5 83q161 0 232.5 -83t71.5 -252zM479 324q0 59 -7 97.5t-23 61t-43 31.5t-66 9t-66 -9t-43.5 -31.5t-24 -61t-7.5 -97.5q0 -58 7.5 -96.5
t24 -61t43.5 -32t66 -9.5t65.5 9.5t43 32t23.5 61t7 96.5z" />
    <glyph glyph-name="r.sc" horiz-adv-x="632" 
d="M575 445q0 -69 -29 -115.5t-83 -63.5l158 -266h-185l-117 235h-97v-235h-156v649h254q128 0 191.5 -50t63.5 -154zM411 438q0 48 -20 66t-71 18h-98v-172h96q51 0 72 18.5t21 69.5z" />
    <glyph glyph-name="s.sc" horiz-adv-x="536" 
d="M507 197q0 -97 -67 -153t-187 -56q-61 0 -115 13t-99 36l20 133q46 -24 93.5 -37t99.5 -13q55 0 80 17.5t25 48.5q0 24 -23.5 38t-58.5 26t-75.5 25t-75.5 35t-58.5 57t-23.5 91q0 41 14 78t44 64.5t77 43.5t113 16q51 0 102 -9t92 -26l-18 -129q-45 14 -87 21.5t-82 7.5
q-31 0 -51.5 -4.5t-32.5 -13t-16.5 -19t-4.5 -22.5q0 -24 23.5 -37.5t58.5 -25t75.5 -24t75.5 -34t58.5 -57t23.5 -91.5z" />
    <glyph glyph-name="t.sc" horiz-adv-x="548" 
d="M354 512v-512h-159v512h-184l3 137h520l3 -137h-183z" />
    <glyph glyph-name="u.sc" horiz-adv-x="672" 
d="M614 240q0 -252 -277 -252q-138 0 -208.5 62t-70.5 190v409h156v-408q0 -60 29.5 -87t93.5 -27q65 0 93 27t28 87v408h156v-409z" />
    <glyph glyph-name="v.sc" horiz-adv-x="658" 
d="M651 649l-235 -649h-173l-236 649h173l130 -426l22 -78h3l21 77l131 427h164z" />
    <glyph glyph-name="w.sc" horiz-adv-x="958" 
d="M567 649l113 -508h3l13 80l82 428h155l-163 -649h-187l-88 418l-14 80h-3l-15 -80l-88 -418h-187l-163 649h164l80 -433l14 -80h3l15 79l96 434h170z" />
    <glyph glyph-name="x.sc" horiz-adv-x="661" 
d="M441 340l200 -340h-179l-93 171l-36 72h-3l-37 -73l-90 -170h-184l197 336l-192 313h189l81 -147l37 -71h3l37 71l82 147h181z" />
    <glyph glyph-name="y.sc" horiz-adv-x="648" 
d="M185 649l110 -240l32 -74h3l31 74l108 240h172l-234 -441v-208h-161v208l-239 441h178z" />
    <glyph glyph-name="z.sc" horiz-adv-x="575" 
d="M37 0v99l256 347l48 62l-1 2h-296l5 139h485v-112l-249 -335l-49 -61l1 -3h300l-2 -138h-498z" />
    <glyph glyph-name="exclamdown.sc" horiz-adv-x="302" 
d="M215 437l18 -529h-164l19 529h127zM62 590q0 36 20.5 57t66.5 21q45 0 66 -18t21 -60q0 -38 -21 -58t-66 -20q-46 0 -66.5 20t-20.5 58z" />
    <glyph glyph-name="dieresis.sc" 
d="M174 754q0 -29 -15 -43t-48 -14q-32 0 -47.5 13t-15.5 44q0 56 63 56q33 0 48 -14t15 -42zM360 754q0 -29 -15 -43t-48 -14q-32 0 -47.5 13t-15.5 44q0 56 63 56q33 0 48 -14t15 -42z" />
    <glyph glyph-name="macron.sc" 
d="M363 703h-319v84h319v-84z" />
    <glyph glyph-name="acute.sc" 
d="M399 813l-146 -127h-127l87 127h186z" />
    <glyph glyph-name="cedilla.sc" 
d="M177 13l103 1l-36 -203h-138z" />
    <glyph glyph-name="questiondown.sc" horiz-adv-x="512" 
d="M31 89q0 83 45.5 140.5t125.5 99.5l6 108h121l9 -166q-66 -35 -106.5 -71.5t-40.5 -85.5q0 -35 25 -53t70 -18q46 0 83.5 14.5t66.5 40.5l55 -125q-38 -32 -98 -53t-129 -21q-117 0 -175 51t-58 139zM182 590q0 36 20.5 57t66.5 21q45 0 66 -18t21 -60q0 -38 -21 -58.5
t-66 -20.5q-46 0 -66.5 20.5t-20.5 58.5z" />
    <glyph glyph-name="germandbls.sc" horiz-adv-x="1072" 
d="M507 197q0 -97 -67 -153t-187 -56q-61 0 -115 13t-99 36l20 133q46 -24 93.5 -37t99.5 -13q55 0 80 17.5t25 48.5q0 24 -23.5 38t-58.5 26t-75.5 25t-75.5 35t-58.5 57t-23.5 91q0 41 14 78t44 64.5t77 43.5t113 16q51 0 102 -9t92 -26l-18 -129q-45 14 -87 21.5t-82 7.5
q-31 0 -51.5 -4.5t-32.5 -13t-16.5 -19t-4.5 -22.5q0 -24 23.5 -37.5t58.5 -25t75.5 -24t75.5 -34t58.5 -57t23.5 -91.5zM1043 197q0 -97 -67 -153t-187 -56q-61 0 -115 13t-99 36l20 133q46 -24 93.5 -37t99.5 -13q55 0 80 17.5t25 48.5q0 24 -23.5 38t-58.5 26t-75.5 25
t-75.5 35t-58.5 57t-23.5 91q0 41 14 78t44 64.5t77 43.5t113 16q51 0 102 -9t92 -26l-18 -129q-45 14 -87 21.5t-82 7.5q-31 0 -51.5 -4.5t-32.5 -13t-16.5 -19t-4.5 -22.5q0 -24 23.5 -37.5t58.5 -25t75.5 -24t75.5 -34t58.5 -57t23.5 -91.5z" />
    <glyph glyph-name="agrave.sc" horiz-adv-x="678" 
d="M458 124h-247l-39 -124h-167l240 649h184l244 -649h-177zM312 447l-62 -197h169l-60 196l-21 79h-3zM309 686l-124 127h174l66 -127h-116z" />
    <glyph glyph-name="aacute.sc" horiz-adv-x="678" 
d="M458 124h-247l-39 -124h-167l240 649h184l244 -649h-177zM312 447l-62 -197h169l-60 196l-21 79h-3zM529 813l-146 -127h-127l87 127h186z" />
    <glyph glyph-name="acircumflex.sc" horiz-adv-x="678" 
d="M458 124h-247l-39 -124h-167l240 649h184l244 -649h-177zM312 447l-62 -197h169l-60 196l-21 79h-3zM401 814l100 -128h-117l-49 73l-51 -73h-115l97 128h135z" />
    <glyph glyph-name="atilde.sc" horiz-adv-x="678" 
d="M458 124h-247l-39 -124h-167l240 649h184l244 -649h-177zM312 447l-62 -197h169l-60 196l-21 79h-3zM170 713q2 48 29 80.5t73 32.5q25 0 42.5 -6.5t32 -15t28 -15t28.5 -6.5q26 0 34 31h71q-2 -49 -30 -80t-73 -31q-24 0 -42 6.5t-32.5 14.5t-27.5 14.5t-28 6.5
q-14 0 -22.5 -9t-11.5 -23h-71z" />
    <glyph glyph-name="adieresis.sc" horiz-adv-x="678" 
d="M458 124h-247l-39 -124h-167l240 649h184l244 -649h-177zM312 447l-62 -197h169l-60 196l-21 79h-3zM305 754q0 -29 -15 -43t-48 -14q-32 0 -47.5 13t-15.5 44q0 56 63 56q33 0 48 -14t15 -42zM491 754q0 -29 -15 -43t-48 -14q-32 0 -47.5 13t-15.5 44q0 56 63 56
q33 0 48 -14t15 -42z" />
    <glyph glyph-name="aring.sc" horiz-adv-x="678" 
d="M204 713q0 44 30 69.5t102 25.5q69 0 101 -26.5t32 -68.5q0 -51 -36 -75l240 -638h-177l-38 124h-247l-39 -124h-167l235 637q-36 22 -36 76zM312 447l-62 -197h169l-60 196l-21 79h-3zM284 712q0 -16 11 -24.5t43 -8.5q29 0 41.5 8t12.5 25q0 15 -12 24t-42 9
q-31 0 -42.5 -9t-11.5 -24z" />
    <glyph glyph-name="ae.sc" horiz-adv-x="966" 
d="M623 513l7 -120h243v-121h-235l9 -138h288l-3 -134h-436l-8 124h-236l-63 -124h-187l373 649h546l4 -136h-302zM425 462l-108 -212h163l-14 203l-3 81l-3 1z" />
    <glyph glyph-name="ccedilla.sc" horiz-adv-x="545" 
d="M261 -5q-230 39 -230 333q0 160 76.5 246.5t243.5 86.5q42 0 85.5 -8.5t75.5 -19.5l-17 -133q-27 11 -61.5 17t-74.5 6q-47 0 -78 -10t-50.5 -32.5t-27.5 -60.5t-8 -93q0 -59 8.5 -98t28 -62.5t51 -33.5t78.5 -10q39 0 73 7.5t63 19.5l17 -125q-31 -14 -69.5 -23.5
t-78.5 -12.5l-31 -178h-138z" />
    <glyph glyph-name="egrave.sc" horiz-adv-x="570" 
d="M539 134l-3 -134h-470v649h457l3 -136h-304v-120h255v-121h-255v-138h317zM279 686l-124 127h174l66 -127h-116z" />
    <glyph glyph-name="eacute.sc" horiz-adv-x="570" 
d="M539 134l-3 -134h-470v649h457l3 -136h-304v-120h255v-121h-255v-138h317zM500 813l-146 -127h-127l87 127h186z" />
    <glyph glyph-name="ecircumflex.sc" horiz-adv-x="570" 
d="M539 134l-3 -134h-470v649h457l3 -136h-304v-120h255v-121h-255v-138h317zM372 814l100 -128h-117l-49 73l-51 -73h-115l97 128h135z" />
    <glyph glyph-name="edieresis.sc" horiz-adv-x="570" 
d="M539 134l-3 -134h-470v649h457l3 -136h-304v-120h255v-121h-255v-138h317zM276 754q0 -29 -15 -43t-48 -14q-32 0 -47.5 13t-15.5 44q0 56 63 56q33 0 48 -14t15 -42zM462 754q0 -29 -15 -43t-48 -14q-32 0 -47.5 13t-15.5 44q0 56 63 56q33 0 48 -14t15 -42z" />
    <glyph glyph-name="igrave.sc" horiz-adv-x="307" 
d="M73 649h161v-649h-161v649zM127 686l-124 127h174l66 -127h-116z" />
    <glyph glyph-name="iacute.sc" horiz-adv-x="307" 
d="M73 649h161v-649h-161v649zM347 813l-146 -127h-127l87 127h186z" />
    <glyph glyph-name="icircumflex.sc" horiz-adv-x="307" 
d="M73 649h161v-649h-161v649zM219 814l100 -128h-117l-49 73l-51 -73h-115l97 128h135z" />
    <glyph glyph-name="idieresis.sc" horiz-adv-x="307" 
d="M73 649h161v-649h-161v649zM123 754q0 -29 -15 -43t-48 -14q-32 0 -47.5 13t-15.5 44q0 56 63 56q33 0 48 -14t15 -42zM309 754q0 -29 -15 -43t-48 -14q-32 0 -47.5 13t-15.5 44q0 56 63 56q33 0 48 -14t15 -42z" />
    <glyph glyph-name="eth.sc" horiz-adv-x="673" 
d="M642 326q0 -86 -19.5 -148t-58 -101.5t-96 -58t-132.5 -18.5h-261v283h-63v108h63v258h259q163 0 235.5 -79t72.5 -244zM478 328q0 55 -7.5 90.5t-25 56t-45 28.5t-67.5 8h-102v-120h100v-108h-100v-146h102q39 0 67 7.5t45 28.5t25 58t8 97z" />
    <glyph glyph-name="ntilde.sc" horiz-adv-x="688" 
d="M497 0l-246 350l-45 67l-2 -1l1 -81v-335h-139v649h131l239 -334l46 -66l2 1l-2 80v319h140v-649h-125zM174 713q2 48 29 80.5t73 32.5q25 0 42.5 -6.5t32 -15t28 -15t28.5 -6.5q26 0 34 31h71q-2 -49 -30 -80t-73 -31q-24 0 -42 6.5t-32.5 14.5t-27.5 14.5t-28 6.5
q-14 0 -22.5 -9t-11.5 -23h-71z" />
    <glyph glyph-name="ograve.sc" horiz-adv-x="671" 
d="M640 324q0 -172 -71 -254t-233 -82q-161 0 -233 83t-72 253q0 169 71.5 252t233.5 83q161 0 232.5 -83t71.5 -252zM475 324q0 59 -7 97.5t-23 61t-43 31.5t-66 9t-66 -9t-43.5 -31.5t-24 -61t-7.5 -97.5q0 -58 7.5 -96.5t24 -61t43.5 -32t66 -9.5t65.5 9.5t43 32t23.5 61
t7 96.5zM309 686l-124 127h174l66 -127h-116z" />
    <glyph glyph-name="oacute.sc" horiz-adv-x="671" 
d="M640 324q0 -172 -71 -254t-233 -82q-161 0 -233 83t-72 253q0 169 71.5 252t233.5 83q161 0 232.5 -83t71.5 -252zM475 324q0 59 -7 97.5t-23 61t-43 31.5t-66 9t-66 -9t-43.5 -31.5t-24 -61t-7.5 -97.5q0 -58 7.5 -96.5t24 -61t43.5 -32t66 -9.5t65.5 9.5t43 32t23.5 61
t7 96.5zM530 813l-146 -127h-127l87 127h186z" />
    <glyph glyph-name="ocircumflex.sc" horiz-adv-x="671" 
d="M640 324q0 -172 -71 -254t-233 -82q-161 0 -233 83t-72 253q0 169 71.5 252t233.5 83q161 0 232.5 -83t71.5 -252zM475 324q0 59 -7 97.5t-23 61t-43 31.5t-66 9t-66 -9t-43.5 -31.5t-24 -61t-7.5 -97.5q0 -58 7.5 -96.5t24 -61t43.5 -32t66 -9.5t65.5 9.5t43 32t23.5 61
t7 96.5zM401 814l100 -128h-117l-49 73l-51 -73h-115l97 128h135z" />
    <glyph glyph-name="otilde.sc" horiz-adv-x="671" 
d="M640 324q0 -172 -71 -254t-233 -82q-161 0 -233 83t-72 253q0 169 71.5 252t233.5 83q161 0 232.5 -83t71.5 -252zM475 324q0 59 -7 97.5t-23 61t-43 31.5t-66 9t-66 -9t-43.5 -31.5t-24 -61t-7.5 -97.5q0 -58 7.5 -96.5t24 -61t43.5 -32t66 -9.5t65.5 9.5t43 32t23.5 61
t7 96.5zM170 713q2 48 29 80.5t73 32.5q25 0 42.5 -6.5t32 -15t28 -15t28.5 -6.5q26 0 34 31h71q-2 -49 -30 -80t-73 -31q-24 0 -42 6.5t-32.5 14.5t-27.5 14.5t-28 6.5q-14 0 -22.5 -9t-11.5 -23h-71z" />
    <glyph glyph-name="odieresis.sc" horiz-adv-x="671" 
d="M640 324q0 -172 -71 -254t-233 -82q-161 0 -233 83t-72 253q0 169 71.5 252t233.5 83q161 0 232.5 -83t71.5 -252zM475 324q0 59 -7 97.5t-23 61t-43 31.5t-66 9t-66 -9t-43.5 -31.5t-24 -61t-7.5 -97.5q0 -58 7.5 -96.5t24 -61t43.5 -32t66 -9.5t65.5 9.5t43 32t23.5 61
t7 96.5zM306 754q0 -29 -15 -43t-48 -14q-32 0 -47.5 13t-15.5 44q0 56 63 56q33 0 48 -14t15 -42zM492 754q0 -29 -15 -43t-48 -14q-32 0 -47.5 13t-15.5 44q0 56 63 56q33 0 48 -14t15 -42z" />
    <glyph glyph-name="oslash.sc" horiz-adv-x="671" 
d="M34 46l46 57q-26 41 -37.5 96t-11.5 125q0 169 71 252t233 83q121 0 192 -47l47 55l69 -65l-50 -61q46 -79 46 -217q0 -172 -71 -254t-233 -82q-119 0 -189 46l-42 -51zM195 324q0 -32 2 -57.5t5 -45.5l236 270q-17 17 -42.5 24.5t-60.5 7.5q-39 0 -66 -9t-43.5 -31.5
t-23.5 -61t-7 -97.5zM475 324q0 30 -2 55t-4 46l-235 -269q17 -17 42 -24t60 -7q39 0 65.5 9.5t43 32t23.5 61t7 96.5z" />
    <glyph glyph-name="ugrave.sc" horiz-adv-x="672" 
d="M614 240q0 -252 -277 -252q-138 0 -208.5 62t-70.5 190v409h156v-408q0 -60 29.5 -87t93.5 -27q65 0 93 27t28 87v408h156v-409zM310 686l-124 127h174l66 -127h-116z" />
    <glyph glyph-name="uacute.sc" horiz-adv-x="672" 
d="M614 240q0 -252 -277 -252q-138 0 -208.5 62t-70.5 190v409h156v-408q0 -60 29.5 -87t93.5 -27q65 0 93 27t28 87v408h156v-409zM531 813l-146 -127h-127l87 127h186z" />
    <glyph glyph-name="ucircumflex.sc" horiz-adv-x="672" 
d="M614 240q0 -252 -277 -252q-138 0 -208.5 62t-70.5 190v409h156v-408q0 -60 29.5 -87t93.5 -27q65 0 93 27t28 87v408h156v-409zM402 814l100 -128h-117l-49 73l-51 -73h-115l97 128h135z" />
    <glyph glyph-name="udieresis.sc" horiz-adv-x="672" 
d="M614 240q0 -252 -277 -252q-138 0 -208.5 62t-70.5 190v409h156v-408q0 -60 29.5 -87t93.5 -27q65 0 93 27t28 87v408h156v-409zM307 754q0 -29 -15 -43t-48 -14q-32 0 -47.5 13t-15.5 44q0 56 63 56q33 0 48 -14t15 -42zM493 754q0 -29 -15 -43t-48 -14q-32 0 -47.5 13
t-15.5 44q0 56 63 56q33 0 48 -14t15 -42z" />
    <glyph glyph-name="yacute.sc" horiz-adv-x="648" 
d="M185 649l110 -240l32 -74h3l31 74l108 240h172l-234 -441v-208h-161v208l-239 441h178zM522 813l-146 -127h-127l87 127h186z" />
    <glyph glyph-name="thorn.sc" horiz-adv-x="615" 
d="M581 327q0 -51 -15 -92t-48.5 -69t-86.5 -43t-128 -15h-81v-108h-156v649h156v-96h81q75 0 128 -14t86 -42.5t48.5 -71t15.5 -98.5zM420 327q0 56 -26 77t-91 21h-81v-195h81q31 0 53.5 4t36.5 15t20.5 30t6.5 48z" />
    <glyph glyph-name="ydieresis.sc" horiz-adv-x="648" 
d="M185 649l110 -240l32 -74h3l31 74l108 240h172l-234 -441v-208h-161v208l-239 441h178zM298 754q0 -29 -15 -43t-48 -14q-32 0 -47.5 13t-15.5 44q0 56 63 56q33 0 48 -14t15 -42zM484 754q0 -29 -15 -43t-48 -14q-32 0 -47.5 13t-15.5 44q0 56 63 56q33 0 48 -14t15 -42
z" />
    <glyph glyph-name="amacron.sc" horiz-adv-x="678" 
d="M458 124h-247l-39 -124h-167l240 649h184l244 -649h-177zM312 447l-62 -197h169l-60 196l-21 79h-3zM494 703h-319v84h319v-84z" />
    <glyph glyph-name="abreve.sc" horiz-adv-x="678" 
d="M458 124h-247l-39 -124h-167l240 649h184l244 -649h-177zM312 447l-62 -197h169l-60 196l-21 79h-3zM495 814q0 -64 -37.5 -98.5t-121.5 -34.5q-44 0 -74.5 9t-49.5 26.5t-27 42t-8 55.5h104q0 -35 15 -49t40 -14q23 0 38 14t15 49h106z" />
    <glyph glyph-name="aogonek.sc" horiz-adv-x="678" 
d="M458 124h-247l-39 -124h-167l240 649h184l244 -649h-19q-27 0 -44.5 -17.5t-17.5 -37.5q0 -18 12 -28.5t40 -10.5q27 0 48 10l13 -81q-22 -11 -47.5 -17.5t-58.5 -6.5q-63 0 -94 25.5t-31 63.5q0 35 17.5 60t46.5 40h-42zM312 447l-62 -197h169l-60 196l-21 79h-3z" />
    <glyph glyph-name="cacute.sc" horiz-adv-x="545" 
d="M495 500q-27 11 -61.5 17t-74.5 6q-47 0 -78 -10t-50.5 -32.5t-27.5 -60.5t-8 -93q0 -59 8.5 -98t28 -62.5t51 -33.5t78.5 -10q39 0 73 7.5t63 19.5l17 -125q-36 -17 -82 -27t-92 -10q-309 0 -309 340q0 160 76.5 246.5t243.5 86.5q42 0 85.5 -8.5t75.5 -19.5zM520 813
l-146 -127h-127l87 127h186z" />
    <glyph glyph-name="ccircumflex.sc" horiz-adv-x="545" 
d="M495 500q-27 11 -61.5 17t-74.5 6q-47 0 -78 -10t-50.5 -32.5t-27.5 -60.5t-8 -93q0 -59 8.5 -98t28 -62.5t51 -33.5t78.5 -10q39 0 73 7.5t63 19.5l17 -125q-36 -17 -82 -27t-92 -10q-309 0 -309 340q0 160 76.5 246.5t243.5 86.5q42 0 85.5 -8.5t75.5 -19.5zM391 814
l100 -128h-117l-49 73l-51 -73h-115l97 128h135z" />
    <glyph glyph-name="cdotaccent.sc" horiz-adv-x="545" 
d="M495 500q-27 11 -61.5 17t-74.5 6q-47 0 -78 -10t-50.5 -32.5t-27.5 -60.5t-8 -93q0 -59 8.5 -98t28 -62.5t51 -33.5t78.5 -10q39 0 73 7.5t63 19.5l17 -125q-36 -17 -82 -27t-92 -10q-309 0 -309 340q0 160 76.5 246.5t243.5 86.5q42 0 85.5 -8.5t75.5 -19.5zM407 751
q0 -58 -80 -58q-41 0 -60.5 13t-19.5 45q0 58 80 58t80 -58z" />
    <glyph glyph-name="ccaron.sc" horiz-adv-x="545" 
d="M495 500q-27 11 -61.5 17t-74.5 6q-47 0 -78 -10t-50.5 -32.5t-27.5 -60.5t-8 -93q0 -59 8.5 -98t28 -62.5t51 -33.5t78.5 -10q39 0 73 7.5t63 19.5l17 -125q-36 -17 -82 -27t-92 -10q-309 0 -309 340q0 160 76.5 246.5t243.5 86.5q42 0 85.5 -8.5t75.5 -19.5zM258 686
l-98 128h116l49 -77l51 77h117l-100 -128h-135z" />
    <glyph glyph-name="dcaron.sc" horiz-adv-x="664" 
d="M633 326q0 -86 -19.5 -148t-58 -101.5t-96 -58t-132.5 -18.5h-261v649h259q163 0 235.5 -79t72.5 -244zM469 328q0 55 -7.5 90.5t-25 56t-45 28.5t-67.5 8h-102v-374h102q39 0 67 7.5t45 28.5t25 58t8 97zM232 686l-98 128h116l49 -77l51 77h117l-100 -128h-135z" />
    <glyph glyph-name="dcroat.sc" horiz-adv-x="673" 
d="M642 326q0 -86 -19.5 -148t-58 -101.5t-96 -58t-132.5 -18.5h-261v283h-63v108h63v258h259q163 0 235.5 -79t72.5 -244zM478 328q0 55 -7.5 90.5t-25 56t-45 28.5t-67.5 8h-102v-120h100v-108h-100v-146h102q39 0 67 7.5t45 28.5t25 58t8 97z" />
    <glyph glyph-name="emacron.sc" horiz-adv-x="570" 
d="M539 134l-3 -134h-470v649h457l3 -136h-304v-120h255v-121h-255v-138h317zM455 703h-319v84h319v-84z" />
    <glyph glyph-name="ebreve.sc" horiz-adv-x="570" 
d="M539 134l-3 -134h-470v649h457l3 -136h-304v-120h255v-121h-255v-138h317zM465 814q0 -64 -37.5 -98.5t-121.5 -34.5q-44 0 -74.5 9t-49.5 26.5t-27 42t-8 55.5h104q0 -35 15 -49t40 -14q23 0 38 14t15 49h106z" />
    <glyph glyph-name="edotaccent.sc" horiz-adv-x="570" 
d="M539 134l-3 -134h-470v649h457l3 -136h-304v-120h255v-121h-255v-138h317zM387 751q0 -58 -80 -58q-41 0 -60.5 13t-19.5 45q0 58 80 58t80 -58z" />
    <glyph glyph-name="eogonek.sc" horiz-adv-x="570" 
d="M539 134l-3 -134h-47q-25 -2 -40.5 -18.5t-15.5 -36.5q0 -18 12 -28.5t40 -10.5q27 0 48 10l13 -81q-22 -11 -47.5 -17.5t-58.5 -6.5q-63 0 -94 25.5t-31 63.5q0 35 17.5 60t46.5 40h-313v649h457l3 -136h-304v-120h255v-121h-255v-138h317z" />
    <glyph glyph-name="ecaron.sc" horiz-adv-x="570" 
d="M539 134l-3 -134h-470v649h457l3 -136h-304v-120h255v-121h-255v-138h317zM235 686l-98 128h116l49 -77l51 77h117l-100 -128h-135z" />
    <glyph glyph-name="gcircumflex.sc" horiz-adv-x="610" 
d="M563 24q-38 -17 -93.5 -26.5t-110.5 -9.5q-89 0 -151 21.5t-101.5 64t-57.5 105.5t-18 145q0 166 78.5 251.5t252.5 85.5q50 0 101 -8.5t90 -22.5l-15 -133q-37 13 -80.5 20.5t-86.5 7.5q-51 0 -84.5 -9.5t-53.5 -33t-28.5 -61.5t-8.5 -95q0 -59 8 -97.5t26.5 -61.5
t48.5 -32.5t75 -9.5q20 0 37.5 1.5t33.5 6.5v215h138v-324zM403 814l100 -128h-117l-49 73l-51 -73h-115l97 128h135z" />
    <glyph glyph-name="gbreve.sc" horiz-adv-x="610" 
d="M563 24q-38 -17 -93.5 -26.5t-110.5 -9.5q-89 0 -151 21.5t-101.5 64t-57.5 105.5t-18 145q0 166 78.5 251.5t252.5 85.5q50 0 101 -8.5t90 -22.5l-15 -133q-37 13 -80.5 20.5t-86.5 7.5q-51 0 -84.5 -9.5t-53.5 -33t-28.5 -61.5t-8.5 -95q0 -59 8 -97.5t26.5 -61.5
t48.5 -32.5t75 -9.5q20 0 37.5 1.5t33.5 6.5v215h138v-324zM496 814q0 -64 -37.5 -98.5t-121.5 -34.5q-44 0 -74.5 9t-49.5 26.5t-27 42t-8 55.5h104q0 -35 15 -49t40 -14q23 0 38 14t15 49h106z" />
    <glyph glyph-name="gdotaccent.sc" horiz-adv-x="610" 
d="M563 24q-38 -17 -93.5 -26.5t-110.5 -9.5q-89 0 -151 21.5t-101.5 64t-57.5 105.5t-18 145q0 166 78.5 251.5t252.5 85.5q50 0 101 -8.5t90 -22.5l-15 -133q-37 13 -80.5 20.5t-86.5 7.5q-51 0 -84.5 -9.5t-53.5 -33t-28.5 -61.5t-8.5 -95q0 -59 8 -97.5t26.5 -61.5
t48.5 -32.5t75 -9.5q20 0 37.5 1.5t33.5 6.5v215h138v-324zM418 751q0 -58 -80 -58q-41 0 -60.5 13t-19.5 45q0 58 80 58t80 -58z" />
    <glyph glyph-name="uni0123.sc" horiz-adv-x="610" 
d="M563 24q-38 -17 -93.5 -26.5t-110.5 -9.5q-89 0 -151 21.5t-101.5 64t-57.5 105.5t-18 145q0 166 78.5 251.5t252.5 85.5q50 0 101 -8.5t90 -22.5l-15 -133q-37 13 -80.5 20.5t-86.5 7.5q-51 0 -84.5 -9.5t-53.5 -33t-28.5 -61.5t-8.5 -95q0 -59 8 -97.5t26.5 -61.5
t48.5 -32.5t75 -9.5q20 0 37.5 1.5t33.5 6.5v215h138v-324zM342 -34q47 0 67 -15.5t20 -44.5q0 -14 -8.5 -28t-23 -28.5t-33 -28.5t-38.5 -26l-47 16l26 58q-47 10 -47 48q0 20 18 34.5t66 14.5z" />
    <glyph glyph-name="hcircumflex.sc" horiz-adv-x="682" 
d="M460 0v261h-238v-261h-156v649h156v-250h238v250h156v-649h-156zM404 814l100 -128h-117l-49 73l-51 -73h-115l97 128h135z" />
    <glyph glyph-name="hbar.sc" horiz-adv-x="697" 
d="M467 0v261h-238v-261h-156v481h-40v87h40v81h156v-81h238v81h156v-81h41v-87h-41v-481h-156zM467 399v82h-238v-82h238z" />
    <glyph glyph-name="itilde.sc" horiz-adv-x="307" 
d="M73 649h161v-649h-161v649zM-12 713q2 48 29 80.5t73 32.5q25 0 42.5 -6.5t32 -15t28 -15t28.5 -6.5q26 0 34 31h71q-2 -49 -30 -80t-73 -31q-24 0 -42 6.5t-32.5 14.5t-27.5 14.5t-28 6.5q-14 0 -22.5 -9t-11.5 -23h-71z" />
    <glyph glyph-name="imacron.sc" horiz-adv-x="307" 
d="M73 649h161v-649h-161v649zM312 703h-319v84h319v-84z" />
    <glyph glyph-name="ibreve.sc" horiz-adv-x="307" 
d="M73 649h161v-649h-161v649zM312 814q0 -64 -37.5 -98.5t-121.5 -34.5q-44 0 -74.5 9t-49.5 26.5t-27 42t-8 55.5h104q0 -35 15 -49t40 -14q23 0 38 14t15 49h106z" />
    <glyph glyph-name="iogonek.sc" horiz-adv-x="307" 
d="M23 649h161v-649h-17q-25 -2 -40.5 -18.5t-15.5 -36.5q0 -18 12 -28.5t40 -10.5q27 0 48 10l13 -81q-22 -11 -47.5 -17.5t-58.5 -6.5q-63 0 -94 25.5t-31 63.5q0 35 17.5 60t46.5 40h-34v649z" />
    <glyph glyph-name="Idotaccent.sc" horiz-adv-x="307" 
d="M73 649h161v-649h-161v649zM234 751q0 -58 -80 -58q-41 0 -60.5 13t-19.5 45q0 58 80 58t80 -58z" />
    <glyph glyph-name="dotlessi.sc" horiz-adv-x="307" 
d="M73 649h161v-649h-161v649z" />
    <glyph glyph-name="ij.sc" horiz-adv-x="758" 
d="M73 649h161v-649h-161v649zM700 233q0 -131 -62 -188t-171 -57q-83 0 -134 28l8 129q20 -11 45.5 -17.5t49.5 -6.5q60 0 83 26t23 86v416h158v-416z" />
    <glyph glyph-name="jcircumflex.sc" horiz-adv-x="451" 
d="M393 233q0 -131 -62 -188t-171 -57q-83 0 -134 28l8 129q20 -11 45.5 -17.5t49.5 -6.5q60 0 83 26t23 86v416h158v-416zM382 814l100 -128h-117l-49 73l-51 -73h-115l97 128h135z" />
    <glyph glyph-name="uni0137.sc" horiz-adv-x="663" 
d="M461 0l-167 269h-72v-269h-156v649h155v-254h77l163 254h180l-205 -308l216 -341h-191zM335 -34q47 0 67 -15.5t20 -44.5q0 -14 -8.5 -28t-23 -28.5t-33 -28.5t-38.5 -26l-47 16l26 58q-47 10 -47 48q0 20 18 34.5t66 14.5z" />
    <glyph glyph-name="kgreenlandic.sc" horiz-adv-x="663" 
d="M461 0l-167 269h-72v-269h-156v649h155v-254h77l163 254h180l-205 -308l216 -341h-191z" />
    <glyph glyph-name="lacute.sc" horiz-adv-x="525" 
d="M506 138l-3 -138h-437v649h157v-511h283zM397 813l-146 -127h-127l87 127h186z" />
    <glyph glyph-name="uni013C.sc" horiz-adv-x="525" 
d="M506 138l-3 -138h-437v649h157v-511h283zM273 -34q47 0 67 -15.5t20 -44.5q0 -14 -8.5 -28t-23 -28.5t-33 -28.5t-38.5 -26l-47 16l26 58q-47 10 -47 48q0 20 18 34.5t66 14.5z" />
    <glyph glyph-name="lcaron.sc" horiz-adv-x="525" 
d="M506 138l-3 -138h-437v649h157v-511h283zM368 657q37 0 53 -17t16 -46q0 -28 -25.5 -58t-57.5 -56l-36 17l21 58q-37 12 -37 50q0 21 15 36.5t51 15.5z" />
    <glyph glyph-name="ldot.sc" horiz-adv-x="525" 
d="M478 407q0 -34 -18 -53.5t-58 -19.5q-41 0 -59 16.5t-18 56.5q0 35 18 53.5t59 18.5q40 0 58 -18.5t18 -53.5zM506 138l-3 -138h-437v649h157v-511h283z" />
    <glyph glyph-name="lslash.sc" horiz-adv-x="552" 
d="M534 138l-3 -138h-437v251l-70 -28l-8 125l78 31v270h157v-213l177 71l9 -129l-186 -73v-167h283z" />
    <glyph glyph-name="nacute.sc" horiz-adv-x="688" 
d="M497 0l-246 350l-45 67l-2 -1l1 -81v-335h-139v649h131l239 -334l46 -66l2 1l-2 80v319h140v-649h-125zM534 813l-146 -127h-127l87 127h186z" />
    <glyph glyph-name="uni0146.sc" horiz-adv-x="688" 
d="M497 0l-246 350l-45 67l-2 -1l1 -81v-335h-139v649h131l239 -334l46 -66l2 1l-2 80v319h140v-649h-125zM342 -34q47 0 67 -15.5t20 -44.5q0 -14 -8.5 -28t-23 -28.5t-33 -28.5t-38.5 -26l-47 16l26 58q-47 10 -47 48q0 20 18 34.5t66 14.5z" />
    <glyph glyph-name="ncaron.sc" horiz-adv-x="688" 
d="M497 0l-246 350l-45 67l-2 -1l1 -81v-335h-139v649h131l239 -334l46 -66l2 1l-2 80v319h140v-649h-125zM272 686l-98 128h116l49 -77l51 77h117l-100 -128h-135z" />
    <glyph glyph-name="napostrophe.sc" horiz-adv-x="740" 
d="M549 0l-246 350l-45 67l-2 -1l1 -81v-335h-139v649h131l239 -334l46 -66l2 1l-2 80v319h140v-649h-125zM50 803q37 0 53 -17t16 -46q0 -28 -25.5 -58t-57.5 -56l-36 17l21 58q-37 12 -37 50q0 21 15 36.5t51 15.5z" />
    <glyph glyph-name="eng.sc" horiz-adv-x="688" 
d="M622 68q0 -54 -12 -92t-34.5 -62t-53.5 -35.5t-70 -11.5q-29 0 -54 6t-43 17l8 93q11 -8 27 -13t30 -5q27 0 42 12.5t20 41.5l-231 330l-45 67l-2 -1l1 -81v-334h-139v649h131l239 -334l46 -66l2 1l-2 80v319h140v-581z" />
    </font>
</defs>
</svg>
