<?xml version="1.0" standalone="no"?>
<!DOCTYPE svg PUBLIC "-//W3C//DTD SVG 1.1//EN" "http://www.w3.org/Graphics/SVG/1.1/DTD/svg11.dtd" >
<svg xmlns="http://www.w3.org/2000/svg" xmlns:xlink="http://www.w3.org/1999/xlink" version="1.1">
<metadata>
Created by FontForge 20170731 at Thu May 16 15:43:42 2019
 By Aleksey,,,
Copyright (c) 2007-2019 Monotype GmbH. All rights reserved
</metadata>
<defs>
<font id="ClanPro-ThinItalic" horiz-adv-x="593" >
  <font-face 
    font-family="Clan Pro Thin"
    font-weight="250"
    font-style="italic"
    font-stretch="normal"
    units-per-em="1000"
    panose-1="2 0 4 3 4 0 0 9 0 4"
    ascent="787"
    descent="-213"
    x-height="584"
    cap-height="750"
    bbox="-174 -226 1101 971"
    underline-thickness="25"
    underline-position="-124"
    slope="-8"
    unicode-range="U+000D-FEFF"
  />
<missing-glyph horiz-adv-x="586" 
d="M44 750h498v-750h-498v750zM519 23v704h-452v-704h452z" />
    <glyph glyph-name="IJ" unicode="IJ" horiz-adv-x="861" 
d="M195 750h30l-105 -750h-30zM717 229q-18 -126 -77.5 -182.5t-171.5 -56.5q-45 0 -89 13t-71 36l11 26q31 -26 73.5 -37.5t79.5 -11.5q47 0 83.5 11t63 36.5t44 66t25.5 99.5l73 521h29z" />
    <glyph glyph-name="ij" unicode="ij" horiz-adv-x="521" 
d="M58 0l81 582l30 4l-82 -586h-29zM184 794q28 0 28 -27q0 -20 -10.5 -28.5t-26.5 -8.5q-13 0 -20.5 4.5t-7.5 18.5q0 19 10 30t27 11zM376 98q-8 -60 -25 -102t-43.5 -70.5t-63.5 -45t-86 -25.5l-1 21q43 8 75.5 23t55.5 40.5t37.5 64t22.5 94.5l68 484l29 4zM460 794
q28 0 28 -27q0 -20 -10.5 -28.5t-26.5 -8.5q-13 0 -20.5 4.5t-7.5 18.5q0 19 10 30t27 11z" />
    <glyph glyph-name="f_i" unicode="fi" horiz-adv-x="574" 
d="M57 584h101q9 65 27 107t46.5 66.5t68 34t91.5 9.5l-2 -22q-37 0 -70 -6.5t-59 -27t-45 -59t-28 -102.5h282q7 0 14.5 0.5t13.5 1.5l-82 -586h-28l79 564h-282l-79 -564h-29l79 564h-103zM512 794q28 0 28 -27q0 -20 -10.5 -28.5t-26.5 -8.5q-13 0 -20.5 4.5t-7.5 18.5
q0 19 10 30t27 11z" />
    <glyph glyph-name="f_j" unicode="fj" horiz-adv-x="574" 
d="M428 98q-8 -60 -25 -102t-43.5 -70.5t-64 -45t-86.5 -25.5l-1 21q44 8 76.5 23t55.5 40.5t37.5 64t22.5 94.5l66 465h-282l-79 -563h-29l79 563h-103l5 21h101q9 65 27 107t46.5 66.5t68 34t91.5 9.5l-2 -22q-37 0 -70 -6.5t-59 -27t-45 -59t-28 -102.5h282q7 0 14.5 0.5
t13.5 1.5zM499 794q28 0 28 -27q0 -20 -10.5 -28.5t-26.5 -8.5q-13 0 -20.5 4.5t-7.5 18.5q0 19 10 30t27 11z" />
    <glyph glyph-name="f_l" unicode="fl" horiz-adv-x="543" 
d="M57 584h101q10 66 30.5 108t53 67t76.5 34.5t100 9.5q35 0 54.5 -2.5t32.5 -5.5l-111 -795h-28l109 779q-12 2 -26.5 3t-36.5 1q-53 0 -92 -11t-66 -34.5t-43.5 -61.5t-23.5 -92h177l-3 -20h-177l-79 -564h-29l79 564h-103z" />
    <glyph glyph-name=".notdef" horiz-adv-x="586" 
d="M44 750h498v-750h-498v750zM519 23v704h-452v-704h452z" />
    <glyph glyph-name=".null" horiz-adv-x="0" 
 />
    <glyph glyph-name=".null" horiz-adv-x="0" 
 />
    <glyph glyph-name="nonmarkingreturn" unicode="&#xd;" horiz-adv-x="385" 
 />
    <glyph glyph-name="space" unicode=" " horiz-adv-x="385" 
 />
    <glyph glyph-name="exclam" unicode="!" horiz-adv-x="303" 
d="M116 179l74 571h31l-88 -571h-17zM107 49q28 0 28 -22q0 -37 -36 -37q-28 0 -28 23q0 18 10 27t26 9z" />
    <glyph glyph-name="quotedbl" unicode="&#x22;" horiz-adv-x="338" 
d="M323 774l-40 -200h-20l22 200h38zM169 774l-40 -200h-20l22 200h38z" />
    <glyph glyph-name="numbersign" unicode="#" horiz-adv-x="660" 
d="M206 281l62 203h-172l3 23h174l68 243h22l-68 -243h147l68 243h21l-68 -243h141l-3 -23h-143l-61 -203h174l-3 -22h-177l-72 -259h-22l72 259h-147l-72 -259h-22l72 259h-137l3 22h140zM228 281h147l61 203h-147z" />
    <glyph glyph-name="dollar" unicode="$" horiz-adv-x="660" 
d="M395 761q57 -2 99.5 -14t65.5 -26l-10 -26q-35 18 -73 28t-86 12l-66 -328q37 -13 73 -28t64 -36t45 -50.5t17 -71.5q0 -60 -19 -104t-55.5 -72.5t-89 -42.5t-118.5 -15l-15 -74l-21 2l14 72q-60 2 -110.5 17t-82.5 39l9 30q38 -26 84.5 -42.5t103.5 -18.5l75 375
q-37 13 -72.5 26.5t-63.5 32.5t-45 45t-17 64q0 48 20 86.5t55.5 65t85 40.5t109.5 15l14 67h24zM246 12q116 1 184 51.5t68 149.5q0 36 -14.5 61.5t-39.5 45t-57 34t-66 26.5zM366 736q-57 0 -101.5 -14t-75 -37t-46 -55t-15.5 -68q0 -32 14.5 -54.5t39 -39t56 -29.5
t65.5 -25z" />
    <glyph glyph-name="percent" unicode="%" horiz-adv-x="681" 
d="M253 767q54 0 81.5 -26t27.5 -92q0 -13 -1 -27t-3 -30q-14 -95 -51.5 -134.5t-102.5 -39.5q-56 0 -83 26.5t-27 88.5q0 13 1.5 27.5t3.5 31.5q13 93 48 134t106 41zM250 747q-27 0 -48 -7t-36.5 -24.5t-26 -47.5t-16.5 -75q-2 -17 -3.5 -31t-1.5 -27q0 -55 22 -75.5
t67 -20.5q27 0 48 7.5t36.5 25t26 47t16.5 74.5q2 17 3.5 31.5t1.5 27.5q0 55 -22 75t-67 20zM584 748l-476 -749l-21 9l476 749zM485 344q54 0 81.5 -26t27.5 -91q0 -13 -1.5 -27.5t-3.5 -31.5q-14 -95 -51 -134.5t-102 -39.5q-57 0 -84 26.5t-27 89.5q0 13 1.5 27t3.5 31
q7 46 18.5 79.5t30.5 55t45 31.5t61 10zM482 322q-27 0 -48 -7t-36.5 -24.5t-26.5 -47.5t-17 -75q-2 -17 -3.5 -31t-1.5 -26q0 -55 22.5 -75.5t67.5 -20.5q27 0 47.5 7t35.5 24.5t25.5 47t16.5 74.5q2 17 3.5 32.5t1.5 28.5q0 54 -21.5 73.5t-65.5 19.5z" />
    <glyph glyph-name="ampersand" unicode="&#x26;" horiz-adv-x="666" 
d="M361 762q63 0 91.5 -26.5t28.5 -68.5q0 -40 -19 -74t-50 -64t-70 -57.5t-78 -53.5q34 -63 81.5 -129t102.5 -128q38 48 66.5 101.5t42.5 103.5h23q-11 -43 -40 -104t-75 -120q35 -37 69.5 -70.5t69.5 -61.5l-14 -20q-35 28 -70.5 61t-70.5 70q-24 -28 -52 -52t-59 -42
t-65.5 -28.5t-71.5 -10.5q-43 0 -73.5 11t-50 30.5t-28.5 46.5t-9 58q0 51 16 92.5t42.5 77t61 65t70.5 55.5q-21 45 -33.5 86t-12.5 76q0 36 12 68t34.5 56t55.5 38t75 14zM431 140q-57 62 -106 129t-84 133q-33 -24 -64 -51.5t-55.5 -59t-39 -68.5t-14.5 -80q0 -62 38 -96
t102 -34q60 0 117.5 36t105.5 91zM355 739q-28 0 -54 -10t-46 -29.5t-32 -47.5t-12 -64q0 -63 41 -147q37 24 73.5 49t65.5 52t47 56.5t18 62.5q0 36 -25.5 57t-75.5 21z" />
    <glyph glyph-name="quotesingle" unicode="'" horiz-adv-x="184" 
d="M169 774l-40 -200h-20l22 200h38z" />
    <glyph glyph-name="parenleft" unicode="(" horiz-adv-x="304" 
d="M364 804q-51 -54 -94.5 -117.5t-75 -135t-49.5 -151.5t-18 -168q0 -109 29 -196t77 -161l-32 -1q-45 67 -72 157t-27 197q0 94 17.5 175.5t48.5 152.5t73 133t91 117z" />
    <glyph glyph-name="parenright" unicode=")" horiz-adv-x="303" 
d="M98 806q46 -75 72.5 -158.5t26.5 -186.5q0 -89 -17.5 -173t-48.5 -159t-73 -139.5t-91 -115.5l-30 1q48 53 90.5 115t74 133.5t50 153t18.5 173.5q0 105 -28 192t-77 162z" />
    <glyph glyph-name="asterisk" unicode="*" horiz-adv-x="341" 
d="M244 801l-17 -123l121 34l4 -20l-122 -33l63 -102l-20 -14l-61 105l-94 -105l-15 14l92 102l-112 33l10 20l111 -34l18 123h22z" />
    <glyph glyph-name="plus" unicode="+" 
d="M306 330v-199h-26v199h-196v25h196v204h26v-204h202v-25h-202z" />
    <glyph glyph-name="comma" unicode="," horiz-adv-x="234" 
d="M75 51q14 0 20.5 -8t6.5 -20q0 -13 -7 -31t-18.5 -39.5t-26.5 -44.5t-31 -45l-12 8q17 28 32 57t26 60h-3q-26 0 -26 25q0 14 9.5 26t29.5 12z" />
    <glyph glyph-name="hyphen" unicode="-" horiz-adv-x="423" 
d="M331 350l-3 -22h-241l3 22h241z" />
    <glyph glyph-name="period" unicode="." horiz-adv-x="233" 
d="M75 51q25 0 25 -23q0 -38 -34 -38q-30 0 -30 24q0 18 10.5 27.5t28.5 9.5z" />
    <glyph glyph-name="slash" unicode="/" horiz-adv-x="420" 
d="M467 806l-480 -938h-25l480 938h25z" />
    <glyph glyph-name="zero" unicode="0" horiz-adv-x="660" 
d="M588 377q-15 -108 -40 -182t-62 -120t-88.5 -66t-118.5 -20q-55 0 -95.5 13t-67.5 41.5t-40 74.5t-13 112q0 63 12 147q15 108 40 181t62.5 118t89 64.5t120.5 19.5q54 0 94.5 -12.5t66.5 -40t39 -72.5t13 -110q0 -64 -12 -148zM560 377q12 84 12 146q0 61 -12 102
t-35.5 65.5t-58.5 34.5t-82 10q-59 0 -104.5 -16.5t-80 -57t-58 -110t-38.5 -174.5q-6 -42 -8.5 -77t-2.5 -65q0 -63 12 -105.5t36 -68t59.5 -36t83.5 -10.5q58 0 103.5 17t79 58t56.5 111t38 176z" />
    <glyph glyph-name="one" unicode="1" horiz-adv-x="660" 
d="M152 23h160l90 647q2 11 3.5 20.5t4.5 19.5l-2 2q-8 -6 -17 -12.5t-17 -11.5l-169 -110l-1 28l224 148h16l-102 -731h150l-3 -23h-340z" />
    <glyph glyph-name="two" unicode="2" horiz-adv-x="660" 
d="M382 758q100 0 154 -41t54 -118q0 -70 -37.5 -138t-104 -137.5t-157 -142.5t-196.5 -152v-3h427l-5 -26h-469l2 20q93 75 184.5 148.5t164.5 145t118 141t45 137.5q0 30 -10.5 55.5t-32.5 44.5t-57 30t-84 11q-60 0 -117 -23.5t-102 -59.5l-9 21q44 37 105 62t127 25z
" />
    <glyph glyph-name="three" unicode="3" horiz-adv-x="660" 
d="M381 758q96 0 149.5 -36t53.5 -108q0 -50 -16.5 -86t-44 -60t-63 -38.5t-72.5 -20.5v-2q82 -11 126 -46t44 -104q0 -58 -19.5 -106.5t-56.5 -84t-91.5 -55t-124.5 -19.5q-80 0 -130 19t-85 45l14 24q39 -30 88 -46.5t117 -16.5q64 0 112.5 19t81.5 51.5t49.5 76
t16.5 93.5q0 76 -63 107.5t-198 31.5l3 22q145 0 216 49.5t71 140.5q0 65 -50 95t-131 30q-67 0 -119.5 -22t-100.5 -60l-9 20q40 35 99 61t133 26z" />
    <glyph glyph-name="four" unicode="4" horiz-adv-x="660" 
d="M456 188l-26 -188h-26l26 188h-364l-1 18l432 544h38l-75 -536h114l-6 -26h-112zM503 689q3 19 8 41l-2 1q-5 -8 -12 -16.5t-13 -16.5l-355 -453q-12 -15 -26 -29l1 -2h330z" />
    <glyph glyph-name="five" unicode="5" horiz-adv-x="660" 
d="M580 724h-369l-60 -265q-2 -10 -4.5 -20t-5.5 -19l1 -1q42 24 97 36.5t103 12.5q106 0 156.5 -41t50.5 -126q0 -11 -1 -23t-3 -25q-19 -132 -90 -196.5t-192 -64.5q-68 0 -114 17t-83 47l12 26q38 -30 82.5 -48t105.5 -18q109 0 172 58t80 176q2 13 3 24t1 22
q0 77 -46 112t-140 35q-61 0 -115 -15t-92 -38l-14 11l78 349h389z" />
    <glyph glyph-name="six" unicode="6" horiz-adv-x="660" 
d="M355 466q108 0 156.5 -40t48.5 -123q0 -11 -1 -24t-3 -27q-17 -127 -86 -193.5t-192 -66.5q-50 0 -89 12t-65 39.5t-39.5 71.5t-13.5 109q0 27 2.5 57t7.5 65q15 109 45 187t74.5 128t103 73.5t129.5 23.5q42 0 78 -7t74 -24l-9 -25q-35 15 -68 22.5t-76 7.5
q-128 0 -210 -86.5t-111 -275.5l1 -1q52 47 116.5 72t126.5 25zM348 443q-29 0 -61.5 -7t-64.5 -20.5t-61.5 -32.5t-52.5 -43q-4 -31 -6 -58t-2 -51q0 -115 44 -165t138 -50q106 0 167.5 60t78.5 176q3 24 3 45q0 75 -44 110.5t-139 35.5z" />
    <glyph glyph-name="seven" unicode="7" horiz-adv-x="660" 
d="M639 728l-459 -728h-34l442 690q10 16 23 32l-1 2h-472l6 26h498z" />
    <glyph glyph-name="eight" unicode="8" horiz-adv-x="660" 
d="M387 757q196 0 196 -142q0 -80 -46.5 -137.5t-139.5 -87.5v-2q32 -10 61.5 -22.5t51.5 -31.5t35 -46t13 -64q0 -59 -20 -102.5t-56.5 -72.5t-88 -43t-114.5 -14q-115 0 -168.5 39t-53.5 120q0 51 16 91t44.5 70.5t67 52.5t83.5 37v2q-27 9 -50 21t-40 29t-26.5 39.5
t-9.5 53.5q0 98 59.5 154t185.5 56zM301 393q-45 -17 -84.5 -38t-69.5 -49t-47 -65t-17 -85q0 -68 46.5 -104t153.5 -36q52 0 97 12t78.5 37t52.5 64t19 92q0 43 -20.5 70.5t-53.5 45.5t-74 30t-81 26zM384 734q-106 0 -161 -47t-55 -135q0 -36 17.5 -60.5t46 -42
t64.5 -29.5t73 -22q101 35 143.5 86t42.5 124q0 63 -41.5 94.5t-129.5 31.5z" />
    <glyph glyph-name="nine" unicode="9" horiz-adv-x="660" 
d="M371 758q103 0 159 -60t56 -185q0 -21 -1.5 -44t-5.5 -48q-17 -117 -46 -198.5t-71.5 -132.5t-98 -74.5t-124.5 -23.5q-44 0 -79 7t-74 26l8 23q35 -17 69 -24t77 -7q63 0 114 21.5t89.5 69t66 122t44.5 179.5l-2 2q-51 -45 -110 -65t-122 -20q-114 0 -165 45.5
t-51 125.5q0 120 68 190.5t199 70.5zM554 437q2 20 3.5 39.5t1.5 36.5q0 116 -50.5 168.5t-141.5 52.5q-110 0 -173 -60t-63 -169q0 -73 46.5 -114.5t145.5 -41.5q63 0 122.5 19.5t108.5 68.5z" />
    <glyph glyph-name="colon" unicode=":" horiz-adv-x="233" 
d="M146 558q26 0 26 -23q0 -18 -9.5 -28t-25.5 -10q-29 0 -29 23q0 38 38 38zM75 51q25 0 25 -23q0 -38 -34 -38q-30 0 -30 24q0 18 10.5 27.5t28.5 9.5z" />
    <glyph glyph-name="semicolon" unicode=";" horiz-adv-x="239" 
d="M152 558q26 0 26 -23q0 -18 -9.5 -28t-25.5 -10q-29 0 -29 23q0 38 38 38zM75 51q14 0 20.5 -8t6.5 -20q0 -13 -7 -31t-18.5 -39.5t-26.5 -44.5t-31 -45l-12 8q17 28 32 57t26 60h-3q-26 0 -26 25q0 14 9.5 26t29.5 12z" />
    <glyph glyph-name="less" unicode="&#x3c;" 
d="M172 362q-9 -5 -18.5 -10t-17.5 -8v-2q9 -3 18.5 -7.5t18.5 -9.5l324 -163v-28l-402 201v13l402 212v-28z" />
    <glyph glyph-name="equal" unicode="=" 
d="M78 410v24h435v-24h-435zM78 253v25h435v-25h-435z" />
    <glyph glyph-name="greater" unicode="&#x3e;" 
d="M95 162l322 162q8 5 18 9t19 8v2q-9 4 -18.5 8.5t-17.5 9.5l-323 171v28l402 -212v-13l-402 -201v28z" />
    <glyph glyph-name="question" unicode="?" horiz-adv-x="520" 
d="M326 764q169 0 169 -132q0 -50 -16.5 -91t-47 -76.5t-73.5 -66.5t-97 -61l-24 -158h-23l20 171q54 33 97.5 63.5t73.5 63t46 69t16 81.5q0 60 -39 87t-105 27t-118.5 -24t-99.5 -62l-11 17q42 40 101 66t131 26zM209 49q27 0 27 -23q0 -19 -9.5 -27.5t-25.5 -8.5
q-30 0 -30 23q0 18 10.5 27t27.5 9z" />
    <glyph glyph-name="at" unicode="@" horiz-adv-x="831" 
d="M469 544q32 0 54 -12t31 -38h2l18 43l21 -2l-82 -251q-10 -30 -10 -56q0 -32 18 -50t55 -18q63 0 109 61t63 181q2 18 3.5 35.5t1.5 34.5q0 61 -16.5 112.5t-49.5 89t-82.5 58t-114.5 20.5q-99 0 -175 -45t-128.5 -118t-79.5 -164.5t-27 -185.5q0 -71 18 -129t54 -99
t91.5 -63t130.5 -22q58 0 103.5 8.5t81 22.5t62 31.5t46.5 35.5l8 -21q-56 -45 -128 -72.5t-175 -27.5q-79 0 -138.5 23t-99.5 66t-60 104.5t-20 139.5q0 99 29 196t84.5 173t137.5 123t189 47q68 0 120.5 -21.5t88.5 -61t55 -94.5t19 -122q0 -18 -1 -36t-4 -38
q-19 -135 -75 -201t-132 -66q-40 0 -62.5 22.5t-22.5 70.5l-2 1q-28 -44 -66 -69t-78 -25q-47 0 -73 26t-26 83q0 55 19.5 109t52.5 96.5t75 68.5t87 26zM545 472q-10 26 -30 37t-50 11q-36 0 -72 -23t-65 -61t-47 -86t-18 -99q0 -47 22 -68.5t58 -21.5q23 0 45 10.5
t41.5 28.5t34.5 42.5t24 53.5z" />
    <glyph glyph-name="A" unicode="A" horiz-adv-x="687" 
d="M517 219h-387l-115 -219h-33l400 750h35l188 -750h-34zM394 722q-4 -9 -8.5 -18t-9.5 -18l-232 -441h367l-107 437l-8 40h-2z" />
    <glyph glyph-name="B" unicode="B" horiz-adv-x="683" 
d="M425 750q87 0 130.5 -33t43.5 -106q0 -51 -12 -88.5t-32.5 -63t-47 -40t-54.5 -20.5v-2q59 -11 94 -46t35 -104q0 -19 -3 -40q-14 -99 -69 -153t-170 -54h-265l105 750h245zM107 26h236q42 0 76.5 9.5t61.5 31t44.5 56.5t24.5 85q3 21 3 38q0 70 -41 103t-123 33h-232z
M161 407h226q85 0 134.5 50t49.5 147q0 64 -38 92t-113 28h-215z" />
    <glyph glyph-name="C" unicode="C" horiz-adv-x="618" 
d="M442 762q24 0 48.5 -3t47 -8.5t42 -12.5t32.5 -15l-11 -26q-29 16 -71.5 27t-90.5 11q-69 0 -123 -18t-94.5 -59t-67.5 -108t-41 -166q-5 -35 -7.5 -66t-2.5 -58q0 -69 15 -116t45 -76t74.5 -41.5t102.5 -12.5q50 0 93.5 11.5t80.5 30.5l4 -23q-34 -19 -83.5 -32.5
t-100.5 -13.5q-135 0 -198.5 64.5t-63.5 205.5q0 29 2.5 60.5t7.5 66.5q14 100 42.5 172t72.5 117.5t105 67t140 21.5z" />
    <glyph glyph-name="D" unicode="D" horiz-adv-x="745" 
d="M413 750q136 0 200 -59.5t64 -195.5q0 -52 -9 -118q-14 -103 -42.5 -174.5t-72.5 -116.5t-105 -65.5t-140 -20.5h-233l105 750h233zM108 28h203q68 0 122.5 16.5t95 56.5t67.5 107.5t41 168.5q9 66 9 116q0 64 -14.5 107.5t-44 70.5t-74.5 39t-105 12h-202z" />
    <glyph glyph-name="E" unicode="E" horiz-adv-x="630" 
d="M524 27l-5 -27h-444l105 750h425l-2 -27h-398l-44 -313h348l-4 -27h-348l-50 -356h417z" />
    <glyph glyph-name="F" unicode="F" horiz-adv-x="597" 
d="M206 722l-44 -315h334l-4 -27h-334l-53 -380h-30l107 750h423l-2 -28h-397z" />
    <glyph glyph-name="G" unicode="G" horiz-adv-x="687" 
d="M561 32q-42 -21 -97.5 -33t-118.5 -12q-68 0 -119.5 14.5t-85.5 46t-51 82t-17 122.5q0 53 9 119q15 107 44.5 181.5t75.5 121t109 67.5t145 21q52 0 101 -11t83 -28l-10 -27q-36 19 -79 29.5t-99 10.5q-71 0 -127.5 -17.5t-98.5 -59.5t-70 -112.5t-43 -175.5
q-9 -66 -9 -117q0 -129 59.5 -184.5t185.5 -55.5q54 0 100 9.5t86 26.5l47 341h30z" />
    <glyph glyph-name="H" unicode="H" horiz-adv-x="766" 
d="M561 0l53 382h-456l-53 -382h-30l105 750h30l-48 -342h456l48 342h30l-105 -750h-30z" />
    <glyph glyph-name="I" unicode="I" horiz-adv-x="310" 
d="M195 750h30l-105 -750h-30z" />
    <glyph glyph-name="J" unicode="J" horiz-adv-x="551" 
d="M407 229q-18 -126 -77.5 -182.5t-171.5 -56.5q-45 0 -89 13t-71 36l11 26q31 -26 73.5 -37.5t79.5 -11.5q47 0 83.5 11t63 36.5t44 66t25.5 99.5l73 521h29z" />
    <glyph glyph-name="K" unicode="K" horiz-adv-x="686" 
d="M550 0l-253 382h-139l-53 -382h-30l105 750h30l-48 -341h137l339 341h44l-351 -353l263 -397h-44z" />
    <glyph glyph-name="L" unicode="L" horiz-adv-x="581" 
d="M502 27l-5 -27h-422l105 750h29l-102 -723h395z" />
    <glyph glyph-name="M" unicode="M" horiz-adv-x="909" 
d="M220 750l180 -675q2 -10 4.5 -20t4.5 -20h2q4 9 8.5 18t9.5 18l371 679h39l-105 -750h-26l92 662q2 10 4.5 24t5.5 25l-2 1l-389 -712h-29l-190 705h-2q-2 -10 -2 -20.5t-2 -20.5l-92 -664h-27l105 750h40z" />
    <glyph glyph-name="N" unicode="N" horiz-adv-x="771" 
d="M572 0l-369 715h-2q0 -10 -1 -20.5t-3 -20.5l-94 -674h-28l105 750h39l356 -694h1l2 20q1 10 3 20l92 654h28l-105 -750h-24z" />
    <glyph glyph-name="O" unicode="O" horiz-adv-x="736" 
d="M658 375q-15 -106 -40 -179.5t-65.5 -120t-98.5 -67.5t-137 -21q-65 0 -111.5 13.5t-76.5 43.5t-44.5 77.5t-14.5 114.5q0 31 3 65.5t8 73.5q15 106 41 180t67 120t99 66.5t138 20.5q64 0 110.5 -13.5t76 -42.5t43.5 -75.5t14 -112.5q0 -62 -12 -143zM628 375
q5 40 8 74.5t3 64.5q0 63 -13 105.5t-39.5 68.5t-67.5 37t-97 11q-69 0 -121 -17t-89 -58.5t-61 -111t-39 -174.5q-5 -39 -8 -73.5t-3 -63.5q0 -63 13 -106t40 -69.5t68.5 -37.5t97.5 -11q69 0 120.5 17.5t88 59t60.5 111t39 173.5z" />
    <glyph glyph-name="P" unicode="P" horiz-adv-x="641" 
d="M410 750q103 0 152.5 -36.5t49.5 -120.5q0 -12 -1 -25t-3 -27q-16 -111 -77.5 -162.5t-180.5 -51.5h-200l-45 -327h-30l105 750h230zM154 354h200q54 0 93 11t66 34.5t42.5 58.5t22.5 83q3 24 3 44q0 75 -43.5 106.5t-131.5 31.5h-200z" />
    <glyph glyph-name="Q" unicode="Q" horiz-adv-x="736" 
d="M658 375q-14 -102 -38 -174t-62 -118.5t-92 -69t-128 -24.5l178 -134l-60 -10l-161 143q-119 4 -172 62t-53 186q0 31 3 65.5t8 73.5q15 106 41 180t67 120t99 66.5t138 20.5q64 0 110.5 -13.5t76 -42.5t43.5 -75.5t14 -112.5q0 -62 -12 -143zM628 375q5 40 8 74.5
t3 64.5q0 63 -13 105.5t-39.5 68.5t-67.5 37t-97 11q-69 0 -121 -17t-89 -58.5t-61 -111t-39 -174.5q-5 -39 -8 -73.5t-3 -63.5q0 -63 13 -106t40 -69.5t68.5 -37.5t97.5 -11q69 0 120.5 17.5t88 59t60.5 111t39 173.5z" />
    <glyph glyph-name="R" unicode="R" horiz-adv-x="644" 
d="M413 750q91 0 133 -36t42 -109q0 -62 -14.5 -105.5t-41 -72.5t-64.5 -44t-84 -19l172 -364h-39l-165 361h-197l-50 -361h-30l105 750h233zM159 387h196q45 0 82.5 11.5t64.5 37t42 66t15 98.5q0 66 -37 94.5t-113 28.5h-203z" />
    <glyph glyph-name="S" unicode="S" horiz-adv-x="560" 
d="M351 762q55 0 100 -11t80 -31l-12 -25q-39 20 -79 30.5t-91 10.5q-56 0 -96.5 -15.5t-67.5 -41t-40 -58t-13 -67.5q0 -46 26 -73t65 -45t85 -32.5t85 -35t65 -52.5t26 -85q0 -7 -0.5 -15t-1.5 -16q-12 -99 -78.5 -156t-183.5 -57q-65 0 -113.5 16t-86.5 43l13 26
q38 -29 83.5 -44t106.5 -15q51 0 93.5 14.5t73 42t47.5 66.5t17 88q0 48 -26 77t-65 48t-85 34t-85 34.5t-65 49.5t-26 81q0 45 16.5 84t48 68t78 45.5t106.5 16.5z" />
    <glyph glyph-name="T" unicode="T" horiz-adv-x="568" 
d="M349 723l-101 -723h-29l101 723h-248l5 27h524l-3 -27h-249z" />
    <glyph glyph-name="U" unicode="U" horiz-adv-x="748" 
d="M629 272q-11 -77 -37 -131.5t-65 -88.5t-91 -49.5t-114 -15.5q-54 0 -97 12t-73 37.5t-46 66.5t-16 98q0 17 1 34t4 37l67 478h29l-67 -478q-2 -18 -3.5 -34.5t-1.5 -31.5q0 -100 51.5 -146t154.5 -46q119 0 187.5 62t87.5 196l67 478h29z" />
    <glyph glyph-name="V" unicode="V" horiz-adv-x="675" 
d="M692 750l-385 -750h-39l-175 750h34l155 -680l8 -40h2q3 9 7.5 18.5t9.5 18.5l350 683h33z" />
    <glyph glyph-name="W" unicode="W" horiz-adv-x="984" 
d="M566 750l87 -681q2 -11 2.5 -22t1.5 -19h2q2 9 5.5 19t7.5 19l263 684h30l-291 -750h-41l-85 679q-2 10 -2.5 20.5t-1.5 20.5h-2q-3 -10 -6.5 -19.5t-7.5 -18.5l-277 -682h-41l-81 750h30l70 -683q1 -10 2 -20.5t1 -20.5h2q3 9 6.5 19t7.5 19l280 686h38z" />
    <glyph glyph-name="X" unicode="X" horiz-adv-x="683" 
d="M361 331q-5 9 -10 19t-10 19h-2q-5 -7 -14 -18t-13 -16l-266 -335h-38l315 393l-199 357h39l162 -302q5 -9 10 -19t10 -19h2q5 7 14 18t13 16l247 306h38l-295 -365l211 -385h-38z" />
    <glyph glyph-name="Y" unicode="Y" horiz-adv-x="642" 
d="M130 750l169 -409q4 -9 7.5 -19t6.5 -19h2q5 8 10.5 17t11.5 17l287 413h35l-334 -477l-38 -273h-30l38 273l-202 477h37z" />
    <glyph glyph-name="Z" unicode="Z" horiz-adv-x="617" 
d="M12 0l2 19l526 673q6 8 12 15t14 14l-1 2h-437l6 27h471l-3 -24l-523 -668q-12 -15 -26 -29l1 -2h450l-6 -27h-486z" />
    <glyph glyph-name="bracketleft" unicode="[" horiz-adv-x="299" 
d="M176 806h183l-4 -24h-157l-124 -883h157l-3 -23h-183z" />
    <glyph glyph-name="backslash" unicode="\" horiz-adv-x="393" 
d="M120 806l179 -938h-24l-179 938h24z" />
    <glyph glyph-name="bracketright" unicode="]" horiz-adv-x="300" 
d="M119 -124h-183l3 23h157l124 883h-158l4 24h184z" />
    <glyph glyph-name="asciicircum" unicode="^" horiz-adv-x="660" 
d="M359 777l-217 -316h-32l238 344h23l237 -344h-30z" />
    <glyph glyph-name="underscore" unicode="_" horiz-adv-x="444" 
d="M348 -53l-3 -23h-368l3 23h368z" />
    <glyph glyph-name="grave" unicode="`" horiz-adv-x="392" 
d="M272 669l-78 141h45l59 -141h-26z" />
    <glyph glyph-name="a" unicode="a" horiz-adv-x="583" 
d="M395 592q36 0 63.5 -3t49.5 -4h12l-82 -585h-24l10 91q2 22 6 41l-2 1q-35 -67 -93 -104.5t-133 -37.5q-77 0 -118 42.5t-41 140.5q0 20 1.5 41.5t5.5 45.5q22 158 110.5 244.5t234.5 86.5zM207 14q44 0 83.5 15.5t71 45t53 72.5t29.5 97l45 319q-23 2 -46.5 4t-51.5 2
q-68 0 -121.5 -21t-92.5 -61t-63.5 -96.5t-34.5 -128.5q-4 -24 -5.5 -45t-1.5 -40q0 -87 34.5 -125t100.5 -38z" />
    <glyph glyph-name="b" unicode="b" horiz-adv-x="587" 
d="M366 593q36 0 65 -10t49.5 -33t31 -60t10.5 -91q0 -23 -1.5 -49.5t-6.5 -56.5q-21 -150 -86.5 -226t-184.5 -76q-27 0 -54 5.5t-52 14.5t-46 21t-34 26l104 744l29 4l-44 -311q-2 -10 -3.5 -20.5t-3.5 -19.5l2 -1q35 66 92.5 102.5t132.5 36.5zM361 570q-44 0 -84 -16.5
t-71.5 -47t-53.5 -74t-29 -97.5l-37 -267q28 -24 70 -38.5t90 -14.5q100 0 158.5 66.5t79.5 212.5q5 29 6.5 54.5t1.5 48.5q0 49 -9 82t-26.5 53.5t-41.5 29t-54 8.5z" />
    <glyph glyph-name="c" unicode="c" horiz-adv-x="495" 
d="M329 593q40 0 74.5 -7.5t66.5 -25.5l-12 -21q-32 14 -61 21.5t-72 7.5q-105 0 -163 -69t-78 -208q-4 -27 -5.5 -50.5t-1.5 -44.5q0 -51 10.5 -85.5t30.5 -56t48.5 -30.5t65.5 -9q52 0 92 17t75 49l10 -19q-36 -34 -80 -52.5t-104 -18.5q-87 0 -132.5 47t-45.5 156
q0 22 2 46.5t6 51.5q42 301 274 301z" />
    <glyph glyph-name="d" unicode="d" horiz-adv-x="585" 
d="M343 593q43 0 79.5 -6.5t66.5 -17.5l33 233l29 4l-113 -806h-21l8 90q1 10 2 20.5t3 20.5l-2 1q-35 -66 -93 -103.5t-133 -37.5q-36 0 -65 10t-49.5 32.5t-31 59t-10.5 90.5q0 102 21 178.5t59.5 128t93.5 77.5t123 26zM207 14q45 0 85 16.5t71.5 47.5t52.5 76t29 101
l41 289q-30 14 -65.5 20.5t-80.5 6.5q-218 0 -257 -284q-4 -29 -6 -54t-2 -47q0 -49 9.5 -82t26.5 -53t41.5 -28.5t54.5 -8.5z" />
    <glyph glyph-name="e" unicode="e" horiz-adv-x="503" 
d="M321 593q79 0 114 -30.5t35 -73.5q0 -40 -20 -73.5t-66 -60.5t-120 -47t-182 -33q-6 -45 -6 -81q0 -51 10.5 -85t31 -55t49.5 -30t66 -9q108 0 179 66l11 -18q-37 -35 -86.5 -53.5t-110.5 -18.5q-42 0 -75 11t-56 35.5t-35.5 63.5t-12.5 95q0 22 2 45.5t6 50.5
q20 149 87 225t179 76zM318 570q-102 0 -157.5 -71t-74.5 -198q101 10 169.5 27.5t110.5 41t60 53t18 63.5q0 36 -30.5 60t-95.5 24z" />
    <glyph glyph-name="f" unicode="f" horiz-adv-x="350" 
d="M57 584h101q9 65 27 107t46.5 66.5t68 34t91.5 9.5l-2 -22q-37 0 -70 -6.5t-59 -27t-45 -59t-28 -102.5h185l-6 -20h-182l-79 -564h-29l79 564h-103z" />
    <glyph glyph-name="g" unicode="g" horiz-adv-x="583" 
d="M452 105q-10 -69 -30.5 -117t-53 -77t-75.5 -42t-98 -13q-42 0 -83 10.5t-72 29.5l11 22q33 -18 69.5 -28.5t74.5 -10.5q46 0 84 10.5t67.5 36t49 68.5t28.5 108l7 50l-2 1q-29 -60 -79 -93t-121 -33q-39 0 -69.5 9.5t-51.5 30.5t-32 55t-11 84q0 91 23 163t66 121.5
t103 75.5t135 26q36 0 63 -4t52 -4h13zM235 51q88 0 144 62.5t71 170.5l38 278l-44 4q-22 2 -56 2q-64 0 -118 -23.5t-93 -69.5t-61 -113t-22 -155q0 -45 9.5 -75t27.5 -48t44.5 -25.5t59.5 -7.5z" />
    <glyph glyph-name="h" unicode="h" horiz-adv-x="591" 
d="M427 0l53 382q2 18 3.5 34t1.5 30q0 69 -31 96.5t-94 27.5q-94 0 -157.5 -63t-79.5 -177l-46 -330h-28l112 801l29 5l-43 -307q-2 -10 -3.5 -20.5t-3.5 -19.5l2 -1q34 66 90.5 100.5t131.5 34.5t112.5 -36.5t37.5 -114.5q0 -14 -1.5 -28.5t-3.5 -31.5l-53 -382h-29z" />
    <glyph glyph-name="i" unicode="i" horiz-adv-x="245" 
d="M58 0l81 582l30 4l-82 -586h-29zM184 794q28 0 28 -27q0 -20 -10.5 -28.5t-26.5 -8.5q-13 0 -20.5 4.5t-7.5 18.5q0 19 10 30t27 11z" />
    <glyph glyph-name="j" unicode="j" horiz-adv-x="276" 
d="M131 98q-8 -60 -25 -102t-43.5 -70.5t-63.5 -45t-86 -25.5l-1 21q43 8 75.5 23t55.5 40.5t37.5 64t22.5 94.5l68 484l29 4zM215 794q28 0 28 -27q0 -20 -10.5 -28.5t-26.5 -8.5q-13 0 -20.5 4.5t-7.5 18.5q0 19 10 30t27 11z" />
    <glyph glyph-name="k" unicode="k" horiz-adv-x="569" 
d="M49 0l112 801l29 5l-56 -403q-2 -10 -3.5 -20.5t-3.5 -19.5l2 -1q22 54 52 97t65 72.5t74 45.5t80 16q57 0 82 -25.5t25 -65.5q0 -71 -61.5 -135t-179.5 -102q15 -50 39.5 -93t56 -75.5t68 -53.5t75.5 -27l-6 -23q-42 4 -82.5 26.5t-75.5 60t-64 88t-47 112.5
q63 16 110 41t77.5 54t45.5 61.5t15 63.5q0 29 -18 49.5t-63 20.5q-48 0 -95 -27.5t-87 -76t-69.5 -116t-40.5 -147.5l-28 -203h-28z" />
    <glyph glyph-name="l" unicode="l" horiz-adv-x="226" 
d="M49 0l112 801l29 5l-113 -806h-28z" />
    <glyph glyph-name="m" unicode="m" horiz-adv-x="868" 
d="M426 374q6 42 6 73q0 67 -25.5 94.5t-78.5 27.5q-85 0 -139 -63.5t-70 -175.5l-46 -330h-28l81 582l23 4l-7 -76l-2 -20q-1 -10 -3 -20l2 -1q32 60 81 92t112 32q60 0 92.5 -33t34.5 -106l2 -1q31 68 82 104t119 36q63 0 95.5 -35t32.5 -113q0 -32 -6 -71l-52 -374h-28
l52 374q6 40 6 72q0 67 -26 95t-78 28q-82 0 -137.5 -60t-70.5 -168l-47 -341h-29z" />
    <glyph glyph-name="n" unicode="n" horiz-adv-x="586" 
d="M475 382q2 18 3.5 34t1.5 30q0 69 -31 96.5t-94 27.5q-45 0 -85 -16t-71.5 -46.5t-52.5 -74t-28 -97.5l-46 -336h-28l81 582l23 4l-8 -87l-2 -20q-1 -10 -3 -20l2 -1q34 66 90.5 100.5t131.5 34.5t112.5 -36.5t37.5 -114.5q0 -14 -1.5 -28.5t-3.5 -31.5l-53 -382h-29z
" />
    <glyph glyph-name="o" unicode="o" horiz-adv-x="570" 
d="M315 569q-51 0 -89.5 -15.5t-66.5 -49t-46.5 -86t-28.5 -127.5q-4 -29 -6 -54t-2 -48q0 -96 38.5 -135.5t121.5 -39.5q51 0 89.5 15.5t67 49.5t46.5 87t29 128q4 29 6 54t2 47q0 96 -39.5 135t-121.5 39zM319 593q97 0 141.5 -44.5t44.5 -149.5q0 -23 -2 -49.5t-6 -56.5
q-11 -79 -31 -136t-52 -94t-77 -54.5t-105 -17.5q-97 0 -141.5 44.5t-44.5 148.5q0 46 9 108q11 79 31 135.5t51.5 93.5t76.5 54.5t105 17.5z" />
    <glyph glyph-name="p" unicode="p" horiz-adv-x="583" 
d="M362 593q36 0 65 -10t49.5 -33t31 -60t10.5 -91q0 -23 -1.5 -49.5t-6.5 -56.5q-21 -150 -86 -226t-180 -76q-53 0 -95 14.5t-69 39.5l-2 -1q-1 -10 -2 -20.5t-3 -20.5l-20 -143h-28l102 724l22 3l-10 -95q-1 -11 -2 -20.5t-3 -19.5l2 -1q33 67 91.5 104.5t134.5 37.5z
M357 570q-46 0 -86.5 -18t-71.5 -48.5t-51.5 -72.5t-27.5 -90l-38 -270q27 -26 68.5 -41t91.5 -15q103 0 160.5 68t77.5 211q5 29 6.5 54.5t1.5 48.5q0 49 -9 82t-26.5 53.5t-41.5 29t-54 8.5z" />
    <glyph glyph-name="q" unicode="q" horiz-adv-x="583" 
d="M395 592q41 0 70.5 -3.5t52.5 -3.5v-1h2l-102 -724h-28l32 230q3 19 8 41l-2 1q-35 -66 -93 -103.5t-133 -37.5q-77 0 -118 42.5t-41 140.5q0 20 1.5 41.5t5.5 45.5q22 158 110.5 244.5t234.5 86.5zM207 14q45 0 84.5 16.5t71 47.5t53 76t29.5 101l44 308q-23 2 -46.5 4
t-51.5 2q-68 0 -121.5 -21t-92.5 -61t-63.5 -96.5t-34.5 -128.5q-4 -24 -5.5 -45t-1.5 -40q0 -87 34.5 -125t100.5 -38z" />
    <glyph glyph-name="r" unicode="r" horiz-adv-x="421" 
d="M352 592q20 0 37 -3.5t30 -8.5l-7 -25q-28 11 -65 11q-41 0 -79.5 -18.5t-69.5 -54.5t-53.5 -89.5t-32.5 -123.5l-39 -280h-28l81 582l25 4l-15 -128q-2 -10 -3 -20t-3 -20l2 -1q19 47 43.5 80t53 54t60 31t63.5 10z" />
    <glyph glyph-name="s" unicode="s" horiz-adv-x="487" 
d="M291 593q36 0 77 -9.5t71 -27.5l-13 -21q-31 17 -68 25.5t-72 8.5q-38 0 -69 -9.5t-53.5 -26t-35 -39.5t-12.5 -50q0 -34 21.5 -55.5t53.5 -37.5t69.5 -30t69.5 -33t53.5 -45.5t21.5 -67.5t-14.5 -74.5t-42 -57.5t-67 -37.5t-89.5 -13.5q-52 0 -98.5 17.5t-73.5 46.5
l15 21q27 -29 69.5 -44.5t90.5 -15.5q44 0 77.5 12t56.5 32.5t34.5 48t11.5 58.5q0 37 -21.5 61.5t-53.5 42t-69.5 31.5t-69.5 32t-53.5 42t-21.5 62q0 37 14.5 65.5t41.5 48t64.5 30t84.5 10.5z" />
    <glyph glyph-name="t" unicode="t" horiz-adv-x="405" 
d="M78 585h94l29 165l23 8l-24 -173h182l-6 -21h-179l-55 -393q-2 -16 -3.5 -30t-1.5 -26q0 -53 20.5 -76t58.5 -23q26 0 50 9t46 24l8 -17q-24 -17 -49.5 -28t-60.5 -11q-51 0 -76.5 26t-25.5 89q0 14 1.5 29.5t3.5 33.5l55 393h-96z" />
    <glyph glyph-name="u" unicode="u" horiz-adv-x="573" 
d="M462 177q-13 -87 -69.5 -138t-158.5 -51q-91 0 -134.5 40.5t-43.5 111.5q0 17 3 37l57 405l30 4l-57 -407q-3 -18 -3 -34q0 -63 38.5 -96.5t113.5 -33.5q85 0 135 42t61 122l57 405h29z" />
    <glyph glyph-name="v" unicode="v" horiz-adv-x="572" 
d="M492 593q11 -28 16.5 -55.5t5.5 -62.5q0 -76 -17.5 -142t-45.5 -120t-62.5 -95.5t-68.5 -70t-64 -43t-49 -14.5q-23 0 -46 17t-41.5 50t-30 83t-11.5 116q0 26 1.5 54t6.5 59l30 213l30 4l-31 -217q-5 -31 -6.5 -58.5t-1.5 -53.5q0 -61 10 -106t25 -75t33.5 -45t35.5 -15
q16 0 43 14.5t57.5 42.5t61.5 68t56 90t40.5 110t15.5 128q0 32 -4.5 59t-13.5 53z" />
    <glyph glyph-name="w" unicode="w" horiz-adv-x="867" 
d="M787 593q11 -28 16.5 -55.5t5.5 -62.5q0 -76 -16 -142t-41 -120t-56.5 -95.5t-62.5 -70t-58.5 -43t-45.5 -14.5q-20 0 -41 15.5t-38 48t-27.5 81t-10.5 114.5v8q0 4 1 9h-1q-23 -71 -55.5 -123t-65.5 -86t-61 -50.5t-43 -16.5q-20 0 -39.5 17t-35.5 49.5t-25.5 80.5
t-9.5 111q0 55 9 121l30 213l30 4l-31 -217q-5 -34 -7 -64.5t-2 -57.5q0 -58 8 -101t21 -72t28.5 -43.5t29.5 -14.5t46 25t68 73t67.5 118t44.5 160l27 192h29l-30 -214q-9 -66 -9 -120q0 -58 9 -102t23 -73t31.5 -44t34.5 -15q11 0 34 14t50.5 40.5t56 65.5t52 89.5
t38.5 111.5t15 132q0 32 -4.5 59t-13.5 53z" />
    <glyph glyph-name="x" unicode="x" horiz-adv-x="579" 
d="M291 246q-11 18 -20 37h-2q-5 -7 -15 -18.5t-14 -15.5l-212 -249h-39l267 306l-159 278l33 3l124 -224q5 -9 10.5 -19t10.5 -19h3q5 7 14.5 18t13.5 16l190 225h36l-240 -282l170 -302h-38z" />
    <glyph glyph-name="y" unicode="y" horiz-adv-x="563" 
d="M523 584q-32 -110 -75 -216.5t-98.5 -201.5t-123 -174t-147.5 -134l-14 21q31 23 55.5 44t46 41.5t40 42.5t37.5 47l-173 529l29 2l151 -469q3 -10 6 -19.5t5 -19.5h2q66 94 125.5 218.5t104.5 288.5h29z" />
    <glyph glyph-name="z" unicode="z" horiz-adv-x="546" 
d="M92 56q-12 -15 -26 -29l1 -2h359l-5 -25h-391l2 19l409 511q12 15 26 29l-1 2h-345l6 23h375l-3 -21z" />
    <glyph glyph-name="braceleft" unicode="{" horiz-adv-x="353" 
d="M240 441q-5 -36 -26.5 -62.5t-57.5 -34.5v-2q29 -7 43.5 -28t14.5 -50v-9q0 -4 -1 -9q-5 -37 -12.5 -67.5t-15 -60t-15 -60t-12.5 -67.5q-1 -5 -1.5 -10t-0.5 -10q0 -33 23 -50t81 -17h26l-4 -25h-24q-71 0 -101 22.5t-30 64.5q0 5 0.5 10.5t1.5 11.5q5 38 12.5 69
t16 60.5t16 60.5t12.5 68q1 4 1 7v7q0 31 -20 51t-58 22l3 19q43 3 69.5 27t31.5 60q5 37 6.5 68t1.5 60.5t1.5 61t6.5 69.5q7 52 43.5 80t116.5 28h24l-4 -25h-26q-65 0 -92.5 -21.5t-33.5 -64.5q-5 -38 -6.5 -68t-2 -59t-2 -59.5t-6.5 -67.5z" />
    <glyph glyph-name="bar" unicode="|" horiz-adv-x="271" 
d="M123 820h23v-997h-23v997z" />
    <glyph glyph-name="braceright" unicode="}" horiz-adv-x="353" 
d="M108 246q5 35 26.5 61.5t58.5 34.5v2q-31 7 -45 28.5t-14 50.5v9q0 4 1 9q5 37 12.5 67.5t15 59.5t15 59t12.5 68q1 5 1 10v10q0 33 -23 49.5t-81 16.5h-25l4 25h25q71 0 100.5 -22.5t29.5 -64.5v-11q0 -5 -1 -10q-6 -38 -14 -69.5t-16 -61t-16 -60.5t-13 -68
q-1 -5 -1 -14q0 -31 21 -51t59 -22l-3 -19q-43 -2 -70.5 -26.5t-32.5 -60.5q-5 -38 -6 -69.5t-1 -60.5q0 -30 -1 -60.5t-6 -67.5q-8 -53 -44.5 -81t-115.5 -28h-24l4 25h24q66 0 93.5 22t33.5 65q5 37 6.5 67.5t2 60t2 60t6.5 67.5z" />
    <glyph glyph-name="asciitilde" unicode="~" horiz-adv-x="660" 
d="M167 665q12 47 38 71.5t73 24.5q27 0 52.5 -12t50 -26.5t49 -26.5t49.5 -12q38 0 57.5 16t30.5 51h23q-25 -95 -111 -95q-27 0 -52.5 12t-50.5 26.5t-49.5 26.5t-48.5 12q-35 0 -55.5 -16.5t-31.5 -51.5h-24z" />
    <glyph glyph-name="uni00A0" unicode="&#xa0;" horiz-adv-x="385" 
 />
    <glyph glyph-name="exclamdown" unicode="&#xa1;" horiz-adv-x="303" 
d="M181 489l-82 -625h-33l95 625h20zM196 676q29 0 29 -24q0 -17 -11.5 -25t-26.5 -8q-27 0 -27 21q0 36 36 36z" />
    <glyph glyph-name="cent" unicode="&#xa2;" horiz-adv-x="660" 
d="M390 593l27 140h26l-27 -141q31 -2 59.5 -9.5t54.5 -22.5l-12 -21q-32 14 -61 21.5t-72 7.5q-105 0 -163 -69t-78 -208q-4 -27 -5.5 -50.5t-1.5 -44.5q0 -51 10.5 -85.5t30.5 -56t48.5 -30.5t65.5 -9q52 0 92 17t75 49l10 -19q-32 -29 -69.5 -47t-85.5 -23l-27 -150h-26
l27 149h-3q-87 0 -132.5 47t-45.5 156q0 22 2 46.5t6 51.5q42 301 274 301h1z" />
    <glyph glyph-name="sterling" unicode="&#xa3;" horiz-adv-x="660" 
d="M104 392h55q-3 29 -6 55t-3 55q0 50 13.5 96.5t45.5 82t84.5 56.5t130.5 21q54 0 102.5 -12.5t83.5 -33.5l-12 -25q-29 20 -76 33t-99 13q-69 0 -116 -18.5t-75.5 -50t-41 -73.5t-12.5 -88q0 -28 3 -55t6 -56h286l-4 -25h-280q1 -15 1.5 -30t0.5 -31q0 -106 -30.5 -176
t-84.5 -107l1 -2q28 4 55 7t55.5 4.5t60.5 2t71 0.5q60 0 120.5 -4t116.5 -10l-6 -26q-34 3 -64.5 6t-59.5 5t-58.5 3t-61.5 1q-36 0 -70 -1t-68 -3t-69.5 -4.5t-75.5 -6.5l1 22q39 17 65.5 47.5t43 69.5t24 83.5t7.5 89.5q0 17 -1 31.5t-2 28.5h-59z" />
    <glyph glyph-name="currency" unicode="&#xa4;" horiz-adv-x="660" 
d="M350 519q31 0 56.5 -10.5t45.5 -29.5l76 66l16 -17l-77 -67q11 -17 17.5 -38t6.5 -44q0 -35 -15 -66.5t-38 -56.5l57 -67l-20 -18l-57 67q-25 -19 -53.5 -29.5t-59.5 -10.5q-61 0 -99 38l-74 -65l-16 18l74 65q-25 34 -25 80q0 37 14 69.5t40 58.5l-54 65l19 18l55 -65
q23 19 52 29t59 10zM347 495q-31 0 -59.5 -12.5t-50.5 -34t-35 -50t-13 -59.5q0 -25 9 -46.5t25 -37t38 -24t48 -8.5q31 0 59 12t50 33t35 49t13 60q0 51 -33 84.5t-86 33.5z" />
    <glyph glyph-name="yen" unicode="&#xa5;" horiz-adv-x="660" 
d="M304 311l-193 439h36l165 -384q4 -9 8 -19t7 -19h2q5 8 10.5 17t11.5 17l275 388h34l-312 -439h127l-3 -25h-134l-9 -63h135l-4 -24h-135l-27 -199h-29l27 199h-142l4 24h142l9 63h-142l3 25h134z" />
    <glyph glyph-name="brokenbar" unicode="&#xa6;" horiz-adv-x="271" 
d="M123 820h23v-445h-23v445zM123 281h23v-456h-23v456z" />
    <glyph glyph-name="section" unicode="&#xa7;" horiz-adv-x="554" 
d="M356 797q49 0 95.5 -13.5t77.5 -39.5l-10 -23q-35 27 -77 40t-90 13q-87 0 -136 -35.5t-49 -95.5q0 -34 24.5 -59.5t61 -48t79 -44t79 -48t61 -60.5t24.5 -81q0 -23 -7.5 -48t-24.5 -48t-43.5 -42t-65.5 -31v-2q36 -23 60 -50.5t24 -65.5q0 -36 -15 -65.5t-43 -50
t-68.5 -32t-90.5 -11.5q-49 0 -95 14t-76 40l9 23q34 -28 76.5 -40.5t89.5 -12.5q87 0 136 35t49 96q0 34 -24.5 59.5t-60.5 48t-79 44t-79 48t-60.5 60.5t-24.5 81q0 22 7 47t23 48.5t42.5 43t65.5 31.5v2q-36 23 -59.5 49.5t-23.5 64.5q0 35 15 64.5t43.5 50.5t69 32.5
t90.5 11.5zM248 507q-72 -20 -104.5 -62t-32.5 -87q0 -39 20.5 -69t52.5 -54t70.5 -45t74.5 -43q37 10 63 26.5t42.5 36t24 42t7.5 44.5q0 34 -13 59.5t-40 49t-68 47.5t-97 55z" />
    <glyph glyph-name="dieresis" unicode="&#xa8;" horiz-adv-x="346" 
d="M170 791q21 0 21 -22q0 -18 -8.5 -25t-20.5 -7q-20 0 -20 18q0 16 7.5 26t20.5 10zM309 791q20 0 20 -22q0 -18 -8.5 -25t-19.5 -7q-22 0 -22 19q0 16 8 25.5t22 9.5z" />
    <glyph glyph-name="copyright" unicode="&#xa9;" horiz-adv-x="942" 
d="M530 773q74 0 137 -26t108.5 -71.5t71 -107t25.5 -133.5q0 -91 -38 -172.5t-101 -143t-144.5 -97.5t-168.5 -36q-75 0 -138 26t-109 71.5t-71.5 107.5t-25.5 134q0 90 37.5 171.5t100.5 143t145 97.5t171 36zM526 752q-84 0 -161.5 -34.5t-136.5 -92.5t-94 -134.5
t-35 -160.5q0 -67 23.5 -126t65.5 -103t101.5 -69.5t131.5 -25.5q83 0 161 34t138 92.5t96 136t36 164.5q0 67 -24.5 125t-68 101t-103 68t-130.5 25zM521 637q45 0 81 -12t56 -26l-8 -24q-24 17 -59.5 27t-70.5 10q-60 0 -109 -21t-84 -57.5t-54 -86.5t-19 -107
q0 -44 13.5 -80.5t39 -62.5t62.5 -41t85 -15q45 0 84.5 13.5t74.5 36.5l2 -22q-32 -21 -75.5 -36.5t-89.5 -15.5q-52 0 -93.5 15.5t-71 44t-45 69t-15.5 89.5q0 58 20 112.5t58.5 96.5t93.5 67.5t124 25.5z" />
    <glyph glyph-name="ordfeminine" unicode="&#xaa;" horiz-adv-x="424" 
d="M330 816q28 0 49.5 -3t36.5 -3h2l-55 -391h-23l5 44q2 22 6 41l-2 1q-24 -44 -62 -68t-88 -24q-57 0 -85 29.5t-28 94.5q0 63 16.5 114.5t48 88t77 56.5t102.5 20zM205 437q61 0 103.5 42t53.5 115l28 197q-14 1 -29 2.5t-30 1.5q-52 0 -92.5 -18.5t-68 -51.5t-42 -79.5
t-14.5 -103.5q0 -55 23 -80t68 -25z" />
    <glyph glyph-name="guillemotleft" unicode="&#xab;" horiz-adv-x="597" 
d="M244 333l212 -143l-4 -27l-244 167l1 6l291 166l-4 -26zM64 333l212 -143l-4 -27l-244 167l1 6l291 166l-4 -26z" />
    <glyph glyph-name="logicalnot" unicode="&#xac;" horiz-adv-x="660" 
d="M129 329v28h400v-190h-26v162h-374z" />
    <glyph glyph-name="uni00AD" unicode="&#xad;" horiz-adv-x="423" 
d="M331 350l-3 -22h-241l3 22h241z" />
    <glyph glyph-name="registered" unicode="&#xae;" horiz-adv-x="459" 
d="M297 839q31 0 57 -11t45 -30t30 -45.5t11 -56.5q0 -38 -16 -71.5t-42 -59.5t-60.5 -41t-70.5 -15q-32 0 -58.5 11t-45.5 30t-30 44.5t-11 55.5q0 38 16 72.5t42.5 60.5t61 41t71.5 15zM296 823q-34 0 -65 -13.5t-55 -36.5t-38.5 -53.5t-14.5 -65.5q0 -28 9.5 -52
t27 -41.5t41.5 -27.5t53 -10q33 0 63.5 14t54.5 37.5t38 55t14 66.5q0 27 -9.5 50.5t-26.5 40.5t-40.5 26.5t-51.5 9.5zM300 777q33 0 46.5 -12.5t13.5 -33.5q0 -23 -14.5 -41t-40.5 -23l45 -88h-24l-41 87h-61l-12 -87h-19l28 198h79zM226 683h67q23 0 35.5 13t12.5 33
q0 15 -10 23t-33 8h-61z" />
    <glyph glyph-name="macron" unicode="&#xaf;" horiz-adv-x="358" 
d="M356 739h-242l3 21h242z" />
    <glyph glyph-name="degree" unicode="&#xb0;" horiz-adv-x="362" 
d="M112 698q3 24 15 45.5t30 37.5t40.5 25.5t47.5 9.5q45 0 73.5 -29t28.5 -73q0 -25 -11 -49t-30 -42.5t-43 -29.5t-51 -11q-45 0 -73 29.5t-28 70.5v8q0 4 1 8zM134 698q-1 -3 -1 -7v-6q0 -34 22.5 -57.5t59.5 -23.5q21 0 41 8.5t35 23t24.5 34t9.5 41.5q0 36 -23.5 60
t-59.5 24q-21 0 -39.5 -8t-33 -21t-23.5 -31t-12 -37z" />
    <glyph glyph-name="plusminus" unicode="&#xb1;" horiz-adv-x="660" 
d="M340 354v-183h-27v183h-195v26h195v200h27v-200h200v-26h-200zM117 99v24h421v-24h-421z" />
    <glyph glyph-name="twosuperior" unicode="&#xb2;" horiz-adv-x="331" 
d="M246 906q54 0 81.5 -22.5t27.5 -62.5q0 -36 -18.5 -70.5t-51 -70t-77.5 -71.5t-98 -75v-3h211l-4 -24h-249l2 20q47 40 93 77.5t82 73.5t58.5 70.5t22.5 67.5q0 28 -19.5 47t-69.5 19q-31 0 -59 -11.5t-52 -29.5l-5 22q24 17 56 30t69 13z" />
    <glyph glyph-name="threesuperior" unicode="&#xb3;" horiz-adv-x="331" 
d="M249 906q52 0 81 -19.5t29 -58.5q0 -50 -28 -74.5t-67 -32.5v-2q38 -6 58.5 -23.5t20.5 -52.5q0 -62 -40.5 -101.5t-114.5 -39.5q-39 0 -63.5 7.5t-50.5 24.5l12 22q20 -15 45.5 -23t59.5 -8q63 0 94.5 34t31.5 82q0 37 -29.5 52t-96.5 15l3 23q72 0 105.5 23t33.5 68
q0 30 -25 45t-63 15q-35 0 -62 -10t-51 -29l-7 20q21 17 53.5 30t70.5 13z" />
    <glyph glyph-name="acute" unicode="&#xb4;" horiz-adv-x="392" 
d="M368 810l-126 -141h-28l106 141h48z" />
    <glyph glyph-name="mu" unicode="&#xb5;" horiz-adv-x="612" 
d="M213 -7q-21 0 -42 4t-39 13.5t-32 26t-21 41.5h-2q-6 -59 -11 -112.5t-10 -106.5l-32 -4l103 729h27l-57 -405q-3 -24 -3 -43q0 -121 122 -121q42 0 82.5 14.5t74.5 42t57.5 66.5t30.5 88l51 358h27l-82 -584l-22 -3l10 92q2 22 6 41l-2 1q-17 -33 -43 -58.5t-57 -43
t-66 -27t-70 -9.5z" />
    <glyph glyph-name="paragraph" unicode="&#xb6;" horiz-adv-x="625" 
d="M128 -142l93 667q-56 1 -87.5 26t-31.5 70q0 54 39 91.5t114 37.5h362l-5 -27h-79l-121 -865h-30l121 865h-225l-121 -865h-29z" />
    <glyph glyph-name="periodcentered" unicode="&#xb7;" horiz-adv-x="270" 
d="M139 372q26 0 26 -24q0 -18 -9.5 -27.5t-25.5 -9.5q-29 0 -29 22q0 39 38 39z" />
    <glyph glyph-name="cedilla" unicode="&#xb8;" horiz-adv-x="392" 
d="M151 -3h24l-68 -190h-38z" />
    <glyph glyph-name="onesuperior" unicode="&#xb9;" horiz-adv-x="258" 
d="M200 507h-27l44 315q2 10 3.5 21.5t4.5 20.5l-2 2q-8 -6 -16.5 -12.5t-16.5 -11.5l-71 -46l1 26l116 82h19z" />
    <glyph glyph-name="ordmasculine" unicode="&#xba;" horiz-adv-x="423" 
d="M402 614q-8 -56 -22.5 -94.5t-36.5 -62.5t-52.5 -34.5t-70.5 -10.5q-66 0 -98 30.5t-32 103.5q0 15 1 32t4 36q8 55 22.5 93.5t36.5 62.5t52.5 35t70.5 11q67 0 99 -30.5t32 -102.5q0 -30 -6 -69zM124 614q-2 -18 -3.5 -34.5t-1.5 -30.5q0 -61 25 -86.5t80 -25.5
q33 0 58.5 9.5t43.5 30.5t29.5 55t18.5 82q2 18 3.5 34.5t1.5 30.5q0 62 -25.5 87t-79.5 25q-34 0 -59 -9.5t-43 -30.5t-29.5 -54.5t-18.5 -82.5z" />
    <glyph glyph-name="guillemotright" unicode="&#xbb;" horiz-adv-x="597" 
d="M250 190l252 143l-212 143l4 26l244 -166l-1 -6l-291 -167zM70 190l252 143l-212 143l4 26l244 -166l-1 -6l-291 -167z" />
    <glyph glyph-name="onequarter" unicode="&#xbc;" horiz-adv-x="878" 
d="M179 355h-27l44 315q2 10 3.5 21.5t4.5 20.5l-2 2q-8 -6 -16.5 -12.5t-16.5 -11.5l-71 -46l1 26l116 82h19zM730 750l-617 -750h-29l619 750h27zM765 95l-13 -95h-25l13 95h-208l-1 17l242 282h34l-39 -278h54l-4 -21h-53zM775 331l8 40l-2 2q-6 -8 -13 -16.5t-13 -16.5
l-164 -193q-7 -8 -13.5 -15t-13.5 -14l1 -2h178z" />
    <glyph glyph-name="onehalf" unicode="&#xbd;" horiz-adv-x="857" 
d="M179 355h-27l44 315q2 10 3.5 21.5t4.5 20.5l-2 2q-8 -6 -16.5 -12.5t-16.5 -11.5l-71 -46l1 26l116 82h19zM730 750l-617 -750h-29l619 750h27zM701 399q54 0 81.5 -22.5t27.5 -62.5q0 -36 -18.5 -70.5t-51 -70t-77.5 -71.5t-98 -75v-3h211l-4 -24h-249l2 20
q47 40 93 77.5t82 73.5t58.5 70.5t22.5 67.5q0 28 -19.5 47t-69.5 19q-31 0 -59 -11.5t-52 -29.5l-5 22q24 17 56 30t69 13z" />
    <glyph glyph-name="threequarters" unicode="&#xbe;" horiz-adv-x="951" 
d="M228 754q52 0 81 -19.5t29 -58.5q0 -50 -28 -74.5t-67 -32.5v-2q38 -6 58.5 -23.5t20.5 -52.5q0 -62 -40.5 -101.5t-114.5 -39.5q-39 0 -63.5 7.5t-50.5 24.5l12 22q20 -15 45.5 -23t59.5 -8q63 0 94.5 34t31.5 82q0 37 -29.5 52t-96.5 15l3 23q72 0 105.5 23t33.5 68
q0 30 -25 45t-63 15q-35 0 -62 -10t-51 -29l-7 20q21 17 53.5 30t70.5 13zM803 750l-617 -750h-29l619 750h27zM838 95l-13 -95h-25l13 95h-208l-1 17l242 282h34l-39 -278h54l-4 -21h-53zM848 331l8 40l-2 2q-6 -8 -13 -16.5t-13 -16.5l-164 -193q-7 -8 -13.5 -15
t-13.5 -14l1 -2h178z" />
    <glyph glyph-name="questiondown" unicode="&#xbf;" horiz-adv-x="491" 
d="M188 -102q-170 0 -170 133q0 49 16.5 90t46.5 76.5t73 66.5t97 60l24 158h26l-21 -171q-54 -33 -97 -63.5t-72.5 -63t-45.5 -68.5t-16 -80q0 -60 39 -86t105 -26q64 0 116.5 23.5t98.5 61.5l11 -20q-42 -39 -101 -65t-130 -26zM312 672q30 0 30 -24q0 -18 -10.5 -27
t-27.5 -9q-29 0 -29 23q0 20 10 28.5t27 8.5z" />
    <glyph glyph-name="Agrave" unicode="&#xc0;" horiz-adv-x="687" 
d="M517 219h-387l-115 -219h-33l400 750h35l188 -750h-34zM394 722q-4 -9 -8.5 -18t-9.5 -18l-232 -441h367l-107 437l-8 40h-2zM392 800l-96 113h47l76 -113h-27z" />
    <glyph glyph-name="Aacute" unicode="&#xc1;" horiz-adv-x="687" 
d="M517 219h-387l-115 -219h-33l400 750h35l188 -750h-34zM394 722q-4 -9 -8.5 -18t-9.5 -18l-232 -441h367l-107 437l-8 40h-2zM538 912l-136 -112h-28l112 112h52z" />
    <glyph glyph-name="Acircumflex" unicode="&#xc2;" horiz-adv-x="687" 
d="M517 219h-387l-115 -219h-33l400 750h35l188 -750h-34zM394 722q-4 -9 -8.5 -18t-9.5 -18l-232 -441h367l-107 437l-8 40h-2zM418 913l111 -113h-39l-89 96l-113 -96h-38l138 113h30z" />
    <glyph glyph-name="Atilde" unicode="&#xc3;" horiz-adv-x="687" 
d="M517 219h-387l-115 -219h-33l400 750h35l188 -750h-34zM394 722q-4 -9 -8.5 -18t-9.5 -18l-232 -441h367l-107 437l-8 40h-2zM284 803q12 38 32 63t49 25q18 0 31.5 -13t25.5 -29t23.5 -29t26.5 -13q33 0 55 67h19q-11 -38 -30 -62.5t-48 -24.5q-18 0 -31.5 13t-25.5 28
t-24 28t-27 13q-18 0 -31.5 -18.5t-24.5 -47.5h-20z" />
    <glyph glyph-name="Adieresis" unicode="&#xc4;" horiz-adv-x="687" 
d="M517 219h-387l-115 -219h-33l400 750h35l188 -750h-34zM394 722q-4 -9 -8.5 -18t-9.5 -18l-232 -441h367l-107 437l-8 40h-2zM320 868q21 0 21 -22q0 -17 -8.5 -24.5t-19.5 -7.5q-21 0 -21 19q0 35 28 35zM505 868q21 0 21 -21q0 -17 -8 -25t-20 -8q-21 0 -21 19
q0 35 28 35z" />
    <glyph glyph-name="Aring" unicode="&#xc5;" horiz-adv-x="687" 
d="M415 867q26 0 42 -14t16 -37q0 -26 -15.5 -44.5t-40.5 -23.5l188 -748h-34l-54 219h-387l-115 -219h-33l398 747q-18 5 -28.5 17t-10.5 31q0 29 21.5 50.5t52.5 21.5zM394 722q-4 -9 -8.5 -18t-9.5 -18l-232 -441h367l-107 437l-8 40h-2zM412 849q-22 0 -37 -14.5
t-15 -34.5q0 -17 10.5 -27t29.5 -10q23 0 37.5 14.5t14.5 36.5q0 15 -10.5 25t-29.5 10z" />
    <glyph glyph-name="AE" unicode="&#xc6;" horiz-adv-x="1047" 
d="M595 723v-314h330l-4 -26h-326v-356h345l-5 -27h-369v219h-354l-155 -219h-38l538 750h474l-2 -27h-434zM566 722q-5 -9 -10.5 -18t-11.5 -17l-313 -442h335v435q0 11 0.5 21t1.5 20z" />
    <glyph glyph-name="Ccedilla" unicode="&#xc7;" horiz-adv-x="618" 
d="M316 -13q-126 5 -185 70t-59 202q0 29 2.5 59.5t7.5 65.5q14 100 42 172t72.5 117.5t105.5 67t140 21.5q24 0 48.5 -3t47 -8.5t42 -12.5t32.5 -15l-11 -26q-29 16 -71.5 27t-90.5 11q-69 0 -123 -18t-94.5 -59t-67.5 -108t-41 -166q-5 -35 -7.5 -66t-2.5 -58
q0 -69 15 -116t45 -76t74.5 -41.5t102.5 -12.5q50 0 93.5 11.5t80.5 30.5l4 -23q-33 -18 -80.5 -31t-96.5 -15l-65 -180h-38z" />
    <glyph glyph-name="Egrave" unicode="&#xc8;" horiz-adv-x="630" 
d="M524 27l-5 -27h-444l105 750h425l-2 -27h-398l-44 -313h348l-4 -27h-348l-50 -356h417zM403 800l-96 113h47l76 -113h-27z" />
    <glyph glyph-name="Eacute" unicode="&#xc9;" horiz-adv-x="630" 
d="M524 27l-5 -27h-444l105 750h425l-2 -27h-398l-44 -313h348l-4 -27h-348l-50 -356h417zM516 912l-136 -112h-28l112 112h52z" />
    <glyph glyph-name="Ecircumflex" unicode="&#xca;" horiz-adv-x="630" 
d="M524 27l-5 -27h-444l105 750h425l-2 -27h-398l-44 -313h348l-4 -27h-348l-50 -356h417zM433 913l111 -113h-39l-89 96l-113 -96h-38l138 113h30z" />
    <glyph glyph-name="Edieresis" unicode="&#xcb;" horiz-adv-x="630" 
d="M524 27l-5 -27h-444l105 750h425l-2 -27h-398l-44 -313h348l-4 -27h-348l-50 -356h417zM314 868q21 0 21 -22q0 -17 -8.5 -24.5t-19.5 -7.5q-21 0 -21 19q0 35 28 35zM499 868q21 0 21 -21q0 -17 -8 -25t-20 -8q-21 0 -21 19q0 35 28 35z" />
    <glyph glyph-name="Igrave" unicode="&#xcc;" horiz-adv-x="310" 
d="M195 750h30l-105 -750h-30zM218 800l-96 113h47l76 -113h-27z" />
    <glyph glyph-name="Iacute" unicode="&#xcd;" horiz-adv-x="310" 
d="M195 750h30l-105 -750h-30zM352 912l-136 -112h-28l112 112h52z" />
    <glyph glyph-name="Icircumflex" unicode="&#xce;" horiz-adv-x="310" 
d="M195 750h30l-105 -750h-30zM250 913l111 -113h-39l-89 96l-113 -96h-38l138 113h30z" />
    <glyph glyph-name="Idieresis" unicode="&#xcf;" horiz-adv-x="310" 
d="M195 750h30l-105 -750h-30zM133 868q21 0 21 -22q0 -17 -8.5 -24.5t-19.5 -7.5q-21 0 -21 19q0 35 28 35zM318 868q21 0 21 -21q0 -17 -8 -25t-20 -8q-21 0 -21 19q0 35 28 35z" />
    <glyph glyph-name="Eth" unicode="&#xd0;" horiz-adv-x="750" 
d="M418 750q136 0 200 -59.5t64 -195.5q0 -52 -9 -118q-14 -103 -42.5 -174.5t-72.5 -116.5t-105 -65.5t-140 -20.5h-233l53 384h-84l4 22h84l48 344h233zM167 406h129l-4 -22h-129l-50 -356h203q68 0 122.5 16.5t95 56.5t67.5 107.5t41 168.5q9 66 9 116q0 64 -14.5 107.5
t-44 70.5t-74.5 39t-105 12h-202z" />
    <glyph glyph-name="Ntilde" unicode="&#xd1;" horiz-adv-x="771" 
d="M572 0l-369 715h-2q0 -10 -1 -20.5t-3 -20.5l-94 -674h-28l105 750h39l356 -694h1l2 20q1 10 3 20l92 654h28l-105 -750h-24zM324 803q12 38 32 63t49 25q18 0 31.5 -13t25.5 -29t23.5 -29t26.5 -13q33 0 55 67h19q-11 -38 -30 -62.5t-48 -24.5q-18 0 -31.5 13t-25.5 28
t-24 28t-27 13q-18 0 -31.5 -18.5t-24.5 -47.5h-20z" />
    <glyph glyph-name="Ograve" unicode="&#xd2;" horiz-adv-x="736" 
d="M658 375q-15 -106 -40 -179.5t-65.5 -120t-98.5 -67.5t-137 -21q-65 0 -111.5 13.5t-76.5 43.5t-44.5 77.5t-14.5 114.5q0 31 3 65.5t8 73.5q15 106 41 180t67 120t99 66.5t138 20.5q64 0 110.5 -13.5t76 -42.5t43.5 -75.5t14 -112.5q0 -62 -12 -143zM628 375
q5 40 8 74.5t3 64.5q0 63 -13 105.5t-39.5 68.5t-67.5 37t-97 11q-69 0 -121 -17t-89 -58.5t-61 -111t-39 -174.5q-5 -39 -8 -73.5t-3 -63.5q0 -63 13 -106t40 -69.5t68.5 -37.5t97.5 -11q69 0 120.5 17.5t88 59t60.5 111t39 173.5zM443 800l-96 113h47l76 -113h-27z" />
    <glyph glyph-name="Oacute" unicode="&#xd3;" horiz-adv-x="736" 
d="M658 375q-15 -106 -40 -179.5t-65.5 -120t-98.5 -67.5t-137 -21q-65 0 -111.5 13.5t-76.5 43.5t-44.5 77.5t-14.5 114.5q0 31 3 65.5t8 73.5q15 106 41 180t67 120t99 66.5t138 20.5q64 0 110.5 -13.5t76 -42.5t43.5 -75.5t14 -112.5q0 -62 -12 -143zM628 375
q5 40 8 74.5t3 64.5q0 63 -13 105.5t-39.5 68.5t-67.5 37t-97 11q-69 0 -121 -17t-89 -58.5t-61 -111t-39 -174.5q-5 -39 -8 -73.5t-3 -63.5q0 -63 13 -106t40 -69.5t68.5 -37.5t97.5 -11q69 0 120.5 17.5t88 59t60.5 111t39 173.5zM551 912l-136 -112h-28l112 112h52z" />
    <glyph glyph-name="Ocircumflex" unicode="&#xd4;" horiz-adv-x="736" 
d="M658 375q-15 -106 -40 -179.5t-65.5 -120t-98.5 -67.5t-137 -21q-65 0 -111.5 13.5t-76.5 43.5t-44.5 77.5t-14.5 114.5q0 31 3 65.5t8 73.5q15 106 41 180t67 120t99 66.5t138 20.5q64 0 110.5 -13.5t76 -42.5t43.5 -75.5t14 -112.5q0 -62 -12 -143zM628 375
q5 40 8 74.5t3 64.5q0 63 -13 105.5t-39.5 68.5t-67.5 37t-97 11q-69 0 -121 -17t-89 -58.5t-61 -111t-39 -174.5q-5 -39 -8 -73.5t-3 -63.5q0 -63 13 -106t40 -69.5t68.5 -37.5t97.5 -11q69 0 120.5 17.5t88 59t60.5 111t39 173.5zM462 913l111 -113h-39l-89 96l-113 -96
h-38l138 113h30z" />
    <glyph glyph-name="Otilde" unicode="&#xd5;" horiz-adv-x="736" 
d="M658 375q-15 -106 -40 -179.5t-65.5 -120t-98.5 -67.5t-137 -21q-65 0 -111.5 13.5t-76.5 43.5t-44.5 77.5t-14.5 114.5q0 31 3 65.5t8 73.5q15 106 41 180t67 120t99 66.5t138 20.5q64 0 110.5 -13.5t76 -42.5t43.5 -75.5t14 -112.5q0 -62 -12 -143zM628 375
q5 40 8 74.5t3 64.5q0 63 -13 105.5t-39.5 68.5t-67.5 37t-97 11q-69 0 -121 -17t-89 -58.5t-61 -111t-39 -174.5q-5 -39 -8 -73.5t-3 -63.5q0 -63 13 -106t40 -69.5t68.5 -37.5t97.5 -11q69 0 120.5 17.5t88 59t60.5 111t39 173.5zM290 803q12 38 32 63t49 25
q18 0 31.5 -13t25.5 -29t23.5 -29t26.5 -13q33 0 55 67h19q-11 -38 -30 -62.5t-48 -24.5q-18 0 -31.5 13t-25.5 28t-24 28t-27 13q-18 0 -31.5 -18.5t-24.5 -47.5h-20z" />
    <glyph glyph-name="Odieresis" unicode="&#xd6;" horiz-adv-x="736" 
d="M658 375q-15 -106 -40 -179.5t-65.5 -120t-98.5 -67.5t-137 -21q-65 0 -111.5 13.5t-76.5 43.5t-44.5 77.5t-14.5 114.5q0 31 3 65.5t8 73.5q15 106 41 180t67 120t99 66.5t138 20.5q64 0 110.5 -13.5t76 -42.5t43.5 -75.5t14 -112.5q0 -62 -12 -143zM628 375
q5 40 8 74.5t3 64.5q0 63 -13 105.5t-39.5 68.5t-67.5 37t-97 11q-69 0 -121 -17t-89 -58.5t-61 -111t-39 -174.5q-5 -39 -8 -73.5t-3 -63.5q0 -63 13 -106t40 -69.5t68.5 -37.5t97.5 -11q69 0 120.5 17.5t88 59t60.5 111t39 173.5zM347 868q21 0 21 -22q0 -17 -8.5 -24.5
t-19.5 -7.5q-21 0 -21 19q0 35 28 35zM532 868q21 0 21 -21q0 -17 -8 -25t-20 -8q-21 0 -21 19q0 35 28 35z" />
    <glyph glyph-name="multiply" unicode="&#xd7;" 
d="M460 161l-163 163l-164 -163l-17 17l163 164l-162 162l18 18l162 -162l161 162l18 -19l-162 -161l162 -164z" />
    <glyph glyph-name="Oslash" unicode="&#xd8;" horiz-adv-x="737" 
d="M19 8l76 87q-25 54 -25 144q0 30 3 64t8 72q15 106 41 179.5t67 119.5t99 67t138 21q83 0 135.5 -22t78.5 -72l89 91l18 -18l-95 -99q18 -53 18 -128q0 -31 -3 -65.5t-8 -73.5q-15 -106 -40.5 -179.5t-66 -120t-98 -67.5t-137.5 -21q-78 0 -129.5 20t-80.5 64l-72 -83z
M614 645q-24 48 -71 68t-121 20q-68 0 -119 -17t-88 -58t-61 -110t-39 -173q-5 -38 -8 -71.5t-3 -62.5q0 -36 4 -66t14 -55zM626 375q12 79 12 138q0 32 -3.5 58.5t-8.5 48.5l-494 -525q25 -43 72 -61t117 -18q69 0 119.5 17.5t87 59t60.5 110.5t38 172z" />
    <glyph glyph-name="Ugrave" unicode="&#xd9;" horiz-adv-x="748" 
d="M629 272q-11 -77 -37 -131.5t-65 -88.5t-91 -49.5t-114 -15.5q-54 0 -97 12t-73 37.5t-46 66.5t-16 98q0 17 1 34t4 37l67 478h29l-67 -478q-2 -18 -3.5 -34.5t-1.5 -31.5q0 -100 51.5 -146t154.5 -46q119 0 187.5 62t87.5 196l67 478h29zM443 800l-96 113h47l76 -113
h-27z" />
    <glyph glyph-name="Uacute" unicode="&#xda;" horiz-adv-x="748" 
d="M629 272q-11 -77 -37 -131.5t-65 -88.5t-91 -49.5t-114 -15.5q-54 0 -97 12t-73 37.5t-46 66.5t-16 98q0 17 1 34t4 37l67 478h29l-67 -478q-2 -18 -3.5 -34.5t-1.5 -31.5q0 -100 51.5 -146t154.5 -46q119 0 187.5 62t87.5 196l67 478h29zM555 912l-136 -112h-28l112 112
h52z" />
    <glyph glyph-name="Ucircumflex" unicode="&#xdb;" horiz-adv-x="748" 
d="M629 272q-11 -77 -37 -131.5t-65 -88.5t-91 -49.5t-114 -15.5q-54 0 -97 12t-73 37.5t-46 66.5t-16 98q0 17 1 34t4 37l67 478h29l-67 -478q-2 -18 -3.5 -34.5t-1.5 -31.5q0 -100 51.5 -146t154.5 -46q119 0 187.5 62t87.5 196l67 478h29zM466 913l111 -113h-39l-89 96
l-113 -96h-38l138 113h30z" />
    <glyph glyph-name="Udieresis" unicode="&#xdc;" horiz-adv-x="748" 
d="M629 272q-11 -77 -37 -131.5t-65 -88.5t-91 -49.5t-114 -15.5q-54 0 -97 12t-73 37.5t-46 66.5t-16 98q0 17 1 34t4 37l67 478h29l-67 -478q-2 -18 -3.5 -34.5t-1.5 -31.5q0 -100 51.5 -146t154.5 -46q119 0 187.5 62t87.5 196l67 478h29zM351 868q21 0 21 -22
q0 -17 -8.5 -24.5t-19.5 -7.5q-21 0 -21 19q0 35 28 35zM536 868q21 0 21 -21q0 -17 -8 -25t-20 -8q-21 0 -21 19q0 35 28 35z" />
    <glyph glyph-name="Yacute" unicode="&#xdd;" horiz-adv-x="642" 
d="M130 750l169 -409q4 -9 7.5 -19t6.5 -19h2q5 8 10.5 17t11.5 17l287 413h35l-334 -477l-38 -273h-30l38 273l-202 477h37zM503 912l-136 -112h-28l112 112h52z" />
    <glyph glyph-name="Thorn" unicode="&#xde;" horiz-adv-x="639" 
d="M360 600q121 0 176 -36.5t55 -121.5q0 -11 -1 -23.5t-3 -26.5q-14 -112 -80.5 -164t-206.5 -52h-172l-24 -176h-29l105 750h29l-21 -150h172zM132 204h172q58 0 102.5 9.5t75.5 32t49.5 58.5t26.5 89q3 22 3 41q0 76 -49.5 108t-155.5 32h-172z" />
    <glyph glyph-name="germandbls" unicode="&#xdf;" horiz-adv-x="610" 
d="M135 520q16 115 77.5 179t165.5 64q58 0 94 -28t36 -70v-7q0 -3 -1 -6q-4 -31 -21 -56.5t-39.5 -47.5t-47.5 -40t-46 -34t-35 -30t-14 -27q0 -15 16.5 -28.5t41.5 -27t54.5 -30t54.5 -38t41.5 -49.5t16.5 -65q0 -44 -18 -78.5t-49 -58.5t-73.5 -37t-90.5 -13
q-43 0 -89 11t-75 37l9 27q29 -25 69.5 -37t85.5 -12q41 0 77.5 10.5t64 30.5t43.5 49t16 67q0 35 -17 60.5t-42.5 45t-55 35t-55 30t-42.5 30.5t-17 36t15.5 38t39 36t50.5 36.5t50.5 39.5t39 45.5t15.5 53.5q0 33 -28.5 54.5t-77.5 21.5q-88 0 -141 -54.5t-68 -160.5
l-62 -424q-9 -60 -25.5 -102t-43 -70.5t-63.5 -45t-86 -25.5v21q43 8 75 23t55 40.5t37.5 64t22.5 94.5z" />
    <glyph glyph-name="agrave" unicode="&#xe0;" horiz-adv-x="583" 
d="M395 592q36 0 63.5 -3t49.5 -4h12l-82 -585h-24l10 91q2 22 6 41l-2 1q-35 -67 -93 -104.5t-133 -37.5q-77 0 -118 42.5t-41 140.5q0 20 1.5 41.5t5.5 45.5q22 158 110.5 244.5t234.5 86.5zM207 14q44 0 83.5 15.5t71 45t53 72.5t29.5 97l45 319q-23 2 -46.5 4t-51.5 2
q-68 0 -121.5 -21t-92.5 -61t-63.5 -96.5t-34.5 -128.5q-4 -24 -5.5 -45t-1.5 -40q0 -87 34.5 -125t100.5 -38zM392 669l-78 141h45l59 -141h-26z" />
    <glyph glyph-name="aacute" unicode="&#xe1;" horiz-adv-x="583" 
d="M395 592q36 0 63.5 -3t49.5 -4h12l-82 -585h-24l10 91q2 22 6 41l-2 1q-35 -67 -93 -104.5t-133 -37.5q-77 0 -118 42.5t-41 140.5q0 20 1.5 41.5t5.5 45.5q22 158 110.5 244.5t234.5 86.5zM207 14q44 0 83.5 15.5t71 45t53 72.5t29.5 97l45 319q-23 2 -46.5 4t-51.5 2
q-68 0 -121.5 -21t-92.5 -61t-63.5 -96.5t-34.5 -128.5q-4 -24 -5.5 -45t-1.5 -40q0 -87 34.5 -125t100.5 -38zM500 810l-126 -141h-28l106 141h48z" />
    <glyph glyph-name="acircumflex" unicode="&#xe2;" horiz-adv-x="583" 
d="M395 592q36 0 63.5 -3t49.5 -4h12l-82 -585h-24l10 91q2 22 6 41l-2 1q-35 -67 -93 -104.5t-133 -37.5q-77 0 -118 42.5t-41 140.5q0 20 1.5 41.5t5.5 45.5q22 158 110.5 244.5t234.5 86.5zM207 14q44 0 83.5 15.5t71 45t53 72.5t29.5 97l45 319q-23 2 -46.5 4t-51.5 2
q-68 0 -121.5 -21t-92.5 -61t-63.5 -96.5t-34.5 -128.5q-4 -24 -5.5 -45t-1.5 -40q0 -87 34.5 -125t100.5 -38zM386 810l92 -141h-29l-78 126l-112 -126h-27l126 141h28z" />
    <glyph glyph-name="atilde" unicode="&#xe3;" horiz-adv-x="583" 
d="M395 592q36 0 63.5 -3t49.5 -4h12l-82 -585h-24l10 91q2 22 6 41l-2 1q-35 -67 -93 -104.5t-133 -37.5q-77 0 -118 42.5t-41 140.5q0 20 1.5 41.5t5.5 45.5q22 158 110.5 244.5t234.5 86.5zM207 14q44 0 83.5 15.5t71 45t53 72.5t29.5 97l45 319q-23 2 -46.5 4t-51.5 2
q-68 0 -121.5 -21t-92.5 -61t-63.5 -96.5t-34.5 -128.5q-4 -24 -5.5 -45t-1.5 -40q0 -87 34.5 -125t100.5 -38zM440 689q-20 0 -33.5 13t-25.5 28.5t-24.5 28.5t-28.5 13q-20 0 -33 -19t-24 -54h-22q13 45 35 70t48 25q20 0 34 -13t26 -28.5t24.5 -28.5t28.5 -13q35 0 58 73
h21q-13 -45 -35 -70t-49 -25z" />
    <glyph glyph-name="adieresis" unicode="&#xe4;" horiz-adv-x="583" 
d="M395 592q36 0 63.5 -3t49.5 -4h12l-82 -585h-24l10 91q2 22 6 41l-2 1q-35 -67 -93 -104.5t-133 -37.5q-77 0 -118 42.5t-41 140.5q0 20 1.5 41.5t5.5 45.5q22 158 110.5 244.5t234.5 86.5zM207 14q44 0 83.5 15.5t71 45t53 72.5t29.5 97l45 319q-23 2 -46.5 4t-51.5 2
q-68 0 -121.5 -21t-92.5 -61t-63.5 -96.5t-34.5 -128.5q-4 -24 -5.5 -45t-1.5 -40q0 -87 34.5 -125t100.5 -38zM311 791q21 0 21 -22q0 -18 -8.5 -25t-20.5 -7q-20 0 -20 18q0 16 7.5 26t20.5 10zM450 791q20 0 20 -22q0 -18 -8.5 -25t-19.5 -7q-22 0 -22 19q0 16 8 25.5
t22 9.5z" />
    <glyph glyph-name="aring" unicode="&#xe5;" horiz-adv-x="583" 
d="M395 592q36 0 63.5 -3t49.5 -4h12l-82 -585h-24l10 91q2 22 6 41l-2 1q-35 -67 -93 -104.5t-133 -37.5q-77 0 -118 42.5t-41 140.5q0 20 1.5 41.5t5.5 45.5q22 158 110.5 244.5t234.5 86.5zM207 14q44 0 83.5 15.5t71 45t53 72.5t29.5 97l45 319q-23 2 -46.5 4t-51.5 2
q-68 0 -121.5 -21t-92.5 -61t-63.5 -96.5t-34.5 -128.5q-4 -24 -5.5 -45t-1.5 -40q0 -87 34.5 -125t100.5 -38zM368 816q30 0 48 -16.5t18 -42.5q0 -35 -24.5 -57.5t-60.5 -22.5q-31 0 -49 17t-18 43q0 33 25.5 56t60.5 23zM366 799q-27 0 -45.5 -18.5t-18.5 -42.5
q0 -20 13 -32t36 -12q27 0 45.5 17t18.5 44q0 19 -13.5 31.5t-35.5 12.5z" />
    <glyph glyph-name="ae" unicode="&#xe6;" horiz-adv-x="898" 
d="M395 592q41 0 70.5 -3.5t52.5 -3.5l-13 -94q-2 -10 -3.5 -20.5t-3.5 -19.5l2 -1q64 143 215 143q76 0 112.5 -30t36.5 -78q0 -38 -19.5 -70.5t-65 -59t-120 -47t-183.5 -33.5q-6 -45 -6 -80q0 -51 10.5 -85.5t31 -55.5t49.5 -30t66 -9q109 0 180 66l10 -18
q-36 -35 -86 -53.5t-110 -18.5q-79 0 -123.5 40.5t-48.5 139.5h-2q-30 -86 -94 -133t-151 -47q-77 0 -117.5 41.5t-40.5 140.5q0 104 25.5 182.5t72 131t111 79t142.5 26.5zM207 14q45 0 85 16.5t71.5 47.5t52.5 76t29 101l43 306q-22 2 -45.5 5t-51.5 3q-78 0 -137 -27.5
t-99 -78.5t-60 -123.5t-20 -162.5q0 -87 33 -125t99 -38zM720 570q-99 0 -159.5 -66t-80.5 -204q103 11 172 28.5t110.5 41t58.5 52t17 60.5q0 38 -28 63t-90 25z" />
    <glyph glyph-name="ccedilla" unicode="&#xe7;" horiz-adv-x="495" 
d="M227 -9h-2q-87 0 -132.5 47t-45.5 156q0 22 2 46.5t6 51.5q42 301 274 301q40 0 74.5 -7.5t66.5 -25.5l-12 -21q-32 14 -61 21.5t-72 7.5q-105 0 -163 -69t-78 -208q-4 -27 -5.5 -50.5t-1.5 -44.5q0 -51 10.5 -85.5t30.5 -56t48.5 -30.5t65.5 -9q52 0 92 17t75 49l10 -19
q-32 -30 -70 -47.5t-87 -22.5l-66 -185h-38z" />
    <glyph glyph-name="egrave" unicode="&#xe8;" horiz-adv-x="503" 
d="M321 593q79 0 114 -30.5t35 -73.5q0 -40 -20 -73.5t-66 -60.5t-120 -47t-182 -33q-6 -45 -6 -81q0 -51 10.5 -85t31 -55t49.5 -30t66 -9q108 0 179 66l11 -18q-37 -35 -86.5 -53.5t-110.5 -18.5q-42 0 -75 11t-56 35.5t-35.5 63.5t-12.5 95q0 22 2 45.5t6 50.5
q20 149 87 225t179 76zM318 570q-102 0 -157.5 -71t-74.5 -198q101 10 169.5 27.5t110.5 41t60 53t18 63.5q0 36 -30.5 60t-95.5 24zM336 669l-78 141h45l59 -141h-26z" />
    <glyph glyph-name="eacute" unicode="&#xe9;" horiz-adv-x="503" 
d="M321 593q79 0 114 -30.5t35 -73.5q0 -40 -20 -73.5t-66 -60.5t-120 -47t-182 -33q-6 -45 -6 -81q0 -51 10.5 -85t31 -55t49.5 -30t66 -9q108 0 179 66l11 -18q-37 -35 -86.5 -53.5t-110.5 -18.5q-42 0 -75 11t-56 35.5t-35.5 63.5t-12.5 95q0 22 2 45.5t6 50.5
q20 149 87 225t179 76zM318 570q-102 0 -157.5 -71t-74.5 -198q101 10 169.5 27.5t110.5 41t60 53t18 63.5q0 36 -30.5 60t-95.5 24zM445 810l-126 -141h-28l106 141h48z" />
    <glyph glyph-name="ecircumflex" unicode="&#xea;" horiz-adv-x="503" 
d="M321 593q79 0 114 -30.5t35 -73.5q0 -40 -20 -73.5t-66 -60.5t-120 -47t-182 -33q-6 -45 -6 -81q0 -51 10.5 -85t31 -55t49.5 -30t66 -9q108 0 179 66l11 -18q-37 -35 -86.5 -53.5t-110.5 -18.5q-42 0 -75 11t-56 35.5t-35.5 63.5t-12.5 95q0 22 2 45.5t6 50.5
q20 149 87 225t179 76zM318 570q-102 0 -157.5 -71t-74.5 -198q101 10 169.5 27.5t110.5 41t60 53t18 63.5q0 36 -30.5 60t-95.5 24zM346 810l92 -141h-29l-78 126l-112 -126h-27l126 141h28z" />
    <glyph glyph-name="edieresis" unicode="&#xeb;" horiz-adv-x="503" 
d="M321 593q79 0 114 -30.5t35 -73.5q0 -40 -20 -73.5t-66 -60.5t-120 -47t-182 -33q-6 -45 -6 -81q0 -51 10.5 -85t31 -55t49.5 -30t66 -9q108 0 179 66l11 -18q-37 -35 -86.5 -53.5t-110.5 -18.5q-42 0 -75 11t-56 35.5t-35.5 63.5t-12.5 95q0 22 2 45.5t6 50.5
q20 149 87 225t179 76zM318 570q-102 0 -157.5 -71t-74.5 -198q101 10 169.5 27.5t110.5 41t60 53t18 63.5q0 36 -30.5 60t-95.5 24zM262 791q21 0 21 -22q0 -18 -8.5 -25t-20.5 -7q-20 0 -20 18q0 16 7.5 26t20.5 10zM401 791q20 0 20 -22q0 -18 -8.5 -25t-19.5 -7
q-22 0 -22 19q0 16 8 25.5t22 9.5z" />
    <glyph glyph-name="igrave" unicode="&#xec;" horiz-adv-x="245" 
d="M58 0l81 582l30 3l-82 -585h-29zM156 669l-78 141h45l59 -141h-26z" />
    <glyph glyph-name="iacute" unicode="&#xed;" horiz-adv-x="245" 
d="M58 0l81 582l30 3l-82 -585h-29zM306 810l-126 -141h-28l106 141h48z" />
    <glyph glyph-name="icircumflex" unicode="&#xee;" horiz-adv-x="245" 
d="M58 0l81 582l30 3l-82 -585h-29zM199 810l92 -141h-29l-78 126l-112 -126h-27l126 141h28z" />
    <glyph glyph-name="idieresis" unicode="&#xef;" horiz-adv-x="245" 
d="M58 0l81 582l30 3l-82 -585h-29zM115 791q21 0 21 -22q0 -18 -8.5 -25t-20.5 -7q-20 0 -20 18q0 16 7.5 26t20.5 10zM254 791q20 0 20 -22q0 -18 -8.5 -25t-19.5 -7q-22 0 -22 19q0 16 8 25.5t22 9.5z" />
    <glyph glyph-name="eth" unicode="&#xf0;" horiz-adv-x="604" 
d="M397 727q31 -33 57 -71.5t45 -82t30 -90.5t11 -96q0 -14 -1 -28.5t-3 -28.5q-13 -92 -36 -157t-57.5 -105.5t-81.5 -59t-108 -18.5q-52 0 -90.5 10.5t-64.5 34t-39 62t-13 94.5q0 22 2 46.5t6 52.5q11 76 31 132t53 92t79.5 53.5t111.5 17.5q61 0 101.5 -21t63.5 -57l2 1
q-18 64 -47.5 114t-71.5 89l-94 -78l-16 12l96 79q-20 19 -43.5 36t-48.5 34l19 18q24 -14 47.5 -32t45.5 -39l87 72l15 -13zM329 559q-54 0 -95.5 -15t-71.5 -47.5t-49 -83.5t-29 -123q-4 -26 -5.5 -49t-1.5 -43q0 -53 12 -88t35 -56t56 -30t76 -9q101 0 164 74t86 240
q2 14 3 27.5t1 26.5q0 84 -44 130t-137 46z" />
    <glyph glyph-name="ntilde" unicode="&#xf1;" horiz-adv-x="586" 
d="M475 382q2 18 3.5 34t1.5 30q0 69 -31 96.5t-94 27.5q-45 0 -85 -16t-71.5 -46.5t-52.5 -74t-28 -97.5l-46 -336h-28l81 582l23 4l-8 -87l-2 -20q-1 -10 -3 -20l2 -1q34 66 90.5 100.5t131.5 34.5t112.5 -36.5t37.5 -114.5q0 -14 -1.5 -28.5t-3.5 -31.5l-53 -382h-29z
M403 690q-20 0 -33.5 13t-25.5 28.5t-24.5 28.5t-28.5 13q-20 0 -33 -19t-24 -54h-22q13 45 35 70t48 25q20 0 34 -13t26 -28.5t24.5 -28.5t28.5 -13q35 0 58 73h21q-13 -45 -35 -70t-49 -25z" />
    <glyph glyph-name="ograve" unicode="&#xf2;" horiz-adv-x="570" 
d="M315 569q-51 0 -89.5 -15.5t-66.5 -49t-46.5 -86t-28.5 -127.5q-4 -29 -6 -54t-2 -48q0 -96 38.5 -135.5t121.5 -39.5q51 0 89.5 15.5t67 49.5t46.5 87t29 128q4 29 6 54t2 47q0 96 -39.5 135t-121.5 39zM319 593q97 0 141.5 -44.5t44.5 -149.5q0 -23 -2 -49.5t-6 -56.5
q-11 -79 -31 -136t-52 -94t-77 -54.5t-105 -17.5q-97 0 -141.5 44.5t-44.5 148.5q0 46 9 108q11 79 31 135.5t51.5 93.5t76.5 54.5t105 17.5zM344 669l-78 141h45l59 -141h-26z" />
    <glyph glyph-name="oacute" unicode="&#xf3;" horiz-adv-x="570" 
d="M315 569q-51 0 -89.5 -15.5t-66.5 -49t-46.5 -86t-28.5 -127.5q-4 -29 -6 -54t-2 -48q0 -96 38.5 -135.5t121.5 -39.5q51 0 89.5 15.5t67 49.5t46.5 87t29 128q4 29 6 54t2 47q0 96 -39.5 135t-121.5 39zM319 593q97 0 141.5 -44.5t44.5 -149.5q0 -23 -2 -49.5t-6 -56.5
q-11 -79 -31 -136t-52 -94t-77 -54.5t-105 -17.5q-97 0 -141.5 44.5t-44.5 148.5q0 46 9 108q11 79 31 135.5t51.5 93.5t76.5 54.5t105 17.5zM446 810l-126 -141h-28l106 141h48z" />
    <glyph glyph-name="ocircumflex" unicode="&#xf4;" horiz-adv-x="570" 
d="M315 569q-51 0 -89.5 -15.5t-66.5 -49t-46.5 -86t-28.5 -127.5q-4 -29 -6 -54t-2 -48q0 -96 38.5 -135.5t121.5 -39.5q51 0 89.5 15.5t67 49.5t46.5 87t29 128q4 29 6 54t2 47q0 96 -39.5 135t-121.5 39zM319 593q97 0 141.5 -44.5t44.5 -149.5q0 -23 -2 -49.5t-6 -56.5
q-11 -79 -31 -136t-52 -94t-77 -54.5t-105 -17.5q-97 0 -141.5 44.5t-44.5 148.5q0 46 9 108q11 79 31 135.5t51.5 93.5t76.5 54.5t105 17.5zM362 810l92 -141h-29l-78 126l-112 -126h-27l126 141h28z" />
    <glyph glyph-name="otilde" unicode="&#xf5;" horiz-adv-x="570" 
d="M315 569q-51 0 -89.5 -15.5t-66.5 -49t-46.5 -86t-28.5 -127.5q-4 -29 -6 -54t-2 -48q0 -96 38.5 -135.5t121.5 -39.5q51 0 89.5 15.5t67 49.5t46.5 87t29 128q4 29 6 54t2 47q0 96 -39.5 135t-121.5 39zM319 593q97 0 141.5 -44.5t44.5 -149.5q0 -23 -2 -49.5t-6 -56.5
q-11 -79 -31 -136t-52 -94t-77 -54.5t-105 -17.5q-97 0 -141.5 44.5t-44.5 148.5q0 46 9 108q11 79 31 135.5t51.5 93.5t76.5 54.5t105 17.5zM397 689q-20 0 -33.5 13t-25.5 28.5t-24.5 28.5t-28.5 13q-20 0 -33 -19t-24 -54h-22q13 45 35 70t48 25q20 0 34 -13t26 -28.5
t24.5 -28.5t28.5 -13q35 0 58 73h21q-13 -45 -35 -70t-49 -25z" />
    <glyph glyph-name="odieresis" unicode="&#xf6;" horiz-adv-x="570" 
d="M315 569q-51 0 -89.5 -15.5t-66.5 -49t-46.5 -86t-28.5 -127.5q-4 -29 -6 -54t-2 -48q0 -96 38.5 -135.5t121.5 -39.5q51 0 89.5 15.5t67 49.5t46.5 87t29 128q4 29 6 54t2 47q0 96 -39.5 135t-121.5 39zM319 593q97 0 141.5 -44.5t44.5 -149.5q0 -23 -2 -49.5t-6 -56.5
q-11 -79 -31 -136t-52 -94t-77 -54.5t-105 -17.5q-97 0 -141.5 44.5t-44.5 148.5q0 46 9 108q11 79 31 135.5t51.5 93.5t76.5 54.5t105 17.5zM274 791q21 0 21 -22q0 -18 -8.5 -25t-20.5 -7q-20 0 -20 18q0 16 7.5 26t20.5 10zM413 791q20 0 20 -22q0 -18 -8.5 -25t-19.5 -7
q-22 0 -22 19q0 16 8 25.5t22 9.5z" />
    <glyph glyph-name="divide" unicode="&#xf7;" horiz-adv-x="592" 
d="M324 478q0 -29 -30 -29q-14 0 -23 6.5t-9 21.5q0 29 32 29q30 0 30 -28zM71 328v29h448v-29h-448zM324 207q0 -29 -30 -29q-14 0 -23 6.5t-9 21.5q0 29 32 29q30 0 30 -28z" />
    <glyph glyph-name="oslash" unicode="&#xf8;" horiz-adv-x="570" 
d="M319 593q62 0 102 -17.5t61 -55.5l50 57l14 -15l-55 -66q14 -42 14 -101q0 -23 -2 -48t-6 -54q-11 -79 -31.5 -136t-52 -94t-76.5 -54.5t-105 -17.5q-62 0 -102 17.5t-60 56.5l-56 -58l-13 16l59 64q-8 20 -11 43t-3 52q0 48 9 110q11 79 31 135.5t51.5 93.5t76.5 54.5
t105 17.5zM91 91q17 -42 52.5 -59.5t92.5 -17.5q51 0 89.5 15.5t67 49.5t46.5 87t29 128q4 29 6 53.5t2 46.5q0 23 -2 43t-5 37zM315 569q-51 0 -89.5 -15.5t-66 -49t-46 -86t-29.5 -127.5q-5 -29 -6.5 -54.5t-1.5 -47.5q0 -42 8 -76l376 381q-18 40 -53.5 57.5t-91.5 17.5z
" />
    <glyph glyph-name="ugrave" unicode="&#xf9;" horiz-adv-x="573" 
d="M462 177q-13 -87 -69.5 -138t-158.5 -51q-91 0 -134.5 40.5t-43.5 111.5q0 17 3 37l57 405l30 4l-57 -407q-3 -18 -3 -34q0 -63 38.5 -96.5t113.5 -33.5q85 0 135 42t61 122l57 405h29zM349 670l-78 141h45l59 -141h-26z" />
    <glyph glyph-name="uacute" unicode="&#xfa;" horiz-adv-x="573" 
d="M462 177q-13 -87 -69.5 -138t-158.5 -51q-91 0 -134.5 40.5t-43.5 111.5q0 17 3 37l57 405l30 4l-57 -407q-3 -18 -3 -34q0 -63 38.5 -96.5t113.5 -33.5q85 0 135 42t61 122l57 405h29zM457 811l-126 -141h-28l106 141h48z" />
    <glyph glyph-name="ucircumflex" unicode="&#xfb;" horiz-adv-x="573" 
d="M462 177q-13 -87 -69.5 -138t-158.5 -51q-91 0 -134.5 40.5t-43.5 111.5q0 17 3 37l57 405l30 4l-57 -407q-3 -18 -3 -34q0 -63 38.5 -96.5t113.5 -33.5q85 0 135 42t61 122l57 405h29zM360 811l92 -141h-29l-78 126l-112 -126h-27l126 141h28z" />
    <glyph glyph-name="udieresis" unicode="&#xfc;" horiz-adv-x="573" 
d="M462 177q-13 -87 -69.5 -138t-158.5 -51q-91 0 -134.5 40.5t-43.5 111.5q0 17 3 37l57 405l30 4l-57 -407q-3 -18 -3 -34q0 -63 38.5 -96.5t113.5 -33.5q85 0 135 42t61 122l57 405h29zM272 791q21 0 21 -22q0 -18 -8.5 -25t-20.5 -7q-20 0 -20 18q0 16 7.5 26t20.5 10z
M411 791q20 0 20 -22q0 -18 -8.5 -25t-19.5 -7q-22 0 -22 19q0 16 8 25.5t22 9.5z" />
    <glyph glyph-name="yacute" unicode="&#xfd;" horiz-adv-x="563" 
d="M523 584q-32 -110 -75 -216.5t-98.5 -201.5t-123 -174t-147.5 -134l-14 21q31 23 55.5 44t46 41.5t40 42.5t37.5 47l-173 529l29 2l151 -469q3 -10 6 -19.5t5 -19.5h2q66 94 125.5 218.5t104.5 288.5h29zM436 810l-126 -141h-28l106 141h48z" />
    <glyph glyph-name="thorn" unicode="&#xfe;" horiz-adv-x="587" 
d="M366 593q36 0 65 -10t49.5 -33t31 -60t10.5 -91q0 -23 -1.5 -49.5t-6.5 -56.5q-21 -150 -86 -226t-180 -76q-52 0 -94.5 14.5t-69.5 39.5l-2 -1q-1 -10 -2 -20.5t-3 -20.5l-20 -143h-28l132 942l29 4l-44 -311q-2 -10 -3.5 -20.5t-3.5 -19.5l2 -1q35 66 92.5 102.5
t132.5 36.5zM361 570q-44 0 -84 -16.5t-71.5 -47t-53.5 -74t-29 -97.5l-36 -263q26 -27 67 -42t92 -15q103 0 160.5 68t77.5 211q5 29 6.5 54.5t1.5 48.5q0 49 -9 82t-26.5 53.5t-41.5 29t-54 8.5z" />
    <glyph glyph-name="ydieresis" unicode="&#xff;" horiz-adv-x="563" 
d="M523 584q-32 -110 -75 -216.5t-98.5 -201.5t-123 -174t-147.5 -134l-14 21q31 23 55.5 44t46 41.5t40 42.5t37.5 47l-173 529l29 2l151 -469q3 -10 6 -19.5t5 -19.5h2q66 94 125.5 218.5t104.5 288.5h29zM267 791q21 0 21 -22q0 -18 -8.5 -25t-20.5 -7q-20 0 -20 18
q0 16 7.5 26t20.5 10zM406 791q20 0 20 -22q0 -18 -8.5 -25t-19.5 -7q-22 0 -22 19q0 16 8 25.5t22 9.5z" />
    <glyph glyph-name="Amacron" unicode="&#x100;" horiz-adv-x="687" 
d="M517 219h-387l-115 -219h-33l400 750h35l188 -750h-34zM394 722q-4 -9 -8.5 -18t-9.5 -18l-232 -441h367l-107 437l-8 40h-2zM521 824h-243l3 22h243z" />
    <glyph glyph-name="amacron" unicode="&#x101;" horiz-adv-x="583" 
d="M395 592q36 0 63.5 -3t49.5 -4h12l-82 -585h-24l10 91q2 22 6 41l-2 1q-35 -67 -93 -104.5t-133 -37.5q-77 0 -118 42.5t-41 140.5q0 20 1.5 41.5t5.5 45.5q22 158 110.5 244.5t234.5 86.5zM207 14q44 0 83.5 15.5t71 45t53 72.5t29.5 97l45 319q-23 2 -46.5 4t-51.5 2
q-68 0 -121.5 -21t-92.5 -61t-63.5 -96.5t-34.5 -128.5q-4 -24 -5.5 -45t-1.5 -40q0 -87 34.5 -125t100.5 -38zM479 739h-242l3 21h242z" />
    <glyph glyph-name="Abreve" unicode="&#x102;" horiz-adv-x="687" 
d="M517 219h-387l-115 -219h-33l400 750h35l188 -750h-34zM394 722q-4 -9 -8.5 -18t-9.5 -18l-232 -441h367l-107 437l-8 40h-2zM547 916q-8 -55 -45.5 -86.5t-106.5 -31.5q-60 0 -92.5 24t-32.5 72q0 5 0.5 10.5t1.5 11.5h25q-1 -5 -1 -9v-7q0 -43 29 -61.5t73 -18.5
q50 0 84 22.5t40 73.5h25z" />
    <glyph glyph-name="abreve" unicode="&#x103;" horiz-adv-x="583" 
d="M395 592q36 0 63.5 -3t49.5 -4h12l-82 -585h-24l10 91q2 22 6 41l-2 1q-35 -67 -93 -104.5t-133 -37.5q-77 0 -118 42.5t-41 140.5q0 20 1.5 41.5t5.5 45.5q22 158 110.5 244.5t234.5 86.5zM207 14q44 0 83.5 15.5t71 45t53 72.5t29.5 97l45 319q-23 2 -46.5 4t-51.5 2
q-68 0 -121.5 -21t-92.5 -61t-63.5 -96.5t-34.5 -128.5q-4 -24 -5.5 -45t-1.5 -40q0 -87 34.5 -125t100.5 -38zM496 810q-9 -67 -45 -107.5t-96 -40.5q-106 0 -106 112q0 16 3 36h25q-1 -8 -1.5 -15t-0.5 -14q0 -48 22.5 -72.5t60.5 -24.5q43 0 74 32t39 94h25z" />
    <glyph glyph-name="Aogonek" unicode="&#x104;" horiz-adv-x="687" 
d="M595 0q-20 0 -36.5 -10t-28.5 -25t-19 -33.5t-7 -34.5q0 -24 15 -37.5t47 -13.5q20 0 37 4t35 15l2 -18q-40 -23 -83 -23q-41 0 -60.5 17.5t-19.5 48.5q0 37 24.5 72t66.5 49l-51 208h-387l-115 -219h-33l400 750h35l188 -750h-10zM394 722q-4 -9 -8.5 -18t-9.5 -18
l-232 -441h367l-107 437l-8 40h-2z" />
    <glyph glyph-name="aogonek" unicode="&#x105;" horiz-adv-x="583" 
d="M399 -173q-44 0 -60 17.5t-16 41.5q0 32 23.5 66.5t67.5 54.5l10 84q2 10 3 20.5t3 20.5l-2 1q-35 -67 -93 -104.5t-133 -37.5q-77 0 -118 42.5t-41 140.5q0 20 1.5 41.5t5.5 45.5q22 158 110.5 244.5t234.5 86.5q36 0 63.5 -3t49.5 -4h12l-82 -585q-45 -18 -68 -48
t-23 -61q0 -20 13.5 -32.5t45.5 -12.5q40 0 75 19v-16q-39 -22 -82 -22zM207 14q44 0 83.5 15.5t71 45t53 72.5t29.5 97l45 319q-23 2 -46.5 4t-51.5 2q-68 0 -121.5 -21t-92.5 -61t-63.5 -96.5t-34.5 -128.5q-4 -24 -5.5 -45t-1.5 -40q0 -87 34.5 -125t100.5 -38z" />
    <glyph glyph-name="Cacute" unicode="&#x106;" horiz-adv-x="618" 
d="M442 762q24 0 48.5 -3t47 -8.5t42 -12.5t32.5 -15l-11 -26q-29 16 -71.5 27t-90.5 11q-69 0 -123 -18t-94.5 -59t-67.5 -108t-41 -166q-5 -35 -7.5 -66t-2.5 -58q0 -69 15 -116t45 -76t74.5 -41.5t102.5 -12.5q50 0 93.5 11.5t80.5 30.5l4 -23q-34 -19 -83.5 -32.5
t-100.5 -13.5q-135 0 -198.5 64.5t-63.5 205.5q0 29 2.5 60.5t7.5 66.5q14 100 42.5 172t72.5 117.5t105 67t140 21.5zM553 912l-136 -112h-28l112 112h52z" />
    <glyph glyph-name="cacute" unicode="&#x107;" horiz-adv-x="495" 
d="M329 593q40 0 74.5 -7.5t66.5 -25.5l-12 -21q-32 14 -61 21.5t-72 7.5q-105 0 -163 -69t-78 -208q-4 -27 -5.5 -50.5t-1.5 -44.5q0 -51 10.5 -85.5t30.5 -56t48.5 -30.5t65.5 -9q52 0 92 17t75 49l10 -19q-36 -34 -80 -52.5t-104 -18.5q-87 0 -132.5 47t-45.5 156
q0 22 2 46.5t6 51.5q42 301 274 301zM443 810l-126 -141h-28l106 141h48z" />
    <glyph glyph-name="Ccircumflex" unicode="&#x108;" horiz-adv-x="618" 
d="M442 762q24 0 48.5 -3t47 -8.5t42 -12.5t32.5 -15l-11 -26q-29 16 -71.5 27t-90.5 11q-69 0 -123 -18t-94.5 -59t-67.5 -108t-41 -166q-5 -35 -7.5 -66t-2.5 -58q0 -69 15 -116t45 -76t74.5 -41.5t102.5 -12.5q50 0 93.5 11.5t80.5 30.5l4 -23q-34 -19 -83.5 -32.5
t-100.5 -13.5q-135 0 -198.5 64.5t-63.5 205.5q0 29 2.5 60.5t7.5 66.5q14 100 42.5 172t72.5 117.5t105 67t140 21.5zM463 913l111 -113h-39l-89 96l-113 -96h-38l138 113h30z" />
    <glyph glyph-name="ccircumflex" unicode="&#x109;" horiz-adv-x="495" 
d="M329 593q40 0 74.5 -7.5t66.5 -25.5l-12 -21q-32 14 -61 21.5t-72 7.5q-105 0 -163 -69t-78 -208q-4 -27 -5.5 -50.5t-1.5 -44.5q0 -51 10.5 -85.5t30.5 -56t48.5 -30.5t65.5 -9q52 0 92 17t75 49l10 -19q-36 -34 -80 -52.5t-104 -18.5q-87 0 -132.5 47t-45.5 156
q0 22 2 46.5t6 51.5q42 301 274 301zM352 810l92 -141h-29l-78 126l-112 -126h-27l126 141h28z" />
    <glyph glyph-name="Cdotaccent" unicode="&#x10a;" horiz-adv-x="618" 
d="M442 762q24 0 48.5 -3t47 -8.5t42 -12.5t32.5 -15l-11 -26q-29 16 -71.5 27t-90.5 11q-69 0 -123 -18t-94.5 -59t-67.5 -108t-41 -166q-5 -35 -7.5 -66t-2.5 -58q0 -69 15 -116t45 -76t74.5 -41.5t102.5 -12.5q50 0 93.5 11.5t80.5 30.5l4 -23q-34 -19 -83.5 -32.5
t-100.5 -13.5q-135 0 -198.5 64.5t-63.5 205.5q0 29 2.5 60.5t7.5 66.5q14 100 42.5 172t72.5 117.5t105 67t140 21.5zM443 876q25 0 25 -24q0 -20 -9.5 -29.5t-24.5 -9.5q-14 0 -21.5 5.5t-7.5 19.5q0 20 10.5 29t27.5 9z" />
    <glyph glyph-name="cdotaccent" unicode="&#x10b;" horiz-adv-x="495" 
d="M329 593q40 0 74.5 -7.5t66.5 -25.5l-12 -21q-32 14 -61 21.5t-72 7.5q-105 0 -163 -69t-78 -208q-4 -27 -5.5 -50.5t-1.5 -44.5q0 -51 10.5 -85.5t30.5 -56t48.5 -30.5t65.5 -9q52 0 92 17t75 49l10 -19q-36 -34 -80 -52.5t-104 -18.5q-87 0 -132.5 47t-45.5 156
q0 22 2 46.5t6 51.5q42 301 274 301zM349 794q28 0 28 -27q0 -20 -10.5 -28.5t-26.5 -8.5q-13 0 -20.5 4.5t-7.5 18.5q0 19 10 30t27 11z" />
    <glyph glyph-name="Ccaron" unicode="&#x10c;" horiz-adv-x="618" 
d="M442 762q24 0 48.5 -3t47 -8.5t42 -12.5t32.5 -15l-11 -26q-29 16 -71.5 27t-90.5 11q-69 0 -123 -18t-94.5 -59t-67.5 -108t-41 -166q-5 -35 -7.5 -66t-2.5 -58q0 -69 15 -116t45 -76t74.5 -41.5t102.5 -12.5q50 0 93.5 11.5t80.5 30.5l4 -23q-34 -19 -83.5 -32.5
t-100.5 -13.5q-135 0 -198.5 64.5t-63.5 205.5q0 29 2.5 60.5t7.5 66.5q14 100 42.5 172t72.5 117.5t105 67t140 21.5zM430 800l-108 113h37l88 -97l117 97h36l-140 -113h-30z" />
    <glyph glyph-name="ccaron" unicode="&#x10d;" horiz-adv-x="495" 
d="M329 593q40 0 74.5 -7.5t66.5 -25.5l-12 -21q-32 14 -61 21.5t-72 7.5q-105 0 -163 -69t-78 -208q-4 -27 -5.5 -50.5t-1.5 -44.5q0 -51 10.5 -85.5t30.5 -56t48.5 -30.5t65.5 -9q52 0 92 17t75 49l10 -19q-36 -34 -80 -52.5t-104 -18.5q-87 0 -132.5 47t-45.5 156
q0 22 2 46.5t6 51.5q42 301 274 301zM300 669l-90 141h29l77 -124l112 124h29l-129 -141h-28z" />
    <glyph glyph-name="Dcaron" unicode="&#x10e;" horiz-adv-x="745" 
d="M413 750q136 0 200 -59.5t64 -195.5q0 -52 -9 -118q-14 -103 -42.5 -174.5t-72.5 -116.5t-105 -65.5t-140 -20.5h-233l105 750h233zM108 28h203q68 0 122.5 16.5t95 56.5t67.5 107.5t41 168.5q9 66 9 116q0 64 -14.5 107.5t-44 70.5t-74.5 39t-105 12h-202zM370 800
l-108 113h37l88 -97l117 97h36l-140 -113h-30z" />
    <glyph glyph-name="dcaron" unicode="&#x10f;" horiz-adv-x="585" 
d="M343 593q43 0 79.5 -6.5t66.5 -17.5l33 233l29 4l-113 -806h-21l8 90q1 10 2 20.5t3 20.5l-2 1q-35 -66 -93 -103.5t-133 -37.5q-36 0 -65 10t-49.5 32.5t-31 59t-10.5 90.5q0 102 21 178.5t59.5 128t93.5 77.5t123 26zM207 14q45 0 85 16.5t71.5 47.5t52.5 76t29 101
l41 289q-30 14 -65.5 20.5t-80.5 6.5q-218 0 -257 -284q-4 -29 -6 -54t-2 -47q0 -49 9.5 -82t26.5 -53t41.5 -28.5t54.5 -8.5zM693 806q15 0 21.5 -7.5t6.5 -17.5q0 -11 -7 -25.5t-17.5 -30.5t-24 -32.5t-26.5 -32.5l-11 7q14 21 27 42t23 44h-4q-12 0 -18 6.5t-6 15.5
q0 13 8.5 22t27.5 9z" />
    <glyph glyph-name="Dcroat" unicode="&#x110;" horiz-adv-x="750" 
d="M418 750q136 0 200 -59.5t64 -195.5q0 -52 -9 -118q-14 -103 -42.5 -174.5t-72.5 -116.5t-105 -65.5t-140 -20.5h-233l53 384h-84l4 22h84l48 344h233zM167 406h129l-4 -22h-129l-50 -356h203q68 0 122.5 16.5t95 56.5t67.5 107.5t41 168.5q9 66 9 116q0 64 -14.5 107.5
t-44 70.5t-74.5 39t-105 12h-202z" />
    <glyph glyph-name="dcroat" unicode="&#x111;" horiz-adv-x="605" 
d="M343 593q43 0 79.5 -6.5t66.5 -17.5l15 109h-122l3 21h122l15 103l29 4l-15 -107h93l-3 -21h-93l-95 -678h-21l8 90q1 10 2 20.5t3 20.5l-2 1q-35 -66 -93 -103.5t-133 -37.5q-36 0 -65 10t-49.5 32.5t-31 59t-10.5 90.5q0 102 21 178.5t59.5 128t93.5 77.5t123 26z
M207 14q45 0 85 16.5t71.5 47.5t52.5 76t29 101l41 289q-30 14 -65.5 20.5t-80.5 6.5q-218 0 -257 -284q-4 -29 -6 -54t-2 -47q0 -49 9.5 -82t26.5 -53t41.5 -28.5t54.5 -8.5z" />
    <glyph glyph-name="Emacron" unicode="&#x112;" horiz-adv-x="630" 
d="M524 27l-5 -27h-444l105 750h425l-2 -27h-398l-44 -313h348l-4 -27h-348l-50 -356h417zM523 824h-243l3 22h243z" />
    <glyph glyph-name="emacron" unicode="&#x113;" horiz-adv-x="503" 
d="M321 593q79 0 114 -30.5t35 -73.5q0 -40 -20 -73.5t-66 -60.5t-120 -47t-182 -33q-6 -45 -6 -81q0 -51 10.5 -85t31 -55t49.5 -30t66 -9q108 0 179 66l11 -18q-37 -35 -86.5 -53.5t-110.5 -18.5q-42 0 -75 11t-56 35.5t-35.5 63.5t-12.5 95q0 22 2 45.5t6 50.5
q20 149 87 225t179 76zM318 570q-102 0 -157.5 -71t-74.5 -198q101 10 169.5 27.5t110.5 41t60 53t18 63.5q0 36 -30.5 60t-95.5 24zM443 739h-242l3 21h242z" />
    <glyph glyph-name="Ebreve" unicode="&#x114;" horiz-adv-x="630" 
d="M524 27l-5 -27h-444l105 750h425l-2 -27h-398l-44 -313h348l-4 -27h-348l-50 -356h417zM557 916q-8 -55 -45.5 -86.5t-106.5 -31.5q-60 0 -92.5 24t-32.5 72q0 5 0.5 10.5t1.5 11.5h25q-1 -5 -1 -9v-7q0 -43 29 -61.5t73 -18.5q50 0 84 22.5t40 73.5h25z" />
    <glyph glyph-name="ebreve" unicode="&#x115;" horiz-adv-x="503" 
d="M321 593q79 0 114 -30.5t35 -73.5q0 -40 -20 -73.5t-66 -60.5t-120 -47t-182 -33q-6 -45 -6 -81q0 -51 10.5 -85t31 -55t49.5 -30t66 -9q108 0 179 66l11 -18q-37 -35 -86.5 -53.5t-110.5 -18.5q-42 0 -75 11t-56 35.5t-35.5 63.5t-12.5 95q0 22 2 45.5t6 50.5
q20 149 87 225t179 76zM318 570q-102 0 -157.5 -71t-74.5 -198q101 10 169.5 27.5t110.5 41t60 53t18 63.5q0 36 -30.5 60t-95.5 24zM456 810q-9 -67 -45 -107.5t-96 -40.5q-106 0 -106 112q0 16 3 36h25q-1 -8 -1.5 -15t-0.5 -14q0 -48 22.5 -72.5t60.5 -24.5q43 0 74 32
t39 94h25z" />
    <glyph glyph-name="Edotaccent" unicode="&#x116;" horiz-adv-x="630" 
d="M524 27l-5 -27h-444l105 750h425l-2 -27h-398l-44 -313h348l-4 -27h-348l-50 -356h417zM414 876q25 0 25 -24q0 -20 -9.5 -29.5t-24.5 -9.5q-14 0 -21.5 5.5t-7.5 19.5q0 20 10.5 29t27.5 9z" />
    <glyph glyph-name="edotaccent" unicode="&#x117;" horiz-adv-x="503" 
d="M321 593q79 0 114 -30.5t35 -73.5q0 -40 -20 -73.5t-66 -60.5t-120 -47t-182 -33q-6 -45 -6 -81q0 -51 10.5 -85t31 -55t49.5 -30t66 -9q108 0 179 66l11 -18q-37 -35 -86.5 -53.5t-110.5 -18.5q-42 0 -75 11t-56 35.5t-35.5 63.5t-12.5 95q0 22 2 45.5t6 50.5
q20 149 87 225t179 76zM318 570q-102 0 -157.5 -71t-74.5 -198q101 10 169.5 27.5t110.5 41t60 53t18 63.5q0 36 -30.5 60t-95.5 24zM349 794q28 0 28 -27q0 -20 -10.5 -28.5t-26.5 -8.5q-13 0 -20.5 4.5t-7.5 18.5q0 19 10 30t27 11z" />
    <glyph glyph-name="Eogonek" unicode="&#x118;" horiz-adv-x="630" 
d="M524 27l-5 -27h-53q-19 0 -35.5 -10t-28.5 -25.5t-19 -33.5t-7 -34q0 -24 15 -37.5t47 -13.5q20 0 37 4t35 15l2 -18q-40 -23 -83 -23q-41 0 -60.5 17.5t-19.5 48.5q0 35 20.5 65.5t50.5 44.5h-345l105 750h425l-2 -27h-398l-44 -313h348l-4 -27h-348l-50 -356h417z" />
    <glyph glyph-name="eogonek" unicode="&#x119;" horiz-adv-x="503" 
d="M228 -173q-44 0 -60 17.5t-16 41.5q0 29 19 57t55 50h-4q-41 0 -73 10.5t-55 34.5t-35 62.5t-12 94.5q0 22 2 46t6 51q20 149 87 225t179 76q79 0 114 -30.5t35 -73.5q0 -40 -20 -73.5t-66 -60.5t-120 -47t-182 -33q-6 -45 -6 -81q0 -51 10.5 -85t31 -55t49.5 -30t66 -9
q108 0 179 66l11 -18q-58 -57 -149 -69q-14 -2 -24.5 -5t-24.5 -14q-49 -37 -49 -84q0 -20 13.5 -32.5t44.5 -12.5q40 0 75 19l1 -16q-39 -22 -82 -22zM318 570q-102 0 -157.5 -71t-74.5 -198q101 10 169.5 27.5t110.5 41t60 53t18 63.5q0 36 -30.5 60t-95.5 24z" />
    <glyph glyph-name="Ecaron" unicode="&#x11a;" horiz-adv-x="630" 
d="M524 27l-5 -27h-444l105 750h425l-2 -27h-398l-44 -313h348l-4 -27h-348l-50 -356h417zM375 800l-108 113h37l88 -97l117 97h36l-140 -113h-30z" />
    <glyph glyph-name="ecaron" unicode="&#x11b;" horiz-adv-x="503" 
d="M321 593q79 0 114 -30.5t35 -73.5q0 -40 -20 -73.5t-66 -60.5t-120 -47t-182 -33q-6 -45 -6 -81q0 -51 10.5 -85t31 -55t49.5 -30t66 -9q108 0 179 66l11 -18q-37 -35 -86.5 -53.5t-110.5 -18.5q-42 0 -75 11t-56 35.5t-35.5 63.5t-12.5 95q0 22 2 45.5t6 50.5
q20 149 87 225t179 76zM318 570q-102 0 -157.5 -71t-74.5 -198q101 10 169.5 27.5t110.5 41t60 53t18 63.5q0 36 -30.5 60t-95.5 24zM300 669l-90 141h29l77 -124l112 124h29l-129 -141h-28z" />
    <glyph glyph-name="Gcircumflex" unicode="&#x11c;" horiz-adv-x="687" 
d="M561 32q-42 -21 -97.5 -33t-118.5 -12q-68 0 -119.5 14.5t-85.5 46t-51 82t-17 122.5q0 53 9 119q15 107 44.5 181.5t75.5 121t109 67.5t145 21q52 0 101 -11t83 -28l-10 -27q-36 19 -79 29.5t-99 10.5q-71 0 -127.5 -17.5t-98.5 -59.5t-70 -112.5t-43 -175.5
q-9 -66 -9 -117q0 -129 59.5 -184.5t185.5 -55.5q54 0 100 9.5t86 26.5l47 341h30zM477 913l111 -113h-39l-89 96l-113 -96h-38l138 113h30z" />
    <glyph glyph-name="gcircumflex" unicode="&#x11d;" horiz-adv-x="583" 
d="M452 105q-10 -69 -30.5 -117t-53 -77t-75.5 -42t-98 -13q-42 0 -83 10.5t-72 29.5l11 22q33 -18 69.5 -28.5t74.5 -10.5q46 0 84 10.5t67.5 36t49 68.5t28.5 108l7 50l-2 1q-29 -60 -79 -93t-121 -33q-39 0 -69.5 9.5t-51.5 30.5t-32 55t-11 84q0 91 23 163t66 121.5
t103 75.5t135 26q36 0 63 -4t52 -4h13zM235 51q88 0 144 62.5t71 170.5l38 278l-44 4q-22 2 -56 2q-64 0 -118 -23.5t-93 -69.5t-61 -113t-22 -155q0 -45 9.5 -75t27.5 -48t44.5 -25.5t59.5 -7.5zM389 810l92 -141h-29l-78 126l-112 -126h-27l126 141h28z" />
    <glyph glyph-name="Gbreve" unicode="&#x11e;" horiz-adv-x="687" 
d="M561 32q-42 -21 -97.5 -33t-118.5 -12q-68 0 -119.5 14.5t-85.5 46t-51 82t-17 122.5q0 53 9 119q15 107 44.5 181.5t75.5 121t109 67.5t145 21q52 0 101 -11t83 -28l-10 -27q-36 19 -79 29.5t-99 10.5q-71 0 -127.5 -17.5t-98.5 -59.5t-70 -112.5t-43 -175.5
q-9 -66 -9 -117q0 -129 59.5 -184.5t185.5 -55.5q54 0 100 9.5t86 26.5l47 341h30zM598 916q-8 -55 -45.5 -86.5t-106.5 -31.5q-60 0 -92.5 24t-32.5 72q0 5 0.5 10.5t1.5 11.5h25q-1 -5 -1 -9v-7q0 -43 29 -61.5t73 -18.5q50 0 84 22.5t40 73.5h25z" />
    <glyph glyph-name="gbreve" unicode="&#x11f;" horiz-adv-x="583" 
d="M452 105q-10 -69 -30.5 -117t-53 -77t-75.5 -42t-98 -13q-42 0 -83 10.5t-72 29.5l11 22q33 -18 69.5 -28.5t74.5 -10.5q46 0 84 10.5t67.5 36t49 68.5t28.5 108l7 50l-2 1q-29 -60 -79 -93t-121 -33q-39 0 -69.5 9.5t-51.5 30.5t-32 55t-11 84q0 91 23 163t66 121.5
t103 75.5t135 26q36 0 63 -4t52 -4h13zM235 51q88 0 144 62.5t71 170.5l38 278l-44 4q-22 2 -56 2q-64 0 -118 -23.5t-93 -69.5t-61 -113t-22 -155q0 -45 9.5 -75t27.5 -48t44.5 -25.5t59.5 -7.5zM492 810q-9 -67 -45 -107.5t-96 -40.5q-106 0 -106 112q0 16 3 36h25
q-1 -8 -1.5 -15t-0.5 -14q0 -48 22.5 -72.5t60.5 -24.5q43 0 74 32t39 94h25z" />
    <glyph glyph-name="Gdotaccent" unicode="&#x120;" horiz-adv-x="687" 
d="M561 32q-42 -21 -97.5 -33t-118.5 -12q-68 0 -119.5 14.5t-85.5 46t-51 82t-17 122.5q0 53 9 119q15 107 44.5 181.5t75.5 121t109 67.5t145 21q52 0 101 -11t83 -28l-10 -27q-36 19 -79 29.5t-99 10.5q-71 0 -127.5 -17.5t-98.5 -59.5t-70 -112.5t-43 -175.5
q-9 -66 -9 -117q0 -129 59.5 -184.5t185.5 -55.5q54 0 100 9.5t86 26.5l47 341h30zM457 876q25 0 25 -24q0 -20 -9.5 -29.5t-24.5 -9.5q-14 0 -21.5 5.5t-7.5 19.5q0 20 10.5 29t27.5 9z" />
    <glyph glyph-name="gdotaccent" unicode="&#x121;" horiz-adv-x="583" 
d="M452 105q-10 -69 -30.5 -117t-53 -77t-75.5 -42t-98 -13q-42 0 -83 10.5t-72 29.5l11 22q33 -18 69.5 -28.5t74.5 -10.5q46 0 84 10.5t67.5 36t49 68.5t28.5 108l7 50l-2 1q-29 -60 -79 -93t-121 -33q-39 0 -69.5 9.5t-51.5 30.5t-32 55t-11 84q0 91 23 163t66 121.5
t103 75.5t135 26q36 0 63 -4t52 -4h13zM235 51q88 0 144 62.5t71 170.5l38 278l-44 4q-22 2 -56 2q-64 0 -118 -23.5t-93 -69.5t-61 -113t-22 -155q0 -45 9.5 -75t27.5 -48t44.5 -25.5t59.5 -7.5zM398 794q28 0 28 -27q0 -20 -10.5 -28.5t-26.5 -8.5q-13 0 -20.5 4.5
t-7.5 18.5q0 19 10 30t27 11z" />
    <glyph glyph-name="uni0122" unicode="&#x122;" horiz-adv-x="687" 
d="M561 32q-42 -21 -97.5 -33t-118.5 -12q-68 0 -119.5 14.5t-85.5 46t-51 82t-17 122.5q0 53 9 119q15 107 44.5 181.5t75.5 121t109 67.5t145 21q52 0 101 -11t83 -28l-10 -27q-36 19 -79 29.5t-99 10.5q-71 0 -127.5 -17.5t-98.5 -59.5t-70 -112.5t-43 -175.5
q-9 -66 -9 -117q0 -129 59.5 -184.5t185.5 -55.5q54 0 100 9.5t86 26.5l47 341h30zM334 -48q15 0 21.5 -6.5t6.5 -15.5t-7 -23.5t-17.5 -31t-24 -34.5t-26.5 -35l-9 6q14 20 27 42t21 45h-3q-12 0 -18.5 6.5t-6.5 15.5q0 13 8.5 22t27.5 9z" />
    <glyph glyph-name="uni0123" unicode="&#x123;" horiz-adv-x="583" 
d="M452 105q-10 -69 -30.5 -117t-53 -77t-75.5 -42t-98 -13q-42 0 -83 10.5t-72 29.5l11 22q33 -18 69.5 -28.5t74.5 -10.5q46 0 84 10.5t67.5 36t49 68.5t28.5 108l7 50l-2 1q-29 -60 -79 -93t-121 -33q-39 0 -69.5 9.5t-51.5 30.5t-32 55t-11 84q0 91 23 163t66 121.5
t103 75.5t135 26q36 0 63 -4t52 -4h13zM235 51q88 0 144 62.5t71 170.5l38 278l-44 4q-22 2 -56 2q-64 0 -118 -23.5t-93 -69.5t-61 -113t-22 -155q0 -45 9.5 -75t27.5 -48t44.5 -25.5t59.5 -7.5zM378 675q-14 0 -21 6.5t-7 17.5q0 9 6.5 23t17 30.5t24 34.5t27.5 35l11 -7
q-15 -23 -28.5 -43.5t-21.5 -43.5h3q25 0 25 -22q0 -12 -8.5 -21.5t-27.5 -9.5z" />
    <glyph glyph-name="Hcircumflex" unicode="&#x124;" horiz-adv-x="766" 
d="M561 0l53 382h-456l-53 -382h-30l105 750h30l-48 -342h456l48 342h30l-105 -750h-30zM468 913l111 -113h-39l-89 96l-113 -96h-38l138 113h30z" />
    <glyph glyph-name="hcircumflex" unicode="&#x125;" horiz-adv-x="591" 
d="M427 0l53 382q2 18 3.5 34t1.5 30q0 69 -31 96.5t-94 27.5q-94 0 -157.5 -63t-79.5 -177l-46 -330h-28l112 801l29 5l-43 -307q-2 -10 -3.5 -20.5t-3.5 -19.5l2 -1q34 66 90.5 100.5t131.5 34.5t112.5 -36.5t37.5 -114.5q0 -14 -1.5 -28.5t-3.5 -31.5l-53 -382h-29z
M219 954l111 -113h-39l-89 96l-113 -96h-38l138 113h30z" />
    <glyph glyph-name="Hbar" unicode="&#x126;" horiz-adv-x="766" 
d="M561 0l53 382h-456l-53 -382h-30l78 557h-71l3 23h71l24 170h30l-24 -170h456l24 170h30l-24 -170h78l-3 -23h-78l-78 -557h-30zM618 408l21 149h-456l-21 -149h456z" />
    <glyph glyph-name="hbar" unicode="&#x127;" horiz-adv-x="598" 
d="M56 0l93 662h-83l3 23h83l16 116l29 5l-17 -121h134l-3 -23h-134l-23 -163q-2 -10 -3.5 -20.5t-3.5 -19.5l2 -1q34 66 90.5 100.5t131.5 34.5t112.5 -36.5t37.5 -114.5q0 -14 -1.5 -28.5t-3.5 -31.5l-53 -382h-29l53 382q2 18 3.5 34t1.5 30q0 69 -30.5 96.5t-93.5 27.5
q-46 0 -86 -17t-71.5 -48t-52.5 -75t-28 -98l-46 -332h-28z" />
    <glyph glyph-name="Itilde" unicode="&#x128;" horiz-adv-x="310" 
d="M195 750h30l-105 -750h-30zM93 803q12 38 32 63t49 25q18 0 31.5 -13t25.5 -29t23.5 -29t26.5 -13q33 0 55 67h19q-11 -38 -30 -62.5t-48 -24.5q-18 0 -31.5 13t-25.5 28t-24 28t-27 13q-18 0 -31.5 -18.5t-24.5 -47.5h-20z" />
    <glyph glyph-name="itilde" unicode="&#x129;" horiz-adv-x="245" 
d="M58 0l81 582l30 3l-82 -585h-29zM232 689q-20 0 -33.5 13t-25.5 28.5t-24.5 28.5t-28.5 13q-20 0 -33 -19t-24 -54h-22q13 45 35 70t48 25q20 0 34 -13t26 -28.5t24.5 -28.5t28.5 -13q35 0 58 73h21q-13 -45 -35 -70t-49 -25z" />
    <glyph glyph-name="Imacron" unicode="&#x12a;" horiz-adv-x="310" 
d="M195 750h30l-105 -750h-30zM340 824h-243l3 22h243z" />
    <glyph glyph-name="imacron" unicode="&#x12b;" horiz-adv-x="245" 
d="M58 0l81 582l30 3l-82 -585h-29zM298 739h-242l3 21h242z" />
    <glyph glyph-name="Ibreve" unicode="&#x12c;" horiz-adv-x="310" 
d="M195 750h30l-105 -750h-30zM370 916q-8 -55 -45.5 -86.5t-106.5 -31.5q-60 0 -92.5 24t-32.5 72q0 5 0.5 10.5t1.5 11.5h25q-1 -5 -1 -9v-7q0 -43 29 -61.5t73 -18.5q50 0 84 22.5t40 73.5h25z" />
    <glyph glyph-name="ibreve" unicode="&#x12d;" horiz-adv-x="245" 
d="M58 0l81 582l30 3l-82 -585h-29zM310 810q-9 -67 -45 -107.5t-96 -40.5q-106 0 -106 112q0 16 3 36h25q-1 -8 -1.5 -15t-0.5 -14q0 -48 22.5 -72.5t60.5 -24.5q43 0 74 32t39 94h25z" />
    <glyph glyph-name="Iogonek" unicode="&#x12e;" horiz-adv-x="310" 
d="M116 0q-19 -1 -35 -11t-27.5 -25t-18 -33t-6.5 -34q0 -24 15 -37.5t47 -13.5q20 0 37 4t35 15l2 -18q-40 -23 -83 -23q-41 0 -60.5 17.5t-19.5 48.5q0 18 6 36.5t17.5 35t28 29t37.5 19.5l104 740h30l-105 -750h-4z" />
    <glyph glyph-name="iogonek" unicode="&#x12f;" horiz-adv-x="245" 
d="M47 -173q-44 0 -60 17.5t-16 41.5q0 31 22.5 64t64.5 53l81 579l30 4l-82 -586h-3q-43 -18 -66 -48t-23 -61q0 -20 13.5 -32.5t45.5 -12.5q40 0 75 19v-16q-39 -22 -82 -22zM184 794q28 0 28 -27q0 -20 -10.5 -28.5t-26.5 -8.5q-13 0 -20.5 4.5t-7.5 18.5q0 19 10 30
t27 11z" />
    <glyph glyph-name="Idotaccent" unicode="&#x130;" horiz-adv-x="310" 
d="M195 750h30l-105 -750h-30zM229 876q25 0 25 -24q0 -20 -9.5 -29.5t-24.5 -9.5q-14 0 -21.5 5.5t-7.5 19.5q0 20 10.5 29t27.5 9z" />
    <glyph glyph-name="dotlessi" unicode="&#x131;" horiz-adv-x="245" 
d="M58 0l81 582l30 3l-82 -585h-29z" />
    <glyph glyph-name="Jcircumflex" unicode="&#x134;" horiz-adv-x="551" 
d="M407 229q-18 -126 -77.5 -182.5t-171.5 -56.5q-45 0 -89 13t-71 36l11 26q31 -26 73.5 -37.5t79.5 -11.5q47 0 83.5 11t63 36.5t44 66t25.5 99.5l73 521h29zM491 913l111 -113h-39l-89 96l-113 -96h-38l138 113h30z" />
    <glyph glyph-name="jcircumflex" unicode="&#x135;" horiz-adv-x="276" 
d="M131 98q-9 -60 -25.5 -102t-43 -70.5t-63.5 -45t-86 -25.5l-1 21q43 8 75.5 23t55.5 40.5t37.5 64t22.5 94.5l68 484l29 4zM224 810l92 -141h-29l-78 126l-112 -126h-27l126 141h28z" />
    <glyph glyph-name="uni0136" unicode="&#x136;" horiz-adv-x="686" 
d="M550 0l-253 382h-139l-53 -382h-30l105 750h30l-48 -341h137l339 341h44l-351 -353l263 -397h-44zM298 -48q15 0 21.5 -6.5t6.5 -15.5t-7 -23.5t-17.5 -31t-24 -34.5t-26.5 -35l-9 6q14 20 27 42t21 45h-3q-12 0 -18.5 6.5t-6.5 15.5q0 13 8.5 22t27.5 9z" />
    <glyph glyph-name="uni0137" unicode="&#x137;" horiz-adv-x="569" 
d="M49 0l112 801l29 5l-56 -403q-2 -10 -3.5 -20.5t-3.5 -19.5l2 -1q22 54 52 97t65 72.5t74 45.5t80 16q57 0 82 -25.5t25 -65.5q0 -71 -61.5 -135t-179.5 -102q15 -50 39.5 -93t56 -75.5t68 -53.5t75.5 -27l-6 -23q-42 4 -82.5 26.5t-75.5 60t-64 88t-47 112.5
q63 16 110 41t77.5 54t45.5 61.5t15 63.5q0 29 -18 49.5t-63 20.5q-48 0 -95 -27.5t-87 -76t-69.5 -116t-40.5 -147.5l-28 -203h-28zM244 -48q15 0 21.5 -6.5t6.5 -15.5t-7 -23.5t-17.5 -31t-24 -34.5t-26.5 -35l-9 6q14 20 27 42t21 45h-3q-12 0 -18.5 6.5t-6.5 15.5
q0 13 8.5 22t27.5 9z" />
    <glyph glyph-name="kgreenlandic" unicode="&#x138;" horiz-adv-x="511" 
d="M45 0l81 582l29 5l-30 -217q-2 -11 -3.5 -23t-3.5 -18h1q40 17 87.5 45.5t94.5 63.5t89.5 73t72.5 73h34q-24 -34 -67 -73t-92.5 -76.5t-101 -69.5t-91.5 -50q20 -45 57.5 -93.5t82 -91.5t90 -74t82.5 -40l-6 -23q-45 12 -94 44t-94.5 75.5t-83.5 95t-62 102.5h-2
q-1 -10 -2 -20.5t-3 -20.5l-37 -269h-28z" />
    <glyph glyph-name="Lacute" unicode="&#x139;" horiz-adv-x="581" 
d="M502 27l-5 -27h-422l105 750h29l-102 -723h395zM379 912l-136 -112h-28l112 112h52z" />
    <glyph glyph-name="lacute" unicode="&#x13a;" horiz-adv-x="226" 
d="M49 0l112 801l29 5l-113 -806h-28zM326 932l-136 -112h-28l112 112h52z" />
    <glyph glyph-name="uni013B" unicode="&#x13b;" horiz-adv-x="581" 
d="M502 27l-5 -27h-422l105 750h29l-102 -723h395zM275 -48q15 0 21.5 -6.5t6.5 -15.5t-7 -23.5t-17.5 -31t-24 -34.5t-26.5 -35l-9 6q14 20 27 42t21 45h-3q-12 0 -18.5 6.5t-6.5 15.5q0 13 8.5 22t27.5 9z" />
    <glyph glyph-name="uni013C" unicode="&#x13c;" horiz-adv-x="226" 
d="M49 0l112 801l29 5l-113 -806h-28zM58 -48q15 0 21.5 -6.5t6.5 -15.5t-7 -23.5t-17.5 -31t-24 -34.5t-26.5 -35l-9 6q14 20 27 42t21 45h-3q-12 0 -18.5 6.5t-6.5 15.5q0 13 8.5 22t27.5 9z" />
    <glyph glyph-name="Lcaron" unicode="&#x13d;" horiz-adv-x="581" 
d="M502 27l-5 -27h-422l105 750h29l-102 -723h395zM454 799q15 0 21.5 -7.5t6.5 -17.5q0 -11 -7 -25.5t-17.5 -30.5t-24 -32.5t-26.5 -32.5l-11 7q14 21 27 42t23 44h-4q-12 0 -18 6.5t-6 15.5q0 13 8.5 22t27.5 9z" />
    <glyph glyph-name="lcaron" unicode="&#x13e;" horiz-adv-x="226" 
d="M49 0l112 801l29 5l-113 -806h-28zM326 806q15 0 21.5 -7.5t6.5 -17.5q0 -11 -7 -25.5t-17.5 -30.5t-24 -32.5t-26.5 -32.5l-11 7q14 21 27 42t23 44h-4q-12 0 -18 6.5t-6 15.5q0 13 8.5 22t27.5 9z" />
    <glyph glyph-name="Ldot" unicode="&#x13f;" horiz-adv-x="581" 
d="M502 27l-5 -27h-422l105 750h29l-102 -723h395zM435 439q26 0 26 -24q0 -18 -9.5 -27.5t-25.5 -9.5q-29 0 -29 23q0 38 38 38z" />
    <glyph glyph-name="ldot" unicode="&#x140;" horiz-adv-x="329" 
d="M49 0l112 801l29 5l-113 -806h-28zM288 412q26 0 26 -23q0 -38 -34 -38q-30 0 -30 24q0 37 38 37z" />
    <glyph glyph-name="Lslash" unicode="&#x141;" horiz-adv-x="598" 
d="M519 27l-5 -27h-422l45 320l-92 -46v26l96 48l56 402h29l-55 -387l258 125v-27l-262 -126l-43 -308h395z" />
    <glyph glyph-name="lslash" unicode="&#x142;" horiz-adv-x="332" 
d="M67 441l106 56l43 304l29 5l-42 -295l113 60l-2 -23l-114 -62l-68 -486h-28l66 473l-104 -56z" />
    <glyph glyph-name="Nacute" unicode="&#x143;" horiz-adv-x="771" 
d="M572 0l-369 715h-2q0 -10 -1 -20.5t-3 -20.5l-94 -674h-28l105 750h39l356 -694h1l2 20q1 10 3 20l92 654h28l-105 -750h-24zM578 912l-136 -112h-28l112 112h52z" />
    <glyph glyph-name="nacute" unicode="&#x144;" horiz-adv-x="586" 
d="M475 382q2 18 3.5 34t1.5 30q0 69 -31 96.5t-94 27.5q-45 0 -85 -16t-71.5 -46.5t-52.5 -74t-28 -97.5l-46 -336h-28l81 582l23 4l-8 -87l-2 -20q-1 -10 -3 -20l2 -1q34 66 90.5 100.5t131.5 34.5t112.5 -36.5t37.5 -114.5q0 -14 -1.5 -28.5t-3.5 -31.5l-53 -382h-29z
M455 811l-126 -141h-28l106 141h48z" />
    <glyph glyph-name="uni0145" unicode="&#x145;" horiz-adv-x="771" 
d="M572 0l-369 715h-2q0 -10 -1 -20.5t-3 -20.5l-94 -674h-28l105 750h39l356 -694h1l2 20q1 10 3 20l92 654h28l-105 -750h-24zM330 -48q15 0 21.5 -6.5t6.5 -15.5t-7 -23.5t-17.5 -31t-24 -34.5t-26.5 -35l-9 6q14 20 27 42t21 45h-3q-12 0 -18.5 6.5t-6.5 15.5
q0 13 8.5 22t27.5 9z" />
    <glyph glyph-name="uni0146" unicode="&#x146;" horiz-adv-x="586" 
d="M475 382q2 18 3.5 34t1.5 30q0 69 -31 96.5t-94 27.5q-45 0 -85 -16t-71.5 -46.5t-52.5 -74t-28 -97.5l-46 -336h-28l81 582l23 4l-8 -87l-2 -20q-1 -10 -3 -20l2 -1q34 66 90.5 100.5t131.5 34.5t112.5 -36.5t37.5 -114.5q0 -14 -1.5 -28.5t-3.5 -31.5l-53 -382h-29z
M257 -48q15 0 21.5 -6.5t6.5 -15.5t-7 -23.5t-17.5 -31t-24 -34.5t-26.5 -35l-9 6q14 20 27 42t21 45h-3q-12 0 -18.5 6.5t-6.5 15.5q0 13 8.5 22t27.5 9z" />
    <glyph glyph-name="Ncaron" unicode="&#x147;" horiz-adv-x="771" 
d="M572 0l-369 715h-2q0 -10 -1 -20.5t-3 -20.5l-94 -674h-28l105 750h39l356 -694h1l2 20q1 10 3 20l92 654h28l-105 -750h-24zM438 800l-108 113h37l88 -97l117 97h36l-140 -113h-30z" />
    <glyph glyph-name="ncaron" unicode="&#x148;" horiz-adv-x="586" 
d="M475 382q2 18 3.5 34t1.5 30q0 69 -31 96.5t-94 27.5q-45 0 -85 -16t-71.5 -46.5t-52.5 -74t-28 -97.5l-46 -336h-28l81 582l23 4l-8 -87l-2 -20q-1 -10 -3 -20l2 -1q34 66 90.5 100.5t131.5 34.5t112.5 -36.5t37.5 -114.5q0 -14 -1.5 -28.5t-3.5 -31.5l-53 -382h-29z
M314 670l-90 141h29l77 -124l112 124h29l-129 -141h-28z" />
    <glyph glyph-name="napostrophe" unicode="&#x149;" horiz-adv-x="586" 
d="M475 382q2 18 3.5 34t1.5 30q0 69 -31 96.5t-94 27.5q-45 0 -85 -16t-71.5 -46.5t-52.5 -74t-28 -97.5l-46 -336h-28l81 582l23 4l-8 -87l-2 -20q-1 -10 -3 -20l2 -1q34 66 90.5 100.5t131.5 34.5t112.5 -36.5t37.5 -114.5q0 -14 -1.5 -28.5t-3.5 -31.5l-53 -382h-29z
M95 806q15 0 21.5 -7.5t6.5 -17.5q0 -11 -7 -25.5t-17.5 -30.5t-24 -32.5t-26.5 -32.5l-11 7q14 21 27 42t23 44h-4q-12 0 -18 6.5t-6 15.5q0 13 8.5 22t27.5 9z" />
    <glyph glyph-name="Eng" unicode="&#x14a;" horiz-adv-x="771" 
d="M602 49q-7 -48 -20.5 -81t-33.5 -53.5t-46 -29t-57 -8.5q-30 0 -54.5 8t-42.5 19l8 22q18 -11 43 -18.5t48 -7.5q53 0 79.5 28.5t38.5 76.5l-362 710h-2q0 -10 -1 -20.5t-3 -20.5l-94 -674h-28l105 750h39l355 -697h1l2 20q1 10 3 20l93 657h28z" />
    <glyph glyph-name="eng" unicode="&#x14b;" horiz-adv-x="586" 
d="M244 -124q44 8 76.5 23t55 40.5t37 64t22.5 94.5l40 284q2 18 3.5 34t1.5 30q0 69 -31 96.5t-94 27.5q-45 0 -85 -16.5t-71.5 -47t-52.5 -74t-28 -97.5l-46 -335h-28l81 582l23 4l-8 -87l-2 -20q-1 -10 -3 -20l2 -1q34 66 90.5 100.5t131.5 34.5t112.5 -36.5t37.5 -114.5
q0 -14 -1.5 -28.5t-3.5 -31.5l-40 -284q-9 -60 -25.5 -102t-43.5 -70.5t-64 -45t-86 -25.5z" />
    <glyph glyph-name="Omacron" unicode="&#x14c;" horiz-adv-x="736" 
d="M658 375q-15 -106 -40 -179.5t-65.5 -120t-98.5 -67.5t-137 -21q-65 0 -111.5 13.5t-76.5 43.5t-44.5 77.5t-14.5 114.5q0 31 3 65.5t8 73.5q15 106 41 180t67 120t99 66.5t138 20.5q64 0 110.5 -13.5t76 -42.5t43.5 -75.5t14 -112.5q0 -62 -12 -143zM628 375
q5 40 8 74.5t3 64.5q0 63 -13 105.5t-39.5 68.5t-67.5 37t-97 11q-69 0 -121 -17t-89 -58.5t-61 -111t-39 -174.5q-5 -39 -8 -73.5t-3 -63.5q0 -63 13 -106t40 -69.5t68.5 -37.5t97.5 -11q69 0 120.5 17.5t88 59t60.5 111t39 173.5zM547 824h-243l3 22h243z" />
    <glyph glyph-name="omacron" unicode="&#x14d;" horiz-adv-x="570" 
d="M315 569q-51 0 -89.5 -15.5t-66.5 -49t-46.5 -86t-28.5 -127.5q-4 -29 -6 -54t-2 -48q0 -96 38.5 -135.5t121.5 -39.5q51 0 89.5 15.5t67 49.5t46.5 87t29 128q4 29 6 54t2 47q0 96 -39.5 135t-121.5 39zM319 593q97 0 141.5 -44.5t44.5 -149.5q0 -23 -2 -49.5t-6 -56.5
q-11 -79 -31 -136t-52 -94t-77 -54.5t-105 -17.5q-97 0 -141.5 44.5t-44.5 148.5q0 46 9 108q11 79 31 135.5t51.5 93.5t76.5 54.5t105 17.5zM460 739h-242l3 21h242z" />
    <glyph glyph-name="Obreve" unicode="&#x14e;" horiz-adv-x="736" 
d="M658 375q-15 -106 -40 -179.5t-65.5 -120t-98.5 -67.5t-137 -21q-65 0 -111.5 13.5t-76.5 43.5t-44.5 77.5t-14.5 114.5q0 31 3 65.5t8 73.5q15 106 41 180t67 120t99 66.5t138 20.5q64 0 110.5 -13.5t76 -42.5t43.5 -75.5t14 -112.5q0 -62 -12 -143zM628 375
q5 40 8 74.5t3 64.5q0 63 -13 105.5t-39.5 68.5t-67.5 37t-97 11q-69 0 -121 -17t-89 -58.5t-61 -111t-39 -174.5q-5 -39 -8 -73.5t-3 -63.5q0 -63 13 -106t40 -69.5t68.5 -37.5t97.5 -11q69 0 120.5 17.5t88 59t60.5 111t39 173.5zM580 916q-8 -55 -45.5 -86.5
t-106.5 -31.5q-60 0 -92.5 24t-32.5 72q0 5 0.5 10.5t1.5 11.5h25q-1 -5 -1 -9v-7q0 -43 29 -61.5t73 -18.5q50 0 84 22.5t40 73.5h25z" />
    <glyph glyph-name="obreve" unicode="&#x14f;" horiz-adv-x="570" 
d="M315 569q-51 0 -89.5 -15.5t-66.5 -49t-46.5 -86t-28.5 -127.5q-4 -29 -6 -54t-2 -48q0 -96 38.5 -135.5t121.5 -39.5q51 0 89.5 15.5t67 49.5t46.5 87t29 128q4 29 6 54t2 47q0 96 -39.5 135t-121.5 39zM319 593q97 0 141.5 -44.5t44.5 -149.5q0 -23 -2 -49.5t-6 -56.5
q-11 -79 -31 -136t-52 -94t-77 -54.5t-105 -17.5q-97 0 -141.5 44.5t-44.5 148.5q0 46 9 108q11 79 31 135.5t51.5 93.5t76.5 54.5t105 17.5zM470 810q-9 -67 -45 -107.5t-96 -40.5q-106 0 -106 112q0 16 3 36h25q-1 -8 -1.5 -15t-0.5 -14q0 -48 22.5 -72.5t60.5 -24.5
q43 0 74 32t39 94h25z" />
    <glyph glyph-name="Ohungarumlaut" unicode="&#x150;" horiz-adv-x="736" 
d="M658 375q-15 -106 -40 -179.5t-65.5 -120t-98.5 -67.5t-137 -21q-65 0 -111.5 13.5t-76.5 43.5t-44.5 77.5t-14.5 114.5q0 31 3 65.5t8 73.5q15 106 41 180t67 120t99 66.5t138 20.5q64 0 110.5 -13.5t76 -42.5t43.5 -75.5t14 -112.5q0 -62 -12 -143zM628 375
q5 40 8 74.5t3 64.5q0 63 -13 105.5t-39.5 68.5t-67.5 37t-97 11q-69 0 -121 -17t-89 -58.5t-61 -111t-39 -174.5q-5 -39 -8 -73.5t-3 -63.5q0 -63 13 -106t40 -69.5t68.5 -37.5t97.5 -11q69 0 120.5 17.5t88 59t60.5 111t39 173.5zM497 916l-122 -115h-25l102 115h45z
M624 916l-138 -115h-28l120 115h46z" />
    <glyph glyph-name="ohungarumlaut" unicode="&#x151;" horiz-adv-x="570" 
d="M315 569q-51 0 -89.5 -15.5t-66.5 -49t-46.5 -86t-28.5 -127.5q-4 -29 -6 -54t-2 -48q0 -96 38.5 -135.5t121.5 -39.5q51 0 89.5 15.5t67 49.5t46.5 87t29 128q4 29 6 54t2 47q0 96 -39.5 135t-121.5 39zM319 593q97 0 141.5 -44.5t44.5 -149.5q0 -23 -2 -49.5t-6 -56.5
q-11 -79 -31 -136t-52 -94t-77 -54.5t-105 -17.5q-97 0 -141.5 44.5t-44.5 148.5q0 46 9 108q11 79 31 135.5t51.5 93.5t76.5 54.5t105 17.5zM407 810l-128 -141h-24l109 141h43zM526 810l-128 -141h-26l112 141h42z" />
    <glyph glyph-name="OE" unicode="&#x152;" horiz-adv-x="1126" 
d="M573 0l16 114q2 10 3.5 20.5t3.5 20.5l-2 1q-39 -89 -109.5 -129t-171.5 -40q-63 0 -109 13.5t-76 43.5t-44 77t-14 114q0 31 2.5 65.5t8.5 74.5q15 106 41 180t66.5 120t98 66.5t135.5 20.5q103 0 161.5 -37t72.5 -124h2q1 10 2 20.5t3 20.5l15 108h423l-2 -27h-397
l-44 -314h346l-4 -26h-346l-50 -356h416l-5 -27h-442zM624 375q12 82 12 142q0 62 -12.5 104t-39 67.5t-67 36.5t-95.5 11q-69 0 -121 -17t-89 -58.5t-61 -111t-39 -174.5q-5 -39 -8 -73.5t-3 -63.5q0 -63 13 -106.5t40 -69.5t68.5 -37.5t97.5 -11.5q69 0 119.5 17.5
t86.5 59.5t59.5 111.5t38.5 173.5z" />
    <glyph glyph-name="oe" unicode="&#x153;" horiz-adv-x="915" 
d="M319 593q92 0 135.5 -42t43.5 -141l2 -1q31 91 88 137.5t145 46.5q75 0 111.5 -30t36.5 -78q0 -38 -19.5 -70.5t-64.5 -59t-119.5 -47t-183.5 -33.5q-6 -45 -6 -81q0 -51 10.5 -85t31 -55t49.5 -30t66 -9q108 0 179 66l11 -18q-37 -35 -86.5 -53.5t-110.5 -18.5
q-39 0 -70.5 9.5t-53.5 31.5t-34.5 57t-13.5 85h-2q-29 -96 -84.5 -139.5t-147.5 -43.5q-97 0 -141.5 44.5t-44.5 148.5q0 46 9 108q11 79 31 135.5t51.5 93.5t76.5 54.5t105 17.5zM315 569q-51 0 -89.5 -15.5t-66.5 -49t-46.5 -86t-28.5 -127.5q-4 -29 -6 -54t-2 -48
q0 -96 38.5 -135.5t121.5 -39.5q51 0 89.5 15.5t67 49.5t46.5 87t29 128q4 29 6 54t2 47q0 96 -39.5 135t-121.5 39zM737 570q-99 0 -159 -66t-80 -203q103 10 171.5 28t110 41t58.5 51.5t17 60.5q0 38 -27.5 63t-90.5 25z" />
    <glyph glyph-name="Racute" unicode="&#x154;" horiz-adv-x="644" 
d="M413 750q91 0 133 -36t42 -109q0 -62 -14.5 -105.5t-41 -72.5t-64.5 -44t-84 -19l172 -364h-39l-165 361h-197l-50 -361h-30l105 750h233zM159 387h196q45 0 82.5 11.5t64.5 37t42 66t15 98.5q0 66 -37 94.5t-113 28.5h-203zM488 912l-136 -112h-28l112 112h52z" />
    <glyph glyph-name="racute" unicode="&#x155;" horiz-adv-x="421" 
d="M352 592q20 0 37 -3.5t30 -8.5l-7 -25q-28 11 -65 11q-41 0 -79.5 -18.5t-69.5 -54.5t-53.5 -89.5t-32.5 -123.5l-39 -280h-28l81 582l25 4l-15 -128q-2 -10 -3 -20t-3 -20l2 -1q19 47 43.5 80t53 54t60 31t63.5 10zM377 810l-126 -141h-28l106 141h48z" />
    <glyph glyph-name="uni0156" unicode="&#x156;" horiz-adv-x="644" 
d="M413 750q91 0 133 -36t42 -109q0 -62 -14.5 -105.5t-41 -72.5t-64.5 -44t-84 -19l172 -364h-39l-165 361h-197l-50 -361h-30l105 750h233zM159 387h196q45 0 82.5 11.5t64.5 37t42 66t15 98.5q0 66 -37 94.5t-113 28.5h-203zM281 -48q15 0 21.5 -6.5t6.5 -15.5t-7 -23.5
t-17.5 -31t-24 -34.5t-26.5 -35l-9 6q14 20 27 42t21 45h-3q-12 0 -18.5 6.5t-6.5 15.5q0 13 8.5 22t27.5 9z" />
    <glyph glyph-name="uni0157" unicode="&#x157;" horiz-adv-x="421" 
d="M352 592q20 0 37 -3.5t30 -8.5l-7 -25q-28 11 -65 11q-41 0 -79.5 -18.5t-69.5 -54.5t-53.5 -89.5t-32.5 -123.5l-39 -280h-28l81 582l25 4l-15 -128q-2 -10 -3 -20t-3 -20l2 -1q19 47 43.5 80t53 54t60 31t63.5 10zM48 -48q15 0 21.5 -6.5t6.5 -15.5t-7 -23.5t-17.5 -31
t-24 -34.5t-26.5 -35l-9 6q14 20 27 42t21 45h-3q-12 0 -18.5 6.5t-6.5 15.5q0 13 8.5 22t27.5 9z" />
    <glyph glyph-name="Rcaron" unicode="&#x158;" horiz-adv-x="644" 
d="M413 750q91 0 133 -36t42 -109q0 -62 -14.5 -105.5t-41 -72.5t-64.5 -44t-84 -19l172 -364h-39l-165 361h-197l-50 -361h-30l105 750h233zM159 387h196q45 0 82.5 11.5t64.5 37t42 66t15 98.5q0 66 -37 94.5t-113 28.5h-203zM336 800l-108 113h37l88 -97l117 97h36
l-140 -113h-30z" />
    <glyph glyph-name="rcaron" unicode="&#x159;" horiz-adv-x="421" 
d="M354 592q20 0 37 -3.5t30 -8.5l-7 -25q-28 11 -65 11q-41 0 -79.5 -18.5t-69.5 -54.5t-53.5 -89.5t-32.5 -123.5l-39 -280h-28l81 582l25 4l-15 -128q-2 -10 -3 -20t-3 -20l2 -1q19 47 43.5 80t53 54t60 31t63.5 10zM243 669l-90 141h29l77 -124l112 124h29l-129 -141
h-28z" />
    <glyph glyph-name="Sacute" unicode="&#x15a;" horiz-adv-x="560" 
d="M351 762q55 0 100 -11t80 -31l-12 -25q-39 20 -79 30.5t-91 10.5q-56 0 -96.5 -15.5t-67.5 -41t-40 -58t-13 -67.5q0 -46 26 -73t65 -45t85 -32.5t85 -35t65 -52.5t26 -85q0 -7 -0.5 -15t-1.5 -16q-12 -99 -78.5 -156t-183.5 -57q-65 0 -113.5 16t-86.5 43l13 26
q38 -29 83.5 -44t106.5 -15q51 0 93.5 14.5t73 42t47.5 66.5t17 88q0 48 -26 77t-65 48t-85 34t-85 34.5t-65 49.5t-26 81q0 45 16.5 84t48 68t78 45.5t106.5 16.5zM465 912l-136 -112h-28l112 112h52z" />
    <glyph glyph-name="sacute" unicode="&#x15b;" horiz-adv-x="487" 
d="M291 593q36 0 77 -9.5t71 -27.5l-13 -21q-31 17 -68 25.5t-72 8.5q-38 0 -69 -9.5t-53.5 -26t-35 -39.5t-12.5 -50q0 -34 21.5 -55.5t53.5 -37.5t69.5 -30t69.5 -33t53.5 -45.5t21.5 -67.5t-14.5 -74.5t-42 -57.5t-67 -37.5t-89.5 -13.5q-52 0 -98.5 17.5t-73.5 46.5
l15 21q27 -29 69.5 -44.5t90.5 -15.5q44 0 77.5 12t56.5 32.5t34.5 48t11.5 58.5q0 37 -21.5 61.5t-53.5 42t-69.5 31.5t-69.5 32t-53.5 42t-21.5 62q0 37 14.5 65.5t41.5 48t64.5 30t84.5 10.5zM408 810l-126 -141h-28l106 141h48z" />
    <glyph glyph-name="Scircumflex" unicode="&#x15c;" horiz-adv-x="560" 
d="M351 762q55 0 100 -11t80 -31l-12 -25q-39 20 -79 30.5t-91 10.5q-56 0 -96.5 -15.5t-67.5 -41t-40 -58t-13 -67.5q0 -46 26 -73t65 -45t85 -32.5t85 -35t65 -52.5t26 -85q0 -7 -0.5 -15t-1.5 -16q-12 -99 -78.5 -156t-183.5 -57q-65 0 -113.5 16t-86.5 43l13 26
q38 -29 83.5 -44t106.5 -15q51 0 93.5 14.5t73 42t47.5 66.5t17 88q0 48 -26 77t-65 48t-85 34t-85 34.5t-65 49.5t-26 81q0 45 16.5 84t48 68t78 45.5t106.5 16.5zM395 913l111 -113h-39l-89 96l-113 -96h-38l138 113h30z" />
    <glyph glyph-name="scircumflex" unicode="&#x15d;" horiz-adv-x="487" 
d="M291 593q36 0 77 -9.5t71 -27.5l-13 -21q-31 17 -68 25.5t-72 8.5q-38 0 -69 -9.5t-53.5 -26t-35 -39.5t-12.5 -50q0 -34 21.5 -55.5t53.5 -37.5t69.5 -30t69.5 -33t53.5 -45.5t21.5 -67.5t-14.5 -74.5t-42 -57.5t-67 -37.5t-89.5 -13.5q-52 0 -98.5 17.5t-73.5 46.5
l15 21q27 -29 69.5 -44.5t90.5 -15.5q44 0 77.5 12t56.5 32.5t34.5 48t11.5 58.5q0 37 -21.5 61.5t-53.5 42t-69.5 31.5t-69.5 32t-53.5 42t-21.5 62q0 37 14.5 65.5t41.5 48t64.5 30t84.5 10.5zM313 810l92 -141h-29l-78 126l-112 -126h-27l126 141h28z" />
    <glyph glyph-name="Scedilla" unicode="&#x15e;" horiz-adv-x="560" 
d="M219 -13q-65 0 -113 16t-86 43l13 26q38 -29 83.5 -44t106.5 -15q51 0 93.5 14.5t73 42t47.5 66.5t17 88q0 48 -26 77t-65 48t-85 34t-85 34.5t-65 49.5t-26 81q0 45 16.5 84t48 68t78 45.5t106.5 16.5q55 0 100 -11t80 -31l-12 -25q-39 20 -79 30.5t-91 10.5
q-56 0 -96.5 -15.5t-67.5 -41t-40 -58t-13 -67.5q0 -46 26 -73t65 -45t85 -32.5t85 -35t65 -52.5t26 -85q0 -54 -17 -97.5t-48.5 -75t-76 -49.5t-98.5 -21l-65 -181h-38z" />
    <glyph glyph-name="scedilla" unicode="&#x15f;" horiz-adv-x="487" 
d="M180 -8q-48 2 -91 19.5t-69 44.5l15 21q27 -29 69.5 -44.5t90.5 -15.5q44 0 77.5 12t56.5 32.5t34.5 48t11.5 58.5q0 37 -21.5 61.5t-53.5 42t-69.5 31.5t-69.5 32t-53.5 42t-21.5 62q0 37 14.5 65.5t41.5 48t64.5 30t84.5 10.5q36 0 77 -9.5t71 -27.5l-13 -21
q-31 17 -68 25.5t-72 8.5q-38 0 -69 -9.5t-53.5 -26t-35 -39.5t-12.5 -50q0 -34 21.5 -55.5t53.5 -37.5t69.5 -30t69.5 -33t53.5 -45.5t21.5 -67.5q0 -79 -52.5 -129t-147.5 -54l-66 -185h-38z" />
    <glyph glyph-name="Scaron" unicode="&#x160;" horiz-adv-x="560" 
d="M351 762q55 0 100 -11t80 -31l-12 -25q-39 20 -79 30.5t-91 10.5q-56 0 -96.5 -15.5t-67.5 -41t-40 -58t-13 -67.5q0 -46 26 -73t65 -45t85 -32.5t85 -35t65 -52.5t26 -85q0 -7 -0.5 -15t-1.5 -16q-12 -99 -78.5 -156t-183.5 -57q-65 0 -113.5 16t-86.5 43l13 26
q38 -29 83.5 -44t106.5 -15q51 0 93.5 14.5t73 42t47.5 66.5t17 88q0 48 -26 77t-65 48t-85 34t-85 34.5t-65 49.5t-26 81q0 45 16.5 84t48 68t78 45.5t106.5 16.5zM351 800l-108 113h37l88 -97l117 97h36l-140 -113h-30z" />
    <glyph glyph-name="scaron" unicode="&#x161;" horiz-adv-x="487" 
d="M291 593q36 0 77 -9.5t71 -27.5l-13 -21q-31 17 -68 25.5t-72 8.5q-38 0 -69 -9.5t-53.5 -26t-35 -39.5t-12.5 -50q0 -34 21.5 -55.5t53.5 -37.5t69.5 -30t69.5 -33t53.5 -45.5t21.5 -67.5t-14.5 -74.5t-42 -57.5t-67 -37.5t-89.5 -13.5q-52 0 -98.5 17.5t-73.5 46.5
l15 21q27 -29 69.5 -44.5t90.5 -15.5q44 0 77.5 12t56.5 32.5t34.5 48t11.5 58.5q0 37 -21.5 61.5t-53.5 42t-69.5 31.5t-69.5 32t-53.5 42t-21.5 62q0 37 14.5 65.5t41.5 48t64.5 30t84.5 10.5zM284 669l-90 141h29l77 -124l112 124h29l-129 -141h-28z" />
    <glyph glyph-name="uni0162" unicode="&#x162;" horiz-adv-x="568" 
d="M221 0h-2l101 723h-248l5 27h524l-3 -27h-249l-101 -723h-3l-69 -193h-38z" />
    <glyph glyph-name="uni0163" unicode="&#x163;" horiz-adv-x="405" 
d="M78 585h94l29 165l23 8l-24 -173h182l-6 -21h-179l-55 -393q-2 -16 -3.5 -30t-1.5 -26q0 -53 20.5 -76t58.5 -23q26 0 50 9t46 24l8 -17q-23 -16 -46 -26.5t-54 -12.5l-66 -186h-38l80 187q-44 3 -66 29.5t-22 84.5q0 14 1.5 29.5t3.5 33.5l55 393h-96z" />
    <glyph glyph-name="Tcaron" unicode="&#x164;" horiz-adv-x="568" 
d="M349 723l-101 -723h-29l101 723h-248l5 27h524l-3 -27h-249zM330 800l-108 113h37l88 -97l117 97h36l-140 -113h-30z" />
    <glyph glyph-name="tcaron" unicode="&#x165;" horiz-adv-x="405" 
d="M78 585h94l29 165l23 8l-24 -173h182l-6 -21h-179l-55 -393q-2 -16 -3.5 -30t-1.5 -26q0 -53 20.5 -76t58.5 -23q26 0 50 9t46 24l8 -17q-24 -17 -49.5 -28t-60.5 -11q-51 0 -76.5 26t-25.5 89q0 14 1.5 29.5t3.5 33.5l55 393h-96zM471 806q15 0 21.5 -7.5t6.5 -17.5
q0 -11 -7 -25.5t-17.5 -30.5t-24 -32.5t-26.5 -32.5l-11 7q14 21 27 42t23 44h-4q-12 0 -18 6.5t-6 15.5q0 13 8.5 22t27.5 9z" />
    <glyph glyph-name="Tbar" unicode="&#x166;" horiz-adv-x="568" 
d="M349 723l-31 -220h159l-3 -23h-159l-67 -480h-29l67 480h-135l3 23h135l31 220h-248l5 27h524l-3 -27h-249z" />
    <glyph glyph-name="tbar" unicode="&#x167;" horiz-adv-x="405" 
d="M78 585h95l29 165l23 8l-24 -173h182l-7 -21h-178l-17 -117h173l-6 -22h-170l-35 -254q-2 -16 -3.5 -30t-1.5 -26q0 -53 20.5 -76t58.5 -23q26 0 50 9t46 24l8 -17q-24 -17 -49.5 -28t-60.5 -11q-51 0 -76.5 26t-25.5 89q0 14 1.5 29.5t3.5 33.5l35 254h-93l6 21h90
l17 118h-96z" />
    <glyph glyph-name="Utilde" unicode="&#x168;" horiz-adv-x="748" 
d="M629 272q-11 -77 -37 -131.5t-65 -88.5t-91 -49.5t-114 -15.5q-54 0 -97 12t-73 37.5t-46 66.5t-16 98q0 17 1 34t4 37l67 478h29l-67 -478q-2 -18 -3.5 -34.5t-1.5 -31.5q0 -100 51.5 -146t154.5 -46q119 0 187.5 62t87.5 196l67 478h29zM307 803q12 38 32 63t49 25
q18 0 31.5 -13t25.5 -29t23.5 -29t26.5 -13q33 0 55 67h19q-11 -38 -30 -62.5t-48 -24.5q-18 0 -31.5 13t-25.5 28t-24 28t-27 13q-18 0 -31.5 -18.5t-24.5 -47.5h-20z" />
    <glyph glyph-name="utilde" unicode="&#x169;" horiz-adv-x="573" 
d="M462 177q-13 -87 -69.5 -138t-158.5 -51q-91 0 -134.5 40.5t-43.5 111.5q0 17 3 37l57 405l30 4l-57 -407q-3 -18 -3 -34q0 -63 38.5 -96.5t113.5 -33.5q85 0 135 42t61 122l57 405h29zM395 690q-20 0 -33.5 13t-25.5 28.5t-24.5 28.5t-28.5 13q-20 0 -33 -19t-24 -54
h-22q13 45 35 70t48 25q20 0 34 -13t26 -28.5t24.5 -28.5t28.5 -13q35 0 58 73h21q-13 -45 -35 -70t-49 -25z" />
    <glyph glyph-name="Umacron" unicode="&#x16a;" horiz-adv-x="748" 
d="M629 272q-11 -77 -37 -131.5t-65 -88.5t-91 -49.5t-114 -15.5q-54 0 -97 12t-73 37.5t-46 66.5t-16 98q0 17 1 34t4 37l67 478h29l-67 -478q-2 -18 -3.5 -34.5t-1.5 -31.5q0 -100 51.5 -146t154.5 -46q119 0 187.5 62t87.5 196l67 478h29zM557 824h-243l3 22h243z" />
    <glyph glyph-name="umacron" unicode="&#x16b;" horiz-adv-x="573" 
d="M462 177q-13 -87 -69.5 -138t-158.5 -51q-91 0 -134.5 40.5t-43.5 111.5q0 17 3 37l57 405l30 4l-57 -407q-3 -18 -3 -34q0 -63 38.5 -96.5t113.5 -33.5q85 0 135 42t61 122l57 405h29zM453 740h-242l3 21h242z" />
    <glyph glyph-name="Ubreve" unicode="&#x16c;" horiz-adv-x="748" 
d="M629 272q-11 -77 -37 -131.5t-65 -88.5t-91 -49.5t-114 -15.5q-54 0 -97 12t-73 37.5t-46 66.5t-16 98q0 17 1 34t4 37l67 478h29l-67 -478q-2 -18 -3.5 -34.5t-1.5 -31.5q0 -100 51.5 -146t154.5 -46q119 0 187.5 62t87.5 196l67 478h29zM587 916q-8 -55 -45.5 -86.5
t-106.5 -31.5q-60 0 -92.5 24t-32.5 72q0 5 0.5 10.5t1.5 11.5h25q-1 -5 -1 -9v-7q0 -43 29 -61.5t73 -18.5q50 0 84 22.5t40 73.5h25z" />
    <glyph glyph-name="ubreve" unicode="&#x16d;" horiz-adv-x="573" 
d="M462 177q-13 -87 -69.5 -138t-158.5 -51q-91 0 -134.5 40.5t-43.5 111.5q0 17 3 37l57 405l30 4l-57 -407q-3 -18 -3 -34q0 -63 38.5 -96.5t113.5 -33.5q85 0 135 42t61 122l57 405h29zM468 811q-9 -67 -45 -107.5t-96 -40.5q-106 0 -106 112q0 16 3 36h25
q-1 -8 -1.5 -15t-0.5 -14q0 -48 22.5 -72.5t60.5 -24.5q43 0 74 32t39 94h25z" />
    <glyph glyph-name="Uring" unicode="&#x16e;" horiz-adv-x="748" 
d="M629 272q-11 -77 -37 -131.5t-65 -88.5t-91 -49.5t-114 -15.5q-54 0 -97 12t-73 37.5t-46 66.5t-16 98q0 17 1 34t4 37l67 478h29l-67 -478q-2 -18 -3.5 -34.5t-1.5 -31.5q0 -100 51.5 -146t154.5 -46q119 0 187.5 62t87.5 196l67 478h29zM443 859q26 0 42 -14t16 -37
q0 -31 -21.5 -50.5t-53.5 -19.5q-26 0 -41.5 13t-15.5 36q0 29 21.5 50.5t52.5 21.5zM440 841q-22 0 -37 -14.5t-15 -34.5q0 -17 10.5 -27t29.5 -10q23 0 37.5 14.5t14.5 36.5q0 15 -10.5 25t-29.5 10z" />
    <glyph glyph-name="uring" unicode="&#x16f;" horiz-adv-x="573" 
d="M462 177q-13 -87 -69.5 -138t-158.5 -51q-91 0 -134.5 40.5t-43.5 111.5q0 17 3 37l57 405l30 4l-57 -407q-3 -18 -3 -34q0 -63 38.5 -96.5t113.5 -33.5q85 0 135 42t61 122l57 405h29zM352 817q30 0 48 -16.5t18 -42.5q0 -35 -24.5 -57.5t-60.5 -22.5q-31 0 -49 17
t-18 43q0 33 25.5 56t60.5 23zM350 800q-27 0 -45.5 -18.5t-18.5 -42.5q0 -20 13 -32t36 -12q27 0 45.5 17t18.5 44q0 19 -13.5 31.5t-35.5 12.5z" />
    <glyph glyph-name="Uhungarumlaut" unicode="&#x170;" horiz-adv-x="748" 
d="M629 272q-11 -77 -37 -131.5t-65 -88.5t-91 -49.5t-114 -15.5q-54 0 -97 12t-73 37.5t-46 66.5t-16 98q0 17 1 34t4 37l67 478h29l-67 -478q-2 -18 -3.5 -34.5t-1.5 -31.5q0 -100 51.5 -146t154.5 -46q119 0 187.5 62t87.5 196l67 478h29zM485 916l-122 -115h-25l102 115
h45zM612 916l-138 -115h-28l120 115h46z" />
    <glyph glyph-name="uhungarumlaut" unicode="&#x171;" horiz-adv-x="573" 
d="M462 177q-13 -87 -69.5 -138t-158.5 -51q-91 0 -134.5 40.5t-43.5 111.5q0 17 3 37l57 405l30 4l-57 -407q-3 -18 -3 -34q0 -63 38.5 -96.5t113.5 -33.5q85 0 135 42t61 122l57 405h29zM393 811l-128 -141h-24l109 141h43zM512 811l-128 -141h-26l112 141h42z" />
    <glyph glyph-name="Uogonek" unicode="&#x172;" horiz-adv-x="748" 
d="M386 -173q-44 0 -60 17.5t-16 41.5q0 22 15.5 53t55.5 54q-18 -4 -31.5 -5t-27.5 -1q-54 0 -97 12t-73 37.5t-46 66.5t-16 98q0 17 1 34t4 37l67 478h29l-67 -478q-2 -18 -3.5 -34.5t-1.5 -31.5q0 -100 51.5 -146t154.5 -46q119 0 187.5 62t87.5 196l67 478h29l-67 -478
q-17 -119 -68.5 -183.5t-132.5 -87.5q-16 -5 -33 -15t-30.5 -24.5t-22 -32.5t-8.5 -38t13.5 -32.5t45.5 -12.5q40 0 75 19v-16q-39 -22 -82 -22z" />
    <glyph glyph-name="uogonek" unicode="&#x173;" horiz-adv-x="573" 
d="M256 -173q-44 0 -60 17.5t-16 41.5q0 23 14.5 51.5t50.5 50.5h-11q-91 0 -134.5 40.5t-43.5 111.5q0 17 3 37l57 405l30 4l-57 -407q-3 -18 -3 -34q0 -63 38.5 -96.5t113.5 -33.5q85 0 135 42t61 122l57 405h29l-58 -407q-11 -76 -54.5 -124t-121.5 -61q-15 -3 -30 -12.5
t-26.5 -23.5t-18.5 -31t-7 -34q0 -20 13.5 -32.5t45.5 -12.5q40 0 75 19v-16q-39 -22 -82 -22z" />
    <glyph glyph-name="Wcircumflex" unicode="&#x174;" horiz-adv-x="984" 
d="M566 750l87 -681q2 -11 2.5 -22t1.5 -19h2q2 9 5.5 19t7.5 19l263 684h30l-291 -750h-41l-85 679q-2 10 -2.5 20.5t-1.5 20.5h-2q-3 -10 -6.5 -19.5t-7.5 -18.5l-277 -682h-41l-81 750h30l70 -683q1 -10 2 -20.5t1 -20.5h2q3 9 6.5 19t7.5 19l280 686h38zM570 913
l111 -113h-39l-89 96l-113 -96h-38l138 113h30z" />
    <glyph glyph-name="wcircumflex" unicode="&#x175;" horiz-adv-x="867" 
d="M495 810l92 -141h-29l-78 126l-112 -126h-27l126 141h28zM787 593q11 -28 16.5 -55.5t5.5 -62.5q0 -76 -16 -142t-41 -120t-56.5 -95.5t-62.5 -70t-58.5 -43t-45.5 -14.5q-20 0 -41 15.5t-38 48t-27.5 81t-10.5 114.5v8q0 4 1 9h-1q-23 -71 -55.5 -123t-65.5 -86
t-61 -50.5t-43 -16.5q-20 0 -39.5 17t-35.5 49.5t-25.5 80.5t-9.5 111q0 55 9 121l30 213l30 4l-31 -217q-5 -34 -7 -64.5t-2 -57.5q0 -58 8 -101t21 -72t28.5 -43.5t29.5 -14.5t46 25t68 73t67.5 118t44.5 160l27 192h29l-30 -214q-9 -66 -9 -120q0 -58 9 -102t23 -73
t31.5 -44t34.5 -15q11 0 34 14t50.5 40.5t56 65.5t52 89.5t38.5 111.5t15 132q0 32 -4.5 59t-13.5 53z" />
    <glyph glyph-name="Ycircumflex" unicode="&#x176;" horiz-adv-x="642" 
d="M130 750l169 -409q4 -9 7.5 -19t6.5 -19h2q5 8 10.5 17t11.5 17l287 413h35l-334 -477l-38 -273h-30l38 273l-202 477h37zM409 913l111 -113h-39l-89 96l-113 -96h-38l138 113h30z" />
    <glyph glyph-name="ycircumflex" unicode="&#x177;" horiz-adv-x="563" 
d="M523 584q-32 -110 -75 -216.5t-98.5 -201.5t-123 -174t-147.5 -134l-14 21q31 23 55.5 44t46 41.5t40 42.5t37.5 47l-173 529l29 2l151 -469q3 -10 6 -19.5t5 -19.5h2q66 94 125.5 218.5t104.5 288.5h29zM347 810l92 -141h-29l-78 126l-112 -126h-27l126 141h28z" />
    <glyph glyph-name="Ydieresis" unicode="&#x178;" horiz-adv-x="642" 
d="M130 750l169 -409q4 -9 7.5 -19t6.5 -19h2q5 8 10.5 17t11.5 17l287 413h35l-334 -477l-38 -273h-30l38 273l-202 477h37zM301 868q21 0 21 -22q0 -17 -8.5 -24.5t-19.5 -7.5q-21 0 -21 19q0 35 28 35zM486 868q21 0 21 -21q0 -17 -8 -25t-20 -8q-21 0 -21 19q0 35 28 35
z" />
    <glyph glyph-name="Zacute" unicode="&#x179;" horiz-adv-x="617" 
d="M12 0l2 19l526 673q6 8 12 15t14 14l-1 2h-437l6 27h471l-3 -24l-523 -668q-12 -15 -26 -29l1 -2h450l-6 -27h-486zM503 912l-136 -112h-28l112 112h52z" />
    <glyph glyph-name="zacute" unicode="&#x17a;" horiz-adv-x="546" 
d="M92 56q-12 -15 -26 -29l1 -2h359l-5 -25h-391l2 19l409 511q12 15 26 29l-1 2h-345l6 23h375l-3 -21zM438 810l-126 -141h-28l106 141h48z" />
    <glyph glyph-name="Zdotaccent" unicode="&#x17b;" horiz-adv-x="617" 
d="M12 0l2 19l526 673q6 8 12 15t14 14l-1 2h-437l6 27h471l-3 -24l-523 -668q-12 -15 -26 -29l1 -2h450l-6 -27h-486zM393 876q25 0 25 -24q0 -20 -9.5 -29.5t-24.5 -9.5q-14 0 -21.5 5.5t-7.5 19.5q0 20 10.5 29t27.5 9z" />
    <glyph glyph-name="zdotaccent" unicode="&#x17c;" horiz-adv-x="546" 
d="M92 56q-12 -15 -26 -29l1 -2h359l-5 -25h-391l2 19l409 511q12 15 26 29l-1 2h-345l6 23h375l-3 -21zM343 794q28 0 28 -27q0 -20 -10.5 -28.5t-26.5 -8.5q-13 0 -20.5 4.5t-7.5 18.5q0 19 10 30t27 11z" />
    <glyph glyph-name="Zcaron" unicode="&#x17d;" horiz-adv-x="617" 
d="M12 0l2 19l526 673q6 8 12 15t14 14l-1 2h-437l6 27h471l-3 -24l-523 -668q-12 -15 -26 -29l1 -2h450l-6 -27h-486zM370 800l-108 113h37l88 -97l117 97h36l-140 -113h-30z" />
    <glyph glyph-name="zcaron" unicode="&#x17e;" horiz-adv-x="546" 
d="M92 56q-12 -15 -26 -29l1 -2h359l-5 -25h-391l2 19l409 511q12 15 26 29l-1 2h-345l6 23h375l-3 -21zM294 669l-90 141h29l77 -124l112 124h29l-129 -141h-28z" />
    <glyph glyph-name="longs" unicode="&#x17f;" horiz-adv-x="277" 
d="M57 584h101q9 65 27 107t46.5 66.5t68 34t91.5 9.5l-2 -22q-37 0 -70 -6.5t-59.5 -27t-45.5 -59.5t-28 -103l-68 -485q-8 -60 -25 -102t-43.5 -70.5t-64 -45t-86.5 -25.5v21q43 8 75.5 23t55 40.5t37 64t22.5 94.5l66 466h-103z" />
    <glyph glyph-name="uni018F" unicode="&#x18f;" horiz-adv-x="736" 
d="M630 389q3 27 5 51.5t2 46.5q0 70 -16.5 117.5t-47 76t-75 41t-100.5 12.5q-67 0 -122.5 -11.5t-93.5 -31.5l-4 24q17 9 41.5 17.5t54 14.5t62.5 10t66 4q127 0 196 -64.5t69 -211.5q0 -25 -2 -52.5t-6 -57.5q-14 -106 -39.5 -179.5t-66.5 -120t-99 -67.5t-137 -21
q-128 0 -187.5 57t-59.5 189q0 32 3 73t12 83h545zM320 14q67 0 118 17t87.5 57t61 106.5t39.5 165.5h-516q-9 -69 -9 -123q0 -63 13 -106t40 -69t68.5 -37t97.5 -11z" />
    <glyph glyph-name="florin" unicode="&#x192;" horiz-adv-x="391" 
d="M-54 -142l249 702h-64l10 24h64l21 66q20 63 62 93.5t103 30.5q20 0 38.5 -4t30.5 -9l-12 -21q-12 5 -28 8.5t-32 3.5q-100 0 -132 -102l-21 -66h162l-10 -24h-163l-249 -702h-29z" />
    <glyph glyph-name="uni01B5" unicode="&#x1b5;" horiz-adv-x="617" 
d="M12 0l2 19l285 365h-181l5 21h193l224 287q6 8 12 15t14 14l-1 2h-437l6 27h471l-3 -24l-252 -321h180l-5 -21h-191l-255 -326q-12 -15 -26 -29l1 -2h450l-6 -27h-486z" />
    <glyph glyph-name="uni01B6" unicode="&#x1b6;" horiz-adv-x="546" 
d="M296 311h132l-6 -22h-143l-187 -233q-12 -15 -26 -29l1 -2h359l-5 -25h-391l2 19l216 270h-125l5 22h137l176 219q12 15 26 29l-1 2h-345l6 23h375l-3 -21z" />
    <glyph glyph-name="Aringacute" unicode="&#x1fa;" horiz-adv-x="687" 
d="M566 953l-124 -102q30 -13 30 -46q0 -25 -14.5 -43t-37.5 -24l185 -738h-34l-54 219h-387l-115 -219h-33l393 737q-35 11 -35 47q0 29 21.5 50.5t52.5 21.5h3l97 97h52zM394 722q-4 -9 -8.5 -18t-9.5 -18l-232 -441h367l-107 437l-8 40h-2zM411 838q-22 0 -37 -14.5
t-15 -34.5q0 -17 10.5 -27t29.5 -10q23 0 37.5 14.5t14.5 36.5q0 15 -10.5 25t-29.5 10z" />
    <glyph glyph-name="aringacute" unicode="&#x1fb;" horiz-adv-x="583" 
d="M582 919l-123 -138q22 -16 22 -45q0 -35 -24.5 -57.5t-60.5 -22.5q-31 0 -49 17t-18 43q0 33 25.5 56t60.5 23q12 0 23 -3l96 127h48zM413 778q-27 0 -45.5 -18.5t-18.5 -42.5q0 -20 13 -32t36 -12q27 0 45.5 17t18.5 44q0 19 -13.5 31.5t-35.5 12.5zM395 592
q36 0 63.5 -3t49.5 -4h12l-82 -585h-24l10 91q2 22 6 41l-2 1q-35 -67 -93 -104.5t-133 -37.5q-77 0 -118 42.5t-41 140.5q0 20 1.5 41.5t5.5 45.5q22 158 110.5 244.5t234.5 86.5zM207 14q44 0 83.5 15.5t71 45t53 72.5t29.5 97l45 319q-23 2 -46.5 4t-51.5 2
q-68 0 -121.5 -21t-92.5 -61t-63.5 -96.5t-34.5 -128.5q-4 -24 -5.5 -45t-1.5 -40q0 -87 34.5 -125t100.5 -38z" />
    <glyph glyph-name="AEacute" unicode="&#x1fc;" horiz-adv-x="1047" 
d="M595 723v-314h330l-4 -26h-326v-356h345l-5 -27h-369v219h-354l-155 -219h-38l538 750h474l-2 -27h-434zM566 722q-5 -9 -10.5 -18t-11.5 -17l-313 -442h335v435q0 11 0.5 21t1.5 20zM872 912l-136 -112h-28l112 112h52z" />
    <glyph glyph-name="aeacute" unicode="&#x1fd;" horiz-adv-x="898" 
d="M395 592q41 0 70.5 -3.5t52.5 -3.5l-13 -94q-2 -10 -3.5 -20.5t-3.5 -19.5l2 -1q64 143 215 143q76 0 112.5 -30t36.5 -78q0 -38 -19.5 -70.5t-65 -59t-120 -47t-183.5 -33.5q-6 -45 -6 -80q0 -51 10.5 -85.5t31 -55.5t49.5 -30t66 -9q109 0 180 66l10 -18
q-36 -35 -86 -53.5t-110 -18.5q-79 0 -123.5 40.5t-48.5 139.5h-2q-30 -86 -94 -133t-151 -47q-77 0 -117.5 41.5t-40.5 140.5q0 104 25.5 182.5t72 131t111 79t142.5 26.5zM207 14q45 0 85 16.5t71.5 47.5t52.5 76t29 101l43 306q-22 2 -45.5 5t-51.5 3q-78 0 -137 -27.5
t-99 -78.5t-60 -123.5t-20 -162.5q0 -87 33 -125t99 -38zM720 570q-99 0 -159.5 -66t-80.5 -204q103 11 172 28.5t110.5 41t58.5 52t17 60.5q0 38 -28 63t-90 25zM637 810l-126 -141h-28l106 141h48z" />
    <glyph glyph-name="Oslashacute" unicode="&#x1fe;" horiz-adv-x="737" 
d="M572 912l-136 -112h-28l112 112h52zM19 8l76 87q-25 54 -25 144q0 30 3 64t8 72q15 106 41 179.5t67 119.5t99 67t138 21q83 0 135.5 -22t78.5 -72l89 91l18 -18l-95 -99q18 -53 18 -128q0 -31 -3 -65.5t-8 -73.5q-15 -106 -40.5 -179.5t-66 -120t-98 -67.5t-137.5 -21
q-78 0 -129.5 20t-80.5 64l-72 -83zM614 645q-24 48 -71 68t-121 20q-68 0 -119 -17t-88 -58t-61 -110t-39 -173q-5 -38 -8 -71.5t-3 -62.5q0 -36 4 -66t14 -55zM626 375q12 79 12 138q0 32 -3.5 58.5t-8.5 48.5l-494 -525q25 -43 72 -61t117 -18q69 0 119.5 17.5t87 59
t60.5 110.5t38 172z" />
    <glyph glyph-name="oslashacute" unicode="&#x1ff;" horiz-adv-x="570" 
d="M475 810l-126 -141h-28l106 141h48zM319 593q62 0 102 -17.5t61 -55.5l50 57l14 -15l-55 -66q14 -42 14 -101q0 -23 -2 -48t-6 -54q-11 -79 -31.5 -136t-52 -94t-76.5 -54.5t-105 -17.5q-62 0 -102 17.5t-60 56.5l-56 -58l-13 16l59 64q-8 20 -11 43t-3 52q0 48 9 110
q11 79 31 135.5t51.5 93.5t76.5 54.5t105 17.5zM91 91q17 -42 52.5 -59.5t92.5 -17.5q51 0 89.5 15.5t67 49.5t46.5 87t29 128q4 29 6 53.5t2 46.5q0 23 -2 43t-5 37zM315 569q-51 0 -89.5 -15.5t-66 -49t-46 -86t-29.5 -127.5q-5 -29 -6.5 -54.5t-1.5 -47.5q0 -42 8 -76
l376 381q-18 40 -53.5 57.5t-91.5 17.5z" />
    <glyph glyph-name="uni0218" unicode="&#x218;" horiz-adv-x="560" 
d="M351 762q55 0 100 -11t80 -31l-12 -25q-39 20 -79 30.5t-91 10.5q-56 0 -96.5 -15.5t-67.5 -41t-40 -58t-13 -67.5q0 -46 26 -73t65 -45t85 -32.5t85 -35t65 -52.5t26 -85q0 -7 -0.5 -15t-1.5 -16q-12 -99 -78.5 -156t-183.5 -57q-65 0 -113.5 16t-86.5 43l13 26
q38 -29 83.5 -44t106.5 -15q51 0 93.5 14.5t73 42t47.5 66.5t17 88q0 48 -26 77t-65 48t-85 34t-85 34.5t-65 49.5t-26 81q0 45 16.5 84t48 68t78 45.5t106.5 16.5zM216 -48q15 0 21.5 -6.5t6.5 -15.5t-7 -23.5t-17.5 -31t-24 -34.5t-26.5 -35l-9 6q14 20 27 42t21 45h-3
q-12 0 -18.5 6.5t-6.5 15.5q0 13 8.5 22t27.5 9z" />
    <glyph glyph-name="uni0219" unicode="&#x219;" horiz-adv-x="487" 
d="M291 593q36 0 77 -9.5t71 -27.5l-13 -21q-31 17 -68 25.5t-72 8.5q-38 0 -69 -9.5t-53.5 -26t-35 -39.5t-12.5 -50q0 -34 21.5 -55.5t53.5 -37.5t69.5 -30t69.5 -33t53.5 -45.5t21.5 -67.5t-14.5 -74.5t-42 -57.5t-67 -37.5t-89.5 -13.5q-52 0 -98.5 17.5t-73.5 46.5
l15 21q27 -29 69.5 -44.5t90.5 -15.5q44 0 77.5 12t56.5 32.5t34.5 48t11.5 58.5q0 37 -21.5 61.5t-53.5 42t-69.5 31.5t-69.5 32t-53.5 42t-21.5 62q0 37 14.5 65.5t41.5 48t64.5 30t84.5 10.5zM192 -48q15 0 21.5 -6.5t6.5 -15.5t-7 -23.5t-17.5 -31t-24 -34.5t-26.5 -35
l-9 6q14 20 27 42t21 45h-3q-12 0 -18.5 6.5t-6.5 15.5q0 13 8.5 22t27.5 9z" />
    <glyph glyph-name="uni021A" unicode="&#x21a;" horiz-adv-x="568" 
d="M349 723l-101 -723h-29l101 723h-248l5 27h524l-3 -27h-249zM226 -48q15 0 21.5 -6.5t6.5 -15.5t-7 -23.5t-17.5 -31t-24 -34.5t-26.5 -35l-9 6q14 20 27 42t21 45h-3q-12 0 -18.5 6.5t-6.5 15.5q0 13 8.5 22t27.5 9z" />
    <glyph glyph-name="uni021B" unicode="&#x21b;" horiz-adv-x="405" 
d="M78 585h94l29 165l23 8l-24 -173h182l-6 -21h-179l-55 -393q-2 -16 -3.5 -30t-1.5 -26q0 -53 20.5 -76t58.5 -23q26 0 50 9t46 24l8 -17q-24 -17 -49.5 -28t-60.5 -11q-51 0 -76.5 26t-25.5 89q0 14 1.5 29.5t3.5 33.5l55 393h-96zM190 -48q15 0 21.5 -6.5t6.5 -15.5
t-7 -23.5t-17.5 -31t-24 -34.5t-26.5 -35l-9 6q14 20 27 42t21 45h-3q-12 0 -18.5 6.5t-6.5 15.5q0 13 8.5 22t27.5 9z" />
    <glyph glyph-name="uni0237" unicode="&#x237;" horiz-adv-x="276" 
d="M131 98q-9 -60 -25.5 -102t-43 -70.5t-63.5 -45t-86 -25.5l-1 21q43 8 75.5 23t55.5 40.5t37.5 64t22.5 94.5l68 484l29 4z" />
    <glyph glyph-name="uni0259" unicode="&#x259;" horiz-adv-x="503" 
d="M189 -9q-82 0 -115.5 30t-33.5 78q0 37 17 75t60.5 71.5t119.5 59.5t194 40q1 11 1.5 22t0.5 21q0 51 -10.5 85.5t-31 55.5t-49.5 30.5t-65 9.5q-54 0 -99.5 -16.5t-80.5 -49.5l-10 19q36 34 86 52.5t111 18.5q42 0 75 -11t56 -36t35.5 -64t12.5 -96q0 -21 -1.5 -44
t-5.5 -49q-21 -149 -88 -225.5t-179 -76.5zM426 293q1 7 1.5 13.5t0.5 13.5q-110 -11 -179.5 -34t-110 -52.5t-55.5 -63t-15 -65.5q0 -42 29 -66.5t95 -24.5q103 0 159 73.5t75 205.5z" />
    <glyph glyph-name="uni02BB" unicode="&#x2bb;" horiz-adv-x="210" 
d="M144 636q-15 0 -22 8.5t-7 20.5q0 13 7.5 31t19.5 39.5t27 44t30 44.5l11 -8q-17 -28 -32 -57t-25 -60h4q25 0 25 -26q0 -14 -10 -25.5t-28 -11.5z" />
    <glyph glyph-name="uni02BC" unicode="&#x2bc;" horiz-adv-x="211" 
d="M168 802q14 0 20.5 -8t6.5 -21t-7 -31t-19 -39.5t-26.5 -44t-29.5 -44.5l-12 8q17 28 32 57t25 60h-3q-26 0 -26 24q0 14 9.5 26.5t29.5 12.5z" />
    <glyph glyph-name="circumflex" unicode="&#x2c6;" horiz-adv-x="358" 
d="M255 810l92 -141h-29l-78 126l-112 -126h-27l126 141h28z" />
    <glyph glyph-name="caron" unicode="&#x2c7;" horiz-adv-x="358" 
d="M209 669l-90 141h29l77 -124l112 124h29l-129 -141h-28z" />
    <glyph glyph-name="breve" unicode="&#x2d8;" horiz-adv-x="358" 
d="M364 810q-9 -67 -45 -107.5t-96 -40.5q-106 0 -106 112q0 16 3 36h25q-1 -8 -1.5 -15t-0.5 -14q0 -48 22.5 -72.5t60.5 -24.5q43 0 74 32t39 94h25z" />
    <glyph glyph-name="dotaccent" unicode="&#x2d9;" horiz-adv-x="392" 
d="M256 794q28 0 28 -27q0 -20 -10.5 -28.5t-26.5 -8.5q-13 0 -20.5 4.5t-7.5 18.5q0 19 10 30t27 11z" />
    <glyph glyph-name="ring" unicode="&#x2da;" horiz-adv-x="358" 
d="M243 816q30 0 48 -16.5t18 -42.5q0 -35 -24.5 -57.5t-60.5 -22.5q-31 0 -49 17t-18 43q0 33 25.5 56t60.5 23zM241 799q-27 0 -45.5 -18.5t-18.5 -42.5q0 -20 13 -32t36 -12q27 0 45.5 17t18.5 44q0 19 -13.5 31.5t-35.5 12.5z" />
    <glyph glyph-name="ogonek" unicode="&#x2db;" horiz-adv-x="392" 
d="M156 -173q-44 0 -60 17.5t-16 41.5q0 33 26 68t74 55l13 -9q-43 -18 -66 -48t-23 -61q0 -20 13.5 -32.5t45.5 -12.5q40 0 75 19v-16q-39 -22 -82 -22z" />
    <glyph glyph-name="tilde" unicode="&#x2dc;" horiz-adv-x="392" 
d="M310 689q-20 0 -33.5 13t-25.5 28.5t-24.5 28.5t-28.5 13q-20 0 -33 -19t-24 -54h-22q13 45 35 70t48 25q20 0 34 -13t26 -28.5t24.5 -28.5t28.5 -13q35 0 58 73h21q-13 -45 -35 -70t-49 -25z" />
    <glyph glyph-name="hungarumlaut" unicode="&#x2dd;" horiz-adv-x="358" 
d="M309 810l-128 -141h-24l109 141h43zM428 810l-128 -141h-26l112 141h42z" />
    <glyph glyph-name="uni0394" unicode="&#x394;" horiz-adv-x="770" 
d="M660 0h-651l420 755h23zM436 720q-4 -9 -8.5 -18t-9.5 -18l-361 -659h564l-174 655q-2 10 -4.5 20t-4.5 20h-2z" />
    <glyph glyph-name="uni03A9" unicode="&#x3a9;" horiz-adv-x="740" 
d="M427 762q121 0 180 -59t59 -186q0 -66 -14.5 -133t-46 -131t-82 -121.5t-121.5 -104.5v-3h212l-3 -24h-241l4 30q129 91 196 216.5t67 270.5q0 112 -51.5 165.5t-162.5 53.5q-132 0 -202.5 -77.5t-93.5 -239.5q-2 -16 -3 -31.5t-1 -30.5q0 -96 39.5 -180t111.5 -147
l-4 -30h-241l3 24h213l1 3q-80 63 -116 147.5t-36 175.5q0 17 1.5 35t3.5 35q25 177 106.5 259.5t221.5 82.5z" />
    <glyph glyph-name="uni03BC" unicode="&#x3bc;" horiz-adv-x="612" 
d="M213 -7q-21 0 -42 4t-39 13.5t-32 26t-21 41.5h-2q-6 -59 -11 -112.5t-10 -106.5l-32 -4l103 729h27l-57 -405q-3 -24 -3 -43q0 -121 122 -121q42 0 82.5 14.5t74.5 42t57.5 66.5t30.5 88l51 358h27l-82 -584l-22 -3l10 92q2 22 6 41l-2 1q-17 -33 -43 -58.5t-57 -43
t-66 -27t-70 -9.5z" />
    <glyph glyph-name="pi" unicode="&#x3c0;" horiz-adv-x="671" 
d="M500 560h-278l-78 -560h-27l78 560q-39 -1 -68 -8t-49 -24l-13 20q20 18 54.5 27t91.5 9h434l-4 -24h-115l-61 -435q-3 -24 -3 -42q0 -36 16 -49.5t56 -13.5l-3 -23q-54 0 -75 16.5t-21 59.5q0 11 1 24t3 28z" />
    <glyph glyph-name="Wgrave" unicode="&#x1e80;" horiz-adv-x="984" 
d="M566 750l87 -681q2 -11 2.5 -22t1.5 -19h2q2 9 5.5 19t7.5 19l263 684h30l-291 -750h-41l-85 679q-2 10 -2.5 20.5t-1.5 20.5h-2q-3 -10 -6.5 -19.5t-7.5 -18.5l-277 -682h-41l-81 750h30l70 -683q1 -10 2 -20.5t1 -20.5h2q3 9 6.5 19t7.5 19l280 686h38zM544 800
l-96 113h47l76 -113h-27z" />
    <glyph glyph-name="wgrave" unicode="&#x1e81;" horiz-adv-x="867" 
d="M468 669l-78 141h45l59 -141h-26zM787 593q11 -28 16.5 -55.5t5.5 -62.5q0 -76 -16 -142t-41 -120t-56.5 -95.5t-62.5 -70t-58.5 -43t-45.5 -14.5q-20 0 -41 15.5t-38 48t-27.5 81t-10.5 114.5v8q0 4 1 9h-1q-23 -71 -55.5 -123t-65.5 -86t-61 -50.5t-43 -16.5
q-20 0 -39.5 17t-35.5 49.5t-25.5 80.5t-9.5 111q0 55 9 121l30 213l30 4l-31 -217q-5 -34 -7 -64.5t-2 -57.5q0 -58 8 -101t21 -72t28.5 -43.5t29.5 -14.5t46 25t68 73t67.5 118t44.5 160l27 192h29l-30 -214q-9 -66 -9 -120q0 -58 9 -102t23 -73t31.5 -44t34.5 -15
q11 0 34 14t50.5 40.5t56 65.5t52 89.5t38.5 111.5t15 132q0 32 -4.5 59t-13.5 53z" />
    <glyph glyph-name="Wacute" unicode="&#x1e82;" horiz-adv-x="984" 
d="M566 750l87 -681q2 -11 2.5 -22t1.5 -19h2q2 9 5.5 19t7.5 19l263 684h30l-291 -750h-41l-85 679q-2 10 -2.5 20.5t-1.5 20.5h-2q-3 -10 -6.5 -19.5t-7.5 -18.5l-277 -682h-41l-81 750h30l70 -683q1 -10 2 -20.5t1 -20.5h2q3 9 6.5 19t7.5 19l280 686h38zM696 912
l-136 -112h-28l112 112h52z" />
    <glyph glyph-name="wacute" unicode="&#x1e83;" horiz-adv-x="867" 
d="M601 810l-126 -141h-28l106 141h48zM787 593q11 -28 16.5 -55.5t5.5 -62.5q0 -76 -16 -142t-41 -120t-56.5 -95.5t-62.5 -70t-58.5 -43t-45.5 -14.5q-20 0 -41 15.5t-38 48t-27.5 81t-10.5 114.5v8q0 4 1 9h-1q-23 -71 -55.5 -123t-65.5 -86t-61 -50.5t-43 -16.5
q-20 0 -39.5 17t-35.5 49.5t-25.5 80.5t-9.5 111q0 55 9 121l30 213l30 4l-31 -217q-5 -34 -7 -64.5t-2 -57.5q0 -58 8 -101t21 -72t28.5 -43.5t29.5 -14.5t46 25t68 73t67.5 118t44.5 160l27 192h29l-30 -214q-9 -66 -9 -120q0 -58 9 -102t23 -73t31.5 -44t34.5 -15
q11 0 34 14t50.5 40.5t56 65.5t52 89.5t38.5 111.5t15 132q0 32 -4.5 59t-13.5 53z" />
    <glyph glyph-name="Wdieresis" unicode="&#x1e84;" horiz-adv-x="984" 
d="M566 750l87 -681q2 -11 2.5 -22t1.5 -19h2q2 9 5.5 19t7.5 19l263 684h30l-291 -750h-41l-85 679q-2 10 -2.5 20.5t-1.5 20.5h-2q-3 -10 -6.5 -19.5t-7.5 -18.5l-277 -682h-41l-81 750h30l70 -683q1 -10 2 -20.5t1 -20.5h2q3 9 6.5 19t7.5 19l280 686h38zM470 868
q21 0 21 -22q0 -17 -8.5 -24.5t-19.5 -7.5q-21 0 -21 19q0 35 28 35zM655 868q21 0 21 -21q0 -17 -8 -25t-20 -8q-21 0 -21 19q0 35 28 35z" />
    <glyph glyph-name="wdieresis" unicode="&#x1e85;" horiz-adv-x="867" 
d="M413 791q21 0 21 -22q0 -18 -8.5 -25t-20.5 -7q-20 0 -20 18q0 16 7.5 26t20.5 10zM552 791q20 0 20 -22q0 -18 -8.5 -25t-19.5 -7q-22 0 -22 19q0 16 8 25.5t22 9.5zM787 593q11 -28 16.5 -55.5t5.5 -62.5q0 -76 -16 -142t-41 -120t-56.5 -95.5t-62.5 -70t-58.5 -43
t-45.5 -14.5q-20 0 -41 15.5t-38 48t-27.5 81t-10.5 114.5v8q0 4 1 9h-1q-23 -71 -55.5 -123t-65.5 -86t-61 -50.5t-43 -16.5q-20 0 -39.5 17t-35.5 49.5t-25.5 80.5t-9.5 111q0 55 9 121l30 213l30 4l-31 -217q-5 -34 -7 -64.5t-2 -57.5q0 -58 8 -101t21 -72t28.5 -43.5
t29.5 -14.5t46 25t68 73t67.5 118t44.5 160l27 192h29l-30 -214q-9 -66 -9 -120q0 -58 9 -102t23 -73t31.5 -44t34.5 -15q11 0 34 14t50.5 40.5t56 65.5t52 89.5t38.5 111.5t15 132q0 32 -4.5 59t-13.5 53z" />
    <glyph glyph-name="uni1E8A" unicode="&#x1e8a;" horiz-adv-x="683" 
d="M361 331q-5 9 -10 19t-10 19h-2q-5 -7 -14 -18t-13 -16l-266 -335h-38l315 393l-199 357h39l162 -302q5 -9 10 -19t10 -19h2q5 7 14 18t13 16l247 306h38l-295 -365l211 -385h-38zM415 876q25 0 25 -24q0 -20 -9.5 -29.5t-24.5 -9.5q-14 0 -21.5 5.5t-7.5 19.5
q0 20 10.5 29t27.5 9z" />
    <glyph glyph-name="uni1E8B" unicode="&#x1e8b;" horiz-adv-x="579" 
d="M291 246q-11 18 -20 37h-2q-5 -7 -15 -18.5t-14 -15.5l-212 -249h-39l267 306l-159 278l33 3l124 -224q5 -9 10.5 -19t10.5 -19h3q5 7 14.5 18t13.5 16l190 225h36l-240 -282l170 -302h-38zM351 794q28 0 28 -27q0 -20 -10.5 -28.5t-26.5 -8.5q-13 0 -20.5 4.5t-7.5 18.5
q0 19 10 30t27 11z" />
    <glyph glyph-name="uni1E9E" unicode="&#x1e9e;" horiz-adv-x="1113" 
d="M351 762q55 0 100 -11t80 -31l-12 -25q-39 20 -79 30.5t-91 10.5q-56 0 -96.5 -15.5t-67.5 -41t-40 -58t-13 -67.5q0 -46 26 -73t65 -45t85 -32.5t85 -35t65 -52.5t26 -85q0 -7 -0.5 -15t-1.5 -16q-12 -99 -78.5 -156t-183.5 -57q-65 0 -113.5 16t-86.5 43l13 26
q38 -29 83.5 -44t106.5 -15q51 0 93.5 14.5t73 42t47.5 66.5t17 88q0 48 -26 77t-65 48t-85 34t-85 34.5t-65 49.5t-26 81q0 45 16.5 84t48 68t78 45.5t106.5 16.5zM904 762q55 0 100 -11t80 -31l-12 -25q-39 20 -79 30.5t-91 10.5q-56 0 -96.5 -15.5t-67.5 -41t-40 -58
t-13 -67.5q0 -46 26 -73t65 -45t85 -32.5t85 -35t65 -52.5t26 -85q0 -7 -0.5 -15t-1.5 -16q-12 -99 -78.5 -156t-183.5 -57q-65 0 -113.5 16t-86.5 43l13 26q38 -29 83.5 -44t106.5 -15q51 0 93.5 14.5t73 42t47.5 66.5t17 88q0 48 -26 77t-65 48t-85 34t-85 34.5t-65 49.5
t-26 81q0 45 16.5 84t48 68t78 45.5t106.5 16.5z" />
    <glyph glyph-name="Ygrave" unicode="&#x1ef2;" horiz-adv-x="642" 
d="M130 750l169 -409q4 -9 7.5 -19t6.5 -19h2q5 8 10.5 17t11.5 17l287 413h35l-334 -477l-38 -273h-30l38 273l-202 477h37zM393 800l-96 113h47l76 -113h-27z" />
    <glyph glyph-name="ygrave" unicode="&#x1ef3;" horiz-adv-x="563" 
d="M523 584q-32 -110 -75 -216.5t-98.5 -201.5t-123 -174t-147.5 -134l-14 21q31 23 55.5 44t46 41.5t40 42.5t37.5 47l-173 529l29 2l151 -469q3 -10 6 -19.5t5 -19.5h2q66 94 125.5 218.5t104.5 288.5h29zM323 669l-78 141h45l59 -141h-26z" />
    <glyph glyph-name="uni2007" unicode="&#x2007;" horiz-adv-x="660" 
 />
    <glyph glyph-name="uni2008" unicode="&#x2008;" horiz-adv-x="233" 
 />
    <glyph glyph-name="space.frac" unicode="&#x2009;" horiz-adv-x="77" 
 />
    <glyph glyph-name="uni200B" unicode="&#x200b;" horiz-adv-x="0" 
 />
    <glyph glyph-name="endash" unicode="&#x2013;" horiz-adv-x="550" 
d="M459 350l-3 -22h-370l3 22h370z" />
    <glyph glyph-name="emdash" unicode="&#x2014;" horiz-adv-x="720" 
d="M629 350l-3 -22h-540l3 22h540z" />
    <glyph glyph-name="quoteleft" unicode="&#x2018;" horiz-adv-x="210" 
d="M144 636q-15 0 -22 8.5t-7 20.5q0 13 7.5 31t19.5 39.5t27 44t30 44.5l11 -8q-17 -28 -32 -57t-25 -60h4q25 0 25 -26q0 -14 -10 -25.5t-28 -11.5z" />
    <glyph glyph-name="quoteright" unicode="&#x2019;" horiz-adv-x="211" 
d="M168 802q14 0 20.5 -8t6.5 -21t-7 -31t-19 -39.5t-26.5 -44t-29.5 -44.5l-12 8q17 28 32 57t25 60h-3q-26 0 -26 24q0 14 9.5 26.5t29.5 12.5z" />
    <glyph glyph-name="quotesinglbase" unicode="&#x201a;" horiz-adv-x="211" 
d="M63 51q14 0 20.5 -8t6.5 -20q0 -13 -7 -31t-18.5 -39.5t-26.5 -44.5t-31 -45l-12 8q17 28 32 57t26 60h-3q-26 0 -26 25q0 14 9.5 26t29.5 12z" />
    <glyph glyph-name="quotedblleft" unicode="&#x201c;" horiz-adv-x="357" 
d="M144 636q-15 0 -22 8.5t-7 20.5q0 13 7.5 31t19.5 39.5t27 44t30 44.5l11 -8q-17 -28 -32 -57t-25 -60h4q25 0 25 -26q0 -14 -10 -25.5t-28 -11.5zM292 636q-15 0 -22 8.5t-7 20.5q0 13 7.5 31t19.5 39.5t27 44t30 44.5l11 -8q-17 -28 -32 -57t-25 -60h4q25 0 25 -26
q0 -14 -10 -25.5t-28 -11.5z" />
    <glyph glyph-name="quotedblright" unicode="&#x201d;" horiz-adv-x="357" 
d="M168 802q14 0 20.5 -8t6.5 -21t-7 -31t-19 -39.5t-26.5 -44t-29.5 -44.5l-12 8q17 28 32 57t25 60h-3q-26 0 -26 24q0 14 9.5 26.5t29.5 12.5zM316 802q14 0 20.5 -8t6.5 -21t-7 -31t-19 -39.5t-26.5 -44t-29.5 -44.5l-12 8q17 28 32 57t25 60h-3q-26 0 -26 24
q0 14 9.5 26.5t29.5 12.5z" />
    <glyph glyph-name="quotedblbase" unicode="&#x201e;" horiz-adv-x="357" 
d="M211 51q14 0 20.5 -8t6.5 -20q0 -13 -7 -31t-18.5 -39.5t-26.5 -44.5t-31 -45l-12 8q17 28 32 57t26 60h-3q-26 0 -26 25q0 14 9.5 26t29.5 12zM63 51q14 0 20.5 -8t6.5 -20q0 -13 -7 -31t-18.5 -39.5t-26.5 -44.5t-31 -45l-12 8q17 28 32 57t26 60h-3q-26 0 -26 25
q0 14 9.5 26t29.5 12z" />
    <glyph glyph-name="dagger" unicode="&#x2020;" horiz-adv-x="512" 
d="M272 583l29 219h26l-33 -217h188l-4 -24h-187l-96 -702h-26l100 700h-180l4 24h179z" />
    <glyph glyph-name="daggerdbl" unicode="&#x2021;" horiz-adv-x="512" 
d="M410 76h-187l-28 -218h-26l32 217h-180l3 23h180l65 462h-180l4 23h179l29 219h26l-33 -217h188l-4 -24h-187l-65 -461h188z" />
    <glyph glyph-name="bullet" unicode="&#x2022;" horiz-adv-x="399" 
d="M82 322q15 109 125 109q96 0 96 -84q0 -69 -34 -102.5t-93 -33.5q-96 0 -96 83v13q0 7 2 15z" />
    <glyph glyph-name="ellipsis" unicode="&#x2026;" horiz-adv-x="562" 
d="M407 51q25 0 25 -23q0 -38 -34 -38q-30 0 -30 24q0 18 10.5 27.5t28.5 9.5zM246 51q25 0 25 -23q0 -38 -34 -38q-30 0 -30 24q0 18 10.5 27.5t28.5 9.5zM75 51q25 0 25 -23q0 -38 -34 -38q-30 0 -30 24q0 18 10.5 27.5t28.5 9.5z" />
    <glyph glyph-name="perthousand" unicode="&#x2030;" horiz-adv-x="981" 
d="M253 767q54 0 81.5 -26t27.5 -92q0 -13 -1 -27t-3 -30q-14 -95 -51.5 -134.5t-102.5 -39.5q-56 0 -83 26.5t-27 88.5q0 13 1.5 27.5t3.5 31.5q13 93 48 134t106 41zM250 747q-27 0 -48 -7t-37 -24.5t-27 -47.5t-17 -75q-2 -16 -3.5 -30t-1.5 -26q0 -56 23 -77t68 -21
q27 0 48 7.5t36.5 25t26.5 47t17 74.5q2 17 3.5 31t1.5 27q0 56 -22.5 76t-67.5 20zM586 748l-475 -749l-24 9l476 749zM485 344q54 0 81.5 -26t27.5 -91q0 -13 -1.5 -27.5t-3.5 -31.5q-14 -95 -51 -134.5t-102 -39.5q-57 0 -84 26.5t-27 89.5q0 13 1.5 27t3.5 31
q13 93 48.5 134.5t106.5 41.5zM482 322q-27 0 -48 -7t-37 -24.5t-27 -47.5t-17 -75q-2 -16 -3.5 -30t-1.5 -26q0 -56 23 -76.5t68 -20.5q27 0 48 7t36.5 24.5t26.5 47t17 74.5q2 17 3.5 31t1.5 27q0 56 -22.5 76t-67.5 20zM784 344q54 0 82 -26t28 -91q0 -13 -1.5 -27.5
t-3.5 -31.5q-14 -95 -51 -134.5t-103 -39.5q-56 0 -83.5 26.5t-27.5 89.5q0 13 1.5 27.5t3.5 30.5q13 93 48.5 134.5t106.5 41.5zM781 322q-27 0 -48 -7t-37 -24.5t-27 -47.5t-17 -75q-2 -16 -3.5 -30t-1.5 -26q0 -56 23 -76.5t68 -20.5q27 0 48 7t36.5 24.5t26.5 47
t17 74.5q2 17 3.5 31t1.5 27q0 56 -22.5 76t-67.5 20z" />
    <glyph glyph-name="guilsinglleft" unicode="&#x2039;" horiz-adv-x="418" 
d="M93 333l212 -143l-4 -27l-244 167l1 6l291 166l-4 -26z" />
    <glyph glyph-name="guilsinglright" unicode="&#x203a;" horiz-adv-x="418" 
d="M65 190l252 143l-212 143l4 26l244 -166l-1 -6l-291 -167z" />
    <glyph glyph-name="fraction" unicode="&#x2044;" horiz-adv-x="268" 
d="M472 750l-617 -750h-29l619 750h27z" />
    <glyph glyph-name="uni2070" unicode="&#x2070;" horiz-adv-x="352" 
d="M254 907q57 0 85 -30t28 -100q0 -32 -6 -72q-15 -108 -55 -156t-109 -48q-57 0 -85.5 31t-28.5 103q0 16 1 33t4 37q16 109 56 155.5t110 46.5zM250 884q-27 0 -49 -8.5t-39 -29t-29.5 -55t-19.5 -86.5q-3 -20 -4 -36.5t-1 -31.5q0 -64 23.5 -88.5t68.5 -24.5
q27 0 48.5 8.5t38 29.5t28.5 55.5t19 87.5q6 40 6 70q0 62 -23.5 85.5t-66.5 23.5z" />
    <glyph glyph-name="uni2074" unicode="&#x2074;" horiz-adv-x="352" 
d="M310 602l-13 -95h-25l13 95h-208l-1 17l242 282h34l-39 -278h54l-4 -21h-53zM320 838l8 40l-2 2q-6 -8 -13 -16.5t-13 -16.5l-164 -193q-7 -8 -13.5 -15t-13.5 -14l1 -2h178z" />
    <glyph glyph-name="uni2075" unicode="&#x2075;" horiz-adv-x="352" 
d="M364 879h-190l-23 -107q-2 -10 -4.5 -20t-5.5 -19l1 -1q22 11 48 17t49 6q110 0 110 -90q0 -81 -41.5 -122t-110.5 -41q-35 0 -61.5 8.5t-46.5 23.5l13 23q20 -16 42 -24.5t54 -8.5q64 0 95 37.5t31 101.5q0 35 -21 53t-72 18q-29 0 -55 -7t-45 -18l-15 6l42 186h208z
" />
    <glyph glyph-name="uni2076" unicode="&#x2076;" horiz-adv-x="352" 
d="M357 866q-18 8 -36 12.5t-44 4.5q-66 0 -104 -43.5t-52 -130.5l1 -1q25 23 57.5 35t64.5 12q55 0 80.5 -21t25.5 -66q0 -81 -40.5 -123.5t-109.5 -42.5q-54 0 -83 28.5t-29 97.5q0 14 1.5 29t3.5 32q16 114 64 165.5t125 51.5q23 0 42.5 -4.5t39.5 -12.5zM239 731
q-14 0 -30.5 -3.5t-33 -9.5t-31.5 -15t-25 -20q-3 -27 -3 -50q0 -57 21.5 -82.5t66.5 -25.5q25 0 47 8t38 25t25.5 42.5t9.5 61.5q0 69 -85 69z" />
    <glyph glyph-name="uni2077" unicode="&#x2077;" horiz-adv-x="352" 
d="M384 877l-226 -370h-33l207 335q5 8 10.5 16t11.5 16l-1 2h-234l6 25h262z" />
    <glyph glyph-name="uni2078" unicode="&#x2078;" horiz-adv-x="352" 
d="M197 502q-63 0 -92.5 21.5t-29.5 65.5q0 49 28 79t74 48v2q-26 10 -42 27t-16 48q0 52 33 82.5t102 30.5q54 0 79 -19t25 -58q0 -83 -88 -116v-2q31 -10 53 -28t22 -54q0 -66 -40 -96.5t-108 -30.5zM204 707q-42 -18 -71 -43.5t-29 -70.5q0 -33 22.5 -50.5t73.5 -17.5
q24 0 45 6t37.5 18t26 30.5t9.5 42.5q0 21 -10.5 34t-27 22t-36.5 15.5t-40 13.5zM251 885q-48 0 -76.5 -23.5t-28.5 -65.5q0 -18 8.5 -30t22 -20t31 -14t35.5 -11q89 34 89 101q0 30 -20 46.5t-61 16.5z" />
    <glyph glyph-name="uni2079" unicode="&#x2079;" horiz-adv-x="352" 
d="M245 907q113 0 113 -127q0 -13 -1 -26.5t-3 -28.5q-17 -119 -61 -171t-117 -52q-27 0 -45.5 5t-36.5 13l8 22q19 -8 35.5 -12.5t40.5 -4.5q62 0 98.5 43.5t53.5 147.5l-2 2q-22 -22 -51 -33t-61 -11q-60 0 -86 25.5t-26 67.5q0 30 9 55.5t27 44t44.5 29.5t60.5 11z
M242 885q-51 0 -82 -30t-31 -83q0 -35 21.5 -55t69.5 -20q29 0 59.5 10.5t49.5 31.5q3 25 3 45q0 55 -23 78t-67 23z" />
    <glyph glyph-name="uni207A" unicode="&#x207a;" horiz-adv-x="354" 
d="M236 697v-120h-24v120h-117v22h117v123h24v-123h119v-22h-119z" />
    <glyph glyph-name="uni207B" unicode="&#x207b;" horiz-adv-x="354" 
d="M101 699l1 22h255l-1 -22h-255z" />
    <glyph glyph-name="uni207C" unicode="&#x207c;" horiz-adv-x="354" 
d="M94 750v22h264v-22h-264zM94 651v22h264v-22h-264z" />
    <glyph glyph-name="uni207D" unicode="&#x207d;" horiz-adv-x="198" 
d="M257 933q-25 -30 -47 -64t-38 -71.5t-25 -78.5t-9 -87q0 -54 14 -99.5t37 -86.5h-26q-25 35 -38.5 81t-13.5 100q0 98 33.5 173.5t87.5 133.5z" />
    <glyph glyph-name="uni207E" unicode="&#x207e;" horiz-adv-x="198" 
d="M130 934q24 -39 37.5 -82t13.5 -96q0 -93 -33.5 -174t-86.5 -136h-27q24 30 45.5 63t38 70t26 78t9.5 88q0 54 -14 100t-37 88z" />
    <glyph glyph-name="uni2080" unicode="&#x2080;" horiz-adv-x="352" 
d="M164 261q57 0 85 -30t28 -100q0 -32 -6 -72q-15 -108 -55 -156t-109 -48q-57 0 -85.5 31t-28.5 103q0 16 1 33t4 37q16 109 56 155.5t110 46.5zM160 238q-27 0 -49 -8.5t-39 -29t-29.5 -55t-19.5 -86.5q-3 -20 -4 -36.5t-1 -31.5q0 -64 23.5 -88.5t68.5 -24.5
q27 0 48.5 8.5t38 29.5t28.5 55.5t19 87.5q6 40 6 70q0 62 -23.5 85.5t-66.5 23.5z" />
    <glyph glyph-name="uni2081" unicode="&#x2081;" horiz-adv-x="258" 
d="M110 -139h-27l44 315q2 10 3.5 21.5t4.5 20.5l-2 2q-8 -6 -16.5 -12.5t-16.5 -11.5l-71 -46l1 26l116 82h19z" />
    <glyph glyph-name="uni2082" unicode="&#x2082;" horiz-adv-x="331" 
d="M156 260q54 0 81.5 -22.5t27.5 -62.5q0 -36 -18.5 -70.5t-51 -70t-77.5 -71.5t-98 -75v-3h211l-4 -24h-249l2 20q47 40 93 77.5t82 73.5t58.5 70.5t22.5 67.5q0 28 -19.5 47t-69.5 19q-31 0 -59 -11.5t-52 -29.5l-5 22q24 17 56 30t69 13z" />
    <glyph glyph-name="uni2083" unicode="&#x2083;" horiz-adv-x="331" 
d="M159 260q52 0 81 -19.5t29 -58.5q0 -50 -28 -74.5t-67 -32.5v-2q38 -6 58.5 -23.5t20.5 -52.5q0 -62 -40.5 -101.5t-114.5 -39.5q-39 0 -63.5 7.5t-50.5 24.5l12 22q20 -15 45.5 -23t59.5 -8q63 0 94.5 34t31.5 82q0 37 -29.5 52t-96.5 15l3 23q72 0 105.5 23t33.5 68
q0 30 -25 45t-63 15q-35 0 -62 -10t-51 -29l-7 20q21 17 53.5 30t70.5 13z" />
    <glyph glyph-name="uni2084" unicode="&#x2084;" horiz-adv-x="352" 
d="M220 -44l-13 -95h-25l13 95h-208l-1 17l242 282h34l-39 -278h54l-4 -21h-53zM230 192l8 40l-2 2q-6 -8 -13 -16.5t-13 -16.5l-164 -193q-7 -8 -13.5 -15t-13.5 -14l1 -2h178z" />
    <glyph glyph-name="uni2085" unicode="&#x2085;" horiz-adv-x="352" 
d="M274 233h-190l-23 -107q-2 -10 -4.5 -20t-5.5 -19l1 -1q22 11 48 17t49 6q110 0 110 -90q0 -81 -41.5 -122t-110.5 -41q-35 0 -61.5 8.5t-46.5 23.5l13 23q20 -16 42 -24.5t54 -8.5q64 0 95 37.5t31 101.5q0 35 -21 53t-72 18q-29 0 -55 -7t-45 -18l-15 6l42 186h208z
" />
    <glyph glyph-name="uni2086" unicode="&#x2086;" horiz-adv-x="352" 
d="M267 220q-18 8 -36 12.5t-44 4.5q-66 0 -104 -43.5t-52 -130.5l1 -1q25 23 57.5 35t64.5 12q55 0 80.5 -21t25.5 -66q0 -81 -40.5 -123.5t-109.5 -42.5q-54 0 -83 28.5t-29 97.5q0 14 1.5 29t3.5 32q16 114 64 165.5t125 51.5q23 0 42.5 -4.5t39.5 -12.5zM149 85
q-14 0 -30.5 -3.5t-33 -9.5t-31.5 -15t-25 -20q-3 -27 -3 -50q0 -57 21.5 -82.5t66.5 -25.5q25 0 47 8t38 25t25.5 42.5t9.5 61.5q0 69 -85 69z" />
    <glyph glyph-name="uni2087" unicode="&#x2087;" horiz-adv-x="352" 
d="M294 231l-226 -370h-33l207 335q5 8 10.5 16t11.5 16l-1 2h-234l6 25h262z" />
    <glyph glyph-name="uni2088" unicode="&#x2088;" horiz-adv-x="352" 
d="M107 -144q-63 0 -92.5 21.5t-29.5 65.5q0 49 28 79t74 48v2q-26 10 -42 27t-16 48q0 52 33 82.5t102 30.5q54 0 79 -19t25 -58q0 -83 -88 -116v-2q31 -10 53 -28t22 -54q0 -66 -40 -96.5t-108 -30.5zM114 61q-42 -18 -71 -43.5t-29 -70.5q0 -33 22.5 -50.5t73.5 -17.5
q24 0 45 6t37.5 18t26 30.5t9.5 42.5q0 21 -10.5 34t-27 22t-36.5 15.5t-40 13.5zM161 239q-48 0 -76.5 -23.5t-28.5 -65.5q0 -18 8.5 -30t22 -20t31 -14t35.5 -11q89 34 89 101q0 30 -20 46.5t-61 16.5z" />
    <glyph glyph-name="uni2089" unicode="&#x2089;" horiz-adv-x="352" 
d="M155 261q113 0 113 -127q0 -13 -1 -26.5t-3 -28.5q-17 -119 -61 -171t-117 -52q-27 0 -45.5 5t-36.5 13l8 22q19 -8 35.5 -12.5t40.5 -4.5q62 0 98.5 43.5t53.5 147.5l-2 2q-22 -22 -51 -33t-61 -11q-60 0 -86 25.5t-26 67.5q0 30 9 55.5t27 44t44.5 29.5t60.5 11z
M152 239q-51 0 -82 -30t-31 -83q0 -35 21.5 -55t69.5 -20q29 0 59.5 10.5t49.5 31.5q3 25 3 45q0 55 -23 78t-67 23z" />
    <glyph glyph-name="uni208A" unicode="&#x208a;" horiz-adv-x="354" 
d="M146 51v-120h-24v120h-117v22h117v123h24v-123h119v-22h-119z" />
    <glyph glyph-name="uni208B" unicode="&#x208b;" horiz-adv-x="354" 
d="M11 53l1 22h255l-1 -22h-255z" />
    <glyph glyph-name="uni208C" unicode="&#x208c;" horiz-adv-x="354" 
d="M4 104v22h264v-22h-264zM4 5v22h264v-22h-264z" />
    <glyph glyph-name="uni208D" unicode="&#x208d;" horiz-adv-x="198" 
d="M167 287q-25 -30 -47 -64t-38 -71.5t-25 -78.5t-9 -87q0 -54 14 -99.5t37 -86.5h-26q-25 35 -38.5 81t-13.5 100q0 98 33.5 173.5t87.5 133.5z" />
    <glyph glyph-name="uni208E" unicode="&#x208e;" horiz-adv-x="198" 
d="M40 288q24 -39 37.5 -82t13.5 -96q0 -93 -33.5 -174t-86.5 -136h-27q24 30 45.5 63t38 70t26 78t9.5 88q0 54 -14 100t-37 88z" />
    <glyph glyph-name="franc" unicode="&#x20a3;" horiz-adv-x="660" 
d="M104 156l84 594h435l-3 -28h-407l-44 -316h326l-4 -26h-326l-32 -224h108l-3 -23h-108l-18 -133h-29l18 133h-104l3 23h104z" />
    <glyph glyph-name="lira" unicode="&#x20a4;" horiz-adv-x="660" 
d="M111 440h42q-2 14 -3 29t-1 31q0 52 13.5 98.5t45.5 82t84.5 56.5t129.5 21q56 0 104.5 -12.5t83.5 -33.5l-12 -25q-29 20 -76.5 33t-101.5 13q-68 0 -114 -18.5t-74.5 -50t-41 -73.5t-12.5 -90q0 -30 3 -61h318l-3 -27h-311q2 -19 3 -38.5t2 -40.5h294l-3 -28h-289
q-4 -109 -32 -177t-84 -106l1 -2q28 4 55 7t55.5 4.5t60.5 2t71 0.5q60 0 120.5 -4t116.5 -10l-6 -26q-34 3 -64.5 6t-59.5 5t-58.5 3t-61.5 1q-36 0 -70 -1t-68 -3t-69.5 -4.5t-75.5 -6.5l1 22q38 17 65 47.5t43.5 68.5t24 82.5t7.5 90.5h-70l3 28h66q0 22 -2 41l-4 38h-48
z" />
    <glyph glyph-name="peseta" unicode="&#x20a7;" horiz-adv-x="660" 
d="M562 527q-19 -104 -77 -150.5t-167 -46.5h-182l-46 -330h-28l74 527h-78l3 26h78l28 197h210q97 0 144 -35t47 -118q0 -20 -3 -44h72l-3 -26h-72zM167 553h370q2 10 2 19v19q0 73 -41 104t-124 31h-182zM321 354q45 0 80 8.5t61.5 29t44 53.5t26.5 82h-369l-25 -173h182z
" />
    <glyph glyph-name="Euro" unicode="&#x20ac;" horiz-adv-x="660" 
d="M479 312h-322q-1 -11 -1 -21v-20q0 -135 58 -194.5t175 -59.5q55 0 110.5 16.5t106.5 47.5l2 -24q-45 -30 -105 -47.5t-119 -17.5q-68 0 -116.5 16t-79.5 49t-45 83t-14 118q0 13 0.5 26.5t1.5 27.5h-95l4 26h94q1 13 2 22t2 17.5t2.5 18.5t4.5 24h-93l3 26h95
q34 158 123 235t223 77q26 0 52 -3t50 -8.5t44 -13t35 -17.5l-12 -22q-20 10 -39.5 17.5t-39.5 12t-43 7t-50 2.5q-128 0 -206.5 -73.5t-110.5 -213.5h371l-11 -26h-365q-2 -14 -3.5 -23.5t-3 -18.5t-2.5 -18t-2 -22h331z" />
    <glyph glyph-name="trademark" unicode="&#x2122;" horiz-adv-x="633" 
d="M573 519l28 197q2 10 4 20.5t5 20.5l-2 1q-2 -5 -6.5 -12.5t-19 -31t-41.5 -69.5t-75 -126h-17l-74 241h-2q-1 -10 -1.5 -20.5t-2.5 -20.5l-28 -200h-18l37 261h27l62 -201l6 -20q3 -10 5 -19h2q5 8 9.5 17.5t9.5 17.5l121 205h25l-37 -261h-17zM215 763l-35 -244h-19
l35 244h-93l2 17h204l-2 -17h-92z" />
    <glyph glyph-name="Omega" unicode="&#x2126;" horiz-adv-x="740" 
d="M427 762q121 0 180 -59t59 -186q0 -66 -14.5 -133t-46 -131t-82 -121.5t-121.5 -104.5v-3h212l-3 -24h-241l4 30q129 91 196 216.5t67 270.5q0 112 -51.5 165.5t-162.5 53.5q-132 0 -202.5 -77.5t-93.5 -239.5q-2 -16 -3 -31.5t-1 -30.5q0 -96 39.5 -180t111.5 -147
l-4 -30h-241l3 24h213l1 3q-80 63 -116 147.5t-36 175.5q0 17 1.5 35t3.5 35q25 177 106.5 259.5t221.5 82.5z" />
    <glyph glyph-name="uni2150" unicode="&#x2150;" horiz-adv-x="878" 
d="M179 355h-27l44 315q2 10 3.5 21.5t4.5 20.5l-2 2q-8 -6 -16.5 -12.5t-16.5 -11.5l-71 -46l1 26l116 82h19zM730 750l-617 -750h-29l619 750h27zM839 370l-226 -370h-33l207 335q5 8 10.5 16t11.5 16l-1 2h-234l6 25h262z" />
    <glyph glyph-name="uni2151" unicode="&#x2151;" horiz-adv-x="878" 
d="M179 355h-27l44 315q2 10 3.5 21.5t4.5 20.5l-2 2q-8 -6 -16.5 -12.5t-16.5 -11.5l-71 -46l1 26l116 82h19zM730 750l-617 -750h-29l619 750h27zM700 400q113 0 113 -127q0 -13 -1 -26.5t-3 -28.5q-17 -119 -61 -171t-117 -52q-27 0 -45.5 5t-36.5 13l8 22
q19 -8 35.5 -12.5t40.5 -4.5q62 0 98.5 43.5t53.5 147.5l-2 2q-22 -22 -51 -33t-61 -11q-60 0 -86 25.5t-26 67.5q0 30 9 55.5t27 44t44.5 29.5t60.5 11zM697 378q-51 0 -82 -30t-31 -83q0 -35 21.5 -55t69.5 -20q29 0 59.5 10.5t49.5 31.5q3 25 3 45q0 55 -23 78t-67 23z
" />
    <glyph glyph-name="uni2152" unicode="&#x2152;" horiz-adv-x="1136" 
d="M179 355h-27l44 315q2 10 3.5 21.5t4.5 20.5l-2 2q-8 -6 -16.5 -12.5t-16.5 -11.5l-71 -46l1 26l116 82h19zM730 750l-617 -750h-29l619 750h27zM655 0h-27l44 315q2 10 3.5 21.5t4.5 20.5l-2 2q-8 -6 -16.5 -12.5t-16.5 -11.5l-71 -46l1 26l116 82h19zM967 400
q57 0 85 -30t28 -100q0 -32 -6 -72q-15 -108 -55 -156t-109 -48q-57 0 -85.5 31t-28.5 103q0 16 1 33t4 37q16 109 56 155.5t110 46.5zM963 377q-27 0 -49 -8.5t-39 -29t-29.5 -55t-19.5 -86.5q-3 -20 -4 -36.5t-1 -31.5q0 -64 23.5 -88.5t68.5 -24.5q27 0 48.5 8.5t38 29.5
t28.5 55.5t19 87.5q6 40 6 70q0 62 -23.5 85.5t-66.5 23.5z" />
    <glyph glyph-name="onethird" unicode="&#x2153;" horiz-adv-x="857" 
d="M179 355h-27l44 315q2 10 3.5 21.5t4.5 20.5l-2 2q-8 -6 -16.5 -12.5t-16.5 -11.5l-71 -46l1 26l116 82h19zM730 750l-617 -750h-29l619 750h27zM704 399q52 0 81 -19.5t29 -58.5q0 -50 -28 -74.5t-67 -32.5v-2q38 -6 58.5 -23.5t20.5 -52.5q0 -62 -40.5 -101.5
t-114.5 -39.5q-39 0 -63.5 7.5t-50.5 24.5l12 22q20 -15 45.5 -23t59.5 -8q63 0 94.5 34t31.5 82q0 37 -29.5 52t-96.5 15l3 23q72 0 105.5 23t33.5 68q0 30 -25 45t-63 15q-35 0 -62 -10t-51 -29l-7 20q21 17 53.5 30t70.5 13z" />
    <glyph glyph-name="twothirds" unicode="&#x2154;" horiz-adv-x="930" 
d="M225 754q54 0 81.5 -22.5t27.5 -62.5q0 -36 -18.5 -70.5t-51 -70t-77.5 -71.5t-98 -75v-3h211l-4 -24h-249l2 20q47 40 93 77.5t82 73.5t58.5 70.5t22.5 67.5q0 28 -19.5 47t-69.5 19q-31 0 -59 -11.5t-52 -29.5l-5 22q24 17 56 30t69 13zM803 750l-617 -750h-29l619 750
h27zM777 399q52 0 81 -19.5t29 -58.5q0 -50 -28 -74.5t-67 -32.5v-2q38 -6 58.5 -23.5t20.5 -52.5q0 -62 -40.5 -101.5t-114.5 -39.5q-39 0 -63.5 7.5t-50.5 24.5l12 22q20 -15 45.5 -23t59.5 -8q63 0 94.5 34t31.5 82q0 37 -29.5 52t-96.5 15l3 23q72 0 105.5 23t33.5 68
q0 30 -25 45t-63 15q-35 0 -62 -10t-51 -29l-7 20q21 17 53.5 30t70.5 13z" />
    <glyph glyph-name="uni2155" unicode="&#x2155;" horiz-adv-x="878" 
d="M179 355h-27l44 315q2 10 3.5 21.5t4.5 20.5l-2 2q-8 -6 -16.5 -12.5t-16.5 -11.5l-71 -46l1 26l116 82h19zM730 750l-617 -750h-29l619 750h27zM819 372h-190l-23 -107q-2 -10 -4.5 -20t-5.5 -19l1 -1q22 11 48 17t49 6q110 0 110 -90q0 -81 -41.5 -122t-110.5 -41
q-35 0 -61.5 8.5t-46.5 23.5l13 23q20 -16 42 -24.5t54 -8.5q64 0 95 37.5t31 101.5q0 35 -21 53t-72 18q-29 0 -55 -7t-45 -18l-15 6l42 186h208z" />
    <glyph glyph-name="uni2156" unicode="&#x2156;" horiz-adv-x="951" 
d="M225 754q54 0 81.5 -22.5t27.5 -62.5q0 -36 -18.5 -70.5t-51 -70t-77.5 -71.5t-98 -75v-3h211l-4 -24h-249l2 20q47 40 93 77.5t82 73.5t58.5 70.5t22.5 67.5q0 28 -19.5 47t-69.5 19q-31 0 -59 -11.5t-52 -29.5l-5 22q24 17 56 30t69 13zM803 750l-617 -750h-29l619 750
h27zM892 372h-190l-23 -107q-2 -10 -4.5 -20t-5.5 -19l1 -1q22 11 48 17t49 6q110 0 110 -90q0 -81 -41.5 -122t-110.5 -41q-35 0 -61.5 8.5t-46.5 23.5l13 23q20 -16 42 -24.5t54 -8.5q64 0 95 37.5t31 101.5q0 35 -21 53t-72 18q-29 0 -55 -7t-45 -18l-15 6l42 186h208z
" />
    <glyph glyph-name="uni2157" unicode="&#x2157;" horiz-adv-x="951" 
d="M228 754q52 0 81 -19.5t29 -58.5q0 -50 -28 -74.5t-67 -32.5v-2q38 -6 58.5 -23.5t20.5 -52.5q0 -62 -40.5 -101.5t-114.5 -39.5q-39 0 -63.5 7.5t-50.5 24.5l12 22q20 -15 45.5 -23t59.5 -8q63 0 94.5 34t31.5 82q0 37 -29.5 52t-96.5 15l3 23q72 0 105.5 23t33.5 68
q0 30 -25 45t-63 15q-35 0 -62 -10t-51 -29l-7 20q21 17 53.5 30t70.5 13zM803 750l-617 -750h-29l619 750h27zM892 372h-190l-23 -107q-2 -10 -4.5 -20t-5.5 -19l1 -1q22 11 48 17t49 6q110 0 110 -90q0 -81 -41.5 -122t-110.5 -41q-35 0 -61.5 8.5t-46.5 23.5l13 23
q20 -16 42 -24.5t54 -8.5q64 0 95 37.5t31 101.5q0 35 -21 53t-72 18q-29 0 -55 -7t-45 -18l-15 6l42 186h208z" />
    <glyph glyph-name="uni2158" unicode="&#x2158;" horiz-adv-x="972" 
d="M289 450l-13 -95h-25l13 95h-208l-1 17l242 282h34l-39 -278h54l-4 -21h-53zM299 686l8 40l-2 2q-6 -8 -13 -16.5t-13 -16.5l-164 -193q-7 -8 -13.5 -15t-13.5 -14l1 -2h178zM824 750l-617 -750h-29l619 750h27zM913 372h-190l-23 -107q-2 -10 -4.5 -20t-5.5 -19l1 -1
q22 11 48 17t49 6q110 0 110 -90q0 -81 -41.5 -122t-110.5 -41q-35 0 -61.5 8.5t-46.5 23.5l13 23q20 -16 42 -24.5t54 -8.5q64 0 95 37.5t31 101.5q0 35 -21 53t-72 18q-29 0 -55 -7t-45 -18l-15 6l42 186h208z" />
    <glyph glyph-name="uni2159" unicode="&#x2159;" horiz-adv-x="878" 
d="M179 355h-27l44 315q2 10 3.5 21.5t4.5 20.5l-2 2q-8 -6 -16.5 -12.5t-16.5 -11.5l-71 -46l1 26l116 82h19zM730 750l-617 -750h-29l619 750h27zM812 359q-18 8 -36 12.5t-44 4.5q-66 0 -104 -43.5t-52 -130.5l1 -1q25 23 57.5 35t64.5 12q55 0 80.5 -21t25.5 -66
q0 -81 -40.5 -123.5t-109.5 -42.5q-54 0 -83 28.5t-29 97.5q0 14 1.5 29t3.5 32q16 114 64 165.5t125 51.5q23 0 42.5 -4.5t39.5 -12.5zM694 224q-14 0 -30.5 -3.5t-33 -9.5t-31.5 -15t-25 -20q-3 -27 -3 -50q0 -57 21.5 -82.5t66.5 -25.5q25 0 47 8t38 25t25.5 42.5
t9.5 61.5q0 69 -85 69z" />
    <glyph glyph-name="uni215A" unicode="&#x215a;" horiz-adv-x="972" 
d="M343 727h-190l-23 -107q-2 -10 -4.5 -20t-5.5 -19l1 -1q22 11 48 17t49 6q110 0 110 -90q0 -81 -41.5 -122t-110.5 -41q-35 0 -61.5 8.5t-46.5 23.5l13 23q20 -16 42 -24.5t54 -8.5q64 0 95 37.5t31 101.5q0 35 -21 53t-72 18q-29 0 -55 -7t-45 -18l-15 6l42 186h208z
M824 750l-617 -750h-29l619 750h27zM906 359q-18 8 -36 12.5t-44 4.5q-66 0 -104 -43.5t-52 -130.5l1 -1q25 23 57.5 35t64.5 12q55 0 80.5 -21t25.5 -66q0 -81 -40.5 -123.5t-109.5 -42.5q-54 0 -83 28.5t-29 97.5q0 14 1.5 29t3.5 32q16 114 64 165.5t125 51.5
q23 0 42.5 -4.5t39.5 -12.5zM788 224q-14 0 -30.5 -3.5t-33 -9.5t-31.5 -15t-25 -20q-3 -27 -3 -50q0 -57 21.5 -82.5t66.5 -25.5q25 0 47 8t38 25t25.5 42.5t9.5 61.5q0 69 -85 69z" />
    <glyph glyph-name="oneeighth" unicode="&#x215b;" horiz-adv-x="878" 
d="M179 355h-27l44 315q2 10 3.5 21.5t4.5 20.5l-2 2q-8 -6 -16.5 -12.5t-16.5 -11.5l-71 -46l1 26l116 82h19zM730 750l-617 -750h-29l619 750h27zM652 -5q-63 0 -92.5 21.5t-29.5 65.5q0 49 28 79t74 48v2q-26 10 -42 27t-16 48q0 52 33 82.5t102 30.5q54 0 79 -19t25 -58
q0 -83 -88 -116v-2q31 -10 53 -28t22 -54q0 -66 -40 -96.5t-108 -30.5zM659 200q-42 -18 -71 -43.5t-29 -70.5q0 -33 22.5 -50.5t73.5 -17.5q24 0 45 6t37.5 18t26 30.5t9.5 42.5q0 21 -10.5 34t-27 22t-36.5 15.5t-40 13.5zM706 378q-48 0 -76.5 -23.5t-28.5 -65.5
q0 -18 8.5 -30t22 -20t31 -14t35.5 -11q89 34 89 101q0 30 -20 46.5t-61 16.5z" />
    <glyph glyph-name="threeeighths" unicode="&#x215c;" horiz-adv-x="951" 
d="M228 754q52 0 81 -19.5t29 -58.5q0 -50 -28 -74.5t-67 -32.5v-2q38 -6 58.5 -23.5t20.5 -52.5q0 -62 -40.5 -101.5t-114.5 -39.5q-39 0 -63.5 7.5t-50.5 24.5l12 22q20 -15 45.5 -23t59.5 -8q63 0 94.5 34t31.5 82q0 37 -29.5 52t-96.5 15l3 23q72 0 105.5 23t33.5 68
q0 30 -25 45t-63 15q-35 0 -62 -10t-51 -29l-7 20q21 17 53.5 30t70.5 13zM803 750l-617 -750h-29l619 750h27zM725 -5q-63 0 -92.5 21.5t-29.5 65.5q0 49 28 79t74 48v2q-26 10 -42 27t-16 48q0 52 33 82.5t102 30.5q54 0 79 -19t25 -58q0 -83 -88 -116v-2q31 -10 53 -28
t22 -54q0 -66 -40 -96.5t-108 -30.5zM732 200q-42 -18 -71 -43.5t-29 -70.5q0 -33 22.5 -50.5t73.5 -17.5q24 0 45 6t37.5 18t26 30.5t9.5 42.5q0 21 -10.5 34t-27 22t-36.5 15.5t-40 13.5zM779 378q-48 0 -76.5 -23.5t-28.5 -65.5q0 -18 8.5 -30t22 -20t31 -14t35.5 -11
q89 34 89 101q0 30 -20 46.5t-61 16.5z" />
    <glyph glyph-name="fiveeighths" unicode="&#x215d;" horiz-adv-x="972" 
d="M343 727h-190l-23 -107q-2 -10 -4.5 -20t-5.5 -19l1 -1q22 11 48 17t49 6q110 0 110 -90q0 -81 -41.5 -122t-110.5 -41q-35 0 -61.5 8.5t-46.5 23.5l13 23q20 -16 42 -24.5t54 -8.5q64 0 95 37.5t31 101.5q0 35 -21 53t-72 18q-29 0 -55 -7t-45 -18l-15 6l42 186h208z
M824 750l-617 -750h-29l619 750h27zM746 -5q-63 0 -92.5 21.5t-29.5 65.5q0 49 28 79t74 48v2q-26 10 -42 27t-16 48q0 52 33 82.5t102 30.5q54 0 79 -19t25 -58q0 -83 -88 -116v-2q31 -10 53 -28t22 -54q0 -66 -40 -96.5t-108 -30.5zM753 200q-42 -18 -71 -43.5t-29 -70.5
q0 -33 22.5 -50.5t73.5 -17.5q24 0 45 6t37.5 18t26 30.5t9.5 42.5q0 21 -10.5 34t-27 22t-36.5 15.5t-40 13.5zM800 378q-48 0 -76.5 -23.5t-28.5 -65.5q0 -18 8.5 -30t22 -20t31 -14t35.5 -11q89 34 89 101q0 30 -20 46.5t-61 16.5z" />
    <glyph glyph-name="seveneighths" unicode="&#x215e;" horiz-adv-x="972" 
d="M363 725l-226 -370h-33l207 335q5 8 10.5 16t11.5 16l-1 2h-234l6 25h262zM824 750l-617 -750h-29l619 750h27zM746 -5q-63 0 -92.5 21.5t-29.5 65.5q0 49 28 79t74 48v2q-26 10 -42 27t-16 48q0 52 33 82.5t102 30.5q54 0 79 -19t25 -58q0 -83 -88 -116v-2
q31 -10 53 -28t22 -54q0 -66 -40 -96.5t-108 -30.5zM753 200q-42 -18 -71 -43.5t-29 -70.5q0 -33 22.5 -50.5t73.5 -17.5q24 0 45 6t37.5 18t26 30.5t9.5 42.5q0 21 -10.5 34t-27 22t-36.5 15.5t-40 13.5zM800 378q-48 0 -76.5 -23.5t-28.5 -65.5q0 -18 8.5 -30t22 -20
t31 -14t35.5 -11q89 34 89 101q0 30 -20 46.5t-61 16.5z" />
    <glyph glyph-name="uni215F" unicode="&#x215f;" horiz-adv-x="526" 
d="M179 355h-27l44 315q2 10 3.5 21.5t4.5 20.5l-2 2q-8 -6 -16.5 -12.5t-16.5 -11.5l-71 -46l1 26l116 82h19zM730 750l-617 -750h-29l619 750h27z" />
    <glyph glyph-name="uni2189" unicode="&#x2189;" horiz-adv-x="951" 
d="M233 755q57 0 85 -30t28 -100q0 -32 -6 -72q-15 -108 -55 -156t-109 -48q-57 0 -85.5 31t-28.5 103q0 16 1 33t4 37q16 109 56 155.5t110 46.5zM229 732q-27 0 -49 -8.5t-39 -29t-29.5 -55t-19.5 -86.5q-3 -20 -4 -36.5t-1 -31.5q0 -64 23.5 -88.5t68.5 -24.5
q27 0 48.5 8.5t38 29.5t28.5 55.5t19 87.5q6 40 6 70q0 62 -23.5 85.5t-66.5 23.5zM824 750l-617 -750h-29l619 750h27zM798 399q52 0 81 -19.5t29 -58.5q0 -50 -28 -74.5t-67 -32.5v-2q38 -6 58.5 -23.5t20.5 -52.5q0 -62 -40.5 -101.5t-114.5 -39.5q-39 0 -63.5 7.5
t-50.5 24.5l12 22q20 -15 45.5 -23t59.5 -8q63 0 94.5 34t31.5 82q0 37 -29.5 52t-96.5 15l3 23q72 0 105.5 23t33.5 68q0 30 -25 45t-63 15q-35 0 -62 -10t-51 -29l-7 20q21 17 53.5 30t70.5 13z" />
    <glyph glyph-name="partialdiff" unicode="&#x2202;" horiz-adv-x="624" 
d="M370 577q72 0 118.5 -28t60.5 -72h2v35q0 115 -48 168.5t-143 53.5q-68 0 -116 -20.5t-88 -58.5l-10 19q41 37 94 60.5t125 23.5q99 0 154.5 -59t55.5 -183q0 -103 -28.5 -198.5t-77 -169t-114 -117.5t-138.5 -44q-91 0 -133.5 46t-42.5 130q0 14 1.5 28.5t3.5 30.5
q11 80 38.5 145.5t68.5 112t96 72t121 25.5zM537 406q1 5 1 15q0 24 -10.5 48t-31.5 43t-52 30.5t-73 11.5q-119 0 -197 -85.5t-101 -244.5q-2 -15 -3 -28.5t-1 -26.5q0 -158 153 -158q64 0 117.5 34t94 90t66.5 126.5t37 144.5z" />
    <glyph glyph-name="Delta" unicode="&#x2206;" horiz-adv-x="770" 
d="M660 0h-651l420 755h23zM436 720q-4 -9 -8.5 -18t-9.5 -18l-361 -659h564l-174 655q-2 10 -4.5 20t-4.5 20h-2z" />
    <glyph glyph-name="product" unicode="&#x220f;" horiz-adv-x="738" 
d="M174 -142v866l-88 4l-1 22h571l-2 -22l-87 -4v-866h-29v865h-335v-865h-29z" />
    <glyph glyph-name="summation" unicode="&#x2211;" horiz-adv-x="709" 
d="M201 -53l-49 -64l2 -3l80 3h415l-2 -25h-528v21l306 434l-306 416v21h509l2 -26h-471l-1 -2l48 -62l253 -343v-9z" />
    <glyph glyph-name="minus" unicode="&#x2212;" 
d="M86 329l4 27h414l-4 -27h-414z" />
    <glyph glyph-name="uni2219" unicode="&#x2219;" 
d="M187 322q15 109 125 109q96 0 96 -84q0 -69 -34 -102.5t-93 -33.5q-96 0 -96 83v13q0 7 2 15z" />
    <glyph glyph-name="radical" unicode="&#x221a;" horiz-adv-x="552" 
d="M28 481h111l85 -411q2 -11 4 -21t3 -19h2q3 9 7 19t8 19l319 738h29l-349 -806h-33l-97 457h-92z" />
    <glyph glyph-name="infinity" unicode="&#x221e;" horiz-adv-x="717" 
d="M522 189q-61 0 -100 32t-68 89h-3q-12 -25 -25.5 -47t-32 -38.5t-42.5 -26t-56 -9.5q-60 0 -99.5 42.5t-39.5 123.5q0 36 9.5 66t27.5 52t43.5 34.5t58.5 12.5q59 0 98.5 -33t69.5 -88h3q11 24 25 46t32.5 38.5t42.5 26.5t56 10q30 0 55 -11t44 -32.5t29.5 -52.5
t10.5 -71q0 -36 -9.5 -66t-27.5 -51.5t-44 -34t-58 -12.5zM523 493q-33 0 -56.5 -13.5t-41.5 -35.5t-32 -50t-27 -57q29 -60 65.5 -91t90.5 -31q27 0 47.5 11t35 29.5t21.5 43.5t7 54q0 66 -32 103t-78 37zM194 216q33 0 56.5 13t41 35t31.5 49.5t27 56.5q-29 61 -65 92
t-90 31q-27 0 -47.5 -10.5t-34.5 -29.5t-21.5 -44t-7.5 -53q0 -67 32 -103.5t78 -36.5z" />
    <glyph glyph-name="integral" unicode="&#x222b;" horiz-adv-x="306" 
d="M170 36q0 -90 -40.5 -136.5t-124.5 -46.5v22q71 2 101.5 42.5t30.5 118.5v579q0 88 41.5 135.5t121.5 49.5l1 -25q-63 -1 -97 -42t-34 -119v-578z" />
    <glyph glyph-name="approxequal" unicode="&#x2248;" horiz-adv-x="660" 
d="M438 377q-28 0 -56.5 10t-56.5 22t-55 22t-52 10q-32 0 -56.5 -10t-50.5 -28v26q22 16 48.5 26t58.5 10q27 0 55 -10t56 -22t55.5 -22t53.5 -10q33 0 58.5 11t50.5 28v-25q-21 -17 -48.5 -27.5t-60.5 -10.5zM438 227q-28 0 -56.5 10t-56.5 22t-55 22t-52 10
q-32 0 -56.5 -10.5t-50.5 -28.5v25q22 17 48.5 27.5t58.5 10.5q27 0 55 -10t56 -22t55.5 -22t53.5 -10q33 0 58.5 10t50.5 28v-25q-21 -17 -48.5 -27t-60.5 -10z" />
    <glyph glyph-name="notequal" unicode="&#x2260;" horiz-adv-x="660" 
d="M453 551l-64 -117h158v-24h-171l-71 -132h242v-25h-256l-71 -132l-23 10l66 122h-152v25h165l72 132h-237v24h250l70 128z" />
    <glyph glyph-name="lessequal" unicode="&#x2264;" horiz-adv-x="660" 
d="M179 382q-9 -5 -18.5 -9t-18.5 -7v-2q9 -3 18.5 -7.5t18.5 -8.5l352 -159v-28l-417 193v23l417 204v-29zM119 69v24h412v-24h-412z" />
    <glyph glyph-name="greaterequal" unicode="&#x2265;" horiz-adv-x="660" 
d="M114 189l352 159q9 4 18.5 8.5t18.5 7.5v2q-20 7 -37 16l-352 170v29l418 -204v-23l-418 -193v28zM114 69v24h412v-24h-412z" />
    <glyph glyph-name="dotmath" unicode="&#x22c5;" 
d="M302 372q26 0 26 -24q0 -18 -9.5 -27.5t-25.5 -9.5q-29 0 -29 22q0 39 38 39z" />
    <glyph glyph-name="lozenge" unicode="&#x25ca;" horiz-adv-x="600" 
d="M300 623l265 -307l-265 -307l-264 307zM72 315l228 -263l227 263l-227 264z" />
    <glyph glyph-name="orn001" unicode="&#xea01;" horiz-adv-x="724" 
d="M367 -12q-27 0 -50.5 22t-43 51t-35.5 58t-28 44q-21 24 -46 59.5t-46 79.5t-35.5 95.5t-14.5 107.5q0 52 15.5 99t51 82.5t92.5 56.5t140 21q84 0 141.5 -21t93 -56.5t51 -82.5t15.5 -99q0 -56 -14 -107.5t-35.5 -95.5t-46.5 -79.5t-46 -59.5q-13 -15 -29 -44t-35.5 -58
t-43 -51t-51.5 -22zM369 16q21 0 40.5 20t36.5 47t32.5 53.5t27.5 40.5q19 21 42.5 53t44.5 72.5t35 87.5t14 97q0 22 -13.5 38t-45 26t-84 14.5t-131.5 4.5q-77 0 -129.5 -4.5t-84.5 -14.5t-46 -25.5t-14 -36.5q0 -51 14 -98t35 -87.5t44.5 -73t42.5 -53.5
q12 -14 27.5 -40.5t33.5 -53.5t37.5 -47t40.5 -20zM462 227q-44 12 -94 12q-51 0 -93 -12q-14 15 -26.5 34.5t-20.5 40.5q32 -12 68 -18t73 -6q76 0 141 24q-17 -44 -48 -75zM389 380q15 5 33.5 12.5t37.5 17t37 21t32 26.5q8 -11 14 -25t6 -31q-15 -7 -33.5 -13t-38 -11
t-38.5 -9t-35 -6zM332 362q-32 5 -73.5 15t-70.5 24q0 17 6.5 31t14.5 25q13 -15 31 -26.5t37 -21t37.5 -17t34.5 -12.5z" />
    <glyph glyph-name="fi" unicode="&#xfb01;" horiz-adv-x="574" 
d="M57 584h101q9 65 27 107t46.5 66.5t68 34t91.5 9.5l-2 -22q-37 0 -70 -6.5t-59 -27t-45 -59t-28 -102.5h282q7 0 14.5 0.5t13.5 1.5l-82 -586h-28l79 564h-282l-79 -564h-29l79 564h-103zM512 794q28 0 28 -27q0 -20 -10.5 -28.5t-26.5 -8.5q-13 0 -20.5 4.5t-7.5 18.5
q0 19 10 30t27 11z" />
    <glyph glyph-name="fl" unicode="&#xfb02;" horiz-adv-x="543" 
d="M57 584h101q10 66 30.5 108t53 67t76.5 34.5t100 9.5q35 0 54.5 -2.5t32.5 -5.5l-111 -795h-28l109 779q-12 2 -26.5 3t-36.5 1q-53 0 -92 -11t-66 -34.5t-43.5 -61.5t-23.5 -92h177l-3 -20h-177l-79 -564h-29l79 564h-103z" />
    <glyph glyph-name="uniFEFF" unicode="&#xfeff;" horiz-adv-x="0" 
 />
    <glyph glyph-name="afii57929" horiz-adv-x="211" 
d="M168 802q14 0 20.5 -8t6.5 -21t-7 -31t-19 -39.5t-26.5 -44t-29.5 -44.5l-12 8q17 28 32 57t25 60h-3q-26 0 -26 24q0 14 9.5 26.5t29.5 12.5z" />
    <glyph glyph-name="product.alt001" horiz-adv-x="739" 
d="M105 -141l122 867l-87 4l2 20h569l-5 -20l-87 -4l-122 -867h-27l121 866h-338l-121 -866h-27z" />
    <glyph glyph-name="summation.alt001" horiz-adv-x="711" 
d="M112 -88q-6 -8 -13 -15t-14 -13l1 -2h497l-5 -23h-528l2 19l367 435l-247 418l3 19h509l-1 -24h-475l-1 -2q5 -7 10.5 -15.5t10.5 -16.5l224 -375l-1 -9z" />
    <glyph glyph-name="infinity.alt001" horiz-adv-x="717" 
d="M216 519q60 0 95 -33.5t58 -89.5h2q15 25 32 47t38 39t46.5 27t57.5 10q52 0 85 -33.5t33 -97.5q0 -42 -12.5 -78.5t-34.5 -63t-52 -41.5t-66 -15q-60 0 -95 32.5t-57 87.5h-2q-15 -24 -32 -46t-37.5 -38.5t-46 -26t-57.5 -9.5q-54 0 -86.5 33.5t-32.5 96.5q0 42 12.5 78
t34.5 63t52 42.5t65 15.5zM174 214q28 0 50.5 9.5t43.5 29t41.5 48.5t44.5 69q-22 61 -54 92.5t-87 31.5q-30 0 -55 -13.5t-42 -37t-26.5 -54t-9.5 -64.5q0 -54 26 -82.5t68 -28.5zM542 494q-28 0 -50.5 -9.5t-42.5 -28.5t-41 -49t-46 -70q21 -60 53 -91.5t88 -31.5
q30 0 55 13.5t42 36.5t26.5 53.5t9.5 64.5q0 53 -26 82.5t-68 29.5z" />
    <glyph glyph-name="integral.alt001" horiz-adv-x="306" 
d="M124 37q-13 -90 -60 -136.5t-129 -46.5l3 20q71 3 107.5 43.5t47.5 119.5l81 578q12 88 61 135.5t127 49.5l-2 -23q-63 -1 -103.5 -43t-51.5 -120z" />
    <glyph glyph-name="lozenge.alt001" horiz-adv-x="601" 
d="M337 622l222 -307l-308 -306l-221 306zM64 315l193 -266l267 266l-193 266z" />
    <glyph glyph-name="i.latn_TRK" horiz-adv-x="245" 
d="M58 0l81 582l30 3l-82 -585h-29zM186 794q28 0 28 -27q0 -20 -10.5 -28.5t-26.5 -8.5q-13 0 -20.5 4.5t-7.5 18.5q0 19 10 30t27 11z" />
    <glyph glyph-name="Ldot.latn_CAT" horiz-adv-x="581" 
d="M502 27l-5 -27h-422l105 750h29l-102 -723h395zM435 439q26 0 26 -24q0 -18 -9.5 -27.5t-25.5 -9.5q-29 0 -29 23q0 38 38 38z" />
    <glyph glyph-name="ldot.latn_CAT" horiz-adv-x="329" 
d="M49 0l112 801l29 5l-113 -806h-28zM288 412q26 0 26 -23q0 -38 -34 -38q-30 0 -30 24q0 37 38 37z" />
    <glyph glyph-name="dollar.subs" horiz-adv-x="301" 
d="M193 325l-17 -82q25 -2 46 -7t38 -13l-9 -22q-20 9 -42 14t-48 5q-25 0 -43.5 -7t-31 -18.5t-18.5 -25.5t-6 -28q0 -20 13 -32t33 -20t42.5 -14.5t42.5 -16t33 -25t13 -40.5q0 -54 -35 -86t-92 -35l-13 -85h-26l15 85q-56 1 -93 28l9 24q20 -17 45 -23t54 -6
q48 0 77.5 24t29.5 65q0 22 -13 34.5t-33 21t-42.5 15t-42.5 16.5t-33 24.5t-13 39.5q0 42 30 73t87 34l17 83h26z" />
    <glyph glyph-name="comma.subs" horiz-adv-x="142" 
d="M9 -102q23 0 23 -21q0 -6 -4.5 -18t-12 -26.5t-17 -30t-18.5 -28.5l-11 3q8 16 16 35.5t15 36.5h-2q-11 0 -16 6t-5 14q0 13 8 21t24 8z" />
    <glyph glyph-name="period.subs" horiz-adv-x="142" 
d="M8 -101q24 0 24 -18q0 -14 -7.5 -22t-23.5 -8q-24 0 -24 19q0 15 9 22t22 7z" />
    <glyph glyph-name="cent.subs" horiz-adv-x="301" 
d="M247 197q-16 8 -36 14t-41 6q-74 0 -110.5 -49t-36.5 -160q0 -60 25 -85t77 -25q23 0 45 7.5t42 20.5l-1 -24q-17 -11 -40 -18.5t-49 -8.5l-14 -88h-27l16 88q-51 4 -77 34.5t-26 93.5q0 14 1.5 29t3.5 32q12 88 49 131.5t109 46.5l16 83h26l-16 -84q40 -3 69 -19z" />
    <glyph glyph-name="dollar.sups" horiz-adv-x="301" 
d="M282 971l-17 -82q25 -2 46 -7t38 -13l-9 -22q-20 9 -42 14t-48 5q-25 0 -43.5 -7t-31 -18.5t-18.5 -25.5t-6 -28q0 -20 13 -32t33 -20t42.5 -14.5t42.5 -16t33 -25t13 -40.5q0 -54 -35 -86t-92 -35l-13 -85h-26l15 85q-56 1 -93 28l9 24q20 -17 45 -23t54 -6
q48 0 77.5 24t29.5 65q0 22 -13 34.5t-33 21t-42.5 15t-42.5 16.5t-33 24.5t-13 39.5q0 42 30 73t87 34l17 83h26z" />
    <glyph glyph-name="comma.sups" horiz-adv-x="142" 
d="M98 544q23 0 23 -21q0 -6 -4.5 -18t-12 -26.5t-17 -30t-18.5 -28.5l-11 3q8 16 16 35.5t15 36.5h-2q-11 0 -16 6t-5 14q0 13 8 21t24 8z" />
    <glyph glyph-name="period.sups" horiz-adv-x="142" 
d="M97 545q24 0 24 -18q0 -14 -7.5 -22t-23.5 -8q-24 0 -24 19q0 15 9 22t22 7z" />
    <glyph glyph-name="cent.sups" horiz-adv-x="301" 
d="M336 843q-16 8 -36 14t-41 6q-74 0 -110.5 -49t-36.5 -160q0 -60 25 -85t77 -25q23 0 45 7.5t42 20.5l-1 -24q-17 -11 -40 -18.5t-49 -8.5l-14 -88h-27l16 88q-51 4 -77 34.5t-26 93.5q0 14 1.5 29t3.5 32q12 88 49 131.5t109 46.5l16 83h26l-16 -84q40 -3 69 -19z" />
    <glyph glyph-name="dollar.numr" horiz-adv-x="301" 
d="M261 819l-17 -82q25 -2 46 -7t38 -13l-9 -22q-20 9 -42 14t-48 5q-25 0 -43.5 -7t-31 -18.5t-18.5 -25.5t-6 -28q0 -20 13 -32t33 -20t42.5 -14.5t42.5 -16t33 -25t13 -40.5q0 -54 -35 -86t-92 -35l-13 -85h-26l15 85q-56 1 -93 28l9 24q20 -17 45 -23t54 -6
q48 0 77.5 24t29.5 65q0 22 -13 34.5t-33 21t-42.5 15t-42.5 16.5t-33 24.5t-13 39.5q0 42 30 73t87 34l17 83h26z" />
    <glyph glyph-name="parenleft.numr" horiz-adv-x="198" 
d="M236 781q-25 -30 -47 -64t-38 -71.5t-25 -78.5t-9 -87q0 -54 14 -99.5t37 -86.5h-26q-25 35 -38.5 81t-13.5 100q0 98 33.5 173.5t87.5 133.5z" />
    <glyph glyph-name="parenright.numr" horiz-adv-x="198" 
d="M109 782q24 -39 37.5 -82t13.5 -96q0 -93 -33.5 -174t-86.5 -136h-27q24 30 45.5 63t38 70t26 78t9.5 88q0 54 -14 100t-37 88z" />
    <glyph glyph-name="plus.numr" horiz-adv-x="354" 
d="M215 545v-120h-24v120h-117v22h117v123h24v-123h119v-22h-119z" />
    <glyph glyph-name="comma.numr" horiz-adv-x="142" 
d="M77 392q23 0 23 -21q0 -6 -4.5 -18t-12 -26.5t-17 -30t-18.5 -28.5l-11 3q8 16 16 35.5t15 36.5h-2q-11 0 -16 6t-5 14q0 13 8 21t24 8z" />
    <glyph glyph-name="period.numr" horiz-adv-x="142" 
d="M76 393q24 0 24 -18q0 -14 -7.5 -22t-23.5 -8q-24 0 -24 19q0 15 9 22t22 7z" />
    <glyph glyph-name="zero.numr" horiz-adv-x="352" 
d="M233 755q57 0 85 -30t28 -100q0 -32 -6 -72q-15 -108 -55 -156t-109 -48q-57 0 -85.5 31t-28.5 103q0 16 1 33t4 37q16 109 56 155.5t110 46.5zM229 732q-27 0 -49 -8.5t-39 -29t-29.5 -55t-19.5 -86.5q-3 -20 -4 -36.5t-1 -31.5q0 -64 23.5 -88.5t68.5 -24.5
q27 0 48.5 8.5t38 29.5t28.5 55.5t19 87.5q6 40 6 70q0 62 -23.5 85.5t-66.5 23.5z" />
    <glyph glyph-name="one.numr" horiz-adv-x="258" 
d="M179 355h-27l44 315q2 10 3.5 21.5t4.5 20.5l-2 2q-8 -6 -16.5 -12.5t-16.5 -11.5l-71 -46l1 26l116 82h19z" />
    <glyph glyph-name="two.numr" horiz-adv-x="331" 
d="M225 754q54 0 81.5 -22.5t27.5 -62.5q0 -36 -18.5 -70.5t-51 -70t-77.5 -71.5t-98 -75v-3h211l-4 -24h-249l2 20q47 40 93 77.5t82 73.5t58.5 70.5t22.5 67.5q0 28 -19.5 47t-69.5 19q-31 0 -59 -11.5t-52 -29.5l-5 22q24 17 56 30t69 13z" />
    <glyph glyph-name="three.numr" horiz-adv-x="331" 
d="M228 754q52 0 81 -19.5t29 -58.5q0 -50 -28 -74.5t-67 -32.5v-2q38 -6 58.5 -23.5t20.5 -52.5q0 -62 -40.5 -101.5t-114.5 -39.5q-39 0 -63.5 7.5t-50.5 24.5l12 22q20 -15 45.5 -23t59.5 -8q63 0 94.5 34t31.5 82q0 37 -29.5 52t-96.5 15l3 23q72 0 105.5 23t33.5 68
q0 30 -25 45t-63 15q-35 0 -62 -10t-51 -29l-7 20q21 17 53.5 30t70.5 13z" />
    <glyph glyph-name="four.numr" horiz-adv-x="352" 
d="M289 450l-13 -95h-25l13 95h-208l-1 17l242 282h34l-39 -278h54l-4 -21h-53zM299 686l8 40l-2 2q-6 -8 -13 -16.5t-13 -16.5l-164 -193q-7 -8 -13.5 -15t-13.5 -14l1 -2h178z" />
    <glyph glyph-name="five.numr" horiz-adv-x="352" 
d="M343 727h-190l-23 -107q-2 -10 -4.5 -20t-5.5 -19l1 -1q22 11 48 17t49 6q110 0 110 -90q0 -81 -41.5 -122t-110.5 -41q-35 0 -61.5 8.5t-46.5 23.5l13 23q20 -16 42 -24.5t54 -8.5q64 0 95 37.5t31 101.5q0 35 -21 53t-72 18q-29 0 -55 -7t-45 -18l-15 6l42 186h208z
" />
    <glyph glyph-name="six.numr" horiz-adv-x="352" 
d="M336 714q-18 8 -36 12.5t-44 4.5q-66 0 -104 -43.5t-52 -130.5l1 -1q25 23 57.5 35t64.5 12q55 0 80.5 -21t25.5 -66q0 -81 -40.5 -123.5t-109.5 -42.5q-54 0 -83 28.5t-29 97.5q0 14 1.5 29t3.5 32q16 114 64 165.5t125 51.5q23 0 42.5 -4.5t39.5 -12.5zM218 579
q-14 0 -30.5 -3.5t-33 -9.5t-31.5 -15t-25 -20q-3 -27 -3 -50q0 -57 21.5 -82.5t66.5 -25.5q25 0 47 8t38 25t25.5 42.5t9.5 61.5q0 69 -85 69z" />
    <glyph glyph-name="seven.numr" horiz-adv-x="352" 
d="M363 725l-226 -370h-33l207 335q5 8 10.5 16t11.5 16l-1 2h-234l6 25h262z" />
    <glyph glyph-name="eight.numr" horiz-adv-x="352" 
d="M176 350q-63 0 -92.5 21.5t-29.5 65.5q0 49 28 79t74 48v2q-26 10 -42 27t-16 48q0 52 33 82.5t102 30.5q54 0 79 -19t25 -58q0 -83 -88 -116v-2q31 -10 53 -28t22 -54q0 -66 -40 -96.5t-108 -30.5zM183 555q-42 -18 -71 -43.5t-29 -70.5q0 -33 22.5 -50.5t73.5 -17.5
q24 0 45 6t37.5 18t26 30.5t9.5 42.5q0 21 -10.5 34t-27 22t-36.5 15.5t-40 13.5zM230 733q-48 0 -76.5 -23.5t-28.5 -65.5q0 -18 8.5 -30t22 -20t31 -14t35.5 -11q89 34 89 101q0 30 -20 46.5t-61 16.5z" />
    <glyph glyph-name="nine.numr" horiz-adv-x="352" 
d="M224 755q113 0 113 -127q0 -13 -1 -26.5t-3 -28.5q-17 -119 -61 -171t-117 -52q-27 0 -45.5 5t-36.5 13l8 22q19 -8 35.5 -12.5t40.5 -4.5q62 0 98.5 43.5t53.5 147.5l-2 2q-22 -22 -51 -33t-61 -11q-60 0 -86 25.5t-26 67.5q0 30 9 55.5t27 44t44.5 29.5t60.5 11z
M221 733q-51 0 -82 -30t-31 -83q0 -35 21.5 -55t69.5 -20q29 0 59.5 10.5t49.5 31.5q3 25 3 45q0 55 -23 78t-67 23z" />
    <glyph glyph-name="equal.numr" horiz-adv-x="354" 
d="M73 598v22h264v-22h-264zM73 499v22h264v-22h-264z" />
    <glyph glyph-name="cent.numr" horiz-adv-x="301" 
d="M315 691q-16 8 -36 14t-41 6q-74 0 -110.5 -49t-36.5 -160q0 -60 25 -85t77 -25q23 0 45 7.5t42 20.5l-1 -24q-17 -11 -40 -18.5t-49 -8.5l-14 -88h-27l16 88q-51 4 -77 34.5t-26 93.5q0 14 1.5 29t3.5 32q12 88 49 131.5t109 46.5l16 83h26l-16 -84q40 -3 69 -19z" />
    <glyph glyph-name="minus.numr" horiz-adv-x="354" 
d="M80 547l1 22h255l-1 -22h-255z" />
    <glyph glyph-name="dollar.dnom" horiz-adv-x="301" 
d="M211 464l-17 -82q25 -2 46 -7t38 -13l-9 -22q-20 9 -42 14t-48 5q-25 0 -43.5 -7t-31 -18.5t-18.5 -25.5t-6 -28q0 -20 13 -32t33 -20t42.5 -14.5t42.5 -16t33 -25t13 -40.5q0 -54 -35 -86t-92 -35l-13 -85h-26l15 85q-56 1 -93 28l9 24q20 -17 45 -23t54 -6
q48 0 77.5 24t29.5 65q0 22 -13 34.5t-33 21t-42.5 15t-42.5 16.5t-33 24.5t-13 39.5q0 42 30 73t87 34l17 83h26z" />
    <glyph glyph-name="parenleft.dnom" horiz-adv-x="198" 
d="M186 426q-25 -30 -47 -64t-38 -71.5t-25 -78.5t-9 -87q0 -54 14 -99.5t37 -86.5h-26q-25 35 -38.5 81t-13.5 100q0 98 33.5 173.5t87.5 133.5z" />
    <glyph glyph-name="parenright.dnom" horiz-adv-x="198" 
d="M59 427q24 -39 37.5 -82t13.5 -96q0 -93 -33.5 -174t-86.5 -136h-27q24 30 45.5 63t38 70t26 78t9.5 88q0 54 -14 100t-37 88z" />
    <glyph glyph-name="plus.dnom" horiz-adv-x="354" 
d="M165 190v-120h-24v120h-117v22h117v123h24v-123h119v-22h-119z" />
    <glyph glyph-name="comma.dnom" horiz-adv-x="142" 
d="M27 37q23 0 23 -21q0 -6 -4.5 -18t-12 -26.5t-17 -30t-18.5 -28.5l-11 3q8 16 16 35.5t15 36.5h-2q-11 0 -16 6t-5 14q0 13 8 21t24 8z" />
    <glyph glyph-name="period.dnom" horiz-adv-x="142" 
d="M26 38q24 0 24 -18q0 -14 -7.5 -22t-23.5 -8q-24 0 -24 19q0 15 9 22t22 7z" />
    <glyph glyph-name="zero.dnom" horiz-adv-x="352" 
d="M183 400q57 0 85 -30t28 -100q0 -32 -6 -72q-15 -108 -55 -156t-109 -48q-57 0 -85.5 31t-28.5 103q0 16 1 33t4 37q16 109 56 155.5t110 46.5zM179 377q-27 0 -49 -8.5t-39 -29t-29.5 -55t-19.5 -86.5q-3 -20 -4 -36.5t-1 -31.5q0 -64 23.5 -88.5t68.5 -24.5
q27 0 48.5 8.5t38 29.5t28.5 55.5t19 87.5q6 40 6 70q0 62 -23.5 85.5t-66.5 23.5z" />
    <glyph glyph-name="one.dnom" horiz-adv-x="258" 
d="M129 0h-27l44 315q2 10 3.5 21.5t4.5 20.5l-2 2q-8 -6 -16.5 -12.5t-16.5 -11.5l-71 -46l1 26l116 82h19z" />
    <glyph glyph-name="two.dnom" horiz-adv-x="331" 
d="M175 399q54 0 81.5 -22.5t27.5 -62.5q0 -36 -18.5 -70.5t-51 -70t-77.5 -71.5t-98 -75v-3h211l-4 -24h-249l2 20q47 40 93 77.5t82 73.5t58.5 70.5t22.5 67.5q0 28 -19.5 47t-69.5 19q-31 0 -59 -11.5t-52 -29.5l-5 22q24 17 56 30t69 13z" />
    <glyph glyph-name="three.dnom" horiz-adv-x="331" 
d="M178 399q52 0 81 -19.5t29 -58.5q0 -50 -28 -74.5t-67 -32.5v-2q38 -6 58.5 -23.5t20.5 -52.5q0 -62 -40.5 -101.5t-114.5 -39.5q-39 0 -63.5 7.5t-50.5 24.5l12 22q20 -15 45.5 -23t59.5 -8q63 0 94.5 34t31.5 82q0 37 -29.5 52t-96.5 15l3 23q72 0 105.5 23t33.5 68
q0 30 -25 45t-63 15q-35 0 -62 -10t-51 -29l-7 20q21 17 53.5 30t70.5 13z" />
    <glyph glyph-name="four.dnom" horiz-adv-x="352" 
d="M239 95l-13 -95h-25l13 95h-208l-1 17l242 282h34l-39 -278h54l-4 -21h-53zM249 331l8 40l-2 2q-6 -8 -13 -16.5t-13 -16.5l-164 -193q-7 -8 -13.5 -15t-13.5 -14l1 -2h178z" />
    <glyph glyph-name="five.dnom" horiz-adv-x="352" 
d="M293 372h-190l-23 -107q-2 -10 -4.5 -20t-5.5 -19l1 -1q22 11 48 17t49 6q110 0 110 -90q0 -81 -41.5 -122t-110.5 -41q-35 0 -61.5 8.5t-46.5 23.5l13 23q20 -16 42 -24.5t54 -8.5q64 0 95 37.5t31 101.5q0 35 -21 53t-72 18q-29 0 -55 -7t-45 -18l-15 6l42 186h208z
" />
    <glyph glyph-name="six.dnom" horiz-adv-x="352" 
d="M286 359q-18 8 -36 12.5t-44 4.5q-66 0 -104 -43.5t-52 -130.5l1 -1q25 23 57.5 35t64.5 12q55 0 80.5 -21t25.5 -66q0 -81 -40.5 -123.5t-109.5 -42.5q-54 0 -83 28.5t-29 97.5q0 14 1.5 29t3.5 32q16 114 64 165.5t125 51.5q23 0 42.5 -4.5t39.5 -12.5zM168 224
q-14 0 -30.5 -3.5t-33 -9.5t-31.5 -15t-25 -20q-3 -27 -3 -50q0 -57 21.5 -82.5t66.5 -25.5q25 0 47 8t38 25t25.5 42.5t9.5 61.5q0 69 -85 69z" />
    <glyph glyph-name="seven.dnom" horiz-adv-x="352" 
d="M313 370l-226 -370h-33l207 335q5 8 10.5 16t11.5 16l-1 2h-234l6 25h262z" />
    <glyph glyph-name="eight.dnom" horiz-adv-x="352" 
d="M126 -5q-63 0 -92.5 21.5t-29.5 65.5q0 49 28 79t74 48v2q-26 10 -42 27t-16 48q0 52 33 82.5t102 30.5q54 0 79 -19t25 -58q0 -83 -88 -116v-2q31 -10 53 -28t22 -54q0 -66 -40 -96.5t-108 -30.5zM133 200q-42 -18 -71 -43.5t-29 -70.5q0 -33 22.5 -50.5t73.5 -17.5
q24 0 45 6t37.5 18t26 30.5t9.5 42.5q0 21 -10.5 34t-27 22t-36.5 15.5t-40 13.5zM180 378q-48 0 -76.5 -23.5t-28.5 -65.5q0 -18 8.5 -30t22 -20t31 -14t35.5 -11q89 34 89 101q0 30 -20 46.5t-61 16.5z" />
    <glyph glyph-name="nine.dnom" horiz-adv-x="352" 
d="M174 400q113 0 113 -127q0 -13 -1 -26.5t-3 -28.5q-17 -119 -61 -171t-117 -52q-27 0 -45.5 5t-36.5 13l8 22q19 -8 35.5 -12.5t40.5 -4.5q62 0 98.5 43.5t53.5 147.5l-2 2q-22 -22 -51 -33t-61 -11q-60 0 -86 25.5t-26 67.5q0 30 9 55.5t27 44t44.5 29.5t60.5 11z
M171 378q-51 0 -82 -30t-31 -83q0 -35 21.5 -55t69.5 -20q29 0 59.5 10.5t49.5 31.5q3 25 3 45q0 55 -23 78t-67 23z" />
    <glyph glyph-name="equal.dnom" horiz-adv-x="354" 
d="M23 243v22h264v-22h-264zM23 144v22h264v-22h-264z" />
    <glyph glyph-name="cent.dnom" horiz-adv-x="301" 
d="M265 336q-16 8 -36 14t-41 6q-74 0 -110.5 -49t-36.5 -160q0 -60 25 -85t77 -25q23 0 45 7.5t42 20.5l-1 -24q-17 -11 -40 -18.5t-49 -8.5l-14 -88h-27l16 88q-51 4 -77 34.5t-26 93.5q0 14 1.5 29t3.5 32q12 88 49 131.5t109 46.5l16 83h26l-16 -84q40 -3 69 -19z" />
    <glyph glyph-name="minus.dnom" horiz-adv-x="354" 
d="M30 192l1 22h255l-1 -22h-255z" />
    <glyph glyph-name="numbersign.osf" 
d="M156 244l53 173h-144l3 23h146l60 209h25l-59 -209h167l59 209h25l-60 -209h117l-3 -23h-119l-51 -173h146l-3 -23h-149l-62 -221h-25l62 221h-168l-61 -221h-25l60 221h-113l3 23h116zM182 244h168l52 173h-168z" />
    <glyph glyph-name="dollar.osf" horiz-adv-x="485" 
d="M341 733l-27 -141q32 -3 64.5 -12t58.5 -24l-13 -21q-31 17 -68 25.5t-72 8.5q-38 0 -69 -9.5t-53.5 -26t-35 -39.5t-12.5 -50q0 -34 21.5 -55.5t53.5 -37.5t69.5 -30t69.5 -33t53.5 -45.5t21.5 -67.5q0 -38 -13.5 -70.5t-38 -56.5t-60 -38.5t-80.5 -16.5l-27 -156h-27
l26 155q-50 2 -94.5 19t-70.5 45l15 21q27 -29 69.5 -44.5t90.5 -15.5q44 0 77.5 12t56.5 32.5t34.5 48t11.5 58.5q0 37 -21.5 61.5t-53.5 42t-69.5 31.5t-69.5 32t-53.5 42t-21.5 62q0 74 55.5 114t148.5 40l27 140h26z" />
    <glyph glyph-name="zero.osf" horiz-adv-x="636" 
d="M356 623q107 0 157 -50t50 -164q0 -23 -2 -48.5t-6 -54.5q-12 -85 -34.5 -145t-57.5 -98t-83.5 -55.5t-112.5 -17.5q-108 0 -158 49.5t-50 161.5q0 23 1.5 49.5t6.5 55.5q12 85 34.5 145t57 98.5t83.5 56t114 17.5zM352 597q-56 0 -99.5 -14.5t-75 -48.5t-52 -90
t-31.5 -138q-4 -29 -6 -54t-2 -47q0 -105 46 -147.5t139 -42.5q56 0 98.5 15t74 49t52 89.5t32.5 137.5q4 29 6 53.5t2 46.5q0 53 -11.5 89.5t-34.5 59t-57.5 32.5t-80.5 10z" />
    <glyph glyph-name="one.osf" horiz-adv-x="477" 
d="M271 0h-28l74 533q2 11 3.5 20.5t4.5 19.5l-2 2q-8 -6 -17 -12.5t-17 -11.5l-151 -96l-1 27l205 135h15z" />
    <glyph glyph-name="two.osf" horiz-adv-x="602" 
d="M329 623q96 0 147.5 -37.5t51.5 -103.5q0 -57 -33.5 -110.5t-93.5 -108t-143 -112t-181 -122.5v-3h398l-6 -26h-439l2 20q86 62 170 120t150 114t107 111t41 111q0 25 -10 47t-31 38t-54 25.5t-79 9.5q-56 0 -109.5 -19.5t-95.5 -51.5l-9 21q42 32 99.5 54.5t117.5 22.5z
" />
    <glyph glyph-name="three.osf" horiz-adv-x="590" 
d="M318 623q95 0 137.5 -34.5t42.5 -90.5q0 -71 -44 -116.5t-122 -62.5v-2q81 -8 117 -43t36 -93q0 -66 -30 -120t-84 -92t-130.5 -60t-169.5 -23l2 24q95 1 167 22.5t120.5 57t73 83t24.5 101.5q0 61 -43.5 93.5t-129.5 32.5q-15 0 -37 -1.5t-37 -3.5l1 21q76 8 126 24
t80 38.5t42 51t12 63.5q0 23 -8.5 42.5t-27.5 33.5t-49 21.5t-73 7.5q-61 0 -111.5 -17t-95.5 -49l-7 20q37 31 95.5 51t122.5 20z" />
    <glyph glyph-name="four.osf" horiz-adv-x="619" 
d="M437 78l-26 -185l-24 -3l26 188h-399l1 18l474 526l24 -4l-72 -517h107l-6 -23h-105zM479 541q2 10 3.5 19.5t4.5 20.5l-2 2q-5 -8 -13 -16.5t-14 -15.5l-377 -420q-8 -10 -14.5 -15.5t-13.5 -12.5v-2h364z" />
    <glyph glyph-name="five.osf" horiz-adv-x="574" 
d="M512 588h-351l-55 -239q-2 -10 -4.5 -20t-5.5 -19l1 -1q41 23 94 35t103 12q100 0 145 -40.5t45 -110.5q0 -68 -28 -125t-82 -99t-132 -67.5t-177 -28.5l2 26q93 3 165.5 25.5t122.5 61t76 90.5t26 114q0 65 -40 98t-128 33q-67 0 -117.5 -16t-87.5 -39l-16 10l75 325
h370z" />
    <glyph glyph-name="six.osf" horiz-adv-x="590" 
d="M496 713q-167 -6 -272 -96.5t-134 -258.5l1 -1q49 45 109 68t120 23q100 0 146 -37.5t46 -117.5q0 -12 -1 -25t-3 -27q-17 -122 -81 -185.5t-181 -63.5q-46 0 -82 11.5t-61 38t-38 69t-13 104.5q0 132 34 228.5t93.5 160.5t140 96.5t174.5 36.5zM250 19q99 0 158 55.5
t75 167.5q3 22 3 42q0 72 -42 106t-130 34q-57 0 -119.5 -26.5t-107.5 -71.5q-4 -28 -5.5 -52.5t-1.5 -46.5q0 -114 44 -161t126 -47z" />
    <glyph glyph-name="seven.osf" horiz-adv-x="590" 
d="M560 593l-435 -698h-33l411 659l10 16q5 8 12 16l-1 2h-433l8 25h464z" />
    <glyph glyph-name="eight.osf" horiz-adv-x="595" 
d="M246 -8q-111 0 -161 35t-50 103q0 40 14 71.5t38 56.5t57.5 42.5t72.5 28.5v2q-24 7 -44 17t-35 24t-23.5 33t-8.5 44q0 38 13.5 70t41.5 55t71 36t103 13q95 0 140 -32.5t45 -92.5q0 -65 -40.5 -110.5t-118.5 -68.5v-2q29 -7 55 -17t45.5 -25.5t31 -37t11.5 -52.5
q0 -48 -18 -84.5t-52 -60.5t-81.5 -36t-106.5 -12zM250 17q49 0 90.5 9.5t71.5 29.5t47 51t17 73q0 38 -21 61t-54.5 37t-74 23t-79.5 20q-40 -12 -74 -29t-59 -39.5t-39 -52.5t-14 -68q0 -29 10 -50.5t32.5 -35.5t58.5 -21.5t88 -7.5zM332 599q-105 0 -152.5 -39.5
t-47.5 -106.5q0 -32 17.5 -53t45 -34.5t63 -22.5t71.5 -16q90 27 128.5 66.5t38.5 99.5q0 51 -38 78.5t-126 27.5z" />
    <glyph glyph-name="nine.osf" horiz-adv-x="577" 
d="M316 622q92 0 144.5 -50.5t52.5 -165.5q0 -20 -2 -42t-5 -46q-15 -106 -53 -185.5t-94.5 -133t-128 -81.5t-152.5 -31l1 24q153 9 257.5 106.5t139.5 280.5l-2 2q-41 -51 -95 -73t-120 -22q-91 0 -140 41.5t-49 123.5q0 55 16 101.5t47 80t77 52t106 18.5zM311 596
q-101 0 -156.5 -60t-55.5 -160q0 -69 41 -107t127 -38q65 0 120.5 24.5t92.5 78.5q2 21 3.5 40t1.5 36q0 94 -41 140t-133 46z" />
    <glyph glyph-name="cent.osf" horiz-adv-x="505" 
d="M378 733l-28 -141q66 -3 120 -32l-12 -21q-32 14 -61 21.5t-72 7.5q-105 0 -163 -69t-78 -208q-4 -27 -5.5 -50.5t-1.5 -44.5q0 -51 10.5 -85.5t30.5 -56t48.5 -30.5t65.5 -9q52 0 92 17t75 49l10 -19q-32 -30 -70.5 -48t-89.5 -22l-27 -155h-26l27 154q-86 1 -131 48
t-45 154q0 22 2 46.5t6 52.5q41 298 269 301l28 140h26z" />
    <glyph glyph-name="sterling.osf" horiz-adv-x="525" 
d="M58 339h49q-2 25 -5 47.5t-3 47.5q0 43 11.5 83t39 71t72.5 49t113 18q48 0 89.5 -10t70.5 -29l-10 -21q-26 17 -66 28t-85 11q-60 0 -100 -16t-65 -43t-35.5 -62.5t-10.5 -75.5q0 -24 2.5 -48t4.5 -50h247l-3 -22h-242q1 -13 1.5 -26t0.5 -27q0 -89 -26 -150.5
t-73 -93.5l1 -2q24 3 47.5 5.5t48 4t52 2t60.5 0.5q52 0 104.5 -3.5t101.5 -8.5l-6 -22q-59 5 -107.5 8.5t-103.5 3.5q-63 0 -119.5 -3t-125.5 -9l3 19q33 15 56 41.5t37 60.5t20.5 73t6.5 79q0 13 -0.5 25t-1.5 23h-52z" />
    <glyph glyph-name="currency.osf" 
d="M313 487q29 0 54 -10.5t42 -29.5l73 62l15 -15l-74 -64q23 -34 23 -78q0 -34 -13.5 -64t-36.5 -54l55 -63l-20 -16l-53 63q-48 -39 -108 -39q-29 0 -53.5 10t-43.5 27l-70 -61l-13 16l69 61q-24 33 -24 79q0 35 14.5 66.5t38.5 55.5l-52 60l17 17l52 -62q24 18 51.5 28.5
t56.5 10.5zM309 460q-29 0 -56 -12t-47 -32.5t-32 -47t-12 -55.5q0 -48 31 -78.5t80 -30.5q29 0 56 11.5t47.5 31t32.5 46t12 57.5q0 47 -31 78.5t-81 31.5z" />
    <glyph glyph-name="yen.osf" 
d="M265 275l-178 374h32l152 -320q5 -11 9 -19.5t7 -17.5h2q5 8 11 16.5t12 16.5l242 324h32l-279 -374h117l-3 -24h-125l-10 -67h125l-3 -23h-125l-22 -161h-26l22 161h-132l3 23h132l10 67h-132l3 24h124z" />
    <glyph glyph-name="franc.osf" 
d="M107 140l71 509h407l-3 -26h-381l-38 -271h302l-3 -25h-303l-26 -187h102l-3 -22h-102l-16 -118h-26l16 118h-99l3 22h99z" />
    <glyph glyph-name="lira.osf" 
d="M362 656q51 0 96 -11.5t78 -31.5l-10 -21q-28 18 -72.5 29t-94.5 11q-63 0 -106 -16t-69 -44t-37.5 -64.5t-11.5 -76.5q0 -24 3 -48h301l-3 -23h-295q2 -18 3.5 -36.5t3.5 -38.5h278l-4 -22h-274v-17q0 -82 -28 -139t-74 -87l1 -2q26 4 51 6.5t51.5 4t56.5 2t66 0.5
q55 0 111 -3.5t108 -9.5l-6 -22q-62 6 -114 9.5t-111 3.5q-33 0 -64.5 -1t-63 -2.5t-64.5 -4t-70 -5.5l3 20q35 15 58.5 41t38 59t20.5 70.5t6 76.5h-62l3 22h59q-2 21 -4 38.5t-4 36.5h-40l2 23h35q-3 24 -3 49q0 43 12.5 83.5t42 72t78 50t119.5 18.5z" />
    <glyph glyph-name="peseta.osf" 
d="M189 649q50 0 74 -21.5t24 -80.5q0 -31 -6 -73q-8 -53 -19 -88t-27.5 -56t-40 -29.5t-55.5 -8.5h-70l-41 -292h-24l91 649h94zM115 625l-43 -311h70q24 0 42.5 6.5t32 24t23.5 48.5t17 81q6 40 6 68q0 50 -19 66.5t-59 16.5h-70zM515 102q-8 -60 -30 -85t-57 -25
q-32 0 -51 21l6 23q9 -13 21 -17.5t24 -4.5q27 0 46 27.5t19 84.5q0 31 -12 47.5t-26 29.5t-26 29t-12 48q0 59 24.5 90.5t60.5 31.5q14 0 24.5 -4.5t20.5 -12.5l-5 -21q-10 7 -20 11.5t-22 4.5q-26 0 -43 -25.5t-17 -69.5q0 -29 12 -43t26.5 -27t26.5 -30.5t12 -52.5v-15
q0 -7 -2 -15zM343 375l-43 -307q-1 -5 -1.5 -9.5t-0.5 -9.5q0 -20 8 -27.5t19 -7.5q14 0 20 5v-19q-11 -7 -27 -7q-20 0 -31 11.5t-11 37.5q0 6 0.5 12t1.5 13l43 308h-30l3 20h30l17 97l19 3l-14 -100h57l-3 -20h-57z" />
    <glyph glyph-name="Euro.osf" 
d="M407 660q52 0 97.5 -11t79.5 -31l-15 -22q-32 19 -73 29t-90 10q-116 0 -182 -55.5t-95 -170.5h362l-15 -22h-353q-5 -25 -8.5 -52.5t-6.5 -50.5h323l-16 -23h-308q-1 -7 -1 -13v-13q0 -120 54.5 -171t159.5 -51q47 0 92.5 14t87.5 41l7 -24q-37 -26 -88.5 -42
t-105.5 -16q-116 0 -175 58.5t-59 185.5v15q0 8 1 16h-53l3 23h51q3 24 7 50.5t9 52.5h-52l3 22h54q31 126 105 188.5t200 62.5z" />
    <glyph glyph-name="numbersign.lf" horiz-adv-x="655" 
d="M201 281l62 203h-169l3 23h171l68 243h24l-67 -243h146l68 243h24l-68 -243h138l-3 -23h-141l-60 -203h171l-3 -22h-174l-72 -259h-24l72 259h-148l-71 -259h-24l72 259h-135l3 22h137zM225 281h148l60 203h-147z" />
    <glyph glyph-name="dollar.lf" horiz-adv-x="611" 
d="M408 828l-14 -67q50 -2 93.5 -13.5t66.5 -25.5l-8 -24q-33 17 -72.5 27t-84.5 12l-65 -331q36 -13 71 -28t62.5 -36.5t44 -50.5t16.5 -71q0 -60 -19 -103t-55 -71t-87 -41.5t-114 -14.5l-17 -75h-22l14 76q-51 2 -101.5 15t-88.5 36l8 28q37 -23 86 -38t100 -18l74 375
q-36 13 -70.5 27t-62 33.5t-44 45.5t-16.5 64q0 48 20 85t55.5 63t84 40t106.5 15l18 66h21zM245 14q114 1 180.5 49.5t66.5 150.5q0 36 -14.5 61.5t-38.5 45t-55.5 34t-65.5 26.5zM365 737q-57 -1 -101 -15t-73.5 -37.5t-44.5 -55t-15 -68.5q0 -32 14 -54.5t38 -39t55 -29
t64 -24.5z" />
    <glyph glyph-name="zero.lf" horiz-adv-x="644" 
d="M378 760q55 0 95 -12.5t66.5 -40.5t39.5 -73t13 -110q0 -63 -12 -147q-15 -108 -40 -182t-62.5 -120t-88.5 -66t-119 -20q-55 0 -95.5 13t-67 41.5t-39.5 74.5t-13 112q0 63 12 147q15 108 40 181t62.5 118t89 64.5t119.5 19.5zM375 735q-59 0 -104 -16.5t-79.5 -57
t-58 -110t-38.5 -174.5q-6 -42 -8.5 -77t-2.5 -65q0 -63 12 -105.5t36 -68t59.5 -36t82.5 -10.5q59 0 104 17t79 58t57 111t38 176q12 84 12 146q0 61 -12 102t-35.5 65.5t-59 34.5t-82.5 10z" />
    <glyph glyph-name="one.lf" horiz-adv-x="479" 
d="M267 0h-30l93 668q2 10 3.5 20.5t4.5 19.5l-2 2q-8 -6 -16.5 -13t-16.5 -12l-167 -116l-1 28l221 157h16z" />
    <glyph glyph-name="two.lf" horiz-adv-x="650" 
d="M376 758q100 0 154 -41t54 -118q0 -70 -37.5 -138t-103.5 -137.5t-156.5 -142.5t-196.5 -152v-3h426l-5 -26h-468l2 20q93 76 184 149.5t164 145t118 141t45 137.5q0 29 -10 54.5t-32 44.5t-57 30t-84 11q-60 0 -117.5 -23.5t-102.5 -59.5l-9 21q45 37 105.5 62t126.5 25
z" />
    <glyph glyph-name="three.lf" horiz-adv-x="650" 
d="M377 758q97 0 150 -35.5t53 -107.5q0 -50 -16.5 -86t-44 -60.5t-62.5 -39t-72 -20.5v-2q81 -11 125 -45.5t44 -103.5q0 -17 -3 -35q-7 -51 -28.5 -93.5t-57.5 -73t-86.5 -47.5t-116.5 -17q-80 0 -129.5 19t-84.5 45l13 24q39 -30 88 -46.5t117 -16.5q64 0 112.5 19
t81.5 51.5t49.5 76t16.5 93.5q0 76 -63 107.5t-198 31.5l3 22q145 0 216 49.5t71 140.5q0 65 -50 95t-131 30q-66 0 -119.5 -22t-101.5 -60l-9 20q40 35 100 61t133 26z" />
    <glyph glyph-name="four.lf" horiz-adv-x="654" 
d="M451 188l-26 -188h-26l26 188h-364l-1 18l432 544h38l-76 -538h114l-5 -24h-112zM497 687q3 19 8 41l-2 1q-5 -8 -12 -16.5t-13 -16.5l-358 -453q-12 -15 -26 -29l1 -2h333z" />
    <glyph glyph-name="five.lf" horiz-adv-x="615" 
d="M570 724h-369l-59 -265q-2 -10 -4.5 -20t-5.5 -19l1 -1q21 12 46 21t51 15.5t52.5 9.5t49.5 3q106 0 156.5 -41t50.5 -126q0 -11 -1 -23t-3 -25q-19 -132 -89.5 -196.5t-191.5 -64.5q-69 0 -115 17t-83 47l12 26q38 -30 83 -48t105 -18q109 0 172 58t80 176q2 13 3 24
t1 22q0 77 -46 112t-140 35q-60 0 -114.5 -15t-92.5 -38l-14 11l79 349h389z" />
    <glyph glyph-name="six.lf" horiz-adv-x="622" 
d="M415 758q43 0 79 -7t74 -24l-10 -25q-34 15 -67 22.5t-77 7.5q-139 0 -216.5 -91t-105.5 -272l1 -1q53 47 117.5 72.5t126.5 25.5q108 0 156.5 -40t48.5 -123q0 -11 -1 -24t-3 -27q-17 -127 -86 -193.5t-192 -66.5q-50 0 -88.5 12t-64.5 39t-39.5 71.5t-13.5 109.5
q0 27 1.5 57t6.5 65q15 109 45 187t75 128t103.5 73.5t129.5 23.5zM331 443q-30 0 -62.5 -7t-64.5 -20.5t-61.5 -32.5t-52.5 -43q-4 -30 -5.5 -57t-1.5 -51q0 -116 44 -166t138 -50q106 0 167 60t78 176q3 24 3 45q0 75 -44 110.5t-138 35.5z" />
    <glyph glyph-name="seven.lf" horiz-adv-x="636" 
d="M622 728l-453 -728h-34l437 690q5 8 10.5 16t11.5 16l-1 2h-464l6 26h490z" />
    <glyph glyph-name="eight.lf" horiz-adv-x="627" 
d="M262 -8q-116 0 -169.5 39t-53.5 120q0 51 16 91t44.5 70.5t67.5 52.5t84 37v2q-27 9 -50 21t-40 29t-26.5 39.5t-9.5 53.5q0 98 59.5 154t185.5 56q196 0 196 -143q0 -79 -46.5 -136.5t-138.5 -87.5v-2q32 -10 61 -22.5t51 -31.5t35 -45.5t13 -63.5q0 -59 -20 -103
t-56.5 -73t-88 -43t-114.5 -14zM280 392q-47 -17 -86 -37.5t-67.5 -48.5t-44.5 -65t-16 -86q0 -68 46 -103.5t155 -35.5q52 0 97 12t78 37t52 64t19 92q0 43 -21.5 70.5t-55 45.5t-75 30.5t-81.5 24.5zM366 734q-104 0 -159.5 -47t-55.5 -135q0 -32 13 -54.5t38.5 -40
t63 -31t86.5 -28.5q101 35 143.5 86t42.5 124q0 63 -41.5 94.5t-130.5 31.5z" />
    <glyph glyph-name="nine.lf" horiz-adv-x="620" 
d="M356 758q103 0 159 -60.5t56 -185.5q0 -21 -1.5 -43.5t-5.5 -47.5q-17 -117 -46 -198.5t-71.5 -132.5t-98 -74.5t-124.5 -23.5q-44 0 -79.5 7t-73.5 26l7 23q36 -17 69.5 -24t77.5 -7q63 0 113.5 21t89 68t66 121.5t44.5 181.5l-2 2q-50 -45 -109.5 -65t-121.5 -20
q-115 0 -166 45t-51 126q0 60 17.5 108.5t51 82t83.5 52t116 18.5zM352 734q-111 0 -174 -60t-63 -169q0 -73 46.5 -114.5t146.5 -41.5q63 0 122 19.5t109 68.5q2 20 3.5 39.5t1.5 36.5q0 115 -51.5 168t-140.5 53z" />
    <glyph glyph-name="cent.lf" horiz-adv-x="507" 
d="M377 733l-28 -141q33 -2 63 -9t58 -23l-12 -21q-32 14 -61 21.5t-72 7.5q-105 0 -163 -69t-78 -208q-4 -27 -5.5 -50.5t-1.5 -44.5q0 -51 10.5 -85.5t30.5 -56t48.5 -30.5t65.5 -9q52 0 92 17t75 49l10 -19q-34 -32 -73.5 -49.5t-92.5 -20.5l-27 -155h-26l28 154
q-83 2 -127 49t-44 154q0 22 2 46.5t6 51.5q41 298 269 301l27 140h26z" />
    <glyph glyph-name="sterling.lf" horiz-adv-x="655" 
d="M104 392h56q-4 28 -7 55t-3 56q0 50 13.5 96t45.5 81.5t84.5 56.5t130.5 21q54 0 102.5 -12.5t83.5 -33.5l-11 -25q-30 20 -76.5 33t-99.5 13q-69 0 -116 -18.5t-75.5 -50t-40.5 -73.5t-12 -88q0 -28 3 -55t6 -56h285l-4 -25h-279q1 -15 1.5 -30t0.5 -31
q0 -106 -30.5 -176t-85.5 -107l1 -2q28 4 55 7t55.5 4.5t60.5 2t71 0.5q60 0 120.5 -4t117.5 -10l-7 -26q-34 3 -64.5 6t-59.5 5t-58.5 3t-61.5 1q-36 0 -70 -1t-68 -3t-69.5 -4.5t-75.5 -6.5l2 22q39 17 65.5 47.5t43 69t24 83t7.5 90.5q0 17 -1 31.5t-2 28.5h-60z" />
    <glyph glyph-name="currency.lf" horiz-adv-x="554" 
d="M298 519q31 0 56.5 -10.5t44.5 -29.5l77 66l15 -17l-77 -67q11 -17 17.5 -38t6.5 -44q0 -35 -15 -67.5t-38 -55.5l57 -67l-19 -18l-58 66q-24 -18 -53 -28.5t-59 -10.5q-62 0 -100 38l-74 -65l-16 18l75 65q-25 34 -25 80q0 37 14 69.5t40 58.5l-55 65l19 18l56 -65
q23 18 51.5 28.5t59.5 10.5zM294 495q-31 0 -59.5 -12.5t-50.5 -34t-35 -50t-13 -59.5q0 -25 9 -46.5t25 -37t38 -24t48 -8.5q31 0 59 12t50 33t35 49t13 60q0 51 -33 84.5t-86 33.5z" />
    <glyph glyph-name="yen.lf" horiz-adv-x="730" 
d="M340 311l-193 439h34l165 -384q4 -9 8 -19t7 -19h2q5 8 10.5 17t11.5 17l275 388h33l-311 -439h127l-3 -26h-134l-9 -62h135l-4 -25h-135l-27 -198h-29l27 198h-141l4 25h141l9 62h-141l3 26h135z" />
    <glyph glyph-name="franc.lf" horiz-adv-x="617" 
d="M102 156l84 594h424l-3 -28h-395l-44 -316h314l-4 -26h-314l-32 -224h107l-3 -23h-107l-18 -133h-30l18 133h-104l3 23h104z" />
    <glyph glyph-name="lira.lf" horiz-adv-x="688" 
d="M111 440h42q-2 14 -3 29t-1 31q0 51 13.5 97.5t45.5 82t85 57t131 21.5q54 0 102.5 -12.5t83.5 -33.5l-11 -25q-30 20 -76.5 33t-99.5 13q-69 0 -116 -18.5t-75.5 -50.5t-40.5 -74t-12 -89q0 -30 3 -61h317l-3 -27h-310q2 -19 3 -38.5t2 -40.5h293l-3 -28h-288
q-4 -108 -32 -176.5t-85 -106.5l1 -2q28 4 55 7t55.5 4.5t60.5 2t71 0.5q60 0 120.5 -4t117.5 -10l-7 -26q-34 3 -64.5 6t-59.5 5t-58.5 3t-61.5 1q-36 0 -70 -1t-68 -3t-69.5 -4.5t-75.5 -6.5l2 22q38 17 65 47.5t43.5 68.5t24 82.5t7.5 90.5h-70l3 28h66q0 22 -2.5 41
t-4.5 38h-48z" />
    <glyph glyph-name="peseta.lf" horiz-adv-x="764" 
d="M264 750q65 0 99 -28t34 -104q0 -30 -6 -70q-9 -59 -23.5 -99.5t-36.5 -65.5t-53 -36t-72 -11h-90l-47 -336h-28l105 750h118zM170 724l-51 -362h90q33 0 58 8t43.5 29t31 57t20.5 92q2 19 3.5 35t1.5 30q0 63 -25.5 87t-81.5 24h-90zM466 437l-50 -358q-1 -6 -1.5 -11.5
t-0.5 -10.5q0 -24 10 -33t24 -9q11 0 22 7l-1 -23q-5 -4 -14 -6t-17 -2q-26 0 -39 13.5t-13 45.5q0 7 0.5 14t1.5 14l51 359h-36l3 24h36l21 114l23 3l-17 -117h68l-3 -24h-68zM662 469q17 0 30 -5t26 -15l-7 -25q-11 9 -23.5 14t-27.5 5q-32 0 -53 -28.5t-21 -80.5
q0 -23 7 -37t18 -25t23 -20.5t23 -22t18 -30.5t7 -46q0 -44 -8.5 -75t-23 -50.5t-34 -29t-41.5 -9.5q-20 0 -36 6.5t-25 19.5l5 25q11 -14 25.5 -20t31.5 -6q34 0 56.5 33t22.5 98q0 25 -7 41t-17.5 28t-23 21.5t-23 21.5t-17.5 28.5t-7 42.5q0 69 29.5 105t72.5 36z" />
    <glyph glyph-name="Euro.lf" horiz-adv-x="713" 
d="M497 758q26 0 52 -3t50 -8.5t44 -13t35 -17.5l-12 -22q-20 10 -39.5 17t-40 12t-43 7.5t-49.5 2.5q-133 0 -209.5 -75.5t-106.5 -211.5h370l-11 -26h-365q-3 -19 -5 -32t-3 -22t-1.5 -15.5t-1.5 -12.5h331l-12 -26h-321q-2 -11 -2 -22v-22q0 -134 56.5 -192t176.5 -58
q55 0 110.5 16.5t106.5 47.5l2 -25q-45 -30 -105 -47.5t-120 -17.5q-136 0 -195 67t-59 199v26q0 14 2 28h-96l4 26h94q1 15 5 38.5t7 43.5h-94l3 26h96q32 154 119.5 233t226.5 79z" />
    <glyph glyph-name="numbersign.tosf" 
d="M158 244l53 173h-146l3 23h148l59 209h24l-59 -209h167l59 209h24l-60 -209h118l-3 -23h-121l-51 -173h148l-3 -23h-151l-61 -221h-24l62 221h-168l-61 -221h-23l60 221h-115l3 23h118zM182 244h168l52 173h-168z" />
    <glyph glyph-name="dollar.tosf" 
d="M465 156q-10 -71 -61 -117.5t-150 -50.5l-26 -154h-28l28 153q-54 2 -100.5 19t-74.5 46l10 26q31 -31 78 -48.5t100 -17.5q49 0 86.5 13t62.5 34.5t37.5 50.5t12.5 61q0 39 -24.5 62t-60.5 38t-79 27t-79 28t-60.5 40t-24.5 64q0 36 15.5 65.5t44.5 50.5t69 32.5
t90 12.5l27 143h28l-29 -144q76 -3 139 -36l-8 -25q-39 19 -76.5 28t-79.5 9t-77 -9.5t-60.5 -27t-39.5 -41.5t-14 -53q0 -35 24 -56t60.5 -35t78.5 -25.5t78.5 -28.5t60.5 -43t24 -69q0 -5 -0.5 -10.5t-1.5 -11.5z" />
    <glyph glyph-name="zero.tosf" 
d="M334 623q108 0 158 -50t50 -164q0 -23 -2 -48.5t-6 -54.5q-12 -85 -34.5 -145t-57.5 -98t-84 -55.5t-113 -17.5q-108 0 -158 49.5t-50 162.5q0 23 2 49t6 55q12 85 34 145t57.5 98.5t84 56t113.5 17.5zM330 597q-56 0 -99 -14.5t-74.5 -48.5t-52.5 -90t-32 -138
q-4 -28 -6 -52.5t-2 -46.5q0 -106 46.5 -149t138.5 -43q56 0 99 15t74.5 49t52 89.5t32.5 137.5q4 29 6 53.5t2 46.5q0 53 -11.5 89.5t-34.5 59t-58 32.5t-81 10z" />
    <glyph glyph-name="one.tosf" 
d="M60 26h214l72 514q2 10 3.5 20.5t4.5 19.5l-2 2q-16 -12 -35 -22l-231 -131v27l285 161h14l-83 -591h188l-3 -26h-430z" />
    <glyph glyph-name="two.tosf" 
d="M327 623q96 0 147.5 -37.5t51.5 -103.5q0 -57 -33.5 -110.5t-93.5 -108t-143 -112t-181 -122.5v-3h397l-5 -26h-438l2 20q57 41 113.5 80.5t108.5 77.5t96.5 75.5t77.5 74.5t51.5 73.5t18.5 74.5q0 25 -9.5 47t-30.5 38t-54 25.5t-79 9.5q-56 0 -109.5 -19.5t-95.5 -51.5
l-9 21q42 32 99.5 54.5t117.5 22.5z" />
    <glyph glyph-name="three.tosf" 
d="M324 623q95 0 137 -34.5t42 -89.5q0 -72 -44.5 -117.5t-122.5 -62.5v-2q81 -8 117.5 -42.5t36.5 -92.5q0 -66 -29.5 -120t-84 -92.5t-131 -60.5t-169.5 -23l1 24q95 1 167.5 22.5t121 57t73 83t24.5 101.5q0 61 -44 93.5t-129 32.5q-16 0 -38 -1.5t-36 -3.5l1 21
q76 8 126 24t80 38.5t42.5 51t12.5 63.5q0 23 -8.5 42.5t-27.5 33.5t-49 21.5t-73 7.5q-61 0 -112.5 -17t-96.5 -49l-7 20q38 31 97 51t123 20z" />
    <glyph glyph-name="four.tosf" 
d="M427 103h107l-6 -25h-105l-26 -185l-24 -3l26 188h-399l1 18l474 526l24 -4zM465 543q2 10 3.5 20.5t4.5 19.5l-2 2q-6 -8 -12.5 -16t-14.5 -16l-377 -420q-8 -9 -14 -15.5t-14 -12.5v-2h364z" />
    <glyph glyph-name="five.tosf" 
d="M524 586h-352l-55 -238q-2 -10 -4.5 -20t-5.5 -19l1 -1q41 23 92.5 35.5t97.5 12.5q102 0 150 -39.5t48 -111.5q0 -68 -28 -125t-82 -99t-132 -67.5t-177 -28.5l2 26q91 3 163.5 25t123 59.5t77 89t26.5 112.5q0 65 -44.5 99t-135.5 34q-59 0 -108 -14.5t-85 -37.5
l-16 10l75 325h370z" />
    <glyph glyph-name="six.tosf" 
d="M325 448q100 0 146 -37.5t46 -117.5q0 -12 -1 -25t-3 -27q-17 -122 -81 -185.5t-182 -63.5q-45 0 -81 11.5t-61 38t-38.5 69.5t-13.5 105q0 49 9 112q14 103 52 178t95 125.5t130 76t157 29.5l2 -24q-167 -6 -273 -97t-135 -260l1 -1q49 45 110 69t121 24zM319 424
q-29 0 -59.5 -7.5t-60.5 -20.5t-57.5 -32t-49.5 -41q-3 -27 -5 -51t-2 -46q0 -113 44 -160t126 -47q99 0 158 55.5t75 167.5q3 22 3 42q0 72 -42 106t-130 34z" />
    <glyph glyph-name="seven.tosf" 
d="M565 593l-435 -698h-30l411 656q10 17 22 32l-1 2h-435l6 28h465z" />
    <glyph glyph-name="eight.tosf" 
d="M249 -8q-111 0 -161 35t-50 102q0 40 14 72t38 57t57 42.5t72 28.5v2q-47 15 -78.5 41.5t-31.5 76.5q0 38 13.5 70t41.5 55t71 36t103 13q95 0 140 -32.5t45 -92.5q0 -65 -40.5 -110.5t-118.5 -68.5v-2q29 -7 55 -17t45.5 -25.5t31 -37t11.5 -52.5q0 -48 -18.5 -84.5
t-52 -60.5t-81.5 -36t-106 -12zM253 17q49 0 90.5 9.5t72 29.5t47.5 51t17 73q0 38 -21.5 61t-55 37t-74 23t-79.5 20q-40 -13 -74 -29.5t-59 -39.5t-39 -52.5t-14 -67.5q0 -29 10 -50.5t32.5 -35.5t58.5 -21.5t88 -7.5zM334 599q-105 0 -151.5 -39.5t-46.5 -106.5
q0 -32 17 -53t45 -34.5t62.5 -22.5t70.5 -16q90 27 127.5 67.5t37.5 99.5q0 51 -36.5 78t-125.5 27z" />
    <glyph glyph-name="nine.tosf" 
d="M325 622q93 0 145.5 -50.5t52.5 -165.5q0 -20 -2 -42t-5 -46q-15 -106 -53.5 -185.5t-94.5 -133t-127.5 -81.5t-152.5 -31l1 24q76 4 141.5 31t117 76t87.5 119.5t53 162.5l-2 2q-42 -52 -97 -74.5t-121 -22.5q-91 0 -139.5 41.5t-48.5 123.5q0 55 16 101.5t46.5 80
t76.5 52t106 18.5zM321 596q-102 0 -157 -60t-55 -160q0 -69 41 -107t127 -38q65 0 120 24.5t92 78.5q6 42 6 78q0 94 -41.5 139t-132.5 45z" />
    <glyph glyph-name="cent.tosf" 
d="M423 734l-28 -146q44 -2 81 -11.5t67 -25.5l-8 -26q-31 18 -71 29t-85 11q-126 0 -190.5 -66.5t-83.5 -201.5q-6 -45 -6 -83q0 -109 51 -156t151 -47q46 0 91 13t83 39l1 -25q-33 -22 -80.5 -36.5t-97.5 -15.5l-27 -153h-26l27 154q-101 5 -151.5 58.5t-50.5 164.5
q0 20 1.5 41.5t5.5 45.5q20 144 90.5 217t201.5 75l28 145h26z" />
    <glyph glyph-name="sterling.tosf" 
d="M64 341h49q-2 23 -5 45t-3 45q0 44 12.5 84.5t41.5 72t77.5 50t119.5 18.5q51 0 96 -11.5t78 -31.5l-9 -21q-29 18 -73.5 29t-93.5 11q-62 0 -105 -16t-69.5 -43t-38.5 -62.5t-12 -75.5q0 -23 2.5 -47t5.5 -47h269l-3 -23h-264q2 -15 3 -30.5t1 -32.5q0 -86 -27 -144.5
t-75 -90.5l1 -2q27 4 51.5 6.5t51 4t56 2t65.5 0.5q55 0 111 -3.5t108 -9.5l-5 -22q-63 6 -115 9.5t-110 3.5q-34 0 -65.5 -1t-63 -2.5t-64.5 -4t-69 -5.5l2 20q34 14 57.5 39.5t38.5 57.5t21.5 69t6.5 75q0 32 -3 61h-54z" />
    <glyph glyph-name="currency.tosf" 
d="M313 487q29 0 54 -10.5t42 -29.5l73 62l15 -15l-74 -64q23 -34 23 -78q0 -34 -13.5 -64t-36.5 -54l55 -63l-20 -16l-53 63q-48 -39 -108 -39q-29 0 -53.5 10t-43.5 27l-70 -61l-13 16l69 61q-24 33 -24 79q0 35 14.5 66.5t38.5 55.5l-52 60l17 17l52 -62q24 18 51.5 28.5
t56.5 10.5zM309 460q-29 0 -56 -12t-47 -32.5t-32 -47t-12 -55.5q0 -48 31 -78.5t80 -30.5q29 0 56 11.5t47.5 31t32.5 46t12 57.5q0 47 -31 78.5t-81 31.5z" />
    <glyph glyph-name="yen.tosf" 
d="M265 275l-178 374h32l152 -320q4 -9 8.5 -18.5t7.5 -18.5h2q5 8 11 16.5t12 16.5l242 324h32l-279 -374h117l-3 -24h-125l-10 -67h125l-3 -23h-125l-22 -161h-26l22 161h-132l3 23h132l10 67h-132l3 24h124z" />
    <glyph glyph-name="uni2007.tosf" 
 />
    <glyph glyph-name="franc.tosf" 
d="M107 140l72 509h406l-3 -26h-381l-38 -271h302l-2 -24h-303l-27 -188h102l-3 -22h-102l-16 -118h-26l16 118h-99l3 22h99z" />
    <glyph glyph-name="lira.tosf" 
d="M78 382h35q-3 22 -3 46q0 44 12 85.5t41.5 73t78 50.5t120.5 19q51 0 96 -11.5t78 -31.5l-10 -21q-28 18 -72.5 29t-94.5 11q-62 0 -105 -16t-69 -43t-37.5 -62.5t-11.5 -75.5v-27q0 -13 2 -26h301l-3 -26h-294q2 -17 3.5 -33.5t2.5 -34.5h278l-4 -25h-274v-17
q0 -82 -28 -139t-74 -87l1 -2q26 4 51 6.5t51.5 4t56.5 2t66 0.5q55 0 111 -3.5t108 -9.5l-6 -22q-62 6 -114 9.5t-111 3.5q-33 0 -64.5 -1t-63 -2.5t-64.5 -4t-70 -5.5l3 20q35 15 58.5 41t38 59t20.5 70.5t6 76.5h-62l3 25h58q-2 19 -3 35.5t-3 32.5h-41z" />
    <glyph glyph-name="peseta.tosf" 
d="M344 649q91 0 133.5 -32t42.5 -104q0 -18 -3 -39h74l-3 -20h-74q-16 -90 -68.5 -130.5t-153.5 -40.5h-172l-39 -283h-27l63 454h-75l3 20h75l25 175h199zM168 626l-21 -152h343q1 8 1.5 16t0.5 16q0 64 -37.5 92t-114.5 28h-172zM295 304q82 0 129.5 33t61.5 117h-342
l-21 -150h172z" />
    <glyph glyph-name="Euro.tosf" 
d="M569 596q-32 19 -73 29t-90 10q-116 0 -182 -55.5t-95 -170.5h362l-16 -27h-353q-5 -23 -8 -49t-6 -49h323l-16 -26h-308q0 -6 -0.5 -12t-0.5 -11q0 -120 54 -171t160 -51q47 0 95.5 14t89.5 44l2 -27q-37 -26 -88.5 -42t-105.5 -16q-116 0 -175 58.5t-59 185.5v13
q0 7 1 15h-53l3 26h51q3 23 6 48t8 50h-51l4 27h54q31 126 105 188.5t200 62.5q52 0 97.5 -11t79.5 -31z" />
    <glyph glyph-name="f_i.sc" horiz-adv-x="847" 
d="M179 623l-38 -271h330l-3 -26h-331l-45 -326h-28l90 649h395l-2 -26h-368zM729 649h29l-91 -649h-29z" />
    <glyph glyph-name="f_l.sc" horiz-adv-x="1096" 
d="M179 623l-38 -271h330l-3 -26h-331l-45 -326h-28l90 649h395l-2 -26h-368zM1018 26l-5 -26h-393l91 649h28l-88 -623h367z" />
    <glyph glyph-name="exclam.sc" horiz-adv-x="298" 
d="M112 157l63 492h31l-74 -492h-20zM105 45q25 0 25 -21q0 -15 -8.5 -24t-24.5 -9q-26 0 -26 20q0 34 34 34z" />
    <glyph glyph-name="ampersand.sc" horiz-adv-x="643" 
d="M555 321q-9 -37 -35.5 -91.5t-68.5 -106.5q32 -31 64.5 -58.5t64.5 -51.5l-14 -22q-33 24 -67 51.5t-66 59.5q-44 -48 -99.5 -80.5t-122.5 -32.5q-40 0 -68 10t-46 27.5t-26 41t-8 50.5q0 43 13.5 78.5t36.5 65t52.5 54.5t62.5 47q-18 35 -28 69t-10 66q0 34 10.5 63.5
t30.5 51.5t48.5 34t65.5 12q60 0 89.5 -25t29.5 -61t-18.5 -65.5t-47.5 -55t-65 -48.5t-71 -47q30 -54 74.5 -109.5t95.5 -107.5q35 43 61 90.5t38 90.5h24zM218 15q54 0 104 29.5t92 74.5q-53 52 -98.5 108.5t-77.5 113.5q-28 -20 -54 -42.5t-46.5 -48.5t-32.5 -57t-12 -67
q0 -54 33.5 -82.5t91.5 -28.5zM340 636q-25 0 -47.5 -9t-39.5 -26t-27 -42t-10 -57q0 -28 9 -59.5t26 -63.5q34 22 67.5 43.5t59.5 44t42 48t16 55.5q0 66 -96 66z" />
    <glyph glyph-name="question.sc" horiz-adv-x="509" 
d="M307 662q81 0 119.5 -31t38.5 -90q0 -42 -15 -77.5t-43 -66t-68 -57.5t-90 -51l-21 -132h-21l16 147q50 26 89.5 51.5t66.5 52.5t41 58.5t14 69.5q0 54 -36 77t-99 23q-60 0 -106.5 -19.5t-91.5 -56.5l-11 19q39 35 94.5 59t122.5 24zM204 45q25 0 25 -21q0 -15 -8.5 -24
t-24.5 -9q-26 0 -26 20q0 34 34 34z" />
    <glyph glyph-name="grave.sc" horiz-adv-x="392" 
d="M266 710l-92 136h42l75 -136h-25z" />
    <glyph glyph-name="a.sc" horiz-adv-x="645" 
d="M477 190h-356l-104 -190h-35l364 649h34l182 -649h-33zM360 623q-8 -18 -18 -36l-207 -373h336l-100 370q-6 21 -9 39h-2z" />
    <glyph glyph-name="b.sc" horiz-adv-x="620" 
d="M385 649q80 0 119.5 -29.5t39.5 -93.5q0 -44 -11 -76t-29.5 -53.5t-42 -34.5t-48.5 -17v-2q55 -8 86.5 -38.5t31.5 -90.5q0 -100 -53 -157t-166 -57h-249l91 649h231zM94 26h222q40 0 74 9.5t59.5 31.5t40 57.5t14.5 87.5q0 119 -148 119h-219zM140 354h214
q75 0 118.5 41.5t43.5 122.5q0 55 -33.5 80t-102.5 25h-202z" />
    <glyph glyph-name="c.sc" horiz-adv-x="571" 
d="M387 659q45 0 89.5 -10.5t70.5 -24.5l-11 -24q-26 14 -66.5 24.5t-85.5 10.5q-64 0 -114 -16.5t-87.5 -52.5t-61.5 -94t-36 -140q-4 -28 -6 -52.5t-2 -46.5q0 -120 56 -169.5t166 -49.5q47 0 87.5 10.5t75.5 27.5l4 -22q-32 -17 -78.5 -29t-94.5 -12q-127 0 -185.5 58
t-58.5 183q0 23 2 48.5t6 53.5q24 171 103.5 249t226.5 78z" />
    </font>
</defs>
</svg>
