<?xml version="1.0" standalone="no"?>
<!DOCTYPE svg PUBLIC "-//W3C//DTD SVG 1.1//EN" "http://www.w3.org/Graphics/SVG/1.1/DTD/svg11.dtd" >
<svg xmlns="http://www.w3.org/2000/svg" xmlns:xlink="http://www.w3.org/1999/xlink" version="1.1">
<metadata>
Created by FontForge 20170731 at Tue May 21 15:18:58 2019
 By Aleksey,,,
Copyright (c) 2007-2019 Monotype GmbH. All rights reserved
</metadata>
<defs>
<font id="ClanPro-News" horiz-adv-x="399" >
  <font-face 
    font-family="Clan Pro News"
    font-weight="475"
    font-stretch="normal"
    units-per-em="1000"
    panose-1="2 0 6 3 3 0 0 2 0 4"
    ascent="787"
    descent="-213"
    x-height="596"
    cap-height="750"
    bbox="-261 -233 1167 959"
    underline-thickness="70"
    underline-position="-170"
    unicode-range="U+000D-FEFF"
  />
<missing-glyph horiz-adv-x="620" 
d="M83 750h454v-750h-454v750zM475 62v626h-330v-626h330z" />
    <glyph glyph-name="IJ" unicode="IJ" horiz-adv-x="873" 
d="M109 750h105v-750h-105v750zM776 253q0 -137 -70 -202t-195 -65q-48 0 -85.5 11t-65.5 30l8 91q24 -18 56 -28t74 -10q83 0 128.5 42t45.5 132v496h104v-497z" />
    <glyph glyph-name="ij" unicode="ij" horiz-adv-x="622" 
d="M108 0v593l95 5v-598h-95zM217 747q0 -51 -61 -51q-31 0 -46 11t-15 40q0 51 61 51t61 -51zM514 -9q0 -42 -11 -71t-30 -46t-45 -24.5t-56 -7.5q-18 0 -36.5 3.5t-32.5 8.5l5 70q10 -3 20.5 -5t21.5 -2q31 0 50.5 17.5t19.5 59.5v599l94 5v-607zM527 749q0 -52 -61 -52
q-31 0 -46.5 11.5t-15.5 40.5q0 51 62 51q61 0 61 -51z" />
    <glyph glyph-name="f_i" unicode="fi" horiz-adv-x="697" 
d="M216 0h-94v523h-89v73h88v27q0 37 11.5 69t35.5 55t61 36t88 13q23 0 44.5 -2.5t35.5 -6.5l-3 -66q-12 3 -27 5t-31 2q-65 0 -92.5 -28t-27.5 -78v-26h372v-596h-96v523h-276v-523zM603 749q0 -52 -62 -52q-31 0 -46.5 11.5t-15.5 40.5q0 51 62 51t62 -51z" />
    <glyph glyph-name="f_j" unicode="fj" horiz-adv-x="697" 
d="M122 0v523h-89v73h88v27q0 37 11.5 69t35.5 55t61 36t88 13q23 0 44.5 -2.5t35.5 -6.5l-3 -66q-12 3 -27 5t-31 2q-65 0 -92.5 -28t-27.5 -78v-26h372v-605q0 -42 -11 -71t-30 -46t-45.5 -24.5t-56.5 -7.5q-17 0 -36 3.5t-33 8.5l5 70q10 -3 20.5 -5t21.5 -2
q31 0 51 17.5t20 59.5v529h-278v-523h-94zM603 749q0 -52 -62 -52q-31 0 -46.5 11.5t-15.5 40.5q0 51 62 51t62 -51z" />
    <glyph glyph-name="f_l" unicode="fl" horiz-adv-x="667" 
d="M470 0v725q-26 3 -51 5.5t-51 2.5q-85 0 -118.5 -29t-33.5 -83v-25h125v-73h-125v-523h-95v523h-88v73h88v28q0 38 12.5 70t41.5 55.5t76.5 37t117.5 13.5q29 0 53.5 -2t47 -4t45.5 -4.5t49 -3.5v-786h-94z" />
    <glyph glyph-name=".notdef" horiz-adv-x="620" 
d="M83 750h454v-750h-454v750zM475 62v626h-330v-626h330z" />
    <glyph glyph-name=".null" horiz-adv-x="0" 
 />
    <glyph glyph-name=".null" horiz-adv-x="0" 
 />
    <glyph glyph-name="nonmarkingreturn" unicode="&#xd;" horiz-adv-x="300" 
 />
    <glyph glyph-name="space" unicode=" " horiz-adv-x="300" 
 />
    <glyph glyph-name="exclam" unicode="!" horiz-adv-x="303" 
d="M114 201l-15 549h103l-16 -549h-72zM214 45q0 -56 -61 -56q-31 0 -46 13t-15 43q0 27 15 42t46 15q32 0 46.5 -15t14.5 -42z" />
    <glyph glyph-name="quotedbl" unicode="&#x22;" horiz-adv-x="386" 
d="M335 770l-19 -241h-63l-14 241h96zM155 770l-19 -241h-63l-14 241h96z" />
    <glyph glyph-name="numbersign" unicode="#" horiz-adv-x="649" 
d="M181 293l25 168h-140v76h149l29 213h75l-28 -213h114l28 213h74l-29 -213h108v-76h-117l-23 -168h139v-76h-149l-29 -217h-74l29 217h-115l-29 -217h-75l29 217h-107v76h116zM257 293h114l25 168h-114z" />
    <glyph glyph-name="dollar" unicode="$" horiz-adv-x="649" 
d="M254 -78l6 67q-51 5 -98 17.5t-79 32.5l12 94q38 -23 82 -38t92 -20l28 270q-40 14 -78.5 31t-68.5 41.5t-48.5 58.5t-18.5 82q0 97 65.5 149.5t190.5 54.5l7 65l60 -4l-7 -64q42 -4 77.5 -13t58.5 -20l-7 -89q-32 12 -67 20t-72 11l-25 -237q39 -14 76.5 -31t67 -42.5
t47.5 -62t18 -88.5q0 -113 -62 -166t-195 -55l-7 -69zM494 195q0 26 -11 46t-30.5 35t-45.5 27t-55 23l-27 -254q87 1 128 31.5t41 91.5zM170 563q0 -23 11 -40t29.5 -30t43.5 -23.5t53 -19.5l23 221q-84 -1 -122 -31t-38 -77z" />
    <glyph glyph-name="percent" unicode="%" horiz-adv-x="711" 
d="M333 588q0 -92 -35.5 -133.5t-106.5 -41.5q-75 0 -109 42t-34 133q0 93 33 133.5t110 40.5q70 0 106 -39t36 -135zM268 589q0 66 -19 89t-58 23q-20 0 -34.5 -5t-24.5 -17.5t-14.5 -34.5t-4.5 -55q0 -66 19 -89t59 -23q20 0 34.5 5t24 17.5t14 34.5t4.5 55zM571 691
l-389 -676l-57 43l390 676zM663 166q0 -92 -35.5 -133.5t-107.5 -41.5q-75 0 -109 42t-34 133q0 93 33 135t111 42q70 0 106 -40.5t36 -136.5zM597 166q0 66 -18.5 89t-57.5 23q-20 0 -34.5 -5t-24.5 -17.5t-14.5 -34.5t-4.5 -55q0 -65 19 -88t58 -23q40 0 58.5 23t18.5 88z
" />
    <glyph glyph-name="ampersand" unicode="&#x26;" horiz-adv-x="694" 
d="M649 -9q-39 21 -79 48t-80 59q-45 -48 -103 -79.5t-133 -31.5q-56 0 -95 16.5t-64 44t-36 63.5t-11 75q0 40 11.5 73t31 61.5t45 53t53.5 46.5q-31 48 -48.5 92t-17.5 80t10 67t32.5 54t58 36t85.5 13q81 0 127 -37.5t46 -97.5q0 -34 -14 -62.5t-37 -54t-52 -48.5
t-60 -46l-15 -11q35 -45 79.5 -91t95.5 -91q24 39 40 81t24 80l81 1q-5 -42 -25 -100t-55 -115q35 -27 69.5 -50.5t69.5 -42.5zM269 78q45 0 84 20.5t72 54.5q-54 47 -102 98t-87 102q-39 -34 -65 -72.5t-26 -87.5q0 -55 34 -85t90 -30zM211 592q0 -24 12 -55.5t35 -66.5
q26 18 49.5 35.5t41.5 35.5t29 37.5t11 40.5q0 32 -22.5 50t-60.5 18q-41 0 -68 -24.5t-27 -70.5z" />
    <glyph glyph-name="quotesingle" unicode="'" horiz-adv-x="207" 
d="M151 770l-19 -241h-63l-14 241h96z" />
    <glyph glyph-name="parenleft" unicode="(" horiz-adv-x="332" 
d="M329 790q-69 -97 -107 -211.5t-38 -246.5q0 -134 38.5 -248.5t105.5 -209.5l-76 -6q-75 86 -116.5 205.5t-41.5 258.5q0 144 41 258t117 206z" />
    <glyph glyph-name="parenright" unicode=")" horiz-adv-x="331" 
d="M80 796q76 -92 116.5 -206t40.5 -258q0 -139 -41.5 -258.5t-115.5 -205.5l-76 6q66 95 104.5 209.5t38.5 248.5q0 132 -37.5 246.5t-106.5 211.5z" />
    <glyph glyph-name="asterisk" unicode="*" horiz-adv-x="359" 
d="M205 791l5 -112l107 29l17 -50l-107 -37l67 -95l-37 -31l-76 91l-77 -91l-39 29l67 97l-107 37l18 50l107 -29l7 112h48z" />
    <glyph glyph-name="plus" unicode="+" horiz-adv-x="597" 
d="M338 294v-182h-84v182h-181v90h181v185h84v-185h186v-90h-186z" />
    <glyph glyph-name="comma" unicode="," horiz-adv-x="250" 
d="M124 110q32 0 47 -17.5t15 -48.5q0 -15 -7 -38.5t-17.5 -49.5t-23.5 -52.5t-25 -45.5l-34 9l26 123q-17 5 -29 20.5t-12 35.5q0 28 14 46t46 18z" />
    <glyph glyph-name="hyphen" unicode="-" horiz-adv-x="405" 
d="M335 376v-71h-265v71h265z" />
    <glyph glyph-name="period" unicode="." horiz-adv-x="252" 
d="M188 51q0 -29 -15 -45.5t-47 -16.5t-47 14t-15 48q0 61 62 61t62 -61z" />
    <glyph glyph-name="slash" unicode="/" horiz-adv-x="441" 
d="M436 794l-345 -920h-80l343 920h82z" />
    <glyph glyph-name="zero" unicode="0" horiz-adv-x="649" 
d="M592 374q0 -104 -15.5 -177t-48 -119.5t-83 -67.5t-120.5 -21q-71 0 -122 21t-83.5 67.5t-47.5 119.5t-15 177q0 107 15 180.5t47.5 119t83.5 65.5t122 20q70 0 121 -20t83 -65.5t47.5 -119t15.5 -180.5zM494 375q0 90 -10 147t-31 89.5t-53 45t-75 12.5q-44 0 -76 -12.5
t-53 -45.5t-31.5 -90t-10.5 -146q0 -91 10.5 -148.5t31.5 -90.5t53 -45t76 -12t76 12.5t52.5 45.5t30.5 90.5t10 147.5z" />
    <glyph glyph-name="one" unicode="1" horiz-adv-x="649" 
d="M181 76h133v464l2 80l-2 2l-68 -44l-92 -58l-11 87l214 145h59v-676h130v-76h-365v76z" />
    <glyph glyph-name="two" unicode="2" horiz-adv-x="649" 
d="M568 552q0 -58 -26 -112.5t-72 -110t-109.5 -113t-139.5 -121.5v-3h351l-3 -92h-483v69q72 69 140.5 132t121.5 121.5t85.5 113t32.5 106.5q0 26 -9 49t-28.5 39.5t-50 26t-72.5 9.5q-54 0 -103.5 -20.5t-89.5 -52.5l-27 83q44 35 104 58.5t132 23.5q121 0 183.5 -55
t62.5 -151z" />
    <glyph glyph-name="three" unicode="3" horiz-adv-x="649" 
d="M580 224q0 -53 -16.5 -95.5t-50 -73.5t-85.5 -47.5t-123 -16.5q-75 0 -129.5 17.5t-95.5 42.5l21 82q44 -26 93 -40.5t109 -14.5q93 0 136.5 42t43.5 108q0 34 -12.5 58.5t-40.5 40.5t-74 24t-112 8v75q62 0 104.5 8.5t69 24.5t38 39.5t11.5 53.5q0 55 -41.5 82
t-116.5 27q-62 0 -109.5 -19t-89.5 -53l-26 80q40 34 99 57.5t131 23.5q116 0 180.5 -49t64.5 -142q0 -66 -33.5 -106t-89.5 -60v-2q69 -18 106.5 -60t37.5 -115z" />
    <glyph glyph-name="four" unicode="4" horiz-adv-x="649" 
d="M508 163v-163h-92v163h-347l-8 65l326 522h121v-500h94l-3 -87h-91zM424 582l3 81l-2 1l-42 -70l-168 -276l-43 -65l1 -3h246z" />
    <glyph glyph-name="five" unicode="5" horiz-adv-x="649" 
d="M571 256q0 -128 -64 -196.5t-198 -68.5q-66 0 -119.5 15.5t-98.5 44.5l19 84q44 -27 88 -42t103 -15q90 0 131.5 42t41.5 127q0 75 -40.5 108t-126.5 33q-49 0 -95 -10.5t-79 -27.5l-38 39l30 361h409l4 -92h-335l-17 -209q34 12 71.5 18t75.5 6q238 0 238 -217z" />
    <glyph glyph-name="six" unicode="6" horiz-adv-x="649" 
d="M582 258q0 -134 -64 -200.5t-189 -66.5q-65 0 -114.5 19t-83 61.5t-51 111.5t-17.5 169q0 206 80 306.5t233 100.5q46 0 85.5 -7t80.5 -23l-9 -88q-36 14 -69.5 20t-75.5 6q-110 0 -166 -60.5t-64 -192.5l3 -2q38 31 86.5 48.5t101.5 17.5q120 0 176.5 -54t56.5 -166z
M485 259q0 72 -36.5 106t-117.5 34q-21 0 -45 -5t-46.5 -14.5t-42.5 -23t-34 -29.5q1 -69 11 -116.5t30 -77t51 -42.5t74 -13q156 0 156 181z" />
    <glyph glyph-name="seven" unicode="7" horiz-adv-x="649" 
d="M590 663l-317 -663h-113l331 652h-424l5 97h518v-86z" />
    <glyph glyph-name="eight" unicode="8" horiz-adv-x="649" 
d="M62 208q0 63 36 111t97 76v3q-45 23 -74.5 62t-29.5 107q0 45 13.5 80t42 60t73 38t106.5 13q121 0 177.5 -49t56.5 -142q0 -57 -28 -101t-81 -72v-2q28 -11 53 -26t44 -37t29.5 -51.5t10.5 -69.5q0 -109 -66 -163t-196 -54q-137 0 -200.5 54t-63.5 163zM491 201
q0 38 -18 63t-47.5 41.5t-66.5 28.5t-76 25q-27 -12 -50 -26.5t-40 -33t-26.5 -41.5t-9.5 -51q0 -68 39 -101t132 -33q75 0 119 30t44 98zM183 563q0 -34 15 -56.5t40.5 -38t58.5 -26t68 -20.5q55 26 81 58.5t26 78.5q0 59 -35.5 88t-111.5 29q-73 0 -107.5 -28.5
t-34.5 -84.5z" />
    <glyph glyph-name="nine" unicode="9" horiz-adv-x="649" 
d="M581 412q0 -113 -18.5 -193t-56 -130.5t-93.5 -74t-131 -23.5q-53 0 -92.5 8t-81.5 27l14 84q37 -16 72 -23.5t79 -7.5q105 0 156.5 65.5t57.5 214.5l-2 1q-37 -31 -83 -45.5t-100 -14.5q-62 0 -107.5 16t-75 45t-44 70t-14.5 92q0 109 61.5 172.5t189.5 63.5
q127 0 198 -86t71 -261zM483 448q-1 61 -13 103.5t-34.5 69.5t-54 39t-70.5 12q-155 0 -155 -145q0 -69 38.5 -107.5t123.5 -38.5q51 0 93.5 16t71.5 51z" />
    <glyph glyph-name="colon" unicode=":" horiz-adv-x="252" 
d="M188 505q0 -29 -15 -45.5t-47 -16.5t-47 14t-15 48q0 61 62 61t62 -61zM188 51q0 -29 -15 -45.5t-47 -16.5t-47 14t-15 48q0 61 62 61t62 -61z" />
    <glyph glyph-name="semicolon" unicode=";" horiz-adv-x="256" 
d="M192 505q0 -29 -15 -45.5t-47 -16.5t-47 14t-15 48q0 61 62 61t62 -61zM126 110q32 0 47 -17.5t15 -48.5q0 -15 -7 -38.5t-17.5 -49.5t-23.5 -52.5t-25 -45.5l-34 9l26 123q-17 5 -29 20.5t-12 35.5q0 28 14 46t46 18z" />
    <glyph glyph-name="less" unicode="&#x3c;" horiz-adv-x="597" 
d="M279 371l-73 -33v-3l73 -34l228 -110v-94l-417 215v48l417 222v-98z" />
    <glyph glyph-name="equal" unicode="=" horiz-adv-x="597" 
d="M76 387v78h444v-78h-444zM76 204v78h444v-78h-444z" />
    <glyph glyph-name="greater" unicode="&#x3e;" horiz-adv-x="597" 
d="M90 191l226 110l74 34v3l-74 34l-226 112l1 98l416 -222v-48l-417 -215v94z" />
    <glyph glyph-name="question" unicode="?" horiz-adv-x="513" 
d="M469 583q0 -85 -48.5 -144t-133.5 -105l-4 -133h-75l-6 170q39 24 70.5 46t53.5 45.5t34 49.5t12 57q0 54 -34 78.5t-93 24.5q-54 0 -97.5 -19t-78.5 -50l-35 77q37 35 95 58.5t128 23.5q107 0 159.5 -47t52.5 -132zM307 45q0 -56 -60 -56q-32 0 -46.5 13t-14.5 43
q0 27 14.5 42t46.5 15q31 0 45.5 -15t14.5 -42z" />
    <glyph glyph-name="at" unicode="@" horiz-adv-x="862" 
d="M447 570q30 0 53 -11t36 -32h3l15 36l53 -4l-44 -261q-3 -18 -3 -35q0 -34 15 -56.5t53 -22.5q55 0 90.5 54t35.5 168q0 69 -19 128.5t-57 103t-94 68t-129 24.5q-86 0 -151 -31.5t-108 -84.5t-64.5 -123.5t-21.5 -149.5q0 -82 20.5 -153t63 -123.5t107.5 -82.5t154 -30
q58 0 104 9.5t82 23.5t61.5 31.5t43.5 34.5l23 -53q-51 -43 -127.5 -73.5t-185.5 -30.5q-98 0 -173.5 31.5t-127 90t-78 141t-26.5 184.5q0 89 26 170.5t77 143t126.5 98t175.5 36.5q82 0 148 -28.5t112 -79t70.5 -121t24.5 -154.5q0 -76 -15 -130.5t-41.5 -90t-61.5 -52
t-74 -16.5q-43 0 -73 20t-41 58l-3 1q-23 -36 -57 -57.5t-79 -21.5q-57 0 -94 42t-37 130q0 55 16 106t44.5 90t67.5 62t84 23zM516 464q-19 36 -66 36q-29 0 -53.5 -18t-43 -47t-29 -67.5t-10.5 -78.5q0 -50 19.5 -74.5t53.5 -24.5q37 0 65.5 32.5t36.5 83.5z" />
    <glyph glyph-name="A" unicode="A" horiz-adv-x="711" 
d="M518 179h-330l-60 -179h-110l276 750h122l277 -750h-115zM329 597l-111 -329h271l-109 329l-23 78h-3z" />
    <glyph glyph-name="B" unicode="B" horiz-adv-x="686" 
d="M625 213q0 -50 -13.5 -89.5t-42.5 -67t-74.5 -42t-110.5 -14.5h-287v750h275q223 0 223 -187q0 -70 -30 -110t-77 -56v-2q65 -15 101 -59t36 -123zM523 221q0 66 -34.5 96.5t-107.5 30.5h-185v-260h189q66 0 102 29.5t36 103.5zM497 545q0 63 -31 89t-97 26h-173v-232
h180q121 0 121 117z" />
    <glyph glyph-name="C" unicode="C" horiz-adv-x="606" 
d="M550 636q-29 14 -70.5 22.5t-86.5 8.5q-59 0 -101.5 -14.5t-70 -47.5t-40.5 -87.5t-13 -135.5q0 -86 13 -144t41 -93t71 -50t103 -15q46 0 85 9.5t72 26.5l13 -86q-35 -18 -84 -31t-99 -13q-167 0 -245 95.5t-78 300.5q0 193 79 287t249 94q47 0 95.5 -10.5t79.5 -24.5z
" />
    <glyph glyph-name="D" unicode="D" horiz-adv-x="737" 
d="M677 378q0 -102 -20 -174t-59.5 -117.5t-100 -66t-141.5 -20.5h-259v750h257q85 0 146.5 -21t100.5 -66t57.5 -115.5t18.5 -169.5zM570 378q0 81 -12.5 134t-38.5 84.5t-67 44.5t-99 13h-154v-559h155q55 0 95.5 12.5t67.5 44t40 86.5t13 140z" />
    <glyph glyph-name="E" unicode="E" horiz-adv-x="623" 
d="M578 93l-3 -93h-478v750h461l3 -94h-362v-223h310v-86h-310v-254h379z" />
    <glyph glyph-name="F" unicode="F" horiz-adv-x="594" 
d="M200 653v-230h302l-1 -91h-301v-332h-103v750h461l2 -97h-360z" />
    <glyph glyph-name="G" unicode="G" horiz-adv-x="679" 
d="M616 29q-41 -20 -98.5 -31.5t-119.5 -11.5q-89 0 -153 23t-105 70t-60.5 120t-19.5 174q0 204 82 297t259 93q53 0 106 -10t93 -27l-12 -92q-39 17 -85 26t-97 9q-63 0 -108 -14t-74 -48t-42.5 -91t-13.5 -142q0 -83 12.5 -138.5t39.5 -90t70 -49t105 -14.5q74 0 130 21
v294h91v-368z" />
    <glyph glyph-name="H" unicode="H" horiz-adv-x="753" 
d="M553 0v341h-354v-341h-102v750h102v-314h354v314h103v-750h-103z" />
    <glyph glyph-name="I" unicode="I" horiz-adv-x="323" 
d="M109 750h105v-750h-105v750z" />
    <glyph glyph-name="J" unicode="J" horiz-adv-x="550" 
d="M453 253q0 -137 -70 -202t-195 -65q-48 0 -85.5 11t-65.5 30l8 91q24 -18 56 -28t74 -10q83 0 128.5 42t45.5 132v496h104v-497z" />
    <glyph glyph-name="K" unicode="K" horiz-adv-x="703" 
d="M549 0l-241 346h-109v-346h-102v750h102v-317h111l230 317h122l-259 -355l274 -395h-128z" />
    <glyph glyph-name="L" unicode="L" horiz-adv-x="573" 
d="M549 96l-3 -96h-449v750h103v-654h349z" />
    <glyph glyph-name="M" unicode="M" horiz-adv-x="915" 
d="M213 750l215 -530l29 -75h3l28 75l215 530h115v-750h-93v496l2 81l-3 1l-29 -76l-203 -502h-72l-202 498l-29 76l-2 -1l1 -81v-492h-91v750h116z" />
    <glyph glyph-name="N" unicode="N" horiz-adv-x="758" 
d="M588 0l-354 516l-44 68l-2 -1l1 -81v-502h-92v750h93l380 -567l2 1l-2 80v486h91v-750h-73z" />
    <glyph glyph-name="O" unicode="O" horiz-adv-x="741" 
d="M681 375q0 -104 -17 -177.5t-54 -120.5t-96 -69t-143 -22q-83 0 -142 22t-96.5 69.5t-55 121t-17.5 176.5t17 176t54.5 120t96.5 69t143 22t143 -22t96 -69t54 -120t17 -176zM574 375q0 86 -11 142.5t-35 89.5t-63 46.5t-94 13.5t-93.5 -13.5t-63 -46.5t-35.5 -89.5
t-11 -142.5t11 -142.5t35.5 -90t63 -47t93.5 -13.5t93.5 13.5t63 47t35.5 90t11 142.5z" />
    <glyph glyph-name="P" unicode="P" horiz-adv-x="652" 
d="M608 515q0 -116 -61.5 -175t-200.5 -59h-147v-281h-102v750h249q138 0 200 -56.5t62 -178.5zM503 515q0 82 -37.5 114t-119.5 32h-147v-294h147q40 0 69.5 7t49 24t29 45.5t9.5 71.5z" />
    <glyph glyph-name="Q" unicode="Q" horiz-adv-x="741" 
d="M681 375q0 -89 -12.5 -156t-39.5 -113.5t-70 -73.5t-103 -37l163 -117l-128 -32l-140 140q-78 3 -133 26.5t-90.5 71t-51.5 119.5t-16 172q0 103 17 176t54.5 120t96.5 69t143 22t143 -22t96 -69t54 -120t17 -176zM574 375q0 86 -11 142.5t-35 89.5t-63 46.5t-94 13.5
t-93.5 -13.5t-63 -46.5t-35.5 -89.5t-11 -142.5t11 -142.5t35.5 -90t63 -47t93.5 -13.5t93.5 13.5t63 47t35.5 90t11 142.5z" />
    <glyph glyph-name="R" unicode="R" horiz-adv-x="662" 
d="M592 536q0 -87 -37.5 -138t-109.5 -63l196 -335h-122l-169 316h-151v-316h-102v750h254q124 0 182.5 -52.5t58.5 -161.5zM486 532q0 71 -32 100t-103 29h-152v-264h148q72 0 105.5 30.5t33.5 104.5z" />
    <glyph glyph-name="S" unicode="S" horiz-adv-x="568" 
d="M527 214q0 -106 -65.5 -167t-190.5 -61q-65 0 -120 15.5t-100 41.5l16 93q46 -28 95.5 -42.5t107.5 -14.5q80 0 119 34t39 94q0 42 -27.5 67t-68.5 42.5t-89.5 33.5t-89.5 40t-68.5 62t-27.5 100q0 44 14.5 82.5t45 67t77 44.5t110.5 16q55 0 106 -10t92 -30l-14 -89
q-45 17 -88 26.5t-91 9.5q-42 0 -71.5 -9t-47.5 -24.5t-26 -35.5t-8 -42q0 -41 27.5 -64.5t68.5 -40t89.5 -32t89.5 -40t68.5 -64t27.5 -103.5z" />
    <glyph glyph-name="T" unicode="T" horiz-adv-x="583" 
d="M343 654v-654h-104v654h-223l3 96h545l2 -96h-223z" />
    <glyph glyph-name="U" unicode="U" horiz-adv-x="736" 
d="M653 270q0 -148 -74 -216t-211 -68t-211.5 68t-74.5 216v480h102v-479q0 -99 45 -143.5t139 -44.5t138.5 45t44.5 143v479h102v-480z" />
    <glyph glyph-name="V" unicode="V" horiz-adv-x="693" 
d="M672 750l-267 -750h-117l-267 750h114l189 -575l24 -77h3l23 77l190 575h108z" />
    <glyph glyph-name="W" unicode="W" horiz-adv-x="1010" 
d="M564 750l137 -571l18 -79h3l15 79l123 571h102l-181 -750h-125l-133 571l-16 80h-3l-17 -80l-132 -571h-125l-182 750h107l123 -574l16 -79h3l17 79l136 574h114z" />
    <glyph glyph-name="X" unicode="X" horiz-adv-x="697" 
d="M422 391l238 -391h-118l-194 330l-190 -330h-120l233 389l-226 361h124l180 -302l178 302h118z" />
    <glyph glyph-name="Y" unicode="Y" horiz-adv-x="671" 
d="M139 750l163 -329l35 -73h3l33 73l163 329h113l-260 -496v-254h-104v254l-264 496h118z" />
    <glyph glyph-name="Z" unicode="Z" horiz-adv-x="617" 
d="M48 0v69l346 518l45 65l-1 2h-379l4 96h500v-78l-342 -511l-45 -63l1 -3h388l-3 -95h-514z" />
    <glyph glyph-name="bracketleft" unicode="[" horiz-adv-x="326" 
d="M94 794h229v-71h-143v-781h144v-70h-230v922z" />
    <glyph glyph-name="backslash" unicode="\" horiz-adv-x="384" 
d="M86 794l302 -920h-77l-303 920h78z" />
    <glyph glyph-name="bracketright" unicode="]" horiz-adv-x="327" 
d="M232 -128h-229v69h144v782h-144v71h229v-922z" />
    <glyph glyph-name="asciicircum" unicode="^" horiz-adv-x="649" 
d="M325 731l-179 -268h-80l226 341h67l224 -341h-78z" />
    <glyph glyph-name="underscore" unicode="_" horiz-adv-x="429" 
d="M405 -45v-62h-378v62h378z" />
    <glyph glyph-name="grave" unicode="`" 
d="M212 662l-109 143h114l69 -143h-74z" />
    <glyph glyph-name="a" unicode="a" horiz-adv-x="573" 
d="M418 73l-3 1q-26 -38 -72.5 -60.5t-104.5 -22.5q-41 0 -74.5 11t-57.5 34t-37.5 59.5t-13.5 86.5q0 85 53.5 133t160.5 48q38 0 73.5 -6.5t63.5 -16.5v59q0 71 -33 99t-106 28q-48 0 -87.5 -8.5t-79.5 -27.5l-9 79q85 39 192 39q59 0 100 -13t67 -40t37.5 -69t11.5 -101
v-385h-72zM405 272q-11 7 -42.5 14.5t-76.5 7.5q-75 0 -108.5 -28.5t-33.5 -82.5q0 -32 9 -53.5t25 -35t38 -19.5t48 -6q28 0 53.5 8.5t45 22.5t31 32t11.5 37v103z" />
    <glyph glyph-name="b" unicode="b" horiz-adv-x="630" 
d="M581 300q0 -84 -16 -143t-46.5 -96.5t-74.5 -54.5t-101 -17q-56 0 -100.5 19.5t-72.5 54.5l-3 -1l-15 -62h-63v790l94 6v-175l-1 -80l2 -1q32 34 76 50.5t94 16.5q52 0 94 -16t71.5 -52.5t45.5 -95t16 -143.5zM485 298q0 68 -10.5 111.5t-30.5 68t-49 34t-66 9.5
q-48 0 -85.5 -18.5t-60.5 -52.5v-309q18 -29 55 -51t92 -22q35 0 63.5 10t49 35.5t31.5 70.5t11 114z" />
    <glyph glyph-name="c" unicode="c" horiz-adv-x="498" 
d="M445 491q-26 12 -57.5 19.5t-63.5 7.5q-48 0 -82 -12t-55 -38t-30.5 -67t-9.5 -99q0 -63 11.5 -107t33.5 -71t54.5 -39.5t75.5 -12.5q71 0 127 34l7 -78q-26 -18 -66 -29.5t-88 -11.5q-125 0 -189 75.5t-64 239.5q0 152 61 227.5t195 75.5q40 0 78.5 -8t67.5 -21z" />
    <glyph glyph-name="d" unicode="d" horiz-adv-x="627" 
d="M469 0l-12 62l-3 1q-57 -75 -176 -75q-121 0 -175 75.5t-54 235.5q0 152 55 230t175 78q50 0 93 -17t75 -50l2 1l-2 80v168l95 6v-795h-73zM447 451q-19 31 -56.5 49.5t-85.5 18.5q-44 0 -74 -12t-48.5 -39t-27 -69.5t-8.5 -103.5q0 -63 8 -106.5t26 -70.5t48 -39t75 -12
q31 0 55 7t41.5 17.5t29 23.5t17.5 25v311z" />
    <glyph glyph-name="e" unicode="e" horiz-adv-x="578" 
d="M326 -12q-147 0 -212 79.5t-65 246.5q0 141 61 216.5t185 75.5q53 0 96.5 -16t74 -50t47.5 -85.5t17 -123.5q0 -11 -0.5 -23.5t-1.5 -22.5h-382q2 -59 14 -99.5t35.5 -65t58.5 -35.5t83 -11q45 0 84.5 9.5t77.5 28.5l11 -80q-38 -20 -84 -32t-100 -12zM443 350
q-1 47 -12 80t-30 54t-46 30.5t-59 9.5q-76 0 -111.5 -42.5t-40.5 -131.5h299z" />
    <glyph glyph-name="f" unicode="f" horiz-adv-x="404" 
d="M121 0v523h-88v73h88v27q0 37 11 69t35 55t61 36t88 13q23 0 47 -3.5t41 -8.5l-6 -65q-30 8 -65 8q-63 0 -90 -27.5t-27 -77.5v-26h153v-73h-153v-523h-95z" />
    <glyph glyph-name="g" unicode="g" horiz-adv-x="573" 
d="M282 252q-21 0 -42 2t-41 7q-45 -12 -45 -44q0 -15 12.5 -26.5t39.5 -13.5l145 -12q54 -5 90.5 -16t59 -29t32 -43t9.5 -56q0 -41 -13.5 -74t-43.5 -56.5t-78.5 -36t-118.5 -12.5q-60 0 -103.5 11.5t-71.5 32t-41 49.5t-13 64q0 32 14.5 60.5t43.5 51.5q-21 12 -35.5 33
t-14.5 50t19 53.5t56 39.5q-32 20 -51.5 53.5t-19.5 87.5q0 41 11.5 74t37 56t65.5 35.5t97 12.5q39 0 77.5 -8t69.5 -29l98 39l21 -48l-72 -50q8 -17 12 -37t4 -45q0 -42 -11 -75t-36 -55.5t-65 -34t-98 -11.5zM190 94q-25 -17 -37 -39.5t-12 -43.5q0 -45 33.5 -69.5
t111.5 -24.5q51 0 83.5 6.5t51.5 18.5t26.5 29t7.5 37q0 16 -5 28t-18.5 21t-36.5 15t-60 9zM283 531q-66 0 -92 -25.5t-26 -79.5q0 -32 8.5 -52t24 -31.5t37 -16t46.5 -4.5q69 0 94.5 25.5t25.5 78.5q0 59 -27.5 82t-90.5 23z" />
    <glyph glyph-name="h" unicode="h" horiz-adv-x="626" 
d="M458 0v395q0 60 -33 92t-102 32q-47 0 -84.5 -19.5t-55.5 -48.5v-451h-94v789l94 6v-173l-1 -80l2 -1q32 34 75.5 50t91.5 16q98 0 149.5 -54.5t51.5 -157.5v-395h-94z" />
    <glyph glyph-name="i" unicode="i" horiz-adv-x="312" 
d="M108 0v593l95 5v-598h-95zM217 747q0 -51 -61 -51q-31 0 -46 11t-15 40q0 51 61 51t61 -51z" />
    <glyph glyph-name="j" unicode="j" horiz-adv-x="310" 
d="M202 -9q0 -42 -11 -71t-30 -46t-45 -24.5t-56 -7.5q-18 0 -36.5 3.5t-32.5 8.5l5 70q10 -3 20.5 -5t21.5 -2q31 0 50.5 17.5t19.5 59.5v599l94 5v-607zM215 749q0 -52 -61 -52q-31 0 -46.5 11.5t-15.5 40.5q0 51 62 51q61 0 61 -51z" />
    <glyph glyph-name="k" unicode="k" horiz-adv-x="589" 
d="M183 361h91l176 235h111l-204 -272l212 -324h-111l-183 281h-92v-281h-94v789l94 6v-434z" />
    <glyph glyph-name="l" unicode="l" horiz-adv-x="299" 
d="M102 0v789l95 6v-795h-95z" />
    <glyph glyph-name="m" unicode="m" horiz-adv-x="924" 
d="M756 0v396q0 63 -33 92.5t-91 29.5q-48 0 -83 -28t-35 -84v-406h-94v406q0 30 -9 51.5t-25 35t-37 20t-46 6.5q-38 0 -72.5 -18.5t-52.5 -48.5v-452h-95v594l68 5l17 -64h3q27 33 68 51.5t86 18.5q119 0 161 -91h2q26 47 69.5 69.5t98.5 22.5q43 0 79 -13t61.5 -39
t39.5 -65t14 -92v-397h-94z" />
    <glyph glyph-name="n" unicode="n" horiz-adv-x="620" 
d="M452 0v394q0 66 -34.5 95.5t-100.5 29.5q-19 0 -39 -4.5t-39 -13t-35 -21t-26 -28.5v-452h-95v594l68 5l16 -63h3q31 34 76.5 52.5t96.5 18.5q95 0 149 -53t54 -160v-394h-94z" />
    <glyph glyph-name="o" unicode="o" horiz-adv-x="615" 
d="M565 296q0 -83 -15 -141.5t-46 -96t-79.5 -54.5t-115.5 -17q-68 0 -117 17t-80.5 54.5t-47 96t-15.5 141.5t15.5 141.5t47.5 96t81 55t116 17.5t115.5 -17.5t80 -55t46 -96t14.5 -141.5zM147 296q0 -64 9 -108t28.5 -71t50 -38.5t74.5 -11.5q43 0 73.5 12t49.5 39
t27.5 70.5t8.5 107.5t-8.5 108t-27.5 71t-49.5 38.5t-73.5 11.5q-44 0 -74.5 -11.5t-50 -38.5t-28.5 -71t-9 -108z" />
    <glyph glyph-name="p" unicode="p" horiz-adv-x="625" 
d="M576 299q0 -83 -16.5 -141.5t-46.5 -96t-73 -55t-97 -17.5q-48 0 -89.5 14t-72.5 51l-2 -1l1 -81v-120h-97v741l68 5l20 -62q32 33 77.5 51.5t99.5 18.5q55 0 97.5 -15.5t71.5 -51.5t44 -94.5t15 -145.5zM478 299q0 65 -10 107.5t-29 67.5t-48 35t-66 10q-48 0 -85 -18
t-60 -52v-306q17 -29 52 -51t88 -22q35 0 64 10t50 35.5t32.5 70t11.5 113.5z" />
    <glyph glyph-name="q" unicode="q" horiz-adv-x="625" 
d="M445 -149v119l2 81l-2 1q-29 -29 -70 -45t-92 -16q-53 0 -96.5 16.5t-74 53.5t-47 95t-16.5 141q0 161 59.5 235t177.5 74q57 0 102.5 -19t74.5 -57h3l13 66h61v-744zM445 447q-14 29 -53 50t-88 21q-42 0 -72 -11t-48.5 -36.5t-27.5 -68t-9 -105.5t9.5 -105.5t29 -68.5
t49 -37.5t69.5 -11.5q31 0 56.5 7.5t43.5 18.5t28.5 25t12.5 28v294z" />
    <glyph glyph-name="r" unicode="r" horiz-adv-x="445" 
d="M83 0v592l76 5l8 -128h2q28 65 75 100.5t108 35.5q33 0 59 -8l-6 -96q-14 5 -28.5 6.5t-30.5 1.5q-35 0 -65.5 -14.5t-53.5 -41t-36 -65t-13 -86.5v-302h-95z" />
    <glyph glyph-name="s" unicode="s" horiz-adv-x="493" 
d="M449 175q0 -84 -50 -135.5t-160 -51.5q-54 0 -101 12.5t-82 37.5l12 82q34 -26 80.5 -39t89.5 -13q66 0 94.5 28t28.5 70q0 34 -22.5 53.5t-56.5 33t-73.5 25.5t-73.5 31t-56.5 49.5t-22.5 80.5q0 76 52.5 121.5t155.5 45.5q87 0 161 -34l-8 -80q-38 16 -78.5 24t-76.5 8
q-54 0 -85 -21.5t-31 -58.5q0 -32 22.5 -49.5t56 -30.5t73 -24.5t73 -30.5t56 -50.5t22.5 -83.5z" />
    <glyph glyph-name="t" unicode="t" horiz-adv-x="392" 
d="M211 522v-366q0 -47 23 -67t64 -20q13 0 27 2t23 6l6 -72q-14 -7 -36.5 -11t-46.5 -4q-77 0 -116 41.5t-39 121.5v369h-83v74h86l18 148l74 8v-156h147v-74h-147z" />
    <glyph glyph-name="u" unicode="u" horiz-adv-x="611" 
d="M537 196q0 -100 -57 -153.5t-175 -53.5t-174.5 54t-56.5 153v400h94v-398q0 -122 138 -122q137 0 137 122v398h94v-400z" />
    <glyph glyph-name="v" unicode="v" horiz-adv-x="638" 
d="M605 596l-231 -596h-110l-231 596h105l154 -436l26 -76h3l25 76l154 436h105z" />
    <glyph glyph-name="w" unicode="w" horiz-adv-x="872" 
d="M489 596l109 -444l18 -79h3l15 79l94 444h93l-144 -596h-118l-100 419l-17 80h-3l-18 -80l-103 -419h-116l-151 596h95l99 -441l16 -79h3l17 79l107 441h101z" />
    <glyph glyph-name="x" unicode="x" horiz-adv-x="602" 
d="M297 257l-150 -257h-107l194 302l-190 294h112l147 -248l145 248h108l-185 -291l191 -305h-112z" />
    <glyph glyph-name="y" unicode="y" horiz-adv-x="638" 
d="M187 -86q35 0 59.5 16t44.5 60l3 10l-261 596h110l170 -433l28 -75h3l22 77l137 431h102l-217 -603q-30 -82 -74.5 -117.5t-110.5 -35.5q-51 0 -92 19l9 71q33 -16 67 -16z" />
    <glyph glyph-name="z" unicode="z" horiz-adv-x="542" 
d="M217 148l-47 -63l1 -3h316l-3 -82h-424v68l265 380l47 64l-1 2h-300l3 82h407v-69z" />
    <glyph glyph-name="braceleft" unicode="{" horiz-adv-x="370" 
d="M253 439q0 -35 -15.5 -62t-44.5 -40v-3q29 -14 44.5 -40.5t15.5 -61.5q0 -30 -2.5 -54.5t-5 -48t-5 -47.5t-2.5 -52q0 -38 22 -60.5t77 -22.5h30v-75h-25q-105 0 -148 38t-43 107q0 30 3 57t6 52.5t6 51.5t3 55q0 32 -20 53.5t-55 26.5v44q35 5 55 26.5t20 53.5
q0 29 -3 55l-6 52q-3 26 -6 52.5t-3 56.5q0 69 43 107t148 38h25v-75h-30q-55 0 -77 -22t-22 -60q0 -29 2.5 -53t5 -47t5 -47.5t2.5 -54.5z" />
    <glyph glyph-name="bar" unicode="|" horiz-adv-x="281" 
d="M104 812h74v-989h-74v989z" />
    <glyph glyph-name="braceright" unicode="}" horiz-adv-x="370" 
d="M117 232q0 35 15 61.5t46 40.5v3q-31 13 -46 40t-15 62q0 30 2.5 54.5t5 47.5t5 47t2.5 53q0 38 -22.5 60t-76.5 22h-30v75h25q105 0 147.5 -38t42.5 -107q0 -30 -3 -56.5t-6 -52.5l-6 -52q-3 -26 -3 -55q0 -32 20.5 -53.5t55.5 -26.5v-44q-35 -5 -55.5 -26.5
t-20.5 -53.5q0 -29 3 -55t6 -51.5t6 -52.5t3 -57q0 -69 -42.5 -107t-147.5 -38h-25v75h30q54 0 76.5 22.5t22.5 60.5q0 28 -2.5 52t-5 47.5t-5 48t-2.5 54.5z" />
    <glyph glyph-name="asciitilde" unicode="~" horiz-adv-x="649" 
d="M94 623q8 74 39.5 111t89.5 37q28 0 54.5 -11t51 -24t48.5 -24t48 -11q32 0 48 16t25 42h57q-8 -75 -41 -111t-89 -36q-28 0 -54 11t-50.5 24t-48 24t-46.5 11q-31 0 -48.5 -15.5t-26.5 -43.5h-57z" />
    <glyph glyph-name="uni00A0" unicode="&#xa0;" horiz-adv-x="300" 
 />
    <glyph glyph-name="exclamdown" unicode="&#xa1;" horiz-adv-x="302" 
d="M190 461l12 -595h-101l13 595h76zM89 612q0 55 61 55q31 0 46 -13t15 -42q0 -57 -61 -57t-61 57z" />
    <glyph glyph-name="cent" unicode="&#xa2;" horiz-adv-x="649" 
d="M502 491q-26 12 -57.5 19.5t-63.5 7.5q-48 0 -82 -12t-55 -38t-30.5 -67t-9.5 -99q0 -63 11.5 -107t33.5 -71t54.5 -39.5t75.5 -12.5q71 0 127 34l7 -78q-23 -16 -56 -26.5t-72 -13.5l-7 -132h-75l7 134q-101 13 -152.5 88.5t-51.5 223.5q0 142 53 217.5t170 84.5l9 127
h75l-9 -129q29 -3 55.5 -10t48.5 -16z" />
    <glyph glyph-name="sterling" unicode="&#xa3;" horiz-adv-x="649" 
d="M81 414h52q-10 32 -17.5 63.5t-7.5 69.5q0 43 13.5 82t45 68t82.5 46.5t126 17.5q56 0 103 -10.5t83 -27.5l-14 -88q-30 14 -73 24t-89 10q-48 0 -81.5 -10t-54.5 -28t-31 -42.5t-10 -52.5q0 -32 6.5 -61.5t15.5 -60.5h262v-79h-243q4 -20 6 -42t2 -47q0 -57 -20.5 -98
t-55.5 -64l2 -3q48 11 98 15t113 4q54 0 105 -4t100 -9l-5 -93q-66 7 -123.5 10.5t-120.5 3.5q-71 0 -136 -3t-145 -10l-4 89q48 17 73 60.5t25 97.5q0 26 -2.5 49t-6.5 44h-69z" />
    <glyph glyph-name="currency" unicode="&#xa4;" horiz-adv-x="649" 
d="M146 360q0 27 7.5 52.5t21.5 46.5l-65 68l49 54l68 -70q20 14 44.5 21.5t51.5 7.5q53 0 97 -30l70 71l50 -54l-68 -69q14 -21 21.5 -46t7.5 -52q0 -53 -26 -94l64 -65l-50 -54l-64 65q-22 -15 -47.5 -23.5t-54.5 -8.5q-56 0 -101 31l-64 -65l-49 55l63 64q-26 43 -26 95z
M209 362q0 -23 9 -43t24.5 -35t36 -23.5t44.5 -8.5t45 8.5t36 23.5t24 35t9 43t-9 43t-24 35t-36 23.5t-45 8.5t-44.5 -8.5t-36 -23.5t-24.5 -35t-9 -43z" />
    <glyph glyph-name="yen" unicode="&#xa5;" horiz-adv-x="649" 
d="M247 338l-211 412h114l145 -341l30 -75h3l29 75l144 341h111l-204 -412h104v-63h-131v-49h132v-62h-132v-164h-107v164h-133v62h133v49h-133v63h106z" />
    <glyph glyph-name="brokenbar" unicode="&#xa6;" horiz-adv-x="281" 
d="M104 812h74v-439h-74v439zM104 273h74v-443h-74v443z" />
    <glyph glyph-name="section" unicode="&#xa7;" horiz-adv-x="562" 
d="M63 350q0 42 22 82.5t73 65.5q-35 25 -57.5 55t-22.5 71q0 78 56.5 120.5t163.5 42.5q49 0 101 -11.5t90 -34.5l-10 -75q-82 44 -176 44q-63 0 -95 -22t-32 -60q0 -29 25.5 -50.5t64 -41t83 -40t83 -48t64 -65t25.5 -90.5q0 -43 -22.5 -83.5t-73.5 -65.5q35 -24 57.5 -54
t22.5 -71q0 -78 -56 -120.5t-163 -42.5q-49 0 -101 11.5t-89 34.5l9 75q42 -23 86 -33.5t90 -10.5q63 0 95 22t32 60q0 29 -25.5 50.5t-64 41t-83 40t-83 48t-64 64.5t-25.5 91zM430 283q0 30 -17.5 53.5t-45.5 43.5t-63 38l-70 36q-42 -14 -60.5 -39.5t-18.5 -54.5
q0 -28 14 -50t37.5 -40.5t54 -35t62.5 -32.5l26 -13q42 14 61.5 39t19.5 55z" />
    <glyph glyph-name="dieresis" unicode="&#xa8;" 
d="M166 749q0 -47 -46 -47q-23 0 -34 10.5t-11 36.5q0 49 45 49q46 0 46 -49zM327 749q0 -47 -45 -47q-23 0 -35 10.5t-12 36.5q0 49 47 49q45 0 45 -49z" />
    <glyph glyph-name="copyright" unicode="&#xa9;" horiz-adv-x="905" 
d="M60 379q0 81 31 152.5t84 124.5t125 84t153 31t152.5 -31t124.5 -84t84 -124.5t31 -152.5t-31 -153t-84 -125t-124.5 -84t-152.5 -31t-153 31t-125 84t-84 125t-31 153zM111 380q0 -69 26.5 -131t72 -108.5t108 -74t134.5 -27.5t134.5 27t109 73t73.5 108t27 133
q0 69 -27 130t-73.5 106.5t-109 72.5t-134.5 27t-134 -27t-108 -72.5t-72.5 -106.5t-26.5 -130zM606 516q-24 14 -57.5 22.5t-64.5 8.5q-44 0 -78.5 -12.5t-58 -35t-36 -53.5t-12.5 -67q0 -38 13 -69.5t37 -54t58.5 -35t78.5 -12.5q38 0 72 11t59 26l10 -68
q-29 -23 -72.5 -41.5t-93.5 -18.5q-57 0 -104.5 19.5t-81 54.5t-52.5 83t-19 105q0 51 17 97t50 81t81 56t109 21q48 0 88 -14t65 -34z" />
    <glyph glyph-name="ordfeminine" unicode="&#xaa;" horiz-adv-x="420" 
d="M294 422l-3 1q-41 -55 -115 -55q-58 0 -93.5 34t-35.5 108q0 63 38.5 99t110.5 36q49 0 87 -16v39q0 45 -21 62.5t-70 17.5q-31 0 -57.5 -5.5t-54.5 -19.5l-7 70q64 28 135 28q85 0 120.5 -39t35.5 -127v-280h-63zM283 571q-8 4 -26.5 8.5t-44.5 4.5q-45 0 -66 -18.5
t-21 -54.5q0 -42 20.5 -57.5t52.5 -15.5q17 0 32.5 5.5t27 14.5t18.5 20.5t7 23.5v69z" />
    <glyph glyph-name="guillemotleft" unicode="&#xab;" horiz-adv-x="625" 
d="M342 326l193 -120v-78l-290 194v8l290 194v-78zM124 326l193 -120v-78l-290 194v8l290 194v-78z" />
    <glyph glyph-name="logicalnot" unicode="&#xac;" horiz-adv-x="649" 
d="M112 297v87h426v-241h-79v154h-347z" />
    <glyph glyph-name="uni00AD" unicode="&#xad;" horiz-adv-x="405" 
d="M335 376v-71h-265v71h265z" />
    <glyph glyph-name="registered" unicode="&#xae;" horiz-adv-x="449" 
d="M46 655q0 38 14 71t38.5 58t57 39t69.5 14t69.5 -14t56.5 -39t38 -58t14 -71q0 -37 -14 -70t-38 -57.5t-56.5 -38.5t-69.5 -14t-69.5 14t-57 38.5t-38.5 57.5t-14 70zM75 656q0 -31 12 -58t32.5 -47.5t48 -32.5t58.5 -12q30 0 57 12t47.5 32.5t32 47.5t11.5 58t-11.5 58
t-32 47.5t-47.5 32t-57 11.5q-31 0 -58.5 -11.5t-48 -32t-32.5 -47.5t-12 -58zM314 698q0 -20 -9.5 -35t-28.5 -21l44 -83h-46l-38 78h-46v-78h-42v201h88q43 0 60.5 -17t17.5 -45zM273 696q0 14 -8 21t-28 7h-47v-57h51q16 0 24 8t8 21z" />
    <glyph glyph-name="macron" unicode="&#xaf;" 
d="M343 708h-283v63h283v-63z" />
    <glyph glyph-name="degree" unicode="&#xb0;" horiz-adv-x="352" 
d="M48 686q0 27 10 51t27 41.5t40.5 28t50.5 10.5t50.5 -10t41 -28t27.5 -42t10 -51t-10 -50.5t-27.5 -41.5t-41 -28.5t-50.5 -10.5t-50 10.5t-40.5 28.5t-27.5 41.5t-10 50.5zM94 686q0 -33 23.5 -56.5t58.5 -23.5t58.5 23t23.5 57q0 35 -23.5 58t-58.5 23q-36 0 -59 -24
t-23 -57z" />
    <glyph glyph-name="plusminus" unicode="&#xb1;" horiz-adv-x="649" 
d="M365 342v-164h-85v164h-177v84h177v176h85v-176h182v-84h-182zM102 64v74h442v-74h-442z" />
    <glyph glyph-name="twosuperior" unicode="&#xb2;" horiz-adv-x="353" 
d="M317 783q0 -30 -13.5 -57t-37.5 -53.5t-57 -53.5t-73 -57v-3h183l-1 -61h-274v48q40 36 76 67.5t63 59.5t43 54t16 50q0 25 -17.5 41.5t-59.5 16.5q-30 0 -55.5 -10t-50.5 -27l-18 57q26 19 60.5 30.5t76.5 11.5q70 0 104.5 -31t34.5 -83z" />
    <glyph glyph-name="threesuperior" unicode="&#xb3;" horiz-adv-x="353" 
d="M329 616q0 -57 -37.5 -90t-118.5 -33q-42 0 -74 9t-55 23l16 56q24 -14 52 -21.5t61 -7.5q45 0 65.5 18.5t20.5 48.5q0 31 -26 46t-97 15v50q67 0 91 15t24 43q0 50 -76 50q-35 0 -61.5 -9t-50.5 -27l-18 53q23 18 58 30t74 12q67 0 104.5 -26.5t37.5 -77.5
q0 -35 -18 -55t-48 -31v-2q36 -9 56 -30t20 -59z" />
    <glyph glyph-name="acute" unicode="&#xb4;" 
d="M343 805l-114 -143h-73l72 143h115z" />
    <glyph glyph-name="mu" unicode="&#xb5;" horiz-adv-x="620" 
d="M322 -11q-48 0 -90 20t-65 65l-2 -1q2 -58 4.5 -112t7.5 -107l-94 -8v750h95v-396q0 -60 39.5 -92.5t102.5 -32.5q57 0 94.5 28t37.5 83v410h94v-594l-67 -6l-14 56h-3q-20 -30 -57 -46.5t-83 -16.5z" />
    <glyph glyph-name="paragraph" unicode="&#xb6;" horiz-adv-x="664" 
d="M189 -152v643q-64 2 -104 36t-40 98q0 54 38 89.5t111 35.5h420l-4 -81h-77v-821h-83v821h-177v-821h-84z" />
    <glyph glyph-name="periodcentered" unicode="&#xb7;" horiz-adv-x="283" 
d="M204 345q0 -29 -15 -45.5t-47 -16.5t-47 14t-15 48q0 61 62 61t62 -61z" />
    <glyph glyph-name="cedilla" unicode="&#xb8;" 
d="M189 5l64 1l-37 -197h-90z" />
    <glyph glyph-name="onesuperior" unicode="&#xb9;" horiz-adv-x="271" 
d="M206 498h-73v226l3 79l-3 1l-83 -52l-6 60l117 82h45v-396z" />
    <glyph glyph-name="ordmasculine" unicode="&#xba;" horiz-adv-x="456" 
d="M409 594q0 -62 -10.5 -105t-32.5 -70t-56 -39t-81 -12q-94 0 -138 51.5t-44 174.5t44 175t138 52q95 0 137.5 -52t42.5 -175zM131 594q0 -45 5.5 -75t17 -47.5t30 -25t45.5 -7.5q26 0 44.5 7.5t30.5 25t17.5 47.5t5.5 75t-5.5 75t-17.5 48t-30.5 25t-44.5 7
q-27 0 -45.5 -7t-30 -25t-17 -48t-5.5 -75z" />
    <glyph glyph-name="guillemotright" unicode="&#xbb;" horiz-adv-x="625" 
d="M291 206l193 120l-193 120v78l291 -194v-8l-291 -194v78zM74 206l193 120l-193 120v78l291 -194v-8l-291 -194v78z" />
    <glyph glyph-name="onequarter" unicode="&#xbc;" horiz-adv-x="927" 
d="M206 356h-73v226l3 79l-3 1l-83 -52l-6 60l117 82h45v-396zM719 750l-504 -750h-70l504 750h70zM863 81v-81h-68v81h-202l-5 42l187 271h88v-254h47l-2 -59h-45zM799 250l3 81l-2 1l-83 -126l-46 -63l1 -3h125z" />
    <glyph glyph-name="onehalf" unicode="&#xbd;" horiz-adv-x="912" 
d="M206 356h-73v226l3 79l-3 1l-83 -52l-6 60l117 82h45v-396zM719 750l-504 -750h-70l504 750h70zM876 285q0 -30 -13.5 -57t-37.5 -53.5t-57 -53.5t-73 -57v-3h183l-1 -61h-274v48q40 36 76 67.5t63 59.5t43 54t16 50q0 25 -17.5 41.5t-59.5 16.5q-30 0 -55.5 -10
t-50.5 -27l-18 57q26 19 60.5 30.5t76.5 11.5q70 0 104.5 -31t34.5 -83z" />
    <glyph glyph-name="threequarters" unicode="&#xbe;" horiz-adv-x="1009" 
d="M329 474q0 -57 -37.5 -90t-118.5 -33q-42 0 -74 9t-55 23l16 56q24 -14 52 -21.5t61 -7.5q45 0 65.5 18.5t20.5 48.5q0 31 -26 46t-97 15v50q67 0 91 15t24 43q0 50 -76 50q-35 0 -61.5 -9t-50.5 -27l-18 53q23 18 58 30t74 12q67 0 104.5 -26.5t37.5 -77.5
q0 -35 -18 -55t-48 -31v-2q36 -9 56 -30t20 -59zM801 750l-504 -750h-70l504 750h70zM945 81v-81h-68v81h-202l-5 42l187 271h88v-254h47l-2 -59h-45zM881 250l3 81l-2 1l-83 -126l-46 -63l1 -3h125z" />
    <glyph glyph-name="questiondown" unicode="&#xbf;" horiz-adv-x="490" 
d="M44 78q0 85 48 143.5t134 104.5l4 133h75l6 -169q-79 -47 -124.5 -92t-45.5 -107q0 -53 34 -77.5t93 -24.5q54 0 97.5 18.5t78.5 49.5l35 -77q-37 -35 -95 -58t-128 -23q-107 0 -159.5 47t-52.5 132zM206 615q0 56 60 56q32 0 46.5 -13t14.5 -43q0 -56 -61 -56
q-60 0 -60 56z" />
    <glyph glyph-name="Agrave" unicode="&#xc0;" horiz-adv-x="711" 
d="M518 179h-330l-60 -179h-110l276 750h122l277 -750h-115zM329 597l-111 -329h271l-109 329l-23 78h-3zM334 799l-120 117h119l80 -117h-79z" />
    <glyph glyph-name="Aacute" unicode="&#xc1;" horiz-adv-x="711" 
d="M518 179h-330l-60 -179h-110l276 750h122l277 -750h-115zM329 597l-111 -329h271l-109 329l-23 78h-3zM501 914l-130 -117h-78l79 117h129z" />
    <glyph glyph-name="Acircumflex" unicode="&#xc2;" horiz-adv-x="711" 
d="M518 179h-330l-60 -179h-110l276 750h122l277 -750h-115zM329 597l-111 -329h271l-109 329l-23 78h-3zM405 914l116 -117h-90l-76 74l-75 -74h-88l112 117h101z" />
    <glyph glyph-name="Atilde" unicode="&#xc3;" horiz-adv-x="711" 
d="M518 179h-330l-60 -179h-110l276 750h122l277 -750h-115zM329 597l-111 -329h271l-109 329l-23 78h-3zM205 804q5 47 27 76.5t60 29.5q22 0 40 -9.5t33.5 -20.5t29.5 -20.5t28 -9.5q30 0 40 47l43 -1q-4 -48 -26.5 -77t-60.5 -29q-21 0 -39 9.5t-33 20.5t-29 20.5
t-28 9.5q-15 0 -25 -13t-15 -34z" />
    <glyph glyph-name="Adieresis" unicode="&#xc4;" horiz-adv-x="711" 
d="M518 179h-330l-60 -179h-110l276 750h122l277 -750h-115zM329 597l-111 -329h271l-109 329l-23 78h-3zM305 848q0 -46 -46 -46q-23 0 -34.5 10t-11.5 36q0 46 46 46t46 -46zM497 848q0 -46 -46 -46q-23 0 -34.5 10t-11.5 36q0 46 46 46t46 -46z" />
    <glyph glyph-name="Aring" unicode="&#xc5;" horiz-adv-x="711" 
d="M254 804q0 37 23.5 60t75.5 23q51 0 75.5 -23t24.5 -59q0 -47 -33 -68l273 -737h-115l-60 179h-330l-60 -179h-110l270 735q-34 19 -34 69zM329 597l-111 -329h271l-109 329l-23 78h-3zM306 802q0 -17 11 -27.5t37 -10.5q48 0 48 38q0 17 -11 27.5t-37 10.5t-37 -10.5
t-11 -27.5z" />
    <glyph glyph-name="AE" unicode="&#xc6;" horiz-adv-x="1055" 
d="M620 656l23 -223h297v-86h-289l25 -254h333l-3 -93h-424l-17 180h-307l-93 -180h-122l417 750h535l3 -94h-378zM480 608l-176 -340h252l-31 331l-6 81l-3 1z" />
    <glyph glyph-name="Ccedilla" unicode="&#xc7;" horiz-adv-x="606" 
d="M344 -12q-146 10 -215 105.5t-69 288.5t79 287t249 94q47 0 95.5 -10.5t79.5 -24.5l-13 -92q-29 14 -70.5 22.5t-86.5 8.5q-59 0 -101.5 -14.5t-70 -47.5t-40.5 -87.5t-13 -135.5q0 -86 13 -144t41 -93t71 -50t103 -15q46 0 85 9.5t72 26.5l13 -86q-31 -16 -71.5 -27.5
t-84.5 -15.5l-33 -178h-90z" />
    <glyph glyph-name="Egrave" unicode="&#xc8;" horiz-adv-x="623" 
d="M578 93l-3 -93h-478v750h461l3 -94h-362v-223h310v-86h-310v-254h379zM315 799l-120 117h119l80 -117h-79z" />
    <glyph glyph-name="Eacute" unicode="&#xc9;" horiz-adv-x="623" 
d="M578 93l-3 -93h-478v750h461l3 -94h-362v-223h310v-86h-310v-254h379zM483 914l-130 -117h-78l79 117h129z" />
    <glyph glyph-name="Ecircumflex" unicode="&#xca;" horiz-adv-x="623" 
d="M578 93l-3 -93h-478v750h461l3 -94h-362v-223h310v-86h-310v-254h379zM386 914l116 -117h-90l-76 74l-75 -74h-88l112 117h101z" />
    <glyph glyph-name="Edieresis" unicode="&#xcb;" horiz-adv-x="623" 
d="M578 93l-3 -93h-478v750h461l3 -94h-362v-223h310v-86h-310v-254h379zM286 848q0 -46 -46 -46q-23 0 -34.5 10t-11.5 36q0 46 46 46t46 -46zM478 848q0 -46 -46 -46q-23 0 -34.5 10t-11.5 36q0 46 46 46t46 -46z" />
    <glyph glyph-name="Igrave" unicode="&#xcc;" horiz-adv-x="323" 
d="M109 750h105v-750h-105v750zM142 799l-120 117h119l80 -117h-79z" />
    <glyph glyph-name="Iacute" unicode="&#xcd;" horiz-adv-x="323" 
d="M109 750h105v-750h-105v750zM309 914l-130 -117h-78l79 117h129z" />
    <glyph glyph-name="Icircumflex" unicode="&#xce;" horiz-adv-x="323" 
d="M109 750h105v-750h-105v750zM213 914l116 -117h-90l-76 74l-75 -74h-88l112 117h101z" />
    <glyph glyph-name="Idieresis" unicode="&#xcf;" horiz-adv-x="323" 
d="M109 750h105v-750h-105v750zM113 848q0 -46 -46 -46q-23 0 -34.5 10t-11.5 36q0 46 46 46t46 -46zM305 848q0 -46 -46 -46q-23 0 -34.5 10t-11.5 36q0 46 46 46t46 -46z" />
    <glyph glyph-name="Eth" unicode="&#xd0;" horiz-adv-x="745" 
d="M684 378q0 -102 -20 -174t-59.5 -117.5t-100 -66t-141.5 -20.5h-259v359h-71v65h71v326h257q85 0 146.5 -21t100.5 -66t57.5 -115.5t18.5 -169.5zM577 378q0 81 -12.5 134t-38.5 84.5t-67 44.5t-99 13h-154v-230h106v-65h-106v-264h155q55 0 95.5 12.5t67.5 44t40 86.5
t13 140z" />
    <glyph glyph-name="Ntilde" unicode="&#xd1;" horiz-adv-x="758" 
d="M588 0l-354 516l-44 68l-2 -1l1 -81v-502h-92v750h93l380 -567l2 1l-2 80v486h91v-750h-73zM235 804q5 47 27 76.5t60 29.5q22 0 40 -9.5t33.5 -20.5t29.5 -20.5t28 -9.5q30 0 40 47l43 -1q-4 -48 -26.5 -77t-60.5 -29q-21 0 -39 9.5t-33 20.5t-29 20.5t-28 9.5
q-15 0 -25 -13t-15 -34z" />
    <glyph glyph-name="Ograve" unicode="&#xd2;" horiz-adv-x="741" 
d="M681 375q0 -104 -17 -177.5t-54 -120.5t-96 -69t-143 -22q-83 0 -142 22t-96.5 69.5t-55 121t-17.5 176.5t17 176t54.5 120t96.5 69t143 22t143 -22t96 -69t54 -120t17 -176zM574 375q0 86 -11 142.5t-35 89.5t-63 46.5t-94 13.5t-93.5 -13.5t-63 -46.5t-35.5 -89.5
t-11 -142.5t11 -142.5t35.5 -90t63 -47t93.5 -13.5t93.5 13.5t63 47t35.5 90t11 142.5zM367 799l-120 117h119l80 -117h-79z" />
    <glyph glyph-name="Oacute" unicode="&#xd3;" horiz-adv-x="741" 
d="M681 375q0 -104 -17 -177.5t-54 -120.5t-96 -69t-143 -22q-83 0 -142 22t-96.5 69.5t-55 121t-17.5 176.5t17 176t54.5 120t96.5 69t143 22t143 -22t96 -69t54 -120t17 -176zM574 375q0 86 -11 142.5t-35 89.5t-63 46.5t-94 13.5t-93.5 -13.5t-63 -46.5t-35.5 -89.5
t-11 -142.5t11 -142.5t35.5 -90t63 -47t93.5 -13.5t93.5 13.5t63 47t35.5 90t11 142.5zM518 914l-130 -117h-78l79 117h129z" />
    <glyph glyph-name="Ocircumflex" unicode="&#xd4;" horiz-adv-x="741" 
d="M681 375q0 -104 -17 -177.5t-54 -120.5t-96 -69t-143 -22q-83 0 -142 22t-96.5 69.5t-55 121t-17.5 176.5t17 176t54.5 120t96.5 69t143 22t143 -22t96 -69t54 -120t17 -176zM574 375q0 86 -11 142.5t-35 89.5t-63 46.5t-94 13.5t-93.5 -13.5t-63 -46.5t-35.5 -89.5
t-11 -142.5t11 -142.5t35.5 -90t63 -47t93.5 -13.5t93.5 13.5t63 47t35.5 90t11 142.5zM422 914l116 -117h-90l-76 74l-75 -74h-88l112 117h101z" />
    <glyph glyph-name="Otilde" unicode="&#xd5;" horiz-adv-x="741" 
d="M681 375q0 -104 -17 -177.5t-54 -120.5t-96 -69t-143 -22q-83 0 -142 22t-96.5 69.5t-55 121t-17.5 176.5t17 176t54.5 120t96.5 69t143 22t143 -22t96 -69t54 -120t17 -176zM574 375q0 86 -11 142.5t-35 89.5t-63 46.5t-94 13.5t-93.5 -13.5t-63 -46.5t-35.5 -89.5
t-11 -142.5t11 -142.5t35.5 -90t63 -47t93.5 -13.5t93.5 13.5t63 47t35.5 90t11 142.5zM222 804q5 47 27 76.5t60 29.5q22 0 40 -9.5t33.5 -20.5t29.5 -20.5t28 -9.5q30 0 40 47l43 -1q-4 -48 -26.5 -77t-60.5 -29q-21 0 -39 9.5t-33 20.5t-29 20.5t-28 9.5q-15 0 -25 -13
t-15 -34z" />
    <glyph glyph-name="Odieresis" unicode="&#xd6;" horiz-adv-x="741" 
d="M681 375q0 -104 -17 -177.5t-54 -120.5t-96 -69t-143 -22q-83 0 -142 22t-96.5 69.5t-55 121t-17.5 176.5t17 176t54.5 120t96.5 69t143 22t143 -22t96 -69t54 -120t17 -176zM574 375q0 86 -11 142.5t-35 89.5t-63 46.5t-94 13.5t-93.5 -13.5t-63 -46.5t-35.5 -89.5
t-11 -142.5t11 -142.5t35.5 -90t63 -47t93.5 -13.5t93.5 13.5t63 47t35.5 90t11 142.5zM322 848q0 -46 -46 -46q-23 0 -34.5 10t-11.5 36q0 46 46 46t46 -46zM514 848q0 -46 -46 -46q-23 0 -34.5 10t-11.5 36q0 46 46 46t46 -46z" />
    <glyph glyph-name="multiply" unicode="&#xd7;" horiz-adv-x="597" 
d="M446 128l-147 146l-147 -146l-56 61l148 145l-148 146l55 61l149 -146l147 146l55 -61l-148 -146l147 -145z" />
    <glyph glyph-name="Oslash" unicode="&#xd8;" horiz-adv-x="741" 
d="M50 33l60 78q-26 47 -38 112t-12 152q0 103 17 176t54.5 120t96.5 69t143 22q151 0 225 -75l62 74l50 -48l-70 -87q23 -46 33 -108t10 -143q0 -104 -17 -177.5t-54 -120.5t-96 -69t-143 -22q-73 0 -126.5 16.5t-91.5 51.5l-53 -69zM167 375q0 -59 4.5 -103.5t15.5 -77.5
l343 410q-24 35 -63 49t-96 14q-55 0 -94 -13.5t-63.5 -46.5t-35.5 -89.5t-11 -142.5zM574 375q0 105 -15 170l-342 -407q25 -31 62.5 -43.5t91.5 -12.5q55 0 93.5 13.5t63 47t35.5 90t11 142.5z" />
    <glyph glyph-name="Ugrave" unicode="&#xd9;" horiz-adv-x="736" 
d="M653 270q0 -148 -74 -216t-211 -68t-211.5 68t-74.5 216v480h102v-479q0 -99 45 -143.5t139 -44.5t138.5 45t44.5 143v479h102v-480zM347 799l-120 117h119l80 -117h-79z" />
    <glyph glyph-name="Uacute" unicode="&#xda;" horiz-adv-x="736" 
d="M653 270q0 -148 -74 -216t-211 -68t-211.5 68t-74.5 216v480h102v-479q0 -99 45 -143.5t139 -44.5t138.5 45t44.5 143v479h102v-480zM514 914l-130 -117h-78l79 117h129z" />
    <glyph glyph-name="Ucircumflex" unicode="&#xdb;" horiz-adv-x="736" 
d="M653 270q0 -148 -74 -216t-211 -68t-211.5 68t-74.5 216v480h102v-479q0 -99 45 -143.5t139 -44.5t138.5 45t44.5 143v479h102v-480zM418 914l116 -117h-90l-76 74l-75 -74h-88l112 117h101z" />
    <glyph glyph-name="Udieresis" unicode="&#xdc;" horiz-adv-x="736" 
d="M653 270q0 -148 -74 -216t-211 -68t-211.5 68t-74.5 216v480h102v-479q0 -99 45 -143.5t139 -44.5t138.5 45t44.5 143v479h102v-480zM318 848q0 -46 -46 -46q-23 0 -34.5 10t-11.5 36q0 46 46 46t46 -46zM510 848q0 -46 -46 -46q-23 0 -34.5 10t-11.5 36q0 46 46 46
t46 -46z" />
    <glyph glyph-name="Yacute" unicode="&#xdd;" horiz-adv-x="671" 
d="M139 750l163 -329l35 -73h3l33 73l163 329h113l-260 -496v-254h-104v254l-264 496h118zM484 914l-130 -117h-78l79 117h129z" />
    <glyph glyph-name="Thorn" unicode="&#xde;" horiz-adv-x="652" 
d="M608 384q0 -58 -15 -101.5t-49 -73t-87.5 -44t-129.5 -14.5h-128v-151h-102v750h102v-131h128q75 0 128.5 -14t87.5 -42.5t49.5 -73t15.5 -105.5zM503 384q0 41 -10 69t-31 45t-54.5 24.5t-80.5 7.5h-128v-294h128q46 0 79.5 7t55 24t31.5 45.5t10 71.5z" />
    <glyph glyph-name="germandbls" unicode="&#xdf;" horiz-adv-x="634" 
d="M89 503q0 128 60 194t173 66q40 0 73.5 -11t57.5 -30.5t37 -45.5t13 -56q0 -38 -20.5 -67t-44.5 -52t-44.5 -41t-20.5 -34q0 -13 16.5 -24.5t40.5 -25t53 -30t53 -39.5t40.5 -53.5t16.5 -71.5q0 -45 -16 -80t-45 -60t-70 -38t-91 -13q-39 0 -82.5 9.5t-73.5 29.5l8 84
q24 -17 59.5 -26.5t72.5 -9.5q63 0 102.5 25t39.5 76q0 31 -16.5 54t-41.5 41t-54.5 33.5t-54.5 31.5t-41.5 33.5t-16.5 41.5q0 28 22 51.5t48.5 47t48.5 49t22 55.5q0 28 -25 46t-68 18q-137 0 -137 -169v-512h-94v503z" />
    <glyph glyph-name="agrave" unicode="&#xe0;" horiz-adv-x="573" 
d="M418 73l-3 1q-26 -38 -72.5 -60.5t-104.5 -22.5q-41 0 -74.5 11t-57.5 34t-37.5 59.5t-13.5 86.5q0 85 53.5 133t160.5 48q38 0 73.5 -6.5t63.5 -16.5v59q0 71 -33 99t-106 28q-48 0 -87.5 -8.5t-79.5 -27.5l-9 79q85 39 192 39q59 0 100 -13t67 -40t37.5 -69t11.5 -101
v-385h-72zM405 272q-11 7 -42.5 14.5t-76.5 7.5q-75 0 -108.5 -28.5t-33.5 -82.5q0 -32 9 -53.5t25 -35t38 -19.5t48 -6q28 0 53.5 8.5t45 22.5t31 32t11.5 37v103zM263 662l-109 143h114l69 -143h-74z" />
    <glyph glyph-name="aacute" unicode="&#xe1;" horiz-adv-x="573" 
d="M418 73l-3 1q-26 -38 -72.5 -60.5t-104.5 -22.5q-41 0 -74.5 11t-57.5 34t-37.5 59.5t-13.5 86.5q0 85 53.5 133t160.5 48q38 0 73.5 -6.5t63.5 -16.5v59q0 71 -33 99t-106 28q-48 0 -87.5 -8.5t-79.5 -27.5l-9 79q85 39 192 39q59 0 100 -13t67 -40t37.5 -69t11.5 -101
v-385h-72zM405 272q-11 7 -42.5 14.5t-76.5 7.5q-75 0 -108.5 -28.5t-33.5 -82.5q0 -32 9 -53.5t25 -35t38 -19.5t48 -6q28 0 53.5 8.5t45 22.5t31 32t11.5 37v103zM408 805l-114 -143h-73l72 143h115z" />
    <glyph glyph-name="acircumflex" unicode="&#xe2;" horiz-adv-x="573" 
d="M418 73l-3 1q-26 -38 -72.5 -60.5t-104.5 -22.5q-41 0 -74.5 11t-57.5 34t-37.5 59.5t-13.5 86.5q0 85 53.5 133t160.5 48q38 0 73.5 -6.5t63.5 -16.5v59q0 71 -33 99t-106 28q-48 0 -87.5 -8.5t-79.5 -27.5l-9 79q85 39 192 39q59 0 100 -13t67 -40t37.5 -69t11.5 -101
v-385h-72zM405 272q-11 7 -42.5 14.5t-76.5 7.5q-75 0 -108.5 -28.5t-33.5 -82.5q0 -32 9 -53.5t25 -35t38 -19.5t48 -6q28 0 53.5 8.5t45 22.5t31 32t11.5 37v103zM324 805l105 -143h-74l-72 103l-72 -103h-74l103 143h84z" />
    <glyph glyph-name="atilde" unicode="&#xe3;" horiz-adv-x="573" 
d="M418 73l-3 1q-26 -38 -72.5 -60.5t-104.5 -22.5q-41 0 -74.5 11t-57.5 34t-37.5 59.5t-13.5 86.5q0 85 53.5 133t160.5 48q38 0 73.5 -6.5t63.5 -16.5v59q0 71 -33 99t-106 28q-48 0 -87.5 -8.5t-79.5 -27.5l-9 79q85 39 192 39q59 0 100 -13t67 -40t37.5 -69t11.5 -101
v-385h-72zM405 272q-11 7 -42.5 14.5t-76.5 7.5q-75 0 -108.5 -28.5t-33.5 -82.5q0 -32 9 -53.5t25 -35t38 -19.5t48 -6q28 0 53.5 8.5t45 22.5t31 32t11.5 37v103zM133 683q4 52 27 84.5t60 32.5q23 0 40 -10.5t31.5 -22.5t28 -22.5t29.5 -10.5q30 0 42 55l46 -1
q-4 -54 -27.5 -85.5t-60.5 -31.5q-22 0 -39 10.5t-31.5 22.5t-28.5 22.5t-29 10.5q-14 0 -25.5 -15t-16.5 -40z" />
    <glyph glyph-name="adieresis" unicode="&#xe4;" horiz-adv-x="573" 
d="M418 73l-3 1q-26 -38 -72.5 -60.5t-104.5 -22.5q-41 0 -74.5 11t-57.5 34t-37.5 59.5t-13.5 86.5q0 85 53.5 133t160.5 48q38 0 73.5 -6.5t63.5 -16.5v59q0 71 -33 99t-106 28q-48 0 -87.5 -8.5t-79.5 -27.5l-9 79q85 39 192 39q59 0 100 -13t67 -40t37.5 -69t11.5 -101
v-385h-72zM405 272q-11 7 -42.5 14.5t-76.5 7.5q-75 0 -108.5 -28.5t-33.5 -82.5q0 -32 9 -53.5t25 -35t38 -19.5t48 -6q28 0 53.5 8.5t45 22.5t31 32t11.5 37v103zM253 749q0 -47 -46 -47q-23 0 -34 10.5t-11 36.5q0 49 45 49q46 0 46 -49zM414 749q0 -47 -45 -47
q-23 0 -35 10.5t-12 36.5q0 49 47 49q45 0 45 -49z" />
    <glyph glyph-name="aring" unicode="&#xe5;" horiz-adv-x="573" 
d="M418 73l-3 1q-26 -38 -72.5 -60.5t-104.5 -22.5q-41 0 -74.5 11t-57.5 34t-37.5 59.5t-13.5 86.5q0 85 53.5 133t160.5 48q38 0 73.5 -6.5t63.5 -16.5v59q0 71 -33 99t-106 28q-48 0 -87.5 -8.5t-79.5 -27.5l-9 79q85 39 192 39q59 0 100 -13t67 -40t37.5 -69t11.5 -101
v-385h-72zM405 272q-11 7 -42.5 14.5t-76.5 7.5q-75 0 -108.5 -28.5t-33.5 -82.5q0 -32 9 -53.5t25 -35t38 -19.5t48 -6q28 0 53.5 8.5t45 22.5t31 32t11.5 37v103zM185 744q0 37 25 59t76 22q50 0 76 -23t26 -58q0 -38 -25.5 -59t-76.5 -21q-48 0 -74.5 20t-26.5 60z
M234 744q0 -18 12.5 -29.5t40.5 -11.5q26 0 40 11t14 30q0 18 -13.5 29.5t-40.5 11.5q-28 0 -40.5 -11.5t-12.5 -29.5z" />
    <glyph glyph-name="ae" unicode="&#xe6;" horiz-adv-x="924" 
d="M283 606q72 0 115 -20.5t64 -64.5q31 42 77 63.5t109 21.5q50 0 92 -16t72 -50t47 -85.5t17 -123.5q0 -11 -0.5 -23.5t-1.5 -22.5h-381q2 -59 14.5 -99.5t35.5 -65t58 -35.5t83 -11q45 0 84.5 10t77.5 29l11 -81q-38 -20 -84 -32t-101 -12q-88 0 -142.5 28.5t-81.5 82.5
h-3q-26 -52 -77.5 -81t-120.5 -29q-44 0 -79.5 11t-60.5 34t-38.5 59.5t-13.5 86.5q0 85 53.5 132.5t160.5 47.5q40 0 74.5 -7t62.5 -18v62q0 71 -33 99t-106 28q-48 0 -87.5 -8.5t-79.5 -27.5l-9 79q87 39 192 39zM405 270q-11 7 -42.5 14.5t-76.5 7.5q-75 0 -109 -28.5
t-34 -82.5q0 -32 9 -53.5t25.5 -35t38.5 -19.5t48 -6q30 0 56 9t45 24.5t29.5 37.5t10.5 48v84zM790 350q-1 47 -12 80t-30.5 54t-46 30.5t-58.5 9.5q-75 0 -110.5 -42.5t-40.5 -131.5h298z" />
    <glyph glyph-name="ccedilla" unicode="&#xe7;" horiz-adv-x="498" 
d="M263 -11q-106 10 -160 86t-54 227q0 152 61 227.5t195 75.5q40 0 78.5 -8t67.5 -21l-6 -85q-26 12 -57.5 19.5t-63.5 7.5q-48 0 -82 -12t-55 -38t-30.5 -67t-9.5 -99q0 -63 11.5 -107t33.5 -71t54.5 -39.5t75.5 -12.5q71 0 127 34l7 -78q-23 -16 -56 -26.5t-72 -13.5
l-33 -179h-90z" />
    <glyph glyph-name="egrave" unicode="&#xe8;" horiz-adv-x="578" 
d="M326 -12q-147 0 -212 79.5t-65 246.5q0 141 61 216.5t185 75.5q53 0 96.5 -16t74 -50t47.5 -85.5t17 -123.5q0 -11 -0.5 -23.5t-1.5 -22.5h-382q2 -59 14 -99.5t35.5 -65t58.5 -35.5t83 -11q45 0 84.5 9.5t77.5 28.5l11 -80q-38 -20 -84 -32t-100 -12zM443 350
q-1 47 -12 80t-30 54t-46 30.5t-59 9.5q-76 0 -111.5 -42.5t-40.5 -131.5h299zM275 662l-109 143h114l69 -143h-74z" />
    <glyph glyph-name="eacute" unicode="&#xe9;" horiz-adv-x="578" 
d="M326 -12q-147 0 -212 79.5t-65 246.5q0 141 61 216.5t185 75.5q53 0 96.5 -16t74 -50t47.5 -85.5t17 -123.5q0 -11 -0.5 -23.5t-1.5 -22.5h-382q2 -59 14 -99.5t35.5 -65t58.5 -35.5t83 -11q45 0 84.5 9.5t77.5 28.5l11 -80q-38 -20 -84 -32t-100 -12zM443 350
q-1 47 -12 80t-30 54t-46 30.5t-59 9.5q-76 0 -111.5 -42.5t-40.5 -131.5h299zM421 805l-114 -143h-73l72 143h115z" />
    <glyph glyph-name="ecircumflex" unicode="&#xea;" horiz-adv-x="578" 
d="M326 -12q-147 0 -212 79.5t-65 246.5q0 141 61 216.5t185 75.5q53 0 96.5 -16t74 -50t47.5 -85.5t17 -123.5q0 -11 -0.5 -23.5t-1.5 -22.5h-382q2 -59 14 -99.5t35.5 -65t58.5 -35.5t83 -11q45 0 84.5 9.5t77.5 28.5l11 -80q-38 -20 -84 -32t-100 -12zM443 350
q-1 47 -12 80t-30 54t-46 30.5t-59 9.5q-76 0 -111.5 -42.5t-40.5 -131.5h299zM337 805l105 -143h-74l-72 103l-72 -103h-74l103 143h84z" />
    <glyph glyph-name="edieresis" unicode="&#xeb;" horiz-adv-x="578" 
d="M326 -12q-147 0 -212 79.5t-65 246.5q0 141 61 216.5t185 75.5q53 0 96.5 -16t74 -50t47.5 -85.5t17 -123.5q0 -11 -0.5 -23.5t-1.5 -22.5h-382q2 -59 14 -99.5t35.5 -65t58.5 -35.5t83 -11q45 0 84.5 9.5t77.5 28.5l11 -80q-38 -20 -84 -32t-100 -12zM443 350
q-1 47 -12 80t-30 54t-46 30.5t-59 9.5q-76 0 -111.5 -42.5t-40.5 -131.5h299zM254 749q0 -47 -46 -47q-23 0 -34 10.5t-11 36.5q0 49 45 49q46 0 46 -49zM415 749q0 -47 -45 -47q-23 0 -35 10.5t-12 36.5q0 49 47 49q45 0 45 -49z" />
    <glyph glyph-name="igrave" unicode="&#xec;" horiz-adv-x="312" 
d="M108 0v593l95 5v-598h-95zM136 662l-109 143h114l69 -143h-74z" />
    <glyph glyph-name="iacute" unicode="&#xed;" horiz-adv-x="312" 
d="M108 0v593l95 5v-598h-95zM282 805l-114 -143h-73l72 143h115z" />
    <glyph glyph-name="icircumflex" unicode="&#xee;" horiz-adv-x="312" 
d="M108 0v593l95 5v-598h-95zM198 805l105 -143h-74l-72 103l-72 -103h-74l103 143h84z" />
    <glyph glyph-name="idieresis" unicode="&#xef;" horiz-adv-x="312" 
d="M108 0v593l95 5v-598h-95zM126 749q0 -47 -46 -47q-23 0 -34 10.5t-11 36.5q0 49 45 49q46 0 46 -49zM287 749q0 -47 -45 -47q-23 0 -35 10.5t-12 36.5q0 49 47 49q45 0 45 -49z" />
    <glyph glyph-name="eth" unicode="&#xf0;" horiz-adv-x="616" 
d="M382 707q39 -36 72.5 -79.5t58 -91.5t39 -100t14.5 -104q0 -93 -15.5 -158t-48 -106t-81 -60t-114.5 -19q-61 0 -109 14.5t-81 49t-50.5 91.5t-17.5 142q0 142 56 210.5t180 68.5q91 0 150 -44l2 2q-22 39 -51 73.5t-64 66.5l-88 -64l-36 37l81 61q-23 16 -46.5 31
t-48.5 29l63 48q48 -25 94 -62l81 61l36 -42zM146 283q0 -63 10.5 -104t31 -65t50.5 -33.5t69 -9.5q80 0 121 56.5t41 185.5q0 169 -162 169q-43 0 -73.5 -10.5t-50 -34t-28.5 -61.5t-9 -93z" />
    <glyph glyph-name="ntilde" unicode="&#xf1;" horiz-adv-x="620" 
d="M452 0v394q0 66 -34.5 95.5t-100.5 29.5q-19 0 -39 -4.5t-39 -13t-35 -21t-26 -28.5v-452h-95v594l68 5l16 -63h3q31 34 76.5 52.5t96.5 18.5q95 0 149 -53t54 -160v-394h-94zM164 683q4 52 27 84.5t60 32.5q23 0 40 -10.5t31.5 -22.5t28 -22.5t29.5 -10.5q30 0 42 55
l46 -1q-4 -54 -27.5 -85.5t-60.5 -31.5q-22 0 -39 10.5t-31.5 22.5t-28.5 22.5t-29 10.5q-14 0 -25.5 -15t-16.5 -40z" />
    <glyph glyph-name="ograve" unicode="&#xf2;" horiz-adv-x="615" 
d="M565 296q0 -83 -15 -141.5t-46 -96t-79.5 -54.5t-115.5 -17q-68 0 -117 17t-80.5 54.5t-47 96t-15.5 141.5t15.5 141.5t47.5 96t81 55t116 17.5t115.5 -17.5t80 -55t46 -96t14.5 -141.5zM147 296q0 -64 9 -108t28.5 -71t50 -38.5t74.5 -11.5q43 0 73.5 12t49.5 39
t27.5 70.5t8.5 107.5t-8.5 108t-27.5 71t-49.5 38.5t-73.5 11.5q-44 0 -74.5 -11.5t-50 -38.5t-28.5 -71t-9 -108zM288 662l-109 143h114l69 -143h-74z" />
    <glyph glyph-name="oacute" unicode="&#xf3;" horiz-adv-x="615" 
d="M565 296q0 -83 -15 -141.5t-46 -96t-79.5 -54.5t-115.5 -17q-68 0 -117 17t-80.5 54.5t-47 96t-15.5 141.5t15.5 141.5t47.5 96t81 55t116 17.5t115.5 -17.5t80 -55t46 -96t14.5 -141.5zM147 296q0 -64 9 -108t28.5 -71t50 -38.5t74.5 -11.5q43 0 73.5 12t49.5 39
t27.5 70.5t8.5 107.5t-8.5 108t-27.5 71t-49.5 38.5t-73.5 11.5q-44 0 -74.5 -11.5t-50 -38.5t-28.5 -71t-9 -108zM434 805l-114 -143h-73l72 143h115z" />
    <glyph glyph-name="ocircumflex" unicode="&#xf4;" horiz-adv-x="615" 
d="M565 296q0 -83 -15 -141.5t-46 -96t-79.5 -54.5t-115.5 -17q-68 0 -117 17t-80.5 54.5t-47 96t-15.5 141.5t15.5 141.5t47.5 96t81 55t116 17.5t115.5 -17.5t80 -55t46 -96t14.5 -141.5zM147 296q0 -64 9 -108t28.5 -71t50 -38.5t74.5 -11.5q43 0 73.5 12t49.5 39
t27.5 70.5t8.5 107.5t-8.5 108t-27.5 71t-49.5 38.5t-73.5 11.5q-44 0 -74.5 -11.5t-50 -38.5t-28.5 -71t-9 -108zM350 805l105 -143h-74l-72 103l-72 -103h-74l103 143h84z" />
    <glyph glyph-name="otilde" unicode="&#xf5;" horiz-adv-x="615" 
d="M565 296q0 -83 -15 -141.5t-46 -96t-79.5 -54.5t-115.5 -17q-68 0 -117 17t-80.5 54.5t-47 96t-15.5 141.5t15.5 141.5t47.5 96t81 55t116 17.5t115.5 -17.5t80 -55t46 -96t14.5 -141.5zM147 296q0 -64 9 -108t28.5 -71t50 -38.5t74.5 -11.5q43 0 73.5 12t49.5 39
t27.5 70.5t8.5 107.5t-8.5 108t-27.5 71t-49.5 38.5t-73.5 11.5q-44 0 -74.5 -11.5t-50 -38.5t-28.5 -71t-9 -108zM159 683q4 52 27 84.5t60 32.5q23 0 40 -10.5t31.5 -22.5t28 -22.5t29.5 -10.5q30 0 42 55l46 -1q-4 -54 -27.5 -85.5t-60.5 -31.5q-22 0 -39 10.5
t-31.5 22.5t-28.5 22.5t-29 10.5q-14 0 -25.5 -15t-16.5 -40z" />
    <glyph glyph-name="odieresis" unicode="&#xf6;" horiz-adv-x="615" 
d="M565 296q0 -83 -15 -141.5t-46 -96t-79.5 -54.5t-115.5 -17q-68 0 -117 17t-80.5 54.5t-47 96t-15.5 141.5t15.5 141.5t47.5 96t81 55t116 17.5t115.5 -17.5t80 -55t46 -96t14.5 -141.5zM147 296q0 -64 9 -108t28.5 -71t50 -38.5t74.5 -11.5q43 0 73.5 12t49.5 39
t27.5 70.5t8.5 107.5t-8.5 108t-27.5 71t-49.5 38.5t-73.5 11.5q-44 0 -74.5 -11.5t-50 -38.5t-28.5 -71t-9 -108zM272 749q0 -47 -46 -47q-23 0 -34 10.5t-11 36.5q0 49 45 49q46 0 46 -49zM433 749q0 -47 -45 -47q-23 0 -35 10.5t-12 36.5q0 49 47 49q45 0 45 -49z" />
    <glyph glyph-name="divide" unicode="&#xf7;" horiz-adv-x="597" 
d="M362 504q0 -54 -64 -54q-31 0 -47.5 11.5t-16.5 42.5q0 55 64 55t64 -55zM362 173q0 -54 -64 -54q-31 0 -47.5 11t-16.5 43q0 54 64 54t64 -54zM65 294v90h467v-90h-467z" />
    <glyph glyph-name="oslash" unicode="&#xf8;" horiz-adv-x="615" 
d="M40 35l47 59q-38 72 -38 202q0 83 15.5 141.5t47.5 96t80.5 55t115.5 17.5q110 0 171 -49l39 50l41 -39l-41 -54q47 -73 47 -218q0 -83 -15 -141.5t-46 -96t-80 -54.5t-116 -17q-62 0 -107.5 14t-77.5 45l-42 -51zM467 296q0 44 -4 78t-11 60l-275 -308
q20 -32 51.5 -45.5t79.5 -13.5q43 0 73.5 12t49.5 39t27.5 70.5t8.5 107.5zM146 296q0 -36 2.5 -65.5t7.5 -52.5l270 302q-19 24 -48 34.5t-70 10.5q-44 0 -74.5 -11.5t-50 -38.5t-28.5 -71t-9 -108z" />
    <glyph glyph-name="ugrave" unicode="&#xf9;" horiz-adv-x="611" 
d="M537 196q0 -100 -57 -153.5t-175 -53.5t-174.5 54t-56.5 153v400h94v-398q0 -122 138 -122q137 0 137 122v398h94v-400zM287 662l-109 143h114l69 -143h-74z" />
    <glyph glyph-name="uacute" unicode="&#xfa;" horiz-adv-x="611" 
d="M537 196q0 -100 -57 -153.5t-175 -53.5t-174.5 54t-56.5 153v400h94v-398q0 -122 138 -122q137 0 137 122v398h94v-400zM433 805l-114 -143h-73l72 143h115z" />
    <glyph glyph-name="ucircumflex" unicode="&#xfb;" horiz-adv-x="611" 
d="M537 196q0 -100 -57 -153.5t-175 -53.5t-174.5 54t-56.5 153v400h94v-398q0 -122 138 -122q137 0 137 122v398h94v-400zM348 805l105 -143h-74l-72 103l-72 -103h-74l103 143h84z" />
    <glyph glyph-name="udieresis" unicode="&#xfc;" horiz-adv-x="611" 
d="M537 196q0 -100 -57 -153.5t-175 -53.5t-174.5 54t-56.5 153v400h94v-398q0 -122 138 -122q137 0 137 122v398h94v-400zM271 749q0 -47 -46 -47q-23 0 -34 10.5t-11 36.5q0 49 45 49q46 0 46 -49zM432 749q0 -47 -45 -47q-23 0 -35 10.5t-12 36.5q0 49 47 49q45 0 45 -49
z" />
    <glyph glyph-name="yacute" unicode="&#xfd;" horiz-adv-x="638" 
d="M187 -86q35 0 59.5 16t44.5 60l3 10l-261 596h110l170 -433l28 -75h3l22 77l137 431h102l-217 -603q-30 -82 -74.5 -117.5t-110.5 -35.5q-51 0 -92 19l9 71q33 -16 67 -16zM443 805l-114 -143h-73l72 143h115z" />
    <glyph glyph-name="thorn" unicode="&#xfe;" horiz-adv-x="630" 
d="M581 299q0 -83 -16 -141.5t-46 -96t-72.5 -55t-96.5 -17.5q-47 0 -89.5 14t-74.5 49l-2 -1l1 -81v-118h-96v938l96 5v-177l-2 -80l3 -2q32 33 76 51.5t98 18.5q52 0 93.5 -15.5t69.5 -51.5t43 -94.5t15 -145.5zM482 299q0 65 -9.5 107.5t-28.5 67.5t-47.5 35t-65.5 10
q-48 0 -85 -18t-61 -52v-306q18 -29 52.5 -51t87.5 -22q35 0 64 10t49.5 35.5t32 70t11.5 113.5z" />
    <glyph glyph-name="ydieresis" unicode="&#xff;" horiz-adv-x="638" 
d="M187 -86q35 0 59.5 16t44.5 60l3 10l-261 596h110l170 -433l28 -75h3l22 77l137 431h102l-217 -603q-30 -82 -74.5 -117.5t-110.5 -35.5q-51 0 -92 19l9 71q33 -16 67 -16zM285 749q0 -47 -46 -47q-23 0 -34 10.5t-11 36.5q0 49 45 49q46 0 46 -49zM446 749
q0 -47 -45 -47q-23 0 -35 10.5t-12 36.5q0 49 47 49q45 0 45 -49z" />
    <glyph glyph-name="Amacron" unicode="&#x100;" horiz-adv-x="711" 
d="M518 179h-330l-60 -179h-110l276 750h122l277 -750h-115zM329 597l-111 -329h271l-109 329l-23 78h-3zM500 814h-284v52h284v-52z" />
    <glyph glyph-name="amacron" unicode="&#x101;" horiz-adv-x="573" 
d="M418 73l-3 1q-26 -38 -72.5 -60.5t-104.5 -22.5q-41 0 -74.5 11t-57.5 34t-37.5 59.5t-13.5 86.5q0 85 53.5 133t160.5 48q38 0 73.5 -6.5t63.5 -16.5v59q0 71 -33 99t-106 28q-48 0 -87.5 -8.5t-79.5 -27.5l-9 79q85 39 192 39q59 0 100 -13t67 -40t37.5 -69t11.5 -101
v-385h-72zM405 272q-11 7 -42.5 14.5t-76.5 7.5q-75 0 -108.5 -28.5t-33.5 -82.5q0 -32 9 -53.5t25 -35t38 -19.5t48 -6q28 0 53.5 8.5t45 22.5t31 32t11.5 37v103zM424 708h-283v63h283v-63z" />
    <glyph glyph-name="Abreve" unicode="&#x102;" horiz-adv-x="711" 
d="M518 179h-330l-60 -179h-110l276 750h122l277 -750h-115zM329 597l-111 -329h271l-109 329l-23 78h-3zM509 914q0 -58 -37 -90t-117 -32q-81 0 -118.5 31t-37.5 91h71q0 -38 24.5 -53t60.5 -15t59.5 15t22.5 53h72z" />
    <glyph glyph-name="abreve" unicode="&#x103;" horiz-adv-x="573" 
d="M418 73l-3 1q-26 -38 -72.5 -60.5t-104.5 -22.5q-41 0 -74.5 11t-57.5 34t-37.5 59.5t-13.5 86.5q0 85 53.5 133t160.5 48q38 0 73.5 -6.5t63.5 -16.5v59q0 71 -33 99t-106 28q-48 0 -87.5 -8.5t-79.5 -27.5l-9 79q85 39 192 39q59 0 100 -13t67 -40t37.5 -69t11.5 -101
v-385h-72zM405 272q-11 7 -42.5 14.5t-76.5 7.5q-75 0 -108.5 -28.5t-33.5 -82.5q0 -32 9 -53.5t25 -35t38 -19.5t48 -6q28 0 53.5 8.5t45 22.5t31 32t11.5 37v103zM423 805q0 -71 -34 -111t-107 -40q-75 0 -108.5 39.5t-33.5 111.5h66q0 -51 21.5 -74t54.5 -23q32 0 53 23
t20 74h68z" />
    <glyph glyph-name="Aogonek" unicode="&#x104;" horiz-adv-x="711" 
d="M518 179h-330l-60 -179h-110l276 750h122l277 -750h-18q-30 -2 -48 -24t-18 -47q0 -23 14 -36.5t46 -13.5q33 0 58 14l9 -53q-40 -23 -93 -23q-54 0 -81 24t-27 64q0 30 13 54.5t38 40.5h-8zM329 597l-111 -329h271l-109 329l-23 78h-3z" />
    <glyph glyph-name="aogonek" unicode="&#x105;" horiz-adv-x="573" 
d="M468 -183q-57 0 -81 24.5t-24 58.5q0 32 16.5 57.5t46.5 42.5l-8 71l-3 1q-26 -38 -72.5 -60.5t-104.5 -22.5q-41 0 -74.5 11t-57.5 34t-37.5 59.5t-13.5 86.5q0 85 53.5 133t160.5 48q38 0 73.5 -6.5t63.5 -16.5v59q0 71 -33 99t-106 28q-48 0 -87.5 -8.5t-79.5 -27.5
l-9 79q85 39 192 39q59 0 100 -13t67 -40t37.5 -69t11.5 -101v-385h-4q-30 -13 -44.5 -32.5t-14.5 -43.5q0 -20 13 -32t44 -12q32 0 60 14l8 -52q-20 -11 -42.5 -17t-50.5 -6zM405 270q-11 7 -42.5 14.5t-76.5 7.5q-75 0 -108.5 -28.5t-33.5 -82.5q0 -32 9 -53.5t25 -35
t38 -19.5t48 -6q28 0 53.5 8.5t45 22.5t31 32t11.5 37v103z" />
    <glyph glyph-name="Cacute" unicode="&#x106;" horiz-adv-x="606" 
d="M550 636q-29 14 -70.5 22.5t-86.5 8.5q-59 0 -101.5 -14.5t-70 -47.5t-40.5 -87.5t-13 -135.5q0 -86 13 -144t41 -93t71 -50t103 -15q46 0 85 9.5t72 26.5l13 -86q-35 -18 -84 -31t-99 -13q-167 0 -245 95.5t-78 300.5q0 193 79 287t249 94q47 0 95.5 -10.5t79.5 -24.5z
M513 914l-130 -117h-78l79 117h129z" />
    <glyph glyph-name="cacute" unicode="&#x107;" horiz-adv-x="498" 
d="M445 491q-26 12 -57.5 19.5t-63.5 7.5q-48 0 -82 -12t-55 -38t-30.5 -67t-9.5 -99q0 -63 11.5 -107t33.5 -71t54.5 -39.5t75.5 -12.5q71 0 127 34l7 -78q-26 -18 -66 -29.5t-88 -11.5q-125 0 -189 75.5t-64 239.5q0 152 61 227.5t195 75.5q40 0 78.5 -8t67.5 -21z
M417 805l-114 -143h-73l72 143h115z" />
    <glyph glyph-name="Ccircumflex" unicode="&#x108;" horiz-adv-x="606" 
d="M550 636q-29 14 -70.5 22.5t-86.5 8.5q-59 0 -101.5 -14.5t-70 -47.5t-40.5 -87.5t-13 -135.5q0 -86 13 -144t41 -93t71 -50t103 -15q46 0 85 9.5t72 26.5l13 -86q-35 -18 -84 -31t-99 -13q-167 0 -245 95.5t-78 300.5q0 193 79 287t249 94q47 0 95.5 -10.5t79.5 -24.5z
M416 914l116 -117h-90l-76 74l-75 -74h-88l112 117h101z" />
    <glyph glyph-name="ccircumflex" unicode="&#x109;" horiz-adv-x="498" 
d="M445 491q-26 12 -57.5 19.5t-63.5 7.5q-48 0 -82 -12t-55 -38t-30.5 -67t-9.5 -99q0 -63 11.5 -107t33.5 -71t54.5 -39.5t75.5 -12.5q71 0 127 34l7 -78q-26 -18 -66 -29.5t-88 -11.5q-125 0 -189 75.5t-64 239.5q0 152 61 227.5t195 75.5q40 0 78.5 -8t67.5 -21z
M331 805l105 -143h-74l-72 103l-72 -103h-74l103 143h84z" />
    <glyph glyph-name="Cdotaccent" unicode="&#x10a;" horiz-adv-x="606" 
d="M550 636q-29 14 -70.5 22.5t-86.5 8.5q-59 0 -101.5 -14.5t-70 -47.5t-40.5 -87.5t-13 -135.5q0 -86 13 -144t41 -93t71 -50t103 -15q46 0 85 9.5t72 26.5l13 -86q-35 -18 -84 -31t-99 -13q-167 0 -245 95.5t-78 300.5q0 193 79 287t249 94q47 0 95.5 -10.5t79.5 -24.5z
M428 847q0 -24 -14.5 -35.5t-47.5 -11.5t-48 10.5t-15 36.5q0 24 14.5 36t48.5 12q33 0 47.5 -12t14.5 -36z" />
    <glyph glyph-name="cdotaccent" unicode="&#x10b;" horiz-adv-x="498" 
d="M445 491q-26 12 -57.5 19.5t-63.5 7.5q-48 0 -82 -12t-55 -38t-30.5 -67t-9.5 -99q0 -63 11.5 -107t33.5 -71t54.5 -39.5t75.5 -12.5q71 0 127 34l7 -78q-26 -18 -66 -29.5t-88 -11.5q-125 0 -189 75.5t-64 239.5q0 152 61 227.5t195 75.5q40 0 78.5 -8t67.5 -21z
M354 749q0 -52 -62 -52q-31 0 -46.5 11.5t-15.5 40.5q0 51 62 51t62 -51z" />
    <glyph glyph-name="Ccaron" unicode="&#x10c;" horiz-adv-x="606" 
d="M550 636q-29 14 -70.5 22.5t-86.5 8.5q-59 0 -101.5 -14.5t-70 -47.5t-40.5 -87.5t-13 -135.5q0 -86 13 -144t41 -93t71 -50t103 -15q46 0 85 9.5t72 26.5l13 -86q-35 -18 -84 -31t-99 -13q-167 0 -245 95.5t-78 300.5q0 193 79 287t249 94q47 0 95.5 -10.5t79.5 -24.5z
M314 797l-114 117h90l75 -77l76 77h88l-114 -117h-101z" />
    <glyph glyph-name="ccaron" unicode="&#x10d;" horiz-adv-x="498" 
d="M445 491q-26 12 -57.5 19.5t-63.5 7.5q-48 0 -82 -12t-55 -38t-30.5 -67t-9.5 -99q0 -63 11.5 -107t33.5 -71t54.5 -39.5t75.5 -12.5q71 0 127 34l7 -78q-26 -18 -66 -29.5t-88 -11.5q-125 0 -189 75.5t-64 239.5q0 152 61 227.5t195 75.5q40 0 78.5 -8t67.5 -21z
M248 662l-102 143h74l71 -104l71 104h76l-105 -143h-85z" />
    <glyph glyph-name="Dcaron" unicode="&#x10e;" horiz-adv-x="737" 
d="M677 378q0 -102 -20 -174t-59.5 -117.5t-100 -66t-141.5 -20.5h-259v750h257q85 0 146.5 -21t100.5 -66t57.5 -115.5t18.5 -169.5zM570 378q0 81 -12.5 134t-38.5 84.5t-67 44.5t-99 13h-154v-559h155q55 0 95.5 12.5t67.5 44t40 86.5t13 140zM285 797l-114 117h90
l75 -77l76 77h88l-114 -117h-101z" />
    <glyph glyph-name="dcaron" unicode="&#x10f;" horiz-adv-x="627" 
d="M469 0l-12 62l-3 1q-57 -75 -176 -75q-121 0 -175 75.5t-54 235.5q0 152 55 230t175 78q50 0 93 -17t75 -50l2 1l-2 80v168l95 6v-795h-73zM447 451q-19 31 -56.5 49.5t-85.5 18.5q-44 0 -74 -12t-48.5 -39t-27 -69.5t-8.5 -103.5q0 -63 8 -106.5t26 -70.5t48 -39t75 -12
q31 0 55 7t41.5 17.5t29 23.5t17.5 25v311zM638 760q27 0 39.5 -13t12.5 -35q0 -11 -6 -25t-16 -29.5t-23 -31.5t-26 -30l-24 11l26 73q-33 7 -33 39q0 17 11.5 29t38.5 12z" />
    <glyph glyph-name="Dcroat" unicode="&#x110;" horiz-adv-x="745" 
d="M684 378q0 -102 -20 -174t-59.5 -117.5t-100 -66t-141.5 -20.5h-259v359h-71v65h71v326h257q85 0 146.5 -21t100.5 -66t57.5 -115.5t18.5 -169.5zM577 378q0 81 -12.5 134t-38.5 84.5t-67 44.5t-99 13h-154v-230h106v-65h-106v-264h155q55 0 95.5 12.5t67.5 44t40 86.5
t13 140z" />
    <glyph glyph-name="dcroat" unicode="&#x111;" horiz-adv-x="632" 
d="M469 0l-12 62l-3 1q-57 -75 -176 -75q-121 0 -175 75.5t-54 235.5q0 152 55 230t175 78q50 0 93 -17t73 -50l2 1v108h-106v57h106v83l95 6v-89h64v-57h-64v-649h-73zM447 451q-19 31 -56.5 49.5t-85.5 18.5q-44 0 -74 -12t-48.5 -39t-27 -69.5t-8.5 -103.5
q0 -63 8 -106.5t26 -70.5t48 -39t75 -12q31 0 55 7t41.5 17.5t29 23.5t17.5 25v311z" />
    <glyph glyph-name="Emacron" unicode="&#x112;" horiz-adv-x="623" 
d="M578 93l-3 -93h-478v750h461l3 -94h-362v-223h310v-86h-310v-254h379zM481 814h-284v52h284v-52z" />
    <glyph glyph-name="emacron" unicode="&#x113;" horiz-adv-x="578" 
d="M326 -12q-147 0 -212 79.5t-65 246.5q0 141 61 216.5t185 75.5q53 0 96.5 -16t74 -50t47.5 -85.5t17 -123.5q0 -11 -0.5 -23.5t-1.5 -22.5h-382q2 -59 14 -99.5t35.5 -65t58.5 -35.5t83 -11q45 0 84.5 9.5t77.5 28.5l11 -80q-38 -20 -84 -32t-100 -12zM443 350
q-1 47 -12 80t-30 54t-46 30.5t-59 9.5q-76 0 -111.5 -42.5t-40.5 -131.5h299zM437 708h-283v63h283v-63z" />
    <glyph glyph-name="Ebreve" unicode="&#x114;" horiz-adv-x="623" 
d="M578 93l-3 -93h-478v750h461l3 -94h-362v-223h310v-86h-310v-254h379zM491 914q0 -58 -37 -90t-117 -32q-81 0 -118.5 31t-37.5 91h71q0 -38 24.5 -53t60.5 -15t59.5 15t22.5 53h72z" />
    <glyph glyph-name="ebreve" unicode="&#x115;" horiz-adv-x="578" 
d="M326 -12q-147 0 -212 79.5t-65 246.5q0 141 61 216.5t185 75.5q53 0 96.5 -16t74 -50t47.5 -85.5t17 -123.5q0 -11 -0.5 -23.5t-1.5 -22.5h-382q2 -59 14 -99.5t35.5 -65t58.5 -35.5t83 -11q45 0 84.5 9.5t77.5 28.5l11 -80q-38 -20 -84 -32t-100 -12zM443 350
q-1 47 -12 80t-30 54t-46 30.5t-59 9.5q-76 0 -111.5 -42.5t-40.5 -131.5h299zM436 805q0 -71 -34 -111t-107 -40q-75 0 -108.5 39.5t-33.5 111.5h66q0 -51 21.5 -74t54.5 -23q32 0 53 23t20 74h68z" />
    <glyph glyph-name="Edotaccent" unicode="&#x116;" horiz-adv-x="623" 
d="M578 93l-3 -93h-478v750h461l3 -94h-362v-223h310v-86h-310v-254h379zM398 847q0 -24 -14.5 -35.5t-47.5 -11.5t-48 10.5t-15 36.5q0 24 14.5 36t48.5 12q33 0 47.5 -12t14.5 -36z" />
    <glyph glyph-name="edotaccent" unicode="&#x117;" horiz-adv-x="578" 
d="M326 -12q-147 0 -212 79.5t-65 246.5q0 141 61 216.5t185 75.5q53 0 96.5 -16t74 -50t47.5 -85.5t17 -123.5q0 -11 -0.5 -23.5t-1.5 -22.5h-382q2 -59 14 -99.5t35.5 -65t58.5 -35.5t83 -11q45 0 84.5 9.5t77.5 28.5l11 -80q-38 -20 -84 -32t-100 -12zM443 350
q-1 47 -12 80t-30 54t-46 30.5t-59 9.5q-76 0 -111.5 -42.5t-40.5 -131.5h299zM358 749q0 -52 -62 -52q-31 0 -46.5 11.5t-15.5 40.5q0 51 62 51t62 -51z" />
    <glyph glyph-name="Eogonek" unicode="&#x118;" horiz-adv-x="623" 
d="M578 93l-3 -93h-44q-31 0 -50 -22.5t-19 -48.5q0 -23 14 -36.5t46 -13.5q33 0 58 14l9 -53q-40 -23 -93 -23q-54 0 -81 24t-27 64q0 30 13 54.5t38 40.5h-342v750h461l3 -94h-362v-223h310v-86h-310v-254h379z" />
    <glyph glyph-name="eogonek" unicode="&#x119;" horiz-adv-x="578" 
d="M340 -190q-57 0 -81 24.5t-24 58.5q0 59 57 98q-129 7 -186 86t-57 237q0 141 61 216.5t185 75.5q53 0 96.5 -16t74 -50t47.5 -85.5t17 -123.5q0 -11 -0.5 -23.5t-1.5 -22.5h-382q2 -59 14 -99.5t35.5 -65t58.5 -35.5t83 -11q45 0 84.5 9.5t77.5 28.5l11 -80
q-31 -17 -67.5 -27.5t-78.5 -14.5q-29 -13 -42.5 -32.5t-13.5 -42.5q0 -20 13 -32t44 -12q32 0 60 14l8 -52q-20 -11 -42.5 -17t-50.5 -6zM443 350q-1 47 -12 80t-30 54t-46 30.5t-59 9.5q-76 0 -111.5 -42.5t-40.5 -131.5h299z" />
    <glyph glyph-name="Ecaron" unicode="&#x11a;" horiz-adv-x="623" 
d="M578 93l-3 -93h-478v750h461l3 -94h-362v-223h310v-86h-310v-254h379zM284 797l-114 117h90l75 -77l76 77h88l-114 -117h-101z" />
    <glyph glyph-name="ecaron" unicode="&#x11b;" horiz-adv-x="578" 
d="M326 -12q-147 0 -212 79.5t-65 246.5q0 141 61 216.5t185 75.5q53 0 96.5 -16t74 -50t47.5 -85.5t17 -123.5q0 -11 -0.5 -23.5t-1.5 -22.5h-382q2 -59 14 -99.5t35.5 -65t58.5 -35.5t83 -11q45 0 84.5 9.5t77.5 28.5l11 -80q-38 -20 -84 -32t-100 -12zM443 350
q-1 47 -12 80t-30 54t-46 30.5t-59 9.5q-76 0 -111.5 -42.5t-40.5 -131.5h299zM253 662l-102 143h74l71 -104l71 104h76l-105 -143h-85z" />
    <glyph glyph-name="Gcircumflex" unicode="&#x11c;" horiz-adv-x="679" 
d="M616 29q-41 -20 -98.5 -31.5t-119.5 -11.5q-89 0 -153 23t-105 70t-60.5 120t-19.5 174q0 204 82 297t259 93q53 0 106 -10t93 -27l-12 -92q-39 17 -85 26t-97 9q-63 0 -108 -14t-74 -48t-42.5 -91t-13.5 -142q0 -83 12.5 -138.5t39.5 -90t70 -49t105 -14.5q74 0 130 21
v294h91v-368zM434 914l116 -117h-90l-76 74l-75 -74h-88l112 117h101z" />
    <glyph glyph-name="gcircumflex" unicode="&#x11d;" horiz-adv-x="573" 
d="M282 252q-21 0 -42 2t-41 7q-45 -12 -45 -44q0 -15 12.5 -26.5t39.5 -13.5l145 -12q54 -5 90.5 -16t59 -29t32 -43t9.5 -56q0 -41 -13.5 -74t-43.5 -56.5t-78.5 -36t-118.5 -12.5q-60 0 -103.5 11.5t-71.5 32t-41 49.5t-13 64q0 32 14.5 60.5t43.5 51.5q-21 12 -35.5 33
t-14.5 50t19 53.5t56 39.5q-32 20 -51.5 53.5t-19.5 87.5q0 41 11.5 74t37 56t65.5 35.5t97 12.5q39 0 77.5 -8t69.5 -29l98 39l21 -48l-72 -50q8 -17 12 -37t4 -45q0 -42 -11 -75t-36 -55.5t-65 -34t-98 -11.5zM190 94q-25 -17 -37 -39.5t-12 -43.5q0 -45 33.5 -69.5
t111.5 -24.5q51 0 83.5 6.5t51.5 18.5t26.5 29t7.5 37q0 16 -5 28t-18.5 21t-36.5 15t-60 9zM283 531q-66 0 -92 -25.5t-26 -79.5q0 -32 8.5 -52t24 -31.5t37 -16t46.5 -4.5q69 0 94.5 25.5t25.5 78.5q0 59 -27.5 82t-90.5 23zM336 805l105 -143h-74l-72 103l-72 -103h-74
l103 143h84z" />
    <glyph glyph-name="Gbreve" unicode="&#x11e;" horiz-adv-x="679" 
d="M616 29q-41 -20 -98.5 -31.5t-119.5 -11.5q-89 0 -153 23t-105 70t-60.5 120t-19.5 174q0 204 82 297t259 93q53 0 106 -10t93 -27l-12 -92q-39 17 -85 26t-97 9q-63 0 -108 -14t-74 -48t-42.5 -91t-13.5 -142q0 -83 12.5 -138.5t39.5 -90t70 -49t105 -14.5q74 0 130 21
v294h91v-368zM539 914q0 -58 -37 -90t-117 -32q-81 0 -118.5 31t-37.5 91h71q0 -38 24.5 -53t60.5 -15t59.5 15t22.5 53h72z" />
    <glyph glyph-name="gbreve" unicode="&#x11f;" horiz-adv-x="573" 
d="M282 252q-21 0 -42 2t-41 7q-45 -12 -45 -44q0 -15 12.5 -26.5t39.5 -13.5l145 -12q54 -5 90.5 -16t59 -29t32 -43t9.5 -56q0 -41 -13.5 -74t-43.5 -56.5t-78.5 -36t-118.5 -12.5q-60 0 -103.5 11.5t-71.5 32t-41 49.5t-13 64q0 32 14.5 60.5t43.5 51.5q-21 12 -35.5 33
t-14.5 50t19 53.5t56 39.5q-32 20 -51.5 53.5t-19.5 87.5q0 41 11.5 74t37 56t65.5 35.5t97 12.5q39 0 77.5 -8t69.5 -29l98 39l21 -48l-72 -50q8 -17 12 -37t4 -45q0 -42 -11 -75t-36 -55.5t-65 -34t-98 -11.5zM190 94q-25 -17 -37 -39.5t-12 -43.5q0 -45 33.5 -69.5
t111.5 -24.5q51 0 83.5 6.5t51.5 18.5t26.5 29t7.5 37q0 16 -5 28t-18.5 21t-36.5 15t-60 9zM283 531q-66 0 -92 -25.5t-26 -79.5q0 -32 8.5 -52t24 -31.5t37 -16t46.5 -4.5q69 0 94.5 25.5t25.5 78.5q0 59 -27.5 82t-90.5 23zM437 805q0 -71 -34 -111t-107 -40
q-75 0 -108.5 39.5t-33.5 111.5h66q0 -51 21.5 -74t54.5 -23q32 0 53 23t20 74h68z" />
    <glyph glyph-name="Gdotaccent" unicode="&#x120;" horiz-adv-x="679" 
d="M616 29q-41 -20 -98.5 -31.5t-119.5 -11.5q-89 0 -153 23t-105 70t-60.5 120t-19.5 174q0 204 82 297t259 93q53 0 106 -10t93 -27l-12 -92q-39 17 -85 26t-97 9q-63 0 -108 -14t-74 -48t-42.5 -91t-13.5 -142q0 -83 12.5 -138.5t39.5 -90t70 -49t105 -14.5q74 0 130 21
v294h91v-368zM451 847q0 -24 -14.5 -35.5t-47.5 -11.5t-48 10.5t-15 36.5q0 24 14.5 36t48.5 12q33 0 47.5 -12t14.5 -36z" />
    <glyph glyph-name="gdotaccent" unicode="&#x121;" horiz-adv-x="573" 
d="M282 252q-21 0 -42 2t-41 7q-45 -12 -45 -44q0 -15 12.5 -26.5t39.5 -13.5l145 -12q54 -5 90.5 -16t59 -29t32 -43t9.5 -56q0 -41 -13.5 -74t-43.5 -56.5t-78.5 -36t-118.5 -12.5q-60 0 -103.5 11.5t-71.5 32t-41 49.5t-13 64q0 32 14.5 60.5t43.5 51.5q-21 12 -35.5 33
t-14.5 50t19 53.5t56 39.5q-32 20 -51.5 53.5t-19.5 87.5q0 41 11.5 74t37 56t65.5 35.5t97 12.5q39 0 77.5 -8t69.5 -29l98 39l21 -48l-72 -50q8 -17 12 -37t4 -45q0 -42 -11 -75t-36 -55.5t-65 -34t-98 -11.5zM190 94q-25 -17 -37 -39.5t-12 -43.5q0 -45 33.5 -69.5
t111.5 -24.5q51 0 83.5 6.5t51.5 18.5t26.5 29t7.5 37q0 16 -5 28t-18.5 21t-36.5 15t-60 9zM283 531q-66 0 -92 -25.5t-26 -79.5q0 -32 8.5 -52t24 -31.5t37 -16t46.5 -4.5q69 0 94.5 25.5t25.5 78.5q0 59 -27.5 82t-90.5 23zM357 749q0 -52 -62 -52q-31 0 -46.5 11.5
t-15.5 40.5q0 51 62 51t62 -51z" />
    <glyph glyph-name="uni0122" unicode="&#x122;" horiz-adv-x="679" 
d="M616 29q-41 -20 -98.5 -31.5t-119.5 -11.5q-89 0 -153 23t-105 70t-60.5 120t-19.5 174q0 204 82 297t259 93q53 0 106 -10t93 -27l-12 -92q-39 17 -85 26t-97 9q-63 0 -108 -14t-74 -48t-42.5 -91t-13.5 -142q0 -83 12.5 -138.5t39.5 -90t70 -49t105 -14.5q74 0 130 21
v294h91v-368zM396 -40q11 0 22 -2t19.5 -7t14 -13.5t5.5 -22.5q0 -11 -7 -24.5t-18.5 -29t-26 -31.5t-30.5 -30l-29 10l29 72q-38 7 -38 39q0 16 13.5 27.5t45.5 11.5z" />
    <glyph glyph-name="uni0123" unicode="&#x123;" horiz-adv-x="573" 
d="M282 252q-21 0 -42 2t-41 7q-45 -12 -45 -44q0 -15 12.5 -26.5t39.5 -13.5l145 -12q54 -5 90.5 -16t59 -29t32 -43t9.5 -56q0 -41 -13.5 -74t-43.5 -56.5t-78.5 -36t-118.5 -12.5q-60 0 -103.5 11.5t-71.5 32t-41 49.5t-13 64q0 32 14.5 60.5t43.5 51.5q-21 12 -35.5 33
t-14.5 50t19 53.5t56 39.5q-32 20 -51.5 53.5t-19.5 87.5q0 41 11.5 74t37 56t65.5 35.5t97 12.5q39 0 77.5 -8t69.5 -29l98 39l21 -48l-72 -50q8 -17 12 -37t4 -45q0 -42 -11 -75t-36 -55.5t-65 -34t-98 -11.5zM190 94q-25 -17 -37 -39.5t-12 -43.5q0 -45 33.5 -69.5
t111.5 -24.5q51 0 83.5 6.5t51.5 18.5t26.5 29t7.5 37q0 16 -5 28t-18.5 21t-36.5 15t-60 9zM283 531q-66 0 -92 -25.5t-26 -79.5q0 -32 8.5 -52t24 -31.5t37 -16t46.5 -4.5q69 0 94.5 25.5t25.5 78.5q0 59 -27.5 82t-90.5 23zM296 668q-27 0 -39 12.5t-12 34.5q0 11 6 25
t16 29.5t23 31.5t26 31l24 -11l-27 -73q33 -8 33 -40q0 -16 -11 -28t-39 -12z" />
    <glyph glyph-name="Hcircumflex" unicode="&#x124;" horiz-adv-x="753" 
d="M553 0v341h-354v-341h-102v750h102v-314h354v314h103v-750h-103zM430 914l116 -117h-90l-76 74l-75 -74h-88l112 117h101z" />
    <glyph glyph-name="hcircumflex" unicode="&#x125;" horiz-adv-x="626" 
d="M458 0v395q0 60 -33 92t-102 32q-47 0 -84.5 -19.5t-55.5 -48.5v-451h-94v789l94 6v-173l-1 -80l2 -1q32 34 75.5 50t91.5 16q98 0 149.5 -54.5t51.5 -157.5v-395h-94zM188 940l116 -117h-90l-76 74l-75 -74h-88l112 117h101z" />
    <glyph glyph-name="Hbar" unicode="&#x126;" horiz-adv-x="763" 
d="M558 0v341h-354v-341h-102v554h-56v58h56v138h102v-138h354v138h103v-138h67v-58h-67v-554h-103zM558 436v118h-354v-118h354z" />
    <glyph glyph-name="hbar" unicode="&#x127;" horiz-adv-x="626" 
d="M458 0v395q0 60 -33 92t-102 32q-47 0 -84.5 -19.5t-55.5 -48.5v-451h-94v649h-82v57h82v83l94 6v-89h89v-57h-89v-107l3 -1q31 34 74 50t91 16q98 0 149.5 -54.5t51.5 -157.5v-395h-94z" />
    <glyph glyph-name="Itilde" unicode="&#x128;" horiz-adv-x="323" 
d="M109 750h105v-750h-105v750zM13 804q5 47 27 76.5t60 29.5q22 0 40 -9.5t33.5 -20.5t29.5 -20.5t28 -9.5q30 0 40 47l43 -1q-4 -48 -26.5 -77t-60.5 -29q-21 0 -39 9.5t-33 20.5t-29 20.5t-28 9.5q-15 0 -25 -13t-15 -34z" />
    <glyph glyph-name="itilde" unicode="&#x129;" horiz-adv-x="312" 
d="M108 0v593l95 5v-598h-95zM5 683q4 52 27 84.5t60 32.5q23 0 40 -10.5t31.5 -22.5t28 -22.5t29.5 -10.5q30 0 42 55l46 -1q-4 -54 -27.5 -85.5t-60.5 -31.5q-22 0 -39 10.5t-31.5 22.5t-28.5 22.5t-29 10.5q-14 0 -25.5 -15t-16.5 -40z" />
    <glyph glyph-name="Imacron" unicode="&#x12a;" horiz-adv-x="323" 
d="M109 750h105v-750h-105v750zM304 814h-284v52h284v-52z" />
    <glyph glyph-name="imacron" unicode="&#x12b;" horiz-adv-x="312" 
d="M108 0v593l95 5v-598h-95zM298 708h-283v63h283v-63z" />
    <glyph glyph-name="Ibreve" unicode="&#x12c;" horiz-adv-x="323" 
d="M109 750h105v-750h-105v750zM317 914q0 -58 -37 -90t-117 -32q-81 0 -118.5 31t-37.5 91h71q0 -38 24.5 -53t60.5 -15t59.5 15t22.5 53h72z" />
    <glyph glyph-name="ibreve" unicode="&#x12d;" horiz-adv-x="312" 
d="M108 0v593l95 5v-598h-95zM297 805q0 -71 -34 -111t-107 -40q-75 0 -108.5 39.5t-33.5 111.5h66q0 -51 21.5 -74t54.5 -23q32 0 53 23t20 74h68z" />
    <glyph glyph-name="Iogonek" unicode="&#x12e;" horiz-adv-x="323" 
d="M109 750h105v-750h-8q-31 0 -50 -22.5t-19 -48.5q0 -23 14 -36.5t46 -13.5q33 0 58 14l9 -53q-40 -23 -93 -23q-54 0 -81 24t-27 64q0 30 13 54.5t38 40.5h-5v750z" />
    <glyph glyph-name="iogonek" unicode="&#x12f;" horiz-adv-x="312" 
d="M164 -182q-57 0 -81 24.5t-24 58.5q0 31 16 56.5t45 42.5h-12v593l95 5v-598h-9q-32 -13 -47 -33t-15 -44q0 -20 13 -32t44 -12q32 0 60 14l8 -52q-20 -11 -42.5 -17t-50.5 -6zM217 747q0 -51 -61 -51q-31 0 -46 11t-15 40q0 51 61 51t61 -51z" />
    <glyph glyph-name="Idotaccent" unicode="&#x130;" horiz-adv-x="323" 
d="M109 750h105v-750h-105v750zM224 847q0 -24 -14.5 -35.5t-47.5 -11.5t-48 10.5t-15 36.5q0 24 14.5 36t48.5 12q33 0 47.5 -12t14.5 -36z" />
    <glyph glyph-name="dotlessi" unicode="&#x131;" horiz-adv-x="312" 
d="M108 0v593l95 5v-598h-95z" />
    <glyph glyph-name="Jcircumflex" unicode="&#x134;" horiz-adv-x="550" 
d="M453 253q0 -137 -70 -202t-195 -65q-48 0 -85.5 11t-65.5 30l8 91q24 -18 56 -28t74 -10q83 0 128.5 42t45.5 132v496h104v-497zM446 914l116 -117h-90l-76 74l-75 -74h-88l112 117h101z" />
    <glyph glyph-name="jcircumflex" unicode="&#x135;" horiz-adv-x="310" 
d="M202 -9q0 -42 -11 -71t-30 -46t-45 -24.5t-56 -7.5q-18 0 -36.5 3.5t-32.5 8.5l5 70q10 -3 20.5 -5t21.5 -2q31 0 50.5 17.5t19.5 59.5v599l94 5v-607zM185 805l105 -143h-74l-72 103l-72 -103h-74l103 143h84z" />
    <glyph glyph-name="uni0136" unicode="&#x136;" horiz-adv-x="703" 
d="M549 0l-241 346h-109v-346h-102v750h102v-317h111l230 317h122l-259 -355l274 -395h-128zM357 -40q11 0 22 -2t19.5 -7t14 -13.5t5.5 -22.5q0 -11 -7 -24.5t-18.5 -29t-26 -31.5t-30.5 -30l-29 10l29 72q-38 7 -38 39q0 16 13.5 27.5t45.5 11.5z" />
    <glyph glyph-name="uni0137" unicode="&#x137;" horiz-adv-x="589" 
d="M183 361h91l176 235h111l-204 -272l212 -324h-111l-183 281h-92v-281h-94v789l94 6v-434zM302 -40q11 0 22 -2t19.5 -7t14 -13.5t5.5 -22.5q0 -11 -7 -24.5t-18.5 -29t-26 -31.5t-30.5 -30l-29 10l29 72q-38 7 -38 39q0 16 13.5 27.5t45.5 11.5z" />
    <glyph glyph-name="kgreenlandic" unicode="&#x138;" horiz-adv-x="589" 
d="M183 361h91l176 235h111l-204 -272l212 -324h-111l-183 281h-92v-281h-94v592l94 6v-237z" />
    <glyph glyph-name="Lacute" unicode="&#x139;" horiz-adv-x="573" 
d="M549 96l-3 -96h-449v750h103v-654h349zM378 914l-130 -117h-78l79 117h129z" />
    <glyph glyph-name="lacute" unicode="&#x13a;" horiz-adv-x="299" 
d="M102 0v789l95 6v-795h-95zM307 932l-130 -117h-78l79 117h129z" />
    <glyph glyph-name="uni013B" unicode="&#x13b;" horiz-adv-x="573" 
d="M549 96l-3 -96h-449v750h103v-654h349zM313 -40q11 0 22 -2t19.5 -7t14 -13.5t5.5 -22.5q0 -11 -7 -24.5t-18.5 -29t-26 -31.5t-30.5 -30l-29 10l29 72q-38 7 -38 39q0 16 13.5 27.5t45.5 11.5z" />
    <glyph glyph-name="uni013C" unicode="&#x13c;" horiz-adv-x="299" 
d="M102 0v789l95 6v-795h-95zM151 -40q11 0 22 -2t19.5 -7t14 -13.5t5.5 -22.5q0 -11 -7 -24.5t-18.5 -29t-26 -31.5t-30.5 -30l-29 10l29 72q-38 7 -38 39q0 16 13.5 27.5t45.5 11.5z" />
    <glyph glyph-name="Lcaron" unicode="&#x13d;" horiz-adv-x="573" 
d="M549 96l-3 -96h-449v750h103v-654h349zM403 760q27 0 39.5 -13t12.5 -35q0 -11 -6 -25t-16 -29.5t-23 -31.5t-26 -30l-24 11l26 73q-33 7 -33 39q0 17 11.5 29t38.5 12z" />
    <glyph glyph-name="lcaron" unicode="&#x13e;" horiz-adv-x="300" 
d="M103 0v789l95 6v-795h-95zM309 760q27 0 39.5 -13t12.5 -35q0 -11 -6 -25t-16 -29.5t-23 -31.5t-26 -30l-24 11l26 73q-33 7 -33 39q0 17 11.5 29t38.5 12z" />
    <glyph glyph-name="Ldot" unicode="&#x13f;" horiz-adv-x="573" 
d="M488 406q0 -58 -59 -58q-31 0 -45 13t-14 45q0 58 59 58t59 -58zM549 96l-3 -96h-449v750h103v-654h349z" />
    <glyph glyph-name="ldot" unicode="&#x140;" horiz-adv-x="372" 
d="M395 398q0 -26 -14 -41t-44 -15q-29 0 -43 12.5t-14 43.5q0 56 57 56q58 0 58 -56zM102 0v789l95 6v-795h-95z" />
    <glyph glyph-name="Lslash" unicode="&#x141;" horiz-adv-x="600" 
d="M575 96l-3 -96h-449v296l-77 -36l-7 85l84 39v366h103v-322l209 99l10 -88l-219 -101v-242h349z" />
    <glyph glyph-name="lslash" unicode="&#x142;" horiz-adv-x="358" 
d="M42 445l86 46v298l95 6v-263l93 50l1 -82l-94 -51v-449h-95v407l-84 -46z" />
    <glyph glyph-name="Nacute" unicode="&#x143;" horiz-adv-x="758" 
d="M588 0l-354 516l-44 68l-2 -1l1 -81v-502h-92v750h93l380 -567l2 1l-2 80v486h91v-750h-73zM532 914l-130 -117h-78l79 117h129z" />
    <glyph glyph-name="nacute" unicode="&#x144;" horiz-adv-x="620" 
d="M452 0v394q0 66 -34.5 95.5t-100.5 29.5q-19 0 -39 -4.5t-39 -13t-35 -21t-26 -28.5v-452h-95v594l68 5l16 -63h3q31 34 76.5 52.5t96.5 18.5q95 0 149 -53t54 -160v-394h-94zM434 805l-114 -143h-73l72 143h115z" />
    <glyph glyph-name="uni0145" unicode="&#x145;" horiz-adv-x="758" 
d="M588 0l-354 516l-44 68l-2 -1l1 -81v-502h-92v750h93l380 -567l2 1l-2 80v486h91v-750h-73zM379 -40q11 0 22 -2t19.5 -7t14 -13.5t5.5 -22.5q0 -11 -7 -24.5t-18.5 -29t-26 -31.5t-30.5 -30l-29 10l29 72q-38 7 -38 39q0 16 13.5 27.5t45.5 11.5z" />
    <glyph glyph-name="uni0146" unicode="&#x146;" horiz-adv-x="620" 
d="M452 0v394q0 66 -34.5 95.5t-100.5 29.5q-19 0 -39 -4.5t-39 -13t-35 -21t-26 -28.5v-452h-95v594l68 5l16 -63h3q31 34 76.5 52.5t96.5 18.5q95 0 149 -53t54 -160v-394h-94zM311 -40q11 0 22 -2t19.5 -7t14 -13.5t5.5 -22.5q0 -11 -7 -24.5t-18.5 -29t-26 -31.5
t-30.5 -30l-29 10l29 72q-38 7 -38 39q0 16 13.5 27.5t45.5 11.5z" />
    <glyph glyph-name="Ncaron" unicode="&#x147;" horiz-adv-x="758" 
d="M588 0l-354 516l-44 68l-2 -1l1 -81v-502h-92v750h93l380 -567l2 1l-2 80v486h91v-750h-73zM338 797l-114 117h90l75 -77l76 77h88l-114 -117h-101z" />
    <glyph glyph-name="ncaron" unicode="&#x148;" horiz-adv-x="620" 
d="M452 0v394q0 66 -34.5 95.5t-100.5 29.5q-19 0 -39 -4.5t-39 -13t-35 -21t-26 -28.5v-452h-95v594l68 5l16 -63h3q31 34 76.5 52.5t96.5 18.5q95 0 149 -53t54 -160v-394h-94zM265 662l-102 143h74l71 -104l71 104h76l-105 -143h-85z" />
    <glyph glyph-name="napostrophe" unicode="&#x149;" horiz-adv-x="636" 
d="M468 0v394q0 66 -34.5 95.5t-100.5 29.5q-19 0 -39 -4.5t-39 -13t-35 -21t-26 -28.5v-452h-95v594l68 5l16 -63h3q31 34 76.5 52.5t96.5 18.5q95 0 149 -53t54 -160v-394h-94zM76 787q27 0 39.5 -13t12.5 -35q0 -11 -6 -25t-16 -29.5t-23 -31.5t-26 -30l-24 11l26 73
q-33 7 -33 39q0 17 11.5 29t38.5 12z" />
    <glyph glyph-name="Eng" unicode="&#x14a;" horiz-adv-x="758" 
d="M661 59q0 -53 -11.5 -90t-32.5 -60.5t-50 -34.5t-65 -11q-32 0 -59.5 9t-46.5 23l7 66q16 -13 37.5 -20.5t41.5 -7.5q36 0 57 17.5t29 60.5l-335 516l-43 69l-2 -1l1 -81v-514h-92v750h93l338 -530l43 -68l2 1l-2 80l-1 517h91v-691z" />
    <glyph glyph-name="eng" unicode="&#x14b;" horiz-adv-x="620" 
d="M546 37q0 -79 -39 -119t-106 -40q-29 0 -55 7t-43 19l7 71q13 -11 31.5 -17t35.5 -6q31 0 52.5 16.5t23.5 51.5v374q0 66 -35 95.5t-101 29.5q-19 0 -39.5 -4.5t-39 -13t-34.5 -21t-27 -28.5v-452h-94v594l67 5l16 -63h3q32 34 77.5 52.5t96.5 18.5q95 0 149 -53t54 -160
v-357z" />
    <glyph glyph-name="Omacron" unicode="&#x14c;" horiz-adv-x="741" 
d="M681 375q0 -104 -17 -177.5t-54 -120.5t-96 -69t-143 -22q-83 0 -142 22t-96.5 69.5t-55 121t-17.5 176.5t17 176t54.5 120t96.5 69t143 22t143 -22t96 -69t54 -120t17 -176zM574 375q0 86 -11 142.5t-35 89.5t-63 46.5t-94 13.5t-93.5 -13.5t-63 -46.5t-35.5 -89.5
t-11 -142.5t11 -142.5t35.5 -90t63 -47t93.5 -13.5t93.5 13.5t63 47t35.5 90t11 142.5zM517 814h-284v52h284v-52z" />
    <glyph glyph-name="omacron" unicode="&#x14d;" horiz-adv-x="615" 
d="M565 296q0 -83 -15 -141.5t-46 -96t-79.5 -54.5t-115.5 -17q-68 0 -117 17t-80.5 54.5t-47 96t-15.5 141.5t15.5 141.5t47.5 96t81 55t116 17.5t115.5 -17.5t80 -55t46 -96t14.5 -141.5zM147 296q0 -64 9 -108t28.5 -71t50 -38.5t74.5 -11.5q43 0 73.5 12t49.5 39
t27.5 70.5t8.5 107.5t-8.5 108t-27.5 71t-49.5 38.5t-73.5 11.5q-44 0 -74.5 -11.5t-50 -38.5t-28.5 -71t-9 -108zM450 708h-283v63h283v-63z" />
    <glyph glyph-name="Obreve" unicode="&#x14e;" horiz-adv-x="741" 
d="M681 375q0 -104 -17 -177.5t-54 -120.5t-96 -69t-143 -22q-83 0 -142 22t-96.5 69.5t-55 121t-17.5 176.5t17 176t54.5 120t96.5 69t143 22t143 -22t96 -69t54 -120t17 -176zM574 375q0 86 -11 142.5t-35 89.5t-63 46.5t-94 13.5t-93.5 -13.5t-63 -46.5t-35.5 -89.5
t-11 -142.5t11 -142.5t35.5 -90t63 -47t93.5 -13.5t93.5 13.5t63 47t35.5 90t11 142.5zM526 914q0 -58 -37 -90t-117 -32q-81 0 -118.5 31t-37.5 91h71q0 -38 24.5 -53t60.5 -15t59.5 15t22.5 53h72z" />
    <glyph glyph-name="obreve" unicode="&#x14f;" horiz-adv-x="615" 
d="M565 296q0 -83 -15 -141.5t-46 -96t-79.5 -54.5t-115.5 -17q-68 0 -117 17t-80.5 54.5t-47 96t-15.5 141.5t15.5 141.5t47.5 96t81 55t116 17.5t115.5 -17.5t80 -55t46 -96t14.5 -141.5zM147 296q0 -64 9 -108t28.5 -71t50 -38.5t74.5 -11.5q43 0 73.5 12t49.5 39
t27.5 70.5t8.5 107.5t-8.5 108t-27.5 71t-49.5 38.5t-73.5 11.5q-44 0 -74.5 -11.5t-50 -38.5t-28.5 -71t-9 -108zM449 805q0 -71 -34 -111t-107 -40q-75 0 -108.5 39.5t-33.5 111.5h66q0 -51 21.5 -74t54.5 -23q32 0 53 23t20 74h68z" />
    <glyph glyph-name="Ohungarumlaut" unicode="&#x150;" horiz-adv-x="741" 
d="M681 375q0 -104 -17 -177.5t-54 -120.5t-96 -69t-143 -22q-83 0 -142 22t-96.5 69.5t-55 121t-17.5 176.5t17 176t54.5 120t96.5 69t143 22t143 -22t96 -69t54 -120t17 -176zM574 375q0 86 -11 142.5t-35 89.5t-63 46.5t-94 13.5t-93.5 -13.5t-63 -46.5t-35.5 -89.5
t-11 -142.5t11 -142.5t35.5 -90t63 -47t93.5 -13.5t93.5 13.5t63 47t35.5 90t11 142.5zM425 914l-99 -118h-64l59 118h104zM590 914l-119 -118h-72l85 118h106z" />
    <glyph glyph-name="ohungarumlaut" unicode="&#x151;" horiz-adv-x="615" 
d="M565 296q0 -83 -15 -141.5t-46 -96t-79.5 -54.5t-115.5 -17q-68 0 -117 17t-80.5 54.5t-47 96t-15.5 141.5t15.5 141.5t47.5 96t81 55t116 17.5t115.5 -17.5t80 -55t46 -96t14.5 -141.5zM147 296q0 -64 9 -108t28.5 -71t50 -38.5t74.5 -11.5q43 0 73.5 12t49.5 39
t27.5 70.5t8.5 107.5t-8.5 108t-27.5 71t-49.5 38.5t-73.5 11.5q-44 0 -74.5 -11.5t-50 -38.5t-28.5 -71t-9 -108zM371 805l-108 -143h-63l69 143h102zM532 805l-114 -143h-72l82 143h104z" />
    <glyph glyph-name="OE" unicode="&#x152;" horiz-adv-x="1096" 
d="M579 0v91l-3 1q-32 -55 -88.5 -80.5t-134.5 -25.5q-77 0 -132 22t-91 69.5t-53 121t-17 176.5t17 176t53 120t91.5 69t132.5 22q76 0 133 -23t89 -74h3v85h451l3 -94h-361v-223h309v-86h-309v-254h378l-3 -93h-468zM571 375q0 86 -10.5 142.5t-34 89.5t-62 46.5
t-93.5 13.5t-93.5 -13.5t-63 -46.5t-35.5 -89.5t-11 -142.5t11 -142.5t35.5 -90.5t63 -47.5t93.5 -13.5t93 13.5t62 47.5t34.5 90.5t10.5 142.5z" />
    <glyph glyph-name="oe" unicode="&#x153;" horiz-adv-x="1001" 
d="M752 -12q-90 0 -144 28t-81 90h-3q-26 -64 -79.5 -91.5t-135.5 -27.5q-65 0 -112.5 17t-79 54.5t-46.5 96t-15 141.5t15.5 141.5t46.5 96t78.5 55t112.5 17.5q82 0 134 -26t78 -82h3q52 108 198 108q52 0 94.5 -16t73 -50t47.5 -85.5t17 -123.5q0 -11 -0.5 -23.5
t-2.5 -22.5h-379q1 -59 13 -99.5t35.5 -65t58 -35.5t82.5 -11q45 0 84.5 10t77.5 29l12 -81q-38 -20 -84 -32t-99 -12zM153 296q0 -64 9 -108t29 -71t50.5 -38.5t74.5 -11.5q43 0 73 12t49 39t27.5 70.5t8.5 107.5t-8.5 108t-27.5 71t-49.5 38.5t-73.5 11.5
q-44 0 -74.5 -11.5t-50 -38.5t-28.5 -71t-9 -108zM867 350q0 47 -11.5 80t-31 54t-46.5 30.5t-58 9.5q-75 0 -110.5 -42.5t-40.5 -131.5h298z" />
    <glyph glyph-name="Racute" unicode="&#x154;" horiz-adv-x="662" 
d="M592 536q0 -87 -37.5 -138t-109.5 -63l196 -335h-122l-169 316h-151v-316h-102v750h254q124 0 182.5 -52.5t58.5 -161.5zM486 532q0 71 -32 100t-103 29h-152v-264h148q72 0 105.5 30.5t33.5 104.5zM456 914l-130 -117h-78l79 117h129z" />
    <glyph glyph-name="racute" unicode="&#x155;" horiz-adv-x="445" 
d="M83 0v592l76 5l8 -128h2q28 65 75 100.5t108 35.5q33 0 59 -8l-6 -96q-14 5 -28.5 6.5t-30.5 1.5q-35 0 -65.5 -14.5t-53.5 -41t-36 -65t-13 -86.5v-302h-95zM349 805l-114 -143h-73l72 143h115z" />
    <glyph glyph-name="uni0156" unicode="&#x156;" horiz-adv-x="662" 
d="M592 536q0 -87 -37.5 -138t-109.5 -63l196 -335h-122l-169 316h-151v-316h-102v750h254q124 0 182.5 -52.5t58.5 -161.5zM486 532q0 71 -32 100t-103 29h-152v-264h148q72 0 105.5 30.5t33.5 104.5zM335 -40q11 0 22 -2t19.5 -7t14 -13.5t5.5 -22.5q0 -11 -7 -24.5
t-18.5 -29t-26 -31.5t-30.5 -30l-29 10l29 72q-38 7 -38 39q0 16 13.5 27.5t45.5 11.5z" />
    <glyph glyph-name="uni0157" unicode="&#x157;" horiz-adv-x="445" 
d="M83 0v592l76 5l8 -128h2q28 65 75 100.5t108 35.5q33 0 59 -8l-6 -96q-14 5 -28.5 6.5t-30.5 1.5q-35 0 -65.5 -14.5t-53.5 -41t-36 -65t-13 -86.5v-302h-95zM131 -40q11 0 22 -2t19.5 -7t14 -13.5t5.5 -22.5q0 -11 -7 -24.5t-18.5 -29t-26 -31.5t-30.5 -30l-29 10l29 72
q-38 7 -38 39q0 16 13.5 27.5t45.5 11.5z" />
    <glyph glyph-name="Rcaron" unicode="&#x158;" horiz-adv-x="662" 
d="M592 536q0 -87 -37.5 -138t-109.5 -63l196 -335h-122l-169 316h-151v-316h-102v750h254q124 0 182.5 -52.5t58.5 -161.5zM486 532q0 71 -32 100t-103 29h-152v-264h148q72 0 105.5 30.5t33.5 104.5zM262 797l-114 117h90l75 -77l76 77h88l-114 -117h-101z" />
    <glyph glyph-name="rcaron" unicode="&#x159;" horiz-adv-x="445" 
d="M83 0v592l76 5l8 -128h2q28 65 75 100.5t108 35.5q33 0 59 -8l-6 -96q-14 5 -28.5 6.5t-30.5 1.5q-35 0 -65.5 -14.5t-53.5 -41t-36 -65t-13 -86.5v-302h-95zM194 662l-102 143h74l71 -104l71 104h76l-105 -143h-85z" />
    <glyph glyph-name="Sacute" unicode="&#x15a;" horiz-adv-x="568" 
d="M527 214q0 -106 -65.5 -167t-190.5 -61q-65 0 -120 15.5t-100 41.5l16 93q46 -28 95.5 -42.5t107.5 -14.5q80 0 119 34t39 94q0 42 -27.5 67t-68.5 42.5t-89.5 33.5t-89.5 40t-68.5 62t-27.5 100q0 44 14.5 82.5t45 67t77 44.5t110.5 16q55 0 106 -10t92 -30l-14 -89
q-45 17 -88 26.5t-91 9.5q-42 0 -71.5 -9t-47.5 -24.5t-26 -35.5t-8 -42q0 -41 27.5 -64.5t68.5 -40t89.5 -32t89.5 -40t68.5 -64t27.5 -103.5zM441 914l-130 -117h-78l79 117h129z" />
    <glyph glyph-name="sacute" unicode="&#x15b;" horiz-adv-x="493" 
d="M449 175q0 -84 -50 -135.5t-160 -51.5q-54 0 -101 12.5t-82 37.5l12 82q34 -26 80.5 -39t89.5 -13q66 0 94.5 28t28.5 70q0 34 -22.5 53.5t-56.5 33t-73.5 25.5t-73.5 31t-56.5 49.5t-22.5 80.5q0 76 52.5 121.5t155.5 45.5q87 0 161 -34l-8 -80q-38 16 -78.5 24t-76.5 8
q-54 0 -85 -21.5t-31 -58.5q0 -32 22.5 -49.5t56 -30.5t73 -24.5t73 -30.5t56 -50.5t22.5 -83.5zM382 805l-114 -143h-73l72 143h115z" />
    <glyph glyph-name="Scircumflex" unicode="&#x15c;" horiz-adv-x="568" 
d="M527 214q0 -106 -65.5 -167t-190.5 -61q-65 0 -120 15.5t-100 41.5l16 93q46 -28 95.5 -42.5t107.5 -14.5q80 0 119 34t39 94q0 42 -27.5 67t-68.5 42.5t-89.5 33.5t-89.5 40t-68.5 62t-27.5 100q0 44 14.5 82.5t45 67t77 44.5t110.5 16q55 0 106 -10t92 -30l-14 -89
q-45 17 -88 26.5t-91 9.5q-42 0 -71.5 -9t-47.5 -24.5t-26 -35.5t-8 -42q0 -41 27.5 -64.5t68.5 -40t89.5 -32t89.5 -40t68.5 -64t27.5 -103.5zM352 914l116 -117h-90l-76 74l-75 -74h-88l112 117h101z" />
    <glyph glyph-name="scircumflex" unicode="&#x15d;" horiz-adv-x="493" 
d="M449 175q0 -84 -50 -135.5t-160 -51.5q-54 0 -101 12.5t-82 37.5l12 82q34 -26 80.5 -39t89.5 -13q66 0 94.5 28t28.5 70q0 34 -22.5 53.5t-56.5 33t-73.5 25.5t-73.5 31t-56.5 49.5t-22.5 80.5q0 76 52.5 121.5t155.5 45.5q87 0 161 -34l-8 -80q-38 16 -78.5 24t-76.5 8
q-54 0 -85 -21.5t-31 -58.5q0 -32 22.5 -49.5t56 -30.5t73 -24.5t73 -30.5t56 -50.5t22.5 -83.5zM298 805l105 -143h-74l-72 103l-72 -103h-74l103 143h84z" />
    <glyph glyph-name="Scedilla" unicode="&#x15e;" horiz-adv-x="568" 
d="M249 -13q-58 2 -107 17t-91 39l16 93q46 -28 95.5 -42.5t107.5 -14.5q80 0 119 34t39 94q0 42 -27.5 67t-68.5 42.5t-89.5 33.5t-89.5 40t-68.5 62t-27.5 100q0 44 14.5 82.5t45 67t77 44.5t110.5 16q55 0 106 -10t92 -30l-14 -89q-45 17 -88 26.5t-91 9.5
q-42 0 -71.5 -9t-47.5 -24.5t-26 -35.5t-8 -42q0 -41 27.5 -64.5t68.5 -40t89.5 -32t89.5 -40t68.5 -64t27.5 -103.5q0 -97 -54.5 -155.5t-157.5 -69.5l-33 -180h-90z" />
    <glyph glyph-name="scedilla" unicode="&#x15f;" horiz-adv-x="493" 
d="M215 -11q-47 2 -87.5 14t-71.5 35l12 82q34 -26 80.5 -39t89.5 -13q66 0 94.5 28t28.5 70q0 34 -22.5 53.5t-56.5 33t-73.5 25.5t-73.5 31t-56.5 49.5t-22.5 80.5q0 76 52.5 121.5t155.5 45.5q87 0 161 -34l-8 -80q-38 16 -78.5 24t-76.5 8q-54 0 -85 -21.5t-31 -58.5
q0 -32 22.5 -49.5t56 -30.5t73 -24.5t73 -30.5t56 -50.5t22.5 -83.5q0 -76 -39.5 -125.5t-127.5 -59.5l-34 -181h-90z" />
    <glyph glyph-name="Scaron" unicode="&#x160;" horiz-adv-x="568" 
d="M527 214q0 -106 -65.5 -167t-190.5 -61q-65 0 -120 15.5t-100 41.5l16 93q46 -28 95.5 -42.5t107.5 -14.5q80 0 119 34t39 94q0 42 -27.5 67t-68.5 42.5t-89.5 33.5t-89.5 40t-68.5 62t-27.5 100q0 44 14.5 82.5t45 67t77 44.5t110.5 16q55 0 106 -10t92 -30l-14 -89
q-45 17 -88 26.5t-91 9.5q-42 0 -71.5 -9t-47.5 -24.5t-26 -35.5t-8 -42q0 -41 27.5 -64.5t68.5 -40t89.5 -32t89.5 -40t68.5 -64t27.5 -103.5zM256 797l-114 117h90l75 -77l76 77h88l-114 -117h-101z" />
    <glyph glyph-name="scaron" unicode="&#x161;" horiz-adv-x="493" 
d="M449 175q0 -84 -50 -135.5t-160 -51.5q-54 0 -101 12.5t-82 37.5l12 82q34 -26 80.5 -39t89.5 -13q66 0 94.5 28t28.5 70q0 34 -22.5 53.5t-56.5 33t-73.5 25.5t-73.5 31t-56.5 49.5t-22.5 80.5q0 76 52.5 121.5t155.5 45.5q87 0 161 -34l-8 -80q-38 16 -78.5 24t-76.5 8
q-54 0 -85 -21.5t-31 -58.5q0 -32 22.5 -49.5t56 -30.5t73 -24.5t73 -30.5t56 -50.5t22.5 -83.5zM214 662l-102 143h74l71 -104l71 104h76l-105 -143h-85z" />
    <glyph glyph-name="uni0162" unicode="&#x162;" horiz-adv-x="583" 
d="M258 0h-19v654h-223l3 96h545l2 -96h-223v-654h-20l-36 -191h-90z" />
    <glyph glyph-name="uni0163" unicode="&#x163;" horiz-adv-x="392" 
d="M240 -8q-62 8 -93 48.5t-31 112.5v369h-83v74h86l18 148l74 8v-156h147v-74h-147v-366q0 -47 23 -67t64 -20q13 0 27 2t23 6l6 -72q-9 -4 -21.5 -7.5t-26.5 -5.5l-34 -183h-90z" />
    <glyph glyph-name="Tcaron" unicode="&#x164;" horiz-adv-x="583" 
d="M343 654v-654h-104v654h-223l3 96h545l2 -96h-223zM241 797l-114 117h90l75 -77l76 77h88l-114 -117h-101z" />
    <glyph glyph-name="tcaron" unicode="&#x165;" horiz-adv-x="392" 
d="M211 522v-366q0 -47 23 -67t64 -20q13 0 27 2t23 6l6 -72q-14 -7 -36.5 -11t-46.5 -4q-77 0 -116 41.5t-39 121.5v369h-83v74h86l18 148l74 8v-156h147v-74h-147zM348 787q27 0 39.5 -13t12.5 -35q0 -11 -6 -25t-16 -29.5t-23 -31.5t-26 -30l-24 11l26 73q-33 7 -33 39
q0 17 11.5 29t38.5 12z" />
    <glyph glyph-name="Tbar" unicode="&#x166;" horiz-adv-x="583" 
d="M343 654v-163h141v-69h-141v-422h-104v422h-140v69h140v163h-223l3 96h545l2 -96h-223z" />
    <glyph glyph-name="tbar" unicode="&#x167;" horiz-adv-x="392" 
d="M211 522v-86h148v-72h-148v-208q0 -47 23 -67t64 -20q13 0 27 2t23 6l6 -72q-14 -7 -36.5 -11t-46.5 -4q-77 0 -116 41.5t-39 121.5v211h-82v72h82v86h-83v74h86l18 148l74 8v-156h147v-74h-147z" />
    <glyph glyph-name="Utilde" unicode="&#x168;" horiz-adv-x="736" 
d="M653 270q0 -148 -74 -216t-211 -68t-211.5 68t-74.5 216v480h102v-479q0 -99 45 -143.5t139 -44.5t138.5 45t44.5 143v479h102v-480zM218 804q5 47 27 76.5t60 29.5q22 0 40 -9.5t33.5 -20.5t29.5 -20.5t28 -9.5q30 0 40 47l43 -1q-4 -48 -26.5 -77t-60.5 -29
q-21 0 -39 9.5t-33 20.5t-29 20.5t-28 9.5q-15 0 -25 -13t-15 -34z" />
    <glyph glyph-name="utilde" unicode="&#x169;" horiz-adv-x="611" 
d="M537 196q0 -100 -57 -153.5t-175 -53.5t-174.5 54t-56.5 153v400h94v-398q0 -122 138 -122q137 0 137 122v398h94v-400zM157 683q4 52 27 84.5t60 32.5q23 0 40 -10.5t31.5 -22.5t28 -22.5t29.5 -10.5q30 0 42 55l46 -1q-4 -54 -27.5 -85.5t-60.5 -31.5q-22 0 -39 10.5
t-31.5 22.5t-28.5 22.5t-29 10.5q-14 0 -25.5 -15t-16.5 -40z" />
    <glyph glyph-name="Umacron" unicode="&#x16a;" horiz-adv-x="736" 
d="M653 270q0 -148 -74 -216t-211 -68t-211.5 68t-74.5 216v480h102v-479q0 -99 45 -143.5t139 -44.5t138.5 45t44.5 143v479h102v-480zM513 814h-284v52h284v-52z" />
    <glyph glyph-name="umacron" unicode="&#x16b;" horiz-adv-x="611" 
d="M537 196q0 -100 -57 -153.5t-175 -53.5t-174.5 54t-56.5 153v400h94v-398q0 -122 138 -122q137 0 137 122v398h94v-400zM448 708h-283v63h283v-63z" />
    <glyph glyph-name="Ubreve" unicode="&#x16c;" horiz-adv-x="736" 
d="M653 270q0 -148 -74 -216t-211 -68t-211.5 68t-74.5 216v480h102v-479q0 -99 45 -143.5t139 -44.5t138.5 45t44.5 143v479h102v-480zM522 914q0 -58 -37 -90t-117 -32q-81 0 -118.5 31t-37.5 91h71q0 -38 24.5 -53t60.5 -15t59.5 15t22.5 53h72z" />
    <glyph glyph-name="ubreve" unicode="&#x16d;" horiz-adv-x="611" 
d="M537 196q0 -100 -57 -153.5t-175 -53.5t-174.5 54t-56.5 153v400h94v-398q0 -122 138 -122q137 0 137 122v398h94v-400zM448 805q0 -71 -34 -111t-107 -40q-75 0 -108.5 39.5t-33.5 111.5h66q0 -51 21.5 -74t54.5 -23q32 0 53 23t20 74h68z" />
    <glyph glyph-name="Uring" unicode="&#x16e;" horiz-adv-x="736" 
d="M653 270q0 -148 -74 -216t-211 -68t-211.5 68t-74.5 216v480h102v-479q0 -99 45 -143.5t139 -44.5t138.5 45t44.5 143v479h102v-480zM269 797q0 37 23.5 60t75.5 23q51 0 75.5 -23t24.5 -59q0 -83 -100 -83q-99 0 -99 82zM321 795q0 -17 11 -27.5t37 -10.5q48 0 48 38
q0 17 -11 27.5t-37 10.5t-37 -10.5t-11 -27.5z" />
    <glyph glyph-name="uring" unicode="&#x16f;" horiz-adv-x="611" 
d="M537 196q0 -100 -57 -153.5t-175 -53.5t-174.5 54t-56.5 153v400h94v-398q0 -122 138 -122q137 0 137 122v398h94v-400zM209 744q0 37 25 59t76 22q50 0 76 -23t26 -58q0 -38 -25.5 -59t-76.5 -21q-48 0 -74.5 20t-26.5 60zM258 744q0 -18 12.5 -29.5t40.5 -11.5
q26 0 40 11t14 30q0 18 -13.5 29.5t-40.5 11.5q-28 0 -40.5 -11.5t-12.5 -29.5z" />
    <glyph glyph-name="Uhungarumlaut" unicode="&#x170;" horiz-adv-x="736" 
d="M653 270q0 -148 -74 -216t-211 -68t-211.5 68t-74.5 216v480h102v-479q0 -99 45 -143.5t139 -44.5t138.5 45t44.5 143v479h102v-480zM416 914l-99 -118h-64l59 118h104zM581 914l-119 -118h-72l85 118h106z" />
    <glyph glyph-name="uhungarumlaut" unicode="&#x171;" horiz-adv-x="611" 
d="M537 196q0 -100 -57 -153.5t-175 -53.5t-174.5 54t-56.5 153v400h94v-398q0 -122 138 -122q137 0 137 122v398h94v-400zM359 805l-108 -143h-63l69 143h102zM520 805l-114 -143h-72l82 143h104z" />
    <glyph glyph-name="Uogonek" unicode="&#x172;" horiz-adv-x="736" 
d="M446 -182q-57 0 -81 24.5t-24 58.5q0 51 42 85h-15q-137 0 -211.5 68t-74.5 216v480h102v-479q0 -99 45 -143.5t139 -44.5t138.5 45t44.5 143v479h102v-480q0 -119 -47 -185.5t-138 -87.5q-28 -13 -41 -32t-13 -42q0 -20 13 -32t44 -12q32 0 60 14l8 -52
q-20 -11 -42.5 -17t-50.5 -6z" />
    <glyph glyph-name="uogonek" unicode="&#x173;" horiz-adv-x="611" 
d="M366 -182q-57 0 -81 24.5t-24 58.5q0 54 45 88h-1q-118 0 -174.5 54t-56.5 153v400h94v-398q0 -122 138 -122q137 0 137 122v398h94v-400q0 -79 -35.5 -129t-108.5 -68q-30 -13 -44.5 -33t-14.5 -43q0 -20 13 -32t44 -12q32 0 60 14l8 -52q-20 -11 -42.5 -17t-50.5 -6z
" />
    <glyph glyph-name="Wcircumflex" unicode="&#x174;" horiz-adv-x="1010" 
d="M564 750l137 -571l18 -79h3l15 79l123 571h102l-181 -750h-125l-133 571l-16 80h-3l-17 -80l-132 -571h-125l-182 750h107l123 -574l16 -79h3l17 79l136 574h114zM553 914l116 -117h-90l-76 74l-75 -74h-88l112 117h101z" />
    <glyph glyph-name="wcircumflex" unicode="&#x175;" horiz-adv-x="872" 
d="M489 596l109 -444l18 -79h3l15 79l94 444h93l-144 -596h-118l-100 419l-17 80h-3l-18 -80l-103 -419h-116l-151 596h95l99 -441l16 -79h3l17 79l107 441h101zM474 805l105 -143h-74l-72 103l-72 -103h-74l103 143h84z" />
    <glyph glyph-name="Ycircumflex" unicode="&#x176;" horiz-adv-x="671" 
d="M139 750l163 -329l35 -73h3l33 73l163 329h113l-260 -496v-254h-104v254l-264 496h118zM388 914l116 -117h-90l-76 74l-75 -74h-88l112 117h101z" />
    <glyph glyph-name="ycircumflex" unicode="&#x177;" horiz-adv-x="638" 
d="M187 -86q35 0 59.5 16t44.5 60l3 10l-261 596h110l170 -433l28 -75h3l22 77l137 431h102l-217 -603q-30 -82 -74.5 -117.5t-110.5 -35.5q-51 0 -92 19l9 71q33 -16 67 -16zM370 805l105 -143h-74l-72 103l-72 -103h-74l103 143h84z" />
    <glyph glyph-name="Ydieresis" unicode="&#x178;" horiz-adv-x="671" 
d="M139 750l163 -329l35 -73h3l33 73l163 329h113l-260 -496v-254h-104v254l-264 496h118zM288 848q0 -46 -46 -46q-23 0 -34.5 10t-11.5 36q0 46 46 46t46 -46zM480 848q0 -46 -46 -46q-23 0 -34.5 10t-11.5 36q0 46 46 46t46 -46z" />
    <glyph glyph-name="Zacute" unicode="&#x179;" horiz-adv-x="617" 
d="M48 0v69l346 518l45 65l-1 2h-379l4 96h500v-78l-342 -511l-45 -63l1 -3h388l-3 -95h-514zM466 914l-130 -117h-78l79 117h129z" />
    <glyph glyph-name="zacute" unicode="&#x17a;" horiz-adv-x="542" 
d="M217 148l-47 -63l1 -3h316l-3 -82h-424v68l265 380l47 64l-1 2h-300l3 82h407v-69zM403 805l-114 -143h-73l72 143h115z" />
    <glyph glyph-name="Zdotaccent" unicode="&#x17b;" horiz-adv-x="617" 
d="M48 0v69l346 518l45 65l-1 2h-379l4 96h500v-78l-342 -511l-45 -63l1 -3h388l-3 -95h-514zM381 847q0 -24 -14.5 -35.5t-47.5 -11.5t-48 10.5t-15 36.5q0 24 14.5 36t48.5 12q33 0 47.5 -12t14.5 -36z" />
    <glyph glyph-name="zdotaccent" unicode="&#x17c;" horiz-adv-x="542" 
d="M217 148l-47 -63l1 -3h316l-3 -82h-424v68l265 380l47 64l-1 2h-300l3 82h407v-69zM340 749q0 -52 -62 -52q-31 0 -46.5 11.5t-15.5 40.5q0 51 62 51t62 -51z" />
    <glyph glyph-name="Zcaron" unicode="&#x17d;" horiz-adv-x="617" 
d="M48 0v69l346 518l45 65l-1 2h-379l4 96h500v-78l-342 -511l-45 -63l1 -3h388l-3 -95h-514zM261 797l-114 117h90l75 -77l76 77h88l-114 -117h-101z" />
    <glyph glyph-name="zcaron" unicode="&#x17e;" horiz-adv-x="542" 
d="M217 148l-47 -63l1 -3h316l-3 -82h-424v68l265 380l47 64l-1 2h-300l3 82h407v-69zM235 662l-102 143h74l71 -104l71 104h76l-105 -143h-85z" />
    <glyph glyph-name="longs" unicode="&#x17f;" horiz-adv-x="307" 
d="M23 591h82q1 58 14 99t42 66t75.5 36.5t114.5 11.5l5 -69q-37 0 -65.5 -5t-48 -21t-29.5 -44.5t-10 -74.5v-496q0 -63 -14.5 -107.5t-43 -74t-69.5 -45t-94 -21.5l-7 67q34 6 59 17.5t41 32t23.5 52t7.5 78.5v431h-86z" />
    <glyph glyph-name="uni018F" unicode="&#x18f;" horiz-adv-x="742" 
d="M60 389q0 16 1 30h510q-3 71 -17.5 119t-42.5 77.5t-72 42t-105 12.5q-64 0 -119 -10.5t-93 -27.5l-14 87q44 19 104.5 31t135.5 12q82 0 144 -21t103.5 -67.5t62.5 -120.5t21 -180q0 -101 -17 -174t-54 -120t-96 -69.5t-143 -22.5q-78 0 -136 19t-96.5 63t-57.5 115
t-19 175v30zM370 81q54 0 91.5 13t61 42.5t35 77.5t13.5 119h-403v-10q0 -70 11.5 -116.5t35.5 -74.5t62.5 -39.5t92.5 -11.5z" />
    <glyph glyph-name="florin" unicode="&#x192;" horiz-adv-x="409" 
d="M-5 -148l145 668h-63l15 76h63l10 50q14 63 59.5 100.5t124.5 37.5q23 0 45 -4t37 -9l-20 -65q-12 4 -27.5 6.5t-29.5 2.5q-41 0 -65.5 -20t-30.5 -55l-8 -44h142l-16 -76h-142l-145 -668h-94z" />
    <glyph glyph-name="uni01B5" unicode="&#x1b5;" horiz-adv-x="618" 
d="M93 421h190l111 166l45 65l-1 2h-379l4 96h500v-78l-168 -251h150l-4 -61h-187l-133 -199l-45 -63l1 -3h388l-3 -95h-514v69l194 291h-153z" />
    <glyph glyph-name="uni01B6" unicode="&#x1b6;" horiz-adv-x="542" 
d="M346 334h108l-3 -56h-144l-90 -130l-47 -63l1 -3h316l-3 -82h-424v68l146 210h-106l4 56h141l80 114l47 64l-1 2h-300l3 82h407v-69z" />
    <glyph glyph-name="Aringacute" unicode="&#x1fa;" horiz-adv-x="711" 
d="M254 804q0 36 23 59t74 24l44 65h129l-97 -88q26 -21 26 -59q0 -47 -33 -68l273 -737h-115l-60 179h-330l-60 -179h-110l270 735q-34 19 -34 69zM329 597l-111 -329h271l-109 329l-23 78h-3zM306 802q0 -17 11 -27.5t37 -10.5q48 0 48 38q0 17 -11 27.5t-37 10.5
t-37 -10.5t-11 -27.5z" />
    <glyph glyph-name="aringacute" unicode="&#x1fb;" horiz-adv-x="573" 
d="M418 73l-3 1q-26 -38 -72.5 -60.5t-104.5 -22.5q-41 0 -74.5 11t-57.5 34t-37.5 59.5t-13.5 86.5q0 85 53.5 133t160.5 48q38 0 73.5 -6.5t63.5 -16.5v59q0 71 -33 99t-106 28q-48 0 -87.5 -8.5t-79.5 -27.5l-9 79q85 39 192 39q59 0 100 -13t67 -40t37.5 -69t11.5 -101
v-385h-72zM405 272q-11 7 -42.5 14.5t-76.5 7.5q-75 0 -108.5 -28.5t-33.5 -82.5q0 -32 9 -53.5t25 -35t38 -19.5t48 -6q28 0 53.5 8.5t45 22.5t31 32t11.5 37v103zM458 931l-100 -126q30 -21 30 -61q0 -38 -25.5 -59t-76.5 -21q-48 0 -74.5 20t-26.5 60q0 37 25 59t76 22h3
l54 106h115zM234 744q0 -18 12.5 -29.5t40.5 -11.5q26 0 40 11t14 30q0 18 -13.5 29.5t-40.5 11.5q-28 0 -40.5 -11.5t-12.5 -29.5z" />
    <glyph glyph-name="AEacute" unicode="&#x1fc;" horiz-adv-x="1055" 
d="M620 656l23 -223h297v-86h-289l25 -254h333l-3 -93h-424l-17 180h-307l-93 -180h-122l417 750h535l3 -94h-378zM480 608l-176 -340h252l-31 331l-6 81l-3 1zM827 914l-130 -117h-78l79 117h129z" />
    <glyph glyph-name="aeacute" unicode="&#x1fd;" horiz-adv-x="924" 
d="M283 606q72 0 115 -20.5t64 -64.5q31 42 77 63.5t109 21.5q50 0 92 -16t72 -50t47 -85.5t17 -123.5q0 -11 -0.5 -23.5t-1.5 -22.5h-381q2 -59 14.5 -99.5t35.5 -65t58 -35.5t83 -11q45 0 84.5 10t77.5 29l11 -81q-38 -20 -84 -32t-101 -12q-88 0 -142.5 28.5t-81.5 82.5
h-3q-26 -52 -77.5 -81t-120.5 -29q-44 0 -79.5 11t-60.5 34t-38.5 59.5t-13.5 86.5q0 85 53.5 132.5t160.5 47.5q40 0 74.5 -7t62.5 -18v62q0 71 -33 99t-106 28q-48 0 -87.5 -8.5t-79.5 -27.5l-9 79q87 39 192 39zM405 270q-11 7 -42.5 14.5t-76.5 7.5q-75 0 -109 -28.5
t-34 -82.5q0 -32 9 -53.5t25.5 -35t38.5 -19.5t48 -6q30 0 56 9t45 24.5t29.5 37.5t10.5 48v84zM790 350q-1 47 -12 80t-30.5 54t-46 30.5t-58.5 9.5q-75 0 -110.5 -42.5t-40.5 -131.5h298zM595 805l-114 -143h-73l72 143h115z" />
    <glyph glyph-name="Oslashacute" unicode="&#x1fe;" horiz-adv-x="741" 
d="M529 914l-130 -117h-78l79 117h129zM50 33l60 78q-26 47 -38 112t-12 152q0 103 17 176t54.5 120t96.5 69t143 22q151 0 225 -75l62 74l50 -48l-70 -87q23 -46 33 -108t10 -143q0 -104 -17 -177.5t-54 -120.5t-96 -69t-143 -22q-73 0 -126.5 16.5t-91.5 51.5l-53 -69z
M167 375q0 -59 4.5 -103.5t15.5 -77.5l343 410q-24 35 -63 49t-96 14q-55 0 -94 -13.5t-63.5 -46.5t-35.5 -89.5t-11 -142.5zM574 375q0 105 -15 170l-342 -407q25 -31 62.5 -43.5t91.5 -12.5q55 0 93.5 13.5t63 47t35.5 90t11 142.5z" />
    <glyph glyph-name="oslashacute" unicode="&#x1ff;" horiz-adv-x="615" 
d="M40 35l47 59q-38 72 -38 202q0 83 15.5 141.5t47.5 96t80.5 55t115.5 17.5q110 0 171 -49l39 50l41 -39l-41 -54q47 -73 47 -218q0 -83 -15 -141.5t-46 -96t-80 -54.5t-116 -17q-62 0 -107.5 14t-77.5 45l-42 -51zM467 296q0 44 -4 78t-11 60l-275 -308
q20 -32 51.5 -45.5t79.5 -13.5q43 0 73.5 12t49.5 39t27.5 70.5t8.5 107.5zM146 296q0 -36 2.5 -65.5t7.5 -52.5l270 302q-19 24 -48 34.5t-70 10.5q-44 0 -74.5 -11.5t-50 -38.5t-28.5 -71t-9 -108zM446 805l-114 -143h-73l72 143h115z" />
    <glyph glyph-name="uni0218" unicode="&#x218;" horiz-adv-x="568" 
d="M527 214q0 -106 -65.5 -167t-190.5 -61q-65 0 -120 15.5t-100 41.5l16 93q46 -28 95.5 -42.5t107.5 -14.5q80 0 119 34t39 94q0 42 -27.5 67t-68.5 42.5t-89.5 33.5t-89.5 40t-68.5 62t-27.5 100q0 44 14.5 82.5t45 67t77 44.5t110.5 16q55 0 106 -10t92 -30l-14 -89
q-45 17 -88 26.5t-91 9.5q-42 0 -71.5 -9t-47.5 -24.5t-26 -35.5t-8 -42q0 -41 27.5 -64.5t68.5 -40t89.5 -32t89.5 -40t68.5 -64t27.5 -103.5zM285 -40q11 0 22 -2t19.5 -7t14 -13.5t5.5 -22.5q0 -11 -7 -24.5t-18.5 -29t-26 -31.5t-30.5 -30l-29 10l29 72q-38 7 -38 39
q0 16 13.5 27.5t45.5 11.5z" />
    <glyph glyph-name="uni0219" unicode="&#x219;" horiz-adv-x="493" 
d="M449 175q0 -84 -50 -135.5t-160 -51.5q-54 0 -101 12.5t-82 37.5l12 82q34 -26 80.5 -39t89.5 -13q66 0 94.5 28t28.5 70q0 34 -22.5 53.5t-56.5 33t-73.5 25.5t-73.5 31t-56.5 49.5t-22.5 80.5q0 76 52.5 121.5t155.5 45.5q87 0 161 -34l-8 -80q-38 16 -78.5 24t-76.5 8
q-54 0 -85 -21.5t-31 -58.5q0 -32 22.5 -49.5t56 -30.5t73 -24.5t73 -30.5t56 -50.5t22.5 -83.5zM251 -40q11 0 22 -2t19.5 -7t14 -13.5t5.5 -22.5q0 -11 -7 -24.5t-18.5 -29t-26 -31.5t-30.5 -30l-29 10l29 72q-38 7 -38 39q0 16 13.5 27.5t45.5 11.5z" />
    <glyph glyph-name="uni021A" unicode="&#x21a;" horiz-adv-x="583" 
d="M343 654v-654h-104v654h-223l3 96h545l2 -96h-223zM289 -40q11 0 22 -2t19.5 -7t14 -13.5t5.5 -22.5q0 -11 -7 -24.5t-18.5 -29t-26 -31.5t-30.5 -30l-29 10l29 72q-38 7 -38 39q0 16 13.5 27.5t45.5 11.5z" />
    <glyph glyph-name="uni021B" unicode="&#x21b;" horiz-adv-x="392" 
d="M211 522v-366q0 -47 23 -67t64 -20q13 0 27 2t23 6l6 -72q-14 -7 -36.5 -11t-46.5 -4q-77 0 -116 41.5t-39 121.5v369h-83v74h86l18 148l74 8v-156h147v-74h-147zM234 -40q11 0 22 -2t19.5 -7t14 -13.5t5.5 -22.5q0 -11 -7 -24.5t-18.5 -29t-26 -31.5t-30.5 -30l-29 10
l29 72q-38 7 -38 39q0 16 13.5 27.5t45.5 11.5z" />
    <glyph glyph-name="uni0237" unicode="&#x237;" horiz-adv-x="310" 
d="M202 -9q0 -42 -11 -71t-30 -46t-45 -24.5t-56 -7.5q-18 0 -36.5 3.5t-32.5 8.5l5 70q10 -3 20.5 -5t21.5 -2q31 0 50.5 17.5t19.5 59.5v599l94 5v-607z" />
    <glyph glyph-name="uni0259" unicode="&#x259;" horiz-adv-x="578" 
d="M253 606q147 0 212 -79.5t65 -246.5q0 -141 -61 -216.5t-185 -75.5q-53 0 -96.5 16t-74.5 50t-47.5 85.5t-16.5 123.5q0 11 0.5 23.5t1.5 22.5h382q-2 59 -14 99.5t-35.5 65t-58.5 35.5t-83 11q-45 0 -84.5 -9.5t-77.5 -28.5l-11 80q38 20 84 32t100 12zM136 244
q1 -47 12 -80t30 -54t46 -30.5t59 -9.5q76 0 111.5 42.5t40.5 131.5h-299z" />
    <glyph glyph-name="uni02BB" unicode="&#x2bb;" horiz-adv-x="233" 
d="M118 571q-33 0 -47.5 18t-14.5 48q0 15 6.5 38.5t17 49.5t23.5 52t25 46l35 -9l-26 -123q16 -5 28 -20.5t12 -35.5q0 -28 -13.5 -46t-45.5 -18z" />
    <glyph glyph-name="uni02BC" unicode="&#x2bc;" horiz-adv-x="233" 
d="M116 792q32 0 47 -17.5t15 -48.5q0 -15 -7 -38.5t-17.5 -49.5t-23.5 -52.5t-25 -45.5l-34 9l26 123q-17 5 -29 20.5t-12 35.5q0 28 14 46t46 18z" />
    <glyph glyph-name="circumflex" unicode="&#x2c6;" 
d="M241 805l105 -143h-74l-72 103l-72 -103h-74l103 143h84z" />
    <glyph glyph-name="caron" unicode="&#x2c7;" 
d="M157 662l-102 143h74l71 -104l71 104h76l-105 -143h-85z" />
    <glyph glyph-name="breve" unicode="&#x2d8;" 
d="M341 805q0 -71 -34 -111t-107 -40q-75 0 -108.5 39.5t-33.5 111.5h66q0 -51 21.5 -74t54.5 -23q32 0 53 23t20 74h68z" />
    <glyph glyph-name="dotaccent" unicode="&#x2d9;" 
d="M261 749q0 -52 -62 -52q-31 0 -46.5 11.5t-15.5 40.5q0 51 62 51t62 -51z" />
    <glyph glyph-name="ring" unicode="&#x2da;" 
d="M99 744q0 37 25 59t76 22q50 0 76 -23t26 -58q0 -38 -25.5 -59t-76.5 -21q-48 0 -74.5 20t-26.5 60zM148 744q0 -18 12.5 -29.5t40.5 -11.5q26 0 40 11t14 30q0 18 -13.5 29.5t-40.5 11.5q-28 0 -40.5 -11.5t-12.5 -29.5z" />
    <glyph glyph-name="ogonek" unicode="&#x2db;" 
d="M248 -182q-57 0 -81 24.5t-24 58.5q0 39 25.5 69t70.5 46l39 -16q-32 -13 -47 -33t-15 -44q0 -20 13 -32t44 -12q32 0 60 14l8 -52q-20 -11 -42.5 -17t-50.5 -6z" />
    <glyph glyph-name="tilde" unicode="&#x2dc;" 
d="M54 683q4 52 27 84.5t60 32.5q23 0 40 -10.5t31.5 -22.5t28 -22.5t29.5 -10.5q30 0 42 55l46 -1q-4 -54 -27.5 -85.5t-60.5 -31.5q-22 0 -39 10.5t-31.5 22.5t-28.5 22.5t-29 10.5q-14 0 -25.5 -15t-16.5 -40z" />
    <glyph glyph-name="hungarumlaut" unicode="&#x2dd;" 
d="M268 805l-108 -143h-63l69 143h102zM429 805l-114 -143h-72l82 143h104z" />
    <glyph glyph-name="uni0307" unicode="&#x307;" horiz-adv-x="1" 
d="M-94 747q0 -51 -61 -51q-31 0 -46 11t-15 40q0 51 61 51t61 -51z" />
    <glyph glyph-name="uni0394" unicode="&#x394;" horiz-adv-x="755" 
d="M710 0h-667l299 754h69zM348 559l-183 -473h421l-180 473l-27 77h-3z" />
    <glyph glyph-name="uni03A9" unicode="&#x3a9;" horiz-adv-x="742" 
d="M371 761q73 0 129.5 -19.5t95.5 -59.5t59 -102.5t20 -147.5q0 -102 -44 -191.5t-135 -152.5v-3h185v-85h-271v121q72 56 115 132t43 174q0 127 -47.5 184t-149.5 57t-149.5 -57t-47.5 -184q0 -98 43 -174t115 -132v-121h-271v85h184l1 3q-91 63 -135 151.5t-44 192.5
q0 169 79 249t225 80z" />
    <glyph glyph-name="uni03BC" unicode="&#x3bc;" horiz-adv-x="620" 
d="M322 -11q-48 0 -90 20t-65 65l-2 -1q2 -58 4.5 -112t7.5 -107l-94 -8v750h95v-396q0 -60 39.5 -92.5t102.5 -32.5q57 0 94.5 28t37.5 83v410h94v-594l-67 -6l-14 56h-3q-20 -30 -57 -46.5t-83 -16.5z" />
    <glyph glyph-name="pi" unicode="&#x3c0;" horiz-adv-x="675" 
d="M441 511h-206v-511h-94v511q-63 -3 -91 -24l-26 75q20 17 58 25.5t96 8.5h450v-84h-94v-363q0 -45 15 -62t56 -17v-74q-50 0 -81.5 8t-50 26t-25.5 47t-7 72v362z" />
    <glyph glyph-name="Wgrave" unicode="&#x1e80;" horiz-adv-x="1010" 
d="M564 750l137 -571l18 -79h3l15 79l123 571h102l-181 -750h-125l-133 571l-16 80h-3l-17 -80l-132 -571h-125l-182 750h107l123 -574l16 -79h3l17 79l136 574h114zM473 799l-120 117h119l80 -117h-79z" />
    <glyph glyph-name="wgrave" unicode="&#x1e81;" horiz-adv-x="872" 
d="M489 596l109 -444l18 -79h3l15 79l94 444h93l-144 -596h-118l-100 419l-17 80h-3l-18 -80l-103 -419h-116l-151 596h95l99 -441l16 -79h3l17 79l107 441h101zM413 662l-109 143h114l69 -143h-74z" />
    <glyph glyph-name="Wacute" unicode="&#x1e82;" horiz-adv-x="1010" 
d="M564 750l137 -571l18 -79h3l15 79l123 571h102l-181 -750h-125l-133 571l-16 80h-3l-17 -80l-132 -571h-125l-182 750h107l123 -574l16 -79h3l17 79l136 574h114zM669 914l-130 -117h-78l79 117h129z" />
    <glyph glyph-name="wacute" unicode="&#x1e83;" horiz-adv-x="872" 
d="M489 596l109 -444l18 -79h3l15 79l94 444h93l-144 -596h-118l-100 419l-17 80h-3l-18 -80l-103 -419h-116l-151 596h95l99 -441l16 -79h3l17 79l107 441h101zM582 805l-114 -143h-73l72 143h115z" />
    <glyph glyph-name="Wdieresis" unicode="&#x1e84;" horiz-adv-x="1010" 
d="M564 750l137 -571l18 -79h3l15 79l123 571h102l-181 -750h-125l-133 571l-16 80h-3l-17 -80l-132 -571h-125l-182 750h107l123 -574l16 -79h3l17 79l136 574h114zM455 848q0 -46 -46 -46q-23 0 -34.5 10t-11.5 36q0 46 46 46t46 -46zM647 848q0 -46 -46 -46
q-23 0 -34.5 10t-11.5 36q0 46 46 46t46 -46z" />
    <glyph glyph-name="wdieresis" unicode="&#x1e85;" horiz-adv-x="872" 
d="M489 596l109 -444l18 -79h3l15 79l94 444h93l-144 -596h-118l-100 419l-17 80h-3l-18 -80l-103 -419h-116l-151 596h95l99 -441l16 -79h3l17 79l107 441h101zM397 749q0 -47 -46 -47q-23 0 -34 10.5t-11 36.5q0 49 45 49q46 0 46 -49zM558 749q0 -47 -45 -47
q-23 0 -35 10.5t-12 36.5q0 49 47 49q45 0 45 -49z" />
    <glyph glyph-name="uni1E8A" unicode="&#x1e8a;" horiz-adv-x="697" 
d="M422 391l238 -391h-118l-194 330l-190 -330h-120l233 389l-226 361h124l180 -302l178 302h118zM412 849q0 -52 -62 -52q-31 0 -46.5 11.5t-15.5 40.5q0 51 62 51t62 -51z" />
    <glyph glyph-name="uni1E8B" unicode="&#x1e8b;" horiz-adv-x="602" 
d="M297 257l-150 -257h-107l194 302l-190 294h112l147 -248l145 248h108l-185 -291l191 -305h-112zM363 749q0 -51 -61 -51q-31 0 -46 11t-15 40q0 51 61 51t61 -51z" />
    <glyph glyph-name="uni1E9E" unicode="&#x1e9e;" horiz-adv-x="1123" 
d="M527 214q0 -106 -65.5 -167t-190.5 -61q-65 0 -120 15.5t-100 41.5l16 93q46 -28 95.5 -42.5t107.5 -14.5q80 0 119 34t39 94q0 42 -27.5 67t-68.5 42.5t-89.5 33.5t-89.5 40t-68.5 62t-27.5 100q0 44 14.5 82.5t45 67t77 44.5t110.5 16q55 0 106 -10t92 -30l-14 -89
q-45 17 -88 26.5t-91 9.5q-42 0 -71.5 -9t-47.5 -24.5t-26 -35.5t-8 -42q0 -41 27.5 -64.5t68.5 -40t89.5 -32t89.5 -40t68.5 -64t27.5 -103.5zM1082 214q0 -106 -65.5 -167t-190.5 -61q-65 0 -120 15.5t-100 41.5l16 93q46 -28 95.5 -42.5t107.5 -14.5q80 0 119 34t39 94
q0 42 -27.5 67t-68.5 42.5t-89.5 33.5t-89.5 40t-68.5 62t-27.5 100q0 44 14.5 82.5t45 67t77 44.5t110.5 16q55 0 106 -10t92 -30l-14 -89q-45 17 -88 26.5t-91 9.5q-42 0 -71.5 -9t-47.5 -24.5t-26 -35.5t-8 -42q0 -41 27.5 -64.5t68.5 -40t89.5 -32t89.5 -40t68.5 -64
t27.5 -103.5z" />
    <glyph glyph-name="Ygrave" unicode="&#x1ef2;" horiz-adv-x="671" 
d="M139 750l163 -329l35 -73h3l33 73l163 329h113l-260 -496v-254h-104v254l-264 496h118zM317 799l-120 117h119l80 -117h-79z" />
    <glyph glyph-name="ygrave" unicode="&#x1ef3;" horiz-adv-x="638" 
d="M187 -86q35 0 59.5 16t44.5 60l3 10l-261 596h110l170 -433l28 -75h3l22 77l137 431h102l-217 -603q-30 -82 -74.5 -117.5t-110.5 -35.5q-51 0 -92 19l9 71q33 -16 67 -16zM302 662l-109 143h114l69 -143h-74z" />
    <glyph glyph-name="uni2007" unicode="&#x2007;" horiz-adv-x="649" 
 />
    <glyph glyph-name="uni2008" unicode="&#x2008;" horiz-adv-x="252" 
 />
    <glyph glyph-name="space.frac" unicode="&#x2009;" horiz-adv-x="60" 
 />
    <glyph glyph-name="uni200B" unicode="&#x200b;" horiz-adv-x="0" 
 />
    <glyph glyph-name="endash" unicode="&#x2013;" horiz-adv-x="532" 
d="M462 376v-71h-392v71h392z" />
    <glyph glyph-name="emdash" unicode="&#x2014;" horiz-adv-x="708" 
d="M638 376v-71h-568v71h568z" />
    <glyph glyph-name="quoteleft" unicode="&#x2018;" horiz-adv-x="233" 
d="M118 571q-33 0 -47.5 18t-14.5 48q0 15 6.5 38.5t17 49.5t23.5 52t25 46l35 -9l-26 -123q16 -5 28 -20.5t12 -35.5q0 -28 -13.5 -46t-45.5 -18z" />
    <glyph glyph-name="quoteright" unicode="&#x2019;" horiz-adv-x="233" 
d="M116 792q32 0 47 -17.5t15 -48.5q0 -15 -7 -38.5t-17.5 -49.5t-23.5 -52.5t-25 -45.5l-34 9l26 123q-17 5 -29 20.5t-12 35.5q0 28 14 46t46 18z" />
    <glyph glyph-name="quotesinglbase" unicode="&#x201a;" horiz-adv-x="233" 
d="M116 110q32 0 47 -17.5t15 -48.5q0 -15 -7 -38.5t-17.5 -49.5t-23.5 -52.5t-25 -45.5l-34 9l26 123q-17 5 -29 20.5t-12 35.5q0 28 14 46t46 18z" />
    <glyph glyph-name="quotedblleft" unicode="&#x201c;" horiz-adv-x="417" 
d="M118 571q-33 0 -47.5 18t-14.5 48q0 15 6.5 38.5t17 49.5t23.5 52t25 46l35 -9l-26 -123q16 -5 28 -20.5t12 -35.5q0 -28 -13.5 -46t-45.5 -18zM301 571q-32 0 -47 18.5t-15 47.5q0 15 7 38.5t17.5 49.5t23.5 52t25 46l34 -9l-26 -123q17 -5 29 -20.5t12 -35.5
q0 -28 -14 -46t-46 -18z" />
    <glyph glyph-name="quotedblright" unicode="&#x201d;" horiz-adv-x="416" 
d="M116 791q32 0 47 -17.5t15 -48.5q0 -15 -7 -38.5t-17.5 -49.5t-23.5 -52.5t-25 -45.5l-34 9l26 123q-17 5 -29 20.5t-12 35.5q0 28 14 46t46 18zM299 791q32 0 47 -17.5t15 -48.5q0 -15 -7 -38.5t-17.5 -49.5t-23.5 -52.5t-25 -45.5l-34 9l26 123q-17 5 -29 20.5
t-12 35.5q0 28 14 46t46 18z" />
    <glyph glyph-name="quotedblbase" unicode="&#x201e;" horiz-adv-x="417" 
d="M299 110q32 0 47 -17.5t15 -48.5q0 -15 -7 -38.5t-17.5 -49.5t-23.5 -52.5t-25 -45.5l-34 9l26 123q-17 5 -29 20.5t-12 35.5q0 28 14 46t46 18zM116 110q32 0 47 -17.5t15 -48.5q0 -15 -7 -38.5t-17.5 -49.5t-23.5 -52.5t-25 -45.5l-34 9l26 123q-17 5 -29 20.5
t-12 35.5q0 28 14 46t46 18z" />
    <glyph glyph-name="dagger" unicode="&#x2020;" horiz-adv-x="501" 
d="M209 594l-8 199h93l-6 -199l168 7v-91l-168 6l6 -660h-93l8 660l-164 -6v91z" />
    <glyph glyph-name="daggerdbl" unicode="&#x2021;" horiz-adv-x="501" 
d="M456 51l-169 7l7 -203h-93l8 203l-164 -7v90l165 -6l-1 381l-164 -6v91l164 -7l-8 199h93l-6 -199l168 7v-91l-168 6v-381l168 7v-91z" />
    <glyph glyph-name="bullet" unicode="&#x2022;" horiz-adv-x="406" 
d="M66 322q0 137 135 137q134 0 134 -137q0 -71 -33 -104.5t-101 -33.5q-135 0 -135 138z" />
    <glyph glyph-name="ellipsis" unicode="&#x2026;" horiz-adv-x="654" 
d="M590 51q0 -29 -15 -45.5t-47 -16.5t-47 14t-15 48q0 61 62 61t62 -61zM394 51q0 -29 -15 -45.5t-47 -16.5t-47 14t-15 48q0 61 62 61t62 -61zM188 51q0 -29 -15 -45.5t-47 -16.5t-47 14t-15 48q0 61 62 61t62 -61z" />
    <glyph glyph-name="perthousand" unicode="&#x2030;" horiz-adv-x="1028" 
d="M334 588q0 -92 -36 -133.5t-107 -41.5q-75 0 -109 42t-34 133q0 93 33 133.5t110 40.5q70 0 106.5 -39t36.5 -135zM269 589q0 66 -19.5 89t-58.5 23q-20 0 -35 -5t-24.5 -17.5t-14.5 -34.5t-5 -55q0 -66 19.5 -89t59.5 -23q20 0 34.5 5t24.5 17.5t14.5 34.5t4.5 55z
M573 691l-389 -676l-59 43l390 676zM663 166q0 -92 -35.5 -133.5t-107.5 -41.5q-75 0 -109 42t-34 133q0 93 33 135t111 42q70 0 106 -40.5t36 -136.5zM599 166q0 66 -19.5 89t-58.5 23q-20 0 -35 -5t-24.5 -17.5t-14.5 -34.5t-5 -55q0 -65 19.5 -88t58.5 -23q40 0 59.5 23
t19.5 88zM981 166q0 -92 -36 -133.5t-108 -41.5q-74 0 -108.5 42t-34.5 133q0 93 33 135t111 42q70 0 106.5 -40.5t36.5 -136.5zM916 166q0 66 -19.5 89t-58.5 23q-20 0 -35 -5t-24.5 -17.5t-14.5 -34.5t-5 -55q0 -65 19.5 -88t58.5 -23q40 0 59.5 23t19.5 88z" />
    <glyph glyph-name="guilsinglleft" unicode="&#x2039;" horiz-adv-x="405" 
d="M143 326l193 -120v-78l-290 194v8l290 194v-78z" />
    <glyph glyph-name="guilsinglright" unicode="&#x203a;" horiz-adv-x="405" 
d="M69 206l193 120l-193 120v78l291 -194v-8l-291 -194v78z" />
    <glyph glyph-name="fraction" unicode="&#x2044;" horiz-adv-x="288" 
d="M448 750l-504 -750h-70l504 750h70z" />
    <glyph glyph-name="uni2070" unicode="&#x2070;" horiz-adv-x="368" 
d="M337 695q0 -107 -36 -154.5t-117 -47.5t-117 47.5t-36 154.5q0 110 36 156.5t118 46.5q80 0 116 -46.5t36 -156.5zM265 695q0 43 -5 70.5t-14.5 43.5t-24.5 22t-36 6q-22 0 -37.5 -6t-25.5 -22t-15 -43.5t-5 -70.5t5 -70.5t15 -43.5t25.5 -22t37.5 -6q21 0 36 6t24.5 22
t14.5 43.5t5 70.5z" />
    <glyph glyph-name="uni2074" unicode="&#x2074;" horiz-adv-x="368" 
d="M304 579v-81h-68v81h-202l-5 42l187 271h88v-254h47l-2 -59h-45zM240 748l3 81l-2 1l-83 -126l-46 -63l1 -3h125z" />
    <glyph glyph-name="uni2075" unicode="&#x2075;" horiz-adv-x="368" 
d="M331 633q0 -66 -35 -103t-114 -37q-75 0 -127 30l12 57q27 -14 52 -21t58 -7q45 0 64 18.5t19 57.5q0 62 -80 62q-55 0 -93 -16l-29 25l18 193h234l2 -62h-180l-7 -91q17 4 34.5 6.5t36.5 2.5q66 0 100.5 -28.5t34.5 -86.5z" />
    <glyph glyph-name="uni2076" unicode="&#x2076;" horiz-adv-x="368" 
d="M335 634q0 -70 -37 -105.5t-109 -35.5q-74 0 -113.5 44.5t-39.5 146.5q0 107 45.5 160t133.5 53q53 0 97 -16l-5 -59q-20 8 -39.5 11t-43.5 3q-55 0 -83 -26.5t-34 -83.5l2 -2q39 27 94 27q132 0 132 -117zM263 634q0 33 -17 48t-55 15q-20 0 -44 -8t-37 -24
q2 -62 20 -87t60 -25q73 0 73 81z" />
    <glyph glyph-name="uni2077" unicode="&#x2077;" horiz-adv-x="368" 
d="M335 831l-167 -333h-85l174 328h-221l3 66h296v-61z" />
    <glyph glyph-name="uni2078" unicode="&#x2078;" horiz-adv-x="368" 
d="M32 610q0 31 17.5 55t49.5 39v3q-23 11 -37 32t-14 55q0 48 32.5 75.5t104.5 27.5q71 0 103 -27t32 -76q0 -29 -14 -50.5t-39 -35.5v-2q29 -12 49 -34t20 -62q0 -117 -151 -117q-80 0 -116.5 29.5t-36.5 87.5zM264 605q0 17 -9 28.5t-24 19.5t-34 14t-39 12
q-23 -11 -39 -28t-16 -42q0 -31 18.5 -45.5t64.5 -14.5q35 0 56.5 13t21.5 43zM117 791q0 -15 7.5 -25t20 -17t29.5 -12t35 -10q23 12 34 26t11 34q0 28 -16 41.5t-53 13.5q-36 0 -52 -13t-16 -38z" />
    <glyph glyph-name="uni2079" unicode="&#x2079;" horiz-adv-x="368" 
d="M330 713q0 -116 -42 -168t-127 -52q-34 0 -56.5 5t-44.5 14l10 57q22 -8 41.5 -12.5t45.5 -4.5q51 0 78 30.5t32 101.5l-2 1q-36 -33 -92 -33q-74 0 -106 33.5t-32 85.5q0 56 35 91.5t107 35.5q79 0 116 -46.5t37 -138.5zM259 736q0 59 -20.5 81t-62.5 22
q-35 0 -54 -16.5t-19 -48.5t18 -50.5t60 -18.5q24 0 45.5 8.5t32.5 22.5z" />
    <glyph glyph-name="uni207A" unicode="&#x207a;" horiz-adv-x="370" 
d="M212 668v-113h-57v113h-111v61h111v113h57v-113h114v-61h-114z" />
    <glyph glyph-name="uni207B" unicode="&#x207b;" horiz-adv-x="370" 
d="M48 672v59h274v-59h-274z" />
    <glyph glyph-name="uni207C" unicode="&#x207c;" horiz-adv-x="370" 
d="M48 732v53h274v-53h-274zM48 615v53h274v-53h-274z" />
    <glyph glyph-name="uni207D" unicode="&#x207d;" horiz-adv-x="210" 
d="M198 919q-35 -51 -53 -110.5t-18 -128.5q0 -70 18.5 -129t52.5 -110l-50 -4q-42 45 -64.5 107.5t-22.5 135.5q0 75 22 135t65 108z" />
    <glyph glyph-name="uni207E" unicode="&#x207e;" horiz-adv-x="210" 
d="M62 923q86 -95 86 -243q0 -73 -22 -135.5t-64 -107.5l-51 4q33 51 52 110t19 129q0 69 -18.5 128.5t-52.5 110.5z" />
    <glyph glyph-name="uni2080" unicode="&#x2080;" horiz-adv-x="368" 
d="M337 51q0 -107 -36 -154.5t-117 -47.5t-117 47.5t-36 154.5q0 110 36 156.5t118 46.5q80 0 116 -46.5t36 -156.5zM265 51q0 43 -5 70.5t-14.5 43.5t-24.5 22t-36 6q-22 0 -37.5 -6t-25.5 -22t-15 -43.5t-5 -70.5t5 -70.5t15 -43.5t25.5 -22t37.5 -6q21 0 36 6t24.5 22
t14.5 43.5t5 70.5z" />
    <glyph glyph-name="uni2081" unicode="&#x2081;" horiz-adv-x="271" 
d="M206 -146h-73v226l3 79l-3 1l-83 -52l-6 60l117 82h45v-396z" />
    <glyph glyph-name="uni2082" unicode="&#x2082;" horiz-adv-x="353" 
d="M317 139q0 -30 -13.5 -57t-37.5 -53.5t-57 -53.5t-73 -57v-3h183l-1 -61h-274v48q40 36 76 67.5t63 59.5t43 54t16 50q0 25 -17.5 41.5t-59.5 16.5q-30 0 -55.5 -10t-50.5 -27l-18 57q26 19 60.5 30.5t76.5 11.5q70 0 104.5 -31t34.5 -83z" />
    <glyph glyph-name="uni2083" unicode="&#x2083;" horiz-adv-x="353" 
d="M329 -28q0 -57 -37.5 -90t-118.5 -33q-42 0 -74 9t-55 23l16 56q24 -14 52 -21.5t61 -7.5q45 0 65.5 18.5t20.5 48.5q0 31 -26 46t-97 15v50q67 0 91 15t24 43q0 50 -76 50q-35 0 -61.5 -9t-50.5 -27l-18 53q23 18 58 30t74 12q67 0 104.5 -26.5t37.5 -77.5
q0 -35 -18 -55t-48 -31v-2q36 -9 56 -30t20 -59z" />
    <glyph glyph-name="uni2084" unicode="&#x2084;" horiz-adv-x="368" 
d="M304 -65v-81h-68v81h-202l-5 42l187 271h88v-254h47l-2 -59h-45zM240 104l3 81l-2 1l-83 -126l-46 -63l1 -3h125z" />
    <glyph glyph-name="uni2085" unicode="&#x2085;" horiz-adv-x="368" 
d="M331 -11q0 -66 -35 -103t-114 -37q-75 0 -127 30l12 57q27 -14 52 -21t58 -7q45 0 64 18.5t19 57.5q0 62 -80 62q-55 0 -93 -16l-29 25l18 193h234l2 -62h-180l-7 -91q17 4 34.5 6.5t36.5 2.5q66 0 100.5 -28.5t34.5 -86.5z" />
    <glyph glyph-name="uni2086" unicode="&#x2086;" horiz-adv-x="368" 
d="M335 -10q0 -70 -37 -105.5t-109 -35.5q-74 0 -113.5 44.5t-39.5 146.5q0 107 45.5 160t133.5 53q53 0 97 -16l-5 -59q-20 8 -39.5 11t-43.5 3q-55 0 -83 -26.5t-34 -83.5l2 -2q39 27 94 27q132 0 132 -117zM263 -10q0 33 -17 48t-55 15q-20 0 -44 -8t-37 -24
q2 -62 20 -87t60 -25q73 0 73 81z" />
    <glyph glyph-name="uni2087" unicode="&#x2087;" horiz-adv-x="368" 
d="M335 187l-167 -333h-85l174 328h-221l3 66h296v-61z" />
    <glyph glyph-name="uni2088" unicode="&#x2088;" horiz-adv-x="368" 
d="M32 -34q0 31 17.5 55t49.5 39v3q-23 11 -37 32t-14 55q0 48 32.5 75.5t104.5 27.5q71 0 103 -27t32 -76q0 -29 -14 -50.5t-39 -35.5v-2q29 -12 49 -34t20 -62q0 -117 -151 -117q-80 0 -116.5 29.5t-36.5 87.5zM264 -39q0 17 -9 28.5t-24 19.5t-34 14t-39 12
q-23 -11 -39 -28t-16 -42q0 -31 18.5 -45.5t64.5 -14.5q35 0 56.5 13t21.5 43zM117 147q0 -15 7.5 -25t20 -17t29.5 -12t35 -10q23 12 34 26t11 34q0 28 -16 41.5t-53 13.5q-36 0 -52 -13t-16 -38z" />
    <glyph glyph-name="uni2089" unicode="&#x2089;" horiz-adv-x="368" 
d="M330 69q0 -116 -42 -168t-127 -52q-34 0 -56.5 5t-44.5 14l10 57q22 -8 41.5 -12.5t45.5 -4.5q51 0 78 30.5t32 101.5l-2 1q-36 -33 -92 -33q-74 0 -106 33.5t-32 85.5q0 56 35 91.5t107 35.5q79 0 116 -46.5t37 -138.5zM259 92q0 59 -20.5 81t-62.5 22q-35 0 -54 -16.5
t-19 -48.5t18 -50.5t60 -18.5q24 0 45.5 8.5t32.5 22.5z" />
    <glyph glyph-name="uni208A" unicode="&#x208a;" horiz-adv-x="370" 
d="M212 24v-113h-57v113h-111v61h111v113h57v-113h114v-61h-114z" />
    <glyph glyph-name="uni208B" unicode="&#x208b;" horiz-adv-x="370" 
d="M48 28v59h274v-59h-274z" />
    <glyph glyph-name="uni208C" unicode="&#x208c;" horiz-adv-x="370" 
d="M48 88v53h274v-53h-274zM48 -29v53h274v-53h-274z" />
    <glyph glyph-name="uni208D" unicode="&#x208d;" horiz-adv-x="210" 
d="M198 275q-35 -51 -53 -110.5t-18 -128.5q0 -70 18.5 -129t52.5 -110l-50 -4q-42 45 -64.5 107.5t-22.5 135.5q0 75 22 135t65 108z" />
    <glyph glyph-name="uni208E" unicode="&#x208e;" horiz-adv-x="210" 
d="M62 279q86 -95 86 -243q0 -73 -22 -135.5t-64 -107.5l-51 4q33 51 52 110t19 129q0 69 -18.5 128.5t-52.5 110.5z" />
    <glyph glyph-name="franc" unicode="&#x20a3;" horiz-adv-x="649" 
d="M112 181v569h463l2 -97h-363v-225h285l-1 -91h-284v-156h91v-72h-91v-109h-102v109h-85v72h85z" />
    <glyph glyph-name="lira" unicode="&#x20a4;" horiz-adv-x="649" 
d="M85 461h36q-5 20 -8.5 41t-3.5 45q0 43 13.5 82t45 68t82.5 46.5t126 17.5q56 0 103 -10.5t83 -27.5l-14 -88q-30 14 -73.5 24t-88.5 10q-48 0 -81.5 -10.5t-55 -29t-31 -43.5t-9.5 -53q0 -38 9 -72h288v-59h-272q4 -14 7.5 -29t6.5 -31h258v-58h-250q1 -9 1.5 -18.5
t0.5 -19.5q0 -57 -20.5 -98t-55.5 -64l2 -3q48 11 98 15t113 4q54 0 104.5 -4t100.5 -9l-5 -93q-66 7 -123.5 10.5t-120.5 3.5q-71 0 -136 -3t-145 -10l-5 89q49 17 74 60.5t25 97.5q0 11 -0.5 21.5t-1.5 20.5h-70l-2 58h64q-4 16 -8 31t-8 29h-49z" />
    <glyph glyph-name="peseta" unicode="&#x20a7;" horiz-adv-x="649" 
d="M563 486q-6 -104 -64 -155t-181 -51h-134v-280h-95v486h-61v54h61v210h229q123 0 181.5 -49.5t63.5 -160.5h59l-1 -54h-58zM184 540h281q-5 69 -40 96.5t-107 27.5h-134v-124zM318 363q68 0 104.5 25.5t42.5 97.5h-281v-123h134z" />
    <glyph glyph-name="Euro" unicode="&#x20ac;" horiz-adv-x="649" 
d="M486 287h-258q14 -113 69.5 -162t155.5 -49q45 0 88.5 12.5t81.5 34.5l8 -80q-38 -24 -90 -38t-111 -14q-142 0 -215 73t-89 223h-89v56h84v62h-84v58h88q17 140 95.5 216.5t216.5 76.5q53 0 100.5 -9.5t80.5 -26.5l-21 -83q-34 14 -66.5 20.5t-74.5 6.5
q-197 0 -227 -201h309l-14 -58h-301v-62h277z" />
    <glyph glyph-name="trademark" unicode="&#x2122;" horiz-adv-x="663" 
d="M564 493v128l2 81l-3 1l-29 -76l-55 -134h-43l-57 137l-29 76l-2 -1l1 -81v-131h-50v276h74l55 -134l29 -75h3l29 75l56 134h70v-276h-51zM175 716v-223h-58v223h-85v53h227v-53h-84z" />
    <glyph glyph-name="Omega" unicode="&#x2126;" horiz-adv-x="742" 
d="M371 761q73 0 129.5 -19.5t95.5 -59.5t59 -102.5t20 -147.5q0 -102 -44 -191.5t-135 -152.5v-3h185v-85h-271v121q72 56 115 132t43 174q0 127 -47.5 184t-149.5 57t-149.5 -57t-47.5 -184q0 -98 43 -174t115 -132v-121h-271v85h184l1 3q-91 63 -135 151.5t-44 192.5
q0 169 79 249t225 80z" />
    <glyph glyph-name="uni2150" unicode="&#x2150;" horiz-adv-x="927" 
d="M206 356h-73v226l3 79l-3 1l-83 -52l-6 60l117 82h45v-396zM719 750l-504 -750h-70l504 750h70zM894 333l-167 -333h-85l174 328h-221l3 66h296v-61z" />
    <glyph glyph-name="uni2151" unicode="&#x2151;" horiz-adv-x="927" 
d="M206 356h-73v226l3 79l-3 1l-83 -52l-6 60l117 82h45v-396zM719 750l-504 -750h-70l504 750h70zM889 215q0 -116 -42 -168t-127 -52q-34 0 -56.5 5t-44.5 14l10 57q22 -8 41.5 -12.5t45.5 -4.5q51 0 78 30.5t32 101.5l-2 1q-36 -33 -92 -33q-74 0 -106 33.5t-32 85.5
q0 56 35 91.5t107 35.5q79 0 116 -46.5t37 -138.5zM818 238q0 59 -20.5 81t-62.5 22q-35 0 -54 -16.5t-19 -48.5t18 -50.5t60 -18.5q24 0 45.5 8.5t32.5 22.5z" />
    <glyph glyph-name="uni2152" unicode="&#x2152;" horiz-adv-x="1198" 
d="M206 356h-73v226l3 79l-3 1l-83 -52l-6 60l117 82h45v-396zM719 750l-504 -750h-70l504 750h70zM765 0h-73v226l3 79l-3 1l-83 -52l-6 60l117 82h45v-396zM1167 197q0 -107 -36 -154.5t-117 -47.5t-117 47.5t-36 154.5q0 110 36 156.5t118 46.5q80 0 116 -46.5t36 -156.5
zM1095 197q0 43 -5 70.5t-14.5 43.5t-24.5 22t-36 6q-22 0 -37.5 -6t-25.5 -22t-15 -43.5t-5 -70.5t5 -70.5t15 -43.5t25.5 -22t37.5 -6q21 0 36 6t24.5 22t14.5 43.5t5 70.5z" />
    <glyph glyph-name="onethird" unicode="&#x2153;" horiz-adv-x="912" 
d="M206 356h-73v226l3 79l-3 1l-83 -52l-6 60l117 82h45v-396zM719 750l-504 -750h-70l504 750h70zM888 118q0 -57 -37.5 -90t-118.5 -33q-42 0 -74 9t-55 23l16 56q24 -14 52 -21.5t61 -7.5q45 0 65.5 18.5t20.5 48.5q0 31 -26 46t-97 15v50q67 0 91 15t24 43q0 50 -76 50
q-35 0 -61.5 -9t-50.5 -27l-18 53q23 18 58 30t74 12q67 0 104.5 -26.5t37.5 -77.5q0 -35 -18 -55t-48 -31v-2q36 -9 56 -30t20 -59z" />
    <glyph glyph-name="twothirds" unicode="&#x2154;" horiz-adv-x="994" 
d="M317 641q0 -30 -13.5 -57t-37.5 -53.5t-57 -53.5t-73 -57v-3h183l-1 -61h-274v48q40 36 76 67.5t63 59.5t43 54t16 50q0 25 -17.5 41.5t-59.5 16.5q-30 0 -55.5 -10t-50.5 -27l-18 57q26 19 60.5 30.5t76.5 11.5q70 0 104.5 -31t34.5 -83zM801 750l-504 -750h-70l504 750
h70zM970 118q0 -57 -37.5 -90t-118.5 -33q-42 0 -74 9t-55 23l16 56q24 -14 52 -21.5t61 -7.5q45 0 65.5 18.5t20.5 48.5q0 31 -26 46t-97 15v50q67 0 91 15t24 43q0 50 -76 50q-35 0 -61.5 -9t-50.5 -27l-18 53q23 18 58 30t74 12q67 0 104.5 -26.5t37.5 -77.5
q0 -35 -18 -55t-48 -31v-2q36 -9 56 -30t20 -59z" />
    <glyph glyph-name="uni2155" unicode="&#x2155;" horiz-adv-x="927" 
d="M206 356h-73v226l3 79l-3 1l-83 -52l-6 60l117 82h45v-396zM719 750l-504 -750h-70l504 750h70zM890 135q0 -66 -35 -103t-114 -37q-75 0 -127 30l12 57q27 -14 52 -21t58 -7q45 0 64 18.5t19 57.5q0 62 -80 62q-55 0 -93 -16l-29 25l18 193h234l2 -62h-180l-7 -91
q17 4 34.5 6.5t36.5 2.5q66 0 100.5 -28.5t34.5 -86.5z" />
    <glyph glyph-name="uni2156" unicode="&#x2156;" horiz-adv-x="1009" 
d="M317 641q0 -30 -13.5 -57t-37.5 -53.5t-57 -53.5t-73 -57v-3h183l-1 -61h-274v48q40 36 76 67.5t63 59.5t43 54t16 50q0 25 -17.5 41.5t-59.5 16.5q-30 0 -55.5 -10t-50.5 -27l-18 57q26 19 60.5 30.5t76.5 11.5q70 0 104.5 -31t34.5 -83zM801 750l-504 -750h-70l504 750
h70zM972 135q0 -66 -35 -103t-114 -37q-75 0 -127 30l12 57q27 -14 52 -21t58 -7q45 0 64 18.5t19 57.5q0 62 -80 62q-55 0 -93 -16l-29 25l18 193h234l2 -62h-180l-7 -91q17 4 34.5 6.5t36.5 2.5q66 0 100.5 -28.5t34.5 -86.5z" />
    <glyph glyph-name="uni2157" unicode="&#x2157;" horiz-adv-x="1009" 
d="M329 474q0 -57 -37.5 -90t-118.5 -33q-42 0 -74 9t-55 23l16 56q24 -14 52 -21.5t61 -7.5q45 0 65.5 18.5t20.5 48.5q0 31 -26 46t-97 15v50q67 0 91 15t24 43q0 50 -76 50q-35 0 -61.5 -9t-50.5 -27l-18 53q23 18 58 30t74 12q67 0 104.5 -26.5t37.5 -77.5
q0 -35 -18 -55t-48 -31v-2q36 -9 56 -30t20 -59zM801 750l-504 -750h-70l504 750h70zM972 135q0 -66 -35 -103t-114 -37q-75 0 -127 30l12 57q27 -14 52 -21t58 -7q45 0 64 18.5t19 57.5q0 62 -80 62q-55 0 -93 -16l-29 25l18 193h234l2 -62h-180l-7 -91q17 4 34.5 6.5
t36.5 2.5q66 0 100.5 -28.5t34.5 -86.5z" />
    <glyph glyph-name="uni2158" unicode="&#x2158;" horiz-adv-x="1024" 
d="M304 437v-81h-68v81h-202l-5 42l187 271h88v-254h47l-2 -59h-45zM240 606l3 81l-2 1l-83 -126l-46 -63l1 -3h125zM816 750l-504 -750h-70l504 750h70zM987 135q0 -66 -35 -103t-114 -37q-75 0 -127 30l12 57q27 -14 52 -21t58 -7q45 0 64 18.5t19 57.5q0 62 -80 62
q-55 0 -93 -16l-29 25l18 193h234l2 -62h-180l-7 -91q17 4 34.5 6.5t36.5 2.5q66 0 100.5 -28.5t34.5 -86.5z" />
    <glyph glyph-name="uni2159" unicode="&#x2159;" horiz-adv-x="927" 
d="M206 356h-73v226l3 79l-3 1l-83 -52l-6 60l117 82h45v-396zM719 750l-504 -750h-70l504 750h70zM894 136q0 -70 -37 -105.5t-109 -35.5q-74 0 -113.5 44.5t-39.5 146.5q0 107 45.5 160t133.5 53q53 0 97 -16l-5 -59q-20 8 -39.5 11t-43.5 3q-55 0 -83 -26.5t-34 -83.5
l2 -2q39 27 94 27q132 0 132 -117zM822 136q0 33 -17 48t-55 15q-20 0 -44 -8t-37 -24q2 -62 20 -87t60 -25q73 0 73 81z" />
    <glyph glyph-name="uni215A" unicode="&#x215a;" horiz-adv-x="1024" 
d="M331 491q0 -66 -35 -103t-114 -37q-75 0 -127 30l12 57q27 -14 52 -21t58 -7q45 0 64 18.5t19 57.5q0 62 -80 62q-55 0 -93 -16l-29 25l18 193h234l2 -62h-180l-7 -91q17 4 34.5 6.5t36.5 2.5q66 0 100.5 -28.5t34.5 -86.5zM816 750l-504 -750h-70l504 750h70zM991 136
q0 -70 -37 -105.5t-109 -35.5q-74 0 -113.5 44.5t-39.5 146.5q0 107 45.5 160t133.5 53q53 0 97 -16l-5 -59q-20 8 -39.5 11t-43.5 3q-55 0 -83 -26.5t-34 -83.5l2 -2q39 27 94 27q132 0 132 -117zM919 136q0 33 -17 48t-55 15q-20 0 -44 -8t-37 -24q2 -62 20 -87t60 -25
q73 0 73 81z" />
    <glyph glyph-name="oneeighth" unicode="&#x215b;" horiz-adv-x="927" 
d="M206 356h-73v226l3 79l-3 1l-83 -52l-6 60l117 82h45v-396zM719 750l-504 -750h-70l504 750h70zM591 112q0 31 17.5 55t49.5 39v3q-23 11 -37 32t-14 55q0 48 32.5 75.5t104.5 27.5q71 0 103 -27t32 -76q0 -29 -14 -50.5t-39 -35.5v-2q29 -12 49 -34t20 -62
q0 -117 -151 -117q-80 0 -116.5 29.5t-36.5 87.5zM823 107q0 17 -9 28.5t-24 19.5t-34 14t-39 12q-23 -11 -39 -28t-16 -42q0 -31 18.5 -45.5t64.5 -14.5q35 0 56.5 13t21.5 43zM676 293q0 -15 7.5 -25t20 -17t29.5 -12t35 -10q23 12 34 26t11 34q0 28 -16 41.5t-53 13.5
q-36 0 -52 -13t-16 -38z" />
    <glyph glyph-name="threeeighths" unicode="&#x215c;" horiz-adv-x="1009" 
d="M329 474q0 -57 -37.5 -90t-118.5 -33q-42 0 -74 9t-55 23l16 56q24 -14 52 -21.5t61 -7.5q45 0 65.5 18.5t20.5 48.5q0 31 -26 46t-97 15v50q67 0 91 15t24 43q0 50 -76 50q-35 0 -61.5 -9t-50.5 -27l-18 53q23 18 58 30t74 12q67 0 104.5 -26.5t37.5 -77.5
q0 -35 -18 -55t-48 -31v-2q36 -9 56 -30t20 -59zM801 750l-504 -750h-70l504 750h70zM673 112q0 31 17.5 55t49.5 39v3q-23 11 -37 32t-14 55q0 48 32.5 75.5t104.5 27.5q71 0 103 -27t32 -76q0 -29 -14 -50.5t-39 -35.5v-2q29 -12 49 -34t20 -62q0 -117 -151 -117
q-80 0 -116.5 29.5t-36.5 87.5zM905 107q0 17 -9 28.5t-24 19.5t-34 14t-39 12q-23 -11 -39 -28t-16 -42q0 -31 18.5 -45.5t64.5 -14.5q35 0 56.5 13t21.5 43zM758 293q0 -15 7.5 -25t20 -17t29.5 -12t35 -10q23 12 34 26t11 34q0 28 -16 41.5t-53 13.5q-36 0 -52 -13
t-16 -38z" />
    <glyph glyph-name="fiveeighths" unicode="&#x215d;" horiz-adv-x="1024" 
d="M331 491q0 -66 -35 -103t-114 -37q-75 0 -127 30l12 57q27 -14 52 -21t58 -7q45 0 64 18.5t19 57.5q0 62 -80 62q-55 0 -93 -16l-29 25l18 193h234l2 -62h-180l-7 -91q17 4 34.5 6.5t36.5 2.5q66 0 100.5 -28.5t34.5 -86.5zM816 750l-504 -750h-70l504 750h70zM688 112
q0 31 17.5 55t49.5 39v3q-23 11 -37 32t-14 55q0 48 32.5 75.5t104.5 27.5q71 0 103 -27t32 -76q0 -29 -14 -50.5t-39 -35.5v-2q29 -12 49 -34t20 -62q0 -117 -151 -117q-80 0 -116.5 29.5t-36.5 87.5zM920 107q0 17 -9 28.5t-24 19.5t-34 14t-39 12q-23 -11 -39 -28
t-16 -42q0 -31 18.5 -45.5t64.5 -14.5q35 0 56.5 13t21.5 43zM773 293q0 -15 7.5 -25t20 -17t29.5 -12t35 -10q23 12 34 26t11 34q0 28 -16 41.5t-53 13.5q-36 0 -52 -13t-16 -38z" />
    <glyph glyph-name="seveneighths" unicode="&#x215e;" horiz-adv-x="1024" 
d="M335 689l-167 -333h-85l174 328h-221l3 66h296v-61zM816 750l-504 -750h-70l504 750h70zM688 112q0 31 17.5 55t49.5 39v3q-23 11 -37 32t-14 55q0 48 32.5 75.5t104.5 27.5q71 0 103 -27t32 -76q0 -29 -14 -50.5t-39 -35.5v-2q29 -12 49 -34t20 -62q0 -117 -151 -117
q-80 0 -116.5 29.5t-36.5 87.5zM920 107q0 17 -9 28.5t-24 19.5t-34 14t-39 12q-23 -11 -39 -28t-16 -42q0 -31 18.5 -45.5t64.5 -14.5q35 0 56.5 13t21.5 43zM773 293q0 -15 7.5 -25t20 -17t29.5 -12t35 -10q23 12 34 26t11 34q0 28 -16 41.5t-53 13.5q-36 0 -52 -13
t-16 -38z" />
    <glyph glyph-name="uni215F" unicode="&#x215f;" horiz-adv-x="559" 
d="M206 356h-73v226l3 79l-3 1l-83 -52l-6 60l117 82h45v-396zM719 750l-504 -750h-70l504 750h70z" />
    <glyph glyph-name="uni2189" unicode="&#x2189;" horiz-adv-x="925" 
d="M337 553q0 -107 -36 -154.5t-117 -47.5t-117 47.5t-36 154.5q0 110 36 156.5t118 46.5q80 0 116 -46.5t36 -156.5zM265 553q0 43 -5 70.5t-14.5 43.5t-24.5 22t-36 6q-22 0 -37.5 -6t-25.5 -22t-15 -43.5t-5 -70.5t5 -70.5t15 -43.5t25.5 -22t37.5 -6q21 0 36 6t24.5 22
t14.5 43.5t5 70.5zM732 750l-504 -750h-70l504 750h70zM901 118q0 -57 -37.5 -90t-118.5 -33q-42 0 -74 9t-55 23l16 56q24 -14 52 -21.5t61 -7.5q45 0 65.5 18.5t20.5 48.5q0 31 -26 46t-97 15v50q67 0 91 15t24 43q0 50 -76 50q-35 0 -61.5 -9t-50.5 -27l-18 53
q23 18 58 30t74 12q67 0 104.5 -26.5t37.5 -77.5q0 -35 -18 -55t-48 -31v-2q36 -9 56 -30t20 -59z" />
    <glyph glyph-name="partialdiff" unicode="&#x2202;" horiz-adv-x="632" 
d="M326 560q51 0 92 -16t70 -45l2 2q-14 89 -61.5 131t-132.5 42q-62 0 -106 -16t-82 -48l-25 69q44 36 97 57.5t131 21.5q55 0 104 -19t86.5 -60t59.5 -106.5t22 -158.5q0 -91 -21 -169t-60.5 -135.5t-98 -90t-133.5 -32.5q-114 0 -167.5 62.5t-53.5 177.5q0 77 19 139
t54.5 105t87 66t116.5 23zM482 371q0 21 -9 41t-27 36t-44.5 26t-61.5 10q-91 0 -142.5 -66.5t-51.5 -197.5q0 -77 35 -116t103 -39q48 0 85 25t62 67t38 97.5t13 116.5z" />
    <glyph glyph-name="Delta" unicode="&#x2206;" horiz-adv-x="755" 
d="M710 0h-667l299 754h69zM348 559l-183 -473h421l-180 473l-27 77h-3z" />
    <glyph glyph-name="product" unicode="&#x220f;" horiz-adv-x="745" 
d="M154 -152v826l-89 7l-2 69h622l-2 -68l-89 -7v-827h-89v820h-261v-820h-90z" />
    <glyph glyph-name="summation" unicode="&#x2211;" horiz-adv-x="703" 
d="M262 -7l-49 -59v-3h441l-2 -83h-559v57l306 404l-306 380v61h542l2 -84h-417l-1 -2l51 -60l230 -285v-22z" />
    <glyph glyph-name="minus" unicode="&#x2212;" horiz-adv-x="597" 
d="M79 294v90h439v-90h-439z" />
    <glyph glyph-name="uni2219" unicode="&#x2219;" horiz-adv-x="597" 
d="M164 322q0 137 135 137q134 0 134 -137q0 -71 -33 -104.5t-101 -33.5q-135 0 -135 138z" />
    <glyph glyph-name="radical" unicode="&#x221a;" horiz-adv-x="585" 
d="M8 495h152l103 -316l24 -77h3l19 78l171 614h99l-232 -794h-113l-141 406h-85v89z" />
    <glyph glyph-name="infinity" unicode="&#x221e;" horiz-adv-x="742" 
d="M531 167q-57 0 -95.5 24t-67.5 66q-12 -19 -26.5 -35.5t-33 -28.5t-42.5 -19t-54 -7q-35 0 -65.5 12t-52.5 35t-34.5 57t-12.5 78q0 40 10.5 73.5t31.5 58t51.5 38t69.5 13.5q56 0 95 -24t68 -67q12 19 26.5 35.5t33 29t42.5 19.5t55 7q35 0 65 -12t52 -35.5t34.5 -58
t12.5 -78.5q0 -40 -10.5 -73t-31.5 -57t-51.5 -37.5t-69.5 -13.5zM528 450q-26 0 -44.5 -10.5t-32.5 -27.5t-25.5 -40t-22.5 -47q23 -38 51.5 -59.5t72.5 -21.5q43 0 65.5 29.5t22.5 73.5q0 50 -25 76.5t-62 26.5zM214 249q25 0 43 10t32 27.5t25.5 40t22.5 46.5
q-23 38 -50.5 59.5t-71.5 21.5q-43 0 -66 -29.5t-23 -73.5q0 -50 25.5 -76t62.5 -26z" />
    <glyph glyph-name="integral" unicode="&#x222b;" horiz-adv-x="318" 
d="M207 37q0 -100 -48.5 -147.5t-151.5 -47.5l-2 65q56 2 81 32t25 96v574q0 93 49.5 141t149.5 50l2 -67q-51 0 -77.5 -31t-26.5 -94z" />
    <glyph glyph-name="approxequal" unicode="&#x2248;" horiz-adv-x="649" 
d="M434 360q-30 0 -58.5 8.5t-56 18t-54 18t-51.5 8.5q-32 0 -58.5 -8.5t-52.5 -25.5v79q24 14 51.5 23t59.5 9q28 0 56.5 -8.5t56 -18t54.5 -18t53 -8.5q33 0 60 9t53 25v-78q-24 -15 -52 -24t-61 -9zM434 181q-30 0 -58.5 8.5t-56 18t-54 18t-51.5 8.5q-32 0 -58.5 -8.5
t-52.5 -25.5v78q24 15 51.5 24.5t59.5 9.5q28 0 56.5 -8.5t56 -18.5t54.5 -18.5t53 -8.5q33 0 60 9t53 25v-78q-24 -15 -52 -24t-61 -9z" />
    <glyph glyph-name="notequal" unicode="&#x2260;" horiz-adv-x="649" 
d="M475 556l-46 -91h118v-78h-158l-53 -105h211v-78h-250l-64 -126l-63 31l48 95h-115v78h154l54 105h-208v78h247l63 123z" />
    <glyph glyph-name="lessequal" unicode="&#x2264;" horiz-adv-x="649" 
d="M243 420l-76 -25v-3l77 -24l296 -99v-93l-440 171v94l440 178v-95zM104 50v79h437v-79h-437z" />
    <glyph glyph-name="greaterequal" unicode="&#x2265;" horiz-adv-x="649" 
d="M100 269l296 99l78 24v3l-77 25l-296 104v95l440 -178v-94l-441 -171v93zM100 50v79h436v-79h-436z" />
    <glyph glyph-name="dotmath" unicode="&#x22c5;" horiz-adv-x="597" 
d="M360 345q0 -29 -15 -45.5t-47 -16.5t-47 14t-15 48q0 61 62 61t62 -61z" />
    <glyph glyph-name="lozenge" unicode="&#x25ca;" horiz-adv-x="613" 
d="M306 654l278 -324l-278 -324l-277 324zM306 128l175 202l-175 204l-174 -204z" />
    <glyph glyph-name="orn001" unicode="&#xea01;" horiz-adv-x="716" 
d="M358 -13q-28 0 -54 20.5t-48 47.5t-40.5 54.5t-31.5 41.5q-22 24 -45 61t-42 82t-31.5 96.5t-12.5 104.5q0 55 15.5 104.5t51.5 86t94.5 58t143.5 21.5t143.5 -21.5t94.5 -58t51.5 -86t15.5 -104.5q0 -53 -12.5 -104.5t-31.5 -96.5t-42.5 -82t-45.5 -61
q-13 -14 -31 -41.5t-40.5 -54.5t-48 -47.5t-53.5 -20.5zM359 35q20 0 40 17t38 39.5t33 45.5t27 34q17 19 37 49t37 67.5t28.5 80.5t11.5 87q0 28 -12 47.5t-41 31.5t-77.5 17t-121.5 5q-74 0 -123 -5t-78 -17t-40.5 -31.5t-11.5 -47.5q0 -44 11.5 -87t28.5 -80.5t37 -67.5
t37 -49q12 -11 27.5 -34t33.5 -45.5t38 -39.5t40 -17zM458 204q-45 12 -97 12q-53 0 -99 -12q-17 18 -29.5 43t-18.5 51q34 -12 70.5 -18t73.5 -6q38 0 75 6t71 18q-6 -26 -17.5 -51t-28.5 -43zM318 342q-33 5 -72 14.5t-67 23.5q0 26 6.5 48.5t20.5 34.5q28 -32 65.5 -52
t69.5 -34zM377 377q33 14 70.5 34t65.5 52q13 -12 20 -34.5t7 -48.5q-28 -14 -67.5 -23.5t-72.5 -14.5z" />
    <glyph glyph-name="fi" unicode="&#xfb01;" horiz-adv-x="697" 
d="M216 0h-94v523h-89v73h88v27q0 37 11.5 69t35.5 55t61 36t88 13q23 0 44.5 -2.5t35.5 -6.5l-3 -66q-12 3 -27 5t-31 2q-65 0 -92.5 -28t-27.5 -78v-26h372v-596h-96v523h-276v-523zM603 749q0 -52 -62 -52q-31 0 -46.5 11.5t-15.5 40.5q0 51 62 51t62 -51z" />
    <glyph glyph-name="fl" unicode="&#xfb02;" horiz-adv-x="667" 
d="M470 0v725q-26 3 -51 5.5t-51 2.5q-85 0 -118.5 -29t-33.5 -83v-25h125v-73h-125v-523h-95v523h-88v73h88v28q0 38 12.5 70t41.5 55.5t76.5 37t117.5 13.5q29 0 53.5 -2t47 -4t45.5 -4.5t49 -3.5v-786h-94z" />
    <glyph glyph-name="uniFEFF" unicode="&#xfeff;" horiz-adv-x="0" 
 />
    <glyph glyph-name="afii57929" horiz-adv-x="233" 
d="M116 792q32 0 47 -17.5t15 -48.5q0 -15 -7 -38.5t-17.5 -49.5t-23.5 -52.5t-25 -45.5l-34 9l26 123q-17 5 -29 20.5t-12 35.5q0 28 14 46t46 18z" />
    <glyph glyph-name="i.latn_TRK" horiz-adv-x="312" 
d="M108 0v593l95 5v-598h-95zM217 747q0 -51 -61 -51q-31 0 -46 11t-15 40q0 51 61 51t61 -51z" />
    <glyph glyph-name="Ldot.latn_CAT" horiz-adv-x="573" 
d="M488 406q0 -58 -59 -58q-31 0 -45 13t-14 45q0 58 59 58t59 -58zM549 96l-3 -96h-449v750h103v-654h349z" />
    <glyph glyph-name="ldot.latn_CAT" horiz-adv-x="372" 
d="M395 398q0 -26 -14 -41t-44 -15q-29 0 -43 12.5t-14 43.5q0 56 57 56q58 0 58 -56zM102 0v789l95 6v-795h-95z" />
    <glyph glyph-name="dollar.subs" horiz-adv-x="318" 
d="M220 314l-5 -78q42 -5 78 -17l-10 -58q-26 8 -47.5 12.5t-47.5 4.5q-42 0 -56.5 -13.5t-14.5 -30.5t14 -26.5t35 -16.5t45.5 -13.5t45.5 -18.5t35 -31.5t14 -52.5q0 -46 -27.5 -75t-79.5 -37l-3 -75h-56l4 74q-55 4 -97 27l10 60q26 -16 51 -23t57 -7q37 0 55.5 13.5
t18.5 37.5q0 18 -14 28t-35 17t-45.5 14t-45.5 19t-35 31t-14 51q0 40 25.5 70t83.5 36l5 78h56z" />
    <glyph glyph-name="comma.subs" horiz-adv-x="158" 
d="M78 -77q43 0 43 -46q0 -10 -4.5 -24t-11.5 -29.5t-15.5 -30.5t-16.5 -26l-25 6l16 69q-11 5 -20 14.5t-9 23.5q0 20 10 31.5t33 11.5z" />
    <glyph glyph-name="period.subs" horiz-adv-x="158" 
d="M123 -116q0 -20 -10 -30.5t-34 -10.5q-23 0 -33.5 9t-10.5 32q0 41 44 41q24 0 34 -10.5t10 -30.5z" />
    <glyph glyph-name="cent.subs" horiz-adv-x="318" 
d="M287 162q-34 13 -75 13q-59 0 -82 -27t-23 -93q0 -71 26.5 -99.5t77.5 -28.5q44 0 79 18l5 -53q-14 -9 -34 -16t-45 -9l-3 -79h-57l4 81q-63 9 -95.5 54.5t-32.5 131.5q0 83 33.5 129t109.5 53l5 77h57l-6 -78q17 -2 32 -7t28 -10z" />
    <glyph glyph-name="dollar.sups" horiz-adv-x="318" 
d="M220 959l-5 -78q42 -5 78 -17l-10 -58q-26 9 -47.5 13t-47.5 4q-42 0 -56.5 -13.5t-14.5 -30.5t14 -26.5t35 -16.5t45.5 -13.5t45.5 -18.5t35 -31.5t14 -52.5q0 -47 -27.5 -76t-79.5 -36l-3 -75h-56l4 74q-55 3 -97 27l10 60q26 -16 51 -23t57 -7q37 0 55.5 13.5
t18.5 37.5q0 18 -14 28t-35 17t-45.5 14t-45.5 19t-35 31t-14 51q0 40 25.5 70t83.5 36l5 78h56z" />
    <glyph glyph-name="comma.sups" horiz-adv-x="158" 
d="M78 568q43 0 43 -46q0 -10 -4.5 -24t-11.5 -29.5t-15.5 -30.5t-16.5 -26l-25 6l16 70q-11 4 -20 13.5t-9 23.5q0 20 10 31.5t33 11.5z" />
    <glyph glyph-name="period.sups" horiz-adv-x="158" 
d="M123 529q0 -20 -10 -30.5t-34 -10.5q-23 0 -33.5 9t-10.5 32q0 41 44 41q24 0 34 -10.5t10 -30.5z" />
    <glyph glyph-name="cent.sups" horiz-adv-x="318" 
d="M287 807q-34 13 -75 13q-59 0 -82 -27t-23 -93q0 -71 26.5 -99.5t77.5 -28.5q44 0 79 18l5 -53q-30 -21 -79 -25l-3 -79h-57l4 80q-63 10 -95.5 55.5t-32.5 131.5q0 83 33.5 129t109.5 53l5 77h57l-6 -78q17 -2 32 -7t28 -10z" />
    <glyph glyph-name="dollar.numr" horiz-adv-x="318" 
d="M220 817l-5 -77q44 -5 78 -18l-10 -57q-26 8 -47.5 12.5t-47.5 4.5q-42 0 -56.5 -13.5t-14.5 -31.5q0 -17 14 -26.5t35 -16t45.5 -13.5t45.5 -18.5t35 -31.5t14 -52q0 -47 -27.5 -76.5t-79.5 -36.5l-3 -74h-56l4 73q-56 5 -97 28l10 60q26 -16 51 -23t57 -7
q37 0 55.5 13.5t18.5 36.5q0 18 -14 28t-35 17.5t-45.5 14.5t-45.5 18.5t-35 30.5t-14 51q0 40 25.5 70.5t83.5 36.5l5 77h56z" />
    <glyph glyph-name="parenleft.numr" horiz-adv-x="210" 
d="M198 777q-35 -51 -53 -110.5t-18 -128.5q0 -70 18.5 -129t52.5 -110l-50 -4q-42 45 -64.5 107.5t-22.5 135.5q0 75 22 135t65 108z" />
    <glyph glyph-name="parenright.numr" horiz-adv-x="210" 
d="M62 781q86 -95 86 -243q0 -73 -22 -135.5t-64 -107.5l-51 4q33 51 52 110t19 129q0 69 -18.5 128.5t-52.5 110.5z" />
    <glyph glyph-name="plus.numr" horiz-adv-x="370" 
d="M212 526v-113h-57v113h-111v61h111v113h57v-113h114v-61h-114z" />
    <glyph glyph-name="comma.numr" horiz-adv-x="158" 
d="M78 427q23 0 33 -12.5t10 -34.5q0 -10 -4.5 -24.5t-11.5 -30t-15.5 -30t-16.5 -25.5l-25 6l16 70q-11 4 -20 13.5t-9 23.5q0 20 10 32t33 12z" />
    <glyph glyph-name="period.numr" horiz-adv-x="158" 
d="M123 387q0 -20 -10 -30t-34 -10q-23 0 -33.5 8.5t-10.5 31.5q0 42 44 42q24 0 34 -10.5t10 -31.5z" />
    <glyph glyph-name="zero.numr" horiz-adv-x="368" 
d="M337 553q0 -107 -36 -154.5t-117 -47.5t-117 47.5t-36 154.5q0 110 36 156.5t118 46.5q80 0 116 -46.5t36 -156.5zM265 553q0 43 -5 70.5t-14.5 43.5t-24.5 22t-36 6q-22 0 -37.5 -6t-25.5 -22t-15 -43.5t-5 -70.5t5 -70.5t15 -43.5t25.5 -22t37.5 -6q21 0 36 6t24.5 22
t14.5 43.5t5 70.5z" />
    <glyph glyph-name="one.numr" horiz-adv-x="271" 
d="M206 356h-73v226l3 79l-3 1l-83 -52l-6 60l117 82h45v-396z" />
    <glyph glyph-name="two.numr" horiz-adv-x="353" 
d="M317 641q0 -30 -13.5 -57t-37.5 -53.5t-57 -53.5t-73 -57v-3h183l-1 -61h-274v48q40 36 76 67.5t63 59.5t43 54t16 50q0 25 -17.5 41.5t-59.5 16.5q-30 0 -55.5 -10t-50.5 -27l-18 57q26 19 60.5 30.5t76.5 11.5q70 0 104.5 -31t34.5 -83z" />
    <glyph glyph-name="three.numr" horiz-adv-x="353" 
d="M329 474q0 -57 -37.5 -90t-118.5 -33q-42 0 -74 9t-55 23l16 56q24 -14 52 -21.5t61 -7.5q45 0 65.5 18.5t20.5 48.5q0 31 -26 46t-97 15v50q67 0 91 15t24 43q0 50 -76 50q-35 0 -61.5 -9t-50.5 -27l-18 53q23 18 58 30t74 12q67 0 104.5 -26.5t37.5 -77.5
q0 -35 -18 -55t-48 -31v-2q36 -9 56 -30t20 -59z" />
    <glyph glyph-name="four.numr" horiz-adv-x="368" 
d="M304 437v-81h-68v81h-202l-5 42l187 271h88v-254h47l-2 -59h-45zM240 606l3 81l-2 1l-83 -126l-46 -63l1 -3h125z" />
    <glyph glyph-name="five.numr" horiz-adv-x="368" 
d="M331 491q0 -66 -35 -103t-114 -37q-75 0 -127 30l12 57q27 -14 52 -21t58 -7q45 0 64 18.5t19 57.5q0 62 -80 62q-55 0 -93 -16l-29 25l18 193h234l2 -62h-180l-7 -91q17 4 34.5 6.5t36.5 2.5q66 0 100.5 -28.5t34.5 -86.5z" />
    <glyph glyph-name="six.numr" horiz-adv-x="368" 
d="M335 492q0 -70 -37 -105.5t-109 -35.5q-74 0 -113.5 44.5t-39.5 146.5q0 107 45.5 160t133.5 53q53 0 97 -16l-5 -59q-20 8 -39.5 11t-43.5 3q-55 0 -83 -26.5t-34 -83.5l2 -2q39 27 94 27q132 0 132 -117zM263 492q0 33 -17 48t-55 15q-20 0 -44 -8t-37 -24
q2 -62 20 -87t60 -25q73 0 73 81z" />
    <glyph glyph-name="seven.numr" horiz-adv-x="368" 
d="M335 689l-167 -333h-85l174 328h-221l3 66h296v-61z" />
    <glyph glyph-name="eight.numr" horiz-adv-x="368" 
d="M32 468q0 31 17.5 55t49.5 39v3q-23 11 -37 32t-14 55q0 48 32.5 75.5t104.5 27.5q71 0 103 -27t32 -76q0 -29 -14 -50.5t-39 -35.5v-2q29 -12 49 -34t20 -62q0 -117 -151 -117q-80 0 -116.5 29.5t-36.5 87.5zM264 463q0 17 -9 28.5t-24 19.5t-34 14t-39 12
q-23 -11 -39 -28t-16 -42q0 -31 18.5 -45.5t64.5 -14.5q35 0 56.5 13t21.5 43zM117 649q0 -15 7.5 -25t20 -17t29.5 -12t35 -10q23 12 34 26t11 34q0 28 -16 41.5t-53 13.5q-36 0 -52 -13t-16 -38z" />
    <glyph glyph-name="nine.numr" horiz-adv-x="368" 
d="M330 571q0 -116 -42 -168t-127 -52q-34 0 -56.5 5t-44.5 14l10 57q22 -8 41.5 -12.5t45.5 -4.5q51 0 78 30.5t32 101.5l-2 1q-36 -33 -92 -33q-74 0 -106 33.5t-32 85.5q0 56 35 91.5t107 35.5q79 0 116 -46.5t37 -138.5zM259 594q0 59 -20.5 81t-62.5 22
q-35 0 -54 -16.5t-19 -48.5t18 -50.5t60 -18.5q24 0 45.5 8.5t32.5 22.5z" />
    <glyph glyph-name="equal.numr" horiz-adv-x="370" 
d="M48 590v53h274v-53h-274zM48 473v53h274v-53h-274z" />
    <glyph glyph-name="cent.numr" horiz-adv-x="318" 
d="M287 665q-16 6 -35.5 10t-39.5 4q-58 0 -81.5 -27.5t-23.5 -93.5q0 -71 26.5 -99.5t77.5 -28.5q44 0 79 18l6 -53q-30 -21 -80 -25l-3 -79h-57l5 81q-64 9 -96.5 54.5t-32.5 131.5q0 84 33.5 130t109.5 52l5 77h57l-6 -78q17 -2 32 -6.5t29 -9.5z" />
    <glyph glyph-name="minus.numr" horiz-adv-x="370" 
d="M48 530v59h274v-59h-274z" />
    <glyph glyph-name="dollar.dnom" horiz-adv-x="318" 
d="M220 461l-5 -77q44 -5 78 -18l-10 -57q-26 8 -47.5 12.5t-47.5 4.5q-42 0 -56.5 -13.5t-14.5 -31.5q0 -17 14 -26.5t35 -16t45.5 -13.5t45.5 -18.5t35 -31.5t14 -52q0 -47 -27.5 -76.5t-79.5 -36.5l-3 -74h-56l4 73q-56 5 -97 28l10 60q26 -16 51 -23t57 -7
q37 0 55.5 13.5t18.5 36.5q0 18 -14 28t-35 17.5t-45.5 14.5t-45.5 18.5t-35 30.5t-14 51q0 40 25.5 70.5t83.5 36.5l5 77h56z" />
    <glyph glyph-name="parenleft.dnom" horiz-adv-x="210" 
d="M198 421q-35 -51 -53 -110.5t-18 -128.5q0 -70 18.5 -129t52.5 -110l-50 -4q-42 45 -64.5 107.5t-22.5 135.5q0 75 22 135t65 108z" />
    <glyph glyph-name="parenright.dnom" horiz-adv-x="210" 
d="M62 425q86 -95 86 -243q0 -73 -22 -135.5t-64 -107.5l-51 4q33 51 52 110t19 129q0 69 -18.5 128.5t-52.5 110.5z" />
    <glyph glyph-name="plus.dnom" horiz-adv-x="370" 
d="M212 170v-113h-57v113h-111v61h111v113h57v-113h114v-61h-114z" />
    <glyph glyph-name="comma.dnom" horiz-adv-x="158" 
d="M78 71q23 0 33 -12.5t10 -34.5q0 -10 -4.5 -24.5t-11.5 -30t-15.5 -30t-16.5 -25.5l-25 6l16 70q-11 4 -20 13.5t-9 23.5q0 20 10 32t33 12z" />
    <glyph glyph-name="period.dnom" horiz-adv-x="158" 
d="M123 31q0 -20 -10 -30t-34 -10q-23 0 -33.5 8.5t-10.5 31.5q0 42 44 42q24 0 34 -10.5t10 -31.5z" />
    <glyph glyph-name="zero.dnom" horiz-adv-x="368" 
d="M337 197q0 -107 -36 -154.5t-117 -47.5t-117 47.5t-36 154.5q0 110 36 156.5t118 46.5q80 0 116 -46.5t36 -156.5zM265 197q0 43 -5 70.5t-14.5 43.5t-24.5 22t-36 6q-22 0 -37.5 -6t-25.5 -22t-15 -43.5t-5 -70.5t5 -70.5t15 -43.5t25.5 -22t37.5 -6q21 0 36 6t24.5 22
t14.5 43.5t5 70.5z" />
    <glyph glyph-name="one.dnom" horiz-adv-x="271" 
d="M206 0h-73v226l3 79l-3 1l-83 -52l-6 60l117 82h45v-396z" />
    <glyph glyph-name="two.dnom" horiz-adv-x="353" 
d="M317 285q0 -30 -13.5 -57t-37.5 -53.5t-57 -53.5t-73 -57v-3h183l-1 -61h-274v48q40 36 76 67.5t63 59.5t43 54t16 50q0 25 -17.5 41.5t-59.5 16.5q-30 0 -55.5 -10t-50.5 -27l-18 57q26 19 60.5 30.5t76.5 11.5q70 0 104.5 -31t34.5 -83z" />
    <glyph glyph-name="three.dnom" horiz-adv-x="353" 
d="M329 118q0 -57 -37.5 -90t-118.5 -33q-42 0 -74 9t-55 23l16 56q24 -14 52 -21.5t61 -7.5q45 0 65.5 18.5t20.5 48.5q0 31 -26 46t-97 15v50q67 0 91 15t24 43q0 50 -76 50q-35 0 -61.5 -9t-50.5 -27l-18 53q23 18 58 30t74 12q67 0 104.5 -26.5t37.5 -77.5
q0 -35 -18 -55t-48 -31v-2q36 -9 56 -30t20 -59z" />
    <glyph glyph-name="four.dnom" horiz-adv-x="368" 
d="M304 81v-81h-68v81h-202l-5 42l187 271h88v-254h47l-2 -59h-45zM240 250l3 81l-2 1l-83 -126l-46 -63l1 -3h125z" />
    <glyph glyph-name="five.dnom" horiz-adv-x="368" 
d="M331 135q0 -66 -35 -103t-114 -37q-75 0 -127 30l12 57q27 -14 52 -21t58 -7q45 0 64 18.5t19 57.5q0 62 -80 62q-55 0 -93 -16l-29 25l18 193h234l2 -62h-180l-7 -91q17 4 34.5 6.5t36.5 2.5q66 0 100.5 -28.5t34.5 -86.5z" />
    <glyph glyph-name="six.dnom" horiz-adv-x="368" 
d="M335 136q0 -70 -37 -105.5t-109 -35.5q-74 0 -113.5 44.5t-39.5 146.5q0 107 45.5 160t133.5 53q53 0 97 -16l-5 -59q-20 8 -39.5 11t-43.5 3q-55 0 -83 -26.5t-34 -83.5l2 -2q39 27 94 27q132 0 132 -117zM263 136q0 33 -17 48t-55 15q-20 0 -44 -8t-37 -24
q2 -62 20 -87t60 -25q73 0 73 81z" />
    <glyph glyph-name="seven.dnom" horiz-adv-x="368" 
d="M335 333l-167 -333h-85l174 328h-221l3 66h296v-61z" />
    <glyph glyph-name="eight.dnom" horiz-adv-x="368" 
d="M32 112q0 31 17.5 55t49.5 39v3q-23 11 -37 32t-14 55q0 48 32.5 75.5t104.5 27.5q71 0 103 -27t32 -76q0 -29 -14 -50.5t-39 -35.5v-2q29 -12 49 -34t20 -62q0 -117 -151 -117q-80 0 -116.5 29.5t-36.5 87.5zM264 107q0 17 -9 28.5t-24 19.5t-34 14t-39 12
q-23 -11 -39 -28t-16 -42q0 -31 18.5 -45.5t64.5 -14.5q35 0 56.5 13t21.5 43zM117 293q0 -15 7.5 -25t20 -17t29.5 -12t35 -10q23 12 34 26t11 34q0 28 -16 41.5t-53 13.5q-36 0 -52 -13t-16 -38z" />
    <glyph glyph-name="nine.dnom" horiz-adv-x="368" 
d="M330 215q0 -116 -42 -168t-127 -52q-34 0 -56.5 5t-44.5 14l10 57q22 -8 41.5 -12.5t45.5 -4.5q51 0 78 30.5t32 101.5l-2 1q-36 -33 -92 -33q-74 0 -106 33.5t-32 85.5q0 56 35 91.5t107 35.5q79 0 116 -46.5t37 -138.5zM259 238q0 59 -20.5 81t-62.5 22
q-35 0 -54 -16.5t-19 -48.5t18 -50.5t60 -18.5q24 0 45.5 8.5t32.5 22.5z" />
    <glyph glyph-name="equal.dnom" horiz-adv-x="370" 
d="M48 234v53h274v-53h-274zM48 117v53h274v-53h-274z" />
    <glyph glyph-name="cent.dnom" horiz-adv-x="318" 
d="M287 309q-16 6 -35.5 10t-39.5 4q-58 0 -81.5 -27.5t-23.5 -93.5q0 -71 26.5 -99.5t77.5 -28.5q44 0 79 18l6 -53q-30 -21 -80 -25l-3 -79h-57l5 81q-64 9 -96.5 54.5t-32.5 131.5q0 84 33.5 130t109.5 52l5 77h57l-6 -78q17 -2 32 -6.5t29 -9.5z" />
    <glyph glyph-name="minus.dnom" horiz-adv-x="370" 
d="M48 174v59h274v-59h-274z" />
    <glyph glyph-name="numbersign.osf" horiz-adv-x="597" 
d="M146 257l23 141h-124v70h134l26 181h75l-26 -181h131l26 181h73l-26 -181h94v-70h-104l-23 -141h127v-71h-136l-27 -186h-73l27 186h-132l-27 -186h-74l27 186h-92v71h101zM221 257h132l22 141h-131z" />
    <glyph glyph-name="dollar.osf" horiz-adv-x="491" 
d="M448 175q0 -75 -39 -124t-126 -60l-7 -135h-75l7 133q-45 3 -84.5 15t-68.5 34l12 82q34 -26 80.5 -39t89.5 -13q66 0 94.5 28t28.5 70q0 34 -22.5 53.5t-56.5 33t-73.5 25.5t-73.5 31t-56.5 49.5t-22.5 80.5q0 71 45 115t135 51l8 126h76l-9 -128q59 -6 114 -31l-8 -80
q-38 16 -78.5 24t-76.5 8q-54 0 -85 -21.5t-31 -58.5q0 -32 22.5 -49.5t56 -30.5t73 -24.5t73 -30.5t56 -50.5t22.5 -83.5z" />
    <glyph glyph-name="zero.osf" horiz-adv-x="626" 
d="M570 313q0 -169 -61 -246t-196 -77q-68 0 -117 19t-80.5 58.5t-46 100.5t-14.5 145q0 87 14.5 149t46 101t80.5 57.5t118 18.5q67 0 115.5 -18.5t80 -57.5t46 -101t14.5 -149zM475 314q0 70 -9.5 116t-29.5 73t-50.5 38t-71.5 11q-42 0 -73.5 -11t-51.5 -38t-30 -73
t-10 -116q0 -71 10 -117t30 -73t51.5 -38t73.5 -11q41 0 71.5 11t50.5 38.5t29.5 73.5t9.5 116z" />
    <glyph glyph-name="one.osf" horiz-adv-x="467" 
d="M343 0h-97v428l2 80l-2 2l-147 -94l-10 83l197 133h57v-632z" />
    <glyph glyph-name="two.osf" horiz-adv-x="588" 
d="M521 457q0 -50 -23.5 -94.5t-65.5 -88.5t-101.5 -89.5t-131.5 -97.5v-3h327l-3 -84h-456v65q69 58 133.5 109.5t114 98t79 90t29.5 86.5q0 22 -8.5 40.5t-26.5 32.5t-46 22t-68 8q-51 0 -97.5 -17.5t-85.5 -46.5l-26 78q42 32 100 52.5t124 20.5q115 0 173.5 -50
t58.5 -132z" />
    <glyph glyph-name="three.osf" horiz-adv-x="578" 
d="M519 163q0 -64 -26.5 -114t-77.5 -85t-124.5 -54t-166.5 -21l-8 80q83 1 142.5 17t97 41.5t55 60t17.5 73.5q0 55 -38.5 85t-116.5 31q-15 0 -33.5 -2t-34.5 -4l-4 68q61 7 100.5 17.5t62.5 25.5t32 34.5t9 43.5q0 20 -7.5 37.5t-24 30t-44 19.5t-66.5 7
q-57 0 -102 -15.5t-85 -44.5l-23 77q36 30 94 49t122 19q113 0 168 -47t55 -119q0 -106 -98 -148v-2q66 -17 95.5 -58.5t29.5 -101.5z" />
    <glyph glyph-name="four.osf" horiz-adv-x="614" 
d="M498 68v-172l-88 -6v178h-365l-8 64l355 506l106 -7v-483h89l-4 -80h-85zM419 472l3 81l-2 1l-45 -68l-186 -272l-46 -63l1 -3h269z" />
    <glyph glyph-name="five.osf" horiz-adv-x="567" 
d="M518 177q0 -64 -25 -116.5t-75.5 -90t-125 -59t-173.5 -23.5l-8 84q79 2 137.5 17t97.5 40.5t58 60.5t19 77q0 57 -39 87.5t-120 30.5q-49 0 -90.5 -10.5t-73.5 -27.5l-36 38l29 345h390l5 -92h-320l-16 -193q32 11 68 17.5t72 6.5q111 0 168.5 -50t57.5 -142z" />
    <glyph glyph-name="six.osf" horiz-adv-x="592" 
d="M543 252q0 -132 -61.5 -196.5t-180.5 -64.5q-59 0 -106 18.5t-79.5 58.5t-49.5 103.5t-17 154.5q0 105 31 182.5t85 129.5t126 78.5t154 28.5l14 -84q-145 -4 -224.5 -72.5t-92.5 -186.5l2 -2q36 29 81.5 46t95.5 17q114 0 168 -52t54 -159zM450 252q0 69 -35.5 101.5
t-110.5 32.5q-20 0 -42.5 -5t-43.5 -14t-40 -21.5t-32 -28.5q1 -68 11.5 -113.5t30 -73t48 -39.5t66.5 -12q72 0 110 42.5t38 130.5z" />
    <glyph glyph-name="seven.osf" horiz-adv-x="581" 
d="M531 547l-301 -647h-107l304 635h-380l6 94h478v-82z" />
    <glyph glyph-name="eight.osf" horiz-adv-x="601" 
d="M49 175q0 51 31.5 92t86.5 65v3q-41 19 -66 51.5t-25 88.5q0 37 13 67.5t40.5 52t70 33t102.5 11.5q116 0 169.5 -44t53.5 -121q0 -48 -24.5 -84t-69.5 -59v-2q25 -9 47.5 -22t38.5 -31t25.5 -42.5t9.5 -57.5q0 -186 -250 -186q-132 0 -192.5 48t-60.5 137zM457 171
q0 31 -17.5 51t-46 33.5t-65 23t-73.5 20.5q-24 -9 -44.5 -21t-36 -27t-24.5 -33.5t-9 -40.5q0 -55 37 -82t125 -27q71 0 112.5 24.5t41.5 78.5zM166 470q0 -26 13.5 -43.5t36 -29.5t51.5 -20.5t61 -16.5l16 -4q49 20 72.5 46.5t23.5 62.5q0 48 -31.5 72.5t-108.5 24.5
q-74 0 -104 -24t-30 -68z" />
    <glyph glyph-name="nine.osf" horiz-adv-x="582" 
d="M533 332q0 -114 -30 -196.5t-82.5 -136.5t-124 -80.5t-155.5 -28.5l-9 83q62 3 114.5 21.5t92.5 53t65 85.5t32 118l-2 1q-61 -61 -166 -61q-101 0 -160 54.5t-59 165.5q0 104 58.5 166t176.5 62q119 0 184 -74.5t65 -232.5zM438 350q-2 107 -38 153.5t-117 46.5
q-69 0 -104 -35t-35 -102q0 -68 34.5 -103t109.5 -35q51 0 90 18t60 57z" />
    <glyph glyph-name="cent.osf" horiz-adv-x="500" 
d="M445 491q-26 12 -57.5 19.5t-63.5 7.5q-48 0 -82 -12t-55 -38t-30.5 -67t-9.5 -99q0 -63 11.5 -107t33.5 -71t54.5 -39.5t75.5 -12.5q71 0 127 34l7 -78q-23 -16 -56 -26.5t-73 -13.5l-6 -132h-76l7 135q-101 13 -152 88t-51 223q0 142 53 217.5t170 84.5l9 127h75
l-9 -129q29 -3 55.5 -10t48.5 -16z" />
    <glyph glyph-name="sterling.osf" horiz-adv-x="549" 
d="M52 360h45q-8 26 -14 52t-6 56q0 38 12 72t40.5 60t75 41.5t115.5 15.5q51 0 92.5 -9t75.5 -23l-13 -79q-28 12 -66.5 20.5t-80.5 8.5q-43 0 -72.5 -8.5t-48 -23.5t-27 -36t-8.5 -46q0 -26 5 -50.5t12 -50.5h237v-71h-220q3 -17 5 -36t2 -40q0 -48 -16.5 -82.5
t-46.5 -54.5l1 -2q43 8 88 11t100 3q48 0 93.5 -3t89.5 -8l-6 -82q-59 5 -111.5 8.5t-109.5 3.5q-32 0 -62 -0.5t-60.5 -2t-62.5 -3.5t-68 -5l-3 79q43 14 64 51t21 82q0 43 -8 81h-60z" />
    <glyph glyph-name="currency.osf" horiz-adv-x="597" 
d="M124 329q0 53 28 97l-63 64l49 54l65 -68q21 14 45 21.5t50 7.5t50 -7.5t44 -21.5l67 68l49 -53l-65 -67q28 -44 28 -95q0 -50 -25 -91l62 -64l-49 -53l-62 63q-43 -31 -99 -31t-99 31l-62 -64l-48 54l60 63q-25 41 -25 92zM189 330q0 -23 8.5 -42t23 -33.5t34 -22.5
t42.5 -8t43 8t34.5 22.5t23 33.5t8.5 42q0 22 -8.5 41t-23 33t-34.5 22.5t-43 8.5t-42.5 -8.5t-34 -22.5t-23 -33t-8.5 -41z" />
    <glyph glyph-name="yen.osf" horiz-adv-x="597" 
d="M225 293l-198 356h104l133 -270l34 -73h3l33 73l131 270h102l-193 -356h99v-53h-124v-51h124v-52h-124v-137h-99v137h-126v52h126v51h-126v53h101z" />
    <glyph glyph-name="franc.osf" horiz-adv-x="597" 
d="M116 160v489h435l2 -86h-344v-191h266v-82h-266v-130h85v-65h-85v-95h-93v95h-81v65h81z" />
    <glyph glyph-name="lira.osf" horiz-adv-x="597" 
d="M63 398h32q-9 31 -9 67q0 38 12.5 73t42 61.5t77.5 42.5t120 16q53 0 97.5 -9.5t80.5 -25.5l-13 -79q-30 14 -71.5 22t-85.5 8q-45 0 -77 -9t-51.5 -24.5t-28.5 -36.5t-9 -46q0 -16 2 -31t5 -29h274v-51h-260q4 -13 7.5 -25.5t6.5 -26.5h246v-50h-239q1 -8 1.5 -16.5
t0.5 -16.5q0 -48 -17 -82t-48 -54l1 -2q46 8 92.5 11.5t105.5 3.5q50 0 98.5 -3.5t93.5 -8.5l-6 -82q-62 5 -116.5 8.5t-114.5 3.5q-33 0 -64.5 -0.5t-63 -1.5t-65 -3.5t-71.5 -5.5l-3 80q45 14 66.5 50.5t21.5 80.5q0 10 -0.5 19.5t-1.5 18.5h-63l-2 50h57q-3 14 -6.5 26.5
t-7.5 25.5h-43z" />
    <glyph glyph-name="peseta.osf" horiz-adv-x="597" 
d="M269 460q0 -56 -6 -93t-20.5 -59t-38.5 -30.5t-59 -8.5h-48v-269h-57v649h104q34 0 58 -8.5t39 -29.5t21.5 -57.5t6.5 -93.5zM362 348v-264q0 -21 7.5 -29t18.5 -8q4 0 8 1.5t7 3.5l2 -51q-5 -4 -13.5 -6t-17.5 -2q-30 0 -46.5 21t-16.5 69v265h-23v51h25l9 92l39 7v-99
h48v-51h-47zM567 111q0 -63 -20.5 -91t-61.5 -28q-34 0 -54 17l2 55q20 -16 46 -16q40 0 40 63q0 31 -14 47t-31.5 31t-31.5 37.5t-14 67.5q0 46 20.5 78.5t60.5 32.5q15 0 27.5 -4.5t21.5 -11.5l-3 -56q-21 13 -42 13q-19 0 -27.5 -14t-8.5 -37q0 -20 6.5 -32.5t16.5 -22
t22 -19t22 -23t16.5 -34.5t6.5 -53zM212 459q0 39 -3.5 63t-11.5 37.5t-20.5 18t-31.5 4.5h-48v-250h48q18 0 30.5 4.5t20.5 18t12 38.5t4 66z" />
    <glyph glyph-name="Euro.osf" horiz-adv-x="597" 
d="M534 544q-29 14 -64.5 21.5t-73.5 7.5q-95 0 -144 -37.5t-63 -117.5h307l-19 -55h-294q-1 -8 -1 -17v-35q0 -9 1 -17h272l-19 -52h-247q16 -91 68 -130.5t138 -39.5q42 0 81 10.5t72 32.5l6 -79q-32 -22 -79 -35.5t-104 -13.5q-128 0 -200 62.5t-90 192.5h-48v52h43v69
h-43v55h49q17 117 88 179.5t204 62.5q52 0 101 -10.5t84 -27.5z" />
    <glyph glyph-name="numbersign.lf" horiz-adv-x="642" 
d="M174 293l28 168h-146v76h156l30 213h76l-31 -213h114l31 213h74l-31 -213h112v-76h-123l-26 -168h148v-76h-158l-32 -217h-73l31 217h-115l-31 -217h-75l31 217h-109v76h119zM249 293h115l27 168h-115z" />
    <glyph glyph-name="dollar.lf" horiz-adv-x="600" 
d="M228 -78l6 67q-51 5 -98 17.5t-79 32.5l12 94q38 -23 82 -38t92 -20l28 270q-40 14 -78.5 31t-69 41t-49 58t-18.5 83q0 97 66 149.5t191 54.5l7 65l60 -4l-7 -64q42 -4 77.5 -13t58.5 -20l-7 -89q-32 12 -67 20t-72 11l-25 -237q39 -14 76.5 -31t67 -42.5t47.5 -62
t18 -88.5q0 -113 -62.5 -166t-194.5 -55l-7 -69zM468 195q0 26 -11.5 45.5t-31 35t-45 27t-54.5 22.5l-27 -253q87 1 128 31.5t41 91.5zM144 563q0 -23 11 -40t29.5 -30t43.5 -23.5t53 -19.5l23 221q-84 -1 -122 -31t-38 -77z" />
    <glyph glyph-name="zero.lf" horiz-adv-x="634" 
d="M584 374q0 -104 -15.5 -177t-48 -119.5t-83 -67.5t-120.5 -21q-71 0 -122 21t-83.5 67.5t-47.5 119.5t-15 177q0 107 15 180.5t47.5 119t83.5 65.5t122 20q70 0 121 -20t83 -65.5t47.5 -119t15.5 -180.5zM486 375q0 90 -10 147t-31 89.5t-53 45t-75 12.5q-44 0 -76 -12.5
t-53 -45.5t-31.5 -90t-10.5 -146q0 -91 10.5 -148.5t31.5 -90.5t53 -45t76 -12t76 12.5t52.5 45.5t30.5 90.5t10 147.5z" />
    <glyph glyph-name="one.lf" horiz-adv-x="474" 
d="M349 0h-102v538l2 81l-2 1l-156 -106l-11 88l210 150h59v-752z" />
    <glyph glyph-name="two.lf" horiz-adv-x="630" 
d="M556 552q0 -58 -26 -112.5t-72 -110t-109.5 -113t-138.5 -121.5v-3h351l-3 -92h-483v69q72 69 140 132t121.5 121.5t85.5 113t32 106.5q0 26 -9 49t-28.5 39.5t-49.5 26t-73 9.5q-54 0 -103 -20.5t-90 -52.5l-26 83q43 35 103.5 58.5t132.5 23.5q121 0 183 -55t62 -151z
" />
    <glyph glyph-name="three.lf" horiz-adv-x="630" 
d="M570 224q0 -53 -16.5 -95.5t-50 -73.5t-85.5 -47.5t-123 -16.5q-75 0 -129.5 17.5t-95.5 42.5l21 82q44 -26 93 -40.5t109 -14.5q93 0 136.5 42t43.5 108q0 34 -12.5 58.5t-40.5 40.5t-74 24t-112 8v75q62 0 104.5 8.5t69 24.5t38 39.5t11.5 53.5q0 55 -41.5 82
t-116.5 27q-62 0 -109.5 -19t-89.5 -53l-26 80q40 34 99 57.5t131 23.5q116 0 180.5 -49t64.5 -142q0 -66 -33.5 -106t-89.5 -60v-2q69 -18 106.5 -60t37.5 -115z" />
    <glyph glyph-name="four.lf" horiz-adv-x="645" 
d="M504 163v-163h-92v163h-346l-9 65l326 522h121v-500h95l-4 -87h-91zM420 582l3 81l-2 1l-210 -346l-43 -65l1 -3h246z" />
    <glyph glyph-name="five.lf" horiz-adv-x="604" 
d="M554 256q0 -128 -64 -196.5t-198 -68.5q-66 0 -119.5 15.5t-98.5 44.5l19 84q44 -27 88 -42t103 -15q90 0 131.5 42t41.5 127q0 75 -40.5 108t-126.5 33q-49 0 -95 -10.5t-79 -27.5l-38 39l30 361h409l4 -92h-335l-17 -209q34 12 71.5 18t75.5 6q238 0 238 -217z" />
    <glyph glyph-name="six.lf" horiz-adv-x="618" 
d="M568 258q0 -134 -64 -200.5t-189 -66.5q-65 0 -114.5 19t-83 61.5t-51 111.5t-17.5 169q0 206 80 306.5t233 100.5q46 0 85.5 -7t80.5 -23l-9 -88q-36 14 -69.5 20t-75.5 6q-110 0 -166 -60.5t-64 -192.5l3 -2q38 31 86.5 48.5t101.5 17.5q120 0 176.5 -54t56.5 -166z
M471 259q0 72 -36.5 106t-117.5 34q-21 0 -45 -5t-46.5 -14.5t-42 -23t-33.5 -29.5q1 -69 10.5 -116.5t30 -77t51 -42.5t73.5 -13q156 0 156 181z" />
    <glyph glyph-name="seven.lf" horiz-adv-x="626" 
d="M575 663l-312 -663h-113l328 654h-420l5 96h512v-87z" />
    <glyph glyph-name="eight.lf" horiz-adv-x="624" 
d="M49 208q0 63 36 111t97 76v3q-46 23 -75 62t-29 107q0 45 13.5 80t42 60t73 38t106.5 13q121 0 177.5 -49t56.5 -142q0 -57 -28.5 -101t-80.5 -72v-2q28 -11 53 -26t43.5 -37t29 -51.5t10.5 -69.5q0 -109 -65.5 -163t-195.5 -54q-137 0 -200.5 54t-63.5 163zM478 201
q0 38 -18 63t-47.5 41.5t-66.5 28.5t-76 25q-27 -12 -50 -26.5t-40 -33t-26.5 -41.5t-9.5 -51q0 -68 39 -101t132 -33q75 0 119 30t44 98zM170 563q0 -34 15 -56.5t40.5 -38t58 -26t67.5 -20.5q56 26 82 58.5t26 78.5q0 59 -35.5 88t-111.5 29q-73 0 -107.5 -28.5
t-34.5 -84.5z" />
    <glyph glyph-name="nine.lf" horiz-adv-x="618" 
d="M569 412q0 -113 -19 -193t-56.5 -130.5t-93.5 -74t-130 -23.5q-53 0 -93 8t-82 27l15 84q37 -16 72 -23.5t78 -7.5q53 0 92 15.5t65.5 49t40.5 86.5t17 128l-2 1q-37 -31 -83 -45t-100 -14q-62 0 -107.5 16t-75 45t-44 70t-14.5 92q0 109 61.5 172.5t189.5 63.5
q127 0 198 -86t71 -261zM471 448q-1 61 -13 103.5t-34.5 69.5t-54.5 39t-71 12q-154 0 -154 -145q0 -69 38.5 -107.5t123.5 -38.5q51 0 93.5 16t71.5 51z" />
    <glyph glyph-name="cent.lf" horiz-adv-x="649" 
d="M502 491q-26 12 -57.5 19.5t-63.5 7.5q-48 0 -82 -12t-55 -38t-30.5 -67t-9.5 -99q0 -63 11.5 -107t33.5 -71t54.5 -39.5t75.5 -12.5q71 0 127 34l7 -78q-23 -16 -56 -26.5t-72 -13.5l-7 -132h-75l7 134q-101 13 -152.5 88.5t-51.5 223.5q0 142 53 217.5t170 84.5l9 127
h75l-9 -129q29 -3 55.5 -10t48.5 -16z" />
    <glyph glyph-name="sterling.lf" horiz-adv-x="639" 
d="M72 415h52q-10 32 -17.5 63t-7.5 67q0 43 14 82t45.5 68.5t83.5 47t129 17.5q57 0 104.5 -10t84.5 -27l-14 -90q-32 15 -75.5 25t-89.5 10q-48 0 -82 -10t-55.5 -28t-31 -42.5t-9.5 -52.5q0 -31 6.5 -60t14.5 -60h266v-80h-247q8 -43 8 -89q0 -56 -20 -97t-55 -64l1 -2
q49 10 100 13.5t114 3.5q54 0 106 -3.5t101 -8.5l-5 -94q-66 7 -125 10.5t-123 3.5q-36 0 -70 -0.5t-68.5 -2t-70.5 -4t-76 -6.5l-5 90q49 17 74 59.5t25 96.5q0 27 -2.5 50t-6.5 44h-69z" />
    <glyph glyph-name="currency.lf" horiz-adv-x="581" 
d="M110 361q0 28 7.5 53t21.5 47l-65 68l50 55l69 -70q21 14 45.5 21.5t51.5 7.5q53 0 97 -30l70 71l51 -55l-69 -69q14 -22 21.5 -47t7.5 -52q0 -52 -25 -94l64 -66l-51 -55l-65 66q-21 -15 -46.5 -23.5t-54.5 -8.5q-57 0 -102 31l-64 -66l-51 56l63 64q-26 43 -26 96z
M175 363q0 -23 9 -43.5t24.5 -35.5t36 -23.5t44.5 -8.5t45 8.5t36 23.5t24 35.5t9 43.5t-9 43t-24 35t-36 24t-45 9t-44.5 -9t-36 -24t-24.5 -35t-9 -43z" />
    <glyph glyph-name="yen.lf" horiz-adv-x="722" 
d="M281 341l-219 409h117l151 -337l32 -74h3l31 74l150 337h114l-215 -409h109v-59h-135v-51h136v-58h-136v-173h-111v173h-136v58h136v51h-136v59h109z" />
    <glyph glyph-name="franc.lf" horiz-adv-x="617" 
d="M105 181v569h460l3 -97h-361v-225h279v-91h-279v-156h91v-72h-91v-109h-102v109h-85v72h85z" />
    <glyph glyph-name="lira.lf" horiz-adv-x="662" 
d="M76 460h36q-5 20 -8.5 41t-3.5 44q0 43 14 82t45.5 68.5t83.5 47t129 17.5q57 0 104.5 -10t84.5 -27l-14 -90q-32 15 -75.5 25t-89.5 10q-48 0 -82 -10.5t-55.5 -29t-31 -43.5t-9.5 -53q0 -38 9 -72h291v-58h-276q4 -14 7.5 -29t6.5 -31h262v-58h-254q1 -9 1.5 -18.5
t0.5 -19.5q0 -56 -20 -97t-55 -64l1 -2q49 10 100 13.5t114 3.5q54 0 105.5 -3.5t101.5 -8.5l-5 -94q-66 7 -125 10.5t-123 3.5q-36 0 -70 -0.5t-68.5 -2t-70.5 -4t-76 -6.5l-5 90q49 17 74 59.5t25 96.5q0 11 -0.5 21.5t-1.5 21.5h-69l-3 58h63q-3 16 -7 31t-9 29h-48z" />
    <glyph glyph-name="peseta.lf" horiz-adv-x="799" 
d="M377 529q0 -61 -9.5 -103.5t-30.5 -69.5t-54 -39t-79 -12h-61v-305h-74v750h135q45 0 77.5 -11t53.5 -36.5t31.5 -68t10.5 -105.5zM494 399v-298q0 -25 9.5 -34.5t23.5 -9.5q11 0 19 5l3 -62q-5 -4 -17 -6.5t-23 -2.5q-80 0 -80 109v299h-30v61h32l11 105l52 7v-112h59
v-61h-59zM761 128q0 -72 -25.5 -105.5t-79.5 -33.5q-20 0 -39 6t-31 17l2 67q14 -11 30.5 -16.5t33.5 -5.5q50 0 50 69q0 25 -9 40t-22.5 27t-29 22.5t-29 25.5t-22.5 38t-9 59q0 55 26 91.5t77 36.5q20 0 36 -5.5t30 -14.5l-5 -66q-26 16 -57 16q-45 0 -45 -57
q0 -23 8.5 -36.5t22 -24t28.5 -21t28.5 -26.5t22 -40.5t8.5 -62.5zM300 528q0 42 -5 70t-16.5 44t-29.5 22.5t-45 6.5h-62v-290h62q25 0 43.5 6t30 22t17 44.5t5.5 74.5z" />
    <glyph glyph-name="Euro.lf" horiz-adv-x="663" 
d="M473 287h-257q14 -115 70 -163.5t154 -48.5q45 0 87 12t80 33l8 -77q-37 -24 -88 -37.5t-108 -13.5q-140 0 -212.5 72t-88.5 223h-87l1 57h82v61h-82l-1 59h87q17 140 94 216t213 76q51 0 98 -9.5t79 -26.5l-20 -81q-33 14 -65 21t-74 7q-196 0 -226 -203h307l-14 -59
h-299v-61h275z" />
    <glyph glyph-name="numbersign.tosf" horiz-adv-x="597" 
d="M146 257l23 141h-124v70h134l26 181h75l-26 -181h131l26 181h73l-26 -181h94v-70h-104l-23 -141h127v-71h-136l-27 -186h-73l27 186h-132l-27 -186h-74l27 186h-92v71h101zM221 257h132l22 141h-131z" />
    <glyph glyph-name="dollar.tosf" horiz-adv-x="597" 
d="M520 177q0 -38 -11 -70t-34.5 -57t-59.5 -41t-87 -20l-8 -136h-81l9 136q-50 4 -93 17t-77 36l14 86q20 -14 44 -24.5t50 -18t52.5 -11t50.5 -3.5q71 0 102 28t31 68q0 33 -25.5 51.5t-63.5 31t-82.5 24t-82.5 30t-63.5 49.5t-25.5 83q0 72 49.5 116.5t147.5 52.5l9 131
h81l-10 -132q73 -7 140 -35l-10 -85q-44 18 -87.5 26.5t-87.5 8.5q-63 0 -97 -21.5t-34 -56.5q0 -31 25 -48t63 -28.5t82 -22.5t82 -30t63 -50.5t25 -84.5z" />
    <glyph glyph-name="zero.tosf" horiz-adv-x="597" 
d="M556 313q0 -169 -61 -246t-197 -77q-68 0 -117 19t-80 58.5t-45.5 100.5t-14.5 145q0 87 14.5 149t46 101t80.5 57.5t117 18.5q67 0 116 -18.5t80 -57.5t46 -101t15 -149zM461 314q0 70 -9.5 116t-29.5 73t-50.5 38t-72.5 11t-73 -11t-51 -38t-30 -73t-10 -116
q0 -71 10 -117t30 -73t51 -38t73 -11t72.5 11t50.5 38.5t29.5 73.5t9.5 116z" />
    <glyph glyph-name="one.tosf" horiz-adv-x="597" 
d="M111 63h174v451l-198 -114l-10 83l248 149h57v-569h159v-63h-430v63z" />
    <glyph glyph-name="two.tosf" horiz-adv-x="597" 
d="M526 457q0 -50 -23.5 -94.5t-65.5 -88.5t-101.5 -89.5t-131.5 -97.5v-3h327l-3 -84h-456v65q69 58 133.5 109.5t114 98t79 90t29.5 86.5q0 44 -34.5 73.5t-113.5 29.5q-51 0 -98 -17.5t-85 -46.5l-27 78q42 32 100 52.5t124 20.5q115 0 173.5 -50t58.5 -132z" />
    <glyph glyph-name="three.tosf" horiz-adv-x="597" 
d="M531 163q0 -64 -26.5 -114t-77 -85t-124 -54t-167.5 -21l-8 80q83 1 142.5 17t97.5 41.5t55.5 60t17.5 73.5q0 55 -38.5 85t-116.5 31q-16 0 -34.5 -2t-33.5 -4l-5 68q61 7 100.5 17.5t62.5 25.5t32.5 34.5t9.5 43.5q0 20 -7.5 37.5t-24 30t-44 19.5t-66.5 7
q-57 0 -102 -15.5t-85 -44.5l-23 77q36 30 93.5 49t122.5 19q112 0 167 -47t55 -119q0 -106 -97 -148v-2q65 -17 94.5 -58.5t29.5 -101.5z" />
    <glyph glyph-name="four.tosf" horiz-adv-x="597" 
d="M488 68v-172l-87 -6v178h-366l-7 64l354 506l106 -7v-483h89l-3 -80h-86zM409 471l3 81l-2 1l-45 -68l-186 -271l-46 -63l1 -3h269z" />
    <glyph glyph-name="five.tosf" horiz-adv-x="597" 
d="M533 177q0 -64 -25 -116.5t-75 -90t-124.5 -59t-173.5 -23.5l-9 84q79 2 138 17t98 40.5t58 60.5t19 77q0 57 -39.5 87.5t-120.5 30.5q-49 0 -90.5 -10.5t-73.5 -27.5l-36 38l30 345h389l5 -92h-320l-16 -193q32 11 68 17.5t72 6.5q111 0 168.5 -50t57.5 -142z" />
    <glyph glyph-name="six.tosf" horiz-adv-x="597" 
d="M548 252q0 -132 -62 -196.5t-180 -64.5q-59 0 -106 18.5t-79.5 58.5t-49.5 103.5t-17 154.5q0 105 31 182.5t84.5 129.5t125.5 78.5t154 28.5l15 -84q-144 -4 -224 -72t-93 -186l2 -2q36 29 81.5 45.5t95.5 16.5q114 0 168 -52t54 -159zM454 252q0 69 -35 101.5
t-110 32.5q-21 0 -43 -5t-43.5 -14t-40 -21.5t-31.5 -28.5q1 -68 11 -113.5t29.5 -73t48.5 -39.5t67 -12q72 0 109.5 42.5t37.5 130.5z" />
    <glyph glyph-name="seven.tosf" horiz-adv-x="597" 
d="M541 547l-301 -647h-106l304 635h-381l6 94h478v-82z" />
    <glyph glyph-name="eight.tosf" horiz-adv-x="597" 
d="M49 175q0 51 31.5 92t85.5 65v3q-40 19 -65 51.5t-25 88.5q0 37 13 67.5t40 52t69.5 33t102.5 11.5q117 0 170.5 -43.5t53.5 -121.5q0 -48 -24.5 -84t-69.5 -59v-2q25 -9 47.5 -22t38.5 -31t25.5 -42.5t9.5 -57.5q0 -186 -251 -186q-132 0 -192 47.5t-60 137.5zM457 171
q0 31 -17.5 51t-46 33.5t-65 23t-73.5 20.5q-24 -9 -44.5 -21t-36 -27t-24.5 -33.5t-9 -40.5q0 -55 36.5 -82t125.5 -27q70 0 112 24.5t42 78.5zM166 470q0 -26 13.5 -43.5t37.5 -30t56.5 -22t70.5 -18.5q49 20 72.5 46.5t23.5 62.5q0 48 -32 72.5t-108 24.5
q-74 0 -104 -24.5t-30 -67.5z" />
    <glyph glyph-name="nine.tosf" horiz-adv-x="597" 
d="M540 332q0 -114 -30 -196.5t-82.5 -136.5t-124.5 -80.5t-156 -28.5l-9 83q63 3 115.5 21.5t92.5 53t64.5 85.5t32.5 118l-2 1q-61 -61 -167 -61q-101 0 -159.5 54.5t-58.5 165.5q0 104 58 166t177 62q118 0 183.5 -74.5t65.5 -232.5zM444 350q-2 106 -38 153t-117 47
q-69 0 -103.5 -35t-34.5 -102q0 -68 34.5 -103t109.5 -35q51 0 90 18t59 57z" />
    <glyph glyph-name="cent.tosf" horiz-adv-x="597" 
d="M523 484q-32 14 -69 22t-75 8q-111 0 -158 -51t-47 -162q0 -62 13.5 -105t40 -70t64.5 -39t87 -12q42 0 80 9.5t69 28.5l8 -81q-26 -17 -65.5 -29t-87.5 -15l-8 -137h-79l8 139q-115 14 -173 90t-58 220q0 138 60 216t193 86l10 134h79l-10 -135q35 -3 67 -11t58 -19z
" />
    <glyph glyph-name="sterling.tosf" horiz-adv-x="597" 
d="M56 361h46q-8 26 -13.5 50.5t-5.5 53.5q0 38 12.5 73t41.5 61.5t77.5 42.5t120.5 16q53 0 97.5 -9.5t80.5 -25.5l-13 -79q-30 14 -71.5 22t-85.5 8q-45 0 -77 -9t-51.5 -24.5t-28.5 -36.5t-9 -46q0 -26 5 -49.5t12 -47.5h252v-72h-234q4 -18 6 -37t2 -40q0 -48 -17 -82
t-47 -54l1 -2q46 8 92.5 11.5t105.5 3.5q50 0 98 -3.5t94 -8.5l-6 -82q-62 5 -116.5 8.5t-114.5 3.5q-33 0 -64.5 -0.5t-63 -1.5t-65 -3.5t-71.5 -5.5l-3 80q45 14 66.5 50.5t21.5 80.5q0 23 -2.5 43.5t-6.5 38.5h-62z" />
    <glyph glyph-name="currency.tosf" horiz-adv-x="597" 
d="M124 329q0 53 28 97l-63 64l49 54l65 -68q21 14 45 21.5t50 7.5t50 -7.5t44 -21.5l67 68l49 -53l-65 -67q28 -44 28 -95q0 -50 -25 -91l62 -64l-49 -53l-62 63q-43 -31 -99 -31t-99 31l-62 -64l-48 54l60 63q-25 41 -25 92zM189 330q0 -23 8.5 -42t23 -33.5t34 -22.5
t42.5 -8t43 8t34.5 22.5t23 33.5t8.5 42q0 22 -8.5 41t-23 33t-34.5 22.5t-43 8.5t-42.5 -8.5t-34 -22.5t-23 -33t-8.5 -41z" />
    <glyph glyph-name="yen.tosf" horiz-adv-x="597" 
d="M225 293l-198 356h104l133 -270l34 -73h3l33 73l131 270h102l-193 -356h99v-53h-124v-51h124v-52h-124v-137h-99v137h-126v52h126v51h-126v53h101z" />
    <glyph glyph-name="uni2007.tosf" horiz-adv-x="597" 
 />
    <glyph glyph-name="franc.tosf" horiz-adv-x="597" 
d="M116 160v489h435l2 -86h-344v-191h266v-82h-266v-130h85v-65h-85v-95h-93v95h-81v65h81z" />
    <glyph glyph-name="lira.tosf" horiz-adv-x="597" 
d="M63 398h32q-9 31 -9 67q0 38 12.5 73t42 61.5t77.5 42.5t120 16q53 0 97.5 -9.5t80.5 -25.5l-13 -79q-30 14 -71.5 22t-85.5 8q-45 0 -77 -9t-51.5 -24.5t-28.5 -36.5t-9 -46q0 -16 2 -31t5 -29h274v-51h-260q4 -13 7.5 -25.5t6.5 -26.5h246v-50h-239q1 -8 1.5 -16.5
t0.5 -16.5q0 -48 -17 -82t-48 -54l1 -2q46 8 92.5 11.5t105.5 3.5q50 0 98.5 -3.5t93.5 -8.5l-6 -82q-62 5 -116.5 8.5t-114.5 3.5q-33 0 -64.5 -0.5t-63 -1.5t-65 -3.5t-71.5 -5.5l-3 80q45 14 66.5 50.5t21.5 80.5q0 10 -0.5 19.5t-1.5 18.5h-63l-2 50h57q-3 14 -6.5 26.5
t-7.5 25.5h-43z" />
    <glyph glyph-name="peseta.tosf" horiz-adv-x="597" 
d="M521 419q-6 -89 -58.5 -132.5t-165.5 -43.5h-125v-243h-90v419h-57v47h57v183h215q113 0 166 -44t58 -139h61v-47h-61zM171 466h258q-5 57 -36 80t-96 23h-126v-103zM297 319q61 0 93.5 20.5t38.5 79.5h-258v-100h126z" />
    <glyph glyph-name="Euro.tosf" horiz-adv-x="597" 
d="M534 544q-29 14 -64.5 21.5t-73.5 7.5q-95 0 -144 -37.5t-63 -117.5h307l-19 -55h-294q-1 -8 -1 -17v-35q0 -9 1 -17h272l-19 -52h-247q16 -91 68 -130.5t138 -39.5q42 0 81 10.5t72 32.5l6 -79q-32 -22 -79 -35.5t-104 -13.5q-128 0 -200 62.5t-90 192.5h-48v52h43v69
h-43v55h49q17 117 88 179.5t204 62.5q52 0 101 -10.5t84 -27.5z" />
    <glyph glyph-name="f_i.sc" horiz-adv-x="853" 
d="M184 560v-193h292v-84h-292v-283h-96v649h427l3 -89h-334zM654 649h98v-649h-98v649z" />
    <glyph glyph-name="f_l.sc" horiz-adv-x="1085" 
d="M184 560v-193h292v-84h-292v-283h-96v649h427l3 -89h-334zM1060 88l-3 -88h-415v649h96v-561h322z" />
    <glyph glyph-name="exclam.sc" horiz-adv-x="293" 
d="M111 177l-14 472h96l-13 -472h-69zM204 41q0 -24 -13.5 -37.5t-42.5 -13.5t-42.5 11.5t-13.5 39.5q0 52 56 52t56 -52z" />
    <glyph glyph-name="ampersand.sc" horiz-adv-x="654" 
d="M612 -9q-35 18 -72 41.5t-74 50.5q-41 -42 -94 -68.5t-120 -26.5q-51 0 -87 14.5t-58.5 39t-32.5 56t-10 64.5q0 34 10 63t27 53.5t39.5 45t47.5 38.5q-26 40 -40.5 77.5t-14.5 70.5q0 31 9 58.5t29 47.5t51 31.5t76 11.5q76 0 120.5 -33.5t44.5 -84.5q0 -30 -13.5 -55.5
t-36 -48.5t-52.5 -44.5t-64 -44.5q32 -38 72.5 -76.5t86.5 -75.5q22 34 36.5 70t20.5 70h77q-4 -36 -22 -86t-50 -101q32 -22 63 -41t63 -35zM266 72q39 0 73.5 16.5t63.5 43.5q-48 39 -91.5 82t-78.5 87q-33 -28 -54.5 -59.5t-21.5 -72.5q0 -48 29.5 -72.5t79.5 -24.5z
M216 510q0 -23 10 -49t28 -55q24 15 45.5 30t38 30t26 31.5t9.5 34.5q0 29 -21 43t-56 14q-36 0 -58 -20.5t-22 -58.5z" />
    <glyph glyph-name="question.sc" horiz-adv-x="491" 
d="M443 500q0 -73 -44.5 -124t-123.5 -90l-5 -109h-69l-6 145q36 19 65 37.5t48.5 38t30 41.5t10.5 48q0 46 -30 67t-85 21q-51 0 -89 -15.5t-71 -44.5l-34 71q35 32 88.5 52.5t117.5 20.5q100 0 148.5 -42t48.5 -117zM292 41q0 -24 -13 -37.5t-42 -13.5t-42.5 11.5
t-13.5 39.5q0 52 56 52q55 0 55 -52z" />
    <glyph glyph-name="grave.sc" 
d="M199 697l-117 131h110l80 -131h-73z" />
    <glyph glyph-name="a.sc" horiz-adv-x="662" 
d="M479 153h-303l-55 -153h-103l255 649h113l257 -649h-109zM302 499l-97 -266h246l-95 266l-25 77h-3z" />
    <glyph glyph-name="b.sc" horiz-adv-x="622" 
d="M575 185q0 -43 -12 -77.5t-38.5 -58.5t-68 -36.5t-100.5 -12.5h-268v649h257q102 0 152 -41.5t50 -121.5q0 -60 -26 -94t-68 -48v-2q59 -13 90.5 -52t31.5 -105zM480 192q0 54 -30.5 81t-95.5 27h-174v-219h178q59 0 90.5 24.5t31.5 86.5zM456 469q0 52 -27 74.5
t-87 22.5h-162v-195h170q106 0 106 98z" />
    <glyph glyph-name="c.sc" horiz-adv-x="557" 
d="M498 544q-28 12 -66 20.5t-80 8.5q-55 0 -94 -12.5t-64 -41.5t-37 -75.5t-12 -114.5q0 -72 12 -121t37.5 -78.5t65 -42.5t94.5 -13q43 0 79.5 9t66.5 23l12 -79q-33 -17 -78 -27.5t-92 -10.5q-153 0 -225 82.5t-72 257.5q0 166 73 248.5t230 82.5q44 0 88.5 -9t73.5 -22z
" />
    <glyph glyph-name="d.sc" horiz-adv-x="669" 
d="M624 326q0 -173 -73 -249.5t-221 -76.5h-242v649h240q78 0 134 -19t92 -58.5t53 -100.5t17 -145zM524 327q0 67 -11 112t-35 72t-61.5 38.5t-89.5 11.5h-143v-474h143q51 0 88 11t61 38t36 73.5t12 117.5z" />
    <glyph glyph-name="e.sc" horiz-adv-x="576" 
d="M534 85l-3 -85h-443v649h428l2 -87h-334v-186h286v-77h-286v-214h350z" />
    <glyph glyph-name="f.sc" horiz-adv-x="554" 
d="M184 560v-193h292v-84h-292v-283h-96v649h427l3 -89h-334z" />
    <glyph glyph-name="g.sc" horiz-adv-x="619" 
d="M557 26q-38 -17 -90.5 -27.5t-109.5 -10.5q-164 0 -238 81.5t-74 253.5q0 174 75 255.5t239 81.5q49 0 98.5 -9t85.5 -24l-11 -84q-36 14 -78.5 22.5t-89.5 8.5q-58 0 -99.5 -12t-68 -41t-39 -77t-12.5 -120q0 -69 11.5 -117t36.5 -77t64.5 -42t96.5 -13q69 0 117 19v248
h86v-316z" />
    <glyph glyph-name="h.sc" horiz-adv-x="693" 
d="M508 0v291h-324v-291h-96v649h96v-270h324v270h97v-649h-97z" />
    <glyph glyph-name="i.sc" horiz-adv-x="299" 
d="M100 649h98v-649h-98v649z" />
    <glyph glyph-name="j.sc" horiz-adv-x="460" 
d="M381 213q0 -119 -56 -172t-150 -53q-41 0 -77 10t-60 27l7 83q23 -17 53.5 -26t59.5 -9q65 0 96 33.5t31 105.5v437h96v-436z" />
    <glyph glyph-name="k.sc" horiz-adv-x="649" 
d="M503 0l-219 296h-100v-296h-96v649h95v-272h105l210 272h113l-239 -307l253 -342h-122z" />
    <glyph glyph-name="l.sc" horiz-adv-x="531" 
d="M506 88l-3 -88h-415v649h96v-561h322z" />
    <glyph glyph-name="m.sc" horiz-adv-x="842" 
d="M196 649l193 -447l31 -74h3l30 74l195 447h106v-649h-87v422l2 81l-3 1l-30 -76l-184 -428h-64l-182 421l-31 75l-2 -1l1 -81v-414h-86v649h108z" />
    <glyph glyph-name="n.sc" horiz-adv-x="698" 
d="M534 0l-314 444l-45 67l-2 -1l1 -81v-429h-86v649h86l350 -495l2 1l-2 80v414h86v-649h-76z" />
    <glyph glyph-name="o.sc" horiz-adv-x="664" 
d="M619 324q0 -88 -15.5 -151t-50 -104t-89 -60.5t-131.5 -19.5t-132 19.5t-89.5 61t-50.5 104.5t-16 150t16 150.5t50.5 104.5t89 60.5t132.5 19.5q77 0 131.5 -19.5t89 -60.5t50 -104.5t15.5 -150.5zM519 324q0 72 -10 120t-32 76.5t-57.5 40.5t-86.5 12t-87 -12
t-58.5 -40.5t-32.5 -76.5t-10 -120q0 -71 10 -119t32.5 -77t58.5 -41.5t87 -12.5t86 12.5t57.5 41.5t32.5 77t10 119z" />
    <glyph glyph-name="p.sc" horiz-adv-x="603" 
d="M560 443q0 -101 -56 -153t-184 -52h-136v-238h-96v649h232q126 0 183 -50.5t57 -155.5zM461 443q0 69 -33 96.5t-108 27.5h-136v-250h136q36 0 63 6t44 20t25.5 38.5t8.5 61.5z" />
    <glyph glyph-name="q.sc" horiz-adv-x="680" 
d="M627 324q0 -148 -45.5 -227t-151.5 -101l147 -107l-112 -18l-143 118q-72 2 -123 23t-83.5 62.5t-47.5 103.5t-15 146q0 87 16 150.5t50.5 104.5t89 60.5t132.5 19.5q77 0 131.5 -19.5t89 -60.5t50 -104.5t15.5 -150.5zM527 324q0 72 -10 120t-32 76.5t-57.5 40.5
t-86.5 12t-87 -12t-58.5 -40.5t-32.5 -76.5t-10 -120q0 -71 10 -119t32.5 -77t58.5 -41.5t87 -12.5t86 12.5t57.5 41.5t32.5 77t10 119z" />
    <glyph glyph-name="r.sc" horiz-adv-x="622" 
d="M546 461q0 -73 -33.5 -117.5t-99.5 -56.5l178 -287h-115l-153 268h-139v-268h-96v649h237q113 0 167 -46.5t54 -141.5zM446 458q0 60 -27.5 85t-93.5 25h-141v-226h137q68 0 96.5 26.5t28.5 89.5z" />
    <glyph glyph-name="s.sc" horiz-adv-x="533" 
d="M490 187q0 -91 -60.5 -144.5t-174.5 -53.5q-60 0 -111 13t-93 37l15 84q43 -25 89 -38t100 -13q72 0 107.5 29t35.5 80q0 27 -14.5 45t-38.5 31t-55 22.5t-62.5 20t-62.5 24t-55 33t-38.5 48.5t-14.5 70q0 38 13 71.5t41 58.5t71 39.5t102 14.5q51 0 98 -9t85 -27
l-13 -81q-42 15 -82.5 23.5t-84.5 8.5q-38 0 -64.5 -7.5t-43 -20.5t-23.5 -30t-7 -36q0 -35 25.5 -54t63 -32.5t82 -26t82 -33.5t63 -55.5t25.5 -91.5z" />
    <glyph glyph-name="t.sc" horiz-adv-x="538" 
d="M317 562v-562h-97v562h-205l2 87h504l2 -87h-206z" />
    <glyph glyph-name="u.sc" horiz-adv-x="684" 
d="M606 243q0 -133 -68 -194t-195 -61q-128 0 -196.5 61t-68.5 194v406h96v-406q0 -87 41.5 -127t127.5 -40t126.5 40.5t40.5 126.5v406h96v-406z" />
    <glyph glyph-name="v.sc" horiz-adv-x="647" 
d="M624 649l-246 -649h-108l-248 649h108l169 -488l25 -77h3l24 77l171 488h102z" />
    <glyph glyph-name="w.sc" horiz-adv-x="940" 
d="M525 649l124 -483l19 -78h3l16 79l110 482h96l-167 -649h-118l-119 479l-17 80h-3l-18 -80l-119 -479h-117l-168 649h102l109 -487l16 -79h3l18 79l124 487h106z" />
    <glyph glyph-name="x.sc" horiz-adv-x="652" 
d="M395 339l220 -339h-113l-177 281l-172 -281h-115l214 337l-207 312h119l163 -256l161 256h113z" />
    <glyph glyph-name="y.sc" horiz-adv-x="627" 
d="M134 649l145 -277l36 -72h3l35 72l145 277h107l-240 -429v-220h-100v220l-243 429h112z" />
    <glyph glyph-name="z.sc" horiz-adv-x="578" 
d="M49 0v63l310 433l48 63l-1 2h-347l4 88h462v-72l-306 -424l-48 -62l1 -3h355l-2 -88h-476z" />
    <glyph glyph-name="exclamdown.sc" horiz-adv-x="302" 
d="M190 454l12 -548h-101l13 548h76zM89 610q0 55 61 55q31 0 46 -13t15 -42q0 -57 -61 -57t-61 57z" />
    <glyph glyph-name="dieresis.sc" 
d="M164 769q0 -43 -44 -43q-22 0 -33 9.5t-11 33.5q0 42 44 42t44 -42zM327 769q0 -43 -44 -43q-22 0 -33 9.5t-11 33.5q0 42 44 42t44 -42z" />
    <glyph glyph-name="macron.sc" 
d="M343 723h-283v56h283v-56z" />
    <glyph glyph-name="acute.sc" 
d="M357 828l-137 -131h-79l98 131h118z" />
    <glyph glyph-name="cedilla.sc" 
d="M189 5l64 1l-37 -197h-90z" />
    <glyph glyph-name="questiondown.sc" horiz-adv-x="527" 
d="M48 78q0 85 48 143.5t134 104.5l4 128h75l6 -164q-79 -47 -124 -92t-45 -107q0 -53 33.5 -77.5t92.5 -24.5q55 0 98 18.5t78 49.5l35 -77q-37 -35 -95 -58t-127 -23q-107 0 -160 47t-53 132zM210 610q0 26 14.5 41t46.5 15q31 0 46 -13t15 -43q0 -27 -15 -42t-46 -15
q-32 0 -46.5 15t-14.5 42z" />
    <glyph glyph-name="germandbls.sc" horiz-adv-x="1066" 
d="M490 187q0 -91 -60.5 -144.5t-174.5 -53.5q-60 0 -111 13t-93 37l15 84q43 -25 89 -38t100 -13q72 0 107.5 29t35.5 80q0 27 -14.5 45t-38.5 31t-55 22.5t-62.5 20t-62.5 24t-55 33t-38.5 48.5t-14.5 70q0 38 13 71.5t41 58.5t71 39.5t102 14.5q51 0 98 -9t85 -27
l-13 -81q-42 15 -82.5 23.5t-84.5 8.5q-38 0 -64.5 -7.5t-43 -20.5t-23.5 -30t-7 -36q0 -35 25.5 -54t63 -32.5t82 -26t82 -33.5t63 -55.5t25.5 -91.5zM1023 187q0 -91 -60.5 -144.5t-174.5 -53.5q-60 0 -111 13t-93 37l15 84q43 -25 89 -38t100 -13q72 0 107.5 29t35.5 80
q0 27 -14.5 45t-38.5 31t-55 22.5t-62.5 20t-62.5 24t-55 33t-38.5 48.5t-14.5 70q0 38 13 71.5t41 58.5t71 39.5t102 14.5q51 0 98 -9t85 -27l-13 -81q-42 15 -82.5 23.5t-84.5 8.5q-38 0 -64.5 -7.5t-43 -20.5t-23.5 -30t-7 -36q0 -35 25.5 -54t63 -32.5t82 -26t82 -33.5
t63 -55.5t25.5 -91.5z" />
    <glyph glyph-name="agrave.sc" horiz-adv-x="662" 
d="M479 153h-303l-55 -153h-103l255 649h113l257 -649h-109zM302 499l-97 -266h246l-95 266l-25 77h-3zM324 697l-117 131h110l80 -131h-73z" />
    <glyph glyph-name="aacute.sc" horiz-adv-x="662" 
d="M479 153h-303l-55 -153h-103l255 649h113l257 -649h-109zM302 499l-97 -266h246l-95 266l-25 77h-3zM483 828l-137 -131h-79l98 131h118z" />
    <glyph glyph-name="acircumflex.sc" horiz-adv-x="662" 
d="M479 153h-303l-55 -153h-103l255 649h113l257 -649h-109zM302 499l-97 -266h246l-95 266l-25 77h-3zM369 828l105 -131h-76l-70 95l-70 -95h-75l102 131h84z" />
    <glyph glyph-name="atilde.sc" horiz-adv-x="662" 
d="M479 153h-303l-55 -153h-103l255 649h113l257 -649h-109zM302 499l-97 -266h246l-95 266l-25 77h-3zM183 732q4 40 26.5 67t58.5 27q22 0 38.5 -8.5t30.5 -18t27.5 -18t28.5 -8.5q30 0 41 40l46 -1q-4 -40 -27 -66t-59 -26q-22 0 -38.5 8t-31 18t-27.5 18t-28 8
q-14 0 -24.5 -11t-16.5 -29h-45z" />
    <glyph glyph-name="adieresis.sc" horiz-adv-x="662" 
d="M479 153h-303l-55 -153h-103l255 649h113l257 -649h-109zM302 499l-97 -266h246l-95 266l-25 77h-3zM292 769q0 -43 -44 -43q-22 0 -33 9.5t-11 33.5q0 42 44 42t44 -42zM455 769q0 -43 -44 -43q-22 0 -33 9.5t-11 33.5q0 42 44 42t44 -42z" />
    <glyph glyph-name="aring.sc" horiz-adv-x="662" 
d="M224 716q0 37 25.5 60t79.5 23q52 0 78.5 -23.5t26.5 -59.5q0 -54 -45 -74l254 -642h-109l-55 153h-303l-55 -153h-103l252 641q-46 20 -46 75zM302 499l-97 -266h246l-95 266l-25 77h-3zM276 715q0 -19 12.5 -30.5t41.5 -11.5q27 0 41 11t14 31q0 19 -13.5 30.5
t-41.5 11.5t-41 -12t-13 -30z" />
    <glyph glyph-name="ae.sc" horiz-adv-x="950" 
d="M553 563l20 -187h273v-77h-265l23 -214h303l-2 -85h-392l-16 153h-281l-85 -153h-117l386 649h495l3 -86h-345zM413 507l-152 -274h227l-28 264l-6 81l-3 1z" />
    <glyph glyph-name="ccedilla.sc" horiz-adv-x="557" 
d="M297 -9q-130 11 -191 93.5t-61 244.5q0 166 73 248.5t230 82.5q44 0 88.5 -9t73.5 -22l-12 -85q-28 12 -66 20.5t-80 8.5q-55 0 -94 -12.5t-64 -41.5t-37 -75.5t-12 -114.5q0 -72 12 -121t37.5 -78.5t65 -42.5t94.5 -13q43 0 79.5 9t66.5 23l12 -79q-29 -15 -68 -25
t-81 -12l-34 -181h-90z" />
    <glyph glyph-name="egrave.sc" horiz-adv-x="576" 
d="M534 85l-3 -85h-443v649h428l2 -87h-334v-186h286v-77h-286v-214h350zM308 697l-117 131h110l80 -131h-73z" />
    <glyph glyph-name="eacute.sc" horiz-adv-x="576" 
d="M534 85l-3 -85h-443v649h428l2 -87h-334v-186h286v-77h-286v-214h350zM468 828l-137 -131h-79l98 131h118z" />
    <glyph glyph-name="ecircumflex.sc" horiz-adv-x="576" 
d="M534 85l-3 -85h-443v649h428l2 -87h-334v-186h286v-77h-286v-214h350zM354 828l105 -131h-76l-70 95l-70 -95h-75l102 131h84z" />
    <glyph glyph-name="edieresis.sc" horiz-adv-x="576" 
d="M534 85l-3 -85h-443v649h428l2 -87h-334v-186h286v-77h-286v-214h350zM276 769q0 -43 -44 -43q-22 0 -33 9.5t-11 33.5q0 42 44 42t44 -42zM439 769q0 -43 -44 -43q-22 0 -33 9.5t-11 33.5q0 42 44 42t44 -42z" />
    <glyph glyph-name="igrave.sc" horiz-adv-x="299" 
d="M100 649h98v-649h-98v649zM144 697l-117 131h110l80 -131h-73z" />
    <glyph glyph-name="iacute.sc" horiz-adv-x="299" 
d="M100 649h98v-649h-98v649zM303 828l-137 -131h-79l98 131h118z" />
    <glyph glyph-name="icircumflex.sc" horiz-adv-x="299" 
d="M100 649h98v-649h-98v649zM189 828l105 -131h-76l-70 95l-70 -95h-75l102 131h84z" />
    <glyph glyph-name="idieresis.sc" horiz-adv-x="299" 
d="M100 649h98v-649h-98v649zM112 769q0 -43 -44 -43q-22 0 -33 9.5t-11 33.5q0 42 44 42t44 -42zM275 769q0 -43 -44 -43q-22 0 -33 9.5t-11 33.5q0 42 44 42t44 -42z" />
    <glyph glyph-name="eth.sc" horiz-adv-x="676" 
d="M631 326q0 -173 -73 -249.5t-221 -76.5h-242v305h-78v70h78v274h240q78 0 134 -19t92 -58.5t53 -100.5t17 -145zM531 327q0 67 -11 112t-35 72t-61.5 38.5t-89.5 11.5h-143v-186h131v-70h-131v-218h143q51 0 88 11t61 38t36 73.5t12 117.5z" />
    <glyph glyph-name="ntilde.sc" horiz-adv-x="698" 
d="M534 0l-314 444l-45 67l-2 -1l1 -81v-429h-86v649h86l350 -495l2 1l-2 80v414h86v-649h-76zM201 732q4 40 26.5 67t58.5 27q22 0 38.5 -8.5t30.5 -18t27.5 -18t28.5 -8.5q30 0 41 40l46 -1q-4 -40 -27 -66t-59 -26q-22 0 -38.5 8t-31 18t-27.5 18t-28 8q-14 0 -24.5 -11
t-16.5 -29h-45z" />
    <glyph glyph-name="ograve.sc" horiz-adv-x="664" 
d="M619 324q0 -88 -15.5 -151t-50 -104t-89 -60.5t-131.5 -19.5t-132 19.5t-89.5 61t-50.5 104.5t-16 150t16 150.5t50.5 104.5t89 60.5t132.5 19.5q77 0 131.5 -19.5t89 -60.5t50 -104.5t15.5 -150.5zM519 324q0 72 -10 120t-32 76.5t-57.5 40.5t-86.5 12t-87 -12
t-58.5 -40.5t-32.5 -76.5t-10 -120q0 -71 10 -119t32.5 -77t58.5 -41.5t87 -12.5t86 12.5t57.5 41.5t32.5 77t10 119zM328 697l-117 131h110l80 -131h-73z" />
    <glyph glyph-name="oacute.sc" horiz-adv-x="664" 
d="M619 324q0 -88 -15.5 -151t-50 -104t-89 -60.5t-131.5 -19.5t-132 19.5t-89.5 61t-50.5 104.5t-16 150t16 150.5t50.5 104.5t89 60.5t132.5 19.5q77 0 131.5 -19.5t89 -60.5t50 -104.5t15.5 -150.5zM519 324q0 72 -10 120t-32 76.5t-57.5 40.5t-86.5 12t-87 -12
t-58.5 -40.5t-32.5 -76.5t-10 -120q0 -71 10 -119t32.5 -77t58.5 -41.5t87 -12.5t86 12.5t57.5 41.5t32.5 77t10 119zM487 828l-137 -131h-79l98 131h118z" />
    <glyph glyph-name="ocircumflex.sc" horiz-adv-x="664" 
d="M619 324q0 -88 -15.5 -151t-50 -104t-89 -60.5t-131.5 -19.5t-132 19.5t-89.5 61t-50.5 104.5t-16 150t16 150.5t50.5 104.5t89 60.5t132.5 19.5q77 0 131.5 -19.5t89 -60.5t50 -104.5t15.5 -150.5zM519 324q0 72 -10 120t-32 76.5t-57.5 40.5t-86.5 12t-87 -12
t-58.5 -40.5t-32.5 -76.5t-10 -120q0 -71 10 -119t32.5 -77t58.5 -41.5t87 -12.5t86 12.5t57.5 41.5t32.5 77t10 119zM373 828l105 -131h-76l-70 95l-70 -95h-75l102 131h84z" />
    <glyph glyph-name="otilde.sc" horiz-adv-x="664" 
d="M619 324q0 -88 -15.5 -151t-50 -104t-89 -60.5t-131.5 -19.5t-132 19.5t-89.5 61t-50.5 104.5t-16 150t16 150.5t50.5 104.5t89 60.5t132.5 19.5q77 0 131.5 -19.5t89 -60.5t50 -104.5t15.5 -150.5zM519 324q0 72 -10 120t-32 76.5t-57.5 40.5t-86.5 12t-87 -12
t-58.5 -40.5t-32.5 -76.5t-10 -120q0 -71 10 -119t32.5 -77t58.5 -41.5t87 -12.5t86 12.5t57.5 41.5t32.5 77t10 119zM187 732q4 40 26.5 67t58.5 27q22 0 38.5 -8.5t30.5 -18t27.5 -18t28.5 -8.5q30 0 41 40l46 -1q-4 -40 -27 -66t-59 -26q-22 0 -38.5 8t-31 18t-27.5 18
t-28 8q-14 0 -24.5 -11t-16.5 -29h-45z" />
    <glyph glyph-name="odieresis.sc" horiz-adv-x="664" 
d="M619 324q0 -88 -15.5 -151t-50 -104t-89 -60.5t-131.5 -19.5t-132 19.5t-89.5 61t-50.5 104.5t-16 150t16 150.5t50.5 104.5t89 60.5t132.5 19.5q77 0 131.5 -19.5t89 -60.5t50 -104.5t15.5 -150.5zM519 324q0 72 -10 120t-32 76.5t-57.5 40.5t-86.5 12t-87 -12
t-58.5 -40.5t-32.5 -76.5t-10 -120q0 -71 10 -119t32.5 -77t58.5 -41.5t87 -12.5t86 12.5t57.5 41.5t32.5 77t10 119zM296 769q0 -43 -44 -43q-22 0 -33 9.5t-11 33.5q0 42 44 42t44 -42zM459 769q0 -43 -44 -43q-22 0 -33 9.5t-11 33.5q0 42 44 42t44 -42z" />
    <glyph glyph-name="oslash.sc" horiz-adv-x="664" 
d="M42 27l52 67q-26 41 -37.5 98t-11.5 132q0 87 16 150.5t50.5 104.5t89 60.5t131.5 19.5q128 0 196 -56l54 64l44 -44l-57 -69q26 -41 37.5 -98t11.5 -132q0 -88 -15.5 -151t-50 -104t-89 -60.5t-131.5 -19.5q-131 0 -198 57l-48 -61zM518 324q0 104 -22 160l-306 -360
q23 -27 58 -38.5t85 -11.5t85.5 12.5t57.5 41.5t32 77t10 119zM144 324q0 -103 22 -159l305 361q-23 26 -57 36.5t-82 10.5q-51 0 -87 -12t-58.5 -40.5t-32.5 -76.5t-10 -120z" />
    <glyph glyph-name="ugrave.sc" horiz-adv-x="684" 
d="M606 243q0 -133 -68 -194t-195 -61q-128 0 -196.5 61t-68.5 194v406h96v-406q0 -87 41.5 -127t127.5 -40t126.5 40.5t40.5 126.5v406h96v-406zM338 697l-117 131h110l80 -131h-73z" />
    <glyph glyph-name="uacute.sc" horiz-adv-x="684" 
d="M606 243q0 -133 -68 -194t-195 -61q-128 0 -196.5 61t-68.5 194v406h96v-406q0 -87 41.5 -127t127.5 -40t126.5 40.5t40.5 126.5v406h96v-406zM497 828l-137 -131h-79l98 131h118z" />
    <glyph glyph-name="ucircumflex.sc" horiz-adv-x="684" 
d="M606 243q0 -133 -68 -194t-195 -61q-128 0 -196.5 61t-68.5 194v406h96v-406q0 -87 41.5 -127t127.5 -40t126.5 40.5t40.5 126.5v406h96v-406zM383 828l105 -131h-76l-70 95l-70 -95h-75l102 131h84z" />
    <glyph glyph-name="udieresis.sc" horiz-adv-x="684" 
d="M606 243q0 -133 -68 -194t-195 -61q-128 0 -196.5 61t-68.5 194v406h96v-406q0 -87 41.5 -127t127.5 -40t126.5 40.5t40.5 126.5v406h96v-406zM306 769q0 -43 -44 -43q-22 0 -33 9.5t-11 33.5q0 42 44 42t44 -42zM469 769q0 -43 -44 -43q-22 0 -33 9.5t-11 33.5
q0 42 44 42t44 -42z" />
    <glyph glyph-name="yacute.sc" horiz-adv-x="627" 
d="M134 649l145 -277l36 -72h3l35 72l145 277h107l-240 -429v-220h-100v220l-243 429h112zM471 828l-137 -131h-79l98 131h118z" />
    <glyph glyph-name="thorn.sc" horiz-adv-x="610" 
d="M560 331q0 -50 -14 -88t-45 -63.5t-80 -39t-119 -13.5h-118v-127h-96v649h96v-111h118q69 0 118 -12.5t80 -38.5t45.5 -65t14.5 -91zM461 332q0 69 -37 96.5t-122 27.5h-118v-251h118q42 0 72 6t49.5 21t28.5 39.5t9 60.5z" />
    <glyph glyph-name="ydieresis.sc" horiz-adv-x="627" 
d="M134 649l145 -277l36 -72h3l35 72l145 277h107l-240 -429v-220h-100v220l-243 429h112zM279 769q0 -43 -44 -43q-22 0 -33 9.5t-11 33.5q0 42 44 42t44 -42zM442 769q0 -43 -44 -43q-22 0 -33 9.5t-11 33.5q0 42 44 42t44 -42z" />
    <glyph glyph-name="amacron.sc" horiz-adv-x="662" 
d="M479 153h-303l-55 -153h-103l255 649h113l257 -649h-109zM302 499l-97 -266h246l-95 266l-25 77h-3zM470 723h-283v56h283v-56z" />
    <glyph glyph-name="abreve.sc" horiz-adv-x="662" 
d="M479 153h-303l-55 -153h-103l255 649h113l257 -649h-109zM302 499l-97 -266h246l-95 266l-25 77h-3zM469 828q0 -64 -34 -100t-107 -36q-75 0 -108 35.5t-33 100.5h66q0 -46 21 -66.5t54 -20.5q32 0 53 21t21 66h67z" />
    <glyph glyph-name="aogonek.sc" horiz-adv-x="662" 
d="M479 153h-303l-55 -153h-103l255 649h113l257 -649h-17q-31 0 -50 -22.5t-19 -48.5q0 -23 14 -36.5t46 -13.5q33 0 58 14l9 -53q-40 -23 -93 -23q-54 0 -81 23.5t-27 61.5q0 32 15.5 57t42.5 41h-7zM302 499l-97 -266h246l-95 266l-25 77h-3z" />
    <glyph glyph-name="cacute.sc" horiz-adv-x="557" 
d="M498 544q-28 12 -66 20.5t-80 8.5q-55 0 -94 -12.5t-64 -41.5t-37 -75.5t-12 -114.5q0 -72 12 -121t37.5 -78.5t65 -42.5t94.5 -13q43 0 79.5 9t66.5 23l12 -79q-33 -17 -78 -27.5t-92 -10.5q-153 0 -225 82.5t-72 257.5q0 166 73 248.5t230 82.5q44 0 88.5 -9t73.5 -22z
M478 828l-137 -131h-79l98 131h118z" />
    <glyph glyph-name="ccircumflex.sc" horiz-adv-x="557" 
d="M498 544q-28 12 -66 20.5t-80 8.5q-55 0 -94 -12.5t-64 -41.5t-37 -75.5t-12 -114.5q0 -72 12 -121t37.5 -78.5t65 -42.5t94.5 -13q43 0 79.5 9t66.5 23l12 -79q-33 -17 -78 -27.5t-92 -10.5q-153 0 -225 82.5t-72 257.5q0 166 73 248.5t230 82.5q44 0 88.5 -9t73.5 -22z
M364 828l105 -131h-76l-70 95l-70 -95h-75l102 131h84z" />
    <glyph glyph-name="cdotaccent.sc" horiz-adv-x="557" 
d="M498 544q-28 12 -66 20.5t-80 8.5q-55 0 -94 -12.5t-64 -41.5t-37 -75.5t-12 -114.5q0 -72 12 -121t37.5 -78.5t65 -42.5t94.5 -13q43 0 79.5 9t66.5 23l12 -79q-33 -17 -78 -27.5t-92 -10.5q-153 0 -225 82.5t-72 257.5q0 166 73 248.5t230 82.5q44 0 88.5 -9t73.5 -22z
M381 765q0 -47 -56 -47q-29 0 -43 10.5t-14 36.5q0 46 57 46q56 0 56 -46z" />
    <glyph glyph-name="ccaron.sc" horiz-adv-x="557" 
d="M498 544q-28 12 -66 20.5t-80 8.5q-55 0 -94 -12.5t-64 -41.5t-37 -75.5t-12 -114.5q0 -72 12 -121t37.5 -78.5t65 -42.5t94.5 -13q43 0 79.5 9t66.5 23l12 -79q-33 -17 -78 -27.5t-92 -10.5q-153 0 -225 82.5t-72 257.5q0 166 73 248.5t230 82.5q44 0 88.5 -9t73.5 -22z
M282 697l-103 131h76l69 -97l70 97h77l-105 -131h-84z" />
    <glyph glyph-name="dcaron.sc" horiz-adv-x="669" 
d="M624 326q0 -173 -73 -249.5t-221 -76.5h-242v649h240q78 0 134 -19t92 -58.5t53 -100.5t17 -145zM524 327q0 67 -11 112t-35 72t-61.5 38.5t-89.5 11.5h-143v-474h143q51 0 88 11t61 38t36 73.5t12 117.5zM264 697l-103 131h76l69 -97l70 97h77l-105 -131h-84z" />
    <glyph glyph-name="dcroat.sc" horiz-adv-x="676" 
d="M631 326q0 -173 -73 -249.5t-221 -76.5h-242v305h-78v70h78v274h240q78 0 134 -19t92 -58.5t53 -100.5t17 -145zM531 327q0 67 -11 112t-35 72t-61.5 38.5t-89.5 11.5h-143v-186h131v-70h-131v-218h143q51 0 88 11t61 38t36 73.5t12 117.5z" />
    <glyph glyph-name="emacron.sc" horiz-adv-x="576" 
d="M534 85l-3 -85h-443v649h428l2 -87h-334v-186h286v-77h-286v-214h350zM448 723h-283v56h283v-56z" />
    <glyph glyph-name="ebreve.sc" horiz-adv-x="576" 
d="M534 85l-3 -85h-443v649h428l2 -87h-334v-186h286v-77h-286v-214h350zM454 828q0 -64 -34 -100t-107 -36q-75 0 -108 35.5t-33 100.5h66q0 -46 21 -66.5t54 -20.5q32 0 53 21t21 66h67z" />
    <glyph glyph-name="edotaccent.sc" horiz-adv-x="576" 
d="M534 85l-3 -85h-443v649h428l2 -87h-334v-186h286v-77h-286v-214h350zM371 765q0 -47 -56 -47q-29 0 -43 10.5t-14 36.5q0 46 57 46q56 0 56 -46z" />
    <glyph glyph-name="eogonek.sc" horiz-adv-x="576" 
d="M534 85l-3 -85h-48q-31 0 -50 -22.5t-19 -48.5q0 -23 14 -36.5t46 -13.5q33 0 58 14l9 -53q-40 -23 -93 -23q-54 0 -81 23.5t-27 61.5q0 32 15.5 57t42.5 41h-310v649h428l2 -87h-334v-186h286v-77h-286v-214h350z" />
    <glyph glyph-name="ecaron.sc" horiz-adv-x="576" 
d="M534 85l-3 -85h-443v649h428l2 -87h-334v-186h286v-77h-286v-214h350zM267 697l-103 131h76l69 -97l70 97h77l-105 -131h-84z" />
    <glyph glyph-name="gcircumflex.sc" horiz-adv-x="619" 
d="M557 26q-38 -17 -90.5 -27.5t-109.5 -10.5q-164 0 -238 81.5t-74 253.5q0 174 75 255.5t239 81.5q49 0 98.5 -9t85.5 -24l-11 -84q-36 14 -78.5 22.5t-89.5 8.5q-58 0 -99.5 -12t-68 -41t-39 -77t-12.5 -120q0 -69 11.5 -117t36.5 -77t64.5 -42t96.5 -13q69 0 117 19v248
h86v-316zM380 828l105 -131h-76l-70 95l-70 -95h-75l102 131h84z" />
    <glyph glyph-name="gbreve.sc" horiz-adv-x="619" 
d="M557 26q-38 -17 -90.5 -27.5t-109.5 -10.5q-164 0 -238 81.5t-74 253.5q0 174 75 255.5t239 81.5q49 0 98.5 -9t85.5 -24l-11 -84q-36 14 -78.5 22.5t-89.5 8.5q-58 0 -99.5 -12t-68 -41t-39 -77t-12.5 -120q0 -69 11.5 -117t36.5 -77t64.5 -42t96.5 -13q69 0 117 19v248
h86v-316zM481 828q0 -64 -34 -100t-107 -36q-75 0 -108 35.5t-33 100.5h66q0 -46 21 -66.5t54 -20.5q32 0 53 21t21 66h67z" />
    <glyph glyph-name="gdotaccent.sc" horiz-adv-x="619" 
d="M557 26q-38 -17 -90.5 -27.5t-109.5 -10.5q-164 0 -238 81.5t-74 253.5q0 174 75 255.5t239 81.5q49 0 98.5 -9t85.5 -24l-11 -84q-36 14 -78.5 22.5t-89.5 8.5q-58 0 -99.5 -12t-68 -41t-39 -77t-12.5 -120q0 -69 11.5 -117t36.5 -77t64.5 -42t96.5 -13q69 0 117 19v248
h86v-316zM397 765q0 -47 -56 -47q-29 0 -43 10.5t-14 36.5q0 46 57 46q56 0 56 -46z" />
    <glyph glyph-name="uni0123.sc" horiz-adv-x="619" 
d="M557 26q-38 -17 -90.5 -27.5t-109.5 -10.5q-164 0 -238 81.5t-74 253.5q0 174 75 255.5t239 81.5q49 0 98.5 -9t85.5 -24l-11 -84q-36 14 -78.5 22.5t-89.5 8.5q-58 0 -99.5 -12t-68 -41t-39 -77t-12.5 -120q0 -69 11.5 -117t36.5 -77t64.5 -42t96.5 -13q69 0 117 19v248
h86v-316zM350 -40q11 0 22 -2t19.5 -7t14 -13.5t5.5 -22.5q0 -11 -7 -24.5t-18.5 -29t-26 -31.5t-30.5 -30l-29 10l29 72q-38 7 -38 39q0 16 13.5 27.5t45.5 11.5z" />
    <glyph glyph-name="hcircumflex.sc" horiz-adv-x="693" 
d="M508 0v291h-324v-291h-96v649h96v-270h324v270h97v-649h-97zM382 828l105 -131h-76l-70 95l-70 -95h-75l102 131h84z" />
    <glyph glyph-name="hbar.sc" horiz-adv-x="706" 
d="M515 0v291h-324v-291h-96v488h-50v58h50v103h96v-103h324v103h97v-103h49v-58h-49v-488h-97zM515 379v109h-324v-109h324z" />
    <glyph glyph-name="itilde.sc" horiz-adv-x="299" 
d="M100 649h98v-649h-98v649zM3 732q4 40 26.5 67t58.5 27q22 0 38.5 -8.5t30.5 -18t27.5 -18t28.5 -8.5q30 0 41 40l46 -1q-4 -40 -27 -66t-59 -26q-22 0 -38.5 8t-31 18t-27.5 18t-28 8q-14 0 -24.5 -11t-16.5 -29h-45z" />
    <glyph glyph-name="imacron.sc" horiz-adv-x="299" 
d="M100 649h98v-649h-98v649zM290 723h-283v56h283v-56z" />
    <glyph glyph-name="ibreve.sc" horiz-adv-x="299" 
d="M100 649h98v-649h-98v649zM289 828q0 -64 -34 -100t-107 -36q-75 0 -108 35.5t-33 100.5h66q0 -46 21 -66.5t54 -20.5q32 0 53 21t21 66h67z" />
    <glyph glyph-name="iogonek.sc" horiz-adv-x="299" 
d="M100 649h98v-649h-5q-31 0 -50 -22.5t-19 -48.5q0 -23 14 -36.5t46 -13.5q33 0 58 14l9 -53q-40 -23 -93 -23q-54 0 -81 23.5t-27 61.5q0 32 15.5 57t42.5 41h-8v649z" />
    <glyph glyph-name="Idotaccent.sc" horiz-adv-x="299" 
d="M100 649h98v-649h-98v649zM206 765q0 -47 -56 -47q-29 0 -43 10.5t-14 36.5q0 46 57 46q56 0 56 -46z" />
    <glyph glyph-name="dotlessi.sc" horiz-adv-x="299" 
d="M100 649h98v-649h-98v649z" />
    <glyph glyph-name="ij.sc" horiz-adv-x="759" 
d="M100 649h98v-649h-98v649zM680 213q0 -119 -56 -172t-150 -53q-41 0 -77 10t-60 27l7 83q23 -17 53.5 -26t59.5 -9q65 0 96 33.5t31 105.5v437h96v-436z" />
    <glyph glyph-name="jcircumflex.sc" horiz-adv-x="460" 
d="M381 213q0 -119 -56 -172t-150 -53q-41 0 -77 10t-60 27l7 83q23 -17 53.5 -26t59.5 -9q65 0 96 33.5t31 105.5v437h96v-436zM373 828l105 -131h-76l-70 95l-70 -95h-75l102 131h84z" />
    <glyph glyph-name="uni0137.sc" horiz-adv-x="649" 
d="M503 0l-219 296h-100v-296h-96v649h95v-272h105l210 272h113l-239 -307l253 -342h-122zM337 -40q11 0 22 -2t19.5 -7t14 -13.5t5.5 -22.5q0 -11 -7 -24.5t-18.5 -29t-26 -31.5t-30.5 -30l-29 10l29 72q-38 7 -38 39q0 16 13.5 27.5t45.5 11.5z" />
    <glyph glyph-name="kgreenlandic.sc" horiz-adv-x="649" 
d="M503 0l-219 296h-100v-296h-96v649h95v-272h105l210 272h113l-239 -307l253 -342h-122z" />
    <glyph glyph-name="lacute.sc" horiz-adv-x="531" 
d="M506 88l-3 -88h-415v649h96v-561h322zM371 828l-137 -131h-79l98 131h118z" />
    <glyph glyph-name="uni013C.sc" horiz-adv-x="531" 
d="M506 88l-3 -88h-415v649h96v-561h322zM285 -40q11 0 22 -2t19.5 -7t14 -13.5t5.5 -22.5q0 -11 -7 -24.5t-18.5 -29t-26 -31.5t-30.5 -30l-29 10l29 72q-38 7 -38 39q0 16 13.5 27.5t45.5 11.5z" />
    </font>
</defs>
</svg>
